<?xml version="1.0" encoding="UTF-8"?>
<svg xmlns="http://www.w3.org/2000/svg" id="Layer_1" data-name="Layer 1" viewBox="0 0 24 24">
  <path d="m21.999,18.467c0,4.068-4.484,5.533-7.499,5.533h-2C6.427,24,.003,18.092,0,12.504h0v-.004s0-.001,0-.002c0-2.054.425-4.742,2.076-7.494H.523c-.462,0-.696-.561-.367-.885C1.82,2.484,3.879.882,5.274.085c.429-.245.968.069.971.564.011,2.044-.423,4.446-.836,6.422-.112.534-.851.591-1.044.08l-.681-1.627c-.69,1.917-1.683,2.976-1.683,6.976,0,3.969,5.527,8,9.5,8,1.21,0,3.5-.313,3.5-1.5,0-.607-.709-1.213-1.638-1.837l-3.295.843c-.379.084-.686-.309-.512-.656l1.163-1.89c-.213-.148-.424-.3-.632-.459h-3.61c-.44,0-.66-.532-.349-.843l1.869-1.305c-.185-.28-.35-.576-.489-.891l-3.05-.238c-.428-.053-.567-.604-.216-.855l2.78-1.594c.048-.36.216-1.44.575-2.202.236-.5.833-.715,1.331-.478.5.235.714.831.479,1.331-.218.462-.36,1.299-.404,1.632.033,2.528,2.218,3.893,4.332,5.212,1.887,1.178,3.668,2.29,3.668,4.229,0,1.536-1.006,2.483-2.382,2.999,1.52-.034,5.382-.716,5.382-3.499-.086-2.584-1.571-4.161-4.868-6.709-.438-.337-.518-.966-.18-1.402.335-.436.965-.52,1.402-.18,3.228,2.493,5.521,4.546,5.645,8.258Zm-2-13.467h3.001c.553,0,1-.447,1-1s-.447-1-1-1h-3.463c-.471-.607-1.219-1-2.037-1h-.698c-.824-.863-.97-1.369-1.106-1.635-.092-.18-.164-.365-.365-.365s-.365.164-.365.365c0,.923.057,1.347.18,2.016-.931-.444-2.407-1.791-2.997-2.283-.303-.253-.752.018-.678.406.164.866,1.117,2.519,1.665,3.307-1.551-.173-3.676-.633-4.671-.811-.368-.066-.614.371-.362.648.776.854,2.779,2.332,5.007,2.966-.524.674-.969,2.041-1.133,2.81-.088.41.358.725.712.501.932-.589,2.614-1.926,3.812-1.926,2.505,0,4.107,1.094,4.84,1.746.19.17.428.253.665.253.275,0,.55-.113.747-.335.367-.412.33-1.045-.082-1.412-.726-.646-2.11-1.628-4.148-2.049.18-1.183,1.435-1.203,1.477-1.203Z"/>
</svg>
