<?xml version="1.0" encoding="UTF-8"?>
<svg xmlns="http://www.w3.org/2000/svg" id="Layer_1" data-name="Layer 1" viewBox="0 0 24 24">
  <path d="m12,0C5.383,0,0,5.383,0,12s5.383,12,12,12,12-5.383,12-12S18.617,0,12,0Zm0,22c-5.514,0-10-4.486-10-10S6.486,2,12,2s10,4.486,10,10-4.486,10-10,10Zm7-10c0,.552-.447,1-1,1h-1v1c0,.552-.447,1-1,1s-1-.448-1-1v-1h-1c-.553,0-1-.448-1-1s.447-1,1-1h1v-1c0-.552.447-1,1-1s1,.448,1,1v1h1c.553,0,1,.448,1,1Zm-7,2c0,1.654-1.346,3-3,3h-2c-.553,0-1-.448-1-1s.447-1,1-1h2c.552,0,1-.449,1-1s-.448-1-1-1h-1c-.553,0-1-.448-1-1s.447-1,1-1h.5c.552,0,1-.449,1-1s-.448-1-1-1h-1.5c-.553,0-1-.448-1-1s.447-1,1-1h1.5c1.654,0,3,1.346,3,3,0,.646-.21,1.242-.559,1.732.642.551,1.059,1.358,1.059,2.268Z"/>
</svg>
