<?xml version="1.0" encoding="UTF-8"?>
<svg xmlns="http://www.w3.org/2000/svg" id="Layer_1" data-name="Layer 1" viewBox="0 0 24 24">
  <path d="m12.544,8.026l-.777.777,1.271,1.271.777-.777c.312-.312.817-.312,1.129,0,.312.312.312.817,0,1.129l-.777.777,1.553,1.553c.312.312.312.817,0,1.129-.312.312-.817.312-1.129,0l-4.518-4.518c-.312-.312-.312-.817,0-1.129l1.341-1.341c.312-.312.817-.312,1.129,0,.312.312.312.817,0,1.129Zm8.4-.494c.312.312.817.312,1.129,0l1.341-1.341c.312-.312.312-.817,0-1.129h0c-.312-.312-.817-.312-1.129,0l-.777.777-.989-.988.777-.777c.312-.312.312-.817,0-1.129h0c-.312-.312-.817-.312-1.129,0l-.777.777-1.271-1.271.777-.777c.312-.312.312-.817,0-1.129-.312-.312-.817-.312-1.129,0l-1.341,1.341c-.312.312-.312.817,0,1.129l4.518,4.518ZM2.041,12.91c-.027-.3-.041-.604-.041-.91C2,6.486,6.486,2,12,2c.307,0,.61.014.91.041.555.043,1.036-.356,1.086-.906s-.356-1.036-.906-1.086c-.359-.032-.723-.049-1.09-.049C5.383,0,0,5.383,0,12c0,.367.017.731.049,1.09.047.52.483.91.995.91.55-.05,1.046-.54.997-1.09Zm11.209-6.719l4.518,4.518c.312.312.817.312,1.129,0l1.341-1.341c.312-.312.312-.817,0-1.129-.312-.312-.817-.312-1.129,0l-.777.777-.989-.989.777-.777c.312-.312.312-.817,0-1.129h0c-.312-.312-.817-.312-1.129,0l-.777.777-1.271-1.271.777-.777c.312-.312.312-.817,0-1.129h0c-.312-.312-.817-.312-1.129,0l-1.341,1.341c-.312.312-.312.817,0,1.129Zm10.702,4.721c-.049-.549-.522-.952-1.085-.908-.55.049-.956.535-.907,1.084.026.301.041.604.041.912,0,5.514-4.486,10-10,10-.307,0-.611-.015-.912-.041-.556-.055-1.036.357-1.084.907-.049.551.357,1.036.908,1.085.358.032.722.049,1.088.049,6.617,0,12-5.383,12-12,0-.367-.017-.73-.049-1.088Zm-12.325,7.068c-.973.973-2.556.973-3.529,0l-2.118-2.118c-.973-.973-.973-2.556,0-3.529.973-.973,2.556-.973,3.529,0l2.118,2.118c.973.973.973,2.556,0,3.529Zm-1.129-2.4l-2.118-2.118c-.35-.35-.92-.35-1.271,0s-.35.92,0,1.271l2.118,2.118c.35.35.92.35,1.271,0,.35-.35.35-.92,0-1.271Zm-6.424-.212c-.312-.312-.818-.312-1.129,0-.312.312-.312.818,0,1.129l2.303,2.303-3.551-1.371c-.357-.138-.762-.052-1.033.219-.378.378-.378.99,0,1.368l4.398,4.398c.312.312.818.312,1.129,0s.312-.818,0-1.129l-2.297-2.297,3.545,1.365c.357.137.761.052,1.032-.219h0c.378-.378.378-.991,0-1.369l-4.398-4.398Z"/>
</svg>
