<?xml version="1.0" encoding="UTF-8"?>
<svg xmlns="http://www.w3.org/2000/svg" id="Layer_1" data-name="Layer 1" viewBox="0 0 24 24">
  <path d="m4,7v-2C4,2.243,6.243,0,9,0h6c1.22,0,2.395.444,3.308,1.25.414.365.453.998.088,1.412-.367.415-.997.454-1.412.087-.547-.483-1.252-.75-1.983-.75h-6c-1.654,0-3,1.346-3,3v2c0,.552-.447,1-1,1s-1-.448-1-1Zm15,5c-.553,0-1,.448-1,1v6c0,1.654-1.346,3-3,3h-6c-1.654,0-3-1.346-3-3,0-.552-.447-1-1-1s-1,.448-1,1c0,2.757,2.243,5,5,5h6c2.757,0,5-2.243,5-5v-6c0-.552-.447-1-1-1Zm-3.738.21c-.16-.853-.889-1.551-1.812-1.735l-2.688-.539c-.267-.054-.461-.291-.461-.562,0-.316.257-.574.573-.574h2.204c.223,0,.434.107.564.287.142.193.433.213.552.213.381,0,.628-.246.732-.476.132-.291.086-.605-.121-.841-.438-.497-1.067-.782-1.728-.782h-.277v-.7c0-.441-.358-.8-.8-.8s-.8.359-.8.8v.7h-.327c-.646,0-1.256.287-1.672.786-.414.499-.583,1.156-.463,1.804.159.853.887,1.55,1.812,1.735l2.688.538c.268.054.462.291.462.563,0,.316-.258.574-.574.574h-2.204c-.223,0-.434-.107-.564-.287-.142-.193-.433-.213-.552-.213-.381,0-.628.246-.732.477-.131.291-.086.604.122.84.438.498,1.066.783,1.727.783h.278v.7c0,.441.358.8.8.8s.8-.359.8-.8v-.7h.326c.647,0,1.257-.287,1.673-.787.414-.499.583-1.156.463-1.803Zm8.21-6.514l-2.244-2.382c-.378-.402-1.011-.42-1.413-.042-.402.379-.421,1.012-.042,1.414l1.238,1.314h-3.011c-.553,0-1,.448-1,1s.447,1,1,1h3.011l-1.238,1.314c-.379.402-.36,1.035.042,1.414.193.182.439.272.686.272.266,0,.531-.105.728-.314l2.224-2.36c.354-.354.55-.825.55-1.326s-.195-.972-.529-1.304ZM4.228,15.314l-1.238-1.314h3.011c.553,0,1-.448,1-1s-.447-1-1-1h-3.01l1.238-1.314c.379-.402.36-1.035-.042-1.414-.401-.377-1.035-.359-1.413.042l-2.223,2.36c-.354.354-.55.825-.55,1.326s.195.972.529,1.304l2.243,2.381c.196.209.462.314.728.314.246,0,.492-.09.686-.272.402-.379.421-1.012.042-1.414Zm6.772,2.686c-.553,0-1,.448-1,1s.447,1,1,1h2c.553,0,1-.448,1-1s-.447-1-1-1h-2Z"/>
</svg>
