<?xml version="1.0" encoding="UTF-8"?>
<svg xmlns="http://www.w3.org/2000/svg" id="Layer_1" data-name="Layer 1" viewBox="0 0 24 24">
  <path d="m11,4c-3.86,0-7,3.141-7,7s3.14,7,7,7,7-3.141,7-7-3.14-7-7-7Zm0,12c-2.757,0-5-2.243-5-5s2.243-5,5-5,5,2.243,5,5-2.243,5-5,5Zm2-5c0,1.105-.895,2-2,2s-2-.895-2-2,.895-2,2-2,2,.895,2,2Zm10.969,6.209l-1.299,6.003c-.1.46-.507.789-.977.789h-1.387c-.471,0-.878-.328-.977-.788l-1.296-5.986c-.22-1.155.665-2.225,1.841-2.225h.125v-4c0-4.963-4.038-9-9-9S2,6.037,2,11s4.038,9,9,9c1.252,0,2.463-.252,3.6-.748.505-.225,1.096.01,1.317.516.221.506-.01,1.096-.516,1.316-1.391.608-2.872.916-4.401.916C4.935,22,0,17.065,0,11S4.935,0,11,0s11,4.935,11,11v4h.125c1.169,0,2.053,1.058,1.844,2.209Z"/>
</svg>
