<?xml version="1.0" encoding="UTF-8"?>
<svg xmlns="http://www.w3.org/2000/svg" id="Layer_1" data-name="Layer 1" viewBox="0 0 24 24">
  <path d="m19.908,8.092c-.375-2.028-1.972-3.625-4-4-.429-2.324-2.462-4.092-4.908-4.092h-6C2.243,0,0,2.243,0,5v6c0,2.446,1.768,4.479,4.092,4.908.375,2.028,1.972,3.625,4,4,.429,2.324,2.462,4.092,4.908,4.092h6c2.757,0,5-2.243,5-5v-6c0-2.446-1.768-4.479-4.092-4.908ZM2,11v-6c0-1.654,1.346-3,3-3h6c1.302,0,2.402.839,2.816,2h-4.816c-2.757,0-5,2.243-5,5v4.816c-1.161-.414-2-1.514-2-2.816Zm4,4v-6c0-1.654,1.346-3,3-3h6c1.302,0,2.402.839,2.816,2h-4.816c-2.757,0-5,2.243-5,5v4.816c-1.161-.414-2-1.514-2-2.816Zm16,4c0,1.654-1.346,3-3,3h-6c-1.654,0-3-1.346-3-3v-6c0-1.654,1.346-3,3-3h6c1.654,0,3,1.346,3,3v6Z"/>
</svg>
