<?xml version="1.0" encoding="UTF-8"?>
<svg xmlns="http://www.w3.org/2000/svg" id="Layer_1" data-name="Layer 1" viewBox="0 0 24 24">
  <path d="m2,2.5c0-1.381,1.119-2.5,2.5-2.5s2.5,1.119,2.5,2.5-1.119,2.5-2.5,2.5-2.5-1.119-2.5-2.5Zm5,7.5c-.552,0-1,.447-1,1v4h-2c-1.103,0-2-.897-2-2v-3c0-1.103.897-2,2-2h10c.552,0,1-.447,1-1s-.448-1-1-1H4C1.794,6,0,7.794,0,10v3c0,1.474.81,2.75,2,3.444v6.556c0,.553.448,1,1,1s1-.447,1-1v-6h2v6c0,.553.448,1,1,1s1-.447,1-1v-12c0-.553-.448-1-1-1Zm17,9v2c0,1.654-1.346,3-3,3h-2c-.771,0-1.468-.301-2-.78-.532.48-1.229.78-2,.78h-2c-1.654,0-3-1.346-3-3v-2c0-1.654,1.346-3,3-3h.184c-.112-.314-.184-.648-.184-1v-2c0-1.654,1.346-3,3-3h2c1.654,0,3,1.346,3,3v2c0,.352-.072.686-.184,1h.184c1.654,0,3,1.346,3,3Zm-9-4c0,.552.449,1,1,1h2c.551,0,1-.448,1-1v-2c0-.552-.449-1-1-1h-2c-.551,0-1,.448-1,1v2Zm1,6v-2c0-.552-.449-1-1-1h-2c-.551,0-1,.448-1,1v2c0,.552.449,1,1,1h2c.551,0,1-.448,1-1Zm6-2c0-.552-.449-1-1-1h-2c-.551,0-1,.448-1,1v2c0,.552.449,1,1,1h2c.551,0,1-.448,1-1v-2Z"/>
</svg>
