<?xml version="1.0" encoding="UTF-8"?>
<svg xmlns="http://www.w3.org/2000/svg" id="Layer_1" data-name="Layer 1" viewBox="0 0 24 24">
  <path d="m12,10c2.757,0,5-2.243,5-5S14.757,0,12,0s-5,2.243-5,5,2.243,5,5,5Zm0-8c1.654,0,3,1.346,3,3s-1.346,3-3,3-3-1.346-3-3,1.346-3,3-3Zm11,17h-3c0-4.411-3.589-8-8-8s-8,3.589-8,8H1c-.552,0-1,.448-1,1s.448,1,1,1h1v2c0,.552.448,1,1,1s1-.448,1-1v-2h16v2c0,.552.448,1,1,1s1-.448,1-1v-2h1c.552,0,1-.448,1-1s-.448-1-1-1Zm-17,0c0-2.573,1.631-4.767,3.911-5.617l1.187,1.781-1.099,3.836h-4Zm6.901-3.836l1.187-1.781c2.28.851,3.911,3.044,3.911,5.617h-4l-1.099-3.836Z"/>
</svg>
