<?xml version="1.0" encoding="UTF-8"?>
<svg xmlns="http://www.w3.org/2000/svg" id="Layer_1" data-name="Layer 1" viewBox="0 0 24 24">
  <path d="m1,13c-.553,0-1-.448-1-1C0,5.383,5.383,0,12,0c3.449,0,6.733,1.518,9,4.087V1c0-.552.447-1,1-1s1,.448,1,1v4c0,1.103-.897,2-2,2h-4c-.553,0-1-.448-1-1s.447-1,1-1h2.122c-1.867-1.893-4.434-3-7.122-3C6.486,2,2,6.486,2,12c0,.552-.447,1-1,1Zm22-2c-.553,0-1,.448-1,1,0,5.514-4.486,10-10,10-2.688,0-5.255-1.107-7.123-3h2.123c.553,0,1-.448,1-1s-.447-1-1-1H3c-1.103,0-2,.897-2,2v4c0,.552.447,1,1,1s1-.448,1-1v-3.087c2.267,2.569,5.551,4.087,9,4.087,6.617,0,12-5.383,12-12,0-.552-.447-1-1-1Zm-12.142,8.919c.374.054.759.081,1.142.081,4.411,0,8-3.589,8-8,0-.78-.111-1.55-.332-2.287-.159-.529-.715-.832-1.244-.671-.529.158-.83.715-.672,1.245.165.551.248,1.127.248,1.713,0,3.309-2.691,6-6,6-.288,0-.577-.021-.858-.061-.542-.078-1.052.301-1.132.848-.078.546.302,1.053.849,1.131Zm1.142-13.919c.286,0,.575.021.859.061.55.079,1.053-.303,1.131-.85.077-.546-.303-1.053-.85-1.131-.377-.053-.761-.081-1.141-.081-4.411,0-8,3.589-8,8,0,.777.111,1.546.331,2.286.13.434.527.715.959.715.094,0,.19-.014.285-.042.529-.157.831-.714.674-1.244-.165-.555-.249-1.132-.249-1.715,0-3.309,2.691-6,6-6Zm1.126,8.2h-2.204c-.223,0-.434-.107-.564-.287-.142-.193-.433-.213-.552-.213-.381,0-.628.246-.732.477-.131.291-.086.604.122.84.438.498,1.066.783,1.727.783h.278v.7c0,.441.358.8.8.8s.8-.359.8-.8v-.7h.326c.647,0,1.257-.287,1.673-.787.414-.499.583-1.156.463-1.803-.16-.853-.889-1.551-1.812-1.735l-2.688-.539c-.267-.054-.461-.291-.461-.562,0-.316.257-.574.573-.574h2.204c.223,0,.434.107.564.287.142.193.433.213.552.213.381,0,.628-.246.732-.476.132-.291.086-.605-.121-.841-.438-.497-1.067-.782-1.728-.782h-.277v-.7c0-.441-.358-.8-.8-.8s-.8.359-.8.8v.7h-.327c-.646,0-1.256.287-1.672.786-.414.499-.583,1.156-.463,1.804.159.853.887,1.55,1.812,1.735l2.688.538c.268.054.462.291.462.563,0,.316-.258.574-.574.574Z"/>
</svg>
