<?xml version="1.0" encoding="UTF-8"?>
<svg xmlns="http://www.w3.org/2000/svg" id="Layer_1" data-name="Layer 1" viewBox="0 0 24 24">
  <path d="m17.26,10.292c.488.477,1.114.715,1.74.715s1.252-.238,1.74-.715l1.795-1.756c1.949-1.95,1.949-5.122,0-7.071h0c-.945-.944-2.2-1.464-3.535-1.464s-2.592.52-3.535,1.464c-1.949,1.95-1.949,5.122.008,7.079l1.787,1.749Zm-.381-7.414c.566-.566,1.319-.878,2.121-.878s1.555.312,2.121.879c1.17,1.169,1.17,3.073.008,4.235l-1.787,1.748c-.191.188-.492.187-.684,0l-1.779-1.74c-1.17-1.17-1.17-3.073,0-4.243Zm3.122,1.909c0,.552-.448,1-1,1s-1-.448-1-1,.448-1,1-1,1,.448,1,1Zm3.999,13.213c0,2.206-1.794,4-4,4h-7c-.553,0-1-.448-1-1s.447-1,1-1h7c1.103,0,2-.897,2-2s-.897-2-2-2h-8c-2.206,0-4-1.794-4-4s1.794-4,4-4c.553,0,1,.448,1,1s-.447,1-1,1c-1.103,0-2,.897-2,2s.897,2,2,2h8c2.206,0,4,1.794,4,4Zm-14.884-.454c-.604-1.547-2.066-2.546-3.727-2.546H1c-.553,0-1,.448-1,1s.447,1,1,1h2v3H1c-.553,0-1,.448-1,1s.447,1,1,1h1v.5c0,.828.672,1.5,1.5,1.5s1.5-.672,1.5-1.5c0,.828.672,1.5,1.5,1.5s1.5-.672,1.5-1.5v-.5c1.299,0,2-1.03,2-2,0-.125-.023-.248-.068-.363l-.815-2.09Zm-4.116,2.454v-3h.39c.83,0,1.562.5,1.863,1.273l.674,1.727h-2.927Z"/>
</svg>
