<?xml version="1.0" encoding="UTF-8"?>
<svg xmlns="http://www.w3.org/2000/svg" id="Layer_1" data-name="Layer 1" viewBox="0 0 24 24">
  <path d="m5.5,11c1.93,0,3.5-1.57,3.5-3.5s-1.57-3.5-3.5-3.5-3.5,1.57-3.5,3.5,1.57,3.5,3.5,3.5Zm0-5c.827,0,1.5.673,1.5,1.5s-.673,1.5-1.5,1.5-1.5-.673-1.5-1.5.673-1.5,1.5-1.5Zm3.331,8.314c-.309.459-.929.582-1.388.274-.575-.386-1.247-.589-1.943-.589-1.787,0-3.282,1.337-3.479,3.11-.057.511-.49.89-.993.89-.036,0-.073-.002-.111-.006-.549-.061-.944-.556-.884-1.104.309-2.787,2.659-4.89,5.467-4.89,1.094,0,2.15.32,3.057.927.459.308.582.929.274,1.388Zm6.669-7.314c1.93,0,3.5-1.57,3.5-3.5s-1.57-3.5-3.5-3.5-3.5,1.57-3.5,3.5,1.57,3.5,3.5,3.5Zm0-5c.827,0,1.5.673,1.5,1.5s-.673,1.5-1.5,1.5-1.5-.673-1.5-1.5.673-1.5,1.5-1.5Zm1.5,8c-3.859,0-7,3.141-7,7s3.141,7,7,7,7-3.141,7-7-3.141-7-7-7Zm0,12c-2.757,0-5-2.243-5-5s2.243-5,5-5,5,2.243,5,5-2.243,5-5,5Zm3.222-6.212c.382.398.369,1.031-.029,1.414l-2.213,2.124c-.452.446-1.052.671-1.653.671s-1.203-.225-1.663-.674l-1.132-1.109c-.395-.387-.4-1.02-.014-1.414.386-.395,1.019-.401,1.414-.014l1.131,1.108c.144.142.379.139.522-.002l2.223-2.134c.397-.381,1.031-.37,1.414.029Z"/>
</svg>
