<?xml version="1.0" encoding="UTF-8"?>
<svg xmlns="http://www.w3.org/2000/svg" id="Layer_1" data-name="Layer 1" viewBox="0 0 24 24">
  <path d="m19,0h-7.996s-.002,0-.004,0-.002,0-.004,0h-2.996C.577,0,0,4.976,0,6.5c0,3.867,3.767,6.149,6.517,7.815l.462.281c.739.451,1.888.991,2.999,1.513.565.266,1.274.599,1.878.902-.787.006-1.787.004-2.794,0-.022-.001-.04-.013-.062-.013-.021,0-.039.011-.06.012-.622-.002-1.244-.005-1.818-.006l-3.625-.006c-1.929,0-3.498,1.571-3.498,3.5s1.568,3.5,3.497,3.5h5.497s.004,0,.006,0,.004-.001.006-.001h3.761c6.712,0,7.233-4.973,7.233-6.498,0-3.823-4.086-5.79-7.069-7.227-.825-.397-1.604-.772-2.176-1.126-.699-.431-2.298-1.417-3.245-2.116.418-.018.794-.032.99-.032h5.537c.228,0,.365.224.401.293.878,1.645,2.669,2.707,4.562,2.707h1.5c1.93,0,3.5-1.57,3.5-3.5v-1.5c0-2.757-2.243-5-5-5ZM3.497,22c-.825,0-1.497-.673-1.497-1.5s.672-1.499,1.499-1.5l3.62.006c.307,0,.592.001.882.002v2.991H3.497Zm14.503-4.498c0,2.052-.908,4.497-5.233,4.497h-2.767s0-2.987,0-2.987c2.014.003,3.304.001,3.537-.013.576-.033,1.083-.381,1.323-.906.238-.521.169-1.124-.179-1.576-.269-.349-.773-.687-1.642-1.141l1.836-1.836c1.714,1.026,3.125,2.284,3.125,3.962Zm-5.937-5.425c.317.153.644.31.973.473l-1.897,1.897c-.106-.05-.2-.095-.312-.147-1.062-.499-2.161-1.015-2.807-1.409l-.468-.284c-.252-.153-.512-.311-.773-.472l1.912-1.912c.322.202.655.411,1.012.63.661.407,1.485.804,2.358,1.225Zm-5.476-7.003c-.666.03-1.233.434-1.482,1.053-.248.616-.117,1.296.341,1.776.305.32.831.724,1.533,1.204l-1.903,1.903c-1.673-1.209-3.077-2.659-3.077-4.509,0-1.681.779-4.499,6-4.499h2s0,2.999,0,2.999h-1.5c-.34,0-1.196.039-1.913.073Zm15.413,1.427c0,.827-.673,1.5-1.5,1.5h-1.5c-1.165,0-2.263-.647-2.797-1.648-.444-.834-1.274-1.352-2.166-1.352h-2.037v-2.999h7c1.654,0,3,1.345,3,2.999v1.5Z"/>
  <circle cx="19" cy="5" r="1.5"/>
</svg>
