<?xml version="1.0" encoding="UTF-8"?>
<svg xmlns="http://www.w3.org/2000/svg" id="Layer_1" data-name="Layer 1" viewBox="0 0 24 24">
  <path d="m22.212.973c-.566-.618-1.373-.973-2.212-.973H4c-.836,0-1.64.353-2.206.967s-.853,1.445-.784,2.279l1.329,16.164c.213,2.574,2.401,4.59,4.983,4.59h9.264c2.61,0,4.752-1.961,4.98-4.562l1.422-16.175c.073-.836-.21-1.671-.776-2.29ZM3.265,2.322c.191-.208.453-.322.735-.322h16c.284,0,.546.115.737.324.191.209.283.48.259.764l-.696,7.912H3.655l-.651-7.918c-.023-.282.069-.552.261-.76Zm13.321,19.678H7.322c-1.549,0-2.862-1.21-2.989-2.754l-.514-6.246h16.305l-.551,6.263c-.138,1.561-1.422,2.737-2.988,2.737Z"/>
</svg>
