<?xml version="1.0" encoding="UTF-8"?>
<svg xmlns="http://www.w3.org/2000/svg" id="Layer_1" data-name="Layer 1" viewBox="0 0 24 24">
  <path d="m22.258,18.858c-.227-.09-.297-.172-.268-1.292.004-.184.009-9.066.009-9.066,0-.119-.021-1.234-.059-1.34-.367-4.108-2.406-7.16-4.941-7.16H5c-.891,0-1.753.38-2.499,1.087l-.794-.794C1.316-.098.684-.098.293.293S-.098,1.316.293,1.707l22,22c.195.195.451.293.707.293s.512-.098.707-.293.293-.451.293-.707v-1.654c0-1.089-.684-2.065-1.742-2.488Zm-2.247-.261l-1.828-1.828c.671-.267,1.286-.757,1.817-1.425,0,0-.004,2.003-.009,2.17-.009.335-.018.708.02,1.083Zm-.011-10.097c0,3.831-1.581,6.5-3,6.5-.344,0-.697-.157-1.034-.448l-.307-.307c-.92-1.052-1.659-3.127-1.659-5.745,0-3.831,1.581-6.5,3-6.5s3,2.669,3,6.5ZM5,2h8.745c-1.073,1.547-1.745,3.866-1.745,6.5,0,.785.06,1.541.172,2.258L3.916,2.502c.295-.272.668-.502,1.084-.502Zm13.5,21c0,.552-.448,1-1,1h-4.5c-2.757,0-5-2.243-5-5v-2h-3c-2.804,0-5-3.733-5-8.5,0-.729.052-1.451.154-2.146.081-.547.592-.924,1.135-.844.546.081.924.588.844,1.135-.088.599-.133,1.223-.133,1.855,0,3.831,1.581,6.5,3,6.5h6c.552,0,1,.448,1,1s-.448,1-1,1h-1v2c0,1.654,1.346,3,3,3h4.5c.552,0,1,.448,1,1Zm-1.5-16c.552,0,1,.672,1,1.5s-.448,1.5-1,1.5-1-.672-1-1.5.448-1.5,1-1.5Z"/>
</svg>
