<?xml version="1.0" encoding="UTF-8"?>
<svg xmlns="http://www.w3.org/2000/svg" id="Layer_1" data-name="Layer 1" viewBox="0 0 24 24">
  <path d="m23.018,8.785c-.595-.542-1.356-.821-2.169-.782-.804.037-1.545.386-2.085.981l-3.217,3.534c-.427-.704-1.124-1.224-1.945-1.425.246-.477.398-1.009.398-1.582,0-2.517-1.763-5.472-4.115-6.569.337-.352.666-.743.93-1.163.488-.772-.048-1.78-.962-1.78h-3.708c-.914,0-1.449,1.008-.962,1.78.265.42.593.81.93,1.163-2.352,1.096-4.115,4.052-4.115,6.569,0,.654.193,1.26.508,1.783-1.468.593-2.508,2.027-2.508,3.705v5c0,2.206,1.794,4,4,4h4.965c2.85,0,5.57-1.22,7.467-3.348l6.804-7.637c1.094-1.225.996-3.123-.218-4.23Zm-15.018-4.285c1.821.049,4,2.738,4,5.012,0,.821-.673,1.488-1.5,1.488h-5c-.827,0-1.5-.667-1.5-1.488,0-2.274,2.179-4.963,4-5.012Zm13.742,7.184l-6.805,7.638c-1.517,1.702-3.693,2.678-5.973,2.678h-4.965c-1.103,0-2-.897-2-2v-5c0-1.103.897-2,2-2h8.857c.63,0,1.143.512,1.143,1.142,0,.564-.422,1.051-.98,1.131l-5.161.737c-.547.078-.927.584-.849,1.131.078.546.584.922,1.132.848l5.161-.737c1.175-.168,2.128-.988,2.514-2.058l4.427-4.865c.181-.2.43-.316.699-.329.271-.007.528.082.728.262.407.372.44,1.009.072,1.421Z"/>
</svg>
