<?xml version="1.0" encoding="UTF-8"?>
<svg xmlns="http://www.w3.org/2000/svg" id="Layer_1" data-name="Layer 1" viewBox="0 0 24 24">
  <path d="m12.292,14.85c-.22-.196-.569-.146-.719.108-.846,1.431-.652,3.481-1.41,3.481-.359,0-.303-.62-.472-1.004-.12-.271-.484-.313-.671-.082-.716.884-1.404,2.443-.77,3.965.678,1.629,2.209,2.779,3.971,2.676,2.108-.124,3.779-1.872,3.779-4.01h0c0-2.112-2.342-3.914-3.708-5.133Zm.866,7.592c-.62.723-1.732.723-2.351,0-.536-.625-.432-1.58.15-2.162l.682-.682c.19-.19.497-.19.687,0l.682.682h0c.582.582.686,1.538.15,2.162Zm9.842-.442V5.238l.842-1.674.077-.207c.203-.812.024-1.658-.492-2.318-.515-.66-1.292-1.039-2.129-1.039H2.702C1.865,0,1.088.379.573,1.039.058,1.699-.122,2.544.082,3.357l.918,1.865v16.778c-.552,0-1,.448-1,1s.448,1,1,1h5c.552,0,1-.448,1-1v-8.6c0-1.246.772-2.373,1.923-2.803,2.112-.792,4.042-.792,6.154,0,1.15.431,1.923,1.557,1.923,2.803v8.6c0,.552.448,1,1,1h5c.552,0,1-.448,1-1s-.448-1-1-1ZM2.149,2.27c.079-.101.255-.27.553-.27h18.596c.298,0,.474.169.553.27.07.091.175.271.144.515l-.611,1.215H2.617l-.611-1.215c-.031-.245.074-.424.144-.515Zm13.63,7.454c-2.563-.96-4.995-.96-7.559,0-1.926.722-3.221,2.601-3.221,4.676v7.6h-2V6h18v16h-2v-7.6c0-2.075-1.294-3.954-3.221-4.676Z"/>
</svg>
