<?xml version="1.0" encoding="UTF-8"?>
<svg xmlns="http://www.w3.org/2000/svg" id="Layer_1" data-name="Layer 1" viewBox="0 0 24 24">
  <path d="m16,9.5c0,.828-.672,1.5-1.5,1.5s-1.5-.672-1.5-1.5.672-1.5,1.5-1.5,1.5.672,1.5,1.5Zm-1.5,3.5c-.828,0-1.5.672-1.5,1.5s.672,1.5,1.5,1.5,1.5-.672,1.5-1.5-.672-1.5-1.5-1.5Zm8.5,5h-9c-1.577,0-2.859-1.227-2.977-2.773l.212-.231c1.103-1.23.999-3.129-.232-4.231,0,0-.002-.001-.003-.002v-1.762c0-1.654,1.346-3,3-3h9c.552,0,1-.448,1-1s-.448-1-1-1h-9c-1.627,0-3.061.793-3.974,2h-3.853c-1.634,0-3.226.576-4.481,1.623l-1.331,1.109c-.424.354-.481.984-.128,1.408.198.237.482.36.769.36.226,0,.453-.076.64-.232l1.331-1.109c.897-.748,2.034-1.159,3.201-1.159h2.929c-.066.323-.101.658-.101,1v1.015c-.693.005-1.393.244-1.972.731l-2.721,2.616c-.398.383-.411,1.016-.028,1.414.383.399,1.017.411,1.414.028l2.671-2.57c.377-.316.938-.307,1.305.021.409.367.444.998.086,1.397l-2.813,3.058c-.755.821-1.828,1.292-2.944,1.292H1c-.552,0-1,.448-1,1s.448,1,1,1h2.998c1.673,0,3.283-.706,4.416-1.938l.998-1.085c.768,1.775,2.534,3.022,4.588,3.022h9c.552,0,1-.448,1-1s-.448-1-1-1Zm-1-8c.208,0,.426.042.667.126.522.184,1.092-.088,1.276-.609.184-.521-.088-1.092-.609-1.276-2.753-.976-5.333,1.114-5.333,3.759,0,2.206,1.794,4,4,4,.439,0,.876-.079,1.333-.241.521-.185.793-.756.609-1.276-.185-.521-.759-.795-1.276-.609-.24.085-.458.126-.667.126-1.103,0-2-.897-2-2s.897-2,2-2Z"/>
</svg>
