<?xml version="1.0" encoding="UTF-8"?>
<svg xmlns="http://www.w3.org/2000/svg" id="Layer_1" data-name="Layer 1" viewBox="0 0 24 24">
  <path d="m14.5,13.5c0,1.381-1.119,2.5-2.5,2.5s-2.5-1.119-2.5-2.5,1.119-2.5,2.5-2.5,2.5,1.119,2.5,2.5Zm7.734-2.178c-.373-.405-1.007-.431-1.413-.057l-5.637,5.204c-.371.342-.854.531-1.357.531h-3.654c-.504,0-.986-.188-1.356-.53l-5.638-5.205c-.405-.374-1.039-.349-1.413.057-.375.406-.35,1.039.056,1.413l5.639,5.205c.168.155.351.289.54.412v4.648c0,.552.447,1,1,1s1-.448,1-1v-4.016c.058.003.114.016.173.016h3.654c.058,0,.115-.014.173-.016v4.016c0,.552.447,1,1,1s1-.448,1-1v-4.648c.189-.123.372-.257.541-.412l5.638-5.205c.405-.375.431-1.007.056-1.413ZM7,3c0-1.654,1.346-3,3-3,.768,0,1.469.29,2,.766.531-.476,1.232-.766,2-.766,1.654,0,3,1.346,3,3,0,2.674-3.622,5.469-3.776,5.587-.36.274-.792.412-1.224.412s-.863-.137-1.223-.411c-.155-.118-3.777-2.914-3.777-5.587Zm2,0c0,1.06,1.552,2.9,2.989,3.997,1.459-1.097,3.011-2.938,3.011-3.997,0-.551-.448-1-1-1s-1,.449-1,1-.447,1-1,1-1-.448-1-1-.448-1-1-1-1,.449-1,1Z"/>
</svg>
