<?xml version="1.0" encoding="UTF-8"?>
<svg xmlns="http://www.w3.org/2000/svg" id="Layer_1" data-name="Layer 1" viewBox="0 0 24 24">
  <path d="m19.5,15H4.5c-2.481,0-4.5,2.019-4.5,4.5s2.019,4.5,4.5,4.5h15c2.481,0,4.5-2.019,4.5-4.5s-2.019-4.5-4.5-4.5Zm0,7H4.5c-1.379,0-2.5-1.122-2.5-2.5s1.121-2.5,2.5-2.5h15c1.379,0,2.5,1.122,2.5,2.5s-1.121,2.5-2.5,2.5Zm-11.5-9h8c2.206,0,4-1.794,4-4v-5c0-2.206-1.794-4-4-4h-8c-2.206,0-4,1.794-4,4v5c0,2.206,1.794,4,4,4Zm3-11h2v3h-2v-3Zm-5,2c0-1.103.897-2,2-2h1v3c0,1.103.897,2,2,2h2c1.103,0,2-.897,2-2v-3h1c1.103,0,2,.897,2,2v5c0,1.103-.897,2-2,2h-8c-1.103,0-2-.897-2-2v-5Zm0,15.5c0,.828-.672,1.5-1.5,1.5s-1.5-.672-1.5-1.5.672-1.5,1.5-1.5,1.5.672,1.5,1.5Zm15,0c0,.828-.672,1.5-1.5,1.5s-1.5-.672-1.5-1.5.672-1.5,1.5-1.5,1.5.672,1.5,1.5Zm-7.5,0c0,.828-.672,1.5-1.5,1.5s-1.5-.672-1.5-1.5.672-1.5,1.5-1.5,1.5.672,1.5,1.5Z"/>
</svg>
