<?xml version="1.0" encoding="UTF-8"?>
<svg xmlns="http://www.w3.org/2000/svg" id="Layer_1" data-name="Layer 1" viewBox="0 0 24 24">
  <path d="m24,18.664v.336c0,1.214-1.082,2.176-2.335,1.973-.984-.16-1.665-1.083-1.665-2.079v-.23l.854-2.42-1.854-.348v6.105h2c.552,0,1,.447,1,1s-.448,1-1,1h-6c-.552,0-1-.447-1-1s.448-1,1-1h2v-6.48l-1.752-.328.861,2.406v.575h-.013c-.129,1.162-1.226,2.032-2.466,1.783-.97-.194-1.63-1.112-1.63-2.101v-.244l1.06-3.379c.251-.801,1.061-1.288,1.886-1.135l2.054.381v-.48c0-.553.448-1,1-1s1,.447,1,1v.851l2.41.447c.675.125,1.233.599,1.465,1.245l1.124,3.121Zm-15-4.664C4.038,14,0,18.037,0,23c0,.553.448,1,1,1s1-.447,1-1c0-3.859,3.14-7,7-7,.552,0,1-.447,1-1s-.448-1-1-1ZM.873,12.822c.308-1.306,1.854-7.849,2.026-8.385C3.758,1.783,6.209,0,9,0s5.242,1.783,6.101,4.437c.033.103.133.413,1.303,5.332.128.537-.204,1.076-.741,1.204-.078.019-.156.027-.232.027-.453,0-.863-.31-.972-.769-1.059-4.452-1.233-5.092-1.261-5.182-.305-.941-.905-1.719-1.675-2.255-.528,1.312-1.447,2.423-2.669,3.185-1.081.675-2.302,1.021-3.545,1.021-.056,0-.112-.008-.167-.01.444,1.725,1.999,3.009,3.861,3.009.704,0,1.395-.185,1.999-.534.478-.279,1.09-.114,1.366.364.277.478.114,1.09-.364,1.366-.908.525-1.945.804-3.001.804-2.203,0-4.127-1.197-5.171-2.971-.344,1.439-.717,3.011-1.01,4.253-.108.46-.519.771-.972.771-.076,0-.153-.009-.23-.026-.538-.127-.871-.666-.744-1.203Zm3.969-7.865c1.03.1,2.059-.117,2.952-.674.856-.534,1.491-1.314,1.863-2.231-.215-.032-.434-.052-.657-.052-1.886,0-3.54,1.186-4.158,2.957Z"/>
</svg>
