<?xml version="1.0" encoding="UTF-8"?>
<svg xmlns="http://www.w3.org/2000/svg" id="Layer_1" data-name="Layer 1" viewBox="0 0 24 24">
  <path d="m20.5,15h-.684c.112-.314.184-.648.184-1v-3c0-1.654-1.346-3-3-3h-.684c.112-.314.184-.648.184-1v-3c0-1.654-1.346-3-3-3h-3c-1.654,0-3,1.346-3,3v3c0,.352.072.686.184,1h-.684c-1.654,0-3,1.346-3,3v3c0,.352.072.686.184,1h-.684c-1.654,0-3,1.346-3,3v3c0,1.654,1.346,3,3,3h3c.771,0,1.468-.301,2-.78.532.48,1.229.78,2,.78h3c.771,0,1.468-.301,2-.78.532.48,1.229.78,2,.78h3c1.654,0,3-1.346,3-3v-3c0-1.654-1.346-3-3-3Zm-2.5-4v3c0,.552-.448,1-1,1h-3c-.552,0-1-.448-1-1v-3c0-.552.448-1,1-1h3c.552,0,1,.448,1,1Zm-8.5-7c0-.552.448-1,1-1h3c.552,0,1,.448,1,1v3c0,.552-.448,1-1,1h-3c-.552,0-1-.448-1-1v-3Zm-3.5,7c0-.552.448-1,1-1h3c.552,0,1,.448,1,1v3c0,.552-.448,1-1,1h-3c-.552,0-1-.448-1-1v-3Zm.5,11h-3c-.552,0-1-.448-1-1v-3c0-.552.448-1,1-1h3c.552,0,1,.448,1,1v3c0,.552-.448,1-1,1Zm7,0h-3c-.552,0-1-.448-1-1v-3c0-.552.448-1,1-1h3c.552,0,1,.448,1,1v3c0,.552-.448,1-1,1Zm8-1c0,.552-.448,1-1,1h-3c-.552,0-1-.448-1-1v-3c0-.552.448-1,1-1h3c.552,0,1,.448,1,1v3Z"/>
</svg>
