<?xml version="1.0" encoding="UTF-8"?>
<svg xmlns="http://www.w3.org/2000/svg" id="Layer_1" data-name="Layer 1" viewBox="0 0 24 24">
  <path d="m16.932,21.886c.201.515-.053,1.095-.568,1.296-1.39.543-2.858.818-4.364.818C5.383,24,0,18.617,0,12S5.383,0,12,0c4.531,0,8.627,2.508,10.691,6.545.251.491.056,1.094-.436,1.346-.492.25-1.094.056-1.346-.436-1.72-3.365-5.134-5.455-8.91-5.455C6.486,2,2,6.486,2,12s4.486,10,10,10c1.255,0,2.479-.229,3.636-.682.515-.201,1.095.054,1.295.567ZM5,8v2c0,.553.448,1,1,1s1-.447,1-1v-2c0-.553-.448-1-1-1s-1,.447-1,1Zm4,0v2c0,.553.448,1,1,1s1-.447,1-1v-2c0-.553-.448-1-1-1s-1,.447-1,1Zm4,0v2c0,.553.448,1,1,1s1-.447,1-1v-2c0-.553-.448-1-1-1s-1,.447-1,1Zm10.768,8.684c-.273-.43-.74-.686-1.249-.686h-4.154l2.51-4.512c.269-.483.095-1.092-.388-1.36-.481-.269-1.091-.094-1.36.388l-2.97,5.342c-.23.463-.206,1.002.066,1.441.272.438.743.701,1.259.701h4.153l-2.509,4.517c-.269.482-.094,1.091.388,1.359.154.086.321.126.485.126.352,0,.692-.186.875-.515l2.987-5.381c.215-.461.18-.992-.093-1.421Z"/>
</svg>
