<?xml version="1.0" encoding="UTF-8"?>
<svg xmlns="http://www.w3.org/2000/svg" id="Layer_1" data-name="Layer 1" viewBox="0 0 24 24">
  <path d="m10.5,1.5c0-.828.672-1.5,1.5-1.5s1.5.672,1.5,1.5-.672,1.5-1.5,1.5-1.5-.672-1.5-1.5Zm9.3,12.151c-.386,0-.7,0-.7,0v4.802s.314,0,.7,0,.7-.314.7-.7v-3.4c0-.386-.314-.7-.7-.7Zm-10.3,0c-.386,0-.7.314-.7.7v3.4c0,.386.314.7.7.7s.7-.314.7-.7v-3.4c0-.386-.314-.7-.7-.7Zm14.5-.151v5c0,1.933-1.567,3.5-3.5,3.5H3.5c-1.933,0-3.5-1.567-3.5-3.5v-5c0-1.933,1.567-3.5,3.5-3.5h.669c.011-.017.012-.036.024-.053l4.115-5.616c.326-.445.952-.542,1.398-.215.445.327.542.952.215,1.398l-3.287,4.486h10.731l-3.287-4.486c-.326-.446-.23-1.071.215-1.398s1.071-.23,1.398.215l4.115,5.616c.012.016.014.036.024.053h.669c1.933,0,3.5,1.567,3.5,3.5Zm-19.334,1.836c-.56-.227-1.084-.467-1.366-.595-.099-.045-.428-.173-.433-.615-.002-.131.103-.441.515-.577.427-.138.832-.046,1.137.088.304.133.66.038.863-.225.278-.36.165-.887-.24-1.093-.549-.279-1.313-.48-2.152-.203-.796.263-1.359.951-1.471,1.796-.106.818.23,1.565.921,2.049.003,0,.838.409,1.753.78.214.086.905.409.817.959-.065.391-.492.795-1.096.795-.381,0-.753-.106-1.069-.297-.285-.172-.652-.125-.888.111-.33.329-.269.874.119,1.131.539.357,1.175.552,1.839.552,1.221,0,2.245-.853,2.436-2.028.143-.882-.224-2.036-1.685-2.627Zm7.134-1.036c0-1.269-1.031-2.3-2.3-2.3s-2.3,1.031-2.3,2.3v3.4c0,1.269,1.031,2.3,2.3,2.3s2.3-1.031,2.3-2.3v-3.4Zm4.7,4.9c0-.442-.358-.8-.8-.8h-1.101v-5.601c0-.442-.358-.8-.8-.8s-.8.358-.8.8v6.4c0,.442.358.8.8.8h1.9c.442,0,.8-.358.8-.8Zm5.6-4.9c0-1.27-1.03-2.3-2.3-2.3h-1.5c-.442,0-.8.358-.8.8v6.4c0,.442.358.8.8.8h1.5c1.27,0,2.3-1.03,2.3-2.3v-3.4Z"/>
</svg>
