<?xml version="1.0" encoding="UTF-8"?>
<svg xmlns="http://www.w3.org/2000/svg" id="Layer_1" data-name="Layer 1" viewBox="0 0 24 24">
  <path d="m17,10c-2.868,0-5.336,1.735-6.416,4.21-.166-.123-.361-.21-.584-.21-.552,0-1,.447-1,1v2c0,.553.448,1,1,1,.027,0,.051-.013.078-.016.481,3.394,3.398,6.016,6.922,6.016,3.86,0,7-3.141,7-7s-3.14-7-7-7Zm0,12c-2.757,0-5-2.243-5-5s2.243-5,5-5,5,2.243,5,5-2.243,5-5,5Zm3.221-6.212c.383.398.37,1.031-.029,1.414l-2.212,2.124c-.452.446-1.052.671-1.653.671s-1.204-.225-1.664-.674l-1.132-1.108c-.395-.387-.401-1.02-.015-1.414.387-.395,1.02-.401,1.414-.016l1.132,1.108c.144.141.379.142.522,0l2.223-2.134c.398-.381,1.031-.37,1.414.029Zm-10.221,7.212c0,.553-.448,1-1,1h-4c-2.757,0-5-2.243-5-5v-6c0-2.045,1.237-3.802,3-4.576v-1.424C3,3.14,6.14,0,10,0s7,3.14,7,7c0,.552-.448,1-1,1s-1-.448-1-1c0-2.757-2.243-5-5-5s-5,2.243-5,5v1h8c.552,0,1,.448,1,1s-.448,1-1,1H5c-1.654,0-3,1.346-3,3v6c0,1.654,1.346,3,3,3h4c.552,0,1,.447,1,1Z"/>
</svg>
