<?xml version="1.0" encoding="UTF-8"?>
<svg xmlns="http://www.w3.org/2000/svg" id="Layer_1" data-name="Layer 1" viewBox="0 0 24 24">
  <path d="m18,15.991c0,2.065-1.042,3.96-2.788,5.068-.133.084-.212.233-.212.4v1.54c0,.553-.448,1-1,1s-1-.447-1-1v-1.54c0-.855.426-1.637,1.141-2.09,1.164-.738,1.859-2.002,1.859-3.379,0-.98-.359-1.915-1-2.641v.375c0,1.657-1.028,2.983-2.501,3.225-.879.138-1.767-.101-2.439-.672-.674-.572-1.06-1.405-1.06-2.287v-.641c-.641.725-1,1.66-1,2.641,0,1.377.695,2.641,1.86,3.379.714.453,1.14,1.234,1.14,2.09v1.54c0,.553-.448,1-1,1s-1-.447-1-1v-1.54c0-.167-.079-.316-.212-.4-1.746-1.108-2.788-3.003-2.788-5.068,0-1.77.777-3.439,2.133-4.582.522-.44,1.233-.534,1.855-.244.624.29,1.012.896,1.012,1.583v1.243c0,.293.129.571.354.763.228.193.521.274.82.223.486-.08.825-.594.825-1.251v-.979c0-.687.388-1.293,1.012-1.583.621-.288,1.333-.194,1.854.245,1.356,1.143,2.134,2.813,2.134,4.583ZM4.5,3c-.828,0-1.5.672-1.5,1.5s.672,1.5,1.5,1.5,1.5-.672,1.5-1.5-.672-1.5-1.5-1.5Zm4,0c-.828,0-1.5.672-1.5,1.5s.672,1.5,1.5,1.5,1.5-.672,1.5-1.5-.672-1.5-1.5-1.5Zm15.5,2v12c0,2.757-2.243,5-5,5-.552,0-1-.447-1-1s.448-1,1-1c1.654,0,3-1.346,3-3v-8H2v8c0,1.654,1.346,3,3,3,.552,0,1,.447,1,1s-.448,1-1,1c-2.757,0-5-2.243-5-5V5C0,2.243,2.243,0,5,0h14c2.757,0,5,2.243,5,5Zm-2,2v-2c0-1.654-1.346-3-3-3H5c-1.654,0-3,1.346-3,3v2h20Z"/>
</svg>
