<?xml version="1.0" encoding="UTF-8"?>
<svg xmlns="http://www.w3.org/2000/svg" id="Layer_1" data-name="Layer 1" viewBox="0 0 24 24">
  <path d="m19,5h-2c0-2.206-1.794-4-4-4H4C1.794,1,0,2.794,0,5v10c0,1.881,1.309,3.452,3.061,3.877-.038.204-.061.412-.061.623,0,1.93,1.57,3.5,3.5,3.5s3.5-1.57,3.5-3.5c0-.169-.017-.335-.041-.5h4.082c-.024.165-.041.331-.041.5,0,1.93,1.57,3.5,3.5,3.5s3.5-1.57,3.5-3.5c0-.211-.023-.419-.061-.623,1.752-.425,3.061-1.996,3.061-3.877v-5c0-2.757-2.243-5-5-5Zm0,2c1.654,0,3,1.346,3,3v1h-5v-4h2ZM2,15V5c0-1.103.897-2,2-2h9c1.103,0,2,.897,2,2v12H4c-1.103,0-2-.897-2-2Zm18,2h-3v-4h5v2c0,1.103-.897,2-2,2Zm-14.682-6.652c-.303-.408-.396-.943-.249-1.43.028-.095,2.599-3.973,2.599-3.973.308-.46.928-.584,1.387-.277.46.307.584.928.277,1.387l-1.965,2.945h3.028c.591,0,1.133.323,1.412.845.28.521.251,1.151-.075,1.645l-2.403,3.569c-.192.287-.509.441-.83.441-.192,0-.386-.055-.558-.171-.458-.308-.579-.93-.271-1.388l1.979-2.941h-3.035c-.509,0-.993-.244-1.297-.652Z"/>
</svg>
