<?xml version="1.0" encoding="UTF-8"?>
<svg xmlns="http://www.w3.org/2000/svg" id="Layer_1" data-name="Layer 1" viewBox="0 0 24 24">
  <path d="m10.125,14.125c0,1.861,1.514,3.375,3.375,3.375s3.375-1.514,3.375-3.375c0-.958-.405-1.819-1.049-2.434.491-.552.799-1.271.799-2.066,0-1.723-1.402-3.125-3.125-3.125s-3.125,1.402-3.125,3.125c0,.795.308,1.514.799,2.066-.643.615-1.049,1.476-1.049,2.434Zm3.375,1.375c-.758,0-1.375-.617-1.375-1.375s.617-1.375,1.375-1.375,1.375.617,1.375,1.375-.617,1.375-1.375,1.375Zm-1.125-5.875c0-.62.505-1.125,1.125-1.125s1.125.505,1.125,1.125-.505,1.125-1.125,1.125-1.125-.505-1.125-1.125Zm11.625,2.375c0,.553-.448,1-1,1h-1v1c0,.553-.448,1-1,1s-1-.447-1-1v-1h-1c-.552,0-1-.447-1-1s.448-1,1-1h1v-1c0-.553.448-1,1-1s1,.447,1,1v1h1c.552,0,1,.447,1,1Zm-17,4v-5.9l-.523.574c-.372.406-1.005.438-1.413.065-.408-.372-.438-1.004-.066-1.413l1.732-1.901c.372-.402.936-.532,1.439-.334.504.197.831.674.831,1.216v7.693c0,.553-.448,1-1,1s-1-.447-1-1Zm15.059,2.546c-2.227,3.415-5.987,5.454-10.059,5.454C5.383,24,0,18.617,0,12S5.383,0,12,0c4.071,0,7.832,2.039,10.059,5.454.302.462.171,1.082-.291,1.384-.464.3-1.083.171-1.384-.292-1.857-2.847-4.991-4.546-8.384-4.546C6.486,2,2,6.486,2,12s4.486,10,10,10c3.394,0,6.528-1.699,8.383-4.546.302-.462.921-.591,1.384-.292.463.302.593.922.292,1.384Z"/>
</svg>
