<?xml version="1.0" encoding="UTF-8"?>
<svg xmlns="http://www.w3.org/2000/svg" id="Layer_1" data-name="Layer 1" viewBox="0 0 24 24">
  <path d="m9,12c3.309,0,6-2.691,6-6S12.309,0,9,0,3,2.691,3,6s2.691,6,6,6Zm0-10c2.206,0,4,1.794,4,4s-1.794,4-4,4-4-1.794-4-4,1.794-4,4-4Zm12,12h-5c-1.654,0-3,1.346-3,3v4c0,1.654,1.346,3,3,3h5c1.654,0,3-1.346,3-3v-4c0-1.654-1.346-3-3-3Zm1,7c0,.552-.449,1-1,1h-5c-.551,0-1-.448-1-1v-4c0-.552.449-1,1-1h5c.551,0,1,.448,1,1v4Zm-2-3c0,.553-.448,1-1,1h-1c-.552,0-1-.447-1-1s.448-1,1-1h1c.552,0,1,.447,1,1Zm-9.351-1.072c.42.358.47.989.112,1.41l-.5.586c-.06.07-.129.132-.207.183-.79.527-1.859.386-2.487-.331l-2.331-2.767c-2.03,1.294-3.237,3.495-3.237,5.886v1.105c0,.553-.448,1-1,1s-1-.447-1-1v-1.105c0-3.075,1.551-5.906,4.148-7.571.846-.542,1.973-.371,2.618.397l2.211,2.625.261-.307c.358-.42.99-.472,1.41-.111Z"/>
</svg>
