<?xml version="1.0" encoding="UTF-8"?>
<svg xmlns="http://www.w3.org/2000/svg" id="Layer_1" data-name="Layer 1" viewBox="0 0 24 24">
  <path d="m10,23c0,.553-.448,1-1,1h-4c-2.206,0-4-1.794-4-4v-9.382c-.615-.703-1-1.612-1-2.618,0-.093.013-.186.039-.275L1.209,3.626C1.82,1.491,3.797,0,6.017,0h11.966c2.22,0,4.197,1.491,4.808,3.626l1.171,4.099c.025.089.039.182.039.275,0,.458-.077.907-.229,1.334-.185.52-.755.794-1.277.608-.521-.185-.792-.756-.608-1.277.061-.173.098-.354.109-.539l-1.128-3.951c-.366-1.281-1.552-2.176-2.885-2.176h-.983v2c0,.552-.448,1-1,1s-1-.448-1-1v-2h-6v2c0,.552-.448,1-1,1s-1-.448-1-1v-2h-.983c-1.333,0-2.519.895-2.885,2.176l-1.128,3.951c.065,1.044.936,1.874,1.996,1.874h1c1.103,0,2-.897,2-2,0-.552.448-1,1-1s1,.448,1,1c0,.712.383,1.376,1.001,1.733.478.277.641.889.365,1.367-.186.32-.521.499-.867.499-.17,0-.342-.043-.5-.134-.386-.223-.719-.512-1.005-.84-.734.836-1.797,1.376-2.994,1.376h-1c-.347,0-.678-.058-1-.142v8.142c0,1.103.897,2,2,2h4c.552,0,1,.447,1,1Zm14-6c0,3.859-3.14,7-7,7s-7-3.141-7-7,3.14-7,7-7,7,3.141,7,7Zm-2,0c0-2.757-2.243-5-5-5s-5,2.243-5,5,2.243,5,5,5,5-2.243,5-5Zm-3.192-1.241l-2.223,2.134c-.143.143-.378.142-.522,0l-1.132-1.108c-.394-.386-1.027-.379-1.414.016s-.38,1.027.015,1.414l1.132,1.108c.459.449,1.062.674,1.664.674s1.201-.225,1.653-.671l2.212-2.124c.398-.383.412-1.016.029-1.414-.383-.399-1.015-.41-1.414-.029Z"/>
</svg>
