<?xml version="1.0" encoding="UTF-8"?>
<svg xmlns="http://www.w3.org/2000/svg" id="Layer_1" data-name="Layer 1" viewBox="0 0 24 24">
  <path d="m2.756,12.11c.056.506.484.89.994.89h16.5c.51,0,.938-.383.994-.89l.799-7.188c.235-2.123-1.233-4.052-3.343-4.393C16.52.179,14.266.003,12.012.002c-.004,0-.008-.002-.012-.002s-.008.002-.012.002c-2.254,0-4.508.176-6.688.528C3.19.871,1.722,2.8,1.958,4.923l.799,7.188ZM13,2.022c.842.02,1.682.064,2.517.136l-.465,8.843h-2.051V2.022Zm-2,8.978h-2.051l-.465-8.843c.835-.072,1.674-.115,2.517-.136v8.978Zm9.055-6.298l-.7,6.298h-2.301l.453-8.617c.292.04.585.076.875.122,1.056.17,1.791,1.136,1.673,2.197ZM5.618,2.505c.289-.047.583-.082.875-.122l.453,8.617h-2.301l-.7-6.298c-.118-1.062.617-2.027,1.673-2.197Zm16.424,16.572c.236,2.123-1.232,4.052-3.342,4.393-2.185.352-4.438.53-6.7.53s-4.516-.178-6.7-.53c-2.11-.34-3.578-2.27-3.343-4.393l.355-3.188c.061-.549.559-.947,1.104-.883.549.061.944.555.883,1.104l-.354,3.188c-.118,1.062.617,2.027,1.673,2.197.289.047.583.082.875.122l.298-5.67c.029-.551.51-.976,1.051-.946.551.029.975.5.946,1.051l-.305,5.79c.835.072,1.674.115,2.517.136v-5.978c0-.552.448-1,1-1s1,.448,1,1v5.978c.842-.02,1.682-.064,2.517-.136l-.305-5.79c-.029-.552.395-1.022.946-1.051.554-.043,1.022.394,1.051.946l.298,5.67c.292-.04.585-.076.875-.122,1.056-.17,1.791-1.136,1.673-2.197l-.354-3.188c-.061-.549.334-1.043.883-1.104.538-.065,1.043.333,1.104.883l.354,3.188Z"/>
</svg>
