<?xml version="1.0" encoding="UTF-8"?>
<svg xmlns="http://www.w3.org/2000/svg" id="Layer_1" data-name="Layer 1" viewBox="0 0 24 24">
  <path d="m23.707,1.707c.391-.391.391-1.023,0-1.414s-1.023-.391-1.414,0l-2.552,2.552c-2.092-1.771-4.791-2.845-7.741-2.845s-5.649,1.074-7.741,2.845L1.707.293C1.316-.098.684-.098.293.293S-.098,1.316.293,1.707l2.552,2.552C1.074,6.351,0,9.051,0,12c0,6.617,5.383,12,12,12s12-5.383,12-12c0-2.949-1.074-5.649-2.845-7.741l2.552-2.552Zm-8.707.754v3.564c-.838-.635-1.87-1.026-3-1.026s-2.162.391-3,1.026v-3.564c.948-.299,1.955-.461,3-.461s2.052.163,3,.461Zm0,7.539c0,1.654-1.346,3-3,3s-3-1.346-3-3,1.346-3,3-3,3,1.346,3,3Zm-3,12c-5.514,0-10-4.486-10-10,0-3.692,2.016-6.915,5-8.647v6.647c0,2.757,2.243,5,5,5s5-2.243,5-5V3.353c2.984,1.732,5,4.955,5,8.647,0,5.514-4.486,10-10,10Z"/>
</svg>
