<?xml version="1.0" encoding="UTF-8"?>
<svg xmlns="http://www.w3.org/2000/svg" id="Layer_1" data-name="Layer 1" viewBox="0 0 24 24">
  <path d="m21,14h-4c-1.654,0-3,1.346-3,3v4c0,1.654,1.346,3,3,3h4c1.654,0,3-1.346,3-3v-4c0-1.654-1.346-3-3-3Zm1,3v1h-2v-2h1c.551,0,1,.448,1,1Zm-5-1h1v2h-2v-1c0-.552.449-1,1-1Zm-1,5v-1h2v2h-1c-.551,0-1-.448-1-1Zm5,1h-1v-2h2v1c0,.552-.449,1-1,1Zm.619-10c-.026-.052-.042-.108-.071-.159-.456-.802-1.197-1.069-2.085-1.313-1.271-.35-2.769-.527-4.451-.527h-2.034l4.99-3.551c.667-.475,1.059-1.247,1.05-2.066l-.009-.763c-.001-.134.052-.265.146-.359l1.553-1.554c.391-.391.391-1.023,0-1.414s-1.023-.391-1.414,0l-1.553,1.553c-.474.474-.741,1.129-.733,1.798l.009.762c.002.165-.077.319-.21.415l-3.859,2.746c.345-.429.552-.973.552-1.567,0-.922-.499-1.727-1.242-2.16l-.746-3.428c-.12-.55-.904-.55-1.023,0l-.746,3.428c-.743.433-1.242,1.238-1.242,2.16,0,.586.202,1.125.54,1.551l-3.831-2.737c-.131-.094-.209-.246-.209-.407v-.786c0-.658-.267-1.302-.732-1.768L2.707.293C2.316-.098,1.684-.098,1.293.293s-.391,1.023,0,1.414l1.561,1.561c.093.093.146.222.146.354v.786c0,.806.392,1.566,1.047,2.034l4.982,3.559h-2.029c-2.285,0-3.664,0-4.462.22-.889.244-1.629.819-2.085,1.621C-.004,12.642-.121,13.573.124,14.462c.421,1.53,1.814,2.538,3.33,2.538.302,0,.608-.04.913-.124.734-.201,2.019-1.208,3.281-2.328l-3.044,3.552c-.389.453-.603,1.03-.603,1.628v1.022c0,.156-.075.307-.2.4l-1.4,1.05c-.442.331-.531.958-.2,1.399.196.263.497.4.801.4.208,0,.419-.065.599-.2l1.399-1.05c.626-.469,1-1.217,1-2v-1.022c0-.119.042-.234.121-.325l3.879-4.526v4.124c0,.553.448,1,1,1s1-.447,1-1v-2c0-2.761,2.239-5,5-5h4.619ZM3.837,14.948c-.774.213-1.573-.244-1.785-1.016-.212-.772.244-1.573,1.016-1.785h0c.538-.147,2.035-.147,3.932-.147h.458c-1.6,1.5-3.142,2.799-3.622,2.948Z"/>
</svg>
