<?xml version="1.0" encoding="UTF-8"?>
<svg xmlns="http://www.w3.org/2000/svg" id="Layer_1" data-name="Layer 1" viewBox="0 0 24 24">
  <path d="m9.5,6.5c0-1.381,1.119-2.5,2.5-2.5s2.5,1.119,2.5,2.5-1.119,2.5-2.5,2.5-2.5-1.119-2.5-2.5Zm6.5,6.5v3c0,.883-.391,1.67-1,2.22v4.742c0,.553-.448,1-1,1s-1-.447-1-1v-3.962h-2v3.962c0,.553-.448,1-1,1s-1-.447-1-1v-4.742c-.609-.549-1-1.337-1-2.22v-3c0-1.654,1.346-3,3-3h2c1.654,0,3,1.346,3,3Zm-3,4c.551,0,1-.448,1-1v-3c0-.552-.449-1-1-1h-2c-.551,0-1,.448-1,1v3c0,.552.449,1,1,1h2Z"/>
</svg>
