<?xml version="1.0" encoding="UTF-8"?>
<svg xmlns="http://www.w3.org/2000/svg" id="Layer_1" data-name="Layer 1" viewBox="0 0 24 24">
  <path d="m9.951,11.189c.565.553,1.307.828,2.048.828s1.484-.275,2.049-.828l1.84-1.801c1.039-1.038,1.611-2.419,1.611-3.889s-.572-2.85-1.611-3.889h0c-1.039-1.039-2.419-1.611-3.889-1.611s-2.85.572-3.889,1.611c-1.039,1.038-1.611,2.42-1.611,3.889s.572,2.851,1.619,3.896l1.833,1.793Zm-.426-8.164c.661-.661,1.541-1.025,2.475-1.025s1.813.364,2.474,1.025h0c.661.661,1.025,1.54,1.025,2.475s-.364,1.813-1.018,2.467l-1.833,1.793c-.358.35-.941.35-1.3,0l-1.825-1.785c-.661-.661-1.025-1.54-1.025-2.475s.364-1.813,1.025-2.475Zm.975,2.469c0-.828.672-1.5,1.5-1.5s1.5.672,1.5,1.5-.672,1.5-1.5,1.5-1.5-.672-1.5-1.5Zm13.498,13.259l-.979-8.318c-.186-1.58-1.147-2.947-2.573-3.658-.496-.248-1.095-.044-1.341.449-.246.495-.045,1.095.449,1.342.819.407,1.372,1.192,1.478,2.101l.079.671-10.529,5.014-7.289-6.535c.25-.517.645-.956,1.169-1.229.49-.255.68-.859.424-1.349-.255-.491-.858-.681-1.349-.425-1.381.72-2.314,2.072-2.496,3.618L.063,18.753c-.157,1.331.264,2.67,1.155,3.671.891,1.002,2.17,1.576,3.51,1.576h14.604c1.34,0,2.62-.574,3.51-1.576.891-1.001,1.312-2.339,1.156-3.671Zm-21.285,2.342c-.511-.575-.753-1.343-.663-2.107l.809-6.875,11.029,9.888H4.728c-.77,0-1.504-.33-2.016-.905Zm18.635,0c-.512.575-1.246.905-2.016.905h-2.45l-4.685-4.2,9.161-4.362.653,5.55c.09.764-.152,1.532-.664,2.107Z"/>
</svg>
