<?xml version="1.0" encoding="UTF-8"?>
<svg xmlns="http://www.w3.org/2000/svg" id="Layer_1" data-name="Layer 1" viewBox="0 0 24 24">
  <path d="m14.207,9.175l-.793.793.793.793c.391.391.391,1.023,0,1.414-.195.195-.451.293-.707.293s-.512-.098-.707-.293l-.793-.793-.793.793c-.195.195-.451.293-.707.293s-.512-.098-.707-.293c-.391-.391-.391-1.023,0-1.414l.793-.793-.793-.793c-.391-.391-.391-1.023,0-1.414s1.023-.391,1.414,0l.793.793.793-.793c.391-.391,1.023-.391,1.414,0s.391,1.023,0,1.414Zm6.477-1.414c-.391-.391-1.023-.391-1.414,0l-.793.793-.793-.793c-.391-.391-1.023-.391-1.414,0s-.391,1.023,0,1.414l.793.793-.793.793c-.391.391-.391,1.023,0,1.414.195.195.451.293.707.293s.512-.098.707-.293l.793-.793.793.793c.195.195.451.293.707.293s.512-.098.707-.293c.391-.391.391-1.023,0-1.414l-.793-.793.793-.793c.391-.391.391-1.023,0-1.414Zm-12.953,0c-.391-.391-1.023-.391-1.414,0l-.793.793-.793-.793c-.391-.391-1.023-.391-1.414,0s-.391,1.023,0,1.414l.793.793-.793.793c-.391.391-.391,1.023,0,1.414.195.195.451.293.707.293s.512-.098.707-.293l.793-.793.793.793c.195.195.451.293.707.293s.512-.098.707-.293c.391-.391.391-1.023,0-1.414l-.793-.793.793-.793c.391-.391.391-1.023,0-1.414Zm16.27-1.761v8c0,2.757-2.243,5-5,5h-6v2h4c.553,0,1,.447,1,1s-.447,1-1,1H7c-.553,0-1-.447-1-1s.447-1,1-1h4v-2h-6c-2.757,0-5-2.243-5-5V6C0,3.243,2.243,1,5,1h14c2.757,0,5,2.243,5,5Zm-2,0c0-1.654-1.346-3-3-3H5c-1.654,0-3,1.346-3,3v8c0,1.654,1.346,3,3,3h14c1.654,0,3-1.346,3-3V6Z"/>
</svg>
