<?xml version="1.0" encoding="UTF-8"?>
<svg xmlns="http://www.w3.org/2000/svg" id="Layer_1" data-name="Layer 1" viewBox="0 0 24 24">
  <path d="m20.75,13h-.75v-1c0-.552-.447-1-1-1s-1,.448-1,1v1h-5V4.5c0-1.378,1.121-2.5,2.5-2.5,1.389,0,2.414.85,2.494,2.066.036.551.547.962,1.063.932.552-.037.969-.513.933-1.064-.15-2.28-2.039-3.934-4.49-3.934-2.481,0-4.5,2.019-4.5,4.5v8.5h-5v-1c0-.552-.447-1-1-1s-1,.448-1,1v1h-.75c-1.792,0-3.25,1.458-3.25,3.25,0,4.273,3.477,7.75,7.75,7.75h8.5c4.273,0,7.75-3.477,7.75-7.75,0-1.792-1.458-3.25-3.25-3.25Zm-4.5,9H7.75c-3.171,0-5.75-2.58-5.75-5.75,0-.689.561-1.25,1.25-1.25h17.5c.689,0,1.25.561,1.25,1.25,0,3.17-2.579,5.75-5.75,5.75Z"/>
</svg>
