<?xml version="1.0" encoding="UTF-8"?>
<svg xmlns="http://www.w3.org/2000/svg" id="Layer_1" data-name="Layer 1" viewBox="0 0 24 24">
  <path d="m9.994,19.11c-.057.512-.49.89-.993.89C3.933,19.439,0,15.137,0,10,0,4.486,4.486,0,10,0c1.561,0,3.056.35,4.445,1.04.495.246.696.846.451,1.34-.245.495-.845.698-1.34.451-1.11-.551-2.307-.831-3.556-.831C5.589,2,2,5.589,2,10c0,4.116,3.057,7.558,7.11,8.006.549.061.945.555.884,1.104Zm.006-13.11c.552,0,1-.448,1-1s-.448-1-1-1c-3.309,0-6,2.691-6,6s2.691,6,6,6c.552,0,1-.448,1-1s-.448-1-1-1c-2.206,0-4-1.794-4-4s1.794-4,4-4Zm13.707,12.174c-.391-.391-1.023-.391-1.414,0l-3.293,3.293V1c0-.552-.448-1-1-1s-1,.448-1,1v20.366l-3.293-3.293c-.391-.391-1.023-.391-1.414,0s-.391,1.024,0,1.414l3.636,3.636c.585.585,1.353.877,2.121.877s1.536-.292,2.121-.877l3.536-3.536c.391-.391.391-1.023,0-1.414Z"/>
</svg>
