<?xml version="1.0" encoding="UTF-8"?>
<svg xmlns="http://www.w3.org/2000/svg" id="Layer_1" data-name="Layer 1" viewBox="0 0 24 24">
  <path d="m23,18h-2.998c-1.116,0-2.188-.471-2.944-1.292l-2.804-3.047c-.366-.409-.332-1.04.077-1.406.368-.328.928-.337,1.255-.066l2.721,2.616c.397.383,1.031.372,1.414-.028.383-.398.371-1.031-.028-1.414l-2.771-2.661c-.553-.464-1.238-.695-1.922-.695v-1.006c0-.342-.035-.677-.101-1h2.928c1.167,0,2.304.412,3.201,1.159l1.331,1.109c.187.156.414.232.64.232.287,0,.571-.123.769-.36.354-.424.296-1.055-.128-1.408l-1.331-1.11c-1.256-1.046-2.848-1.622-4.481-1.622h-3.83c-.913-1.214-2.365-2-3.997-2h-2C8,1.794,6.206,0,4,0S0,1.794,0,4v16c0,2.206,1.794,4,4,4s4-1.794,4-4h2c2.054,0,3.822-1.245,4.591-3.02l.996,1.082c1.133,1.232,2.742,1.938,4.416,1.938h2.998c.552,0,1-.448,1-1s-.448-1-1-1ZM4,2c1.103,0,2,.897,2,2H2c0-1.103.897-2,2-2Zm-2,8c1.103,0,2,.897,2,2s-.897,2-2,2v-4Zm2,12c-1.103,0-2-.897-2-2h4c0,1.103-.897,2-2,2Zm6-4H2v-2c2.206,0,4-1.794,4-4s-1.794-4-4-4v-2h8c1.654,0,3,1.346,3,3v1.762s-.002.002-.003.003c-1.23,1.102-1.334,3-.223,4.241l.216.235c-.123,1.542-1.416,2.76-2.99,2.76Zm1-8.5c0,.828-.672,1.5-1.5,1.5s-1.5-.672-1.5-1.5.672-1.5,1.5-1.5,1.5.672,1.5,1.5Zm0,5c0,.828-.672,1.5-1.5,1.5s-1.5-.672-1.5-1.5.672-1.5,1.5-1.5,1.5.672,1.5,1.5Z"/>
</svg>
