<?xml version="1.0" encoding="UTF-8"?>
<svg xmlns="http://www.w3.org/2000/svg" id="Layer_1" data-name="Layer 1" viewBox="0 0 24 24">
  <path d="m14.503,10.087l-.314,3.659c-.031.44-.337.779-.706.779-.244,0-.471-.151-.601-.4l-.831-1.6-.831,1.6c-.129.249-.356.4-.601.4-.368,0-.675-.339-.706-.779l-.314-3.659c-.026-.302.212-.562.515-.562.27,0,.494.208.516.477l.212,2.681.75-1.443c.193-.372.725-.372.918,0l.75,1.443.21-2.681c.021-.269.246-.477.516-.477h.002c.303,0,.541.26.515.562Zm5.433-.562h-.002c-.27,0-.495.208-.516.477l-.21,2.681-.75-1.443c-.193-.372-.725-.372-.918,0l-.75,1.443-.212-2.681c-.021-.269-.246-.477-.516-.477-.303,0-.541.26-.515.562l.314,3.659c.031.44.337.779.706.779.244,0,.471-.151.601-.4l.831-1.6.831,1.6c.129.249.356.4.601.4.368,0,.675-.339.706-.779l.314-3.659c.026-.302-.212-.562-.515-.562Zm-12,0h-.002c-.27,0-.495.208-.516.477l-.21,2.681-.75-1.443c-.193-.372-.725-.372-.918,0l-.75,1.443-.212-2.681c-.021-.269-.246-.477-.516-.477-.303,0-.541.26-.515.562l.314,3.659c.031.44.337.779.706.779.244,0,.471-.151.601-.4l.831-1.6.831,1.6c.129.249.356.4.601.4.368,0,.675-.339.706-.779l.314-3.659c.026-.302-.212-.562-.515-.562Zm4.065,14.474h-.003c-6.617,0-11.999-5.384-11.999-12S5.375.008,11.986,0c.004,0,.008,0,.012,0h.002c6.617,0,12,5.383,12,12s-5.382,11.999-11.999,12Zm2.693-6h-5.389c.932,1.603,2.015,2.867,2.695,3.588.68-.721,1.763-1.985,2.695-3.588Zm6.469-2c.537-1.226.836-2.578.836-4s-.299-2.774-.836-4h-4.807c-.006,0-.013,0-.019,0-.005,0-.009,0-.014,0H7.676s-.009,0-.014,0c-.006,0-.013,0-.019,0H2.836c-.537,1.226-.836,2.578-.836,4s.299,2.774.836,4h4.792c.023,0,.047,0,.07,0h8.605c.023,0,.047,0,.07,0h4.792ZM9.305,6h5.389c-.932-1.603-2.015-2.867-2.695-3.588-.68.721-1.763,1.985-2.695,3.588Zm5.289-3.658c.771.957,1.646,2.203,2.373,3.658h3.027c-1.324-1.76-3.216-3.07-5.4-3.658Zm-10.59,3.658h3.027c.727-1.455,1.602-2.701,2.373-3.658-2.184.587-4.076,1.898-5.4,3.658Zm5.4,15.658c-.771-.957-1.646-2.203-2.373-3.658h-3.027c1.324,1.76,3.216,3.07,5.4,3.658Zm10.59-3.658h-3.027c-.727,1.455-1.602,2.701-2.373,3.658,2.184-.587,4.076-1.898,5.4-3.658Z"/>
</svg>
