<?xml version="1.0" encoding="UTF-8"?>
<svg xmlns="http://www.w3.org/2000/svg" id="Layer_1" data-name="Layer 1" viewBox="0 0 24 24">
  <path d="m15.667,17c0,1.654-1.346,3-3,3h-2.667c-.553,0-1-.447-1-1s.447-1,1-1h2.667c.552,0,1-.448,1-1s-.448-1-1-1h-1.667c-.553,0-1-.447-1-1s.447-1,1-1h1c.552,0,1-.448,1-1s-.448-1-1-1h-2c-.553,0-1-.447-1-1s.447-1,1-1h2c1.654,0,3,1.346,3,3,0,.608-.184,1.172-.496,1.646.703.55,1.163,1.395,1.163,2.354Zm6.639-14.131l-3.243,6.57c1.209,1.532,1.937,3.461,1.937,5.56,0,4.963-4.037,9-9,9S3,19.963,3,15c0-2.107.733-4.043,1.951-5.579L1.718,2.87c-.307-.622-.271-1.344.095-1.932.365-.588.997-.938,1.689-.938h3.009c1.534,0,2.909.854,3.588,2.23l1.86,3.772c.014,0,.027-.002.041-.002.021,0,.041.003.062.003l1.861-3.773c.679-1.376,2.054-2.23,3.587-2.23h3.01c.692,0,1.324.351,1.689.938s.401,1.31.096,1.931ZM3.502,2l2.942,5.934c.992-.782,2.152-1.356,3.416-1.666l-1.555-3.153c-.34-.688-1.026-1.115-1.794-1.115h-3.009Zm15.498,13c0-3.859-3.141-7-7-7-.199,0-.394.014-.589.03-.001,0-.002,0-.003,0-3.583.302-6.408,3.31-6.408,6.97,0,3.859,3.141,7,7,7s7-3.141,7-7Zm1.512-13.015l-3.001.015c-.767,0-1.454.428-1.794,1.115l-1.558,3.157c1.263.313,2.422.888,3.412,1.672l2.941-5.959Z"/>
</svg>
