<?xml version="1.0" encoding="UTF-8"?>
<svg xmlns="http://www.w3.org/2000/svg" id="Layer_1" data-name="Layer 1" viewBox="0 0 24 24">
  <path d="m20.814,1.195c-1.477-.793-3.032-1.195-4.624-1.195H7.81c-1.592,0-3.148.402-4.625,1.195C1.221,2.25,0,4.335,0,6.636v11.364c0,1.654,1.346,3,3,3h1.424c.774,1.763,2.531,3,4.576,3h6c2.045,0,3.802-1.237,4.576-3h1.424c1.654,0,3-1.346,3-3V6.636c0-2.301-1.221-4.386-3.186-5.44Zm-5.921.805c-.456,1.194-1.588,2-2.894,2s-2.438-.806-2.893-2h5.787Zm7.106,16c0,.551-.448,1-1,1h-1V7c0-.552-.447-1-1-1s-1,.448-1,1v12c0,1.654-1.346,3-3,3h-6c-1.654,0-3-1.346-3-3V7c0-.552-.448-1-1-1s-1,.448-1,1v12h-1c-.551,0-1-.449-1-1V6.636c0-1.563.817-2.973,2.131-3.679.937-.503,1.908-.801,2.897-.907.544,2.326,2.588,3.95,4.972,3.95s4.427-1.624,4.972-3.95c.988.106,1.96.404,2.898.907,1.314.706,2.131,2.116,2.131,3.679v11.364Z"/>
</svg>
