<?xml version="1.0" encoding="UTF-8"?>
<svg xmlns="http://www.w3.org/2000/svg" id="Layer_1" data-name="Layer 1" viewBox="0 0 24 24">
  <path d="m15,15c-1.654,0-3,1.346-3,3v5c0,.553.447,1,1,1s1-.447,1-1v-1h2v1c0,.553.447,1,1,1s1-.447,1-1v-5c0-1.654-1.346-3-3-3Zm1,5h-2v-2c0-.552.448-1,1-1s1,.448,1,1v2ZM2,2.5c0-1.381,1.119-2.5,2.5-2.5s2.5,1.119,2.5,2.5-1.119,2.5-2.5,2.5-2.5-1.119-2.5-2.5Zm22,11.5v5c0,.553-.447,1-1,1s-1-.447-1-1v-1h-1c-.553,0-1-.447-1-1s.447-1,1-1h1v-2c0-.552-.448-1-1-1-.176,0-.349.046-.5.134-.478.274-1.09.112-1.366-.366-.276-.478-.112-1.089.366-1.366.454-.263.973-.401,1.5-.401,1.654,0,3,1.346,3,3ZM14.751.377c-.556-.249-1.151-.377-1.751-.377-.553,0-1,.447-1,1v5H4C1.794,6,0,7.794,0,10v4c0,1.474.81,2.75,2,3.444v5.556c0,.553.447,1,1,1s1-.447,1-1v-5h2v5c0,.553.447,1,1,1s1-.447,1-1v-15h5c.553,0,1-.447,1-1v-1.75l3.565-1.885c.581-.399.581-1.329,0-1.729l-2.813-1.259Zm-8.751,15.623h-2c-1.103,0-2-.897-2-2v-4c0-1.103.897-2,2-2h2v8Zm12.5-8.5c0-1.381,1.119-2.5,2.5-2.5s2.5,1.119,2.5,2.5-1.119,2.5-2.5,2.5-2.5-1.119-2.5-2.5Zm-6,4c0-1.381,1.119-2.5,2.5-2.5s2.5,1.119,2.5,2.5-1.119,2.5-2.5,2.5-2.5-1.119-2.5-2.5Z"/>
</svg>
