<?xml version="1.0" encoding="UTF-8"?>
<svg xmlns="http://www.w3.org/2000/svg" id="Layer_1" data-name="Layer 1" viewBox="0 0 24 24">
  <path d="m23.707,22.293l-6.552-6.552.425-.741h3.42c.881,0,1.714-.385,2.286-1.057s.817-1.561.674-2.44c-.232-1.427-1.551-2.503-3.066-2.503h-3.313L13.323,1.563c-.526-.965-1.535-1.563-2.634-1.563-.863,0-1.68.419-2.183,1.12-.504.702-.64,1.609-.358,2.442l1.752,4.923L1.707.293C1.316-.098.684-.098.293.293S-.098,1.316.293,1.707l22,22c.195.195.451.293.707.293s.512-.098.707-.293c.391-.391.391-1.023,0-1.414Zm-11.265-12.628l-2.405-6.757c-.071-.213-.038-.439.093-.621.346-.48,1.147-.296,1.447.252l4.555,7.958c.178.311.509.503.868.503h3.893c.537,0,1.017.362,1.093.824.049.304-.03.596-.224.823-.19.224-.468.353-.762.353h-4c-.358,0-.69.192-.868.503l-.442.773-3.527-3.527c.057-.051.109-.108.154-.172.188-.266.234-.605.125-.911Zm2.426,10.073l-1.555,2.717c-.516.946-1.525,1.545-2.624,1.545-.863,0-1.68-.419-2.183-1.12-.504-.702-.64-1.609-.363-2.427l1.704-4.788c.185-.521.756-.791,1.277-.607.52.186.792.757.606,1.277l-1.698,4.772c-.066.197-.032.424.099.605.345.48,1.154.284,1.437-.233l1.565-2.735c.274-.479.886-.646,1.364-.371.479.274.646.886.371,1.365Zm-5.868-4.738h-2.842l-1.081,1.646c-.556.848-1.494,1.354-2.508,1.354-.84,0-1.623-.408-2.101-1.092s-.591-1.56-.304-2.343l.939-2.564-.945-2.562c-.482-1.307.183-2.774,1.483-3.271.515-.197,1.094.06,1.292.576.197.516-.061,1.094-.577,1.291-.247.095-.439.394-.322.712l1.072,2.907c.082.223.082.467,0,.689l-1.065,2.91c-.086.236.004.42.066.509s.204.237.456.237c.343,0,.656-.169.841-.451l1.376-2.098c.185-.281.499-.451.836-.451h3.382c.552,0,1,.447,1,1s-.448,1-1,1Z"/>
</svg>
