<?xml version="1.0" encoding="UTF-8"?>
<svg xmlns="http://www.w3.org/2000/svg" id="Layer_1" data-name="Layer 1" viewBox="0 0 24 24">
  <path d="m24,19.5c0,.828-.672,1.5-1.5,1.5s-1.5-.672-1.5-1.5.672-1.5,1.5-1.5,1.5.672,1.5,1.5Zm-22.5-1.5c-.828,0-1.5.672-1.5,1.5s.672,1.5,1.5,1.5,1.5-.672,1.5-1.5-.672-1.5-1.5-1.5Zm6.965-8.465c-.944-.944-1.465-2.199-1.465-3.535s.521-2.592,1.465-3.535l1.68-1.701c1.03-1.007,2.682-1.006,3.698-.013l1.697,1.719c.939.938,1.46,2.194,1.46,3.53s-.521,2.592-1.465,3.535c-.943.944-2.199,1.465-3.535,1.465s-2.591-.521-3.535-1.465Zm.535-3.535c0,.802.312,1.555.879,2.121,1.133,1.133,3.11,1.135,4.241,0,.567-.566.88-1.319.88-2.121s-.313-1.555-.879-2.121l-1.689-1.711c-.114-.111-.27-.168-.427-.168-.161,0-.325.06-.449.181l-1.672,1.693c-.571.571-.884,1.324-.884,2.126Zm10,5h4c.553,0,1-.447,1-1s-.447-1-1-1h-4c-.553,0-1,.447-1,1s.447,1,1,1Zm-18,0h4c.553,0,1-.447,1-1s-.447-1-1-1H1c-.553,0-1,.447-1,1s.447,1,1,1Zm5.5,10c-.828,0-1.5.672-1.5,1.5s.672,1.5,1.5,1.5,1.5-.672,1.5-1.5-.672-1.5-1.5-1.5Zm11,0c-.828,0-1.5.672-1.5,1.5s.672,1.5,1.5,1.5,1.5-.672,1.5-1.5-.672-1.5-1.5-1.5Zm-5.5-3c-.828,0-1.5.672-1.5,1.5s.672,1.5,1.5,1.5,1.5-.672,1.5-1.5-.672-1.5-1.5-1.5Zm11.579-3.794s-.562-.432-.805-.616c-1.027-.783-2.519-.782-3.546,0-.707.537-1.749.536-2.454,0-1.027-.783-2.519-.782-3.546,0-.707.537-1.749.536-2.454,0-1.027-.783-2.519-.782-3.546,0-.707.537-1.749.536-2.454,0-1.029-.783-2.519-.782-3.546,0-.244.186-.806.617-.806.617-.249.182-.421.462-.421.794,0,.552.448,1,1,1,.22,0,.413-.086.579-.206,0,0,.606-.42.861-.614.314-.238.808-.239,1.122,0,1.408,1.072,3.468,1.073,4.878,0,.314-.238.808-.239,1.122,0,1.408,1.072,3.468,1.073,4.878,0,.314-.238.808-.239,1.122,0,.704.536,1.548.819,2.438.819s1.734-.283,2.439-.82c.314-.238.808-.239,1.122,0,.254.193.86.613.86.613.165.121.358.206.579.206.552,0,1-.448,1-1,0-.332-.172-.612-.421-.794Z"/>
</svg>
