<?xml version="1.0" encoding="UTF-8"?>
<svg xmlns="http://www.w3.org/2000/svg" id="Layer_1" data-name="Layer 1" viewBox="0 0 24 24">
  <path d="m19,1h-3c-.553,0-1,.448-1,1s.447,1,1,1h3c1.654,0,3,1.346,3,3v7H2v-6.978c0-.804.314-1.56.885-2.127.566-.563,1.317-.873,2.115-.873h.017l2.978.017h.006c.55,0,.997-.444,1-.995.003-.552-.442-1.002-.994-1.005l-2.978-.017h-.028c-1.331,0-2.582.516-3.525,1.455-.951.945-1.475,2.204-1.475,3.545v7.978c0,2.757,2.243,5,5,5h6v2h-4c-.553,0-1,.448-1,1s.447,1,1,1h10c.553,0,1-.448,1-1s-.447-1-1-1h-4v-2h6c2.757,0,5-2.243,5-5V6c0-2.757-2.243-5-5-5Zm0,16H5c-1.302,0-2.402-.839-2.816-2h19.631c-.414,1.161-1.514,2-2.816,2Zm-8-8.58V1c0-.552.447-1,1-1s1,.448,1,1v7.421l2.319-2.154c.403-.375,1.038-.354,1.413.053.376.405.353,1.037-.052,1.413l-2.613,2.426c-.561.561-1.308.843-2.058.843-.76,0-1.523-.289-2.104-.869l-2.587-2.4c-.404-.376-.428-1.008-.052-1.413.374-.406,1.009-.428,1.413-.053l2.319,2.153Z"/>
</svg>
