<?xml version="1.0" encoding="UTF-8"?>
<svg xmlns="http://www.w3.org/2000/svg" id="Layer_1" data-name="Layer 1" viewBox="0 0 24 24">
  <path d="m19,4c-1.129,0-2.204.442-2.947,1.213-.374.388-.649.849-.827,1.347l-.503-.587c-.466-.544-.723-1.237-.723-1.953v-2.021c.553,0,1-.448,1-1s-.447-1-1-1h-7c-.552,0-1,.448-1,1s.448,1,1,1v2.021c0,.715-.256,1.409-.722,1.952l-4.074,4.753c-.776.906-1.204,2.062-1.204,3.253v5.021c0,2.757,2.243,5,5,5h9c2.757,0,5-2.243,5-5,0,0-.01-5.099-.011-5.139,1.726-.443,3.011-1.999,3.011-3.861v-2c0-2.206-1.794-4-4-4ZM3,15h10.5c.275,0,.5.224.5.5v2c0,.276-.225.5-.5.5H3v-3Zm15,4c0,1.654-1.346,3-3,3H6c-1.302,0-2.402-.839-2.816-2h10.316c1.379,0,2.5-1.122,2.5-2.5v-2c0-1.378-1.121-2.5-2.5-2.5H3.17c.122-.353.306-.685.552-.973l4.074-4.753c.776-.906,1.204-2.062,1.204-3.253v-2.021h3v2.021c0,1.192.427,2.348,1.204,3.254l4.073,4.752c.466.544.723,1.237.723,1.953v5.021Zm3-9c0,.917-.623,1.683-1.466,1.918-.193-.426-.43-.833-.738-1.193l-1.796-2.096v-.665c-.019-.538.151-1.009.493-1.362.368-.383.918-.602,1.508-.602,1.103,0,2,.897,2,2v2Z"/>
</svg>
