<?xml version="1.0" encoding="UTF-8"?>
<svg xmlns="http://www.w3.org/2000/svg" id="Layer_1" data-name="Layer 1" viewBox="0 0 24 24">
  <path d="m23.763,14.458c-1.6-4.58-6.025-7.985-10.763-8.411V1c0-.552-.447-1-1-1s-1,.448-1,1v5.047C6.262,6.474,1.837,9.878.237,14.458c-.447,1.279-.247,2.7.534,3.801.785,1.106,2.014,1.741,3.371,1.741h3.857c0,2.206,1.794,4,4,4s4-1.794,4-4h3.857c1.357,0,2.586-.635,3.371-1.741.781-1.101.981-2.522.534-3.8Zm-11.763,7.542c-1.103,0-2-.897-2-2h4c0,1.103-.897,2-2,2Zm9.598-4.898c-.405.571-1.04.898-1.74.898H4.143c-.7,0-1.335-.328-1.74-.898-.413-.583-.514-1.305-.276-1.984,1.44-4.124,5.593-7.118,9.874-7.118s8.434,2.994,9.874,7.118c.237.678.137,1.401-.276,1.983Z"/>
</svg>
