<?xml version="1.0" encoding="UTF-8"?>
<svg xmlns="http://www.w3.org/2000/svg" id="Layer_1" data-name="Layer 1" viewBox="0 0 24 24">
  <path d="m14.289,4.203c-.388-.393-.384-1.026.009-1.414l2.205-2.177c.814-.815,2.149-.816,2.968.004l2.228,2.168c.396.385.404,1.018.019,1.414-.385.396-1.019.404-1.414.019l-1.302-1.268v6.052c0,.552-.448,1-1,1s-1-.448-1-1V2.93l-1.297,1.281c-.195.192-.449.289-.703.289-.258,0-.516-.099-.711-.297Zm4.211,6.797c-.828,0-1.5.672-1.5,1.5s.672,1.5,1.5,1.5,1.5-.672,1.5-1.5-.672-1.5-1.5-1.5Zm0,7c-.828,0-1.5.672-1.5,1.5s.672,1.5,1.5,1.5,1.5-.672,1.5-1.5-.672-1.5-1.5-1.5Zm-13-7c-.828,0-1.5.672-1.5,1.5s.672,1.5,1.5,1.5,1.5-.672,1.5-1.5-.672-1.5-1.5-1.5Zm10.5,5c0,2.206-1.794,4-4,4s-4-1.794-4-4,1.794-4,4-4,4,1.794,4,4Zm-2,0c0-1.103-.897-2-2-2s-2,.897-2,2,.897,2,2,2,2-.897,2-2Zm-8.5,2c-.828,0-1.5.672-1.5,1.5s.672,1.5,1.5,1.5,1.5-.672,1.5-1.5-.672-1.5-1.5-1.5Zm17.25-8.308c-.365-.414-.997-.454-1.412-.087-.414.365-.453.998-.087,1.412.483.547.75,1.251.75,1.983v6c0,1.654-1.346,3-3,3H5c-1.654,0-3-1.346-3-3v-6c0-1.654,1.346-3,3-3h9c.552,0,1-.448,1-1s-.448-1-1-1H5c-2.757,0-5,2.243-5,5v6c0,2.757,2.243,5,5,5h14c2.757,0,5-2.243,5-5v-6c0-1.22-.444-2.394-1.25-3.308Z"/>
</svg>
