<?xml version="1.0" encoding="UTF-8"?>
<svg xmlns="http://www.w3.org/2000/svg" id="Layer_1" data-name="Layer 1" viewBox="0 0 24 24">
  <path d="m22,5h-7.494l.266-2.124c.062-.5.489-.876.993-.876h3.235c.552,0,1-.448,1-1s-.448-1-1-1h-3.235c-1.509,0-2.79,1.129-2.977,2.627l-.297,2.373H2c-.552,0-1,.448-1,1s.448,1,1,1h.611l1.486,12.586c.297,2.517,2.432,4.414,4.966,4.414h5.875c2.534,0,4.669-1.898,4.965-4.414l1.486-12.586h.611c.552,0,1-.448,1-1s-.448-1-1-1Zm-7.062,17h-5.875c-1.521,0-2.801-1.139-2.979-2.648l-.464-3.932c.838-.574,2.303-1.419,3.381-1.419.764,0,1.633.435,2.553.895,1.087.543,2.211,1.105,3.447,1.105,1.194,0,2.462-.544,3.442-1.096l-.525,4.448c-.178,1.51-1.458,2.648-2.979,2.648Zm3.809-9.681c-.699.527-2.488,1.681-3.747,1.681-.764,0-1.633-.435-2.553-.895-1.087-.543-2.211-1.105-3.447-1.105-1.277,0-2.639.623-3.642,1.211l-.733-6.211h14.75l-.628,5.319Z"/>
</svg>
