<?xml version="1.0" encoding="UTF-8"?>
<svg xmlns="http://www.w3.org/2000/svg" id="Layer_1" data-name="Layer 1" viewBox="0 0 24 24">
  <path d="m12.293,5.707c-.391-.391-.391-1.023,0-1.414l2-2c.391-.391,1.023-.391,1.414,0s.391,1.023,0,1.414l-2,2c-.195.195-.451.293-.707.293s-.512-.098-.707-.293Zm-8,0c.195.195.451.293.707.293s.512-.098.707-.293c.391-.391.391-1.023,0-1.414l-2-2c-.391-.391-1.023-.391-1.414,0s-.391,1.023,0,1.414l2,2Zm4.707-.707c.553,0,1-.448,1-1V1c0-.552-.447-1-1-1s-1,.448-1,1v3c0,.552.447,1,1,1Zm12.445.236c-.512-.71-1.3-1.157-2.163-1.227-.873-.076-1.712.242-2.325.855l-7.885,7.912-.177-1.944c-.026-.787-.357-1.516-.933-2.053-.575-.538-1.352-.813-2.11-.792-1.625.055-2.904,1.421-2.852,3.013v9.257c0,.534-.209,1.036-.587,1.414l-.621.622c-.391.391-.391,1.024,0,1.415.195.195.451.292.707.292s.512-.098.707-.293l.621-.622c.756-.755,1.172-1.76,1.172-2.828v-9.29c-.017-.523.396-.964.919-.981.273-.019.494.082.679.254.185.173.291.407.303.716l.219,2.43c.063.704.515,1.29,1.179,1.53.663.24,1.386.079,1.885-.421l8.189-8.217c.196-.197.46-.3.749-.275.282.023.531.166.701.402.26.361.18.927-.182,1.289l-4.75,4.75c-.326.326-.387.833-.147,1.226l2.7,4.443c.873,1.309.699,3.067-.413,4.18-.391.391-.391,1.024,0,1.414.391.391,1.023.391,1.414,0,1.784-1.785,2.063-4.604.686-6.667l-2.27-3.737,4.194-4.195c1.054-1.053,1.222-2.718.391-3.872Z"/>
</svg>
