<?xml version="1.0" encoding="UTF-8"?>
<svg xmlns="http://www.w3.org/2000/svg" id="Layer_1" data-name="Layer 1" viewBox="0 0 24 24">
  <path d="m12,0C5.4,0,.03,5.356.003,11.949c0,.005-.003.008-.003.013,0,.003.002.005.002.008,0,.01-.002.02-.002.03,0,6.617,5.383,12,12,12,2.108,0,4.183-.556,6-1.606.478-.276.642-.888.365-1.366-.277-.478-.889-.644-1.366-.364-1.513.874-3.242,1.337-5,1.337-5.155,0-9.409-3.921-9.942-8.937.222.071.433.175.621.322.511.396,1.158.615,1.821.615s1.311-.219,1.821-.615c.234-.182.506-.284.79-.349.479,2.261,2.488,3.964,4.889,3.964,2.414,0,4.434-1.721,4.899-4h.101c.54,0,.979.438,1,.996v4.004c0,.553.448,1,1,1s1-.447,1-1v-4.002c.02-.56.459-.998,1-.998.551,0,1,.448,1,1v7c0,.553.448,1,1,1s1-.447,1-1v-9C24,5.383,18.617,0,12,0Zm0,15c-1.654,0-3-1.346-3-3s1.346-3,3-3,3,1.346,3,3-1.346,3-3,3Zm9-4c-.771,0-1.467.296-1.998.78-.531-.483-1.23-.78-2.002-.78h-.101c-.465-2.279-2.484-4-4.899-4s-4.434,1.72-4.899,3.999c-.731.082-1.419.349-2.007.805-.322.251-.863.253-1.188,0-.548-.425-1.181-.692-1.856-.793C2.548,5.96,6.82,2,12,2c5.234,0,9.534,4.045,9.958,9.171-.303-.103-.621-.171-.958-.171Z"/>
</svg>
