<?xml version="1.0" encoding="UTF-8"?>
<svg xmlns="http://www.w3.org/2000/svg" id="Layer_1" data-name="Layer 1" viewBox="0 0 24 24">
  <path d="m12,3C5.898,3,1.008,5.351.148,8.507c-.086.148-.148.31-.148.493v5.5c0,3.645,5.271,6.5,12,6.5s12-2.855,12-6.5v-5c0-3.645-5.271-6.5-12-6.5Zm0,2c5.894,0,10,2.372,10,4.5,0,.362-.127.73-.353,1.092-2.227-1.626-5.76-2.592-9.647-2.592-3.867,0-7.438.971-9.655,2.579-.22-.358-.345-.722-.345-1.079,0-2.128,4.106-4.5,10-4.5Zm8.18,6.994c-1.747,1.146-4.636,2.006-8.18,2.006s-6.426-.858-8.174-2.002c1.886-1.231,4.927-1.998,8.174-1.998s6.283.753,8.18,1.994Zm-8.18,7.006c-5.894,0-10-2.372-10-4.5v-1.362c2.132,1.738,5.779,2.862,10,2.862s7.868-1.124,10-2.862v1.362c0,2.128-4.106,4.5-10,4.5Z"/>
</svg>
