<?xml version="1.0" encoding="UTF-8"?>
<svg xmlns="http://www.w3.org/2000/svg" id="Layer_1" data-name="Layer 1" viewBox="0 0 24 24">
  <path d="m7.5,22c-1.211,0-2.304-.593-3.005-1.081,0,0,1.557-1.501,1.638-1.562.345-.26.474-.357,1.367-.357.243,0,.498.039.755.096-.161-.674-.255-1.373-.255-2.096,0-1.028.181-2.011.498-2.931-.017.024-1.575,1.594-1.575,1.594-.146-.897-.498-1.776-.924-2.536.01-.077.001-.494.001-.627,0-1.198.781-2.656,1.492-3.505.727.849,1.508,2.307,1.508,3.505,0,.164-.005.295-.011.413.435-.851.995-1.627,1.667-2.294-.174-.525-.398-1.031-.656-1.491.01-.077.001-.494.001-.627,0-1.198.781-2.656,1.492-3.505.727.849,1.508,2.307,1.508,3.505,0,.182-.005.326-.014.453,1.21-.605,2.57-.953,4.014-.953.133,0,.263.014.394.02l6.313-6.313c.391-.391.391-1.023,0-1.414s-1.023-.391-1.414,0l-7.37,7.37c-.135-.829-.45-1.641-.832-2.359l3.649-3.649c.391-.391.391-1.023,0-1.414s-1.023-.391-1.414,0l-3.387,3.387c-.775-.808-2.216-.791-2.951.067-.692.809-1.47,2.09-1.811,3.457-.754-.253-1.657-.079-2.189.543-.692.809-1.47,2.09-1.811,3.457-.754-.253-1.657-.079-2.189.543-.917,1.072-1.988,2.974-1.988,4.806,0,1.92.969,3.535,1.649,4.437l-1.356,1.356c-.391.391-.391,1.023,0,1.414.195.195.451.293.707.293s.512-.098.707-.293l1.356-1.356c.903.679,2.517,1.649,4.437,1.649,1.028,0,2.073-.342,2.987-.8-.469-.493-.881-1.039-1.23-1.629-.584.255-1.198.429-1.757.429Zm-4.419-2.495c-.488-.701-1.081-1.794-1.081-3.005,0-1.198.781-2.656,1.492-3.505.727.849,1.508,2.307,1.508,3.505,0,.894-.098,1.022-.357,1.367-.061.081-1.562,1.638-1.562,1.638ZM23.74,6.24c.391.391.391,1.023,0,1.414l-1.817,1.817c-.586-.384-1.221-.696-1.892-.936l2.294-2.294c.391-.391,1.023-.391,1.414,0Zm-6.74,3.76c-3.859,0-7,3.141-7,7s3.141,7,7,7,7-3.141,7-7-3.141-7-7-7Zm0,12c-2.757,0-5-2.243-5-5s2.243-5,5-5,5,2.243,5,5-2.243,5-5,5Zm-1-6v-2c0-.553.447-1,1-1s1,.447,1,1v2c0,.553-.447,1-1,1s-1-.447-1-1Zm2.5,3.5c0,.828-.672,1.5-1.5,1.5s-1.5-.672-1.5-1.5.672-1.5,1.5-1.5,1.5.672,1.5,1.5Z"/>
</svg>
