<?xml version="1.0" encoding="UTF-8"?>
<svg xmlns="http://www.w3.org/2000/svg" id="Layer_1" data-name="Layer 1" viewBox="0 0 24 24">
  <path d="m18,12c0-3.309-2.691-6-6-6s-6,2.691-6,6,2.691,6,6,6,6-2.691,6-6Zm-6,4c-2.206,0-4-1.794-4-4s1.794-4,4-4,4,1.794,4,4-1.794,4-4,4Zm-4,7c0,.553-.447,1-1,1h-2c-2.757,0-5-2.243-5-5v-2c0-.553.447-1,1-1s1,.447,1,1v2c0,1.654,1.346,3,3,3h2c.553,0,1,.447,1,1Zm16-6v2c0,2.757-2.243,5-5,5h-2c-.553,0-1-.447-1-1s.447-1,1-1h2c1.654,0,3-1.346,3-3v-2c0-.553.447-1,1-1s1,.447,1,1Zm0-12v2c0,.553-.447,1-1,1s-1-.447-1-1v-2c0-1.654-1.346-3-3-3h-2c-.553,0-1-.447-1-1s.447-1,1-1h2c2.757,0,5,2.243,5,5ZM0,7v-2C0,2.243,2.243,0,5,0h2c.553,0,1,.447,1,1s-.447,1-1,1h-2c-1.654,0-3,1.346-3,3v2c0,.553-.447,1-1,1s-1-.447-1-1Z"/>
</svg>
