<?xml version="1.0" encoding="UTF-8"?>
<svg xmlns="http://www.w3.org/2000/svg" id="Layer_1" data-name="Layer 1" viewBox="0 0 24 24">
  <path d="m23.53,6.77c-.353-.421-.87-.681-1.418-.713-.759-.045-2.074-.214-2.927-.828l1.521-1.521c.391-.391.391-1.023,0-1.414s-1.023-.391-1.414,0l-1.542,1.542-1.946-1.952c-.566-.569-1.32-.882-2.123-.883h-.003c-.801,0-1.554.312-2.121.879l-1.678,1.678c-1.167,1.167-1.169,3.068-.004,4.239l1.955,1.961L.293,21.293c-.391.391-.391,1.023,0,1.414.195.195.451.293.707.293s.512-.098.707-.293l11.511-11.511c.608.849.783,2.167.832,2.929.036.545.296,1.059.716,1.409.362.302.821.466,1.289.466,4.195-.482,7.446-3.517,7.932-7.71.063-.545-.103-1.099-.456-1.52Zm-7.484,7.226c-.09-1.388-.451-3.297-1.656-4.502l-3.099-3.109c-.388-.39-.388-1.024.001-1.413l1.678-1.678c.189-.189.44-.293.708-.293h0c.268,0,.519.105.708.295l3.094,3.104s0,0,0,0c1.217,1.218,3.125,1.571,4.518,1.659-.381,3.287-2.659,5.563-5.954,5.937Zm.008,2.004c.076,0-.076.008,0,0h0Z"/>
</svg>
