<?xml version="1.0" encoding="UTF-8"?>
<svg xmlns="http://www.w3.org/2000/svg" id="Layer_1" data-name="Layer 1" viewBox="0 0 24 24">
  <path d="m13.5,16.5c0,.828-.672,1.5-1.5,1.5s-1.5-.672-1.5-1.5.672-1.5,1.5-1.5,1.5.672,1.5,1.5Zm-1.5-7.5c.828,0,1.5-.672,1.5-1.5s-.672-1.5-1.5-1.5-1.5.672-1.5,1.5.672,1.5,1.5,1.5Zm11.396,5.364l-3.282,6c-.889,1.625-2.609,2.636-4.49,2.636h-7.231c-1.877,0-3.595-1.007-4.485-2.627L.612,14.377c-.817-1.485-.817-3.259-.002-4.746L3.907,3.628c.892-1.621,2.61-2.628,4.487-2.628h7.229c1.881,0,3.602,1.01,4.491,2.636l3.28,6c.81,1.48.81,3.248,0,4.728Zm-1.756-3.769l-3.28-6c-.538-.984-1.587-1.596-2.736-1.596h-7.229c-1.147,0-2.194.61-2.734,1.591l-3.296,6.004c-.485.883-.485,1.937,0,2.819l3.296,5.996c.539.981,1.586,1.59,2.732,1.59h7.231c1.149,0,2.198-.611,2.735-1.595,0,0,0,0,0,0l3.281-6c.48-.879.48-1.929,0-2.809Zm-4.641.405H7c-.553,0-1,.448-1,1s.447,1,1,1h10c.553,0,1-.448,1-1s-.447-1-1-1Z"/>
</svg>
