<?xml version="1.0" encoding="UTF-8"?>
<svg xmlns="http://www.w3.org/2000/svg" id="Layer_1" data-name="Layer 1" viewBox="0 0 24 24">
  <path d="m3,16.5c0,.828-.672,1.5-1.5,1.5s-1.5-.672-1.5-1.5.672-1.5,1.5-1.5,1.5.672,1.5,1.5ZM1,8h22c.553,0,1-.448,1-1s-.447-1-1-1H1c-.553,0-1,.448-1,1s.447,1,1,1Zm11,13c-.828,0-1.5.672-1.5,1.5s.672,1.5,1.5,1.5,1.5-.672,1.5-1.5-.672-1.5-1.5-1.5Zm-10.5,0c-.828,0-1.5.672-1.5,1.5s.672,1.5,1.5,1.5,1.5-.672,1.5-1.5-.672-1.5-1.5-1.5Zm5-3c-.828,0-1.5.672-1.5,1.5s.672,1.5,1.5,1.5,1.5-.672,1.5-1.5-.672-1.5-1.5-1.5Zm16,3c-.828,0-1.5.672-1.5,1.5s.672,1.5,1.5,1.5,1.5-.672,1.5-1.5-.672-1.5-1.5-1.5Zm-10.5-6c-.828,0-1.5.672-1.5,1.5s.672,1.5,1.5,1.5,1.5-.672,1.5-1.5-.672-1.5-1.5-1.5Zm10.5,0c-.828,0-1.5.672-1.5,1.5s.672,1.5,1.5,1.5,1.5-.672,1.5-1.5-.672-1.5-1.5-1.5Zm-5,3c-.828,0-1.5.672-1.5,1.5s.672,1.5,1.5,1.5,1.5-.672,1.5-1.5-.672-1.5-1.5-1.5Zm6.089-6.808s-.571-.417-.816-.604c-1.027-.781-2.519-.782-3.546,0-.705.538-1.747.539-2.454,0-1.027-.781-2.519-.782-3.546,0-.705.538-1.747.539-2.454,0-1.027-.781-2.519-.782-3.546,0-.705.538-1.747.539-2.454,0-1.027-.781-2.519-.782-3.546,0-.243.186-.805.617-.805.617-.249.182-.422.462-.422.794,0,.552.448,1,1,1,.22,0,.413-.086.578-.206,0,0,.607-.42.86-.614.314-.24.808-.24,1.122,0,1.41,1.073,3.47,1.073,4.878,0,.314-.24.808-.24,1.122,0,1.41,1.073,3.47,1.073,4.878,0,.314-.24.808-.24,1.122,0,.705.537,1.548.82,2.439.82s1.734-.284,2.438-.82c.314-.24.808-.239,1.122,0,.254.194.851.629.851.629,0,0,.369.192.589.192.552,0,1-.448,1-1,0-.332-.411-.808-.411-.808Z"/>
</svg>
