<?xml version="1.0" encoding="UTF-8"?>
<svg xmlns="http://www.w3.org/2000/svg" id="Layer_1" data-name="Layer 1" viewBox="0 0 24 24">
  <path d="m16,13c0,1.105-.895,2-2,2-.558,0-1.062-.23-1.425-.599.194.657.452,1.275.798,1.813.219.341-.003.785-.407.785h-1.931c-.405,0-.626-.445-.407-.785.346-.539.604-1.156.798-1.813-.363.369-.867.599-1.425.599-1.105,0-2-.895-2-2,0-2.333,4-5,4-5,0,0,4,2.667,4,5Zm5-8v14c0,2.757-2.243,5-5,5h-8c-2.757,0-5-2.243-5-5V5C3,2.243,5.243,0,8,0h8c2.757,0,5,2.243,5,5Zm-2,0c0-1.654-1.346-3-3-3h-8c-1.654,0-3,1.346-3,3v14c0,1.654,1.346,3,3,3h8c1.654,0,3-1.346,3-3V5Z"/>
</svg>
