<?xml version="1.0" encoding="UTF-8"?>
<svg xmlns="http://www.w3.org/2000/svg" id="Layer_1" data-name="Layer 1" viewBox="0 0 24 24">
  <path d="m21.906,11.49l-4.906-3.504v-3.485c0-.938-.448-1.835-1.2-2.4l-2-1.5c-1.059-.795-2.541-.795-3.6,0l-2.001,1.5c-.751.564-1.199,1.461-1.199,2.399v3.445l-5.019,3.801c-1.241.94-1.981,2.43-1.981,3.986v4.268c0,2.206,1.794,4,4,4h16c2.206,0,4-1.794,4-4v-4.441c0-1.611-.782-3.132-2.094-4.069Zm-13.303-2.25c.25-.189.396-.484.396-.797v-3.942c0-.313.149-.612.399-.8l2-1.5c.177-.132.389-.199.601-.199s.424.066.601.199l1.999,1.5c.251.188.4.488.4.801v4c0,.323.156.626.419.814l1.581,1.129v11.557h-2v-4c0-1.654-1.346-3-3-3s-3,1.346-3,3v4h-2v-11.546l1.604-1.214Zm4.396,12.76h-2v-4c0-.551.448-1,1-1s1,.449,1,1v4Zm-11-2v-4.268c0-.934.444-1.828,1.188-2.392l1.812-1.372v10.031h-1c-1.103,0-2-.897-2-2Zm20,0c0,1.103-.897,2-2,2h-1v-10.128l1.744,1.246c.786.562,1.256,1.474,1.256,2.441v4.441Zm-11.5-8.5c0-.828.672-1.5,1.5-1.5s1.5.672,1.5,1.5-.672,1.5-1.5,1.5-1.5-.672-1.5-1.5Z"/>
</svg>
