<?xml version="1.0" encoding="UTF-8"?>
<svg xmlns="http://www.w3.org/2000/svg" id="Layer_1" data-name="Layer 1" viewBox="0 0 24 24">
  <path d="m7.058,4.962c.839,0,1.595.346,2.139.901-1.325.9-2.198,2.419-2.198,4.138,0,.328.036.647.097.958-.013,0-.025.004-.038.004-1.657,0-3-1.343-3-3s1.343-3,3-3Zm9.942.038c-.841,0-1.599.349-2.144.906,1.293.905,2.144,2.399,2.144,4.094,0,.339-.035.67-.1.99.034.001.066.01.1.01,1.657,0,3-1.343,3-3s-1.343-3-3-3Zm-5,8c1.657,0,3-1.343,3-3s-1.343-3-3-3-3,1.343-3,3,1.343,3,3,3Zm0,2c-1.754,0-3.335,1.063-3.935,2.646-.196.517.064,1.094.581,1.29.515.195,1.094-.064,1.29-.581.307-.811,1.137-1.354,2.065-1.354s1.758.544,2.065,1.354c.151.399.532.646.935.646.118,0,.238-.021.354-.064.516-.196.776-.773.581-1.29-.6-1.582-2.181-2.646-3.935-2.646Zm3.7-1.803c-.527.166-.82.727-.654,1.254.166.526.729.818,1.254.654.223-.07.458-.105.7-.105.928,0,1.758.544,2.065,1.354.151.399.532.646.935.646.118,0,.238-.021.354-.064.516-.196.776-.773.581-1.29-.6-1.582-2.181-2.646-3.935-2.646-.446,0-.883.066-1.3.197Zm-8.7-.197c-1.754,0-3.335,1.063-3.935,2.646-.196.517.064,1.094.581,1.29.117.044.236.064.354.064.403,0,.784-.246.935-.646.307-.811,1.137-1.354,2.065-1.354.242,0,.478.035.7.105.525.164,1.088-.128,1.254-.654.166-.527-.127-1.088-.654-1.254-.417-.131-.854-.197-1.3-.197Zm0,9h-2c-1.654,0-3-1.346-3-3v-2c0-.553-.448-1-1-1s-1,.447-1,1v2c0,2.757,2.243,5,5,5h2c.552,0,1-.447,1-1s-.448-1-1-1Zm16-6c-.552,0-1,.447-1,1v2c0,1.654-1.346,3-3,3h-2c-.552,0-1,.447-1,1s.448,1,1,1h2c2.757,0,5-2.243,5-5v-2c0-.553-.448-1-1-1ZM19,0h-2c-.552,0-1,.447-1,1s.448,1,1,1h2c1.654,0,3,1.346,3,3v2c0,.553.448,1,1,1s1-.447,1-1v-2c0-2.757-2.243-5-5-5ZM1,8c.552,0,1-.447,1-1v-2c0-1.654,1.346-3,3-3h2c.552,0,1-.447,1-1s-.448-1-1-1h-2C2.243,0,0,2.243,0,5v2c0,.553.448,1,1,1Z"/>
</svg>
