<?xml version="1.0" encoding="UTF-8"?>
<svg xmlns="http://www.w3.org/2000/svg" id="Layer_1" data-name="Layer 1" viewBox="0 0 24 24">
  <path d="m21.997,2.003c-2.829-2.829-7.631-2.629-10.704.442-.949.95-1.663,2.111-2.062,3.36-.528,1.647-1.776,2.896-3.425,3.425-1.248.399-2.41,1.112-3.359,2.062-3.073,3.073-3.271,7.875-.442,10.704,1.338,1.338,3.117,1.998,4.945,1.998,2.039,0,4.139-.821,5.759-2.44.949-.95,1.663-2.111,2.062-3.359h0c.528-1.648,1.776-2.897,3.425-3.426,1.248-.399,2.41-1.112,3.359-2.062,3.073-3.073,3.271-7.875.442-10.704Zm-1.856,9.29c-.726.726-1.609,1.269-2.556,1.572-2.238.718-4.002,2.481-4.719,4.719-.304.947-.848,1.831-1.573,2.557-2.293,2.292-5.826,2.492-7.875.442s-1.851-5.583.442-7.876c.726-.726,1.609-1.269,2.556-1.572,2.238-.718,4.002-2.481,4.719-4.719.304-.947.848-1.831,1.573-2.557,1.231-1.23,2.819-1.858,4.344-1.858,1.315,0,2.583.467,3.532,1.416,2.049,2.05,1.851,5.583-.442,7.876Zm-8.14,2.207c0,.828-.672,1.5-1.5,1.5s-1.5-.672-1.5-1.5.672-1.5,1.5-1.5,1.5.672,1.5,1.5Zm-3,4c0,.828-.672,1.5-1.5,1.5s-1.5-.672-1.5-1.5.672-1.5,1.5-1.5,1.5.672,1.5,1.5Zm9-12c0,.828-.672,1.5-1.5,1.5s-1.5-.672-1.5-1.5.672-1.5,1.5-1.5,1.5.672,1.5,1.5Z"/>
</svg>
