<?xml version="1.0" encoding="UTF-8"?>
<svg xmlns="http://www.w3.org/2000/svg" id="Layer_1" data-name="Layer 1" viewBox="0 0 24 24">
  <path d="m18,0H6C3.243,0,1,2.243,1,5v10c0,1.632.786,3.084,2,3.997v2.003c0,1.654,1.346,3,3,3h12c1.654,0,3-1.346,3-3v-2.003c1.214-.913,2-2.365,2-3.997V5c0-2.757-2.243-5-5-5Zm1,21c0,.552-.449,1-1,1H6c-.551,0-1-.448-1-1v-1.101c.323.066.658.101,1,.101h12c.342,0,.677-.035,1-.101v1.101Zm2-6c0,1.654-1.346,3-3,3H6c-1.654,0-3-1.346-3-3V5c0-1.654,1.346-3,3-3h12c1.654,0,3,1.346,3,3v10Zm-4-11H7c-1.103,0-2,.897-2,2v4c0,1.103.897,2,2,2h10c1.103,0,2-.897,2-2v-4c0-1.103-.897-2-2-2Zm-10,6v-4h10v4s-10,0-10,0Zm1,5c0,.828-.672,1.5-1.5,1.5s-1.5-.672-1.5-1.5.672-1.5,1.5-1.5,1.5.672,1.5,1.5Zm11,0c0,.553-.448,1-1,1h-7c-.552,0-1-.447-1-1s.448-1,1-1h7c.552,0,1,.447,1,1Z"/>
</svg>
