<?xml version="1.0" encoding="UTF-8"?>
<svg xmlns="http://www.w3.org/2000/svg" id="Layer_1" data-name="Layer 1" viewBox="0 0 24 24">
  <path d="m19,2h-1v-1c0-.553-.447-1-1-1s-1,.447-1,1v1h-8v-1c0-.553-.447-1-1-1s-1,.447-1,1v1h-1C2.243,2,0,4.243,0,7v12c0,2.757,2.243,5,5,5,.553,0,1-.447,1-1s-.447-1-1-1c-1.654,0-3-1.346-3-3v-9h20v3c0,.553.447,1,1,1s1-.447,1-1v-6c0-2.757-2.243-5-5-5ZM2,8v-1c0-1.654,1.346-3,3-3h14c1.654,0,3,1.346,3,3v1H2Zm15.992,8.784v4.916c0,1.348-1.164,2.427-2.539,2.288-1.197-.122-2.06-1.22-2.06-2.422v-4.781c0-.442.358-.8.8-.8s.8.358.8.8v4.916c0,.386.314.7.7.7s.7-.314.7-.7v-4.916c0-.442.358-.8.8-.8s.8.358.8.8Zm6.008,0v6.23c0,.535-.434.97-.97.97-.383,0-.731-.226-.886-.576l-1.544-3.478v3.254c0,.442-.358.8-.8.8s-.8-.358-.8-.8v-6.235c0-.534.431-.967.965-.97.386-.002.736.225.891.578l1.543,3.49v-3.263c0-.442.358-.8.8-.8s.8.358.8.8Zm-11.334,5.165c-.191,1.175-1.215,2.028-2.436,2.028-.664,0-1.3-.195-1.839-.552-.388-.257-.448-.802-.119-1.131.236-.235.603-.283.888-.111.316.191.688.297,1.069.297.604,0,1.031-.404,1.096-.795.088-.55-.602-.873-.817-.959-.915-.371-1.751-.78-1.753-.78-.692-.484-1.027-1.231-.921-2.049.111-.845.674-1.534,1.471-1.796.839-.277,1.603-.076,2.152.203.405.205.518.733.238,1.095l-.011.014c-.195.253-.539.347-.831.216-.308-.138-.72-.237-1.156-.096-.412.136-.517.447-.516.577.005.442.335.57.433.615.282.128.806.368,1.366.595,1.461.591,1.828,1.745,1.685,2.627Z"/>
</svg>
