<?xml version="1.0" encoding="UTF-8"?>
<svg xmlns="http://www.w3.org/2000/svg" id="Layer_1" data-name="Layer 1" viewBox="0 0 24 24">
  <path d="m24,20v1c0,.553-.447,1-1,1s-1-.447-1-1v-1c0-.552-.448-1-1-1h-8v2c0,.553-.448,1-1,1s-1-.447-1-1v-2H3c-.551,0-1,.448-1,1v1c0,.553-.448,1-1,1s-1-.447-1-1v-1c0-1.654,1.346-3,3-3h18c1.654,0,3,1.346,3,3ZM0,12v-6c0-1.654,1.346-3,3-3h6c1.654,0,3,1.346,3,3v6c0,1.654-1.346,3-3,3H3c-1.654,0-3-1.346-3-3Zm2,0c0,.552.449,1,1,1h6c.551,0,1-.448,1-1v-6c0-.552-.449-1-1-1H3c-.551,0-1,.448-1,1v6Zm22-4v4c0,1.654-1.346,3-3,3h-4c-1.654,0-3-1.346-3-3v-4c0-1.654,1.346-3,3-3h4c1.654,0,3,1.346,3,3Zm-2,0c0-.552-.448-1-1-1h-4c-.552,0-1,.448-1,1v4c0,.552.448,1,1,1h4c.552,0,1-.448,1-1v-4Z"/>
</svg>
