<?xml version="1.0" encoding="UTF-8"?>
<svg xmlns="http://www.w3.org/2000/svg" id="Layer_1" data-name="Layer 1" viewBox="0 0 24 24">
  <path d="m11,19.5c0,.83-.67,1.5-1.5,1.5s-1.5-.67-1.5-1.5.67-1.5,1.5-1.5,1.5.67,1.5,1.5Zm2.5-1.5c-.83,0-1.5.67-1.5,1.5s.67,1.5,1.5,1.5,1.5-.67,1.5-1.5-.67-1.5-1.5-1.5Zm10.5-6.5v3c0,.828-.672,1.5-1.5,1.5h-1c-.828,0-1.5-.672-1.5-1.5v-3c0-.653.417-1.208,1-1.414v-5.586c0-1.379-1.121-2.5-2.5-2.5h-6c-1.207,0-2.217.86-2.45,2h3.45c2.481,0,4.5,2.019,4.5,4.5v11c0,2.481-2.019,4.5-4.5,4.5H4.5c-2.481,0-4.5-2.019-4.5-4.5v-11c0-2.481,2.019-4.5,4.5-4.5h3.528c.25-2.247,2.16-4,4.472-4h6c2.481,0,4.5,2.019,4.5,4.5v5.586c.583.206,1,.761,1,1.414Zm-8,8v-2.5H2v2.5c0,1.379,1.122,2.5,2.5,2.5h9c1.379,0,2.5-1.121,2.5-2.5Zm-2.5-13.5H4.5c-1.378,0-2.5,1.121-2.5,2.5v6.5h14v-6.5c0-1.379-1.121-2.5-2.5-2.5Z"/>
</svg>
