<?xml version="1.0" encoding="UTF-8"?>
<svg xmlns="http://www.w3.org/2000/svg" id="Layer_1" data-name="Layer 1" viewBox="0 0 24 24">
  <path d="m22.138,13H1.862c-.615,0-1.189.303-1.537.811s-.421,1.153-.198,1.726c0,0,.169.423.198.472,1.623,2.706,3.926,2.964,5.973,2.992h4.701v3h-3c-.552,0-1,.447-1,1s.448,1,1,1h8c.553,0,1-.447,1-1s-.447-1-1-1h-3v-3h4.715c2.032-.028,4.337-.286,5.959-2.992.029-.049.198-.472.198-.472.224-.572.149-1.218-.198-1.726-.347-.508-.921-.811-1.536-.811Zm-.222,2.049c-.994,1.611-2.211,1.923-4.215,1.951H6.313c-2.018-.028-3.235-.34-4.229-1.951l-.019-.049h19.871l-.02.049ZM.717,10.959c.534.161,1.086-.146,1.242-.677.569-1.933,2.436-3.282,4.541-3.282s3.972,1.35,4.541,3.282c.125.426.516.718.959.718s.834-.292.959-.718c.569-1.933,2.436-3.282,4.541-3.282s3.972,1.35,4.541,3.282c.128.436.526.718.959.718.093,0,.188-.013.282-.041.53-.156.833-.712.677-1.241-.74-2.515-2.99-4.326-5.623-4.65-.653-2.94-3.239-5.067-6.336-5.067s-5.683,2.127-6.336,5.067C3.031,5.392.781,7.203.041,9.718c-.156.529.147,1.085.677,1.241ZM12,2c2.005,0,3.696,1.291,4.277,3.122-1.734.315-3.274,1.273-4.277,2.652-1.004-1.379-2.543-2.337-4.277-2.652.581-1.831,2.271-3.122,4.277-3.122Z"/>
</svg>
