<?xml version="1.0" encoding="UTF-8"?>
<svg xmlns="http://www.w3.org/2000/svg" id="Layer_1" data-name="Layer 1" viewBox="0 0 24 24">
  <path d="m1.5,17c0-1.105.895-2,2-2s2,.895,2,2-.895,2-2,2-2-.895-2-2Zm8.5,0c0,1.105.895,2,2,2s2-.895,2-2-.895-2-2-2-2,.895-2,2Zm2-13c1.105,0,2-.895,2-2s-.895-2-2-2-2,.895-2,2,.895,2,2,2Zm6.5,13c0,1.105.895,2,2,2s2-.895,2-2-.895-2-2-2-2,.895-2,2Zm-15-3c.552,0,1-.447,1-1s.449-1,1-1h5.5v1c0,.553.448,1,1,1s1-.447,1-1v-1h5.5c.551,0,1,.448,1,1s.448,1,1,1,1-.447,1-1c0-1.654-1.346-3-3-3H5.5c-1.654,0-3,1.346-3,3,0,.553.448,1,1,1Zm8.5,6c-1.657,0-3.1,1.178-3.43,2.801-.11.541.24,1.069.781,1.179.545.112,1.069-.24,1.179-.78.141-.695.759-1.199,1.47-1.199s1.329.504,1.47,1.199c.096.474.513.801.979.801.066,0,.133-.007.2-.021.541-.109.891-.638.781-1.179-.33-1.623-1.772-2.801-3.43-2.801Zm-2.649-11.021c.545.109,1.069-.239,1.179-.78.141-.695.759-1.199,1.47-1.199s1.329.504,1.47,1.199c.096.474.513.801.979.801.066,0,.133-.007.2-.021.541-.109.891-.638.781-1.179-.33-1.623-1.772-2.801-3.43-2.801s-3.1,1.178-3.43,2.801c-.11.541.24,1.069.781,1.179Zm-5.901,11.021c-1.658,0-3.101,1.178-3.43,2.801-.11.542.24,1.069.781,1.18.54.104,1.069-.241,1.179-.781.141-.695.759-1.199,1.47-1.199s1.329.504,1.47,1.199c.096.474.513.801.979.801.066,0,.133-.007.2-.021.541-.109.891-.638.781-1.179-.33-1.623-1.772-2.801-3.43-2.801Zm20.529,2.797c-.335-1.62-1.799-2.797-3.479-2.797s-3.144,1.177-3.479,2.797c-.112.541.235,1.07.776,1.183.538.105,1.07-.236,1.182-.776.145-.697.784-1.203,1.521-1.203s1.376.506,1.521,1.203c.098.472.514.797.978.797.067,0,.135-.007.204-.021.541-.112.889-.642.776-1.183Z"/>
</svg>
