<?xml version="1.0" encoding="UTF-8"?>
<svg xmlns="http://www.w3.org/2000/svg" id="Layer_1" data-name="Layer 1" viewBox="0 0 24 24">
  <path d="m8,11h-3c-.552,0-1-.448-1-1s.448-1,1-1h3c.552,0,1,.448,1,1s-.448,1-1,1Zm15.759,12.651c-.198.23-.478.349-.76.349-.23,0-.462-.079-.65-.241l-2.509-2.151c-1.041.868-2.379,1.391-3.84,1.391-3.314,0-6-2.686-6-6s2.686-6,6-6,6,2.686,6,6c0,1.13-.318,2.184-.862,3.087l2.513,2.154c.419.359.468.991.108,1.41Zm-6.78-4.325l2.703-2.614c.398-.383.411-1.016.029-1.414-.383-.399-1.017-.41-1.414-.029l-2.713,2.624c-.143.141-.379.144-.522.002l-1.354-1.331c-.396-.388-1.028-.381-1.414.014-.387.395-.381,1.027.014,1.414l1.354,1.332c.46.449,1.062.674,1.663.674s1.201-.225,1.653-.671Zm-5.979,3.674c0,.552-.448,1-1,1h-5c-2.757,0-5-2.243-5-5V5C0,2.243,2.243,0,5,0h4.515c1.87,0,3.627.728,4.95,2.05l3.485,3.485c.888.888,1.521,2,1.833,3.217.077.299.011.617-.179.861s-.481.387-.79.387h-5.813c-1.654,0-3-1.346-3-3V2.023c-.16-.015-.322-.023-.485-.023h-4.515c-1.654,0-3,1.346-3,3v14c0,1.654,1.346,3,3,3h5c.552,0,1,.448,1,1Zm1-16c0,.551.449,1,1,1h4.338c-.219-.382-.489-.736-.803-1.05l-3.485-3.485c-.318-.318-.671-.587-1.05-.806v4.341Zm-5,6h-2c-.552,0-1,.448-1,1s.448,1,1,1h2c.552,0,1-.448,1-1s-.448-1-1-1Zm0,4h-2c-.552,0-1,.448-1,1s.448,1,1,1h2c.552,0,1-.448,1-1s-.448-1-1-1Z"/>
</svg>
