<?xml version="1.0" encoding="UTF-8"?>
<svg xmlns="http://www.w3.org/2000/svg" id="Layer_1" data-name="Layer 1" viewBox="0 0 24 24">
  <path d="m19,6h-5c-2.757,0-5,2.243-5,5v5c0,1.474.81,2.75,2,3.444v2.556h-1c-.553,0-1,.448-1,1s.447,1,1,1h13c.553,0,1-.448,1-1s-.447-1-1-1h-1.5v-2.297c1.464-.595,2.5-2.028,2.5-3.703v-5c0-2.757-2.243-5-5-5Zm-1.5,7v-4h3.72c.48.532.78,1.229.78,2v2h-4.5Zm-6.5,0v-2c0-.771.301-1.468.78-2h3.72v4h-4.5Zm2,9v-2h6.5v2h-6.5Zm7-4h-7c-1.103,0-2-.897-2-2v-1h2v1c0,.552.447,1,1,1s1-.448,1-1v-1h3v1c0,.552.447,1,1,1s1-.448,1-1v-1h2v1c0,1.103-.897,2-2,2Zm-13,0H2V4c0-1.103.897-2,2-2h1c0,1.103.897,2,2,2h4c1.103,0,2-.897,2-2v-1c0-.552-.447-1-1-1H4C1.794,0,0,1.794,0,4v18c0,1.103.897,2,2,2h2c1.103,0,2-.897,2-2v-2h1c.553,0,1-.448,1-1s-.447-1-1-1Zm-3,4h-2v-2h2v2Z"/>
</svg>
