<?xml version="1.0" encoding="UTF-8"?>
<svg xmlns="http://www.w3.org/2000/svg" id="Layer_1" data-name="Layer 1" viewBox="0 0 24 24">
  <path d="m24,19c0,1.654-1.346,3-3,3v1c0,.553-.447,1-1,1s-1-.447-1-1v-1h-.268c-1.067,0-2.063-.574-2.598-1.499-.277-.479-.113-1.09.364-1.366.479-.279,1.091-.113,1.366.364.179.31.511.501.867.501h2.268c.552,0,1-.448,1-1,0-.379-.271-.698-.645-.761l-3.04-.506c-1.342-.224-2.315-1.374-2.315-2.733,0-1.654,1.346-3,3-3v-1c0-.553.447-1,1-1s1,.447,1,1v1h.268c1.067,0,2.063.574,2.598,1.499.277.479.113,1.09-.364,1.366-.48.278-1.091.112-1.366-.364-.179-.31-.511-.501-.867-.501h-2.268c-.552,0-1,.448-1,1,0,.379.271.698.645.761l3.04.506c1.342.224,2.315,1.374,2.315,2.733ZM19,2h-1v-1c0-.553-.447-1-1-1s-1,.447-1,1v1h-8v-1c0-.553-.447-1-1-1s-1,.447-1,1v1h-1C2.243,2,0,4.243,0,7v12c0,2.757,2.243,5,5,5h9c.553,0,1-.447,1-1s-.447-1-1-1H5c-1.654,0-3-1.346-3-3v-9h15c.553,0,1-.447,1-1s-.447-1-1-1H2v-1c0-1.654,1.346-3,3-3h14c1.654,0,3,1.346,3,3v2c0,.553.447,1,1,1s1-.447,1-1v-2c0-2.757-2.243-5-5-5Z"/>
</svg>
