<?xml version="1.0" encoding="UTF-8"?>
<svg xmlns="http://www.w3.org/2000/svg" id="Layer_1" data-name="Layer 1" viewBox="0 0 24 24">
  <path d="m22.012,11.562l.842-.855c1.56-1.56,1.56-4.097,0-5.657l-.708-.707c.466-.321,1.001-.696,1.177-.845.818-.709.907-1.948.197-2.766-.805-.941-2.115-.935-2.896-.184-.027.026-.55.746-.961,1.314l-.715-.715C18.194.391,17.19-.025,16.121-.025s-2.072.416-2.834,1.177L4.465,10.028c-.259-.378-.757-1.103-.967-1.351-.709-.818-1.99-.98-2.896-.074-.781.75-.805,1.992-.055,2.773.033.035,1,.741,1.459,1.073l-.821.808C.424,14.01.002,15.016,0,16.088s.414,2.08,1.172,2.838l3.902,3.902c.779.779,1.804,1.168,2.83,1.168,1.018,0,2.035-.384,2.811-1.151l1.075-1.058c.157.223,1.179,1.625,1.221,1.665.781.75,2.022.726,2.773-.055.895-.862.744-2.186-.074-2.896-.294-.248-1.255-.9-1.516-1.08l5.388-5.39c.343.474,1.011,1.388,1.044,1.42.781.75,1.888.763,2.896-.184.709-.818.621-2.057-.197-2.766-.24-.202-.924-.674-1.312-.94Zm-10.544-5.709c.277.386,1.12,1.54,1.158,1.577.781.751,1.905.827,2.896-.184.709-.818.621-2.057-.197-2.766-.278-.235-1.156-.833-1.471-1.049l.855-.869c.756-.756,2.072-.756,2.828,0l3.904,3.903c.779.78.779,2.049-.006,2.834l-5.319,5.405-6.731-6.732,2.085-2.118Zm-2.158,15.568c-.78.772-2.046.768-2.821-.007l-.818-.818c.651-.386,1.56-.925,1.765-1.099.818-.709.852-2.008.143-2.826-.75-.781-2.06-.875-2.841-.124-.03.029-.787,1.102-1.294,1.822l-.857-.857c-.379-.379-.587-.883-.586-1.419s.212-1.039.591-1.414l5.378-5.294,2.113,2.113c-.42.302-1.499,1.09-1.534,1.127-.75.781-.662,2.087.119,2.837.818.709,2.122.68,2.831-.139.22-.261.759-1.047,1.004-1.405l2.199,2.199-5.391,5.304Z"/>
</svg>
