<?xml version="1.0" encoding="UTF-8"?>
<svg xmlns="http://www.w3.org/2000/svg" id="Layer_1" data-name="Layer 1" viewBox="0 0 24 24">
  <path d="m22,9.378C22,4.215,17.514.015,12,.015S2,4.215,2,9.378c0,5.287,3.362,11.119,8.111,12.379-.254.382-.457.812-.583,1.246-.145.499.239.998.759.998h3.424c.52,0,.905-.498.759-.998-.126-.433-.329-.864-.583-1.246,4.749-1.26,8.111-7.092,8.111-12.379Zm-10,10.637c-4.506,0-8-5.718-8-10.637,0-4.061,3.589-7.363,8-7.363s8,3.303,8,7.363c0,4.919-3.494,10.637-8,10.637Zm4.813-8.878c-.274,1.356-.839,2.563-1.463,3.489-.328.488-1.005.582-1.442.19-.363-.325-.411-.862-.141-1.267.492-.737.933-1.698,1.134-2.778.083-.448.477-.771.933-.771h.034c.599,0,1.064.549.945,1.137Z"/>
</svg>
