<?xml version="1.0" encoding="UTF-8"?>
<svg xmlns="http://www.w3.org/2000/svg" id="Layer_1" data-name="Layer 1" viewBox="0 0 24 24">
  <path d="m23.273,17.232l-3.177-3.062c-.01-.01-.024-.013-.034-.022-.015-.128-.033-.255-.062-.382-.064-.284.072-.591.341-.765.499-.322.903-.759,1.202-1.297.285-.516.435-1.106.432-1.7.003-.604-.146-1.194-.432-1.71-.299-.538-.703-.975-1.202-1.298-.269-.173-.405-.479-.34-.765.134-.591.114-1.197-.06-1.804-.329-1.147-1.247-2.065-2.396-2.396-.604-.172-1.211-.192-1.803-.058-.281.058-.591-.072-.765-.341-.321-.499-.758-.902-1.297-1.202-1.045-.579-2.344-.579-3.387,0-.538.299-.975.702-1.297,1.201-.172.268-.475.403-.765.34-.591-.133-1.196-.114-1.803.06-1.148.329-2.066,1.247-2.396,2.396-.173.605-.192,1.212-.058,1.804.064.284-.072.591-.34.764-.499.321-.904.758-1.203,1.298-.285.516-.435,1.106-.432,1.7-.003.604.146,1.194.432,1.71.299.54.704.977,1.202,1.298.269.173.405.479.34.765-.03.132-.049.264-.064.397-.003.002-.006.003-.009.005l-3.177,3.062c-.671.647-.899,1.599-.595,2.48s1.069,1.489,1.998,1.586l.744.076.08.578c.124.893.73,1.627,1.583,1.918.253.087.514.129.771.129.607,0,1.199-.234,1.649-.675l3.721-3.606c.42.17.86.282,1.309.282.455,0,.901-.114,1.326-.289l3.725,3.61c.452.442,1.045.678,1.653.678.258,0,.518-.042.771-.129.853-.291,1.459-1.025,1.583-1.919l.08-.577.744-.076c.929-.097,1.693-.704,1.998-1.586s.076-1.833-.595-2.48Zm-17.711,4.66c-.143.14-.3.112-.38.086-.08-.027-.221-.104-.248-.3l-.188-1.354c-.062-.457-.43-.811-.888-.858l-1.524-.157c-.205-.021-.284-.164-.312-.248-.029-.084-.056-.246.093-.389l2.315-2.232c.453.728,1.162,1.286,2.001,1.527.603.171,1.21.191,1.803.058.281-.06.591.072.765.341.026.04.064.07.091.109l-3.528,3.419Zm5.703-4.074c-.248-.138-.445-.318-.586-.537-.518-.802-1.397-1.271-2.307-1.271-.193,0-.389.021-.581.064-.26.061-.532.048-.811-.03-.483-.139-.886-.541-1.023-1.022-.08-.279-.091-.553-.032-.812.251-1.101-.234-2.262-1.207-2.889-.218-.141-.398-.337-.535-.585-.12-.217-.183-.47-.182-.741,0-.262.062-.515.182-.731.137-.248.317-.444.536-.585.972-.627,1.457-1.788,1.207-2.888-.06-.26-.049-.533.03-.812.139-.482.541-.885,1.023-1.022.279-.08.552-.089.811-.032,1.1.257,2.261-.232,2.888-1.206.142-.219.339-.399.586-.536.441-.244,1.008-.243,1.447,0,.248.138.445.318.586.537.627.973,1.791,1.458,2.888,1.207.261-.06.532-.047.811.03.483.139.886.541,1.023,1.022.08.279.091.553.032.812-.251,1.101.234,2.262,1.206,2.888.219.142.399.339.536.586.12.217.183.47.182.741,0,.262-.062.515-.182.731-.137.247-.317.444-.536.585-.972.627-1.457,1.788-1.207,2.888.06.26.049.533-.03.812-.139.482-.541.885-1.023,1.022-.278.08-.551.09-.811.032-1.096-.254-2.261.233-2.888,1.206-.142.219-.339.399-.586.536-.441.244-1.008.243-1.447,0Zm10.712,1.242c-.028.084-.107.228-.312.248l-1.524.157c-.458.048-.825.401-.888.858l-.188,1.354c-.027.197-.168.273-.248.301-.082.027-.238.053-.383-.089l-3.537-3.427c.024-.035.058-.061.081-.097.172-.269.476-.403.765-.34.59.132,1.195.113,1.803-.06.843-.242,1.556-.804,2.01-1.538l2.328,2.245c.148.143.122.305.093.389Zm-8.978-5.061c0,.553-.447,1-1,1s-1-.447-1-1v-6.213l-.293.293c-.391.391-1.023.391-1.414,0s-.391-1.023,0-1.414l1.242-1.242c.415-.414,1.034-.538,1.573-.312.542.225.892.748.892,1.334v7.555Z"/>
</svg>
