<?xml version="1.0" encoding="UTF-8"?>
<svg xmlns="http://www.w3.org/2000/svg" id="Layer_1" data-name="Layer 1" viewBox="0 0 24 24">
  <path d="m23.458,2.797c-.626-.149-1.643-.352-2.818-.516-.811-.792-1.92-1.281-3.141-1.281s-2.329.489-3.141,1.281c-1.175.164-2.191.367-2.818.516-.475.113-.689.658-.431,1.072.398.64,1.114,1.102,1.902,1.302-.008.108-.012.218-.012.328v.577c-.497.102-.963.303-1.376.593-.62-.433-1.356-.67-2.124-.67-1.023,0-1.996.429-2.694,1.158-.345-.104-.701-.158-1.056-.158-2.048,0-3.719,1.651-3.75,3.692-1.21.637-2,1.898-2,3.308s.791,2.672,2,3.308c.027,1.785,1.308,3.272,3,3.617v1.075c0,1.103.897,2,2,2s2-.897,2-2v-.068c.865.119,1.766-.045,2.5-.517.593.381,1.279.585,2,.585.523,0,1.033-.112,1.5-.319v.319c0,1.103.897,2,2,2s2-.897,2-2v-1.434c1.173-.621,1.978-1.847,2-3.259.786-.414,1.411-1.101,1.742-1.94.202-.514-.05-1.095-.564-1.297-.515-.2-1.094.052-1.297.564-.204.52-.652.912-1.196,1.052-.523.134-.845.657-.729,1.185.03.137.045.261.045.38,0,.965-.785,1.75-1.75,1.75-.299,0-.593-.083-.874-.246-.229-.135-.502-.171-.761-.104-.257.068-.476.236-.609.467-.564.978-1.999,1.154-2.774.321-.379-.408-1.086-.408-1.465,0-.546.588-1.421.673-2.087.329-.46-.316-.582-.469-.687-.65-.133-.23-.353-.398-.609-.467-.258-.068-.531-.032-.761.104-.28.163-.574.246-.874.246-.965,0-1.75-.785-1.75-1.75,0-.119.015-.243.045-.38.116-.527-.206-1.051-.729-1.185-.775-.198-1.316-.892-1.316-1.686s.542-1.487,1.317-1.686c.522-.134.844-.658.728-1.185-.03-.136-.045-.26-.045-.379,0-.965.785-1.75,1.75-1.75.299,0,.593.083.874.247.23.134.505.172.76.103.257-.068.477-.236.61-.466.319-.553.882-.883,1.506-.883.519,0,1.01.239,1.349.655.38.468,1.172.466,1.552,0,.168-.207.372-.369.599-.481v1.095c0,2.301,1.724,3.731,4.5,3.731s4.5-1.43,4.5-3.731v-3.769c0-.11-.004-.22-.012-.328.787-.201,1.503-.663,1.902-1.302.258-.414.044-.96-.431-1.072Zm-3.458,6.472c0,1.148-.841,1.731-2.5,1.731s-2.5-.583-2.5-1.731v-3.769c0-1.378,1.122-2.5,2.5-2.5s2.5,1.122,2.5,2.5v3.769Z"/>
</svg>
