<?xml version="1.0" encoding="UTF-8"?>
<svg xmlns="http://www.w3.org/2000/svg" id="Layer_1" data-name="Layer 1" viewBox="0 0 24 24">
  <path d="m23.949,1.316c.175-.524-.108-1.09-.632-1.265-.525-.176-1.091.109-1.265.632-.229.689-.954,1.464-1.536,1.996-.905-.77-1.995-1.327-3.203-1.553-2.652-.494-5.309.512-6.933,2.628-.668.869-1.529,1.416-2.425,1.538-1.91.261-3.673,1.083-5.1,2.376-3.402,3.085-3.675,8.459-.62,12.232,1.986,2.454,4.696,3.943,7.437,4.087.151.008.301.012.451.012,2.208,0,4.234-.863,5.884-2.513,1.444-1.443,2.371-3.272,2.679-5.287.161-1.051.655-1.922,1.392-2.453,2.238-1.614,3.31-4.319,2.797-7.06-.171-.913-.538-1.756-1.033-2.509.714-.646,1.724-1.71,2.108-2.862Zm-5.042,10.809c-1.175.847-1.956,2.186-2.198,3.772-.244,1.591-.976,3.035-2.117,4.176-1.35,1.349-3.015,2.011-4.816,1.918-2.174-.114-4.356-1.334-5.986-3.348-2.388-2.95-2.208-7.12.409-9.493,1.126-1.021,2.519-1.67,4.026-1.876,1.421-.194,2.75-1.011,3.741-2.302.967-1.26,2.447-1.97,4.014-1.97.319,0,.643.03.965.09,1.997.373,3.589,1.966,3.963,3.963.369,1.971-.398,3.914-2.001,5.07Zm-3.906,1.375c0,.828-.672,1.5-1.5,1.5s-1.5-.672-1.5-1.5.672-1.5,1.5-1.5,1.5.672,1.5,1.5Zm-3,4c0,.828-.672,1.5-1.5,1.5s-1.5-.672-1.5-1.5.672-1.5,1.5-1.5,1.5.672,1.5,1.5Z"/>
</svg>
