<?xml version="1.0" encoding="UTF-8"?>
<svg xmlns="http://www.w3.org/2000/svg" id="Layer_1" data-name="Layer 1" viewBox="0 0 24 24">
  <path d="m5,10c0-.552.448-1,1-1h3v-3c0-.552.448-1,1-1s1,.448,1,1v3h3c.552,0,1,.448,1,1s-.448,1-1,1h-3v3c0,.552-.448,1-1,1s-1-.448-1-1v-3h-3c-.552,0-1-.448-1-1Zm19-1v10c0,2.757-2.243,5-5,5h-10c-2.446,0-4.479-1.768-4.908-4.092-2.324-.429-4.092-2.462-4.092-4.908V5C0,2.243,2.243,0,5,0h10c2.446,0,4.479,1.768,4.908,4.092,2.324.429,4.092,2.462,4.092,4.908ZM5,18h10c1.654,0,3-1.346,3-3V5c0-1.654-1.346-3-3-3H5c-1.654,0-3,1.346-3,3v10c0,1.654,1.346,3,3,3Zm17-9c0-1.302-.839-2.402-2-2.816v8.816c0,2.757-2.243,5-5,5H6.184c.414,1.161,1.514,2,2.816,2h10c1.654,0,3-1.346,3-3v-10Z"/>
</svg>
