<?xml version="1.0" encoding="UTF-8"?>
<svg xmlns="http://www.w3.org/2000/svg" id="Layer_1" data-name="Layer 1" viewBox="0 0 24 24">
  <path d="m20,0H4C1.794,0,0,1.794,0,4v1c0,.886.387,1.684,1,2.234v11.766c0,2.757,2.243,5,5,5h3c.552,0,1-.448,1-1s-.448-1-1-1h-3c-1.654,0-3-1.346-3-3v-11h18v1c0,.552.448,1,1,1s1-.448,1-1v-1.766c.613-.55,1-1.347,1-2.234v-1c0-2.206-1.794-4-4-4ZM3,6c-.551,0-1-.449-1-1v-1c0-1.103.897-2,2-2h16c1.103,0,2,.897,2,2v1c0,.551-.449,1-1,1H3Zm14,4c-3.86,0-7,3.14-7,7s3.14,7,7,7,7-3.14,7-7-3.14-7-7-7Zm0,12c-2.757,0-5-2.243-5-5s2.243-5,5-5,5,2.243,5,5-2.243,5-5,5Zm3.221-6.212c.383.398.37,1.031-.029,1.414l-2.212,2.124c-.453.447-1.052.671-1.653.671s-1.204-.224-1.664-.674l-1.132-1.107c-.395-.387-.401-1.02-.015-1.415.388-.393,1.021-.4,1.415-.015l1.132,1.108c.144.143.378.141.522,0l2.223-2.134c.398-.383,1.031-.37,1.414.029Z"/>
</svg>
