<?xml version="1.0" encoding="UTF-8"?>
<svg xmlns="http://www.w3.org/2000/svg" id="Layer_1" data-name="Layer 1" viewBox="0 0 24 24">
  <path d="m0,10c0-.553.448-1,1-1h22c.552,0,1,.447,1,1s-.448,1-1,1H1c-.552,0-1-.447-1-1Zm4.594-2.58c.389.389.901.582,1.411.582.505,0,1.008-.19,1.387-.569l2.301-2.212c.398-.383.411-1.016.028-1.414-.382-.397-1.015-.41-1.414-.027l-1.307,1.25V1c0-.553-.448-1-1-1s-1,.447-1,1v4.036l-1.307-1.257c-.397-.383-1.03-.37-1.414.027-.383.398-.371,1.031.028,1.414l2.287,2.199Zm12,0c.389.389.901.582,1.411.582.505,0,1.008-.19,1.387-.569l2.301-2.212c.398-.383.411-1.016.028-1.414-.383-.397-1.015-.41-1.414-.027l-1.307,1.25V1c0-.553-.448-1-1-1s-1,.447-1,1v4.036l-1.307-1.257c-.397-.383-1.03-.37-1.414.027-.383.398-.371,1.031.028,1.414l2.287,2.199Zm-10.094,13.58c-.828,0-1.5.672-1.5,1.5s.672,1.5,1.5,1.5,1.5-.672,1.5-1.5-.672-1.5-1.5-1.5Zm-5-3c-.828,0-1.5.672-1.5,1.5s.672,1.5,1.5,1.5,1.5-.672,1.5-1.5-.672-1.5-1.5-1.5Zm10.5,0c-.828,0-1.5.672-1.5,1.5s.672,1.5,1.5,1.5,1.5-.672,1.5-1.5-.672-1.5-1.5-1.5Zm10.5,0c-.828,0-1.5.672-1.5,1.5s.672,1.5,1.5,1.5,1.5-.672,1.5-1.5-.672-1.5-1.5-1.5Zm-5,3c-.828,0-1.5.672-1.5,1.5s.672,1.5,1.5,1.5,1.5-.672,1.5-1.5-.672-1.5-1.5-1.5Zm6.079-6.793s-.562-.432-.806-.618c-1.027-.781-2.519-.781-3.545,0-.707.537-1.749.537-2.455,0-1.027-.781-2.519-.781-3.545,0-.707.537-1.749.537-2.455,0-1.027-.781-2.519-.781-3.545,0-.707.537-1.749.537-2.455,0-1.027-.781-2.519-.781-3.545,0-.244.186-.807.618-.807.618-.249.182-.421.462-.421.793,0,.552.448,1,1,1,.221,0,.414-.086.579-.207,0,0,.606-.419.86-.613.314-.24.807-.24,1.123,0,1.408,1.072,3.468,1.072,4.877,0,.314-.24.807-.24,1.123,0,1.408,1.072,3.468,1.072,4.877,0,.314-.24.807-.24,1.123,0,.704.536,1.547.819,2.438.819s1.734-.283,2.439-.819c.314-.239.807-.24,1.123,0,.254.193.859.613.859.613.165.121.359.207.579.207.552,0,1-.448,1-1,0-.332-.172-.612-.421-.793Z"/>
</svg>
