<?xml version="1.0" encoding="UTF-8"?>
<svg xmlns="http://www.w3.org/2000/svg" id="Layer_1" data-name="Layer 1" viewBox="0 0 24 24">
  <path d="m17,10c-3.859,0-7,3.141-7,7s3.141,7,7,7,7-3.141,7-7-3.141-7-7-7Zm0,12c-2.757,0-5-2.243-5-5s2.243-5,5-5,5,2.243,5,5-2.243,5-5,5Zm3.5-5c0,.553-.447,1-1,1h-1.5v1.5c0,.553-.447,1-1,1s-1-.447-1-1v-1.5h-1.5c-.553,0-1-.447-1-1s.447-1,1-1h1.5v-1.5c0-.553.447-1,1-1s1,.447,1,1v1.5h1.5c.553,0,1,.447,1,1Zm-11.5,5h-5c-1.103,0-2-.897-2-2s.897-2,2-2h3c.553,0,1-.447,1-1s-.447-1-1-1h-1V2h9c1.654,0,3,1.346,3,3v2c0,.553.447,1,1,1s1-.447,1-1v-2c0-2.757-2.243-5-5-5H5C2.243,0,0,2.243,0,5v15c0,2.206,1.794,4,4,4h5c.553,0,1-.447,1-1s-.447-1-1-1ZM2,5c0-1.302.839-2.402,2-2.816v13.816c-.732,0-1.409.212-2,.556V5Z"/>
</svg>
