<?xml version="1.0" encoding="UTF-8"?>
<svg xmlns="http://www.w3.org/2000/svg" id="Layer_1" data-name="Layer 1" viewBox="0 0 24 24">
  <path d="m23,18h-1.5c-.276,0-.5-.225-.5-.5V4.5c0-.553-.448-1-1-1s-1,.447-1,1v8.5h-3.08l-1.796-8.98c-.466-2.329-2.528-4.02-4.903-4.02h-4.221C2.243,0,0,2.243,0,5v15.5c0,1.93,1.57,3.5,3.5,3.5s3.5-1.57,3.5-3.5v-.5h3v.5c0,1.93,1.57,3.5,3.5,3.5s3.5-1.57,3.5-3.5v-2c0-.065-.006-.132-.02-.196l-.661-3.304h2.68v2.5c0,1.379,1.122,2.5,2.5,2.5h1.5c.552,0,1-.447,1-1s-.448-1-1-1ZM5,2h4.221c1.425,0,2.662,1.015,2.942,2.412l1.718,8.588h-3.28c-.496,0-.937-.334-1.07-.812-.362-1.288-1.55-2.188-2.889-2.188H2v-5c0-1.654,1.346-3,3-3Zm0,18.5c0,.827-.673,1.5-1.5,1.5s-1.5-.673-1.5-1.5v-.5h3v.5Zm8.5,1.5c-.827,0-1.5-.673-1.5-1.5v-.5h3v.5c0,.827-.673,1.5-1.5,1.5Zm1.38-4H2v-6h4.642c.446,0,.842.3.963.729.375,1.337,1.607,2.271,2.996,2.271h3.68l.6,3Z"/>
</svg>
