<?xml version="1.0" encoding="UTF-8"?>
<svg xmlns="http://www.w3.org/2000/svg" id="Layer_1" data-name="Layer 1" viewBox="0 0 24 24">
  <path d="m12,22h-7c-1.654,0-3-1.346-3-3V5c0-1.654,1.346-3,3-3h4.515c.163,0,.325.008.485.023v4.977c0,1.654,1.346,3,3,3h5.813c.309,0,.601-.143.79-.387s.255-.562.179-.861c-.311-1.216-.944-2.329-1.833-3.217l-3.484-3.484c-1.322-1.322-3.08-2.051-4.95-2.051h-4.515C2.243,0,0,2.243,0,5v14c0,2.757,2.243,5,5,5h7c.553,0,1-.447,1-1s-.447-1-1-1Zm0-19.341c.38.218.732.488,1.051.806l3.484,3.484c.314.314.584.668.804,1.051h-4.339c-.552,0-1-.448-1-1V2.659Zm-1,15.341c0,.553-.447,1-1,1h-5c-.553,0-1-.447-1-1s.447-1,1-1h5c.553,0,1,.447,1,1Zm0-4c0,.553-.447,1-1,1h-5c-.553,0-1-.447-1-1s.447-1,1-1h5c.553,0,1,.447,1,1Zm11.63-1.685l-3.815-1.265c-.203-.068-.426-.068-.629,0l-3.815,1.265c-.819.271-1.37,1.034-1.37,1.896v3.324c0,3.57,3.715,5.703,4.85,6.27,0,0,.306.209.651.209s.582-.156.582-.156c1.153-.464,4.917-2.292,4.917-6.322v-3.324c0-.862-.551-1.625-1.37-1.896Zm-.63,5.221c0,2.581-2.423,3.924-3.454,4.379-.914-.49-3.546-2.098-3.546-4.379v-3.322s3.5-1.16,3.5-1.16l3.5,1.158v3.324Z"/>
</svg>
