<?xml version="1.0" encoding="UTF-8"?>
<svg xmlns="http://www.w3.org/2000/svg" id="Layer_1" data-name="Layer 1" viewBox="0 0 24 24">
  <path d="m12,12c3.309,0,6-2.691,6-6S15.309,0,12,0s-6,2.691-6,6,2.691,6,6,6Zm0-10c2.206,0,4,1.794,4,4s-1.794,4-4,4-4-1.794-4-4,1.794-4,4-4Zm9.936,20.89c.061.549-.304,1.11-.996,1.11-.503,0-.936-.378-.993-.89-.448-4.053-3.865-7.11-7.947-7.11s-7.499,3.057-7.947,7.11c-.061.549-.559.947-1.104.884-.549-.061-.945-.555-.884-1.104.561-5.068,4.833-8.89,9.936-8.89s9.375,3.822,9.936,8.89Zm-4.056-.089c.11.542-.24,1.069-.781,1.179-.067.014-.134.02-.2.02-.466,0-.883-.327-.979-.801-.376-1.854-2.025-3.199-3.919-3.199s-3.543,1.345-3.919,3.199c-.11.541-.634.893-1.179.781-.541-.11-.891-.638-.781-1.179.565-2.782,3.038-4.801,5.879-4.801s5.314,2.019,5.879,4.801Z"/>
</svg>
