<?xml version="1.0" encoding="UTF-8"?>
<svg xmlns="http://www.w3.org/2000/svg" id="Layer_1" data-name="Layer 1" viewBox="0 0 24 24">
  <path d="m22.81,9.08c.807-.642,1.25-1.642,1.183-2.676-.067-1.05-.646-2.001-1.547-2.546-.772-.466-1.946-.892-3.574-1.297-.411-1.476-1.767-2.562-3.372-2.562-1.493,0-2.77.94-3.272,2.259C3.12,6.628.56,12.888.025,17.398c-.195,1.646.332,3.311,1.448,4.567,1.149,1.293,2.799,2.035,4.527,2.035h9c.552,0,1-.448,1-1s-.448-1-1-1h-2v-3c0-1.428.193-3.121.398-4.513l5.464,8.587c.369.579,1,.925,1.687.925h1.451c.552,0,1-.448,1-1s-.448-1-1-1h-1.451s-6.342-9.966-6.342-9.966c.116-.058.245-.095.383-.108,3.276-.294,6.349-1.358,8.22-2.846Zm-7.31-7.08c.827,0,1.5.673,1.5,1.5s-.673,1.5-1.5,1.5-1.5-.673-1.5-1.5.673-1.5,1.5-1.5Zm-3.783,10.367c-.143.797-.297,1.747-.426,2.745-1.189-1.297-2.897-2.112-4.791-2.112h-.5c-.552,0-1,.448-1,1s.448,1,1,1h.5c2.481,0,4.5,2.019,4.5,4.5v2.5h-5c-1.157,0-2.263-.497-3.032-1.363-.747-.841-1.087-1.908-.957-3.003.647-5.452,4.145-9.959,10.144-13.101.442,1.427,1.774,2.467,3.344,2.467,1.541,0,2.853-1.001,3.319-2.387,1.191.315,2.061.636,2.594.958.346.209.56.56.585.962.025.386-.133.744-.433.982-1.857,1.477-4.913,2.218-7.154,2.419-1.351.122-2.459,1.123-2.694,2.433Z"/>
</svg>
