<?xml version="1.0" encoding="UTF-8"?>
<svg xmlns="http://www.w3.org/2000/svg" id="Layer_1" data-name="Layer 1" viewBox="0 0 24 24">
  <path d="m11,15c0,.552-.448,1-1,1s-1-.448-1-1h0s-.268,0-.268,0c-1.068,0-2.063-.574-2.598-1.499-.276-.478-.113-1.089.365-1.366.477-.277,1.09-.114,1.366.365.178.308.511.5.867.5h2.268c.551,0,1-.448,1-1,0-.378-.271-.698-.644-.76l-3.042-.507c-1.341-.223-2.315-1.373-2.315-2.733,0-1.654,1.346-3,3-3,0-.552.448-1,1-1s1,.448,1,1h0s.268,0,.268,0c1.068,0,2.063.574,2.598,1.499.277.478.113,1.089-.364,1.366-.48.277-1.09.113-1.367-.365-.178-.308-.511-.5-.867-.5h-2.268c-.551,0-1,.448-1,1,0,.378.271.698.644.76l3.042.507c1.341.223,2.315,1.373,2.315,2.733,0,1.654-1.346,3-3,3Zm-1.89,2.951c-4.053-.448-7.11-3.866-7.11-7.951C2,5.589,5.589,2,10,2c1.249,0,2.445.28,3.555.831.497.247,1.096.044,1.341-.451.246-.494.044-1.095-.45-1.34-1.389-.69-2.884-1.04-4.445-1.04C4.486,0,0,4.486,0,10c0,5.106,3.933,9.385,9.001,9.945.503,0,.936-.378.993-.89.061-.549-.335-1.043-.884-1.104Zm14.597.223c-.391-.391-1.023-.391-1.414,0l-3.293,3.293V1c0-.552-.447-1-1-1s-1,.448-1,1v20.367l-3.293-3.293c-.391-.391-1.023-.391-1.414,0s-.391,1.023,0,1.414l3.636,3.636c.585.584,1.354.876,2.121.876s1.537-.292,2.122-.877l3.535-3.536c.391-.391.391-1.024,0-1.414Z"/>
</svg>
