<?xml version="1.0" encoding="UTF-8"?>
<svg xmlns="http://www.w3.org/2000/svg" id="Layer_1" data-name="Layer 1" viewBox="0 0 24 24">
  <path d="m14.5,12.5c0,1.381-1.119,2.5-2.5,2.5s-2.5-1.119-2.5-2.5,1.119-2.5,2.5-2.5,2.5,1.119,2.5,2.5Zm7.181-1.073l-2.604,3.721c-.374.534-.986.853-1.638.853H6.562c-.652,0-1.265-.318-1.638-.853l-2.604-3.721c-.316-.452-.94-.562-1.393-.246-.453.316-.562.94-.246,1.393l2.604,3.721c.748,1.068,1.973,1.706,3.277,1.706h1.438v5c0,.553.448,1,1,1s1-.447,1-1v-5h4v5c0,.553.448,1,1,1s1-.447,1-1v-5h1.438c1.304,0,2.529-.638,3.277-1.706l2.604-3.721c.316-.452.207-1.076-.246-1.393-.452-.315-1.075-.206-1.393.246Zm-12.681-6.427h2v.949c0,.516.623.774.988.409l1.767-1.767c.327-.327.327-.856,0-1.183l-1.767-1.767c-.365-.365-.988-.106-.988.409v.949h-2c-.552,0-1,.447-1,1s.448,1,1,1ZM.091,2.689C.375,1.427,1.412.385,2.669.095c1.092-.249,2.16-.011,3.01.666.839.67,1.32,1.668,1.32,2.739,0,1.04-.463,2.02-1.271,2.686-.463.382-.729.902-.729,1.43v.385c0,.553-.448,1-1,1h-1c-.552,0-1-.447-1-1v-.386c0-.528-.264-1.047-.723-1.424C.233,5.332-.209,4.023.091,2.689Zm2.455,1.955c.393.322.715.703.955,1.122.24-.418.562-.8.955-1.124.346-.285.544-.701.544-1.143,0-.459-.207-.888-.567-1.175-.271-.216-.586-.326-.929-.326-.126,0-.256.016-.388.046-.514.118-.956.564-1.073,1.084-.133.591.051,1.143.504,1.516Zm20.831,2.139c-.186.317-.52.493-.863.493-.172,0-.347-.044-.506-.138l-.137-.081c-.387.359-.854.623-1.372.779v.163c0,.553-.448,1-1,1s-1-.447-1-1v-.163c-.517-.156-.985-.42-1.372-.779l-.137.081c-.159.094-.333.138-.506.138-.343,0-.677-.176-.863-.493-.28-.476-.121-1.089.355-1.369l.134-.079c-.066-.269-.112-.546-.112-.835s.045-.566.112-.835l-.134-.079c-.476-.28-.635-.894-.355-1.369.28-.478.893-.636,1.369-.355l.137.081c.387-.359.854-.623,1.372-.779v-.163c0-.553.448-1,1-1s1,.447,1,1v.163c.517.156.985.42,1.372.779l.137-.081c.476-.279,1.089-.122,1.369.355.28.476.121,1.089-.355,1.369l-.134.079c.066.269.112.546.112.835s-.045.566-.112.835l.134.079c.476.28.635.894.355,1.369Zm-2.377-2.283c0-.827-.673-1.5-1.5-1.5s-1.5.673-1.5,1.5.673,1.5,1.5,1.5,1.5-.673,1.5-1.5Z"/>
</svg>
