<?xml version="1.0" encoding="UTF-8"?>
<svg xmlns="http://www.w3.org/2000/svg" id="Layer_1" data-name="Layer 1" viewBox="0 0 24 24">
  <path d="m6,4.5c0,.828-.672,1.5-1.5,1.5s-1.5-.672-1.5-1.5.672-1.5,1.5-1.5,1.5.672,1.5,1.5Zm2.5-1.5c-.828,0-1.5.672-1.5,1.5s.672,1.5,1.5,1.5,1.5-.672,1.5-1.5-.672-1.5-1.5-1.5Zm15.5,2v3c0,.552-.448,1-1,1H2v8c0,1.654,1.346,3,3,3h8c.552,0,1,.448,1,1s-.448,1-1,1H5c-2.757,0-5-2.243-5-5V5C0,2.243,2.243,0,5,0h14c2.757,0,5,2.243,5,5Zm-2,0c0-1.654-1.346-3-3-3H5c-1.654,0-3,1.346-3,3v2h20v-2Zm-8,7.3v3.4c0,1.27-1.03,2.3-2.3,2.3h-1.5c-.442,0-.8-.358-.8-.8v-6.4c0-.442.358-.8.8-.8h1.5c1.27,0,2.3,1.03,2.3,2.3Zm-1.6,0c0-.386-.314-.7-.7-.7s-.7,0-.7,0v4.802s.314,0,.7,0,.7-.314.7-.7v-3.4Zm-5.055-1.107l1.221,5.947c.091.444-.248.86-.701.86h-.01c-.347,0-.644-.249-.705-.591l-.157-.883h-2.006l-.166.889c-.063.339-.359.585-.704.585-.452,0-.791-.414-.702-.857l1.2-5.976c.103-.58.628-1.167,1.385-1.167s1.226.524,1.346,1.192Zm-.729,3.808l-.638-3.295-.624,3.295h1.261Zm15.069,1.267l-3.042-.507c-.373-.062-.644-.382-.644-.76,0-.551.449-1,1-1h2.268c.356,0,.688.192.867.5.277.479.889.643,1.366.365.479-.277.642-.888.365-1.366-.535-.925-1.53-1.499-2.598-1.499h-.268v-1c0-.552-.448-1-1-1s-1,.448-1,1v1c-1.654,0-3,1.346-3,3,0,1.36.974,2.51,2.315,2.733l3.042.507c.373.062.644.382.644.76,0,.551-.449,1-1,1h-2.268c-.356,0-.688-.192-.867-.5-.276-.479-.889-.643-1.366-.365-.479.277-.642.888-.365,1.366.535.925,1.53,1.499,2.598,1.499h.268v1c0,.552.448,1,1,1s1-.448,1-1v-1c1.654,0,3-1.346,3-3,0-1.36-.974-2.51-2.315-2.733Z"/>
</svg>
