<?xml version="1.0" encoding="UTF-8"?>
<svg xmlns="http://www.w3.org/2000/svg" id="Layer_1" data-name="Layer 1" viewBox="0 0 24 24">
  <path d="m8.5,12c-.828,0-1.5-.672-1.5-1.5s.672-1.5,1.5-1.5,1.5.672,1.5,1.5-.672,1.5-1.5,1.5ZM24.021,2.913c-.257,1.625-1.015,3.643-2.044,5.459.656,1.408,1.023,2.976,1.023,4.629,0,6.065-4.935,11-11,11S1,19.065,1,13c0-1.653.367-3.221,1.023-4.629C.648,5.936.196,3.758.062,2.913c-.115-.734.099-1.476.587-2.035C1.145.311,1.882-.001,2.621.013c2.252.051,4.775.287,6.554,2.356.902-.24,1.849-.368,2.825-.368s1.924.129,2.826.369C16.608.302,19.172.064,21.463.013c.757-.017,1.475.297,1.97.864.489.559.704,1.301.589,2.036Zm-21.983-.312c.186,1.176.615,2.511,1.199,3.758,1.025-1.349,2.353-2.454,3.882-3.215-1.074-.869-2.508-1.086-4.543-1.133-.274.01-.359.112-.421.182-.058.065-.148.206-.117.407Zm18.962,10.399c0-4.962-4.037-9-9-9S3,8.038,3,13s4.037,9,9,9,9-4.038,9-9Zm.928-10.807c-.06-.068-.191-.182-.406-.182h-.014c-2.03.046-3.524.269-4.619,1.136,1.53.762,2.858,1.87,3.882,3.221.73-1.504,1.134-2.876,1.275-3.768.031-.202-.061-.342-.118-.408Zm-5.928,13.307c0,1.93-1.794,3.5-4,3.5s-4-1.57-4-3.5,1.794-3.5,4-3.5,4,1.57,4,3.5Zm-2,0c0-.813-.916-1.5-2-1.5s-2,.687-2,1.5.916,1.5,2,1.5,2-.687,2-1.5Zm1.5-6.5c-.828,0-1.5.672-1.5,1.5s.672,1.5,1.5,1.5,1.5-.672,1.5-1.5-.672-1.5-1.5-1.5Z"/>
</svg>
