<?xml version="1.0" encoding="UTF-8"?>
<svg xmlns="http://www.w3.org/2000/svg" id="Layer_1" data-name="Layer 1" viewBox="0 0 24 24">
  <path d="m22.875.997C22.15.308,21.204-.049,20.211.004L4.331.629c-2.049.103-3.704,1.656-3.938,3.708L.027,8.043c-.149,1.514.593,3.006,1.884,3.798l2.844,1.767-1.853,2.986c-.538.867-.896,1.692-.901,2.885h-.002v.295c0,1.322.826,2.488,2.091,2.871l4.386,1.329c.793.198,1.285-.836.631-1.326l-3.339-2.172-.025-.018,3.769-1.54c1.511-.618,2.487-2.071,2.487-3.703v-3.637l7.643.42c1.144.048,2.238-.359,3.069-1.153s1.288-1.865,1.288-3.015V3.619c0-1.001-.399-1.932-1.125-2.622Zm-14.119,16.07l-4.72,1.929c.068-.428.237-.819.565-1.347l1.853-2.985,3.018,1.875c-.198.22-.43.411-.716.528Zm1.244-2.556l-5.374-3.339,5.374.295v3.043Zm12-6.681c0,.599-.238,1.156-.67,1.57-.433.413-.995.624-1.587.601l-17.641-.97c-.08-.253-.11-.522-.083-.793l.364-3.69c.121-1.061.982-1.869,2.038-1.922l15.88-.625c.447-.017.873.136,1.197.444s.503.725.503,1.173v4.212Z"/>
</svg>
