<?xml version="1.0" encoding="UTF-8"?>
<svg xmlns="http://www.w3.org/2000/svg" id="Layer_1" data-name="Layer 1" viewBox="0 0 24 24">
  <path d="m21.118,13.301c1.364-.877,2.882-2.852,2.882-7.301,0-.552-.447-1-1-1s-1,.448-1,1c0,5.82-2.895,5.996-3,6h-3.892l-3.99-8.893c-.364-.768-1.143-1.193-1.989-1.092-.845.104-1.498.71-1.667,1.555l-1.591,8.43h-1.973l1.523-8.093c.483-.224.709-.791.504-1.288-.21-.511-.798-.753-1.306-.544-.597.246-1.028.774-1.156,1.422l-1.601,8.508c-.55.04-1.059.301-1.413.731-.373.453-.524,1.038-.413,1.606.168.864.492,1.665.94,2.376L.018,21.815c-.103.543.255,1.066.798,1.168.062.012.124.017.186.017.472,0,.892-.335.981-.815l.681-3.621c.54.411,1.139.745,1.781.987l-.427,2.263c-.103.543.254,1.066.797,1.168.062.012.125.018.187.018.472,0,.891-.334.981-.814l.416-2.204c.168.012.338.019.509.019h9.599l1.082,2.41c.166.371.531.591.913.591.137,0,.275-.028.408-.088.504-.226.729-.818.503-1.322l-.714-1.59h3.302c1.299,0,2-1.03,2-2,0-1.929-1.227-3.611-2.882-4.699Zm-19.11.699h3.484l-.669,3.545c-1.426-.653-2.507-1.955-2.815-3.545Zm4.898,4c-.045,0-.09,0-.134-.002l.755-3.998h2.472c.553,0,1-.448,1-1s-.447-1-1-1h-2.094l1.484-7.86,5.057,11.27c.226.503.816.728,1.321.503.504-.227.729-.818.503-1.322l-.265-.591h.995c2.251,0,5,1.846,5,4H6.907Z"/>
</svg>
