<?xml version="1.0" encoding="UTF-8"?>
<svg xmlns="http://www.w3.org/2000/svg" id="Layer_1" data-name="Layer 1" viewBox="0 0 24 24">
  <path d="m24,10.478v3.565c0,.552-.447,1-1,1s-1-.448-1-1v-3.565c0-.929-.42-1.79-1.151-2.363l-7-5.478c-1.088-.852-2.609-.852-3.697,0l-7,5.478c-.731.573-1.151,1.434-1.151,2.363v3.565c0,.552-.447,1-1,1s-1-.448-1-1v-3.565c0-1.548.699-2.983,1.919-3.938L8.919,1.062c1.814-1.419,4.348-1.42,6.162,0l7,5.478c1.22.955,1.919,2.39,1.919,3.938ZM4.696,19.346c-.56-.227-1.083-.467-1.365-.595-.098-.045-.428-.173-.433-.615-.002-.131.103-.441.515-.577.427-.138.831-.046,1.136.088.304.133.659.038.862-.224.277-.359.165-.886-.24-1.092-.549-.278-1.312-.479-2.15-.203-.796.262-1.358.95-1.469,1.794-.106.817.23,1.563.921,2.047.003,0,.838.409,1.752.779.214.086.904.409.816.958-.065.391-.491.794-1.095.794-.381,0-.752-.106-1.068-.297-.285-.172-.651-.125-.887.111-.329.328-.269.873.119,1.13.538.357,1.174.551,1.837.551,1.219,0,2.243-.852,2.434-2.026.143-.881-.224-2.034-1.683-2.625Zm7.104-1.046v3.4c0,1.269-1.031,2.3-2.3,2.3s-2.3-1.031-2.3-2.3v-3.4c0-1.269,1.031-2.3,2.3-2.3s2.3,1.031,2.3,2.3Zm-1.6,0c0-.386-.314-.7-.7-.7s-.7.314-.7.7v3.4c0,.386.314.7.7.7s.7-.314.7-.7v-3.4Zm12.399,0v3.4c0,1.27-1.03,2.3-2.3,2.3h-1.5c-.442,0-.8-.358-.8-.8v-6.401c0-.442.358-.8.8-.8h1.5c1.27,0,2.3,1.03,2.3,2.3Zm-1.6,0c0-.386-.314-.7-.7-.7s-.7,0-.7,0v4.802s.314,0,.7,0,.7-.314.7-.7v-3.4Zm-4.801,4.101h-1.599s0-5.601,0-5.601c0-.442-.358-.8-.8-.8h0c-.442,0-.8.358-.8.8v6.401c0,.442.358.8.8.8h2.401c.442,0,.8-.358.8-.8s-.359-.8-.801-.8Z"/>
</svg>
