<?xml version="1.0" encoding="UTF-8"?>
<svg xmlns="http://www.w3.org/2000/svg" id="Layer_1" data-name="Layer 1" viewBox="0 0 24 24">
  <path d="m23.928,19.75l-.975-3.054c-.168-.527-.732-.817-1.257-.649-.526.168-.816.731-.649,1.257l.437,1.366-2.484-1.512v-4.696c0-1.253-.676-2.418-1.764-3.039l-4.236-2.421v-3.026l1.311,1.248c.193.185.441.276.689.276.264,0,.527-.104.724-.311.381-.399.366-1.032-.034-1.413l-2.339-2.229c-.73-.728-1.92-.729-2.625-.023l-2.407,2.244c-.404.377-.427,1.01-.05,1.413.377.405,1.01.427,1.413.05l1.318-1.229v3l-4.236,2.421c-1.088.621-1.764,1.786-1.764,3.039v4.697l-2.483,1.51.436-1.365c.167-.525-.123-1.089-.649-1.257-.524-.167-1.089.122-1.257.649L.054,19.817c-.244,1.005.374,2.021,1.314,2.247l2.832.89c.1.031.201.046.3.046.426,0,.82-.273.954-.7.165-.527-.128-1.088-.654-1.254l-1.545-.484,2.637-1.604,4.373,2.498c.535.307,1.136.459,1.736.459s1.201-.152,1.736-.459l4.373-2.499,2.635,1.603-1.544.485c-.526.166-.819.727-.654,1.254.134.427.528.7.954.7.099,0,.2-.015.3-.046l2.769-.872c1.004-.244,1.622-1.26,1.359-2.332Zm-11.928-6.623l-3.844-2.196,3.844-2.197,3.844,2.197-3.844,2.196Zm-5,4.161v-4.715l4,2.285v4.715l-4-2.285Zm6,2.285v-4.715l4-2.285v4.715l-4,2.285Z"/>
</svg>
