<?xml version="1.0" encoding="UTF-8"?>
<svg xmlns="http://www.w3.org/2000/svg" id="Layer_1" data-name="Layer 1" viewBox="0 0 24 24">
  <path d="m6,5.5c0,.828-.672,1.5-1.5,1.5s-1.5-.672-1.5-1.5.672-1.5,1.5-1.5,1.5.672,1.5,1.5Zm2.5-1.5c-.828,0-1.5.672-1.5,1.5s.672,1.5,1.5,1.5,1.5-.672,1.5-1.5-.672-1.5-1.5-1.5Zm15.5,2v6c0,.552-.447,1-1,1s-1-.448-1-1v-2H2v8c0,.915.41,1.769,1.125,2.342.432.346.501.975.155,1.405-.197.247-.488.375-.781.375-.219,0-.439-.071-.624-.22-1.191-.954-1.875-2.377-1.875-3.902V6C0,3.243,2.243,1,5,1h14c2.757,0,5,2.243,5,5Zm-2,2v-2c0-1.654-1.346-3-3-3H5c-1.654,0-3,1.346-3,3v2h20Zm.065,7c-.342,0-.66.242-.841.64l-1.164,2.56-1.164-2.56c-.181-.398-.499-.64-.841-.64-.516,0-.945.295-.988,1l-.445,6.142c-.034.463.333.858.798.858.419,0,.768-.324.798-.742l.265-3.66.848,1.866c.284.625,1.172.625,1.457,0l.848-1.866.265,3.66c.03.418.378.742.798.742.465,0,.831-.394.798-.858l-.445-6.142c-.043-.705-.472-1-.988-1Zm-7.072,4.544c.024-.014.753,2.423.753,2.423.156.514-.228,1.033-.765,1.033h-.063c-.356,0-.669-.235-.768-.577l-.705-2.423h-.784v2.2c0,.442-.358.8-.8.8s-.8-.358-.8-.8v-5.7c0-.828.672-1.5,1.5-1.5h.867c1.284,0,2.456.908,2.614,2.182.121.976-.324,1.854-1.047,2.362Zm-.533-2.044c0-.496-.404-.9-.9-.9h-.9v1.8h.9c.496,0,.9-.404.9-.9Zm-7.079-.883c.416-.081.795.127.973.458.14.26.409.424.704.424.606,0,.993-.648.706-1.181-.433-.806-1.295-1.347-2.281-1.318-1.368.041-2.423,1.235-2.423,2.604v2.79c0,1.369,1.055,2.563,2.423,2.604.986.03,1.848-.512,2.281-1.318.286-.534-.101-1.181-.706-1.181-.295,0-.564.164-.704.424-.178.331-.557.539-.973.458-.427-.083-.721-.482-.721-.918v-2.693c0-.672.293-1.071.721-1.154Z"/>
</svg>
