<?xml version="1.0" encoding="UTF-8"?>
<svg xmlns="http://www.w3.org/2000/svg" id="Layer_1" data-name="Layer 1" viewBox="0 0 24 24">
  <path d="m19,5h-2.101c-.465-2.279-2.484-4-4.899-4h-7C2.243,1,0,3.243,0,6c0,.552.448,1,1,1s1-.448,1-1c0-1.654,1.346-3,3-3h7c1.654,0,3,1.346,3,3v11H4c-1.103,0-2-.897-2-2v-1c0-.553-.448-1-1-1s-1,.447-1,1v1c0,1.881,1.309,3.452,3.061,3.877-.038.204-.061.412-.061.623,0,1.93,1.57,3.5,3.5,3.5s3.5-1.57,3.5-3.5c0-.169-.017-.335-.041-.5h4.082c-.024.165-.041.331-.041.5,0,1.93,1.57,3.5,3.5,3.5s3.5-1.57,3.5-3.5c0-.211-.023-.419-.061-.623,1.752-.425,3.061-1.996,3.061-3.877v-5c0-2.757-2.243-5-5-5Zm3,5v1h-5v-4h2c1.654,0,3,1.346,3,3Zm-14,9.5c0,.827-.673,1.5-1.5,1.5s-1.5-.673-1.5-1.5c0-.189.039-.355.093-.5h2.815c.054.145.093.311.093.5Zm9.5,1.5c-.827,0-1.5-.673-1.5-1.5,0-.19.039-.356.093-.5h2.814c.054.144.093.31.093.5,0,.827-.673,1.5-1.5,1.5Zm2.5-4h-3v-4h5v2c0,1.103-.897,2-2,2ZM1,9h7.036l-1.768-1.768c-.391-.391-.391-1.024,0-1.414.391-.391,1.023-.391,1.414,0l2.768,2.768c.78.78.78,2.048,0,2.828l-2.768,2.768c-.195.195-.451.293-.707.293s-.512-.098-.707-.293c-.391-.391-.391-1.023,0-1.414l1.768-1.768H1c-.552,0-1-.448-1-1s.448-1,1-1Z"/>
</svg>
