<?xml version="1.0" encoding="UTF-8"?>
<svg xmlns="http://www.w3.org/2000/svg" id="Layer_1" data-name="Layer 1" viewBox="0 0 24 24">
  <path d="m17.101,9.6h.5c.496,0,.9.404.9.9s-.404.9-.9.9h-.5v-1.8Zm6.899,2.4c0,1.534-.597,2.975-1.681,4.058l-6.263,6.264c-1.082,1.082-2.522,1.678-4.057,1.678s-2.975-.596-4.057-1.677l-6.263-6.266c-1.084-1.083-1.681-2.523-1.681-4.057s.597-2.975,1.681-4.058L7.943,1.678c2.236-2.236,5.875-2.236,8.113,0l6.263,6.266c1.084,1.083,1.681,2.524,1.681,4.057Zm-6.456-4h-1.244c-.442,0-.8.358-.8.8v6.401c0,.442.358.8.8.8s.8-.358.8-.8v-2.201h.5c1.365,0,2.474-1.094,2.5-2.452.027-1.401-1.154-2.549-2.556-2.549Zm-11.094-2h11.099l-2.907-2.908c-.729-.728-1.686-1.092-2.643-1.092s-1.914.364-2.643,1.092l-2.907,2.908Zm6.85,2c-.442,0-.8.358-.8.8v6.401c0,.442.358.8.8.8s.8-.358.8-.8v-6.401c0-.442-.358-.8-.8-.8Zm-6.695,7.361l1.164-2.56,1.164,2.56c.181.398.499.64.841.64.516,0,.945-.295.988-1l.445-6.143c.034-.463-.333-.858-.798-.858-.419,0-.768.324-.798.742l-.265,3.66-.849-1.867c-.284-.625-1.172-.625-1.457,0l-.848,1.867-.265-3.66c-.03-.418-.379-.742-.798-.742-.465,0-.832.395-.798.858l.445,6.143c.043.705.472,1,.988,1,.342,0,.66-.242.841-.64Zm10.943,2.641H6.452l2.905,2.906c1.408,1.408,3.877,1.409,5.285,0l2.905-2.906Z"/>
</svg>
