<?xml version="1.0" encoding="UTF-8"?>
<svg xmlns="http://www.w3.org/2000/svg" id="Layer_1" data-name="Layer 1" viewBox="0 0 24 24">
  <path d="m19.41,5.996l4.296-4.288c.392-.391.392-1.023.002-1.415-.391-.392-1.025-.39-1.414-.001l-4.298,4.29-1.461-1.461C14.522,1.108,11.847,0,9,0c-.553,0-1,.448-1,1s.447,1,1,1c1.876,0,3.656.602,5.136,1.699l-7.024,7.033c-2.463,2.463-4.507,5.291-6.074,8.403,0,0-.964,1.938-.981,2.019-.173.784.062,1.592.631,2.16.445.445,1.038.687,1.651.687.169,0,.339-.019.508-.056.082-.018,2.021-.982,2.021-.982,3.111-1.567,5.938-3.61,8.403-6.075l7.024-7.034c1.102,1.482,1.706,3.266,1.706,5.146,0,.552.447,1,1,1s1-.448,1-1c0-2.724-1.025-5.286-2.877-7.267-.02-.023-1.713-1.737-1.713-1.737Zm-7.556,9.478c-2.313,2.312-4.967,4.231-7.888,5.702l-1.638.824c-.111-.002-.188-.061-.229-.101-.04-.04-.098-.117-.101-.229l.824-1.636c1.471-2.921,3.39-5.576,5.702-7.889l7.098-7.107,3.328,3.327-7.098,7.108Z"/>
</svg>
