<?xml version="1.0" encoding="UTF-8"?>
<svg xmlns="http://www.w3.org/2000/svg" id="Layer_1" data-name="Layer 1" viewBox="0 0 24 24">
  <path d="m22,5.735v-3.735c0-.553-.447-1-1-1s-1,.447-1,1v2.367L14.797.855c-1.699-1.146-3.895-1.146-5.594,0L2.204,5.579c-1.38.931-2.204,2.479-2.204,4.145v9.276c0,2.757,2.243,5,5,5h14c2.757,0,5-2.243,5-5v-9.276c0-1.579-.748-3.047-2-3.989Zm0,13.265c0,1.654-1.346,3-3,3H5c-1.654,0-3-1.346-3-3v-9.276c0-.999.494-1.928,1.322-2.486l7-4.724c.51-.345,1.094-.517,1.678-.517s1.168.172,1.678.517l7.001,4.724c.827.558,1.321,1.487,1.321,2.486v9.276Zm-7.788-10.077c-.906,0-1.684.284-2.25.775-.567-.491-1.344-.775-2.25-.775-1.792,0-3.25,1.56-3.25,3.476,0,2.205,2.271,4.491,4.177,6.021.383.308.853.461,1.323.461s.94-.153,1.324-.462c1.905-1.529,4.177-3.815,4.177-6.021,0-1.916-1.458-3.476-3.25-3.476Zm-2.178,7.937c-.041.033-.103.032-.144,0-2.115-1.698-3.428-3.408-3.428-4.462,0-.813.561-1.476,1.25-1.476.57,0,1.25.187,1.25,1.077,0,.553.448,1,1,1s1-.447,1-1c0-.891.68-1.077,1.25-1.077.689,0,1.25.662,1.25,1.476,0,1.054-1.313,2.764-3.428,4.461Z"/>
</svg>
