<?xml version="1.0" encoding="UTF-8"?>
<svg xmlns="http://www.w3.org/2000/svg" id="Layer_1" data-name="Layer 1" viewBox="0 0 24 24">
  <path d="m12,6H4C1.794,6,0,7.794,0,10v10c0,2.206,1.794,4,4,4h8c2.206,0,4-1.794,4-4v-10c0-2.206-1.794-4-4-4Zm2,14c0,1.103-.897,2-2,2H4c-1.103,0-2-.897-2-2v-10c0-1.103.897-2,2-2h8c1.103,0,2,.897,2,2v10Zm-4-10h-4c-1.103,0-2,.897-2,2v6c0,1.103.897,2,2,2h4c1.103,0,2-.897,2-2v-6c0-1.103-.897-2-2-2Zm-4,8v-6h4v6s-4,0-4,0Zm1-15.5v-1c0-.829.671-1.5,1.5-1.5s1.5.671,1.5,1.5v1c0,.829-.671,1.5-1.5,1.5s-1.5-.671-1.5-1.5Zm17-1v11c0,.829-.671,1.5-1.5,1.5s-1.5-.671-1.5-1.5V1.5c0-.829.671-1.5,1.5-1.5s1.5.671,1.5,1.5Zm-4-.5v12c0,.552-.448,1-1,1s-1-.448-1-1V1c0-.552.448-1,1-1s1,.448,1,1Zm-3,0v3c0,.552-.448,1-1,1s-1-.448-1-1V1c0-.552.448-1,1-1s1,.448,1,1Zm-6,2V1c0-.552.448-1,1-1s1,.448,1,1v2c0,.552-.448,1-1,1s-1-.448-1-1Z"/>
</svg>
