<?xml version="1.0" encoding="UTF-8"?>
<svg xmlns="http://www.w3.org/2000/svg" id="Layer_1" data-name="Layer 1" viewBox="0 0 24 24">
  <path d="m23.274,17.234l-3.177-3.062c-.01-.009-.023-.012-.033-.021-.015-.128-.033-.256-.062-.383-.064-.283.072-.59.343-.765.498-.322.901-.759,1.199-1.296.286-.515.436-1.105.433-1.7.003-.604-.146-1.194-.432-1.71,0,0,0,0,0,0-.299-.538-.702-.975-1.201-1.297-.269-.173-.405-.479-.34-.765.134-.592.113-1.199-.061-1.804-.329-1.148-1.246-2.065-2.396-2.396-.604-.171-1.211-.192-1.803-.058-.28.059-.592-.072-.765-.341-.322-.501-.76-.905-1.297-1.202-1.046-.579-2.345-.578-3.385,0-.538.297-.976.701-1.298,1.201-.174.27-.484.406-.766.341-.591-.132-1.196-.115-1.803.06-1.148.329-2.066,1.247-2.396,2.394-.175.607-.194,1.215-.059,1.806.064.284-.072.591-.34.764-.499.321-.904.758-1.205,1.3-.284.516-.433,1.105-.43,1.698-.003.603.146,1.193.432,1.71.298.538.702.975,1.202,1.298.269.173.405.479.341.762-.03.133-.05.266-.065.4-.002.002-.006.003-.008.005l-3.177,3.062c-.672.647-.899,1.598-.596,2.479.304.883,1.07,1.49,1.999,1.587l.743.076.081.578c.124.893.73,1.627,1.583,1.918.253.087.514.129.771.129.607,0,1.199-.234,1.649-.675l3.721-3.606c.42.17.86.282,1.309.282.455,0,.901-.114,1.326-.289l3.725,3.61c.452.442,1.045.678,1.653.678.258,0,.518-.042.771-.129.853-.291,1.459-1.025,1.583-1.919l.08-.577.744-.076c.929-.097,1.694-.704,1.998-1.587.305-.882.076-1.832-.596-2.479Zm-17.71,4.66c-.142.14-.3.112-.38.086-.08-.027-.221-.104-.248-.301l-.188-1.354c-.063-.456-.43-.81-.888-.857l-1.523-.157c-.205-.021-.284-.165-.313-.248-.028-.084-.055-.245.094-.389l2.315-2.232c.454.728,1.162,1.286,1.999,1.525.604.174,1.211.194,1.805.06.288-.058.592.074.765.341.026.04.064.07.091.109l-3.528,3.419Zm5.703-4.074c-.248-.138-.445-.318-.587-.538-.518-.801-1.397-1.271-2.307-1.271-.193,0-.388.021-.58.064-.262.062-.532.05-.812-.032-.482-.138-.885-.539-1.023-1.022-.08-.277-.09-.551-.031-.811.251-1.1-.234-2.261-1.205-2.887-.22-.143-.401-.34-.538-.586-.119-.217-.182-.47-.181-.741,0-.262.062-.516.18-.73.138-.248.318-.445.538-.586.972-.627,1.457-1.788,1.206-2.89-.059-.259-.049-.531.031-.81.139-.482.541-.885,1.023-1.022.279-.08.551-.09.811-.032,1.099.253,2.26-.233,2.888-1.206.143-.22.339-.399.587-.537.438-.242,1.007-.243,1.448,0,.246.137.442.316.584.536.628.972,1.79,1.457,2.888,1.207.261-.06.532-.048.811.03.482.139.885.541,1.023,1.024.08.278.091.551.032.81-.251,1.101.234,2.262,1.206,2.888.218.142.398.339.536.586.12.217.183.47.182.741,0,.262-.062.514-.181.729-.138.248-.319.446-.537.587-.972.627-1.457,1.788-1.207,2.887.06.261.049.533-.031.812-.139.483-.54.885-1.024,1.023-.277.08-.55.09-.809.032-1.098-.255-2.261.233-2.888,1.206-.142.219-.339.399-.586.536-.441.244-1.008.243-1.447,0Zm10.712,1.242c-.029.084-.108.228-.312.248l-1.524.157c-.458.048-.825.401-.888.858l-.188,1.354c-.027.197-.168.273-.248.301-.082.027-.238.053-.383-.089l-3.537-3.427c.024-.035.058-.061.081-.097.172-.268.476-.403.765-.34.592.132,1.201.113,1.802-.06.843-.241,1.557-.804,2.01-1.538l2.328,2.244c.148.144.122.305.094.389Zm-7.978-4.061h-3.26c-.726,0-1.363-.437-1.623-1.112-.262-.683-.079-1.441.466-1.933.227-.205.508-.434.814-.681,1.152-.933,2.731-2.21,2.59-3.48-.049-.445-.482-.794-.987-.794-.552,0-1,.448-1,1s-.447,1-1,1-1-.447-1-1c0-1.654,1.346-3,3-3,1.533,0,2.812,1.106,2.976,2.573.262,2.358-1.895,4.102-3.321,5.256-.071.059-.143.115-.211.171h2.557c.553,0,1,.447,1,1s-.447,1-1,1Z"/>
</svg>
