<?xml version="1.0" encoding="UTF-8"?>
<svg xmlns="http://www.w3.org/2000/svg" id="Layer_1" data-name="Layer 1" viewBox="0 0 24 24">
  <path d="m23.133,7.093l-2.4,2.585c-.196.212-.465.319-.732.319-.244,0-.488-.088-.681-.268-.404-.375-.428-1.008-.052-1.413l2.152-2.317H2.579l2.153,2.317c.376.405.353,1.038-.052,1.413-.192.179-.437.268-.681.268-.269,0-.535-.107-.732-.319L.842,7.067c-1.129-1.128-1.129-3.006.025-4.16L3.268.322c.376-.405,1.011-.426,1.413-.052.404.375.428,1.008.052,1.413l-2.152,2.317h18.841l-2.153-2.317c-.376-.405-.353-1.038.052-1.413.403-.377,1.035-.353,1.413.052l2.426,2.611c1.129,1.128,1.129,3.006-.025,4.16Zm-1.532,10.842c.616,1.327.516,2.856-.271,4.09-.789,1.236-2.136,1.975-3.604,1.975H6.277c-1.468,0-2.814-.738-3.603-1.975-.787-1.234-.889-2.763-.272-4.09.022-.048,5.848-8.668,5.873-8.698,1.203-1.392,2.054-2.237,3.725-2.237,1.435,0,2.671.755,3.781,2.31,0,0,5.797,8.578,5.819,8.625Zm-7.124,4.064l-1.974-3.644c-.154-.327-.401-.356-.502-.356s-.348.029-.475.302l-2.001,3.698h4.952Zm5.339-3.154l-5.677-8.395c-.918-1.284-1.626-1.451-2.14-1.451-.692,0-1.026.178-2.173,1.5l-5.641,8.345c-.299.697-.237,1.46.174,2.104.426.667,1.125,1.05,1.917,1.05h.974l2.49-4.597c.391-.845,1.268-1.403,2.26-1.403s1.869.559,2.287,1.458l2.463,4.542h.974c.793,0,1.491-.383,1.917-1.05.411-.645.473-1.407.174-2.104Z"/>
</svg>
