<?xml version="1.0" encoding="UTF-8"?>
<svg xmlns="http://www.w3.org/2000/svg" id="Layer_1" data-name="Layer 1" viewBox="0 0 24 24">
  <path d="m24,5v10c0,1.632-.786,3.084-2,3.997v2.003c0,.552-.448,1-1,1s-1-.448-1-1v-1.101c-.323.066-.658.101-1,.101h-4c-.552,0-1-.448-1-1s.448-1,1-1h4c1.654,0,3-1.346,3-3h-1c-.552,0-1-.448-1-1s.448-1,1-1h1v-6h-1c-.552,0-1-.448-1-1s.448-1,1-1h1c0-1.654-1.346-3-3-3H5c-1.654,0-3,1.346-3,3v2c0,.552-.448,1-1,1s-1-.448-1-1v-2C0,2.243,2.243,0,5,0h14c2.757,0,5,2.243,5,5Zm-12,7.5v8c0,1.995-2.58,3.5-6,3.5s-6-1.505-6-3.5v-8c0-1.995,2.58-3.5,6-3.5s6,1.505,6,3.5Zm-2,2.652c-1.046.533-2.435.848-4,.848s-2.954-.315-4-.848v1.348c0,.529,1.519,1.5,4,1.5s4-.971,4-1.5v-1.348Zm-8-2.652c0,.529,1.519,1.5,4,1.5s4-.971,4-1.5-1.519-1.5-4-1.5-4,.971-4,1.5Zm8,8v-1.348c-1.046.533-2.435.848-4,.848s-2.954-.315-4-.848v1.348c0,.529,1.519,1.5,4,1.5s4-.971,4-1.5Zm4.399-6.701c.18.135.391.201.6.201.304,0,.604-.138.8-.399.786-1.045,1.201-2.29,1.201-3.601,0-3.309-2.691-6-6-6-1.311,0-2.556.415-3.601,1.201-.441.332-.531.958-.199,1.4.332.442.958.531,1.4.199.696-.523,1.526-.799,2.4-.799,2.206,0,4,1.794,4,4,0,.874-.276,1.704-.799,2.399-.332.441-.243,1.068.199,1.4Z"/>
</svg>
