<?xml version="1.0" encoding="UTF-8"?>
<svg xmlns="http://www.w3.org/2000/svg" id="Layer_1" data-name="Layer 1" viewBox="0 0 24 24">
  <path d="m15.104,5.311c.585-.585.585-1.536,0-2.121l-2.043-2.043c-.585-.585-1.536-.585-2.121,0l-2.043,2.043c-.585.585-.585,1.536,0,2.121,0,0,2.083,2.082,2.104,2.1v1.985c-1.444.431-2.5,1.772-2.5,3.354s1.056,2.923,2.5,3.354v1.896c-1.103,0-2,.897-2,2v2c0,1.103.897,2,2,2h2c1.103,0,2-.897,2-2v-2c0-1.103-.897-2-2-2v-1.896c1.444-.431,2.5-1.772,2.5-3.354s-1.056-2.923-2.5-3.354v-1.985c.021-.018,2.104-2.1,2.104-2.1Zm-2.104,16.689h-2v-2h2v2Zm-2.336-17.75l1.336-1.336,1.336,1.336-1.336,1.336-1.336-1.336Zm2.836,8.5c0,.827-.673,1.5-1.5,1.5s-1.5-.673-1.5-1.5.673-1.5,1.5-1.5,1.5.673,1.5,1.5Zm10.5-6.25v3c0,1.93-1.57,3.5-3.5,3.5h-1.5l.793.793c.391.391.391,1.023,0,1.414-.195.195-.451.293-.707.293s-.512-.098-.707-.293l-1.793-1.793c-.78-.78-.78-2.048,0-2.828l1.793-1.793c.391-.391,1.023-.391,1.414,0s.391,1.023,0,1.414l-.793.793h1.5c.827,0,1.5-.673,1.5-1.5v-3c0-.827-.673-1.5-1.5-1.5h-2.5c-.552,0-1-.448-1-1s.448-1,1-1h2.5c1.93,0,3.5,1.57,3.5,3.5ZM7.414,18.586c.78.779.78,2.049,0,2.828l-1.793,1.793c-.195.195-.451.293-.707.293s-.512-.098-.707-.293c-.391-.391-.391-1.023,0-1.414l.793-.793h-1.5c-1.93,0-3.5-1.57-3.5-3.5v-3c0-1.93,1.57-3.5,3.5-3.5h2.5c.552,0,1,.448,1,1s-.448,1-1,1h-2.5c-.827,0-1.5.673-1.5,1.5v3c0,.827.673,1.5,1.5,1.5h1.5l-.793-.793c-.391-.391-.391-1.023,0-1.414s1.023-.391,1.414,0l1.793,1.793Z"/>
</svg>
