<?xml version="1.0" encoding="UTF-8"?>
<svg xmlns="http://www.w3.org/2000/svg" id="Layer_1" data-name="Layer 1" viewBox="0 0 24 24">
  <path d="m24,20.5s0,0,0,.001c0,0,0,.002,0,.003,0,1.381-1.119,2.5-2.5,2.5s-2.5-1.119-2.5-2.5,1.119-2.5,2.5-2.5c.171,0,.338.018.5.05v-3.917c0-.294-.123-.562-.345-.755-.223-.193-.504-.275-.797-.235l-2.57.367c-.734.105-1.288.744-1.288,1.485v6.504h0c0,1.381-1.119,2.5-2.5,2.5s-2.5-1.119-2.5-2.5,1.119-2.5,2.5-2.5c.171,0,.338.018.5.05v-4.054c0-1.73,1.292-3.22,3.005-3.465l2.571-.367c.861-.125,1.732.133,2.39.704.657.57,1.034,1.396,1.034,2.266v6.362ZM2,6C2,2.691,4.691,0,8,0s6,2.691,6,6-2.691,6-6,6-6-2.691-6-6Zm2,0c0,2.206,1.794,4,4,4s4-1.794,4-4-1.794-4-4-4-4,1.794-4,4Zm8.927,9.957c.208-.512-.04-1.095-.551-1.302-1.073-.435-2.209-.655-3.375-.655C4.038,14,0,18.038,0,23c0,.552.448,1,1,1s1-.448,1-1c0-3.86,3.14-7,7-7,.908,0,1.792.171,2.625.508.512.207,1.095-.04,1.302-.551Z"/>
</svg>
