<?xml version="1.0" encoding="UTF-8"?>
<svg xmlns="http://www.w3.org/2000/svg" id="Layer_1" data-name="Layer 1" viewBox="0 0 24 24">
  <path d="m24,15.8v6.4c0,.442-.358.8-.8.8s-.8-.358-.8-.8v-1.2h-1.4c-1.105,0-2-.895-2-2v-3.2c0-.442.358-.8.8-.8s.8.358.8.8v3.4c0,.111.09.2.2.2h1.601v-3.601c0-.442.358-.8.8-.8s.8.358.8.8Zm-12.8-.8c-.442,0-.8.358-.8.8v3.601h-1.601c-.111,0-.2-.09-.2-.2v-3.4c0-.442-.358-.8-.8-.8s-.8.358-.8.8v3.2c0,1.105.895,2,2,2h1.4v1.2c0,.442.358.8.8.8s.8-.358.8-.8v-6.4c0-.442-.358-.8-.8-.8Zm6.8,2.5v3c0,1.378-1.122,2.5-2.5,2.5s-2.5-1.122-2.5-2.5v-3c0-1.378,1.122-2.5,2.5-2.5s2.5,1.122,2.5,2.5Zm-1.6,0c0-.496-.404-.9-.9-.9s-.9.404-.9.9v3c0,.496.404.9.9.9s.9-.404.9-.9v-3ZM4.5,4c-.828,0-1.5.672-1.5,1.5s.672,1.5,1.5,1.5,1.5-.672,1.5-1.5-.672-1.5-1.5-1.5Zm4,0c-.828,0-1.5.672-1.5,1.5s.672,1.5,1.5,1.5,1.5-.672,1.5-1.5-.672-1.5-1.5-1.5Zm15.5,2v6c0,.552-.448,1-1,1s-1-.448-1-1v-2H2v8c0,1.654,1.346,3,3,3,.552,0,1,.448,1,1s-.448,1-1,1c-2.757,0-5-2.243-5-5V6C0,3.243,2.243,1,5,1h14c2.757,0,5,2.243,5,5Zm-2,2v-2c0-1.654-1.346-3-3-3H5c-1.654,0-3,1.346-3,3v2h20Z"/>
</svg>
