<?xml version="1.0" encoding="UTF-8"?>
<svg xmlns="http://www.w3.org/2000/svg" id="Layer_1" data-name="Layer 1" viewBox="0 0 24 24">
  <path d="m13.932,8.778c.268.147.564.22.859.22.335,0,.671-.094.964-.281.033-.021,2.106-1.713,2.106-1.713l1.641-.002c1.377-.002,2.497-1.123,2.497-2.5v-2.002c0-.669-.26-1.297-.733-1.77-.472-.471-1.099-.73-1.765-.73h-.003l-4,.002c-1.378.002-2.499,1.124-2.498,2.501l.002,4.706c0,.654.356,1.256.93,1.569Zm1.567-6.776l4-.002h0c.179,0,.298.092.353.146.055.056.146.174.146.354v2.002c0,.275-.224.5-.5.5l-1.997.003c-.23,0-.453.08-.631.226l-1.87,1.528-.002-4.257c0-.275.224-.5.5-.5ZM4.497,7.002l1.642.002s2.074,1.691,2.106,1.713c.293.188.628.281.964.281.295,0,.591-.072.859-.22.574-.313.93-.915.93-1.569l.002-4.705C11.001,1.126,9.88.004,8.501.002l-4-.002h-.003c-.667,0-1.294.26-1.766.73-.473.473-.733,1.101-.733,1.77v2.002c0,1.377,1.12,2.498,2.497,2.5Zm-.497-4.502c0-.181.092-.299.146-.354.055-.054.173-.146.354-.146h0l4,.002c.276,0,.5.225.5.501l-.002,4.256-1.87-1.528c-.178-.146-.401-.226-.631-.226l-1.998-.003c-.275,0-.499-.225-.499-.5v-2.002Zm20,16.5c0,.553-.448,1-1,1h-4.531l-4.066,3.173c-.684.533-1.537.827-2.403.827s-1.72-.294-2.403-.827l-4.066-3.173H1c-.552,0-1-.447-1-1s.448-1,1-1h4.875c.223,0,.439.074.615.212l4.337,3.385c.667.52,1.679.52,2.346,0l3.118-2.433-4.027-3.589-1.604,1.493c-.299.303-.749.479-1.215.433-.462-.036-.883-.274-1.156-.652-.451-.63-.372-1.492.188-2.054l2.07-1.909-.546-.497c-.274-.25-.63-.388-1.001-.388-.254,0-.828.139-1.746.527-.744.313-1.516.473-2.295.473H1c-.552,0-1-.447-1-1s.448-1,1-1h3.958c.511,0,1.022-.105,1.517-.314,1.089-.461,1.907-.686,2.501-.686.894,0,1.728.323,2.372.909l.675.615.633-.583c.643-.604,1.491-.94,2.382-.94.216,0,.873,0,2.49.686.492.209,1.001.314,1.511.314h3.961c.552,0,1,.447,1,1s-.448,1-1,1h-3.961c-.78,0-1.551-.159-2.292-.473-1.183-.502-1.632-.527-1.709-.527-.38,0-.742.144-1.02.404l-1.133,1.045c.01.009.02.018.03.026l5.076,4.524h5.009c.552,0,1,.447,1,1Z"/>
</svg>
