<?xml version="1.0" encoding="UTF-8"?>
<svg xmlns="http://www.w3.org/2000/svg" id="Layer_1" data-name="Layer 1" viewBox="0 0 24 24">
  <path d="m21,11h-3.176l-4.09-2.958c-.23-.167-.478-.297-.734-.39v-.798c1.444-.431,2.5-1.772,2.5-3.354,0-1.93-1.57-3.5-3.5-3.5s-3.5,1.57-3.5,3.5c0,1.582,1.056,2.923,2.5,3.354v.781c-.279.096-.547.235-.794.416h0l-4.032,2.949h-3.173c-1.654,0-3,1.346-3,3v1c0,.553.448,1,1,1s1-.447,1-1v-1c0-.552.449-1,1-1h3.173l4.033,2.949c.529.386,1.149.579,1.77.579.616,0,1.232-.189,1.759-.57l4.09-2.958h3.176c.551,0,1,.448,1,1v1c0,.553.448,1,1,1s1-.447,1-1v-1c0-1.654-1.346-3-3-3ZM10.5,3.5c0-.827.673-1.5,1.5-1.5s1.5.673,1.5,1.5-.673,1.5-1.5,1.5-1.5-.673-1.5-1.5Zm2.062,10.837c-.353.255-.826.254-1.177-.003l-3.192-2.334,3.191-2.334c.352-.256.824-.259,1.177-.003l3.231,2.337-3.231,2.337Zm11.145,4.37l-1.793,1.793,1.793,1.793c.391.391.391,1.023,0,1.414-.195.195-.451.293-.707.293s-.512-.098-.707-.293l-1.793-1.793-1.793,1.793c-.195.195-.451.293-.707.293s-.512-.098-.707-.293c-.391-.391-.391-1.023,0-1.414l1.793-1.793-1.793-1.793c-.391-.391-.391-1.023,0-1.414s1.023-.391,1.414,0l1.793,1.793,1.793-1.793c.391-.391,1.023-.391,1.414,0s.391,1.023,0,1.414Zm-15.504-.919c.393.388.397,1.021.009,1.414l-3.021,3.061c-.477.478-1.105.737-1.772.737s-1.296-.26-1.768-.732l-1.358-1.358c-.391-.391-.391-1.023,0-1.414s1.023-.391,1.414,0l1.358,1.358c.127.128.276.146.354.146.077,0,.226-.019.354-.146l3.016-3.056c.389-.393,1.021-.398,1.415-.01Z"/>
</svg>
