<?xml version="1.0" encoding="UTF-8"?>
<svg xmlns="http://www.w3.org/2000/svg" id="Layer_1" data-name="Layer 1" viewBox="0 0 24 24">
  <path d="m16.749,11c.957,0,1.861-.419,2.48-1.149.618-.73.883-1.691.726-2.635l-.75-4.5c-.262-1.573-1.61-2.715-3.206-2.715h-7.999c-1.595,0-2.943,1.142-3.206,2.715l-.75,4.5c-.157.944.107,1.905.726,2.635.619.73,1.522,1.149,2.479,1.149h3.75v11h-3c-.552,0-1,.448-1,1s.448,1,1,1h8c.553,0,1-.448,1-1s-.447-1-1-1h-3v-11h3.749Zm-10.452-2.442c-.238-.281-.34-.65-.279-1.014l.75-4.5c.101-.605.619-1.044,1.233-1.044h7.999c.614,0,1.133.439,1.233,1.044l.75,4.5c.061.363-.041.732-.279,1.014-.238.281-.586.442-.954.442H7.25c-.368,0-.715-.161-.954-.442Z"/>
</svg>
