<?xml version="1.0" encoding="UTF-8"?>
<svg xmlns="http://www.w3.org/2000/svg" id="Layer_1" data-name="Layer 1" viewBox="0 0 24 24">
  <path d="m23.018,8.785c-.595-.542-1.356-.82-2.169-.782-.804.037-1.545.386-2.085.981l-3.217,3.535c-.551-.91-1.55-1.519-2.689-1.519H4c-2.206,0-4,1.794-4,4v5c0,2.206,1.794,4,4,4h4.965c2.849,0,5.57-1.22,7.467-3.348l6.804-7.637c1.094-1.226.996-3.123-.218-4.23Zm-1.275,2.899l-6.804,7.638c-1.518,1.701-3.695,2.678-5.974,2.678h-4.965c-1.103,0-2-.897-2-2v-5c0-1.103.897-2,2-2h8.858c.629,0,1.142.513,1.142,1.143,0,.564-.421,1.051-.98,1.13l-5.161.737c-.546.078-.926.585-.848,1.132.078.548.587.928,1.131.849l5.161-.737c1.175-.168,2.129-.987,2.514-2.058l4.427-4.865c.181-.2.43-.316.699-.329.272-.008.529.082.728.262.407.372.44,1.009.072,1.421Zm-7.449-7.391c-.391-.391-.391-1.023,0-1.414l2.293-2.293c.373-.374.914-.586,1.414-.586s1.041.212,1.414.586l2.293,2.293c.391.391.391,1.023,0,1.414-.195.195-.451.293-.707.293s-.512-.098-.707-.293l-1.293-1.293v3c0,.552-.447,1-1,1s-1-.448-1-1v-3l-1.293,1.293c-.391.391-1.023.391-1.414,0Zm-7.543,4.707h3.5c1.517,0,2.75-1.31,2.75-2.919,0-1.665-1.581-3.473-3.138-4.223.164-.164.322-.342.462-.531.405-.55.032-1.326-.651-1.326h-2.347c-.646,0-1.067.73-.695,1.259.151.214.327.415.51.598-1.558.75-3.14,2.559-3.14,4.224,0,1.61,1.233,2.919,2.75,2.919Zm1.75-5.5c.745,0,2.5,1.527,2.5,2.581,0,.507-.336.919-.75.919h-3.5c-.414,0-.75-.413-.75-.919,0-1.054,1.755-2.581,2.5-2.581Z"/>
</svg>
