<?xml version="1.0" encoding="UTF-8"?>
<svg xmlns="http://www.w3.org/2000/svg" id="Layer_1" data-name="Layer 1" viewBox="0 0 24 24">
  <path d="m20.975,10.778c-.062-.947-.548-1.819-1.326-2.306-1.033-.645-1.649-1.756-1.649-2.972V1c0-.552-.447-1-1-1s-1,.448-1,1v3c0,2.206-1.794,4-4,4s-4-1.794-4-4V1c0-.552-.447-1-1-1s-1,.448-1,1v4.5c0,1.216-.616,2.327-1.65,2.972-.832.521-1.35,1.479-1.35,2.502v8.026c0,2.757,2.243,5,5,5h8c2.757,0,5-2.243,5-5,0,0-.024-8.221-.025-8.222Zm-15.975.196c0-.339.157-.648.409-.806.901-.562,1.591-1.356,2.035-2.274,1.101,1.286,2.733,2.106,4.556,2.106s3.454-.819,4.556-2.106c.444.918,1.133,1.711,2.034,2.274.141.088.247.225.318.385l-13.589,9.767c-.198-.4-.32-.844-.32-1.32v-8.026Zm11,11.026h-8c-.436,0-.847-.098-1.221-.266l12.221-8.784v6.049c0,1.654-1.346,3-3,3Z"/>
</svg>
