<?xml version="1.0" encoding="UTF-8"?>
<svg xmlns="http://www.w3.org/2000/svg" id="Layer_1" data-name="Layer 1" viewBox="0 0 24 24">
  <path d="m19,0H5C2.243,0,0,2.243,0,5v14c0,2.757,2.243,5,5,5h14c2.757,0,5-2.243,5-5V5c0-2.757-2.243-5-5-5Zm3,19c0,1.654-1.346,3-3,3H5c-1.654,0-3-1.346-3-3V5c0-1.654,1.346-3,3-3h14c1.654,0,3,1.346,3,3v14Zm-9-3c0,.552-.448,1-1,1h-1c-.552,0-1-.448-1-1s.448-1,1-1h1c.552,0,1,.448,1,1Zm0-8c0,.552-.448,1-1,1h-1c-.552,0-1-.448-1-1s.448-1,1-1h1c.552,0,1,.448,1,1Zm7,8.5c0,1.381-1.119,2.5-2.5,2.5s-2.5-1.119-2.5-2.5,1.119-2.5,2.5-2.5,2.5,1.119,2.5,2.5Zm.47-9.171c.072.197.013.419-.148.554l-1.183.964.489,1.396c.067.202,0,.424-.169.553-.169.129-.4.138-.578.023l-1.377-.897-1.354.906c-.084.056-.181.084-.278.084-.106,0-.211-.033-.3-.1-.17-.127-.241-.348-.177-.55l.47-1.413-1.189-.967c-.16-.136-.218-.357-.146-.553.072-.197.26-.328.469-.328h1.5l.531-1.49c.073-.196.26-.325.469-.325s.396.13.469.325l.531,1.49h1.5c.21,0,.398.131.47.329Zm-13.97,8.671c-.828,0-1.5-.672-1.5-1.5s.672-1.5,1.5-1.5,1.5.672,1.5,1.5-.672,1.5-1.5,1.5Zm-1.5-9.5c0-.828.672-1.5,1.5-1.5s1.5.672,1.5,1.5-.672,1.5-1.5,1.5-1.5-.672-1.5-1.5Zm3.978,4.043c.09.222-.108.457-.375.457h-4.205c-.268,0-.466-.235-.375-.457.366-.899,1.333-1.543,2.478-1.543s2.112.644,2.478,1.543Zm0,8c.09.222-.108.457-.375.457h-4.205c-.268,0-.466-.235-.375-.457.366-.899,1.333-1.543,2.478-1.543s2.112.644,2.478,1.543Z"/>
</svg>
