<?xml version="1.0" encoding="UTF-8"?>
<svg xmlns="http://www.w3.org/2000/svg" id="Layer_1" data-name="Layer 1" viewBox="0 0 24 24">
  <path d="m18,12c3.309,0,6-2.691,6-6S21.309,0,18,0s-6,2.691-6,6,2.691,6,6,6Zm0-10c2.206,0,4,1.794,4,4s-1.794,4-4,4-4-1.794-4-4,1.794-4,4-4Zm-.707,4.707c-.188-.188-.293-.442-.293-.707v-2c0-.552.448-1,1-1s1,.448,1,1v1.586l.707.707c.391.391.391,1.023,0,1.414-.195.195-.451.293-.707.293s-.512-.098-.707-.293l-1-1Zm3.363,8.149c-1.195-1.143-3.088-1.139-4.282.006l-1.464,1.165c-3.198-1.357-5.474-3.637-6.932-6.946l1.159-1.456c.557-.579.863-1.338.863-2.145s-.304-1.559-.857-2.138c0,0-1.852-2.406-1.883-2.437-.584-.585-1.362-.907-2.188-.907s-1.604.322-2.138.859l-1.15,1.004C.633,3.012,0,4.565,0,6.238c0,7.636,10.126,17.762,17.762,17.762,1.673,0,3.227-.634,4.42-1.833l.911-1.05c1.207-1.207,1.207-3.171,0-4.378-.031-.031-2.438-1.883-2.438-1.883Zm.977,4.896l-.912,1.051c-.77.771-1.82,1.196-2.958,1.196-5.989,0-15.762-8.806-15.762-15.762,0-1.138.425-2.189,1.147-2.913l1.151-1.005c.207-.207.481-.321.774-.321.274,0,.533.1.734.283,0,0,1.842,2.394,1.873,2.424.207.207.321.482.321.774s-.114.567-.321.774c-.027.027-1.635,2.045-1.635,2.045-.224.281-.279.662-.146.995,1.713,4.267,4.681,7.232,8.822,8.812.33.124.702.068.979-.152,0,0,2.018-1.607,2.044-1.634.427-.429,1.122-.429,1.55,0,.03.03,2.423,1.872,2.423,1.872.389.43.375,1.097-.084,1.56Z"/>
</svg>
