<?xml version="1.0" encoding="UTF-8"?>
<svg xmlns="http://www.w3.org/2000/svg" id="Layer_1" data-name="Layer 1" viewBox="0 0 24 24">
  <path d="m12.5,2c0-.828.672-1.5,1.5-1.5s1.5.672,1.5,1.5-.672,1.5-1.5,1.5-1.5-.672-1.5-1.5Zm2.554,14.713c.396.497.517,1.148.321,1.745-1.451,4.427-4.71,5.548-6.771,5.548-.233,0-1.085,0-1.341,0-2.224,0-5.721-1.121-7.172-5.549-.195-.596-.075-1.248.321-1.745.4-.501,1.007-.761,1.648-.704,2.355.225,3.901,1.039,4.925,2.035l.009-2.186c-1.719-.448-2.997-2-2.997-3.857,0-1.905,1.42-3.349,2.39-4.335.841-.857,2.318-.856,3.157,0,.958.969,2.453,2.48,2.453,4.335s-1.281,3.413-3.003,3.859l-.007,1.821c1.092-.93,2.568-1.495,4.416-1.672.635-.056,1.249.204,1.649.705Zm-8.144,5.268c-.217-1.306-1.137-3.539-4.855-3.962,1.138,3.225,3.535,3.866,4.855,3.962Zm3.089-9.981c0-1.033-.899-1.942-1.692-2.744,0,0-.191-.256-.34-.256-.112,0-.243.16-.243.16-.769.781-1.725,1.754-1.725,2.84,0,1.103.897,2,2,2s2-.897,2-2Zm3.413,6.019c-1.676.19-2.899.764-3.64,1.706-.536.682-.732,1.646-.802,2.252,1.189-.111,3.328-.774,4.441-3.957Zm10.587-11.788c0,1.125-1.229,1.731-2.384,1.731h-1.616v1.654c0,1.156-.606,2.385-1.73,2.385-.979,0-1.418-1.024-1.617-2.084-.234.05-.477.084-.729.084-2.36,0-3.885-.963-3.885-2.455,0-1.723,1.779-3.545,3.461-3.545.184,0,.36.009.531.026-.019-.181-.031-.368-.031-.564,0-1.682,1.822-3.461,3.546-3.461,1.491,0,2.454,1.525,2.454,3.884,0,.251-.034.494-.084.729,1.06.199,2.084.638,2.084,1.617Zm-6.307.881c-1.051-1.024-1.557-1.112-2.193-1.112-.573,0-1.461.939-1.461,1.545.089.148.822.455,1.885.455.382,0,1.097-.379,1.129-.395,0,0,.325-.175.64-.494Zm2.307-3.227c0-1.062-.307-1.795-.471-1.89-.59.006-1.529.894-1.529,1.467,0,.635.088,1.142,1.112,2.193.317-.313.492-.635.494-.64.017-.034.395-.747.395-1.13Z"/>
</svg>
