<?xml version="1.0" encoding="UTF-8"?>
<svg xmlns="http://www.w3.org/2000/svg" id="Layer_1" data-name="Layer 1" viewBox="0 0 24 24">
  <path d="m12,0C5.383,0,0,5.383,0,12s5.383,12,12,12,12-5.383,12-12S18.617,0,12,0Zm0,22c-5.514,0-10-4.486-10-10S6.486,2,12,2s10,4.486,10,10-4.486,10-10,10Zm7-10c0,.553-.448,1-1,1h-1v1c0,.553-.448,1-1,1s-1-.447-1-1v-1h-1c-.552,0-1-.447-1-1s.448-1,1-1h1v-1c0-.553.448-1,1-1s1,.447,1,1v1h1c.552,0,1,.447,1,1Zm-7.292-4.076c.358.579.39,1.288.085,1.896l-3.931,6.687c-.186.317-.52.493-.863.493-.172,0-.347-.044-.506-.138-.476-.28-.635-.894-.355-1.369l3.833-6.518-2.972.024c-.552,0-1-.447-1-1s.448-1,1-1h3.05c.68,0,1.3.346,1.658.924Z"/>
</svg>
