<?xml version="1.0" encoding="UTF-8"?>
<svg xmlns="http://www.w3.org/2000/svg" id="Layer_1" data-name="Layer 1" viewBox="0 0 24 24">
  <path d="m17.154,15.74c1.251-.374,2.403-1.088,3.151-1.728.441-.378.694-.929.694-1.512,0-.559-.233-1.088-.642-1.464l3.382-3.382c.391-.391.391-1.023,0-1.414s-1.023-.391-1.414,0l-3.651,3.651c-.711-.377-1.515-.686-2.333-.82l7.364-7.364c.391-.391.391-1.023,0-1.414s-1.023-.391-1.414,0l-7.364,7.364c-.135-.828-.451-1.641-.833-2.358l3.645-3.645c.391-.391.391-1.023,0-1.414s-1.023-.391-1.414,0l-3.381,3.381c-.775-.809-2.223-.785-2.957.073-.64.748-1.355,1.901-1.728,3.151L1.707.293C1.316-.098.684-.098.293.293S-.098,1.316.293,1.707l22,22c.195.195.451.293.707.293s.512-.098.707-.293c.391-.391.391-1.023,0-1.414l-6.553-6.553Zm-4.716-5.592l-.438.438-1.999-1.999c0-1.198.78-2.743,1.491-3.592.727.849,1.508,2.307,1.508,3.505,0,.894-.491,1.545-.562,1.648Zm.976,1.852l.438-.438c.102-.071.754-.562,1.648-.562,1.198,0,2.656.781,3.505,1.492-.849.727-2.394,1.507-3.592,1.507l-1.999-1.999Zm-.723,5.79c-.588.191-1.106.242-1.585.189-.089-.011-.177-.009-.261.004-.751-.418-1.619-.768-2.502-.912l1.364-1.364c.391-.391.391-1.023,0-1.414s-1.023-.391-1.414,0l-1.364,1.364c-.145-.885-.495-1.754-.914-2.506.013-.083-.015-.518-.015-.651,0-.36.07-.762.21-1.191.17-.525-.117-1.09-.643-1.26-.527-.17-1.09.118-1.26.643-.049.152-.092.302-.13.451-.753-.252-1.658-.068-2.19.552-.917,1.072-1.988,2.974-1.988,4.806,0,1.91.967,3.535,1.646,4.44l-1.353,1.353c-.391.391-.391,1.023,0,1.414.195.195.451.293.707.293s.512-.098.707-.293l1.353-1.353c.906.679,2.53,1.646,4.44,1.646,1.832,0,3.733-1.071,4.806-1.988.441-.378.694-.929.694-1.512,0-.236-.042-.467-.121-.683.142-.036.285-.077.43-.124.525-.17.812-.734.643-1.26-.169-.524-.73-.812-1.26-.643Zm-9.613,1.718c-.487-.702-1.078-1.801-1.078-3.008,0-1.198.781-2.656,1.492-3.505.727.849,1.508,2.307,1.508,3.505,0,.894-.491,1.545-.562,1.648l-1.36,1.36Zm4.422,2.492c-1.207,0-2.307-.592-3.008-1.078l1.36-1.36c.102-.071.754-.562,1.648-.562,1.198,0,2.656.781,3.505,1.492-.849.727-2.307,1.508-3.505,1.508Z"/>
</svg>
