<?xml version="1.0" encoding="UTF-8"?>
<svg xmlns="http://www.w3.org/2000/svg" id="Layer_1" data-name="Layer 1" viewBox="0 0 24 24">
  <path d="m10.983,22.999c-.089.482-.509.819-.982.819-.06,0-.12-.005-.182-.017C4.13,22.757,0,17.793,0,12,0,5.383,5.383,0,12,0c5.347,0,10.095,3.589,11.548,8.728.15.532-.158,1.084-.689,1.234-.526.152-1.085-.157-1.234-.689-1.211-4.282-5.169-7.272-9.624-7.272C6.486,2,2,6.486,2,12c0,4.828,3.44,8.964,8.181,9.835.543.1.902.621.803,1.164Zm-5.983-14.999v2c0,.553.447,1,1,1s1-.447,1-1v-2c0-.553-.447-1-1-1s-1,.447-1,1Zm5-1c-.553,0-1,.447-1,1v2c0,.553.447,1,1,1s1-.447,1-1v-2c0-.553-.447-1-1-1Zm3,1v2c0,.553.447,1,1,1s1-.447,1-1v-2c0-.553-.447-1-1-1s-1,.447-1,1Zm10.124,12.923c-1.147,1.899-3.101,3.044-5.158,3.044-3.453,0-5.966-2.829-5.966-5.999,0-1.201.737-3.271,1.245-4.169.312-.553.833-.848,1.378-.829.562.034,1.048.416,1.3,1.023.037.089.2.55.251.68.119-.36.227-.95.299-1.349.136-.74.288-1.58.608-2.327.298-.696.8-.903,1.073-.964.278-.061.828-.088,1.411.43,4.269,3.781,5.466,7.301,3.559,10.46Zm-4.41-8.532c-.112.41-.193.856-.273,1.293-.252,1.386-.599,3.284-2.415,3.284-.762,0-1.219-.543-1.511-1.111-.28.765-.515,1.642-.515,2.111,0,1.528.863,2.868,2.138,3.541-.265-.744-.053-1.626.535-2.214l.77-1.096c.308-.308.807-.308,1.115,0l.769,1.097c.561.562.779,1.391.567,2.112.601-.359,1.131-.878,1.517-1.518,1.311-2.17.454-4.562-2.697-7.499Z"/>
</svg>
