<?xml version="1.0" encoding="UTF-8"?>
<svg xmlns="http://www.w3.org/2000/svg" id="Layer_1" data-name="Layer 1" viewBox="0 0 24 24">
  <path d="m5.5,13h4c1.93,0,3.5-1.57,3.5-3.5v-4c0-1.93-1.57-3.5-3.5-3.5h-4c-1.93,0-3.5,1.57-3.5,3.5v4c0,1.93,1.57,3.5,3.5,3.5Zm-1.5-7.5c0-.827.673-1.5,1.5-1.5h4c.827,0,1.5.673,1.5,1.5v4c0,.827-.673,1.5-1.5,1.5h-4c-.827,0-1.5-.673-1.5-1.5v-4Zm13.5,7.5h2c1.379,0,2.5-1.122,2.5-2.5v-2c0-1.378-1.121-2.5-2.5-2.5h-2c-1.379,0-2.5,1.122-2.5,2.5v2c0,1.378,1.121,2.5,2.5,2.5Zm-.5-4.5c0-.276.225-.5.5-.5h2c.275,0,.5.224.5.5v2c0,.276-.225.5-.5.5h-2c-.275,0-.5-.224-.5-.5v-2Zm2.5,6.5H4.5c-2.481,0-4.5,2.019-4.5,4.5s2.019,4.5,4.5,4.5h15c2.481,0,4.5-2.019,4.5-4.5s-2.019-4.5-4.5-4.5Zm0,7H4.5c-1.379,0-2.5-1.122-2.5-2.5s1.121-2.5,2.5-2.5h15c1.379,0,2.5,1.122,2.5,2.5s-1.121,2.5-2.5,2.5Zm-13.5-2.5c0,.828-.672,1.5-1.5,1.5s-1.5-.672-1.5-1.5.672-1.5,1.5-1.5,1.5.672,1.5,1.5Zm15,0c0,.828-.672,1.5-1.5,1.5s-1.5-.672-1.5-1.5.672-1.5,1.5-1.5,1.5.672,1.5,1.5Zm-7.5,0c0,.828-.672,1.5-1.5,1.5s-1.5-.672-1.5-1.5.672-1.5,1.5-1.5,1.5.672,1.5,1.5Z"/>
</svg>
