<?xml version="1.0" encoding="UTF-8"?>
<svg xmlns="http://www.w3.org/2000/svg" id="Layer_1" data-name="Layer 1" viewBox="0 0 24 24">
  <path d="m20,11c0,.553-.448,1-1,1s-1-.447-1-1c0-2.757-2.243-5-5-5-.552,0-1-.447-1-1s.448-1,1-1c3.86,0,7,3.141,7,7Zm-6,0c0,.553.448,1,1,1s1-.447,1-1c0-1.654-1.346-3-3-3-.552,0-1,.447-1,1s.448,1,1,1,1,.448,1,1ZM13,0c-.552,0-1,.447-1,1s.448,1,1,1c4.962,0,9,4.037,9,9,0,.553.448,1,1,1s1-.447,1-1C24,4.935,19.065,0,13,0Zm3.246,18.351c.552.552.821,1.313.74,2.09-.083.785-.511,1.482-1.175,1.914-1.691,1.099-3.625,1.635-5.549,1.635-2.654,0-5.292-1.019-7.262-2.989C-.399,17.603-.969,12.215,1.646,8.188c.431-.663,1.128-1.092,1.913-1.174.776-.084,1.539.187,2.091.739l4.591,4.591,1.052-1.052c.391-.391,1.023-.391,1.414,0s.391,1.023,0,1.414l-1.052,1.052,4.591,4.591Zm-1.414,1.414L4.235,9.168c-.139-.139-.296-.168-.405-.168-.253,0-.406.122-.507.277-2.104,3.239-1.645,7.574,1.09,10.309,2.735,2.735,7.071,3.193,10.308,1.091.156-.101.256-.263.275-.445.011-.102.004-.299-.165-.467Z"/>
</svg>
