<?xml version="1.0" encoding="UTF-8"?>
<svg xmlns="http://www.w3.org/2000/svg" id="Layer_1" data-name="Layer 1" viewBox="0 0 24 24">
  <path d="m20.249,6.158c-.535-.139-1.081.184-1.217.719-.138.535.184,1.08.719,1.217.987.254,1.751.984,2.077,1.906H2.172c.326-.922,1.089-1.652,2.077-1.906.535-.137.857-.683.719-1.217-.137-.535-.68-.857-1.217-.719-2.208.568-3.751,2.559-3.751,4.842v8c0,2.757,2.243,5,5,5h14c2.757,0,5-2.243,5-5v-8c0-2.283-1.542-4.274-3.751-4.842Zm-10.249,11.842v-2h12v2h-12Zm-2-4H2v-2h6v2Zm2-2h12v2h-12v-2Zm-8,4h6v2H2v-2Zm.184,4h5.816v2h-3c-1.302,0-2.402-.839-2.816-2Zm16.816,2h-9v-2h11.816c-.414,1.161-1.514,2-2.816,2ZM7.003,5.986V.91c0-.358.202-.674.526-.825.3-.136.654-.114.887.052.042.03,1.363,1.787,1.363,1.787l1.271-1.506c.536-.539,1.356-.55,1.856-.055l1.318,1.557,1.146-1.577c.265-.327.662-.438,1.029-.308.367.132.604.468.604.856v5.107c0,.535-.208,1.038-.587,1.416-.378.376-.879.584-1.412.584h-.005l-6-.014c-1.101-.002-1.996-.899-1.996-2Z"/>
</svg>
