<?xml version="1.0" encoding="UTF-8"?>
<svg xmlns="http://www.w3.org/2000/svg" id="Layer_1" data-name="Layer 1" viewBox="0 0 24 24">
  <path d="m11,15.467v.03c0,.744-.792,1.22-1.449.872l-2.026-1.074c-.323-.171-.525-.507-.525-.872v-.03c0-.744.792-1.22,1.449-.872l2.026,1.074c.323.171.525.507.525.872Zm4.565-1.883l-2.026,1.034c-.33.169-.538.508-.538.879v.048c0,.737.779,1.214,1.435.879l2.026-1.034c.33-.169.538-.508.538-.879v-.048c0-.737-.779-1.214-1.435-.879Zm7.435-5.404v7.64c0,1.856-1.019,3.549-2.658,4.418l-6.001,3.18c-.732.388-1.537.583-2.341.583s-1.608-.194-2.342-.583l-5.999-3.18c-1.641-.87-2.659-2.562-2.659-4.418v-7.64c0-1.856,1.019-3.549,2.658-4.418L9.659.582c1.466-.776,3.217-.775,4.683,0l5.999,3.18s0,0,0,0c1.64.869,2.658,2.562,2.658,4.418ZM3.337,6.811l7.258,3.839c.881.466,1.931.467,2.81,0l7.259-3.839c-.275-.536-.705-.989-1.259-1.283l-5.999-3.179c-.44-.233-.923-.35-1.405-.35s-.965.117-1.404.35l-6.001,3.18c-.553.293-.983.746-1.258,1.282Zm17.663,9.008v-2.888l-.53.298c-.658.37-1.47-.106-1.47-.86,0-.357.193-.686.504-.861l1.496-.839v-1.774l-6.659,3.522c-.732.388-1.537.583-2.341.583s-1.608-.194-2.342-.583l-6.658-3.522v1.722l1.48.796c.32.172.52.506.52.869v.025c0,.746-.796,1.222-1.453.87l-.547-.293v2.936c0,1.114.611,2.129,1.596,2.651l5.999,3.179c.881.467,1.931.467,2.81,0l6.001-3.18c.983-.521,1.595-1.537,1.595-2.651Z"/>
</svg>
