<?xml version="1.0" encoding="UTF-8"?>
<svg xmlns="http://www.w3.org/2000/svg" id="Layer_1" data-name="Layer 1" viewBox="0 0 24 24">
  <path d="m17.647,2.758c-1.485-.46-3.702-.758-5.647-.758s-4.162.298-5.647.758C2.553,3.936,0,7.469,0,11.552v4.948c0,4.06,2.154,5.5,4,5.5.998,0,1.947-.424,2.604-1.064.714.659,1.665,1.064,2.646,1.064,1.029,0,2.025-.446,2.75-1.165.725.718,1.721,1.165,2.75,1.165.975,0,1.921-.4,2.634-1.054.652.638,1.601,1.054,2.616,1.054,1.934,0,4-1.445,4-5.5v-4.948c0-4.083-2.553-7.616-6.353-8.793Zm-12.361,2.712l2.238,3.562c.19.302.515.468.848.468.182,0,.366-.049.531-.153.468-.294.608-.911.314-1.379l-2.103-3.347c.659-.19,1.479-.347,2.351-.455l2.773,4.411c.19.302.515.468.848.468.182,0,.366-.049.531-.153.468-.294.608-.911.314-1.379l-2.204-3.508c.091-.001.183-.005.273-.005.792,0,1.644.058,2.46.157l3.693,5.875c.19.302.516.468.848.468.182,0,.366-.049.531-.153.468-.294.608-.911.314-1.379l-2.672-4.251c2.845.943,4.825,3.729,4.825,6.835,0,.513-.254.977-.68,1.24-.409.253-.891.276-1.321.062-.876-.435-4.041-1.854-7.999-1.854s-7.123,1.419-7.999,1.854c-.432.214-.912.19-1.321-.062-.426-.264-.68-.728-.68-1.24,0-.901.182-1.768.488-2.578l.666,1.059c.19.302.516.468.848.468.182,0,.366-.049.531-.153.468-.294.608-.911.314-1.379l-1.239-1.971c.475-.597,1.039-1.111,1.678-1.527Zm14.714,14.53c-.87,0-1.5-.597-1.5-1,0-.492-.357-.911-.844-.988-.489-.08-.955.211-1.107.679-.242.746-1.016,1.309-1.799,1.309s-1.557-.562-1.799-1.309c-.134-.412-.518-.691-.951-.691s-.817.279-.951.691c-.242.746-1.016,1.309-1.799,1.309s-1.557-.562-1.799-1.309c-.152-.468-.623-.76-1.107-.679-.486.077-.844.496-.844.988,0,.338-.679,1-1.5,1-.967,0-2-.919-2-3.5v-1.811c.443.204.917.31,1.395.31.509,0,1.02-.117,1.495-.354,1.603-.795,4.312-1.646,7.11-1.646s5.508.85,7.11,1.646c.923.459,1.971.443,2.89.017v1.837c0,2.224-.729,3.5-2,3.5Z"/>
</svg>
