<?xml version="1.0" encoding="UTF-8"?>
<svg xmlns="http://www.w3.org/2000/svg" id="Layer_1" data-name="Layer 1" viewBox="0 0 24 24">
  <path d="m22,9.184v-1.184C22,3.589,18.411,0,14,0h-4C5.589,0,2,3.589,2,8v1.184c-1.161.414-2,1.514-2,2.816v5.5c0,1.557.795,2.93,2,3.738v1.762c0,.552.448,1,1,1s1-.448,1-1v-1.051c.166.019.329.051.5.051h15c.171,0,.334-.032.5-.051v1.051c0,.552.448,1,1,1s1-.448,1-1v-1.762c1.205-.808,2-2.182,2-3.738v-5.5c0-1.302-.839-2.402-2-2.816ZM10,2h4c3.309,0,6,2.691,6,6v1.184c-1.161.414-2,1.514-2,2.816v2H6v-2c0-1.302-.839-2.402-2-2.816v-1.184c0-3.309,2.691-6,6-6Zm-6,17.95c-1.14-.232-2-1.242-2-2.45v-5.5c0-.551.449-1,1-1s1,.449,1,1v7.95Zm2,.05v-4h12v4H6Zm16-2.5c0,1.208-.86,2.217-2,2.45v-7.95c0-.551.449-1,1-1s1,.449,1,1v5.5Z"/>
</svg>
