<?xml version="1.0" encoding="UTF-8"?>
<svg xmlns="http://www.w3.org/2000/svg" id="Layer_1" data-name="Layer 1" viewBox="0 0 24 24">
  <path d="m14.707,19.707l-1.293,1.293,1.293,1.293c.391.391.391,1.023,0,1.414-.195.195-.451.293-.707.293s-.512-.098-.707-.293l-1.293-1.293-1.293,1.293c-.195.195-.451.293-.707.293s-.512-.098-.707-.293c-.391-.391-.391-1.023,0-1.414l1.293-1.293-1.293-1.293c-.391-.391-.391-1.023,0-1.414s1.023-.391,1.414,0l1.293,1.293,1.293-1.293c.391-.391,1.023-.391,1.414,0s.391,1.023,0,1.414Zm6.707,1.293l1.293-1.293c.391-.391.391-1.023,0-1.414s-1.023-.391-1.414,0l-1.293,1.293-1.293-1.293c-.391-.391-1.023-.391-1.414,0s-.391,1.023,0,1.414l1.293,1.293-1.293,1.293c-.391.391-.391,1.023,0,1.414.195.195.451.293.707.293s.512-.098.707-.293l1.293-1.293,1.293,1.293c.195.195.451.293.707.293s.512-.098.707-.293c.391-.391.391-1.023,0-1.414l-1.293-1.293Zm-14.707-2.707c-.391-.391-1.023-.391-1.414,0l-1.293,1.293-1.293-1.293c-.391-.391-1.023-.391-1.414,0s-.391,1.023,0,1.414l1.293,1.293-1.293,1.293c-.391.391-.391,1.023,0,1.414.195.195.451.293.707.293s.512-.098.707-.293l1.293-1.293,1.293,1.293c.195.195.451.293.707.293s.512-.098.707-.293c.391-.391.391-1.023,0-1.414l-1.293-1.293,1.293-1.293c.391-.391.391-1.023,0-1.414Zm11.293-7.293c0,2.206-1.794,4-4,4h-4c-2.206,0-4-1.794-4-4v-2c0-1.474.81-2.75,2-3.444v-1.556c0-2.206,1.794-4,4-4s4,1.794,4,4v1.556c1.19.694,2,1.97,2,3.444v2Zm-8-6h4v-1c0-1.103-.897-2-2-2s-2,.897-2,2v1Zm6,4c0-1.103-.897-2-2-2h-4c-1.103,0-2,.897-2,2v2c0,1.103.897,2,2,2h4c1.103,0,2-.897,2-2v-2Zm-4-.5c-.828,0-1.5.672-1.5,1.5s.672,1.5,1.5,1.5,1.5-.672,1.5-1.5-.672-1.5-1.5-1.5Z"/>
</svg>
