<?xml version="1.0" encoding="UTF-8"?>
<svg xmlns="http://www.w3.org/2000/svg" id="Layer_1" data-name="Layer 1" viewBox="0 0 24 24">
  <path d="m20.5,6h-2c-1.93,0-3.5,1.57-3.5,3.5v4c0,1.391.822,2.585,2,3.149v6.351c0,.552.448,1,1,1s1-.448,1-1v-6h1v6c0,.552.448,1,1,1s1-.448,1-1v-6.351c1.178-.564,2-1.758,2-3.149v-4c0-1.93-1.57-3.5-3.5-3.5Zm1.5,7.5c0,.827-.673,1.5-1.5,1.5h-2c-.827,0-1.5-.673-1.5-1.5v-4c0-.827.673-1.5,1.5-1.5h2c.827,0,1.5.673,1.5,1.5v4Zm-8.02-6.649c.11.541-.24,1.069-.781,1.179-.695.141-1.199.76-1.199,1.47v4c0,.477.219.914.601,1.2.251.189.399.485.399.8v6.5c0,.552-.448,1-1,1s-1-.448-1-1v-6.051c-.633-.649-1-1.532-1-2.449v-4c0-1.658,1.178-3.1,2.801-3.43.541-.113,1.069.239,1.179.781Zm-5,0c.11.541-.24,1.069-.781,1.179-.695.141-1.199.76-1.199,1.47v3c0,.477.219.914.601,1.2.251.189.399.485.399.8v5.5c0,.552-.448,1-1,1s-1-.448-1-1v-5.051c-.633-.649-1-1.532-1-2.449v-3c0-1.658,1.178-3.1,2.801-3.43.542-.113,1.069.239,1.179.781Zm-5,0c.11.541-.24,1.069-.781,1.179-.695.141-1.199.76-1.199,1.47v2c0,.477.219.914.601,1.2.251.189.399.485.399.8v4.5c0,.552-.448,1-1,1s-1-.448-1-1v-4.051c-.633-.649-1-1.532-1-2.449v-2c0-1.658,1.178-3.1,2.801-3.43.544-.113,1.069.239,1.179.781Zm13.02-4.351c0-1.381,1.119-2.5,2.5-2.5s2.5,1.119,2.5,2.5-1.119,2.5-2.5,2.5-2.5-1.119-2.5-2.5Zm-1.385,2.227c-.337.169-.712.273-1.115.273-1.381,0-2.5-1.119-2.5-2.5s1.119-2.5,2.5-2.5c.402,0,.777.104,1.114.273-.38.659-.614,1.413-.614,2.227s.234,1.568.615,2.227Zm-5,0c-.337.169-.712.273-1.115.273-1.381,0-2.5-1.119-2.5-2.5s1.119-2.5,2.5-2.5c.402,0,.777.104,1.114.273-.38.659-.614,1.413-.614,2.227s.234,1.568.615,2.227Zm-5,0c-.337.169-.712.273-1.115.273-1.381,0-2.5-1.119-2.5-2.5S3.119,0,4.5,0c.402,0,.777.104,1.114.273-.38.659-.614,1.413-.614,2.227s.234,1.568.615,2.227Z"/>
</svg>
