<?xml version="1.0" encoding="UTF-8"?>
<svg xmlns="http://www.w3.org/2000/svg" id="Layer_1" data-name="Layer 1" viewBox="0 0 24 24">
  <path d="m20.061,12.939c.586.586.586,1.536,0,2.121-.586.586-1.536.586-2.121,0-.586-.586-.586-1.536,0-2.121s1.536-.586,2.121,0Zm2.328,5.449c-1.169,1.17-2.794,1.734-4.413,1.585l-3.133,3.133c-.559.559-1.331.879-2.121.879h-1.714c-1.096,0-1.992-.893-1.997-1.99l-.009-1.988c-.002-.401.153-.779.437-1.064s.661-.442,1.063-.442h.49l.004-.512c.006-.82.679-1.488,1.5-1.488h.762v-.393c-.71-2.311.136-4.764,2.138-6.15,1.805-1.251,4.244-1.286,6.071-.093,1.419.927,2.331,2.409,2.503,4.066.173,1.656-.404,3.282-1.581,4.459Zm-.408-4.253c-.11-1.07-.682-1.993-1.607-2.597-1.154-.754-2.696-.728-3.839.062-1.307.906-1.842,2.524-1.33,4.027.036.104.054.213.054.322v1.55c0,.553-.447,1-1,1h-1.265l-.007,1.008c-.004.549-.451.992-1,.992h-.98l.006,1.485h1.711c.263,0,.52-.106.707-.293l3.487-3.487c.236-.235.575-.342.901-.273,1.151.228,2.331-.13,3.157-.957.749-.749,1.115-1.784,1.006-2.839ZM2,6C2,2.691,4.691,0,8,0s6,2.691,6,6-2.691,6-6,6-6-2.691-6-6Zm2,0c0,2.206,1.794,4,4,4s4-1.794,4-4-1.794-4-4-4-4,1.794-4,4Zm5.99,9.213c.079-.546-.301-1.053-.848-1.132-.376-.054-.761-.081-1.142-.081C3.589,14,0,17.589,0,22v1c0,.553.448,1,1,1s1-.447,1-1v-1c0-3.309,2.691-6,6-6,.287,0,.575.021.858.062.544.073,1.054-.302,1.132-.849Z"/>
</svg>
