<?xml version="1.0" encoding="UTF-8"?>
<svg xmlns="http://www.w3.org/2000/svg" id="Layer_1" data-name="Layer 1" viewBox="0 0 24 24">
  <path d="m24,5c0-2.757-2.243-5-5-5H5C2.243,0,0,2.243,0,5v10c0,.978.36,1.919,1,2.645v.355c0,1.478.805,2.771,2,3.463v.537c0,1.105.895,2,2,2s2-.895,2-2h10c0,1.105.895,2,2,2s2-.895,2-2v-.537c1.195-.693,2-1.985,2-3.463v-.355c.64-.726,1-1.667,1-2.645V5ZM3.723,14l1.993-3.488c.533-.933,1.531-1.512,2.604-1.512h7.357c1.073,0,2.071.579,2.604,1.512l1.993,3.488H3.723Zm1.277-12h14c1.654,0,3,1.346,3,3v7.985l-1.98-3.466c-.888-1.554-2.551-2.52-4.341-2.52h-7.357c-1.79,0-3.453.966-4.341,2.52l-1.98,3.466v-7.985c0-1.654,1.346-3,3-3Zm16,16c0,1.103-.897,2-2,2H5c-1.103,0-2-.897-2-2v-1.406c0-.199.013-.397.036-.594h1.964v1c0,.553.447,1,1,1s1-.447,1-1v-1h10v1c0,.553.447,1,1,1s1-.447,1-1v-1h1.964c.024.197.036.395.036.594v1.406Z"/>
</svg>
