<?xml version="1.0" encoding="UTF-8"?>
<svg xmlns="http://www.w3.org/2000/svg" id="Layer_1" data-name="Layer 1" viewBox="0 0 24 24">
  <path d="m11,0h-6c-1.654,0-3,1.346-3,3h-1c-.552,0-1,.447-1,1s.448,1,1,1h1v2h-1c-.552,0-1,.447-1,1s.448,1,1,1h1v2h-1c-.552,0-1,.447-1,1s.448,1,1,1h1v2h-1c-.552,0-1,.447-1,1s.448,1,1,1h1v2h-1c-.552,0-1,.447-1,1s.448,1,1,1h1c0,1.654,1.346,3,3,3h6c2.757,0,5-2.243,5-5V5c0-2.757-2.243-5-5-5Zm3,19c0,1.654-1.346,3-3,3h-6c-.551,0-1-.448-1-1V3c0-.552.449-1,1-1h6c1.654,0,3,1.346,3,3v14Zm-2-12c0,.553-.448,1-1,1h-4c-.552,0-1-.447-1-1s.448-1,1-1h4c.552,0,1,.447,1,1ZM21,0c-1.654,0-3,1.346-3,3v16.758c0,1.054.427,2.084,1.172,2.828l1.121,1.121c.195.195.451.293.707.293s.512-.098.707-.293l1.121-1.121c.745-.744,1.172-1.774,1.172-2.828V3c0-1.654-1.346-3-3-3Zm1,19.758c0,.526-.213,1.042-.586,1.414l-.414.414-.414-.414c-.373-.372-.586-.888-.586-1.414V3c0-.552.449-1,1-1s1,.448,1,1v16.758Z"/>
</svg>
