<?xml version="1.0" encoding="UTF-8"?>
<svg xmlns="http://www.w3.org/2000/svg" id="Layer_1" data-name="Layer 1" viewBox="0 0 24 24">
  <path d="m24,12c0,.668-.26,1.296-.732,1.768l-2.939,2.939c-.195.195-.451.293-.707.293s-.512-.098-.707-.293c-.391-.391-.391-1.023,0-1.414l2.293-2.293h-5.207c-1.654,0-3,1.346-3,3v7c0,.552-.448,1-1,1s-1-.448-1-1v-3c0-1.654-1.346-3-3-3H2.793l2.293,2.293c.391.391.391,1.023,0,1.414-.195.195-.451.293-.707.293s-.512-.098-.707-.293l-2.939-2.939c-.472-.472-.732-1.1-.732-1.768s.26-1.296.732-1.768l2.939-2.939c.391-.391,1.023-.391,1.414,0s.391,1.023,0,1.414l-2.293,2.293h5.207c1.125,0,2.164.373,3,1.003V2.793l-2.293,2.293c-.391.391-1.023.391-1.414,0s-.391-1.023,0-1.414l2.939-2.939c.404-.405,1.268-.732,1.768-.732s1.363.328,1.768.732l2.939,2.939c.391.391.391,1.023,0,1.414-.195.195-.451.293-.707.293s-.512-.098-.707-.293l-2.293-2.293v9.21c.836-.629,1.875-1.003,3-1.003h5.207l-2.293-2.293c-.391-.391-.391-1.023,0-1.414s1.023-.391,1.414,0l2.939,2.939c.473.472.732,1.1.732,1.768Z"/>
</svg>
