<?xml version="1.0" encoding="UTF-8"?>
<svg xmlns="http://www.w3.org/2000/svg" id="Layer_1" data-name="Layer 1" viewBox="0 0 24 24">
  <path d="m9.5,2.5c0-1.381,1.119-2.5,2.5-2.5s2.5,1.119,2.5,2.5-1.119,2.5-2.5,2.5-2.5-1.119-2.5-2.5Zm12.5,20.5c0,.552-.447,1-1,1s-1-.448-1-1-.448-1-1-1H5c-.552,0-1,.449-1,1s-.447,1-1,1-1-.448-1-1c0-1.654,1.346-3,3-3h4v-9c0-.552.447-1,1-1s1,.448,1,1v3h2.5c.827,0,1.5-.673,1.5-1.5v-3c0-.827-.673-1.5-1.5-1.5h-4.134c-.472,0-.931-.168-1.291-.473L2.354,2.686c-.422-.356-.475-.987-.118-1.409.357-.421.988-.476,1.409-.117l5.721,4.84h4.134c1.93,0,3.5,1.57,3.5,3.5v3c0,1.391-.822,2.585-2,3.149v4.351h4c1.654,0,3,1.346,3,3Zm-11-3h2v-4h-2v4Z"/>
</svg>
