<?xml version="1.0" encoding="UTF-8"?>
<svg xmlns="http://www.w3.org/2000/svg" id="Layer_1" data-name="Layer 1" viewBox="0 0 24 24">
  <path d="m14,1.5c0-.828.672-1.5,1.5-1.5s1.5.672,1.5,1.5-.672,1.5-1.5,1.5-1.5-.672-1.5-1.5Zm8.5,3.5c-.828,0-1.5.672-1.5,1.5s.672,1.5,1.5,1.5,1.5-.672,1.5-1.5-.672-1.5-1.5-1.5Zm.5,7.5v8c0,1.995-2.58,3.5-6,3.5-2.151,0-3.968-.596-5.022-1.534-1.217,1.01-3.353,1.534-5.478,1.534-3.23,0-6.5-1.202-6.5-3.5V4.5C0,2.202,3.27,1,6.5,1s6.5,1.202,6.5,3.5v5.353c1.047-.534,2.433-.853,4-.853,3.42,0,6,1.505,6,3.5Zm-2,2.647c-1.047.534-2.433.853-4,.853s-2.953-.319-4-.853v1.353c0,.529,1.519,1.5,4,1.5s4-.971,4-1.5v-1.353ZM11,7.091c-1.226.601-2.867.909-4.5.909s-3.274-.308-4.5-.909v1.409c0,.436,1.577,1.5,4.5,1.5s4.5-1.064,4.5-1.5v-1.409ZM2,11.091v1.409c0,.436,1.577,1.5,4.5,1.5s4.5-1.064,4.5-1.5v-1.409c-1.226.601-2.867.909-4.5.909s-3.274-.308-4.5-.909Zm0,5.409c0,.436,1.577,1.5,4.5,1.5s4.5-1.064,4.5-1.5v-1.409c-1.226.601-2.867.909-4.5.909s-3.274-.308-4.5-.909v1.409Zm11-4c0,.529,1.519,1.5,4,1.5s4-.971,4-1.5-1.519-1.5-4-1.5-4,.971-4,1.5ZM2,4.5c0,.436,1.577,1.5,4.5,1.5s4.5-1.064,4.5-1.5-1.577-1.5-4.5-1.5-4.5,1.064-4.5,1.5Zm9,16v-1.409c-1.226.601-2.867.909-4.5.909s-3.274-.308-4.5-.909v1.409c0,.436,1.577,1.5,4.5,1.5s4.5-1.064,4.5-1.5Zm10,0v-1.353c-1.047.534-2.433.853-4,.853s-2.953-.319-4-.853v1.353c0,.529,1.519,1.5,4,1.5s4-.971,4-1.5Zm-4.555-12.668c.17.114.363.168.554.168.323,0,.64-.156.833-.445l4-6c.306-.459.182-1.081-.277-1.387-.46-.308-1.081-.183-1.387.277l-4,6c-.306.459-.182,1.081.277,1.387Z"/>
</svg>
