<?xml version="1.0" encoding="UTF-8"?>
<svg xmlns="http://www.w3.org/2000/svg" id="Layer_1" data-name="Layer 1" viewBox="0 0 24 24">
  <path d="m22.896,8.593c-1.215-2.062-3.378-5.055-6.78-7.597-.89-.664-1.968-.991-3.081-.996-1.013.012-1.997.316-2.844.881-.062.042-8.547,8.984-8.547,8.984-1.061,1.119-1.645,2.584-1.645,4.127v5.007c0,2.757,2.243,5,5,5h14c2.757,0,5-2.243,5-5v-6.35c0-1.43-.381-2.833-1.104-4.057ZM2,14h20v3H2v-3ZM11.389,2.488c.504-.313,1.08-.481,1.67-.488.669-.016,1.326.199,1.86.598,3.135,2.344,5.132,5.106,6.254,7.011.431.731.699,1.547.79,2.391H2.531c.156-.272.346-.526.566-.758L11.389,2.488Zm7.611,19.512H5c-1.654,0-3-1.346-3-3h20c0,1.654-1.346,3-3,3Z"/>
</svg>
