<?xml version="1.0" encoding="UTF-8"?>
<svg xmlns="http://www.w3.org/2000/svg" id="Layer_1" data-name="Layer 1" viewBox="0 0 24 24">
  <path d="m23,6h-1.101c-.465-2.279-2.484-4-4.899-4H5v-1c0-.553-.447-1-1-1s-1,.447-1,1v1.424C1.237,3.198,0,4.955,0,7c0,1.909,1.088,3.552,2.665,4.394L.108,20.333c-.245.878-.07,1.798.48,2.524.552.727,1.391,1.143,2.302,1.143,1.29,0,2.435-.868,2.781-2.105l1.112-3.895h3.216v1c0,.553.447,1,1,1s1-.447,1-1v-4c0-.553-.447-1-1-1s-1,.447-1,1v1h-2.645l1.142-4h8.503c2.414,0,4.434-1.721,4.899-4h1.101c.553,0,1-.447,1-1s-.447-1-1-1ZM3.747,21.351c-.107.382-.459.649-.856.649-.284,0-.536-.125-.708-.351-.172-.228-.225-.504-.15-.772l2.552-8.919c.139.012.274.042.416.042h1.416l-2.669,9.351Zm13.253-11.351H5c-1.654,0-3-1.346-3-3s1.346-3,3-3h12c1.654,0,3,1.346,3,3s-1.346,3-3,3Zm-4-3c0,.553-.447,1-1,1h-7c-.553,0-1-.447-1-1s.447-1,1-1h7c.553,0,1,.447,1,1Z"/>
</svg>
