<?xml version="1.0" encoding="UTF-8"?>
<svg xmlns="http://www.w3.org/2000/svg" id="Layer_1" data-name="Layer 1" viewBox="0 0 24 24">
  <path d="m10.53,13.465c.426.349.948.522,1.47.522s1.044-.174,1.47-.523c1.61-1.319,3.53-3.301,3.53-5.246,0-1.774-1.346-3.218-3-3.218-.782,0-1.477.27-2,.727-.523-.457-1.218-.727-2-.727-1.654,0-3,1.444-3,3.218,0,1.944,1.92,3.926,3.53,5.247Zm-.53-6.465c.483,0,1,.263,1,1,0,.552.448,1,1,1s1-.448,1-1c0-.737.517-1,1-1,.551,0,1,.546,1,1.218,0,.867-1.072,2.285-2.798,3.699-.117.096-.287.096-.404,0-1.726-1.415-2.798-2.832-2.798-3.699,0-.672.449-1.218,1-1.218ZM17,0H7C4.243,0,2,2.243,2,5v15c0,2.206,1.794,4,4,4h11c2.757,0,5-2.243,5-5V5c0-2.757-2.243-5-5-5ZM7,2h10c1.654,0,3,1.346,3,3v11H6c-.732,0-1.409.212-2,.556V5c0-1.654,1.346-3,3-3Zm10,20H6c-1.103,0-2-.897-2-2s.897-2,2-2h14v1c0,1.654-1.346,3-3,3Z"/>
</svg>
