<?xml version="1.0" encoding="UTF-8"?>
<svg xmlns="http://www.w3.org/2000/svg" id="Layer_1" data-name="Layer 1" viewBox="0 0 24 24">
  <path d="m15,4.125v-.125H5c-1.654,0-3,1.346-3,3s1.346,3,3,3h18c.552,0,1,.447,1,1s-.448,1-1,1H5c-2.757,0-5-2.243-5-5S2.243,2,5,2h10v-.125c0-1.169,1.058-2.053,2.209-1.844l6.003,1.299c.46.1.789.507.789.977v1.386c0,.471-.328.878-.788.977l-5.986,1.296c-1.155.22-2.225-.665-2.225-1.841Zm8,13.875H1c-.552,0-1,.447-1,1s.448,1,1,1h22c.552,0,1-.447,1-1s-.448-1-1-1Zm0,4H1c-.552,0-1,.447-1,1s.448,1,1,1h22c.552,0,1-.447,1-1s-.448-1-1-1Zm0-8H1c-.552,0-1,.447-1,1s.448,1,1,1h22c.552,0,1-.447,1-1s-.448-1-1-1Z"/>
</svg>
