<?xml version="1.0" encoding="UTF-8"?>
<svg xmlns="http://www.w3.org/2000/svg" id="Layer_1" data-name="Layer 1" viewBox="0 0 24 24">
  <path d="m21.908,17.507l-1.908-9.606v-1.901C20,0,14.394,0,12,0S4,0,4,6v1.901l-1.924,9.686c-.269,1.599.177,3.226,1.225,4.464,1.047,1.238,2.578,1.948,4.199,1.948h8.999c1.634,0,3.172-.719,4.22-1.973,1.048-1.254,1.482-2.895,1.189-4.521ZM9,2.253v.747c0,.552.448,1,1,1s1-.448,1-1v-.977c.318-.014.647-.023,1-.023s.682.009,1,.023v.977c0,.552.448,1,1,1s1-.448,1-1v-.747c2.161.461,3,1.597,3,3.747v1H6v-1c0-2.15.839-3.286,3-3.747Zm10.184,18.491c-.667.798-1.646,1.255-2.686,1.255H7.5c-1.032,0-2.006-.452-2.672-1.24s-.95-1.823-.784-2.812l1.777-8.948h12.358l1.764,8.879c.185,1.023-.092,2.068-.759,2.866Zm-5.184-2.245c0,.828-.672,1.5-1.5,1.5s-1.5-.672-1.5-1.5.672-1.5,1.5-1.5,1.5.672,1.5,1.5Zm3-4c0,.828-.672,1.5-1.5,1.5s-1.5-.672-1.5-1.5.672-1.5,1.5-1.5,1.5.672,1.5,1.5Z"/>
</svg>
