<?xml version="1.0" encoding="UTF-8"?>
<svg xmlns="http://www.w3.org/2000/svg" id="Layer_1" data-name="Layer 1" viewBox="0 0 24 24">
  <path d="m4,14.5c0-.828.672-1.5,1.5-1.5s1.5.672,1.5,1.5-.672,1.5-1.5,1.5-1.5-.672-1.5-1.5Zm-3.118,4.032C.114,17.604-.196,16.395.029,15.215c.163-.85.309-1.45.309-1.45L2.654,2.618C2.964,1.123,4.296.038,5.822.038h6.908c.846,0,1.637.377,2.169,1.034.532.658.736,1.51.561,2.338l-1.452,5.896,1.413.408c2.734.568,4.656,2.998,4.577,5.794v.489c0,1.068-.415,2.074-1.171,2.83-.755.756-1.76,1.172-2.829,1.172H4c-1.21,0-2.347-.535-3.118-1.468Zm1.541-1.274c.391.472.965.742,1.577.742h11.998c.535,0,1.037-.208,1.415-.586s.585-.881.585-1.415v-.519c.053-1.862-1.214-3.453-3.013-3.813-.027-.006-2.32-.667-2.32-.667h-4.665c-.553,0-1-.447-1-1s.447-1,1-1h4.024l.492-2h-3.517c-.553,0-1-.447-1-1s.447-1,1-1h4.009l.502-2.037c.062-.291-.077-.522-.166-.632s-.286-.293-.614-.293h-6.908c-.582,0-1.091.415-1.209.986l-2.324,11.179c-.01.042-.145.601-.295,1.388-.113.592.043,1.199.429,1.667Zm20.577.742c-.553,0-1,.447-1,1,0,1.654-1.346,3-3,3H1c-.553,0-1,.447-1,1s.447,1,1,1h18c2.757,0,5-2.243,5-5,0-.553-.447-1-1-1Z"/>
</svg>
