<?xml version="1.0" encoding="UTF-8"?>
<svg xmlns="http://www.w3.org/2000/svg" id="Layer_1" data-name="Layer 1" viewBox="0 0 24 24">
  <path d="m12,10c-2.757,0-5,2.243-5,5s2.243,5,5,5,5-2.243,5-5-2.243-5-5-5Zm0,8c-1.654,0-3-1.346-3-3s1.346-3,3-3,3,1.346,3,3-1.346,3-3,3Zm8.646-7.04c1.88-.201,3.354-1.778,3.354-3.709,0-1.415-.564-2.76-1.593-3.789C17.835-1.11,6.163-1.109,1.593,3.462.564,4.491,0,5.836,0,7.25c0,1.932,1.475,3.509,3.354,3.71l-2.06,3.863c-.847,1.588-1.294,3.378-1.294,5.177,0,2.206,1.794,4,4,4h16c2.206,0,4-1.794,4-4,0-1.799-.447-3.589-1.294-5.177l-2.06-3.863ZM2,7.249c0-.88.356-1.723,1.007-2.373,3.867-3.865,14.121-3.865,17.986,0,.65.65,1.008,1.493,1.007,2.374,0,.965-.785,1.75-1.75,1.75h-.684l-.777-1.295c-.415-.693-1.014-1.234-1.729-1.563-1.13-.521-2.925-1.141-5.06-1.141s-3.93.621-5.059,1.141c-.717.33-1.315.87-1.73,1.563l-.777,1.295h-.684c-.965,0-1.75-.785-1.75-1.751Zm18,14.751H4c-1.103,0-2-.897-2-2,0-1.472.366-2.937,1.06-4.235l2.818-5.284,1.048-1.748c.208-.346.502-.614.853-.775.947-.437,2.449-.958,4.222-.958s3.274.521,4.223.958c.35.161.644.429.852.775l1.048,1.748,2.818,5.284c.693,1.299,1.06,2.764,1.06,4.235,0,1.103-.897,2-2,2Z"/>
</svg>
