<?xml version="1.0" encoding="UTF-8"?>
<svg xmlns="http://www.w3.org/2000/svg" id="Layer_1" data-name="Layer 1" viewBox="0 0 24 24">
  <path d="m17,10c-3.86,0-7,3.14-7,7s3.14,7,7,7,7-3.14,7-7-3.14-7-7-7Zm0,12c-2.757,0-5-2.243-5-5s2.243-5,5-5,5,2.243,5,5-2.243,5-5,5Zm1-4v2c0,.552-.448,1-1,1s-1-.448-1-1v-2c0-.552.448-1,1-1s1,.448,1,1Zm.5-3.5c0,.828-.672,1.5-1.5,1.5s-1.5-.672-1.5-1.5.672-1.5,1.5-1.5,1.5.672,1.5,1.5Zm-9.5,7.5h-5c-1.103,0-2-.897-2-2s.897-2,2-2h3c.552,0,1-.448,1-1s-.448-1-1-1h-1V2h9c1.654,0,3,1.346,3,3v2c0,.552.448,1,1,1s1-.448,1-1v-2c0-2.757-2.243-5-5-5H5C2.244,0,0,2.243,0,5v15C0,22.206,1.795,24,4,24h5c.552,0,1-.448,1-1s-.448-1-1-1ZM2,5c0-1.302.839-2.402,2-2.816v13.816c-.732,0-1.409.212-2,.556V5Z"/>
</svg>
