<?xml version="1.0" encoding="UTF-8"?>
<svg xmlns="http://www.w3.org/2000/svg" id="Layer_1" data-name="Layer 1" viewBox="0 0 24 24">
  <path d="m21.93,11.648c-.319-4.296-2.991-4.648-3.846-4.648-1.823,0-3.761,1.238-4.047,4.635-.65-.45-1.394-.646-2.119-.646-.857,0-3.537.354-3.848,4.67-1.2.393-2.069,1.522-2.069,2.851,0,1.202.725,2.804,1.407,3.7.38.502.961.789,1.593.789s1.213-.287,1.593-.788c.683-.897,1.407-2.499,1.407-3.701,0-1.278-.803-2.371-1.931-2.802.109-1.379.55-2.719,1.848-2.719,1.343,0,2.083,1.251,2.083,3.521v6.489c0,.553.447,1,1,1s1-.447,1-1v-10.478c0-2.271.74-3.522,2.083-3.522,1.291,0,1.734,1.327,1.846,2.698-1.127.432-1.929,1.525-1.929,2.802,0,1.206.736,2.819,1.429,3.725.377.493.949.775,1.571.775s1.194-.282,1.571-.775c.692-.905,1.429-2.519,1.429-3.725,0-1.33-.87-2.46-2.07-2.852Zm-12.93,9.353c-.462-.607-.999-1.828-.999-2.49,0-.552.448-1,1-1s1,.448,1,1c0,.662-.537,1.883-1.001,2.49Zm12.018-3.991c-.479-.628-1.017-1.834-1.017-2.51,0-.495.306-.978.961-.978s1.039.469,1.039.978c0,.676-.537,1.882-.983,2.51Zm-15.684-3.91c-.186-.166-.357-.343-.517-.529l-2.244,1.296c-.157.091-.329.134-.499.134-.346,0-.682-.179-.867-.5-.276-.479-.112-1.09.366-1.366l2.248-1.298c-.096-.271-.171-.552-.223-.836H1c-.553,0-1-.447-1-1s.447-1,1-1h2.589c.022-.128.05-.256.081-.384.035-.144.077-.286.124-.426l-2.242-1.275c-.48-.272-.648-.883-.375-1.363.271-.48.881-.649,1.363-.375l2.239,1.272c.195-.232.411-.449.643-.646l-1.288-2.23c-.276-.479-.112-1.09.366-1.366.477-.276,1.09-.113,1.366.366l1.29,2.234c.147-.052.298-.097.451-.135.131-.032.262-.06.393-.083V1c0-.553.447-1,1-1s1,.447,1,1v2.595c.273.051.542.121.803.212l1.282-2.255c.271-.48.881-.649,1.363-.375.48.272.648.883.375,1.363l-1.28,2.253c.219.184.424.387.615.606l2.272-1.268c.481-.274,1.091-.106,1.365.371.274.479.107,1.091-.371,1.365l-2.258,1.292c-.827.474-1.886.283-2.521-.451-.884-1.02-2.212-1.428-3.558-1.096-1.207.3-2.18,1.274-2.478,2.481-.324,1.318.07,2.633,1.056,3.515.411.368.446,1.001.078,1.412-.368.413-1.002.446-1.412.078Z"/>
</svg>
