<?xml version="1.0" encoding="UTF-8"?>
<svg xmlns="http://www.w3.org/2000/svg" id="Layer_1" data-name="Layer 1" viewBox="0 0 24 24">
  <path d="m12,12c0,1.654-1.346,3-3,3s-3-1.346-3-3v-3.981c-1.014.095-1.875.807-2.133,1.808l-.779,3.019c-.224.864-.675,1.654-1.306,2.285l-.076.076c-.195.195-.451.293-.707.293s-.512-.098-.707-.293c-.391-.391-.391-1.023,0-1.414l.076-.076c.378-.379.649-.853.783-1.372l.779-3.019c.488-1.887,2.148-3.212,4.077-3.308.036-1.941,1.355-3.626,3.241-4.113l2.894-.748c.519-.134.993-.405,1.371-.783l.082-.082c.391-.391,1.023-.391,1.414,0s.391,1.023,0,1.414l-.082.082c-.63.631-1.42,1.082-2.285,1.306l-2.894.748c-1.029.266-1.748,1.194-1.748,2.256v5.902c0,.551.449,1,1,1s1-.449,1-1v-5c0-.552.448-1,1-1s1,.448,1,1v2h5.343c.79,0,1.562-.32,2.121-.878l.829-.829c.391-.391,1.023-.391,1.414,0s.391,1.023,0,1.414l-.829.829c-.944.944-2.2,1.464-3.535,1.464h-5.343v1Zm12,6c0,3.309-2.691,6-6,6s-6-2.691-6-6,2.691-6,6-6,6,2.691,6,6Zm-2,0c0-2.206-1.794-4-4-4s-4,1.794-4,4,1.794,4,4,4,4-1.794,4-4Zm-2.692-1.722l-1.766,1.695c-.036.035-.091.035-.125,0l-.898-.879c-.395-.386-1.027-.38-1.415.016-.386.395-.379,1.027.015,1.414l.898.879c.405.396.936.594,1.466.594s1.056-.197,1.454-.59l1.756-1.686c.398-.383.412-1.016.029-1.414-.382-.4-1.015-.411-1.414-.029Zm-10.308,1.722h-.171c-.801,0-1.555.312-2.122.879l-.914.914c-.391.391-.391,1.023,0,1.414.195.195.451.293.707.293s.512-.098.707-.293l.914-.914c.189-.188.44-.293.708-.293h.171c.552,0,1-.447,1-1s-.448-1-1-1Z"/>
</svg>
