<?xml version="1.0" encoding="UTF-8"?>
<svg xmlns="http://www.w3.org/2000/svg" id="Layer_1" data-name="Layer 1" viewBox="0 0 24 24">
  <path d="m23.896,13.749l-1.402-9.48c-.359-2.434-2.486-4.269-4.946-4.269h-1.548c-.553,0-1,.448-1,1s.447,1,1,1h1.548c1.476,0,2.752,1.101,2.968,2.562l1.248,8.438h-3.764c-1.629,0-3.065.795-3.978,2.004-.008,0-.014-.004-.022-.004h-4c-.008,0-.014.004-.022.004-.913-1.21-2.349-2.004-3.978-2.004h-3.764l1.248-8.438c.216-1.46,1.492-2.562,2.968-2.562h1.548c.553,0,1-.448,1-1s-.447-1-1-1h-1.548C3.992,0,1.865,1.835,1.506,4.269L.104,13.744c-.069.453-.104.913-.104,1.368v3.888c0,2.757,2.243,5,5,5h1c2.757,0,5-2.243,5-5v-1c0-.342-.035-.677-.101-1h2.202c-.066.323-.101.658-.101,1v1c0,2.757,2.243,5,5,5h1c2.757,0,5-2.243,5-5v-3.888c0-.455-.035-.915-.104-1.363Zm-14.896,5.251c0,1.654-1.346,3-3,3h-1c-1.654,0-3-1.346-3-3,0,0,0-3.963,0-4h3.999c1.654,0,3,1.346,3,3v1Zm13,0c0,1.654-1.346,3-3,3h-1c-1.654,0-3-1.346-3-3v-1c0-1.654,1.346-3,3-3h3.999c0,.037,0,4,0,4Z"/>
</svg>
