<?xml version="1.0" encoding="UTF-8"?>
<svg xmlns="http://www.w3.org/2000/svg" id="Layer_1" data-name="Layer 1" viewBox="0 0 24 24">
  <path d="m5.807,8.411c.691.144,1.193.759,1.193,1.465v9.124c0,.552.447,1,1,1s1-.448,1-1v-8.516c0-.827.673-1.5,1.5-1.5s1.5.673,1.5,1.5v3.516c0,.552.447,1,1,1s1-.448,1-1v-3.672c0-.774.573-1.414,1.334-1.488,2.032-.199,8.666-1.099,8.666-4.339,0-3.092-6.221-4.5-12-4.5S0,1.408,0,4.5c0,1.748,2.062,3.137,5.807,3.911Zm6.193-6.411c6.598,0,10,1.752,10,2.5,0,.494-1.975,1.871-6.861,2.349-.887.087-1.664.499-2.224,1.112-.629-.602-1.477-.977-2.414-.977-.841,0-1.603.31-2.207.806-.499-.666-1.224-1.16-2.081-1.337-3.151-.652-4.212-1.614-4.212-1.953,0-.748,3.402-2.5,10-2.5Zm11.91,18.415c-1.13,2.477-6.796,3.585-11.91,3.585S1.22,22.892.09,20.415c-.229-.502-.008-1.096.495-1.325.504-.23,1.096-.008,1.325.495.462,1.013,4.225,2.415,10.09,2.415s9.628-1.402,10.09-2.415c.229-.503.821-.724,1.325-.495.503.229.724.822.495,1.325Zm0-5c-1.13,2.477-6.796,3.585-11.91,3.585-.553,0-1-.448-1-1s.447-1,1-1c5.865,0,9.628-1.402,10.09-2.415.229-.502.821-.725,1.325-.495.503.229.724.822.495,1.325Zm-18.96,1.825c-.138.422-.529.69-.95.69-.103,0-.207-.016-.311-.05-1.931-.631-3.142-1.46-3.6-2.465-.229-.503-.007-1.096.496-1.325.499-.229,1.095-.007,1.324.496.15.33.869.893,2.4,1.393.525.171.812.736.64,1.261Zm18.465-8.15c.502.229.724.822.495,1.325-.909,1.995-4.621,2.861-6.753,3.2-.054.008-.983.157-1.145-.831-.089-.545.285-1.058.83-1.145,3.677-.583,5.04-1.598,5.247-2.053.229-.502.821-.723,1.325-.496Zm-18.465,3.15c-.138.422-.529.69-.95.69-.103,0-.207-.016-.311-.05-1.931-.631-3.142-1.46-3.6-2.465-.229-.503-.007-1.096.496-1.325.499-.229,1.095-.008,1.324.496.15.33.869.893,2.4,1.393.525.171.812.736.64,1.261Z"/>
</svg>
