<?xml version="1.0" encoding="UTF-8"?>
<svg xmlns="http://www.w3.org/2000/svg" id="Layer_1" data-name="Layer 1" viewBox="0 0 24 24">
  <path d="m18.865,16.003c.278-.478.116-1.09-.361-1.367l-1.782-1.037c.17-.502.262-1.04.262-1.599s-.092-1.097-.262-1.599l2.594-1.509c.287.226.621.394.985.491l2.444.646c.086.022.172.033.256.033.443,0,.848-.296.966-.744.141-.534-.177-1.081-.711-1.223l-2.444-.646c-.185-.049-.339-.166-.435-.331-.096-.165-.122-.357-.073-.542l.646-2.444c.141-.534-.177-1.081-.711-1.223-.537-.14-1.082.177-1.223.711l-.646,2.444c-.096.365-.115.737-.061,1.099l-2.596,1.51c-.705-.789-1.655-1.354-2.73-1.574v-3.002c.335-.132.649-.333.919-.603l1.788-1.788c.391-.391.391-1.023,0-1.414s-1.023-.391-1.414,0l-1.788,1.788c-.278.277-.732.277-1.01,0l-1.788-1.788c-.391-.391-1.023-.391-1.414,0s-.391,1.023,0,1.414l1.788,1.788c.271.271.584.471.919.603v3.002c-1.075.219-2.025.784-2.73,1.574l-2.598-1.511c.054-.356.039-.729-.059-1.099l-.646-2.444c-.142-.534-.688-.852-1.223-.711-.534.142-.852.688-.711,1.223l.646,2.444c.101.381-.127.772-.508.873l-2.444.646C.177,8.237-.142,8.784,0,9.318c.119.448.523.744.966.744.084,0,.17-.011.256-.033l2.444-.646c.37-.098.701-.268.984-.491l2.595,1.51c-.17.502-.262,1.04-.262,1.599s.092,1.096.262,1.599l-1.782,1.037c-.478.277-.639.89-.361,1.367.186.319.521.497.865.497.171,0,.344-.044.502-.136l1.784-1.038c.705.789,1.655,1.354,2.73,1.574v3.002c-.335.132-.649.333-.919.603l-1.788,1.788c-.391.391-.391,1.023,0,1.414s1.023.391,1.414,0l1.788-1.788c.277-.277.731-.278,1.01,0l1.788,1.788c.195.195.451.293.707.293s.512-.098.707-.293c.391-.391.391-1.023,0-1.414l-1.788-1.788c-.27-.27-.584-.471-.919-.603v-3.002c1.075-.219,2.025-.784,2.73-1.573l1.784,1.038c.158.092.331.136.502.136.344,0,.68-.178.865-.497Zm-6.881-1.003c-1.654,0-3-1.346-3-3s1.346-3,3-3,3,1.346,3,3-1.346,3-3,3Zm10.202,2.531c-.603-.674-1.769-.674-2.371,0-.026.029-1.002,1.416-1.002,1.416-1.103,1.175-1.081,3.026.066,4.174.566.566,1.32.879,2.121.879s1.555-.312,2.121-.879h0c1.146-1.147,1.169-3,.066-4.174,0,0-.976-1.387-1.002-1.416Zm-.479,4.176h0c-.377.379-1.036.377-1.414,0-.39-.39-.39-1.024,0-1.414.041-.041.707-.981.707-.981,0,0,.666.94.707.981.39.39.39,1.024,0,1.414Zm-17.521-4.176c-.603-.674-1.769-.674-2.371,0-.026.029-1.002,1.416-1.002,1.416-1.103,1.175-1.081,3.026.066,4.174.566.566,1.32.879,2.121.879s1.555-.312,2.121-.879h0c1.146-1.147,1.169-3,.066-4.174,0,0-.976-1.387-1.002-1.416Zm-.479,4.176h0c-.377.379-1.036.377-1.414,0-.39-.39-.39-1.024,0-1.414.041-.041.707-.981.707-.981,0,0,.666.94.707.981.39.39.39,1.024,0,1.414Z"/>
</svg>
