<?xml version="1.0" encoding="UTF-8"?>
<svg xmlns="http://www.w3.org/2000/svg" id="Layer_1" data-name="Layer 1" viewBox="0 0 24 24">
  <path d="m21.84,5.653c.289-.143.492-.416.545-.734.053-.318-.051-.643-.279-.871l-2.489-2.489c-1.005-1.006-2.343-1.56-3.766-1.56s-2.76.554-3.766,1.56L2.56,11.085c-1.006,1.005-1.56,2.343-1.56,3.766s.554,2.76,1.56,3.766l3.824,3.823c1.005,1.006,2.343,1.56,3.766,1.56s2.76-.554,3.766-1.56l8.059-8.059c.221-.221.326-.531.284-.841-.042-.309-.226-.581-.496-.735-.47-.267-.762-.767-.762-1.305,0-.427.184-.835.501-1.119.327-.291.514-.703.514-1.131s-.187-.84-.513-1.13c-.318-.285-.502-.693-.502-1.12,0-.576.321-1.092.84-1.347Zm-5.774,11.807l-3.591-3.591,3.273-3.273,3.576,3.576s.01.009.015.014l-3.273,3.273Zm-5.254-11.799l3.522,3.522-3.273,3.273-3.522-3.522,3.272-3.272Zm9.007,3.589c-.429.512-.704,1.137-.79,1.8l-1.867-1.867,1.854-1.854c.067.707.348,1.378.803,1.921Zm-3.969-7.25c.889,0,1.724.346,2.352.974l1.17,1.17-3.625,3.624-3.522-3.522,1.273-1.273c.628-.628,1.464-.974,2.352-.974Zm-3.35,19.026c-1.256,1.257-3.447,1.257-4.703,0l-3.824-3.823c-.628-.628-.974-1.463-.974-2.352s.346-1.724.974-2.352l2.151-2.151,8.527,8.527-2.151,2.151Z"/>
</svg>
