<?xml version="1.0" encoding="UTF-8"?>
<svg xmlns="http://www.w3.org/2000/svg" id="Layer_1" data-name="Layer 1" viewBox="0 0 24 24">
  <path d="m20,0H4C1.794,0,0,1.794,0,4v12c0,2.206,1.794,4,4,4h2.923l3.748,3.156c.382.34.862.509,1.338.509.467,0,.931-.163,1.292-.485l3.846-3.18h2.853c2.206,0,4-1.794,4-4V4c0-2.206-1.794-4-4-4Zm2,16c0,1.103-.897,2-2,2h-3.212c-.232,0-.458.081-.637.229l-4.172,3.415-4.047-3.409c-.18-.152-.408-.235-.644-.235h-3.289c-1.103,0-2-.897-2-2V4c0-1.103.897-2,2-2h16c1.103,0,2,.897,2,2v12Zm-2-10c0,.553-.447,1-1,1h-4c-.553,0-1-.447-1-1s.447-1,1-1h4c.553,0,1,.447,1,1Zm-2,8c0,.553-.447,1-1,1h-2c-.553,0-1-.447-1-1s.447-1,1-1h2c.553,0,1,.447,1,1Zm2-4c0,.553-.447,1-1,1h-4c-.553,0-1-.447-1-1s.447-1,1-1h4c.553,0,1,.447,1,1Zm-9.915-4.337c-.227-.995-1.065-1.663-2.085-1.663s-1.858.668-2.085,1.661l-2.101,9.114c-.124.538.212,1.075.75,1.199.539.127,1.075-.211,1.199-.75l.511-2.217h3.51l.532,2.225c.11.459.52.768.972.768.077,0,.155-.009.233-.027.537-.129.869-.668.74-1.205l-2.176-9.104Zm-3.35,5.345l1.129-4.899c.01-.046.024-.108.135-.108s.125.062.138.118l1.169,4.89h-2.571Z"/>
</svg>
