<?xml version="1.0" encoding="UTF-8"?>
<svg xmlns="http://www.w3.org/2000/svg" id="Layer_1" data-name="Layer 1" viewBox="0 0 24 24">
  <path d="m21.131,1.665c-.457-.583-1.208-.811-1.922-.574-.726.241-1.205.886-1.222,1.644-.084,3.726-.436,6.361-3.857,7.072.234-.38.369-.828.369-1.308v-3.032c0-.458-.587-.646-.853-.273l-.706.989c-.29-.118-.608-.184-.94-.184s-.65.066-.94.184l-.706-.989c-.266-.372-.853-.184-.853.273v3.032c0,.479.135.927.369,1.308-3.421-.711-3.773-3.346-3.857-7.072-.017-.758-.496-1.403-1.222-1.645-.715-.238-1.466-.01-1.922.574C.813,4.296-.046,9.302,0,12.017c.02,1.125.442,4.006.46,4.128.055.373.314.683.672.803.354.119.75.028,1.02-.236.251-.248.899-.711,1.329-.711.624,0,1.522,1.712,1.909,3.243.094.373.394.659.77.736.381.076.765-.069.997-.375.323-.426.838-.604.991-.604h0c.5.003,1.013.278,1.568.84,0,0,.001.001.002.002.325,1.408.674,2.567.845,3.106.2.629.777,1.052,1.437,1.052s1.236-.423,1.437-1.054c.17-.538.52-1.697.845-3.105,0,0,.001-.001.002-.002.556-.562,1.068-.836,1.568-.84h0c.153,0,.668.179.991.604.232.306.616.454.997.375.376-.077.676-.363.77-.736.387-1.531,1.285-3.243,1.909-3.243.45,0,1.092.481,1.329.711.269.265.664.355,1.02.236.357-.12.617-.43.672-.803.018-.122.44-3.003.46-4.128.046-2.715-.813-7.721-2.869-10.352Zm-12.969,15.335c-.411.021-.866.118-1.293.329-.562-1.432-1.638-3.328-3.389-3.328-.447,0-.875.12-1.256.286-.11-.873-.217-1.826-.225-2.304-.044-2.551.75-6.34,2.031-8.479.097,3.028.566,7.231,5.489,8.261-.304.751-.521,1.672-.521,2.773,0,.844.083,1.744.211,2.633-.344-.112-.694-.17-1.049-.172Zm2.838-2.461c0-1.103.288-1.943.618-2.544.125.003.252.005.382.005.127,0,.253-.002.376-.005.333.603.624,1.445.624,2.543,0,1.812-.461,4.172-1,6.189-.539-2.018-1-4.378-1-6.189Zm11-2.556c-.008.478-.114,1.431-.225,2.304-.381-.167-.809-.286-1.256-.286-1.751,0-2.826,1.896-3.389,3.328-.427-.211-.854-.31-1.293-.329-.354.002-.704.06-1.049.172.128-.89.211-1.79.211-2.633,0-1.101-.217-2.022-.521-2.773,4.923-1.03,5.392-5.233,5.489-8.261,1.281,2.139,2.075,5.928,2.031,8.479Z"/>
</svg>
