<?xml version="1.0" encoding="UTF-8"?>
<svg xmlns="http://www.w3.org/2000/svg" id="Layer_1" data-name="Layer 1" viewBox="0 0 24 24">
  <path d="m22.243,5.272l-3.515-3.515c-1.134-1.133-2.641-1.757-4.243-1.757h-4.971c-1.602,0-3.109.624-4.243,1.757l-3.515,3.515c-1.133,1.134-1.757,2.641-1.757,4.243v4.971c0,1.602.624,3.109,1.757,4.243l3.515,3.515c1.134,1.133,2.641,1.757,4.243,1.757h4.971c1.602,0,3.109-.624,4.243-1.757l3.515-3.515c1.133-1.134,1.757-2.641,1.757-4.243v-4.971c0-1.602-.624-3.109-1.757-4.243Zm-.243,9.213c0,1.068-.416,2.073-1.171,2.829l-3.515,3.514c-.756.756-1.76,1.172-2.829,1.172h-4.971c-1.068,0-2.073-.416-2.829-1.171l-3.514-3.515c-.756-.756-1.172-1.76-1.172-2.829v-4.971c0-1.068.416-2.073,1.171-2.829l3.515-3.514c.756-.756,1.76-1.172,2.829-1.172h4.971c1.068,0,2.073.416,2.829,1.171l3.514,3.515c.756.756,1.172,1.76,1.172,2.829v4.971Zm-3.667-6.067c.391.391.391,1.023,0,1.414l-5.232,5.232c-.613.613-1.428.951-2.295.951s-1.682-.338-2.295-.951l-2.787-2.787c-.391-.391-.391-1.023,0-1.414s1.023-.391,1.414,0l2.787,2.787c.471.471,1.292.47,1.762,0l5.232-5.232c.391-.391,1.023-.391,1.414,0Z"/>
</svg>
