<?xml version="1.0" encoding="UTF-8"?>
<svg xmlns="http://www.w3.org/2000/svg" id="Layer_1" data-name="Layer 1" viewBox="0 0 24 24">
  <path d="m16,9c0,.553-.447,1-1,1h-2v6c0,.553-.447,1-1,1s-1-.447-1-1v-6h-2c-.553,0-1-.447-1-1s.447-1,1-1h6c.553,0,1,.447,1,1Zm8,11.5c0,1.93-1.57,3.5-3.5,3.5-1.393,0-2.599-.819-3.162-2H6.662c-.563,1.181-1.769,2-3.162,2-1.93,0-3.5-1.57-3.5-3.5,0-1.393.819-2.599,2-3.162V6.662c-1.181-.563-2-1.769-2-3.162C0,1.57,1.57,0,3.5,0c1.393,0,2.599.819,3.162,2h10.677c.563-1.181,1.769-2,3.162-2,1.93,0,3.5,1.57,3.5,3.5,0,1.393-.819,2.599-2,3.162v10.677c1.181.563,2,1.769,2,3.162Zm-4-3.464V6.964c-1.53-.22-2.744-1.434-2.964-2.964H6.964c-.22,1.53-1.434,2.744-2.964,2.964v10.072c1.53.22,2.744,1.434,2.964,2.964h10.072c.22-1.53,1.434-2.744,2.964-2.964Zm-1-13.536c0,.827.673,1.5,1.5,1.5s1.5-.673,1.5-1.5-.673-1.5-1.5-1.5-1.5.673-1.5,1.5ZM2,3.5c0,.827.673,1.5,1.5,1.5s1.5-.673,1.5-1.5-.673-1.5-1.5-1.5-1.5.673-1.5,1.5Zm3,17c0-.827-.673-1.5-1.5-1.5s-1.5.673-1.5,1.5.673,1.5,1.5,1.5,1.5-.673,1.5-1.5Zm17,0c0-.827-.673-1.5-1.5-1.5s-1.5.673-1.5,1.5.673,1.5,1.5,1.5,1.5-.673,1.5-1.5Z"/>
</svg>
