<?xml version="1.0" encoding="UTF-8"?>
<svg xmlns="http://www.w3.org/2000/svg" id="Layer_1" data-name="Layer 1" viewBox="0 0 24 24">
  <path d="m13.5,13c0-.552-.448-1-1-1h-1.5c-.553,0-1-.447-1-1s.447-1,1-1h1c.552,0,1-.448,1-1s-.448-1-1-1h-2c-.553,0-1-.447-1-1s.447-1,1-1h2c1.654,0,3,1.346,3,3,0,.646-.21,1.242-.559,1.732.642.551,1.059,1.358,1.059,2.268,0,1.654-1.346,3-3,3h-2.5c-.553,0-1-.447-1-1s.447-1,1-1h2.5c.552,0,1-.448,1-1Zm10.409.592c-.164-.496-.532-.896-1.011-1.097-.004-.002-.009-.003-.013-.005.252-.287.486-.609.636-1.013.613-1.65.501-3.571.299-4.895-.087-.569-.449-1.052-.967-1.291-.274-.125-.57-.166-.86-.136.029-.557-.045-1.126-.296-1.68-.681-1.506-2.001-2.578-2.989-3.214-.462-.296-1.035-.344-1.535-.127-.518.224-.891.694-.998,1.262-.258,1.373-.419,3.902.999,6.43.782,5.363-.966,8.427-2.074,9.708-1.064,1.231-2.227,1.793-3.11,1.947-.883-.154-2.046-.716-3.11-1.948-1.108-1.281-2.855-4.322-2.072-9.684,1.44-2.536,1.279-5.077,1.018-6.456-.107-.564-.48-1.035-.998-1.259-.501-.219-1.076-.17-1.54.125-.992.635-2.318,1.707-3.003,3.213-.252.555-.327,1.125-.298,1.682-.29-.03-.587.011-.861.137-.518.239-.879.722-.966,1.291-.203,1.322-.314,3.245.299,4.894.15.403.375.74.627,1.027-.469.203-.831.597-.993,1.087-.165.5-.106,1.044.161,1.493.408.688,1.311,1.583,2.557,2.32-.053.046-.121.09-.17.136-.437.405-.668.98-.636,1.578.032.591.319,1.13.788,1.479.685.509,1.748,1.054,2.955,1.312-.02.354.046.711.219,1.03.297.548.841.914,1.454.981,1.274.141,3.045.15,4.57-.516,1.034.451,2.182.593,3.21.593.488,0,.949-.032,1.358-.077.615-.067,1.159-.434,1.456-.981.173-.319.239-.675.219-1.029,1.22-.258,2.29-.804,2.977-1.315.468-.349.755-.888.787-1.479.032-.598-.2-1.173-.636-1.578-.053-.049-.128-.097-.185-.146,1.261-.742,2.169-1.631,2.572-2.309.267-.45.326-.994.161-1.494ZM4.106,4.302c.406-.892,1.206-1.605,1.83-2.062.157,1.229.117,3.153-1.093,5.008-.535-.808-1.14-2.06-.737-2.946Zm-2.034,3.081c.812.601,1.949,1.755,2.554,3.579.006.244.017.483.033.716-.386.04-.781.098-1.167.169-.022-.012-1.017-.688-1.157-1.066-.408-1.098-.367-2.46-.262-3.397Zm.033,6.871c.628-.219,1.763-.492,2.823-.594.167.808.389,1.528.643,2.164-.269.106-.527.219-.781.341-1.34-.572-2.287-1.397-2.684-1.911Zm4.487,5.753c-1.065-.134-2.046-.597-2.591-.999.412-.383,1.299-.945,2.473-1.388.309.494.653.941.929,1.26-.31.388-.584.769-.812,1.126Zm1.184,1.942c.24-.463.61-1.083,1.108-1.722.611.442,2.24,1.234,2.451,1.271-1.146.563-2.654.538-3.559.451Zm4.872-.451c.211-.037,1.839-.828,2.451-1.271.516.661.895,1.296,1.135,1.719-.899.088-2.428.12-3.586-.448ZM18.065,2.246c.62.456,1.408,1.167,1.81,2.054.4.886-.196,2.134-.727,2.941-1.196-1.85-1.237-3.767-1.083-4.995Zm-.675,17.762c-.227-.358-.467-.776-.777-1.165.276-.319.586-.729.894-1.223,1.196.448,2.088,1.008,2.509,1.374-.598.445-1.603.885-2.626,1.015Zm1.794-3.848c-.253-.12-.508-.231-.775-.336.253-.636.476-1.355.642-2.162,1.069.105,2.223.379,2.844.592-.396.506-1.347,1.325-2.712,1.906Zm2.461-5.38c-.134.361-1.102,1.046-1.139,1.071-.393-.072-.795-.131-1.186-.172.016-.233.027-.472.033-.716.579-1.719,2.163-3.29,2.554-3.58.104.938.146,2.299-.263,3.397Z"/>
</svg>
