<?xml version="1.0" encoding="UTF-8"?>
<svg xmlns="http://www.w3.org/2000/svg" id="Layer_1" data-name="Layer 1" viewBox="0 0 24 24">
  <path d="m16,11.5c0,.828-.672,1.5-1.5,1.5s-1.5-.672-1.5-1.5.672-1.5,1.5-1.5,1.5.672,1.5,1.5Zm3,0c0,.828.672,1.5,1.5,1.5s1.5-.672,1.5-1.5-.672-1.5-1.5-1.5-1.5.672-1.5,1.5ZM10,1c0-.552.448-1,1-1h.316c1.292,0,2.414.816,2.83,2h7.854c.644,0,1.231.297,1.612.816.381.519.488,1.169.296,1.783l-.722,2.299c-.393,1.257-1.543,2.102-2.862,2.102h-4.429c-1.465,0-2.708-1.047-2.956-2.49l-.637-3.681c-.083-.48-.498-.83-.986-.83h-.316c-.552,0-1-.448-1-1Zm4.534,3l.375,2.17c.083.481.497.83.985.83h4.429c.439,0,.823-.281.954-.7l.722-2.3h-7.465Zm8.466,10c-.553,0-1,.448-1,1,0,1.654-1.346,3-3,3H5c-1.654,0-3-1.346-3-3V7c0-1.654,1.346-3,3-3h3c.552,0,1-.448,1-1s-.448-1-1-1h-3C2.243,2,0,4.243,0,7v8c0,2.757,2.243,5,5,5h6v2h-4c-.552,0-1,.448-1,1s.448,1,1,1h10c.553,0,1-.448,1-1s-.447-1-1-1h-4v-2h6c2.757,0,5-2.243,5-5,0-.552-.447-1-1-1Z"/>
</svg>
