<?xml version="1.0" encoding="UTF-8"?>
<svg xmlns="http://www.w3.org/2000/svg" id="Layer_1" data-name="Layer 1" viewBox="0 0 24 24">
  <path d="m14.696,15.381l-.81.809c-.391.391-.391,1.023,0,1.414.195.195.451.293.707.293s.512-.098.707-.293l7.402-7.401c.391-.391.391-1.023,0-1.414-.391-.391-1.023-.391-1.414,0l-.722.722-7.082-7.082.722-.722c.391-.391.391-1.023,0-1.414s-1.023-.391-1.414,0l-7.402,7.402c-.391.391-.391,1.023,0,1.414.195.195.451.293.707.293s.512-.098.707-.293l.81-.81,2.836,2.836L.293,21.293c-.391.391-.391,1.023,0,1.414.195.195.451.293.707.293s.512-.098.707-.293l10.158-10.158,2.832,2.831Zm4.457-4.456l-3.043,3.042-1.245-1.245,3.043-3.043,1.245,1.245Zm-8.789-2.703l-1.336-1.336,3.043-3.043,1.336,1.336-3.043,3.043Zm4.457-1.629l1.672,1.672-3.043,3.043-1.672-1.672,3.043-3.043Zm9.179,16.407c0,.553-.447,1-1,1h-13c-.553,0-1-.447-1-1s.447-1,1-1h.051c.232-1.14,1.242-2,2.449-2h8c1.208,0,2.217.86,2.449,2h.051c.553,0,1,.447,1,1Z"/>
</svg>
