<?xml version="1.0" encoding="UTF-8"?>
<svg xmlns="http://www.w3.org/2000/svg" id="Layer_1" data-name="Layer 1" viewBox="0 0 24 24">
  <path d="m8.5,9.5c0,.551.128,1.073.356,1.537-.49.628-.795,1.407-.836,2.256-.941-.988-1.52-2.324-1.52-3.792,0-3.411,3.122-6.107,6.659-5.381,2.082.428,3.769,2.105,4.213,4.184.134.628.159,1.243.091,1.831-.058.498-.495.866-.997.866h-.045c-.592,0-1.008-.527-.943-1.115.044-.395.021-.81-.08-1.233-.298-1.253-1.32-2.268-2.575-2.557-2.286-.525-4.324,1.207-4.324,3.405Zm-3.89-1.295c.274-1.593,1.053-3.045,2.261-4.178,1.529-1.433,3.531-2.141,5.63-2.011,3.953.256,7.044,3.719,6.998,7.865-.019,1.736-1.473,3.118-3.208,3.118h-2.406c-.244-.829-1.002-1.439-1.91-1.439-1.105,0-2,.895-2,2s.895,2,2,2c.538,0,1.025-.215,1.384-.561h2.932c2.819,0,5.168-2.245,5.208-5.063C21.573,4.715,17.651.345,12.63.021c-2.664-.173-5.191.732-7.126,2.548-1.499,1.405-2.496,3.265-2.855,5.266-.109.608.372,1.166.989,1.166.472,0,.893-.329.972-.795Zm7.39,8.795c-3.695,0-6.892,2.292-7.955,5.702-.165.527.13,1.088.657,1.253.526.159,1.087-.131,1.252-.657.789-2.53,3.274-4.298,6.045-4.298s5.257,1.768,6.045,4.298c.134.428.528.702.955.702.099,0,.198-.015.298-.045.527-.165.821-.726.657-1.253-1.063-3.41-4.26-5.702-7.955-5.702Z"/>
</svg>
