<?xml version="1.0" encoding="UTF-8"?>
<svg xmlns="http://www.w3.org/2000/svg" id="Layer_1" data-name="Layer 1" viewBox="0 0 24 24">
  <path d="m21.936,22.89c.061.549-.32,1.11-.995,1.11-.503,0-.937-.378-.993-.89-.448-4.053-3.865-7.11-7.947-7.11s-7.499,3.057-7.947,7.11c-.061.549-.565.947-1.104.884-.549-.061-.945-.555-.884-1.104.561-5.068,4.833-8.89,9.936-8.89s9.374,3.822,9.936,8.89ZM3.873,12.822c.308-1.306,1.854-7.849,2.026-8.385C6.758,1.783,9.209,0,12,0s5.242,1.783,6.1,4.437c.174.536,1.72,7.079,2.028,8.385.126.538-.206,1.076-.744,1.203-.077.019-.154.027-.23.027-.453,0-.863-.31-.973-.771-.7-2.968-1.857-7.827-1.984-8.23-.304-.942-.904-1.72-1.675-2.256-.528,1.312-1.447,2.423-2.67,3.185-1.081.674-2.303,1.021-3.546,1.021-.055,0-.111-.008-.167-.01.444,1.725,1.999,3.009,3.861,3.009.703,0,1.395-.185,1.999-.535.479-.277,1.091-.113,1.366.365.277.478.113,1.09-.364,1.366-.909.525-1.946.803-3.001.803-2.203,0-4.128-1.197-5.171-2.972-.344,1.439-.717,3.01-1.01,4.253-.108.46-.519.771-.972.771-.076,0-.153-.008-.23-.027-.538-.126-.871-.665-.744-1.203Zm3.969-7.864c1.031.102,2.06-.118,2.952-.675.856-.534,1.491-1.314,1.863-2.23-.215-.032-.434-.052-.657-.052-1.886,0-3.54,1.187-4.158,2.958Zm4.158,13.042c-2.842,0-5.314,2.019-5.879,4.801-.11.542.24,1.069.781,1.179.545.112,1.069-.24,1.179-.781.376-1.854,2.025-3.199,3.919-3.199s3.543,1.345,3.92,3.199c.096.474.513.801.979.801.066,0,.133-.006.2-.02.541-.11.891-.638.78-1.179-.564-2.782-3.037-4.801-5.879-4.801Z"/>
</svg>
