<?xml version="1.0" encoding="UTF-8"?>
<svg xmlns="http://www.w3.org/2000/svg" id="Layer_1" data-name="Layer 1" viewBox="0 0 24 24">
  <path d="m24,6.5V1c0-.379-.214-.725-.553-.895-.34-.17-.746-.133-1.047.095l-1.687,1.265c-.678-.299-1.426-.465-2.213-.465s-1.535.167-2.213.465l-1.687-1.265c-.303-.228-.709-.265-1.047-.095-.339.169-.553.516-.553.895v5.5c0,1.047.294,2.026.804,2.86-8.499,2.833-8.811,11.141-8.807,12.419-1.53-.428-2.997-1.488-2.997-3.279,0-1.565.718-2.724,1.479-3.949.748-1.207,1.521-2.454,1.521-4.051,0-2.565-1.374-4.16-3.869-4.491-.542-.068-1.05.312-1.123.86-.073.547.312,1.05.86,1.123,1.494.198,2.131.949,2.131,2.509,0,1.027-.566,1.94-1.221,2.996-.834,1.345-1.779,2.869-1.779,5.004,0,3.133,2.762,5.119,5.689,5.45.098.032.733.05.869.05h16.442c.552,0,1-.447,1-1s-.448-1-1-1h-1v-11.26c1.221-1.01,2-2.535,2-4.24Zm-4,15.5h-2c0-3.309-2.691-6-6-6-.552,0-1,.447-1,1s.448,1,1,1c2.206,0,4,1.794,4,4H6.999c-.017-.357-.31-8.744,8.331-11.008.897.635,1.991,1.008,3.17,1.008.52,0,1.023-.073,1.5-.208v10.208Zm-1.5-12c-1.93,0-3.5-1.57-3.5-3.5s1.57-3.5,3.5-3.5,3.5,1.57,3.5,3.5-1.57,3.5-3.5,3.5Z"/>
</svg>
