<?xml version="1.0" encoding="UTF-8"?>
<svg xmlns="http://www.w3.org/2000/svg" id="Layer_1" data-name="Layer 1" viewBox="0 0 24 24">
  <path d="m20.889,10l2.919-2.539c.463-.595.039-1.461-.715-1.461h-4.093c-1.105,0-2,.895-2,2v1H7v-1c0-1.105-.895-2-2-2H.907c-.753,0-1.177.866-.715,1.461l2.919,2.539L.192,12.539c-.463.595-.039,1.461.715,1.461h3.093v1.5c0,1.93,1.57,3.5,3.5,3.5h9c1.93,0,3.5-1.57,3.5-3.5v-1.5h3.093c.753,0,1.177-.866.715-1.461l-2.919-2.539Zm-2.889,5.5c0,.827-.673,1.5-1.5,1.5H7.5c-.827,0-1.5-.673-1.5-1.5v-4.5h12v4.5Z"/>
</svg>
