<?xml version="1.0" encoding="UTF-8"?>
<svg xmlns="http://www.w3.org/2000/svg" id="Layer_1" data-name="Layer 1" viewBox="0 0 24 24">
  <path d="m23.588,11.34c-1.006-1.138-2.823-2.015-4.588-2.267v-3.959c0-1.525-1.081-2.848-2.514-3.075-.546-.088-1.095-.007-1.598.194-.341-1.282-1.501-2.234-2.888-2.234s-2.547.952-2.888,2.234c-.255-.107-.522-.19-.806-.219-.848-.081-1.691.193-2.318.76-.628.568-.987,1.378-.987,2.225v4.074c-1.765.252-3.582,1.128-4.588,2.267-.381.432-.507,1.021-.338,1.574.175.568.643,1.015,1.222,1.164,2.583.665,2.699,2.702,2.704,2.922,0,4.448,2.369,7,6.5,7h3c4.131,0,6.5-2.552,6.5-6.99.005-.229.121-2.267,2.704-2.932.579-.149,1.047-.596,1.222-1.164.169-.553.043-1.142-.338-1.574Zm-5.588,5.66c0,3.364-1.472,5-4.5,5h-3c-3.028,0-4.5-1.636-4.5-5,0-1.235-.787-3.717-3.691-4.706.849-.675,2.322-1.294,3.691-1.294.553,0,1-.448,1-1v-5c0-.286.117-.55.329-.742.213-.191.494-.279.777-.252.493.049.894.546.894,1.109v4.886c0,.552.447,1,1,1s1-.448,1-1V3c0-.551.448-1,1-1s1,.449,1,1v7c0,.552.447,1,1,1s1-.448,1-1v-5c0-.293.128-.571.352-.761.227-.193.519-.273.82-.225.465.074.828.557.828,1.1v4.886c0,.552.447,1,1,1,1.369,0,2.843.619,3.691,1.294-2.904.989-3.691,3.471-3.691,4.706Zm-6-4c-2.012,0-3.62,1.263-4.263,2.218-.158.235-.237.508-.237.782s.079.547.237.782c.642.954,2.25,2.218,4.263,2.218s3.62-1.263,4.263-2.218c.158-.235.237-.509.237-.782s-.079-.547-.237-.782c-.643-.955-2.251-2.218-4.263-2.218Zm0,4.5c-.828,0-1.5-.672-1.5-1.5s.672-1.5,1.5-1.5,1.5.672,1.5,1.5-.672,1.5-1.5,1.5Z"/>
</svg>
