<?xml version="1.0" encoding="UTF-8"?>
<svg xmlns="http://www.w3.org/2000/svg" id="Layer_1" data-name="Layer 1" viewBox="0 0 24 24">
  <path d="m19,12.5c0,.828-.672,1.5-1.5,1.5s-1.5-.672-1.5-1.5.672-1.5,1.5-1.5,1.5.672,1.5,1.5Zm3.5-3.5c.828,0,1.5-.672,1.5-1.5s-.672-1.5-1.5-1.5-1.5.672-1.5,1.5.672,1.5,1.5,1.5Zm-5,7c-.828,0-1.5.672-1.5,1.5s.672,1.5,1.5,1.5,1.5-.672,1.5-1.5-.672-1.5-1.5-1.5Zm5-5c-.828,0-1.5.672-1.5,1.5s.672,1.5,1.5,1.5,1.5-.672,1.5-1.5-.672-1.5-1.5-1.5Zm0,5c-.828,0-1.5.672-1.5,1.5s.672,1.5,1.5,1.5,1.5-.672,1.5-1.5-.672-1.5-1.5-1.5Zm0,5c-.828,0-1.5.672-1.5,1.5s.672,1.5,1.5,1.5,1.5-.672,1.5-1.5-.672-1.5-1.5-1.5Zm-5,0c-.828,0-1.5.672-1.5,1.5s.672,1.5,1.5,1.5,1.5-.672,1.5-1.5-.672-1.5-1.5-1.5Zm-5-5c-.828,0-1.5.672-1.5,1.5s.672,1.5,1.5,1.5,1.5-.672,1.5-1.5-.672-1.5-1.5-1.5Zm0,5c-.828,0-1.5.672-1.5,1.5s.672,1.5,1.5,1.5,1.5-.672,1.5-1.5-.672-1.5-1.5-1.5ZM19.915,2.604c.25,1.047-.053,2.124-.812,2.883l-7.617,7.617c-.583.583-1.355.897-2.157.897-.241,0-.483-.028-.725-.086-1.032-.247-1.844-.992-2.172-1.994-.188-.579-.307-1.181-.352-1.787-.239-3.224.046-5.635.833-7.216-.523-.36-1.558-.917-2.997-.917-1.057,0-1.917.86-1.917,1.917v19.083c0,.553-.448,1-1,1s-1-.447-1-1V3.917C0,1.757,1.757,0,3.917,0c2.052,0,3.529.839,4.261,1.367C9.691.237,12.356-.202,16.133.08c.608.045,1.209.163,1.788.353,1.001.327,1.747,1.139,1.994,2.171Zm-1.945.465c-.04-.168-.186-.577-.67-.735-.425-.139-.867-.226-1.313-.259h0c-.68-.05-1.323-.075-1.925-.075-2.419,0-4.167.4-4.915,1.147-.934.934-1.324,3.427-1.072,6.84.033.445.121.889.259,1.314.158.482.567.629.735.669.367.09.741-.018,1.003-.28l7.617-7.617c.263-.263.368-.639.28-1.004Z"/>
</svg>
