<?xml version="1.0" encoding="UTF-8"?>
<svg xmlns="http://www.w3.org/2000/svg" id="Layer_1" data-name="Layer 1" viewBox="0 0 24 24">
  <path d="m23.333.057c-.52-.186-1.092.089-1.276.61-.282.797-1.04,1.333-1.886,1.333h-5.158c-.008,0-.019,0-.028,0H4.073C2.056,2,.35,3.509.103,5.511l-.084.684c-.087.71.135,1.425.609,1.961.474.536,1.156.844,1.872.844h9.25c2.032,0,3.74-1.522,3.973-3.542l.168-1.458h2.089c-.205,3.696-2.628,9.671-6.971,14.042-1.355,1.373-1.34,3.594.033,4.95.681.672,1.57,1.007,2.458,1.007.904,0,1.808-.347,2.492-1.039,5.653-5.727,5.58-17.143,5.519-19.199,1.113-.398,2.024-1.272,2.432-2.427.184-.521-.089-1.092-.61-1.276Zm-9.597,5.172c-.117,1.01-.971,1.771-1.987,1.771H2.5c-.196,0-.318-.106-.375-.169-.056-.063-.146-.198-.122-.392l.084-.684c.123-1,.977-1.755,1.985-1.755h9.805l-.142,1.229Zm.832,16.325c-.582.589-1.534.595-2.122.014-.588-.581-.595-1.533-.016-2.12,3.605-3.628,5.964-8.208,6.987-12.029-.283,4.126-1.31,10.549-4.849,14.134Z"/>
</svg>
