<?xml version="1.0" encoding="UTF-8"?>
<svg xmlns="http://www.w3.org/2000/svg" id="Layer_1" data-name="Layer 1" viewBox="0 0 24 24">
  <path d="m8.581,9.595c-1.905-.884-2.581-1.825-2.581-3.595s.675-2.711,2.58-3.595c.351-.163.576-.513.579-.899.003-.386-.216-.74-.564-.908-.819-.396-1.692-.598-2.595-.598C2.691,0,0,2.691,0,6s2.691,6,6,6c.906,0,1.78-.201,2.597-.598.347-.168.566-.522.563-.908s-.229-.736-.579-.898Zm-6.581-3.595c0-2.055,1.558-3.753,3.554-3.975-1.062,1.028-1.554,2.315-1.554,3.975s.492,2.947,1.554,3.975c-1.997-.222-3.554-1.92-3.554-3.975Zm20.465,6.588l-3.5-2.739c-1.451-1.136-3.479-1.136-4.93,0l-3.5,2.739c-.975.764-1.535,1.912-1.535,3.15v4.261c0,2.206,1.794,4,4,4h7c2.206,0,4-1.794,4-4v-4.261c0-1.238-.56-2.387-1.535-3.151Zm-.465,7.412c0,1.103-.897,2-2,2h-7c-1.103,0-2-.897-2-2v-4.261c0-.619.28-1.193.768-1.576l3.5-2.738c.363-.284.797-.426,1.232-.426s.87.142,1.232.426l3.5,2.738c.488.383.768.957.768,1.576v4.261Zm-4-3v1c0,.552-.448,1-1,1h-1c-.552,0-1-.448-1-1v-1c0-.552.448-1,1-1h1c.552,0,1,.448,1,1Zm1-10.54c.005-.255.165-.482.404-.573l1.082-.41.433-1.084c.095-.237.325-.393.58-.393s.485.156.58.393l.436,1.09,1.09.436c.237.095.393.325.393.58s-.156.486-.393.58l-1.09.436-.436,1.09c-.095.237-.325.393-.58.393s-.486-.156-.58-.393l-.438-1.097-1.099-.463c-.236-.099-.387-.332-.382-.587Zm-12.5,12.04c0,.307-.187.583-.472.697l-1.308.523-.523,1.308c-.114.285-.39.472-.697.472s-.583-.187-.697-.472l-.526-1.316-1.318-.556c-.283-.119-.464-.398-.459-.705.006-.307.198-.579.484-.687l1.299-.492.52-1.301c.114-.285.39-.472.697-.472s.583.187.697.472l.523,1.308,1.308.523c.285.114.472.39.472.697Zm3.5-15.056c.007-.358.231-.675.565-.802l1.515-.574.607-1.518c.133-.332.455-.55.813-.55s.68.218.813.55l.611,1.526,1.526.611c.332.133.55.455.55.813s-.218.68-.55.813l-1.526.611-.611,1.527c-.133.332-.455.55-.813.55s-.68-.218-.813-.55l-.614-1.536-1.538-.648c-.33-.139-.542-.464-.535-.822Z"/>
</svg>
