<?xml version="1.0" encoding="UTF-8"?>
<svg xmlns="http://www.w3.org/2000/svg" id="Layer_1" data-name="Layer 1" viewBox="0 0 24 24">
  <path d="m21.859,15.318c.377.404.354,1.037-.05,1.414-.243.227-.517.42-.81.575-.022,1.412-.827,2.638-2,3.259v1.434c0,1.103-.897,2-2,2s-2-.897-2-2v-.32c-.467.207-.977.32-1.5.32-.721,0-1.407-.204-2-.585-.593.381-1.279.585-2,.585-.168,0-.335-.012-.5-.035v.035c0,1.103-.897,2-2,2s-2-.897-2-2v-1.075c-1.692-.345-2.973-1.831-3-3.617-1.21-.637-2-1.899-2-3.308s.79-2.671,2-3.308c.031-2.041,1.701-3.692,3.75-3.692.355,0,.711.054,1.056.158.858-.895,2.185-1.319,3.378-1.095.543.101.9.624.8,1.167-.102.542-.62.9-1.167.799-.693-.128-1.449.205-1.823.854-.134.23-.353.398-.61.466-.255.068-.529.031-.76-.104-.28-.163-.574-.246-.873-.246-.965,0-1.75.785-1.75,1.75,0,.118.015.242.045.381.115.526-.206,1.048-.728,1.183-.775.199-1.317.893-1.317,1.686s.542,1.487,1.317,1.686c.521.134.843.657.728,1.183-.03.139-.045.264-.045.381,0,.965.785,1.75,1.75,1.75.299,0,.593-.083.873-.246.229-.134.503-.17.76-.104.258.068.477.236.61.466.105.182.241.337.396.462.108.046.206.11.29.188.666.344,1.54.259,2.089-.329.377-.406,1.086-.406,1.463,0,.776.833,2.21.658,2.775-.321.134-.23.353-.398.61-.466.256-.065.53-.03.76.104.28.163.574.246.873.246.965,0,1.75-.785,1.75-1.75,0-.118-.015-.242-.045-.381-.115-.526.206-1.048.728-1.183.285-.073.549-.217.764-.417.403-.377,1.036-.354,1.413.049Zm2.03-10.449c-.398.64-1.114,1.102-1.902,1.302.008.108.012.218.012.328v3.769c0,2.301-1.725,3.731-4.5,3.731s-4.5-1.43-4.5-3.731v-3.769c0-.11.004-.22.012-.328-.787-.201-1.503-.663-1.902-1.302-.258-.414-.044-.96.431-1.072.626-.149,1.643-.352,2.818-.516.119-.116.244-.226.375-.328-.319-.648-.879-.952-1.735-.952-.553,0-1-.448-1-1s.447-1,1-1c1.633,0,2.894.758,3.544,2.103.308-.067.628-.103.956-.103s.648.036.956.103c.651-1.345,1.911-2.103,3.544-2.103.553,0,1,.448,1,1s-.447,1-1,1c-.856,0-1.416.305-1.734.953.131.102.256.212.375.328,1.175.164,2.191.367,2.818.516.475.113.689.658.431,1.072Zm-3.89,1.631c0-1.378-1.121-2.5-2.5-2.5s-2.5,1.122-2.5,2.5v3.769c0,1.148.841,1.731,2.5,1.731s2.5-.583,2.5-1.731v-3.769Z"/>
</svg>
