<?xml version="1.0" encoding="UTF-8"?>
<svg xmlns="http://www.w3.org/2000/svg" id="Layer_1" data-name="Layer 1" viewBox="0 0 24 24">
  <path d="m23.707,22.293l-5.963-5.963c1.412-1.725,2.262-3.927,2.262-6.324C20.006,4.492,15.52.006,10.006.006S.006,4.492.006,10.006s4.486,10,10,10c2.398,0,4.6-.85,6.324-2.262l5.963,5.963c.195.195.451.293.707.293s.512-.098.707-.293c.391-.391.391-1.023,0-1.414ZM2.006,10.006C2.006,5.595,5.595,2.006,10.006,2.006s8,3.589,8,8-3.589,8-8,8S2.006,14.417,2.006,10.006Zm12.994,1.994c0,.553-.448,1-1,1H6c-.552,0-1-.447-1-1s.448-1,1-1v-2c0-.553.448-1,1-1s1,.447,1,1v2h1v-5c0-.553.448-1,1-1s1,.447,1,1v5h1v-3c0-.553.448-1,1-1s1,.447,1,1v3c.552,0,1,.447,1,1Z"/>
</svg>
