<?xml version="1.0" encoding="UTF-8"?>
<svg xmlns="http://www.w3.org/2000/svg" id="Layer_1" data-name="Layer 1" viewBox="0 0 24 24">
  <path d="m20.5,0H3.5C1.567,0,0,1.567,0,3.5v4c0,1.933,1.567,3.5,3.5,3.5h2.024c.104-.182.224-.356.358-.522l.52-.532c1.069-.91,2.518-1.19,3.859-.729l4.924,1.783h5.316c1.933,0,3.5-1.567,3.5-3.5V3.5c0-1.933-1.567-3.5-3.5-3.5ZM4.438,6.714c-.133.745-.844,1.286-1.691,1.286-.447,0-.877-.118-1.242-.333-.298-.176-.339-.591-.083-.823.166-.15.412-.186.605-.072.21.124.461.193.72.193.371,0,.633-.22.671-.432.051-.286-.374-.466-.506-.515-.623-.23-1.185-.481-1.185-.481-.497-.316-.716-.803-.644-1.309.078-.538.471-.976,1.027-1.144.6-.181,1.129-.018,1.49.171.279.146.346.516.142.756-.141.166-.373.22-.573.134-.199-.086-.475-.155-.761-.07-.243.073-.291.234-.3.299-.006.049-.01.17.108.25.013,0,.509.218,1.055.42,1.013.374,1.267,1.107,1.167,1.669Zm1.793.786c0,.276-.224.5-.5.5s-.5-.224-.5-.5V3.5c0-.276.224-.5.5-.5s.5.224.5.5v4Zm4-1.039c0,.77-.564,1.446-1.329,1.53-.905.1-1.671-.606-1.671-1.491v-1.964c0-.753.541-1.418,1.288-1.521.57-.078,1.084.164,1.396.571.13.169.004.414-.209.414h-.974c-.276,0-.5.224-.5.5v2c0,.31.282.554.603.49.236-.047.397-.268.397-.508v-.481c-.292,0-.526-.251-.498-.549.025-.26.258-.451.519-.451h.377c.332,0,.602.269.602.602v.859Zm4,1.039c0,.276-.224.5-.5.5s-.5-.224-.5-.5v-3c0-.31-.282-.554-.603-.49-.236.047-.397.268-.397.508v2.981c0,.276-.224.5-.5.5s-.5-.224-.5-.5V3.5c0-.276.224-.5.5-.5.14,0,.267.058.357.151l.143-.059c.344-.122.733-.149,1.169.087.522.283.831.845.831,1.439v2.883Zm5-1.039c0,.77-.564,1.445-1.329,1.529-.905.1-1.671-.606-1.671-1.491v-3c0-.276.224-.5.5-.5s.5.224.5.5v3c0,.31.282.554.603.49.236-.047.397-.268.397-.508v-2.981c0-.276.224-.5.5-.5s.5.224.5.5v2.961Zm3.991-1.791c-.084.765-.76,1.329-1.53,1.329h-.461v1.5c0,.276-.224.5-.5.5s-.5-.224-.5-.5V3.5c0-.276.224-.5.5-.5h1c.885,0,1.59.766,1.491,1.671Zm-1.001-.067c-.047.236-.268.397-.508.397h-.481v-1h.5c.31,0,.554.282.49.603Zm-6.2,14l2.687-2.687c.242-.242.343-.59.269-.924s-.314-.606-.636-.723l-8.73-3.161c-.716-.246-1.494-.065-2.031.47-.536.536-.716,1.314-.47,2.031.001.005.003.011.005.016l3.156,8.714c.117.322.389.562.723.636.072.016.145.024.217.024.262,0,.518-.104.707-.293l2.689-2.689,3.687,3.689c.195.195.452.293.708.293s.512-.098.707-.292c.391-.391.391-1.024,0-1.415l-3.687-3.689Zm-4.406,1.578l-2.592-7.159,7.159,2.592-4.566,4.566Z"/>
</svg>
