<?xml version="1.0" encoding="UTF-8"?>
<svg xmlns="http://www.w3.org/2000/svg" id="Layer_1" data-name="Layer 1" viewBox="0 0 24 24">
  <path d="m18.5,11c.828,0,1.5.672,1.5,1.5s-.672,1.5-1.5,1.5-1.5-.672-1.5-1.5.672-1.5,1.5-1.5Zm-3,7c.828,0,1.5-.672,1.5-1.5s-.672-1.5-1.5-1.5-1.5.672-1.5,1.5.672,1.5,1.5,1.5ZM14.283,1.671c-.38-.397-.372-1.028.022-1.412.395-.382,1.021-.378,1.406.012.054.054.796.851,1.422,2.323.192-.295.414-.58.675-.841,1.179-1.179,2.793-1.596,3.94-1.738.62-.079,1.224.132,1.664.572.44.44.648,1.047.572,1.664-.142,1.147-.559,2.761-1.737,3.94-1.668,1.668-4.229,1.809-5.044,1.809-1.203,0-1.203-.993-1.203-1,0-3.496-1.646-5.255-1.717-5.329Zm3.771,4.274c.829-.101,1.995-.385,2.778-1.168.777-.777,1.063-1.937,1.167-2.772v-.003c-.841.102-2,.389-2.777,1.166-.782.782-1.067,1.948-1.168,2.777Zm5.697,3.833c-.122-.539-.659-.876-1.196-.754-.539.122-.876.658-.754,1.196.131.58.198,1.178.198,1.779,0,8.789-8.583,10-17.857,10-1.162,0-2.143-1.003-2.143-2.19,0-.424.123-.833.316-1.13.031-.035.24-.254,1.312-1.107,1.596-1.271,2.372-3.094,2.372-5.573,0-3.763,2.558-6.971,6.221-7.802.539-.122.876-.658.754-1.196-.122-.539-.658-.877-1.196-.754-4.58,1.039-7.779,5.049-7.779,9.752,0,1.855-.514,3.129-1.618,4.008-1.349,1.074-1.569,1.327-1.691,1.511-.452.68-.69,1.472-.69,2.291,0,2.311,1.858,4.19,4.143,4.19,6.445,0,19.857,0,19.857-12,0-.75-.083-1.497-.248-2.221Z"/>
</svg>
