<?xml version="1.0" encoding="UTF-8"?>
<svg xmlns="http://www.w3.org/2000/svg" id="Layer_1" data-name="Layer 1" viewBox="0 0 24 24">
  <path d="m18,12c-3.309,0-6,2.691-6,6s2.691,6,6,6,6-2.691,6-6-2.691-6-6-6Zm0,10c-2.206,0-4-1.794-4-4s1.794-4,4-4,4,1.794,4,4-1.794,4-4,4Zm1.707-3.707c.391.391.391,1.023,0,1.414-.195.195-.451.293-.707.293s-.512-.098-.707-.293l-1-1c-.188-.188-.293-.442-.293-.707v-2c0-.552.447-1,1-1s1,.448,1,1v1.586l.707.707Zm4.293-13.293v5c0,.552-.447,1-1,1s-1-.448-1-1v-5c0-1.654-1.346-3-3-3H5c-1.654,0-3,1.346-3,3v10c0,1.654,1.346,3,3,3h4c.553,0,1,.448,1,1s-.447,1-1,1h-4c-2.757,0-5-2.243-5-5V5C0,2.243,2.243,0,5,0h14c2.757,0,5,2.243,5,5Zm-9.108,6.144l-4.137,2.298c-.787.437-1.755-.132-1.755-1.033v-4.597c0-.901.968-1.47,1.755-1.033l4.137,2.299c.81.45.81,1.615,0,2.065Z"/>
</svg>
