<?xml version="1.0" encoding="UTF-8"?>
<svg xmlns="http://www.w3.org/2000/svg" id="Layer_1" data-name="Layer 1" viewBox="0 0 24 24">
  <path d="m17.5,7.5c.256,0,.512-.098.707-.293l.629-.629c.495.269,1.062.422,1.664.422,1.93,0,3.5-1.57,3.5-3.5s-1.57-3.5-3.5-3.5-3.5,1.57-3.5,3.5c0,.602.153,1.169.422,1.664l-.629.629c-.391.391-.391,1.023,0,1.414.195.195.451.293.707.293Zm3-5.5c.827,0,1.5.673,1.5,1.5s-.673,1.5-1.5,1.5-1.5-.672-1.5-1.5.673-1.5,1.5-1.5Zm0,15c-.602,0-1.169.153-1.664.422l-.629-.629c-.391-.391-1.023-.391-1.414,0s-.391,1.023,0,1.414l.629.629c-.269.495-.422,1.062-.422,1.664,0,1.93,1.57,3.5,3.5,3.5s3.5-1.57,3.5-3.5-1.57-3.5-3.5-3.5Zm0,5c-.827,0-1.5-.673-1.5-1.5s.672-1.5,1.5-1.5,1.5.673,1.5,1.5-.673,1.5-1.5,1.5ZM6.578,5.164c.269-.495.422-1.062.422-1.664,0-1.93-1.57-3.5-3.5-3.5S0,1.57,0,3.5s1.57,3.5,3.5,3.5c.602,0,1.169-.153,1.664-.422l.629.629c.195.195.451.293.707.293s.512-.098.707-.293c.391-.391.391-1.023,0-1.414l-.629-.629Zm-3.078-.164c-.827,0-1.5-.673-1.5-1.5s.673-1.5,1.5-1.5,1.5.673,1.5,1.5-.672,1.5-1.5,1.5Zm2.293,11.793l-.629.629c-.495-.269-1.062-.422-1.664-.422-1.93,0-3.5,1.57-3.5,3.5s1.57,3.5,3.5,3.5,3.5-1.57,3.5-3.5c0-.602-.153-1.169-.422-1.664l.629-.629c.391-.391.391-1.023,0-1.414s-1.023-.391-1.414,0Zm-2.293,5.207c-.827,0-1.5-.673-1.5-1.5s.673-1.5,1.5-1.5,1.5.672,1.5,1.5-.673,1.5-1.5,1.5Zm6.5-12c0,.378.271.698.644.76l3.041.507c1.342.223,2.315,1.373,2.315,2.733,0,1.654-1.346,3-3,3v1c0,.552-.447,1-1,1s-1-.448-1-1v-1.002h-.27c-1.066,0-2.061-.574-2.596-1.496-.277-.478-.114-1.09.364-1.367.477-.276,1.089-.113,1.366.364.179.308.51.499.866.499l2.27.002c.551,0,.999-.449.999-1,0-.378-.271-.698-.644-.76l-3.041-.507c-1.342-.223-2.315-1.373-2.315-2.733,0-1.654,1.346-3,3-3v-1c0-.552.447-1,1-1s1,.448,1,1v1.003h.271c1.063,0,2.058.573,2.594,1.495.278.477.116,1.089-.361,1.367-.478.278-1.09.115-1.367-.362-.183-.312-.506-.5-.866-.5l-2.271-.003c-.551,0-.999.449-.999,1Z"/>
</svg>
