<?xml version="1.0" encoding="UTF-8"?>
<svg xmlns="http://www.w3.org/2000/svg" id="Layer_1" data-name="Layer 1" viewBox="0 0 24 24">
  <path d="m19,5h-2.101c-.465-2.279-2.484-4-4.899-4h-7.535C2.686,1,1.025,1.958.135,3.5c-.277.478-.113,1.09.364,1.366.479.276,1.09.112,1.366-.365.535-.925,1.531-1.5,2.6-1.5h7.535c1.654,0,3,1.346,3,3v11H3.829c-.846,0-1.604-.536-1.887-1.333-.184-.521-.758-.794-1.275-.609-.521.184-.794.755-.609,1.275.475,1.345,1.631,2.309,2.994,2.581-.033.192-.052.388-.052.586,0,1.93,1.57,3.5,3.5,3.5s3.5-1.57,3.5-3.5c0-.169-.017-.335-.041-.5h4.082c-.024.165-.041.331-.041.5,0,1.93,1.57,3.5,3.5,3.5s3.5-1.57,3.5-3.5c0-.211-.023-.419-.061-.623,1.752-.425,3.061-1.996,3.061-3.877v-5c0-2.757-2.243-5-5-5Zm3,5v1h-5v-4h2c1.654,0,3,1.346,3,3Zm-14,9.5c0,.827-.673,1.5-1.5,1.5s-1.5-.673-1.5-1.5c0-.19.039-.356.093-.5h2.814c.054.144.093.31.093.5Zm9.5,1.5c-.827,0-1.5-.673-1.5-1.5,0-.19.039-.356.093-.5h2.814c.054.144.093.31.093.5,0,.827-.673,1.5-1.5,1.5Zm2.5-4h-3v-4h5v2c0,1.103-.897,2-2,2ZM4.768,7.232l-1.768,1.768h7.035c.553,0,1,.448,1,1s-.447,1-1,1H3l1.768,1.768c.391.391.391,1.023,0,1.414-.195.195-.451.293-.707.293s-.512-.098-.707-.293l-2.768-2.768c-.78-.78-.78-2.048,0-2.828l2.768-2.768c.391-.391,1.023-.391,1.414,0,.391.39.391,1.023,0,1.414Z"/>
</svg>
