<?xml version="1.0" encoding="UTF-8"?>
<svg xmlns="http://www.w3.org/2000/svg" id="Layer_1" data-name="Layer 1" viewBox="0 0 24 24">
  <path d="m24,16.211c0-.925-.437-1.79-1.174-2.34.131-.903-.165-1.814-.805-2.459-.641-.645-1.547-.938-2.45-.812-.363-.491-.871-.832-1.437-1.018.397-.506.628-1.132.628-1.793,0-.925-.437-1.789-1.174-2.339.132-.905-.165-1.816-.805-2.459-.64-.644-1.546-.937-2.451-.812-.548-.74-1.411-1.179-2.333-1.179s-1.784.438-2.333,1.179c-.908-.126-1.811.169-2.449.812-.641.643-.938,1.555-.806,2.46-.737.551-1.174,1.415-1.174,2.339,0,.661.231,1.286.627,1.793-.565.186-1.072.527-1.436,1.018-.904-.126-1.81.169-2.451.812-.64.645-.936,1.556-.805,2.46-.737.55-1.174,1.415-1.174,2.339s.437,1.789,1.174,2.339c-.131.904.165,1.816.805,2.459.643.646,1.5.98,2.462.828.55.73,1.408,1.163,2.321,1.163s1.772-.433,2.321-1.163c.942.152,1.818-.183,2.462-.827.184-.185.33-.396.456-.618.125.222.272.433.456.618.643.645,1.493.979,2.462.827.549.73,1.407,1.163,2.321,1.163s1.771-.433,2.32-1.163c.945.151,1.819-.181,2.462-.827.641-.644.937-1.556.806-2.461.737-.55,1.174-1.414,1.174-2.338Zm-12.881.761c-.592.401-.888,1.119-.755,1.827.057.301-.03.592-.236.799-.199.199-.463.314-.759.26-.714-.153-1.444.139-1.86.744-.347.506-1.146.507-1.493,0-.342-.499-.898-.785-1.479-.785-.124,0-.248.014-.372.04-.245,0-.593-.082-.768-.258-.207-.207-.293-.499-.237-.799.133-.708-.163-1.425-.754-1.827-.254-.173-.405-.457-.405-.761,0-.31.147-.587.406-.762.591-.402.887-1.119.753-1.827-.056-.3.03-.592.237-.8.205-.206.489-.292.787-.236.709.134,1.428-.164,1.827-.76.346-.516,1.156-.516,1.502,0,.4.596,1.118.895,1.829.76.293-.054.58.029.785.236.208.208.294.5.237.8-.133.708.163,1.426.755,1.827.258.175.405.452.405.762,0,.304-.151.588-.405.761Zm1.336-5.56c-.183.185-.33.395-.455.617-.125-.222-.271-.432-.455-.617-.641-.645-1.55-.938-2.45-.812-.189-.256-.426-.46-.68-.638-.025-.561-.296-1.088-.772-1.412-.257-.174-.405-.451-.405-.761,0-.305.151-.588.406-.761.591-.402.887-1.119.753-1.827-.057-.3.03-.592.238-.8.205-.206.49-.29.786-.236.713.137,1.428-.164,1.828-.76.346-.516,1.156-.516,1.502,0,.4.596,1.117.896,1.828.76.294-.054.581.03.787.237.207.207.293.499.236.799-.133.708.163,1.425.755,1.828.253.172.405.455.405.76,0,.31-.147.587-.406.762-.474.323-.746.85-.77,1.411-.254.178-.49.382-.68.637-.902-.126-1.81.169-2.451.812Zm9.139,5.56c-.591.402-.887,1.119-.753,1.827.057.3-.03.592-.237.8-.198.2-.461.316-.758.259-.715-.153-1.446.139-1.86.743-.349.508-1.146.509-1.495,0-.415-.604-1.148-.896-1.851-.744-.245,0-.593-.083-.767-.258-.207-.207-.293-.498-.236-.799.099-.524-.041-1.052-.358-1.455.151-.355.246-.736.246-1.133s-.095-.777-.245-1.132c.319-.403.456-.932.358-1.458-.057-.299.03-.591.237-.799.205-.206.49-.292.787-.236.711.134,1.428-.164,1.828-.76.346-.516,1.157-.515,1.501,0,.4.597,1.117.896,1.829.761.293-.054.58.029.785.236.208.208.294.5.238.8-.133.708.163,1.425.754,1.827.258.175.405.452.405.762,0,.304-.151.588-.406.761Z"/>
</svg>
