<?xml version="1.0" encoding="UTF-8"?>
<svg xmlns="http://www.w3.org/2000/svg" id="Layer_1" data-name="Layer 1" viewBox="0 0 24 24">
  <path d="m17.26,10.292c.48.469,1.11.704,1.74.704s1.26-.235,1.74-.704l1.795-1.756c1.95-1.95,1.95-5.122,0-7.071-.944-.944-2.2-1.464-3.535-1.464s-2.591.52-3.536,1.464c-1.949,1.95-1.949,5.122.008,7.079l1.788,1.748Zm-.381-7.413c.567-.567,1.32-.879,2.122-.879s1.555.312,2.121.878c1.17,1.17,1.17,3.073.008,4.235l-1.788,1.748c-.191.188-.492.188-.683,0l-1.78-1.74c-1.169-1.17-1.169-3.073,0-4.243Zm7.122,14.121c0,2.206-1.794,4-4,4h-7c-.552,0-1-.448-1-1s.448-1,1-1h7c1.103,0,2-.897,2-2s-.897-2-2-2h-11c-2.206,0-4-1.794-4-4s1.794-4,4-4h3c.552,0,1,.448,1,1s-.448,1-1,1h-3c-1.103,0-2,.897-2,2s.897,2,2,2h11c2.206,0,4,1.794,4,4Zm-14,3c0,.552-.448,1-1,1h-1.5l-1.911,2.421c-.195.357-.569.579-.975.579h-.32c-.382,0-.644-.384-.506-.74l.879-2.26h-2.32c-.442,0-.862-.195-1.147-.533l-1.096-1.3c-.297-.52.078-1.167.677-1.167.207,0,.405.082.551.228l1.11.772h2.241l-.891-2.258c-.141-.356.122-.742.505-.742h.298c.407,0,.781.222.975.579l1.929,2.421h1.5c.552,0,1,.448,1,1Zm10.001-15.213c0,.552-.448,1-1,1s-1-.448-1-1,.448-1,1-1,1,.448,1,1Z"/>
</svg>
