<?xml version="1.0" encoding="UTF-8"?>
<svg xmlns="http://www.w3.org/2000/svg" id="Layer_1" data-name="Layer 1" viewBox="0 0 24 24">
  <path d="m22,3.5c-.124,0-.246.012-.364.034-.793-2.064-2.796-3.534-5.136-3.534s-4.343,1.469-5.136,3.534c-.118-.022-.239-.034-.364-.034-1.105,0-2,.895-2,2s.895,2,2,2c.124,0,.246-.012.364-.034.272.707.685,1.344,1.206,1.877-5.968,1.488-8.105,7.498-8.499,11.706-1.254-.909-2.071-2.386-2.071-4.049V6c0-2.467,1.533-4,4-4,.552,0,1-.448,1-1s-.448-1-1-1C2.411,0,0,2.411,0,6v11c0,3.86,3.14,7,7,7h14c.553,0,1-.448,1-1s-.447-1-1-1h-1v-12c0-.082-.01-.161-.029-.237.738-.602,1.318-1.392,1.665-2.296.118.022.239.034.364.034,1.105,0,2-.895,2-2s-.895-2-2-2Zm-7,18.5v-4.5c0-.827.673-1.5,1.5-1.5s1.5.673,1.5,1.5v4.5h-3Zm3-11v3.338c-.455-.217-.964-.338-1.5-.338-1.93,0-3.5,1.57-3.5,3.5v4.5h-6c-.334,0-.661-.033-.978-.096.146-2.383,1.247-10.904,9.478-10.904h2.5Zm-1.5-2c-1.93,0-3.5-1.57-3.5-3.5s1.57-3.5,3.5-3.5,3.5,1.57,3.5,3.5-1.57,3.5-3.5,3.5Z"/>
</svg>
