<?xml version="1.0" encoding="UTF-8"?>
<svg xmlns="http://www.w3.org/2000/svg" id="Layer_1" data-name="Layer 1" viewBox="0 0 24 24">
  <path d="m23.856,10.14l-1.96,4.16c1.108,1.239,1.38,2.949.695,4.419l-.517,1.035c-.175.351-.528.554-.896.554-.149,0-.302-.033-.445-.105-.494-.246-.695-.847-.448-1.341l.505-1.012c.359-.773.181-1.715-.458-2.318-.328-.26-.725-.446-1.15-.519-.819-.095-1.658.374-2.029,1.171l-1.427,3.037c-.235.499-.83.715-1.331.479-.499-.235-.714-.831-.479-1.331l1.426-3.033c.694-1.489,2.218-2.39,3.842-2.313l1.961-4.162c.352-.75,1.244-1.071,1.996-.717.749.353,1.07,1.246.717,1.996Zm-1.524,11.35c-.366.329-.84.511-1.332.511-.889,0-1.793-.586-2.058-1.333-.006-.016-.188-.657-.942-.657s-.937.64-.942.657c-.265.747-1.169,1.333-2.058,1.333s-1.793-.586-2.058-1.333c-.006-.017-.231-.657-.942-.657s-.937.64-.943.657c-.265.747-1.169,1.333-2.058,1.333s-1.793-.586-2.058-1.333c-.006-.016-.209-.657-.943-.657s-.936.64-.942.657c-.265.747-1.169,1.333-2.058,1.333-.492,0-.966-.182-1.332-.511-.409-.366-1.041-.335-1.412.076-.369.41-.335,1.043.076,1.412.733.659,1.681,1.022,2.668,1.022,1.13,0,2.221-.479,3-1.236.779.757,1.87,1.236,3,1.236s2.221-.479,3-1.236c.779.757,1.87,1.236,3,1.236s2.221-.479,3-1.236c.779.757,1.87,1.236,3,1.236.987,0,1.935-.363,2.668-1.022.411-.369.445-1.002.076-1.412-.372-.413-1.003-.443-1.412-.076ZM15,4c1.13,0,2.221-.479,3-1.236.779.757,1.87,1.236,3,1.236.987,0,1.935-.363,2.668-1.022.411-.369.445-1.002.076-1.412-.372-.413-1.003-.443-1.412-.076-.366.329-.84.511-1.332.511-.889,0-1.793-.586-2.058-1.333-.006-.016-.185-.657-.941-.657s-.938.641-.944.657c-.265.747-1.169,1.333-2.058,1.333-.553,0-1,.447-1,1s.447,1,1,1Zm-12,0c1.738,0,3.396-1.121,3.942-2.667.185-.521-.088-1.092-.609-1.275-.519-.186-1.093.088-1.275.609-.265.747-1.169,1.333-2.058,1.333-.492,0-.966-.182-1.332-.511-.409-.366-1.041-.335-1.412.076-.369.41-.335,1.043.076,1.412.733.659,1.681,1.022,2.668,1.022Zm0,11c1.128,0,2.222-.472,3-1.226.778.754,1.872,1.226,3,1.226s2.225-.481,3.004-1.24c.299.292.635.554,1.02.753.146.075.304.111.458.111.362,0,.712-.197.89-.541.253-.491.061-1.094-.43-1.348-.483-.25-.848-.639-.999-1.068-.006-.017-.206-.656-.937-.656s-.943.64-.949.656c-.265.747-1.169,1.333-2.058,1.333s-1.793-.586-2.058-1.333c-.141-.4-.519-.667-.942-.667s-.802.267-.942.667c-.265.747-1.169,1.333-2.058,1.333-.492,0-.966-.182-1.332-.511-.409-.366-1.041-.335-1.412.076-.369.41-.335,1.043.076,1.412.733.659,1.681,1.022,2.668,1.022Zm-.66-8.596c-.243.116-.429.324-.516.578-.088.254-.069.532.051.772l.974,1.949c.175.351.528.553.896.553.15,0,.303-.034.446-.105.494-.247.694-.848.447-1.342l-.519-1.037,3.842-1.829,1.654,3.369c.243.495.841.7,1.338.457.496-.243.7-.843.457-1.338l-1.942-3.956c.256-.61.999-1.911,2.848-2.527.523-.174.807-.74.632-1.265-.175-.523-.737-.807-1.265-.632-2.777.925-3.822,3.005-4.148,3.878l-5.196,2.474Z"/>
</svg>
