<?xml version="1.0" encoding="UTF-8"?>
<svg xmlns="http://www.w3.org/2000/svg" id="Layer_1" data-name="Layer 1" viewBox="0 0 24 24">
  <path d="m20.5,16h-3.5v-3.5c0-1.93-1.57-3.5-3.5-3.5h-3c-1.93,0-3.5,1.57-3.5,3.5v.5h-3.5c-1.93,0-3.5,1.57-3.5,3.5v4c0,1.93,1.57,3.5,3.5,3.5h17c1.93,0,3.5-1.57,3.5-3.5v-1c0-1.93-1.57-3.5-3.5-3.5Zm-11.5-3.5c0-.827.673-1.5,1.5-1.5h3c.827,0,1.5.673,1.5,1.5v9.5h-6v-9.5Zm-7,8v-4c0-.827.673-1.5,1.5-1.5h3.5v7h-3.5c-.827,0-1.5-.673-1.5-1.5Zm20,0c0,.827-.673,1.5-1.5,1.5h-3.5v-4h3.5c.827,0,1.5.673,1.5,1.5v1Zm0-9c0-.275-.224-.5-.5-.5h-.5c-.552,0-1-.447-1-1s.448-1,1-1c.276,0,.5-.225.5-.5s-.224-.5-.5-.5h-2c-.552,0-1-.447-1-1s.448-1,1-1h2c1.378,0,2.5,1.121,2.5,2.5,0,.424-.107.824-.294,1.175.488.456.794,1.105.794,1.825,0,1.379-1.122,2.5-2.5,2.5h-2.5c-.552,0-1-.447-1-1s.448-1,1-1h2.5c.276,0,.5-.225.5-.5ZM4,6c0-.552-.449-1-1-1s-1,.448-1,1-.448,1-1,1-1-.447-1-1c0-1.654,1.346-3,3-3s3,1.346,3,3c0,1.364-1.267,2.275-2.538,3h1.538c.552,0,1,.447,1,1s-.448,1-1,1H1.608c-.765,0-1.376-.416-1.557-1.06-.188-.669.138-1.374.83-1.795.25-.152.552-.315.876-.49.555-.3,2.243-1.211,2.243-1.655Zm5.293-2.92c-.391-.391-.391-1.023,0-1.414l1.242-1.242c.415-.414,1.033-.536,1.574-.312.542.225.891.748.891,1.334v5.555c0,.553-.448,1-1,1s-1-.447-1-1V2.787l-.293.293c-.39.391-1.023.391-1.414,0Z"/>
</svg>
