<?xml version="1.0" encoding="UTF-8"?>
<svg xmlns="http://www.w3.org/2000/svg" id="Layer_1" data-name="Layer 1" viewBox="0 0 24 24">
  <path d="m24,4.5c0,2.481-2.019,4.5-4.5,4.5h-1.5c-.553,0-1-.448-1-1s.447-1,1-1h1.5c1.379,0,2.5-1.122,2.5-2.5s-1.121-2.5-2.5-2.5h-1.436c-1.248,0-2.313.933-2.479,2.17l-.547,4.103c-.208,1.564-.938,3.041-2.055,4.157L1.707,23.707c-.195.195-.451.293-.707.293s-.512-.098-.707-.293c-.391-.391-.391-1.023,0-1.414l11.277-11.278c.808-.808,1.336-1.875,1.486-3.007l.547-4.103c.298-2.227,2.216-3.905,4.461-3.905h1.436c2.481,0,4.5,2.019,4.5,4.5Z"/>
</svg>
