<?xml version="1.0" encoding="UTF-8"?>
<svg xmlns="http://www.w3.org/2000/svg" id="Layer_1" data-name="Layer 1" viewBox="0 0 24 24">
  <path d="m17.7,9.786c.395.387.4,1.02.014,1.414-.195.2-.455.3-.714.3-.253,0-.505-.095-.7-.286l-3.3-3.234v15.02c0,.552-.448,1-1,1s-1-.448-1-1V7.991l-3.3,3.223c-.395.386-1.028.38-1.414-.015-.386-.394-.38-1.027.015-1.414l4.293-4.207c.385-.385.893-.577,1.403-.578.001,0,.003,0,.004,0,0,0,.002,0,.003,0,.511.001,1.022.196,1.411.585l4.286,4.2Zm1.3-9.786H5C2.243,0,0,2.243,0,5v18c0,.552.448,1,1,1s1-.448,1-1V5c0-1.654,1.346-3,3-3h14c1.654,0,3,1.346,3,3v18c0,.552.447,1,1,1s1-.448,1-1V5c0-2.757-2.243-5-5-5Z"/>
</svg>
