<?xml version="1.0" encoding="UTF-8"?>
<svg xmlns="http://www.w3.org/2000/svg" id="Layer_1" data-name="Layer 1" viewBox="0 0 24 24">
  <path d="m17,11c0-2.757-2.243-5-5-5s-5,2.243-5,5,2.243,5,5,5,5-2.243,5-5Zm-8,0c0-1.654,1.346-3,3-3s3,1.346,3,3-1.346,3-3,3-3-1.346-3-3Zm9.937,11.648c.193.517-.067,1.093-.585,1.288-.115.043-.234.064-.352.064-.404,0-.785-.248-.937-.649-.753-2.004-2.788-3.352-5.063-3.352s-4.311,1.347-5.063,3.352c-.195.518-.772.778-1.288.584-.518-.194-.778-.771-.585-1.288,1.045-2.78,3.832-4.648,6.937-4.648s5.892,1.868,6.937,4.648Zm2.25-5.599c-.304.461-.923.59-1.385.285l-1.27-.836c-.659-.434-.863-1.315-.465-2.005.769-1.332,1.071-2.856.875-4.409-.396-3.144-2.973-5.683-6.126-6.039-2.027-.226-3.973.388-5.479,1.733-1.485,1.328-2.337,3.231-2.337,5.221,0,1.228.322,2.436.932,3.492.397.691.194,1.572-.463,2.007l-1.271.836c-.169.111-.36.165-.549.165-.325,0-.645-.158-.836-.45-.304-.461-.176-1.082.285-1.385l.88-.579c-.642-1.259-.979-2.662-.979-4.085,0-1.433.354-2.825.991-4.077l-.893-.588c-.462-.304-.589-.924-.285-1.385.305-.46.925-.588,1.385-.285l.892.587c.282-.34.581-.667.914-.965,1.399-1.249,3.151-2.016,4.996-2.224v-1.064c0-.552.447-1,1-1s1,.448,1,1v1.056c.014.001.027,0,.041.002,2.333.263,4.418,1.458,5.868,3.194l.892-.588c.462-.304,1.081-.175,1.385.285.304.461.177,1.082-.285,1.385l-.884.582c.463.899.779,1.882.91,2.917.231,1.833-.082,3.639-.905,5.251l.88.58c.461.304.589.924.285,1.385Z"/>
</svg>
