<?xml version="1.0" encoding="UTF-8"?>
<svg xmlns="http://www.w3.org/2000/svg" id="Layer_1" data-name="Layer 1" viewBox="0 0 24 24">
  <path d="m21,13.987s1.637-1.034,2.69-2.008c.509-.471.359-1.311-.272-1.598-.737-.336-2.014-.754-3.419-1.044v-1.409c0-1.664-1.188-3.109-2.824-3.435-3.27-.653-7.083-.653-10.351,0-1.637.326-2.825,1.771-2.825,3.435v1.409c-1.405.291-2.682.709-3.419,1.044-.631.287-.781,1.128-.272,1.598,1.053.974,2.69,2.008,2.69,2.008,0,0-1.864,1.373-2.899,3.263-.355.649.292,1.401.991,1.157,1.304-.456,2.964-.893,4.317-1.165.93-.187,1.592-1.008,1.592-1.957v-.747c1.246-.257,3.049-.538,5-.538s3.752.282,5,.539v.746c0,.948.662,1.77,1.592,1.957,1.353.272,3.013.71,4.317,1.165.698.244,1.346-.508.991-1.157-1.035-1.89-2.899-3.263-2.899-3.263Zm-15-1.28v-4.78c0-.713.512-1.333,1.217-1.474,1.035-.207,2.705-.453,4.783-.453s3.748.247,4.784.453c.704.141,1.216.761,1.216,1.474v4.78c-1.33-.306-3.546-.707-6-.707s-4.67.401-6,.707Z"/>
</svg>
