<?xml version="1.0" encoding="UTF-8"?>
<svg xmlns="http://www.w3.org/2000/svg" id="Layer_1" data-name="Layer 1" viewBox="0 0 24 24">
  <path d="m15.25,14h4.5c2.343,0,4.25-1.915,4.25-4.269,0-1.258-.552-2.43-1.5-3.233v-.499c0-1.125-.373-2.164-1.003-3h.003c.828,0,1.5-.672,1.5-1.5s-.672-1.5-1.5-1.5-1.5.672-1.5,1.5v.171c-.736-.427-1.59-.671-2.5-.671s-1.764.245-2.5.671v-.171c0-.828-.672-1.5-1.5-1.5s-1.5.672-1.5,1.5.672,1.5,1.5,1.5h.003c-.438.582-.752,1.261-.902,2h-3.601C4.589,5,1,8.589,1,13c0,.833.131,1.65.379,2.425l-1.236,2.06c-.284.474-.131,1.088.343,1.372.161.097.338.143.514.143.34,0,.671-.173.858-.485l.574-.956c.435.627.962,1.194,1.569,1.681v1.761c0,1.654,1.346,3,3,3s3-1.346,3-3h3c0,1.654,1.346,3,3,3s3-1.346,3-3v-1.76c.597-.478,1.121-1.037,1.561-1.667.317-.453.207-1.076-.246-1.393-.453-.316-1.076-.206-1.393.246-.408.583-.911,1.085-1.495,1.493-.268.187-.428.493-.428.82v2.26c0,.551-.449,1-1,1s-1-.449-1-1v-1c0-.552-.448-1-1-1h-5c-.552,0-1,.448-1,1v1c0,.551-.449,1-1,1s-1-.449-1-1v-2.25c0-.647-.423-.826-.427-.829-.931-.65-1.644-1.539-2.082-2.551-.021-.157-.079-.309-.17-.441-.21-.614-.321-1.265-.321-1.929,0-3.309,2.691-6,6-6h2.999c-.638.755-.999,1.715-.999,2.731,0,2.354,1.907,4.269,4.25,4.269Zm2.25-11c1.654,0,3,1.346,3,3v1c0,.34.173.657.459.841.651.418,1.041,1.125,1.041,1.89,0,.785-.397,1.478-1,1.885v-.617c0-.552-.448-1-1-1s-1,.448-1,1v1h-3v-1c0-.552-.448-1-1-1s-1,.448-1,1v.617c-.603-.407-1-1.1-1-1.885,0-.765.389-1.472,1.041-1.89.286-.184.459-.501.459-.841v-1c0-1.654,1.346-3,3-3Z"/>
</svg>
