<?xml version="1.0" encoding="UTF-8"?>
<svg xmlns="http://www.w3.org/2000/svg" id="Layer_1" data-name="Layer 1" viewBox="0 0 24 24">
  <path d="m19.281,10.669l3.486-3.486c1.641-1.641,1.641-4.31,0-5.951-.795-.795-1.852-1.232-2.976-1.232s-2.181.438-2.975,1.232l-3.46,3.46-2.814-2.814c-1.134-1.135-3.112-1.132-4.242,0l-2.379,2.378c-1.17,1.169-1.17,3.073,0,4.243l2.639,2.639c-1.78-.333-3.669-.058-5.322.874-.668.376-1.11,1.032-1.216,1.799-.107.784.15,1.553.708,2.111l2.965,2.966-1.404,1.404c-.391.391-.391,1.023,0,1.414.195.195.451.293.707.293s.512-.098.707-.293l1.404-1.404,2.965,2.966c.475.474,1.103.731,1.763.731.115,0,.231-.008.349-.024.767-.105,1.423-.548,1.799-1.215.92-1.633,1.2-3.496.886-5.259l2.65,2.65c.566.566,1.32.878,2.121.878s1.555-.312,2.121-.878l2.379-2.378c.566-.567.879-1.32.879-2.122s-.312-1.555-.879-2.121l-2.861-2.861Zm-1.05-8.023c.834-.834,2.288-.833,3.122,0,.86.861.86,2.262,0,3.123l-9.328,9.327c-.352-.645-.799-1.248-1.336-1.786-.538-.538-1.14-.984-1.785-1.337L18.231,2.646Zm-12.896,3.025l2.38-2.379c.376-.376,1.033-.378,1.413,0l2.814,2.814-3.793,3.793-2.814-2.814c-.39-.39-.39-1.024,0-1.415Zm4.908,16.107c-.091.162-.245.205-.328.216-.078.009-.27.016-.426-.141l-7.345-7.345c-.158-.158-.151-.35-.141-.425.012-.083.055-.237.217-.329.898-.507,1.892-.753,2.879-.753,1.528,0,3.043.591,4.175,1.722,1.861,1.863,2.261,4.764.969,7.054Zm10.484-5.42l-2.379,2.379c-.377.378-1.037.378-1.414,0l-2.862-2.862,3.793-3.793,2.862,2.862c.189.188.293.439.293.707s-.104.518-.293.707Z"/>
</svg>
