<?xml version="1.0" encoding="UTF-8"?>
<svg xmlns="http://www.w3.org/2000/svg" id="Layer_1" data-name="Layer 1" viewBox="0 0 24 24">
  <path d="m12,3h-5v-1c0-.552-.448-1-1-1s-1,.448-1,1v1.046c-1.585.144-3.124.63-4.501,1.426-.478.277-.641.889-.365,1.367.186.32.521.499.867.499.17,0,.342-.043.5-.134,1.072-.621,2.266-1.011,3.499-1.148v2.028c-2.834.477-5,2.948-5,5.916v6.5c0,2.481,2.019,4.5,4.5,4.5h3c2.481,0,4.5-2.019,4.5-4.5v-6.5c0-2.968-2.166-5.439-5-5.916v-2.084h5c.552,0,1-.448,1-1s-.448-1-1-1Zm-2,10v6.5c0,1.378-1.122,2.5-2.5,2.5h-3c-1.207,0-2.217-.86-2.45-2h4.95c.552,0,1-.448,1-1s-.448-1-1-1H2v-5c0-2.206,1.794-4,4-4s4,1.794,4,4ZM23.189.463c-.515-.403-1.172-.542-1.848-.373l-4.408,1.293c-1.156.355-1.934,1.406-1.934,2.616s.78,2.265,1.946,2.62l4.434,1.317c.171.043.345.064.516.064.464,0,.917-.154,1.293-.448.515-.402.811-1.008.811-1.662v-3.766c0-.654-.295-1.259-.811-1.662Zm-1.189,5.428l-.092.117-4.386-1.303c-.312-.095-.522-.378-.522-.705s.209-.609.509-.701l4.449-1.26c.042.033.042.072.042.085v3.766Z"/>
</svg>
