<?xml version="1.0" encoding="UTF-8"?>
<svg xmlns="http://www.w3.org/2000/svg" id="Layer_1" data-name="Layer 1" viewBox="0 0 24 24">
  <path d="m17.98,10.376l-5.98-1.196V3.107c0-1.516-1.076-2.835-2.503-3.067-.88-.142-1.768.102-2.439.674-.672.571-1.058,1.404-1.058,2.286v11.566l-.955-.759c-1.208-1.128-3.107-1.063-4.235.143-1.13,1.208-1.067,3.11.129,4.231l3.71,3.577c1.499,1.445,3.472,2.241,5.554,2.241h6.798c2.757,0,5-2.243,5-5v-3.721c0-2.375-1.69-4.438-4.02-4.903Zm2.02,8.624c0,1.654-1.346,3-3,3h-6.798c-1.562,0-3.041-.597-4.165-1.681l-3.721-3.587c-.402-.378-.424-1.013-.046-1.416.182-.194.429-.307.694-.315.012,0,.023,0,.035,0,.253,0,.496.097.739.32l2.638,2.1c.302.239.711.288,1.058.118.346-.166.565-.517.565-.9V3c0-.294.129-.572.353-.763.228-.193.52-.273.822-.223.463.075.825.555.825,1.093v6.893c0,.477.337.887.804.98l6.784,1.356c1.397.279,2.412,1.518,2.412,2.942v3.721Zm4-15c0,.553-.447,1-1,1h-6.128l1.292,1.293c.391.391.391,1.023,0,1.414-.195.195-.451.293-.707.293s-.512-.098-.707-.293l-2.073-2.074c-.437-.436-.677-1.016-.677-1.633s.24-1.197.678-1.634l2.072-2.073c.391-.391,1.023-.391,1.414,0s.391,1.023,0,1.414l-1.292,1.293h6.128c.553,0,1,.447,1,1Z"/>
</svg>
