<?xml version="1.0" encoding="UTF-8"?>
<svg xmlns="http://www.w3.org/2000/svg" id="Layer_1" data-name="Layer 1" viewBox="0 0 24 24">
  <path d="m2.878,5.771c-.426-.352-.486-.982-.134-1.408C5.033,1.591,8.407,0,12,0s6.967,1.591,9.256,4.363c.352.426.292,1.057-.134,1.408-.187.153-.412.229-.636.229-.288,0-.574-.124-.771-.363-1.909-2.312-4.72-3.637-7.714-3.637s-5.806,1.325-7.714,3.637c-.351.426-.981.486-1.408.135Zm16.836,12.592c-1.909,2.312-4.72,3.637-7.714,3.637s-5.806-1.325-7.714-3.637c-.351-.425-.981-.484-1.408-.135-.426.352-.486.982-.134,1.408,2.29,2.772,5.664,4.363,9.256,4.363s6.967-1.591,9.256-4.363c.352-.426.292-1.057-.134-1.408-.426-.35-1.056-.29-1.408.135ZM7.5,8.019c1.381,0,2.5,1.119,2.5,2.5v3c0,1.381-1.119,2.5-2.5,2.5s-2.5-1.119-2.5-2.5v-3c0-1.381,1.119-2.5,2.5-2.5Zm0,1.6c-.496,0-.9.404-.9.9v3c0,.496.404.9.9.9s.9-.404.9-.9v-3c0-.496-.404-.9-.9-.9Zm6-1.6c1.381,0,2.5,1.119,2.5,2.5v3c0,1.381-1.119,2.5-2.5,2.5s-2.5-1.119-2.5-2.5v-3c0-1.381,1.119-2.5,2.5-2.5Zm0,1.6c-.496,0-.9.404-.9.9v3c0,.496.404.9.9.9s.9-.404.9-.9v-3c0-.496-.404-.9-.9-.9Zm9.25,3.881c-.69,0-1.25.56-1.25,1.25s.56,1.25,1.25,1.25,1.25-.56,1.25-1.25-.56-1.25-1.25-1.25Zm-3.25-4.25c0-.69-.56-1.25-1.25-1.25s-1.25.56-1.25,1.25.56,1.25,1.25,1.25,1.25-.56,1.25-1.25Zm-1.156,6.75c.27,0,.522-.136.67-.363l4.178-6.4c.347-.532-.034-1.237-.67-1.237-.27,0-.522.136-.67.363l-4.178,6.4c-.347.532.034,1.237.67,1.237Zm-15.144.019c.442,0,.8-.358.8-.8v-6.357c0-.476-.385-.861-.861-.861-.233,0-.456.094-.618.262l-1.63,1.682c-.308.317-.299.824.018,1.131.317.307.824.299,1.131-.018l.36-.372v4.532c0,.442.358.8.8.8Z"/>
</svg>
