<?xml version="1.0" encoding="UTF-8"?>
<svg xmlns="http://www.w3.org/2000/svg" id="Layer_1" data-name="Layer 1" viewBox="0 0 24 24">
  <path d="m10,2c0-1.105.895-2,2-2s2,.895,2,2-.895,2-2,2-2-.895-2-2Zm-.648,6.98c.547.102,1.069-.241,1.18-.781.141-.695.759-1.199,1.469-1.199s1.328.504,1.469,1.199c.097.474.514.801.979.801.065,0,.133-.007.2-.02.541-.11.891-.638.781-1.18-.33-1.623-1.772-2.801-3.43-2.801s-3.1,1.178-3.43,2.801c-.109.542.24,1.069.781,1.18Zm11.148-2.98c1.105,0,2-.895,2-2s-.895-2-2-2-2,.895-2,2,.895,2,2,2Zm-15.531,4.199c.097.474.514.801.979.801.065,0,.133-.007.2-.02.541-.11.891-.638.781-1.18-.33-1.623-1.772-2.801-3.43-2.801S.4,8.178.07,9.801c-.109.542.24,1.069.781,1.18.547.104,1.069-.241,1.18-.781.141-.695.759-1.199,1.469-1.199s1.328.504,1.469,1.199Zm-1.469-4.199c1.105,0,2-.895,2-2s-.895-2-2-2-2,.895-2,2,.895,2,2,2Zm20.43,3.801c-.33-1.623-1.772-2.801-3.43-2.801s-3.1,1.178-3.43,2.801c-.109.542.24,1.069.781,1.18.547.104,1.069-.241,1.18-.781.141-.695.759-1.199,1.469-1.199s1.328.504,1.469,1.199c.097.474.514.801.979.801.065,0,.133-.007.2-.02.541-.11.891-.638.781-1.18Zm-4.167,8.751l-4.756-1.783v-4.661c0-1.516-1.076-2.835-2.503-3.067-.879-.142-1.768.102-2.439.674-.672.571-1.058,1.404-1.058,2.286v7.563l-1.015-.808c-.007-.006-.017-.007-.024-.012-1.211-1.052-3.049-.974-4.152.208-1.13,1.208-1.066,3.11.13,4.23l.558.538c.186.18.435.28.694.28.9,0,1.342-1.095.694-1.72l-.568-.548c-.403-.378-.424-1.013-.046-1.416.375-.402,1.008-.421,1.41-.048.01.009.023.011.033.02.011.009,1.739,1.394,1.739,1.394.476.379,1.112.45,1.66.187.548-.265.889-.807.889-1.415v-8.454c0-.294.129-.572.353-.763.228-.192.52-.274.822-.223.463.075.825.555.825,1.093v5.354c0,.417.259.79.648.937l5.405,2.026c1.11.416,1.872,1.449,1.941,2.634.031.531.472.941.997.941.02,0,.039,0,.06-.002.551-.032.972-.505.939-1.057-.115-1.973-1.386-3.696-3.235-4.39Z"/>
</svg>
