<?xml version="1.0" encoding="UTF-8"?>
<svg xmlns="http://www.w3.org/2000/svg" id="Layer_1" data-name="Layer 1" viewBox="0 0 24 24">
  <path d="m6,1c0-.553.448-1,1-1h10c.552,0,1,.447,1,1s-.448,1-1,1H7c-.552,0-1-.447-1-1Zm-2,6h16c.552,0,1-.447,1-1s-.448-1-1-1H4c-.552,0-1,.447-1,1s.448,1,1,1Zm15.5,9h-1.5v-1.5c0-.553-.448-1-1-1s-1,.447-1,1v1.5h-1.5c-.552,0-1,.447-1,1s.448,1,1,1h1.5v1.5c0,.553.448,1,1,1s1-.447,1-1v-1.5h1.5c.552,0,1-.447,1-1s-.448-1-1-1Zm4.5,1c0,3.859-3.14,7-7,7s-7-3.141-7-7,3.14-7,7-7,7,3.141,7,7Zm-2,0c0-2.757-2.243-5-5-5s-5,2.243-5,5,2.243,5,5,5,5-2.243,5-5Zm-13,5h-4c-1.654,0-3-1.346-3-3v-4c0-1.654,1.346-3,3-3h4c.552,0,1-.447,1-1s-.448-1-1-1h-4c-2.757,0-5,2.243-5,5v4c0,2.757,2.243,5,5,5h4c.552,0,1-.447,1-1s-.448-1-1-1Z"/>
</svg>
