<?xml version="1.0" encoding="UTF-8"?>
<svg xmlns="http://www.w3.org/2000/svg" id="Layer_1" data-name="Layer 1" viewBox="0 0 24 24">
  <path d="m8,12c3.309,0,6-2.691,6-6S11.309,0,8,0,2,2.691,2,6s2.691,6,6,6Zm0-10c2.206,0,4,1.794,4,4s-1.794,4-4,4-4-1.794-4-4,1.794-4,4-4Zm1.99,13.211c-.078.547-.583.932-1.131.85-.284-.041-.573-.061-.859-.061-3.309,0-6,2.691-6,6v1c0,.552-.447,1-1,1s-1-.448-1-1v-1c0-4.411,3.589-8,8-8,.38,0,.764.027,1.141.081.547.078.927.584.85,1.131Zm10.01-1.211h-4v-1c0-1.103.897-2,2-2,.568,0,1.111.243,1.492.667.368.411,1,.445,1.412.077.411-.369.445-1.001.076-1.412-.759-.847-1.845-1.332-2.98-1.332-2.206,0-4,1.794-4,4v1.537c-1.195.693-2,1.986-2,3.463v2c0,2.206,1.794,4,4,4h4c2.206,0,4-1.794,4-4v-2c0-2.206-1.794-4-4-4Zm2,6c0,1.103-.897,2-2,2h-4c-1.103,0-2-.897-2-2v-2c0-1.103.897-2,2-2h4c1.103,0,2,.897,2,2v2Zm-2.5-1c0,.828-.672,1.5-1.5,1.5s-1.5-.672-1.5-1.5.672-1.5,1.5-1.5,1.5.672,1.5,1.5Z"/>
</svg>
