<?xml version="1.0" encoding="UTF-8"?>
<svg xmlns="http://www.w3.org/2000/svg" id="Layer_1" data-name="Layer 1" viewBox="0 0 24 24">
  <path d="m23,17c.552,0,1-.448,1-1s-.448-1-1-1h-.964l.106-.881c.066-.548-.325-1.046-.874-1.112-.545-.072-1.046.325-1.112.874l-.134,1.119h-3.135l.106-.881c.066-.548-.325-1.046-.874-1.112-.546-.072-1.046.325-1.112.874l-.134,1.119h-1.373c-.552,0-1,.448-1,1s.448,1,1,1h1.133l-.36,3h-1.272c-.552,0-1,.448-1,1s.448,1,1,1h1.032l-.106.881c-.066.548.262,1.135.994,1.119.499,0,.93-.373.991-.881l.134-1.119h3.135l-.106.881c-.066.548.321,1.125.994,1.119.499,0,.93-.373.991-.881l.134-1.119h1.305c.552,0,1-.448,1-1s-.448-1-1-1h-1.065l.36-3h1.204Zm-3.579,3h-3.135l.36-3h3.135l-.36,3Zm-8.421-5v2c0,.552-.448,1-1,1s-1-.448-1-1v-2c0-.552.448-1,1-1s1,.448,1,1Zm-2,7h-4c-1.654,0-3-1.346-3-3v-6c0-1.654,1.346-3,3-3h10c.916,0,1.769.41,2.342,1.125.345.431.975.499,1.406.155.431-.345.5-.975.155-1.406-.516-.644-1.171-1.133-1.903-1.452v-1.422c0-3.86-3.14-7-7-7S3,3.14,3,7v1.424c-1.763.774-3,2.531-3,4.576v6c0,2.757,2.243,5,5,5h4c.552,0,1-.448,1-1s-.448-1-1-1ZM5,7c0-2.757,2.243-5,5-5s5,2.243,5,5v1H5v-1Z"/>
</svg>
