<?xml version="1.0" encoding="UTF-8"?>
<svg xmlns="http://www.w3.org/2000/svg" id="Layer_1" data-name="Layer 1" viewBox="0 0 24 24">
  <path d="m23.306,14.851c-.193.517-.77.779-1.287.586s-.779-.77-.586-1.287c.476-1.271.653-2.612.529-3.987-.372-4.118-3.604-7.514-7.687-8.075-3.313-.452-6.479.867-8.475,3.531-1.343,1.661-3.719,6.575-3.802,7.406l1.207-.024c.502,0,.926.372.991.869l.334,2.524c.197,1.485,1.476,2.606,2.975,2.606h1.494c.553,0,1,.447,1,1v1c0,.552.448,1,1,1h7c.176,0,.349-.046.5-.134.477-.276,1.09-.113,1.366.366.276.478.112,1.089-.366,1.366-.454.263-.973.401-1.5.401h-7c-1.654,0-3-1.346-3-3h-.494c-2.498,0-4.629-1.867-4.957-4.344l-.219-1.656h-.33c-1.299,0-2-1.03-2-2,0-1.42,2.932-7.014,4.223-8.61C6.638,1.164,10.511-.443,14.547.105c4.996.688,8.952,4.841,9.407,9.877.151,1.677-.066,3.314-.648,4.868Zm-1.599,3.442c.391.391.391,1.023,0,1.414-.195.195-.451.293-.707.293s-.512-.098-.707-.293l-3.822-3.822c-.981.699-2.177,1.115-3.471,1.115-3.309,0-6-2.691-6-6s2.691-6,6-6,6,2.691,6,6c0,1.294-.416,2.49-1.115,3.471l3.822,3.822Zm-8.707-3.293c2.206,0,4-1.794,4-4s-1.794-4-4-4-4,1.794-4,4,1.794,4,4,4Z"/>
</svg>
