<?xml version="1.0" encoding="UTF-8"?>
<svg xmlns="http://www.w3.org/2000/svg" id="Layer_1" data-name="Layer 1" viewBox="0 0 24 24">
  <path d="m22.229,9.336l-2.229-2.216v-2.12c0-2.757-2.243-5-5-5h-6c-2.757,0-5,2.243-5,5v2.074l-2.242,2.243C.625,10.45,0,11.957,0,13.559v5.44c0,1.336.52,2.592,1.464,3.536.944.945,2.2,1.465,3.536,1.465h13.999c2.757,0,5-2.243,5-5v-5.408c0-1.586-.646-3.137-1.771-4.256ZM6,5c0-1.654,1.346-3,3-3h6c1.654,0,3,1.346,3,3v7.273l-3.849,3.848c-1.131,1.131-3.112,1.129-4.243,0l-3.908-3.909v-7.213Zm16,14c0,1.654-1.346,3-3,3H5.001c-.802,0-1.556-.312-2.122-.879-.566-.566-.878-1.32-.878-2.122v-5.441c0-.707.198-1.378.54-1.976l5.953,5.954c.943.942,2.199,1.46,3.536,1.46s2.592-.519,3.535-1.461l5.9-5.9c.335.596.534,1.267.534,1.956v5.408ZM8,5.5c0-.828.672-1.5,1.5-1.5s1.5.672,1.5,1.5-.672,1.5-1.5,1.5-1.5-.672-1.5-1.5Zm5,0c0-.828.672-1.5,1.5-1.5s1.5.672,1.5,1.5-.672,1.5-1.5,1.5-1.5-.672-1.5-1.5Zm-1,3.5c1.657,0,3,1.343,3,3s-1.343,3-3,3-3-1.343-3-3,1.343-3,3-3Z"/>
</svg>
