<?xml version="1.0" encoding="UTF-8"?>
<svg xmlns="http://www.w3.org/2000/svg" id="Layer_1" data-name="Layer 1" viewBox="0 0 24 24">
  <path d="m22.5,6.5c-.317,0-.611.099-.854.267-.587-.591-1.262-1.24-2.01-1.761.836-.734,1.364-1.809,1.364-3.006,0-.553-.448-1-1-1s-1,.447-1,1c0,1.103-.897,2-2,2h-.5c-1.378,0-2.5-1.121-2.5-2.5v-.5c0-.553-.448-1-1-1s-1,.447-1,1v.5c0,.924.28,1.784.76,2.5h-1.26c-1.378,0-2.5-1.121-2.5-2.5v-.5c0-.553-.448-1-1-1s-1,.447-1,1v.5c0,2.481,2.019,4.5,4.5,4.5h1.308c-.616.942-.808,1.988-.808,2.586v.914c0,.275-.224.5-.5.5h-5.331c-1.099,0-2.181.452-2.968,1.24-.076.076-2.924,3.069-2.924,3.069-.381.399-.367,1.032.033,1.414.193.185.442.276.69.276.264,0,.527-.104.723-.31l.351-.367c.118.936.362,1.646.617,2.385.101.293.207.599.31.938v2.354c0,1.654,1.346,3,3,3s3-1.346,3-3v-1h2v1c0,1.654,1.346,3,3,3s3-1.346,3-3v-2.115c.627-.746,2-2.695,2-5.485v-2.026l1.6-.22c.914-.115,1.638-.791,1.842-1.655.019,0,.039.001.058.001.828,0,1.5-.672,1.5-1.5s-.672-1.5-1.5-1.5Zm-2.16,2.67l-1.61.221c-.986.135-1.729.986-1.729,1.981v2.027c0,2.669-1.684,4.37-1.697,4.384-.194.188-.303.446-.303.717v2.5c0,.552-.449,1-1,1s-1-.448-1-1v-2c0-.553-.448-1-1-1h-4c-.552,0-1,.447-1,1v2c0,.552-.449,1-1,1s-1-.448-1-1v-2.5c0-.096-.295-1.084-.418-1.443-.324-.94-.58-1.683-.582-2.953,0-.537.218-1.052.616-1.45.415-.415.98-.653,1.553-.653h5.331c1.378,0,2.5-1.121,2.5-2.5v-.914c0-.265.081-2.586,2.867-2.586,1.183,0,2.546,1.351,3.567,2.385.034.13.066.391.066.615,0,.086-.064.158-.16.17Z"/>
</svg>
