<?xml version="1.0" encoding="UTF-8"?>
<svg xmlns="http://www.w3.org/2000/svg" id="Layer_1" data-name="Layer 1" viewBox="0 0 24 24">
  <path d="m22.5,9h-.5v-1c0-2.757-2.243-5-5-5h-4V1c0-.552-.447-1-1-1s-1,.448-1,1v2h-4c-2.757,0-5,2.243-5,5v1h-.5c-.827,0-1.5.673-1.5,1.5v3c0,.827.673,1.5,1.5,1.5h.5v1c0,2.757,2.243,5,5,5h7.697l3.963,2.642c.36.24.775.361,1.191.361.348,0,.696-.084,1.015-.255.699-.375,1.134-1.1,1.134-1.894v-6.855h.5c.827,0,1.5-.673,1.5-1.5v-3c0-.827-.673-1.5-1.5-1.5Zm-2.5,12.855c0,.022,0,.089-.078.13-.08.043-.136.004-.152-.007l-4.215-2.81c-.164-.109-.357-.168-.555-.168H7c-1.654,0-3-1.346-3-3v-8c0-1.654,1.346-3,3-3h10c1.654,0,3,1.346,3,3v13.855ZM7,9.5c0-.828.672-1.5,1.5-1.5s1.5.672,1.5,1.5-.672,1.5-1.5,1.5-1.5-.672-1.5-1.5Zm10,0c0,.828-.672,1.5-1.5,1.5s-1.5-.672-1.5-1.5.672-1.5,1.5-1.5,1.5.672,1.5,1.5Zm-.153,4.695c.294.468.152,1.085-.315,1.378-1.037.651-2.666,1.427-4.531,1.427s-3.494-.776-4.531-1.427c-.468-.293-.609-.911-.315-1.378.294-.467.911-.609,1.378-.316.815.512,2.079,1.121,3.469,1.121s2.653-.609,3.469-1.121c.466-.294,1.085-.152,1.378.316Z"/>
</svg>
