<?xml version="1.0" encoding="UTF-8"?>
<svg xmlns="http://www.w3.org/2000/svg" id="Layer_1" data-name="Layer 1" viewBox="0 0 24 24">
  <path d="m21,13c-.352,0-.686.072-1,.184v-1.184c0-2.206-1.794-4-4-4h-8c-2.206,0-4,1.794-4,4v1.184c-.314-.112-.648-.184-1-.184-1.654,0-3,1.346-3,3v1.5c0,1.557.795,2.93,2,3.738v1.762c0,.552.448,1,1,1s1-.448,1-1v-1.051c.166.019.329.051.5.051h15c.171,0,.334-.032.5-.051v1.051c0,.552.448,1,1,1s1-.448,1-1v-1.762c1.205-.808,2-2.182,2-3.738v-1.5c0-1.654-1.346-3-3-3Zm-15-1c0-1.103.897-2,2-2h8c1.103,0,2,.897,2,2v4H6v-4Zm16,5.5c0,1.378-1.122,2.5-2.5,2.5H4.5c-1.378,0-2.5-1.122-2.5-2.5v-1.5c0-.551.449-1,1-1s1,.449,1,1v1c0,.552.448,1,1,1h14c.552,0,1-.448,1-1v-1c0-.551.449-1,1-1s1,.449,1,1v1.5ZM.522,5.253c-.308-.27-.522-.75-.522-1.253s.214-.983.588-1.318L2.766.321c.375-.405,1.008-.43,1.413-.055.405.375.43,1.007.055,1.413l-1.222,1.321h17.979l-1.225-1.321c-.375-.406-.351-1.038.055-1.413.405-.376,1.038-.351,1.413.055l2.244,2.426c.308.27.522.75.522,1.253s-.214.983-.588,1.318l-2.178,2.361c-.197.213-.465.321-.734.321-.243,0-.487-.088-.679-.266-.405-.375-.43-1.007-.055-1.413l1.222-1.321H3.009l1.225,1.321c.375.406.351,1.038-.055,1.413-.192.178-.436.266-.679.266-.269,0-.537-.108-.734-.321L.522,5.253Z"/>
</svg>
