<?xml version="1.0" encoding="UTF-8"?>
<svg xmlns="http://www.w3.org/2000/svg" id="Layer_1" data-name="Layer 1" viewBox="0 0 24 24">
  <path d="m8,0h-3C2.243,0,0,2.243,0,5v3c0,1.103.897,2,2,2h6c1.103,0,2-.897,2-2V2c0-1.103-.897-2-2-2ZM2,8v-3c0-1.654,1.346-3,3-3h3v6s-6,0-6,0Zm12,2h6c1.103,0,2-.897,2-2v-3c0-2.757-2.243-5-5-5h-3c-1.103,0-2,.897-2,2v6c0,1.103.897,2,2,2Zm0-8h3c1.654,0,3,1.346,3,3v3s-6,0-6,0V2Zm-6,10H2c-1.103,0-2,.897-2,2v3c0,2.757,2.243,5,5,5h3c1.103,0,2-.897,2-2v-6c0-1.103-.897-2-2-2Zm-3,8c-1.654,0-3-1.346-3-3v-3h6v6s-3,0-3,0Zm18.707,2.293l-2.54-2.54c.524-.791.833-1.736.833-2.753,0-2.757-2.243-5-5-5s-5,2.243-5,5,2.243,5,5,5c1.017,0,1.962-.309,2.753-.833l2.54,2.54c.195.195.451.293.707.293s.512-.098.707-.293c.391-.391.391-1.023,0-1.414Zm-9.707-5.293c0-1.654,1.346-3,3-3s3,1.346,3,3-1.346,3-3,3-3-1.346-3-3Z"/>
</svg>
