<?xml version="1.0" encoding="UTF-8"?>
<svg xmlns="http://www.w3.org/2000/svg" id="Layer_1" data-name="Layer 1" viewBox="0 0 24 24">
  <path d="m23.74,6.24c-.391-.391-1.023-.391-1.414,0l-3.651,3.651c-.711-.377-1.515-.686-2.333-.82l7.364-7.364c.391-.391.391-1.023,0-1.414s-1.023-.391-1.414,0l-7.364,7.364c-.135-.828-.451-1.641-.833-2.358l3.645-3.645c.391-.391.391-1.023,0-1.414s-1.023-.391-1.414,0l-3.381,3.381c-.775-.809-2.223-.785-2.957.073-.69.807-1.468,2.084-1.81,3.448-.753-.252-1.658-.069-2.19.552-.69.807-1.468,2.084-1.81,3.448-.753-.252-1.658-.069-2.19.552-.917,1.072-1.988,2.974-1.988,4.806,0,1.91.967,3.535,1.646,4.44l-1.353,1.353c-.391.391-.391,1.023,0,1.414.195.195.451.293.707.293s.512-.098.707-.293l1.353-1.353c.906.679,2.53,1.646,4.44,1.646,1.832,0,3.733-1.071,4.806-1.988.441-.378.694-.929.694-1.512,0-.236-.042-.467-.121-.683,1.356-.345,2.624-1.118,3.427-1.805.441-.378.694-.929.694-1.512,0-.236-.042-.467-.121-.683,1.356-.345,2.624-1.118,3.427-1.805.441-.378.694-.929.694-1.512,0-.559-.233-1.088-.642-1.464l3.382-3.382c.391-.391.391-1.023,0-1.414Zm-12.248-1.245c.727.849,1.508,2.307,1.508,3.505,0,.894-.491,1.545-.562,1.648l-1.509,1.509c-.145-.885-.495-1.754-.914-2.506.013-.083-.015-.518-.015-.651,0-1.198.781-2.656,1.492-3.505Zm-4,4c.727.849,1.508,2.307,1.508,3.505,0,.894-.491,1.545-.562,1.648l-1.509,1.509c-.145-.885-.495-1.754-.914-2.506.013-.083-.015-.518-.015-.651,0-1.198.781-2.656,1.492-3.505Zm-4,4c.727.849,1.508,2.307,1.508,3.505,0,.894-.491,1.545-.562,1.648l-1.36,1.36c-.487-.702-1.078-1.801-1.078-3.008,0-1.198.781-2.656,1.492-3.505Zm4.008,9.005c-1.207,0-2.307-.592-3.008-1.078l1.36-1.36c.102-.071.754-.562,1.648-.562,1.198,0,2.656.781,3.505,1.492-.849.727-2.307,1.508-3.505,1.508Zm4-4c-.133,0-.57-.029-.655-.017-.751-.418-1.619-.768-2.502-.912l1.509-1.509c.102-.071.754-.562,1.648-.562,1.198,0,2.656.781,3.505,1.492-.849.727-2.307,1.508-3.505,1.508Zm4-4c-.133,0-.57-.029-.654-.016-.751-.418-1.619-.768-2.503-.913l1.509-1.509c.102-.071.754-.562,1.648-.562,1.198,0,2.656.781,3.505,1.492-.849.727-2.307,1.508-3.505,1.508Z"/>
</svg>
