<?xml version="1.0" encoding="UTF-8"?>
<svg xmlns="http://www.w3.org/2000/svg" id="Layer_1" data-name="Layer 1" viewBox="0 0 24 24">
  <path d="m23.302,1.724l-1.026-1.027c-.761-.759-1.943-.915-2.873-.378l-2.98,1.72c-.877.506-1.422,1.449-1.422,2.462v3.086l-4.832,4.832c-1.327-.711-3.02-.51-4.14.606l-4.913,4.899c-1.317,1.312-1.468,3.415-.342,4.787.63.768,1.78,1.289,2.718,1.289.927,0,1.822-.368,2.48-1.024l5.014-5c.663-.661,1.028-1.54,1.028-2.476,0-.595-.148-1.167-.426-1.674l4.826-4.826h3.086c1.013,0,1.956-.545,2.462-1.423l1.719-2.98c.537-.931.382-2.112-.379-2.873Zm-13.728,14.836l-5.015,5c-.3.3-.718.451-1.142.438-.431-.021-.821-.219-1.098-.557-.479-.584-.388-1.507.208-2.102l4.913-4.899c.294-.293.681-.44,1.066-.44s.772.147,1.067.44c.284.283.44.659.44,1.06s-.157.776-.44,1.06ZM21.948,3.598l-1.719,2.98c-.15.261-.43.422-.729.422h-2.5v-2.5c0-.3.161-.579.422-.729l2.98-1.72c.151-.086.34-.061.46.061l1.025,1.026c.121.122.146.311.061.46Z"/>
</svg>
