<?xml version="1.0" encoding="UTF-8"?>
<svg xmlns="http://www.w3.org/2000/svg" id="Layer_1" data-name="Layer 1" viewBox="0 0 24 24">
  <path d="m19,7h-6.5c-.276,0-.5-.225-.5-.5,0-1.073-.375-2.043-1-2.808v-.816c0-1.313-.844-2.429-2.019-2.836-.479-.166-.981.195-.981.702v1.286c-.048-.007-.284-.029-.642-.029s-1.121.129-1.437.229l-3.667,1.324c-.864.311-1.556.939-1.948,1.77-.392.831-.436,1.764-.125,2.628.312.871.975,1.566,1.916,2.012.248.116.736.304,2.105.582.462.093.798.505.798.979v8.985c0,1.925,1.566,3.491,3.508,3.491,1.925,0,3.492-1.566,3.492-3.491v-.509h5v.514c0,1.922,1.563,3.488,3.484,3.492h.007c.93,0,1.805-.361,2.464-1.018.661-.658,1.026-1.534,1.028-2.468l.017-8.521c0-2.757-2.243-5-5-5Zm-14.401,1.584c-1.165-.236-1.542-.38-1.649-.431-.314-.148-.722-.421-.887-.878-.129-.361-.111-.752.053-1.099.164-.348.453-.61.816-.741l3.631-1.312c.142-.045.613-.096,1.01-.115,1.377.101,2.426,1.159,2.426,2.493,0,1.378,1.123,2.499,2.5,2.499h6.5c1.654,0,3,1.346,3,2.998v.037c-.686-.098-1.397.105-1.974.626l-1.319,1.194c-.212.191-.394.193-.605,0l-1.321-1.196c-.968-.875-2.32-.874-3.289,0l-1.319,1.194c-.212.193-.393.193-.605,0l-1.321-1.196c-.956-.861-2.282-.87-3.248-.03v-1.106c0-1.422-1.01-2.658-2.401-2.939Zm16.945,12.987c-.282.28-.655.435-1.053.435h-.003c-.82-.002-1.488-.671-1.488-1.492v-1.514c0-.553-.448-1-1-1h-7c-.552,0-1,.447-1,1v1.509c0,.822-.669,1.491-1.508,1.491-.823,0-1.492-.669-1.492-1.491v-5.187l1.3-1.178c.213-.191.395-.192.605,0l1.321,1.196c.484.438,1.063.655,1.644.655s1.161-.219,1.645-.656l1.32-1.194c.213-.192.394-.192.605,0l1.321,1.196c.969.873,2.32.874,3.289,0l1.319-1.194c.213-.193.394-.193.606,0,.006.006.015.007.022.013l-.013,6.359c0,.398-.157.773-.439,1.055Z"/>
</svg>
