<?xml version="1.0" encoding="UTF-8"?>
<svg xmlns="http://www.w3.org/2000/svg" id="Layer_1" data-name="Layer 1" viewBox="0 0 24 24">
  <path d="m24,8c0,.458-.077.907-.229,1.334-.184.521-.753.794-1.277.608-.521-.185-.792-.756-.608-1.276.075-.212.113-.437.113-.666,0-1.089-.875-1.978-1.958-2-.498,0-1.011-.361-1.082-.854-.175-1.224-1.232-2.146-2.46-2.146-.504,0-.992.151-1.41.438-.403.274-.947.22-1.286-.131-.812-.844-1.897-1.308-3.054-1.308-1.629,0-3.134.963-3.835,2.452-.172.366-.653.645-1.148.552-2.177,0-3.767,1.68-3.767,3.996,0,.856.308,1.669.891,2.35.359.419.311,1.05-.108,1.409-.188.162-.42.241-.65.241-.282,0-.562-.118-.76-.35-.898-1.047-1.373-2.31-1.373-3.65C0,5.694,2.31,3.174,5.424,3.009c1.126-1.847,3.15-3.009,5.326-3.009,1.444,0,2.81.488,3.919,1.39.573-.256,1.194-.39,1.831-.39,1.942,0,3.647,1.274,4.252,3.071,1.847.353,3.248,1.98,3.248,3.929Zm-10.244,13.337c.689,1.181-.163,2.663-1.53,2.663H1.773c-1.367,0-2.218-1.483-1.53-2.663l5.227-8.96c.683-1.171,2.376-1.171,3.059,0l5.227,8.96Zm-5.756.663c0-.552-.448-1-1-1s-1,.448-1,1,.448,1,1,1,1-.448,1-1Zm0-6c0-.552-.448-1-1-1s-1,.448-1,1v3c0,.552.448,1,1,1s1-.448,1-1v-3Zm10.5-5c-.564,0-1.12.088-1.66.263-1.596-1.173-3.715-1.556-5.612-1.018-.532.15-.841.702-.69,1.234.15.53.701.842,1.234.689,1.447-.408,3.078-.043,4.221.979.295.263.718.327,1.078.165.462-.208.943-.313,1.43-.313,1.93,0,3.5,1.57,3.5,3.5s-1.57,3.5-3.5,3.5c-.487,0-.968-.105-1.43-.313-.501-.229-1.095-.004-1.323.5-.227.504-.003,1.096.5,1.322.722.326,1.479.491,2.252.491,3.033,0,5.5-2.468,5.5-5.5s-2.467-5.5-5.5-5.5Z"/>
</svg>
