<?xml version="1.0" encoding="UTF-8"?>
<svg xmlns="http://www.w3.org/2000/svg" id="Layer_1" data-name="Layer 1" viewBox="0 0 24 24">
  <path d="m14.5,7c1.93,0,3.5-1.57,3.5-3.5s-1.57-3.5-3.5-3.5-3.5,1.57-3.5,3.5,1.57,3.5,3.5,3.5Zm0-5c.827,0,1.5.673,1.5,1.5s-.673,1.5-1.5,1.5-1.5-.673-1.5-1.5.673-1.5,1.5-1.5ZM5.5,7c1.93,0,3.5-1.57,3.5-3.5S7.43,0,5.5,0s-3.5,1.57-3.5,3.5,1.57,3.5,3.5,3.5Zm0-5c.827,0,1.5.673,1.5,1.5s-.673,1.5-1.5,1.5-1.5-.673-1.5-1.5.673-1.5,1.5-1.5Zm-.39,8.021c-1.611.178-2.91,1.477-3.088,3.089-.057.512-.49.89-.993.89-.717,0-1.056-.562-.996-1.11.281-2.534,2.323-4.576,4.857-4.856.542-.054,1.043.336,1.104.885s-.335,1.043-.884,1.104Zm3.906,3.985c-.197.209-.462.314-.729.314-.246,0-.492-.09-.685-.271-.701-.659-1.103-1.589-1.103-2.55,0-1.93,1.57-3.5,3.5-3.5.765,0,1.492.242,2.101.701.441.332.53.959.198,1.4-.333.44-.959.53-1.4.197-.26-.195-.571-.299-.899-.299-.827,0-1.5.673-1.5,1.5,0,.418.168.806.473,1.093.402.379.422,1.012.043,1.414Zm-1.181,3.182c.304.462.177,1.082-.285,1.386-.875.576-1.442,1.501-1.556,2.536-.057.511-.49.89-.993.89-.707,0-1.056-.562-.996-1.11.18-1.628,1.071-3.08,2.444-3.985.461-.303,1.081-.176,1.385.284Zm9.165-7.188c-3.86,0-7,3.141-7,7s3.14,7,7,7,7-3.141,7-7-3.14-7-7-7Zm0,12c-2.757,0-5-2.243-5-5s2.243-5,5-5,5,2.243,5,5-2.243,5-5,5Zm3.221-6.212c.383.398.37,1.031-.029,1.414l-2.212,2.124c-.452.446-1.052.671-1.653.671s-1.204-.225-1.664-.674l-1.132-1.108c-.395-.387-.401-1.02-.015-1.414.387-.396,1.02-.401,1.414-.016l1.132,1.108c.144.141.379.142.522,0l2.223-2.134c.399-.382,1.031-.371,1.414.029Z"/>
</svg>
