<?xml version="1.0" encoding="UTF-8"?>
<svg xmlns="http://www.w3.org/2000/svg" id="Layer_1" data-name="Layer 1" viewBox="0 0 24 24">
  <path d="m23.896,13.749l-1.402-9.48c-.359-2.434-2.486-4.269-4.946-4.269h-1.548c-.553,0-1,.447-1,1s.447,1,1,1h1.548c1.476,0,2.752,1.102,2.968,2.562l1.248,8.438h-3.764c-1.629,0-3.065.795-3.978,2.004-.008,0-.014-.004-.022-.004h-4c-.008,0-.014.004-.022.004-.913-1.21-2.349-2.004-3.978-2.004h-3.764l1.248-8.438c.216-1.46,1.492-2.562,2.968-2.562h1.548c.553,0,1-.447,1-1s-.447-1-1-1h-1.548C3.992,0,1.865,1.835,1.506,4.269L.104,13.744c-.069.453-.104.912-.104,1.367v3.889c0,2.757,2.243,5,5,5h1c2.757,0,5-2.243,5-5v-1c0-.342-.035-.677-.101-1h2.202c-.066.323-.101.658-.101,1v1c0,2.757,2.243,5,5,5h1c2.757,0,5-2.243,5-5v-3.889c0-.455-.035-.914-.104-1.362Zm-14.896,5.251c0,1.654-1.346,3-3,3h-1c-1.654,0-3-1.346-3-3,0,0,0-3.963,0-4h3.999c.384,0,.749.079,1.087.211l-3.115,1.94c-.469.292-.612.908-.32,1.377.189.305.516.472.85.472.181,0,.363-.049.527-.151l3.609-2.248c.224.42.362.891.362,1.399v1Zm10,3h-1c-1.654,0-3-1.346-3-3v-1c0-1.654,1.346-3,3-3h2.377l-3.411,2.154c-.467.295-.606.913-.312,1.38.19.301.515.466.847.466.183,0,.367-.05.533-.154l3.966-2.505v2.659c0,1.654-1.346,3-3,3Z"/>
</svg>
