<?xml version="1.0" encoding="UTF-8"?>
<svg xmlns="http://www.w3.org/2000/svg" id="Layer_1" data-name="Layer 1" viewBox="0 0 24 24">
  <path d="m18.63,7.367c-.522-.453-1.016-.881-1.385-1.257-.803-.819-1.245-1.885-1.245-3.062,0-1.654-1.089-3.049-2.744-3.049h-2.663c-1.568,0-2.594,1.539-2.594,3.109,0,1.116-.442,2.182-1.245,3.001-.369.376-.862.804-1.385,1.257C3.104,9.33,0,12.019,0,16.214c-.073,3.099,2.265,5.694,5.211,5.786h1.788v1c0,.553.447,1,1,1s1-.447,1-1v-1h2v1c0,.553.447,1,1,1s1-.447,1-1v-1h2v1c0,.553.447,1,1,1s1-.447,1-1v-1h1.788c2.946-.092,5.284-2.688,5.211-5.763,0-4.219-3.104-6.907-5.369-8.87Zm-12.386,12.633h-.984c-1.846-.065-3.307-1.739-3.259-3.763,0-3.305,2.594-5.553,4.679-7.358.554-.48,1.31-1.195,1.736-1.629-.027.076-.052.158-.08.227-.262.637-.624,1.348-1.008,2.1-1.091,2.14-2.327,4.564-2.327,7.185,0,1.213.471,2.344,1.243,3.239Zm4.257-.052c-1.897,0-3.5-1.46-3.5-3.188,0-2.14,1.12-4.337,2.109-6.276.402-.789.782-1.535,1.075-2.247.116-.283.221-.609.313-.96.093.347.199.673.317.961.293.711.673,1.457,1.075,2.246.989,1.939,2.109,4.137,2.109,6.276,0,1.728-1.603,3.188-3.5,3.188Zm8.257.052h-4c.773-.895,1.243-2.026,1.243-3.239,0-2.62-1.236-5.045-2.327-7.185-.384-.752-.746-1.463-1.008-2.099-.416-1.014-.665-2.818-.665-3.978v-1.451h1c.552,0,1,.448,1,1.061,0,1.643.646,3.206,1.817,4.401.426.435.949.888,1.503,1.368,2.085,1.806,4.679,4.054,4.679,7.382.048,2.005-1.421,3.683-3.242,3.739Z"/>
</svg>
