<?xml version="1.0" encoding="UTF-8"?>
<svg xmlns="http://www.w3.org/2000/svg" id="Layer_1" data-name="Layer 1" viewBox="0 0 24 24">
  <path d="m22.528,13.433c.943-1.137,1.472-2.421,1.472-3.697,0-3.696-3.118-5.393-5.395-6.631-1.281-.697-2.605-1.418-2.605-2.104,0-.552-.447-1-1-1s-1,.448-1,1c0,.686-1.324,1.407-2.605,2.104-1.091.594-2.373,1.296-3.415,2.27-.107-1.873-1.415-3.615-2.531-4.763-.768-.791-2.129-.791-2.896,0C1.388,1.809,0,3.65,0,5.615v14.385c0,2.206,1.794,4,4,4h7c.553,0,1-.448,1-1v-3c0-.551.448-1,1-1,.579,0,1,.469,1,1.115v2.885c0,.552.447,1,1,1s1-.448,1-1v-3c0-.551.448-1,1-1s1,.449,1,1v3c0,.552.447,1,1,1h1c2.206,0,4-1.794,4-4v-4c0-1.094-.595-2.043-1.472-2.567ZM12.351,4.861c.965-.525,1.947-1.06,2.649-1.733.702.673,1.685,1.208,2.649,1.733,2.139,1.164,4.351,2.367,4.351,4.875,0,1.112-.677,2.287-1.858,3.265h-10.28c-1.168-.981-1.862-2.182-1.862-3.265,0-2.508,2.212-3.711,4.351-4.875ZM4.013,2.003c1.263,1.3,1.987,2.616,1.987,3.611v1.385H2v-1.385c0-.995.725-2.311,2.013-3.611Zm1.987,19.997h-2c-1.103,0-2-.897-2-2v-11h4v13Zm16-2c0,1.103-.897,2-2,2v-2c0-1.654-1.346-3-3-3-.771,0-1.474.292-2.005.77-.526-.481-1.223-.77-1.995-.77-1.654,0-3,1.346-3,3v2h-2v-7h13c.552,0,1,.449,1,1v4Z"/>
</svg>
