<?xml version="1.0" encoding="UTF-8"?>
<svg xmlns="http://www.w3.org/2000/svg" id="Layer_1" data-name="Layer 1" viewBox="0 0 24 24">
  <path d="m6.293,8c1.974,0,3.624-1.279,4.099-3h12.607c.552,0,1-.447,1-1s-.448-1-1-1h-12.607c-.475-1.721-2.125-3-4.099-3C4.132,0,0,1.558,0,4s4.132,4,6.293,4Zm0-6c1.241,0,2.25.897,2.25,2s-1.009,2-2.25,2c-1.727,0-4.293-1.312-4.293-2s2.566-2,4.293-2Zm17.034,10.498c-.714-.952-1.806-1.498-2.997-1.498H3.669c-1.19,0-2.283.546-2.997,1.498-.72.961-.939,2.174-.602,3.329.652,2.233,1.834,4.248,3.419,5.826,1.498,1.491,3.613,2.347,5.805,2.347h5.411c2.191,0,4.307-.855,5.805-2.347,1.585-1.578,2.767-3.593,3.419-5.826.337-1.155.118-2.368-.602-3.329Zm-1.318,2.769c-.55,1.883-1.583,3.647-2.911,4.969-1.126,1.122-2.727,1.765-4.394,1.765h-5.411c-1.667,0-3.268-.643-4.394-1.765-1.327-1.321-2.361-3.086-2.911-4.969-.159-.545-.057-1.117.282-1.568.333-.443.842-.698,1.396-.698h16.662c.555,0,1.064.255,1.396.698.339.451.441,1.023.282,1.568Z"/>
</svg>
