<?xml version="1.0" encoding="utf-8"?>
<!-- Generator: Adobe Illustrator 27.2.0, SVG Export Plug-In . SVG Version: 6.00 Build 0)  -->
<svg xmlns="http://www.w3.org/2000/svg" xmlns:xlink="http://www.w3.org/1999/xlink" version="1.1" id="Layer_1" x="0px" y="0px" viewBox="0 0 24 24" style="enable-background:new 0 0 24 24;" xml:space="preserve">
<path d="M24,12c0,0.6-0.4,1-1,1h-1v1c0,0.6-0.4,1-1,1s-1-0.4-1-1v-1h-1c-0.6,0-1-0.4-1-1s0.4-1,1-1h1v-1c0-0.6,0.4-1,1-1s1,0.4,1,1  v1h1C23.6,11,24,11.4,24,12z M21.8,17.2c-0.5-0.3-1.1-0.2-1.4,0.3c-1.9,2.8-5,4.5-8.4,4.5C6.5,22,2,17.5,2,12S6.5,2,12,2  c3.4,0,6.5,1.7,8.4,4.5c0.3,0.5,0.9,0.6,1.4,0.3c0.5-0.3,0.6-0.9,0.3-1.4C19.8,2,16.1,0,12,0C5.4,0,0,5.4,0,12s5.4,12,12,12  c4.1,0,7.8-2,10.1-5.5C22.4,18.1,22.2,17.5,21.8,17.2z M11,10c0-1.7-1.3-3-3-3s-3,1.3-3,3c0,0.6,0.4,1,1,1s1-0.4,1-1s0.4-1,1-1  s1,0.4,1,1c0,1.2-0.9,2-2,2.9c-1,0.9-2,1.8-2,3.1c0,0.6,0.4,1,1,1h4c0.6,0,1-0.4,1-1s-0.4-1-1-1H7.7c0.2-0.2,0.4-0.4,0.7-0.6  C9.5,13.4,11,12.1,11,10z M16,17c0.6,0,1-0.4,1-1V8.3c0-0.5-0.3-1-0.8-1.2c-0.5-0.2-1.1-0.1-1.4,0.3L13,9.3c-0.4,0.4-0.3,1,0.1,1.4  c0.4,0.4,1,0.3,1.4-0.1l0.5-0.6V16C15,16.6,15.4,17,16,17z"/>
</svg>
