<?xml version="1.0" encoding="UTF-8"?>
<svg xmlns="http://www.w3.org/2000/svg" id="Layer_1" data-name="Layer 1" viewBox="0 0 24 24">
  <path d="m19,8h1.374c1.249,0,2.395-.86,2.593-2.094.15-.932-.227-1.774-.868-2.312.264-.386.414-.855.4-1.36-.036-1.268-1.171-2.234-2.439-2.234h-1.06c-.552,0-1,.448-1,1v6c0,.552.448,1,1,1Zm.6-6.4h.6c.386,0,.7.314.7.7s-.314.7-.7.7h-.6v-1.4Zm0,3h.9c.496,0,.9.404.9.9s-.404.9-.9.9h-.9v-1.8ZM1.778,10.999c.365,0,.68-.254.759-.61l.175-.79h2.379l.161.765c.078.37.404.634.782.634.507,0,.886-.467.782-.963l-1.137-5.409c-.135-.668-.523-1.213-1.035-1.459-.232-.112-.476-.168-.718-.168-.282,0-.561.075-.816.225-.471.277-.809.776-.926,1.356l-1.165,5.479c-.103.484.266.939.76.939Zm1.974-6.103c.03-.149.105-.253.176-.296l.017.006c.024.016.121.118.168.349l.641,3.044h-1.688l.686-3.104Zm19.07,4.62L.821,13.516c-.544.099-.904.62-.805,1.163.087.483.508.821.982.821.06,0,9.668-1.741,9.668-1.741l-2.562,7.167c-.229.788-.084,1.633.388,2.261.389.518.959.814,1.565.814h3.883c.606,0,1.177-.296,1.565-.814.472-.627.617-1.473.369-2.319l-2.705-7.563,10.008-1.82c.544-.099.904-.62.805-1.163-.098-.543-.618-.899-1.162-.805Zm-8.88,12.484l-3.821.015c-.057-.039-.173-.263-.113-.475l1.993-5.572,1.975,5.514c.078.271-.038.494-.033.518Z"/>
</svg>
