<?xml version="1.0" encoding="UTF-8"?>
<svg xmlns="http://www.w3.org/2000/svg" id="Layer_1" data-name="Layer 1" viewBox="0 0 24 24">
  <path d="m19,0H5C2.243,0,0,2.243,0,5v14c0,2.757,2.243,5,5,5h14c2.757,0,5-2.243,5-5V5c0-2.757-2.243-5-5-5Zm3,19c0,1.654-1.346,3-3,3H5c-1.654,0-3-1.346-3-3V5c0-1.654,1.346-3,3-3h14c1.654,0,3,1.346,3,3v14Zm-10-11v5c0,2.206-1.794,4-4,4s-4-1.794-4-4v-5c0-.552.447-1,1-1s1,.448,1,1v5c0,1.103.897,2,2,2s2-.897,2-2v-5c0-.552.447-1,1-1s1,.448,1,1Zm7.871.49l-1.974,3.51,1.974,3.51c.271.481.101,1.091-.381,1.362-.155.087-.323.128-.489.128-.35,0-.688-.184-.872-.51l-1.379-2.451-1.379,2.451c-.183.326-.522.51-.872.51-.166,0-.334-.041-.489-.128-.481-.271-.652-.88-.381-1.362l1.974-3.51-1.974-3.51c-.271-.481-.101-1.091.381-1.362.482-.271,1.09-.1,1.361.381l1.379,2.451,1.379-2.451c.27-.481.878-.653,1.361-.381.481.271.652.88.381,1.362Z"/>
</svg>
