<?xml version="1.0" encoding="UTF-8"?>
<svg xmlns="http://www.w3.org/2000/svg" id="Layer_1" data-name="Layer 1" viewBox="0 0 24 24">
  <path d="m21.499,0l-5,.002c-1.375,0-2.499,1.126-2.499,2.5v6.852c.001,1.069,1.206,1.695,2.081,1.081l2.047-1.436h3.372c1.381,0,2.5-1.119,2.5-2.5v-4C24,1.119,22.88,0,21.499,0Zm.484,4.24l-2.084,2.147c-.796.823-2.118.817-2.905-.015l-.769-.813c-.367-.388-.364-.995.006-1.379.395-.411,1.054-.408,1.445.006l.777.821,2.092-2.156c.391-.405,1.04-.407,1.433-.004.378.387.38,1.004.004,1.394Zm-14.483,7.76c3.032,0,5.5-2.467,5.5-5.5S10.532,1,7.5,1,2,3.467,2,6.5s2.468,5.5,5.5,5.5Zm0-9c1.93,0,3.5,1.57,3.5,3.5s-1.57,3.5-3.5,3.5-3.5-1.57-3.5-3.5,1.57-3.5,3.5-3.5Zm7.5,18.5v1.5c0,.552-.447,1-1,1s-1-.448-1-1v-1.5c0-3.033-2.468-5.5-5.5-5.5s-5.5,2.467-5.5,5.5v1.5c0,.552-.447,1-1,1s-1-.448-1-1v-1.5c0-4.136,3.364-7.5,7.5-7.5s7.5,3.364,7.5,7.5Z"/>
</svg>
