<?xml version="1.0" encoding="UTF-8"?>
<svg xmlns="http://www.w3.org/2000/svg" id="Layer_1" data-name="Layer 1" viewBox="0 0 24 24">
  <path d="m24,11.986c0-1.93-1.57-3.5-3.5-3.5-.006,0-.011.002-.016.002l-1.551-2.481c.656-.637,1.067-1.523,1.067-2.507,0-1.93-1.57-3.5-3.5-3.5-1.58,0-2.903,1.059-3.337,2.5h-2.326c-.434-1.441-1.757-2.5-3.337-2.5-1.93,0-3.5,1.57-3.5,3.5,0,.984.411,1.87,1.067,2.507l-1.551,2.481c-.006,0-.011-.002-.016-.002-1.93,0-3.5,1.57-3.5,3.5s1.57,3.5,3.5,3.5l1.567,2.507c-.656.637-1.067,1.523-1.067,2.507,0,1.93,1.57,3.5,3.5,3.5,1.58,0,2.903-1.059,3.337-2.5h2.326c.434,1.441,1.757,2.5,3.337,2.5,1.93,0,3.5-1.57,3.5-3.5,0-.984-.411-1.87-1.067-2.507l1.567-2.507c1.93,0,3.5-1.57,3.5-3.5Zm-2,0c0,.827-.673,1.5-1.5,1.5s-1.5-.673-1.5-1.5.673-1.5,1.5-1.5,1.5.673,1.5,1.5Zm-5.5-9.986c.827,0,1.5.673,1.5,1.5s-.673,1.5-1.5,1.5-1.5-.673-1.5-1.5.673-1.5,1.5-1.5Zm-9,0c.827,0,1.5.673,1.5,1.5s-.673,1.5-1.5,1.5-1.5-.673-1.5-1.5.673-1.5,1.5-1.5ZM2,11.986c0-.827.673-1.5,1.5-1.5s1.5.673,1.5,1.5-.673,1.5-1.5,1.5-1.5-.673-1.5-1.5Zm5.5,10.014c-.827,0-1.5-.673-1.5-1.5s.673-1.5,1.5-1.5,1.5.673,1.5,1.5-.673,1.5-1.5,1.5Zm9,0c-.827,0-1.5-.673-1.5-1.5s.673-1.5,1.5-1.5,1.5.673,1.5,1.5-.673,1.5-1.5,1.5Zm0-5c-1.58,0-2.903,1.059-3.337,2.5h-2.326c-.434-1.441-1.757-2.5-3.337-2.5-.224,0-.442.026-.655.066l-1.371-2.194c.92-.631,1.526-1.689,1.526-2.886s-.602-2.245-1.515-2.877l1.36-2.176c.213.041.431.066.655.066,1.58,0,2.903-1.059,3.337-2.5h2.326c.434,1.441,1.757,2.5,3.337,2.5.224,0,.442-.026.655-.066l1.36,2.176c-.913.632-1.515,1.685-1.515,2.877s.606,2.255,1.526,2.886l-1.371,2.194c-.213-.04-.43-.066-.655-.066Zm-.168-7.496c-.275-.478-.886-.644-1.365-.367l-.568.327c-.391-.37-.87-.642-1.399-.801v-.663c0-.552-.447-1-1-1s-1,.448-1,1v.663c-.529.159-1.007.431-1.399.801l-.568-.327c-.479-.277-1.091-.111-1.365.367-.276.479-.111,1.09.367,1.366l.567.327c-.061.259-.102.526-.102.804s.041.544.102.803l-.568.328c-.479.276-.643.888-.366,1.366.186.32.521.5.867.5.17,0,.342-.043.499-.134l.567-.328c.391.37.87.642,1.398.801v.663c0,.553.447,1,1,1s1-.447,1-1v-.663c.529-.159,1.007-.431,1.398-.801l.568.328c.157.091.329.134.498.134.346,0,.683-.18.867-.501.276-.479.111-1.09-.367-1.365l-.567-.327c.061-.259.102-.526.102-.804s-.041-.544-.102-.804l.567-.327c.479-.275.644-.887.367-1.366Zm-4.332,3.996c-.827,0-1.5-.673-1.5-1.5s.673-1.5,1.5-1.5,1.5.673,1.5,1.5-.673,1.5-1.5,1.5Z"/>
</svg>
