<?xml version="1.0" encoding="UTF-8"?>
<svg xmlns="http://www.w3.org/2000/svg" id="Layer_1" data-name="Layer 1" viewBox="0 0 24 24">
  <path d="m14.5,7h-2.5c-.552,0-1,.448-1,1v9c0,.552.448,1,1,1s1-.448,1-1v-3h1.302c1.895,0,3.594-1.419,3.693-3.312.106-2.018-1.5-3.688-3.495-3.688Zm0,5h-1.5v-3h1.5c.827,0,1.5.673,1.5,1.5s-.673,1.5-1.5,1.5Zm6.5-4v9c0,.552-.448,1-1,1s-1-.448-1-1v-9c0-.552.448-1,1-1s1,.448,1,1Zm-11.983,8.556c.298.681-.201,1.444-.944,1.444-.405,0-.773-.238-.94-.607l-1.981-4.393h-1.153v4c0,.552-.448,1-1,1s-1-.448-1-1v-9c0-.552.448-1,1-1s1,.448,1,1v3h.829l2.048-3.485c.187-.319.53-.515.9-.515.799,0,1.301.86.909,1.556l-1.783,3.167,2.114,4.834Z"/>
</svg>
