<?xml version="1.0" encoding="UTF-8"?>
<svg xmlns="http://www.w3.org/2000/svg" id="Layer_1" data-name="Layer 1" viewBox="0 0 24 24">
  <path d="m24.001,3.999c0-2.205-1.796-3.999-4-3.999h-11c-1.069,0-2.073.416-2.829,1.172-.755.756-1.171,1.761-1.171,2.83v.992s0,.004,0,.007.001.004.001.007l.002,4.719c0,.25-.092.489-.261.674l-3.344,3.667c-2.109,2.636-1.796,6.469.696,8.544,1.077.896,2.439,1.39,3.837,1.39,1.259,0,2.502-.41,3.517-1.144,1.016.728,2.23,1.144,3.483,1.144,1.835,0,3.544-.821,4.663-2.222l4.212-4.861c1.418-1.637,2.198-3.731,2.197-5.897l-.002-7.022Zm-2,0h0s-8,0-8,0c0-.534.208-1.036.585-1.414.378-.378.881-.586,1.415-.586h4c1.103,0,1.999.897,2,2Zm-13-2h3.553c-.351.603-.553,1.283-.553,2h-5c0-.534.208-1.036.585-1.414.378-.378.88-.586,1.415-.586ZM3.373,21.073c-1.661-1.383-1.847-3.966-.456-5.708l3.302-3.618c.506-.555.785-1.274.784-2.024v-3.724s4.999,0,4.999,0v3.724c.001.251-.091.491-.26.675l-3.344,3.667c-1.747,2.184-1.808,5.177-.368,7.324-1.414.859-3.365.758-4.656-.317Zm16.921-5.465l-4.237,4.891c-.763.954-1.902,1.501-3.126,1.501-.931,0-1.839-.329-2.558-.927-1.661-1.383-1.847-3.966-.456-5.708l3.302-3.618c.506-.554.784-1.272.784-2.024v-3.724s7.999,0,7.999,0v5.021c.002,1.685-.605,3.313-1.708,4.586Z"/>
</svg>
