<?xml version="1.0" encoding="UTF-8"?>
<svg xmlns="http://www.w3.org/2000/svg" id="Layer_1" data-name="Layer 1" viewBox="0 0 24 24">
  <path d="m9,20h-2.002c0,.05.002.31.002.31,0,.932.758,1.69,1.69,1.69h1.31c.552,0,1,.448,1,1s-.448,1-1,1h-1.31c-2.035,0-3.69-1.655-3.69-3.69v-.161c0-1.666-.757-3.288-2.132-4.567C.719,13.583-.298,10.754.075,7.822.59,3.782,3.904.517,7.956.059c4.451-.504,8.65,2.374,9.761,6.692.138.535-.185,1.08-.72,1.217-.527.139-1.08-.183-1.218-.719-.877-3.413-4.076-5.6-7.599-5.203-3.147.355-5.721,2.891-6.121,6.029-.292,2.285.5,4.488,2.17,6.043,1.2,1.117,2.038,2.451,2.458,3.881h1.312v-7.172c-1.164-.413-2-1.524-2-2.828,0-.552.448-1,1-1s1,.448,1,1,.449,1,1,1,1-.449,1-1,.448-1,1-1,1,.448,1,1c0,1.304-.836,2.415-2,2.828v8.172c0,.552-.448,1-1,1Zm14.562.5c-.186.321-.521.5-.867.5-.17,0-.342-.043-.499-.134l-.956-.552c-.706.795-1.66,1.365-2.74,1.585v1.101c0,.552-.447,1-1,1s-1-.448-1-1v-1.101c-1.08-.22-2.035-.79-2.74-1.585l-.956.552c-.158.091-.33.134-.499.134-.346,0-.682-.179-.867-.5-.276-.479-.112-1.09.366-1.366l.953-.55c-.167-.498-.257-1.03-.257-1.583s.091-1.086.257-1.583l-.953-.55c-.478-.276-.642-.888-.366-1.366s.886-.643,1.366-.366l.956.552c.706-.795,1.66-1.365,2.74-1.585v-1.101c0-.552.447-1,1-1s1,.448,1,1v1.101c1.08.22,2.035.79,2.74,1.585l.956-.552c.477-.276,1.089-.112,1.366.366.276.479.112,1.09-.366,1.366l-.953.55c.167.498.257,1.03.257,1.583s-.091,1.086-.257,1.583l.953.55c.479.276.643.888.366,1.366Zm-3.062-3.5c0-1.654-1.346-3-3-3s-3,1.346-3,3,1.346,3,3,3,3-1.346,3-3Z"/>
</svg>
