<?xml version="1.0" encoding="UTF-8"?>
<svg xmlns="http://www.w3.org/2000/svg" id="Layer_1" data-name="Layer 1" viewBox="0 0 24 24">
  <path d="m15,10.419v.008c-.484.211-.944.502-1.36.874l-1.064.979c-.326.3-.827.3-1.153,0l-1.093-1.006c-.406-.364-.856-.648-1.33-.855,0-1.336,1.083-2.419,2.419-2.419h1.161c1.336,0,2.419,1.083,2.419,2.419Zm-7-6.419c1.105,0,2-.895,2-2s-.895-2-2-2-2,.895-2,2,.895,2,2,2Zm4,3c1.105,0,2-.895,2-2s-.895-2-2-2-2,.895-2,2,.895,2,2,2Zm4-3c1.105,0,2-.895,2-2s-.895-2-2-2-2,.895-2,2,.895,2,2,2Zm5,0c-1.194,0-2.219.706-2.701,1.718-.438-.443-1.046-.718-1.718-.718h-.581c0,.618-.147,1.198-.401,1.717.761.576,1.271,1.45,1.367,2.45v.842c.347-.003.693.03,1.034.098v2.079c-1-.351-2.155-.174-3.005.587l-3.008,2.768c-.082-.084-.16-.172-.247-.252l-2.744-2.525c-.843-.756-1.996-.931-2.996-.579v-2.083c.34-.069.686-.102,1.032-.1v-.815c.091-1.009.603-1.891,1.369-2.471-.253-.519-.401-1.099-.401-1.717h-.581c-.672,0-1.28.275-1.718.718-.483-1.012-1.507-1.718-2.701-1.718-1.654,0-3,1.346-3,3v10.101c0,2.137.832,4.146,2.343,5.657l.95.95c.195.195.451.293.707.293s.512-.098.707-.293c.391-.391.391-1.023,0-1.414l-.95-.95c-1.133-1.133-1.757-2.64-1.757-4.243V7c0-.551.449-1,1-1s1,.449,1,1c0,0-.005,8.077,0,8.118.03.654.286,1.308.747,1.854l2.616,2.721c.384.399,1.016.411,1.414.028.398-.383.411-1.016.028-1.414l-2.57-2.671c-.317-.377-.308-.938.021-1.305.367-.41.999-.443,1.397-.086l2.734,2.516c1.026.944,1.615,2.285,1.615,3.68v2.559c0,.552.448,1,1,1s1-.448,1-1v-2.559c0-1.152-.294-2.275-.824-3.276l3.163-2.911c.409-.366,1.04-.332,1.406.077.16.179.474.848.066,1.255s-2.533,2.634-2.533,2.634c-.383.398-.371,1.031.028,1.414.194.187.443.279.693.279.262,0,.524-.103.721-.307l2.578-2.684c.449-.535.701-.871.701-1.922V7c0-.551.449-1,1-1s1,.449,1,1v10.101c0,1.603-.624,3.109-1.757,4.243l-.95.95c-.391.391-.391,1.023,0,1.414.195.195.451.293.707.293s.512-.098.707-.293l.95-.95c1.511-1.511,2.343-3.52,2.343-5.657V7c0-1.654-1.346-3-3-3Z"/>
</svg>
