<?xml version="1.0" encoding="UTF-8"?>
<svg xmlns="http://www.w3.org/2000/svg" id="Layer_1" data-name="Layer 1" viewBox="0 0 24 24">
  <path d="m14.613,9.472c.246-.435.387-.937.387-1.472,0-1.654-1.346-3-3-3h-1c-1.103,0-2,.897-2,2v6c0,1.103.897,2,2,2h2c1.654,0,3-1.346,3-3,0-1.061-.554-1.995-1.387-2.528Zm-3.613-2.472h1c.552,0,1,.449,1,1s-.448,1-1,1h-1v-2Zm2,6h-2v-2h2c.552,0,1,.449,1,1s-.448,1-1,1Zm10.615,5.58l-3.2-3.199c.998-1.555,1.585-3.399,1.585-5.381C22,4.486,17.514,0,12,0S2,4.486,2,10c0,1.991.591,3.843,1.598,5.403l-3.179,3.179c-.412.414-.531,1.006-.31,1.546.223.545.728.884,1.317.884h1.562v1.562c0,.893.729,1.427,1.434,1.427.376,0,.72-.145.997-.42l3.944-3.944c.841.231,1.722.364,2.636.364.924,0,1.814-.136,2.664-.371l3.953,3.953c.275.273.619.418.995.418.705,0,1.434-.534,1.434-1.427v-1.562h1.562c.59,0,1.095-.339,1.316-.883.223-.541.104-1.134-.31-1.548Zm-18.626,2.603v-2.171h-2.172l2.033-2.033c.724.741,1.56,1.371,2.483,1.86l-2.345,2.345Zm-.989-11.183c0-4.411,3.589-8,8-8s8,3.589,8,8-3.589,8-8,8-8-3.589-8-8Zm15.046,9.011v2.171l-2.356-2.356c.921-.492,1.755-1.124,2.476-1.867l2.052,2.052h-2.172Z"/>
</svg>
