<?xml version="1.0" encoding="UTF-8"?>
<svg xmlns="http://www.w3.org/2000/svg" id="Layer_1" data-name="Layer 1" viewBox="0 0 24 24">
  <path d="m23.018,8.785c-.595-.542-1.356-.821-2.169-.782-.804.037-1.545.386-2.085.981l-3.217,3.534c-.551-.909-1.551-1.519-2.689-1.519h-3.857v-1h.376c1.447,0,2.624-1.177,2.624-2.624,0-1.288-.923-2.377-2.193-2.588l-3.285-.548c-.302-.05-.521-.309-.521-.616,0-.344.28-.624.624-.624h2.644c.356,0,.688.192.867.5.275.478.885.642,1.366.365.478-.277.642-.888.364-1.366-.534-.925-1.53-1.5-2.598-1.5h-.268c0-.552-.447-1-1-1s-1,.448-1,1h-.376c-1.447,0-2.624,1.177-2.624,2.624,0,1.288.923,2.377,2.193,2.588l3.285.548c.302.05.521.309.521.616,0,.344-.28.624-.624.624h-2.644c-.356,0-.688-.192-.867-.5-.275-.479-.886-.643-1.366-.365-.478.277-.642.888-.364,1.366.534.925,1.53,1.499,2.598,1.499h.268v1h-3c-2.206,0-4,1.794-4,4v5c0,2.206,1.794,4,4,4h4.965c2.85,0,5.57-1.22,7.467-3.348l6.804-7.637c1.094-1.225.996-3.123-.218-4.23Zm-1.275,2.899l-6.805,7.638c-1.517,1.702-3.693,2.678-5.973,2.678h-4.965c-1.103,0-2-.897-2-2v-5c0-1.103.897-2,2-2h8.857c.63,0,1.143.512,1.143,1.142,0,.564-.422,1.051-.98,1.131l-5.161.737c-.547.078-.927.584-.849,1.131.078.546.584.922,1.132.848l5.161-.737c1.175-.168,2.128-.988,2.514-2.058l4.427-4.865c.181-.2.43-.316.699-.329.271-.007.528.082.728.262.407.372.44,1.009.072,1.421Zm-8.742-7.668c0-.552.447-1,1-1h4.076l-1.29-1.316c-.387-.395-.381-1.028.014-1.415.393-.385,1.028-.381,1.414.014l2.177,2.221c.391.39.609.917.609,1.479s-.219,1.09-.616,1.487l-2.17,2.213c-.195.2-.455.3-.714.3-.253,0-.506-.095-.7-.286-.395-.387-.4-1.02-.014-1.415l1.258-1.284h-4.044c-.553,0-1-.448-1-1Z"/>
</svg>
