<?xml version="1.0" encoding="UTF-8"?>
<svg xmlns="http://www.w3.org/2000/svg" id="Layer_1" data-name="Layer 1" viewBox="0 0 24 24">
  <path d="m21,23c0,.553-.447,1-1,1H4c-.553,0-1-.447-1-1s.447-1,1-1h16c.553,0,1,.447,1,1Zm-2.814-12.181l-14.58,6.262c-.508.218-.742.806-.524,1.313.163.379.531.605.919.605.132,0,.266-.026.395-.081l14.58-6.262c1.249-.537,2.025-1.746,2.025-3.157s-.776-2.62-2.025-3.157L4.395.081c-.508-.218-1.095.017-1.313.524-.218.507.017,1.095.524,1.313l14.58,6.262c.601.258.814.851.814,1.319s-.214,1.061-.814,1.319Z"/>
</svg>
