<?xml version="1.0" encoding="UTF-8"?>
<svg xmlns="http://www.w3.org/2000/svg" id="Layer_1" data-name="Layer 1" viewBox="0 0 24 24">
  <path d="m23.641,10.76l-.901-2.704c-.609-1.827-2.312-3.056-4.239-3.056-1.378,0-2.5,1.121-2.5,2.5v9.5H1c-.552,0-1,.447-1,1v1.5c0,.987.42,1.933,1.152,2.596.645.584,1.488.904,2.356.904.116,0,.233-.006.35-.018.824-.083,1.564-.476,2.119-1.059.637.663,1.533,1.077,2.523,1.077,1.93,0,3.5-1.57,3.5-3.5v-.5h4v.5c0,1.93,1.57,3.5,3.5,3.5s3.5-1.57,3.5-3.5v-.769c.597-.346,1-.992,1-1.731v-4.026c0-.753-.121-1.498-.359-2.214Zm-5.641,6.24v-4h4v4h-4Zm.5-10c1.064,0,2.005.679,2.342,1.688l.771,2.312h-3.612v-3.5c0-.275.224-.5.5-.5ZM3.659,20.992c-.436.038-.847-.092-1.165-.38-.319-.288-.494-.683-.494-1.112v-.5h3v.357c0,.841-.589,1.56-1.341,1.635Zm6.341-1.492c0,.827-.673,1.5-1.5,1.5s-1.5-.673-1.5-1.5v-.5h3v.5Zm9.5,1.5c-.827,0-1.5-.673-1.5-1.5v-.5h3v.5c0,.827-.673,1.5-1.5,1.5Z"/>
</svg>
