<?xml version="1.0" encoding="UTF-8"?>
<svg xmlns="http://www.w3.org/2000/svg" id="Layer_1" data-name="Layer 1" viewBox="0 0 24 24">
  <path d="m9,15h-.79l.721-6h4.152c.293,0,.565-.126.776-.329,1.077-1.033,2.534-1.671,4.141-1.671,1.771,0,3.36.776,4.46,2h.54c.507,0,.934-.38.993-.883.07-.595-.395-1.117-.993-1.117h-4.946l.707-5.882c.071-.595-.393-1.118-.992-1.118-.505,0-.931.378-.992.88l-.735,6.12h-6.871l.707-5.881c.066-.548-.325-1.046-.874-1.112-.546-.07-1.046.325-1.112.874l-.735,6.119H1.831c-.507,0-.934.38-.993.883-.07.594.395,1.117.993,1.117h5.086l-.721,6H1c-.552,0-1,.448-1,1s.448,1,1,1h4.956l-.707,5.881c-.066.548.325,1.046.874,1.112.577,0,1.051-.366,1.112-.874l.735-6.119h1.03c.552,0,1-.448,1-1s-.448-1-1-1Z"/>
  <circle cx="18" cy="19" r="1.5"/>
  <path d="m22,14.556v-1.556c0-2.206-1.794-4-4-4s-4,1.794-4,4v1.556c-1.19.694-2,1.97-2,3.444v2c0,2.206,1.794,4,4,4h4c2.206,0,4-1.794,4-4v-2c0-1.474-.81-2.75-2-3.444Zm-6-1.556c0-1.103.897-2,2-2s2,.897,2,2v1h-4v-1Zm6,7c0,1.103-.897,2-2,2h-4c-1.103,0-2-.897-2-2v-2c0-1.103.897-2,2-2h4c1.103,0,2,.897,2,2v2Z"/>
</svg>
