<?xml version="1.0" encoding="UTF-8"?>
<svg xmlns="http://www.w3.org/2000/svg" id="Layer_1" data-name="Layer 1" viewBox="0 0 24 24">
  <path d="m21,17h-1V4c0-2.206-1.794-4-4-4H3.5C1.57,0,0,1.57,0,3.5v.5c0,1.654,1.346,3,3,3h2v13.5c0,1.929,1.569,3.499,3.499,3.5h12.001c1.93,0,3.5-1.57,3.5-3.5v-.5c0-1.654-1.346-3-3-3ZM3,5c-.551,0-1-.449-1-1v-.5c0-.827.673-1.5,1.5-1.5s1.5.673,1.5,1.5v1.5h-2Zm7,15v.5c0,.827-.673,1.5-1.5,1.5s-1.5-.673-1.5-1.5v-5.5h4c.552,0,1-.448,1-1s-.448-1-1-1h-4v-6h3c.552,0,1-.448,1-1s-.448-1-1-1h-3v-1.5c0-.539-.133-1.044-.351-1.5h9.351c1.103,0,2,.897,2,2v5h-3c-.553,0-1,.448-1,1s.447,1,1,1h3v6h-5c-1.654,0-3,1.346-3,3Zm12,.5c0,.827-.673,1.5-1.5,1.5h-8.838c.216-.455.338-.963.338-1.5v-.5c0-.551.449-1,1-1h8c.552,0,1,.449,1,1v.5Z"/>
</svg>
