<?xml version="1.0" encoding="UTF-8"?>
<svg xmlns="http://www.w3.org/2000/svg" id="Layer_1" data-name="Layer 1" viewBox="0 0 24 24">
  <path d="m23.457,11.414c-.162-.293-.348-.556-.544-.804-.017-.171-.034-.342-.06-.538-.05-.378.029-.758.229-1.098.545-.936,2.104-4.224-.786-7.32-3.049-2.842-6.336-1.281-7.27-.736-.341.198-.717.277-1.098.229-.198-.026-.37-.043-.541-.06-.252-.199-.526-.39-.867-.576-3.239-1.489-5.498.651-6.114,1.342-.196.221-.471.374-.774.433-.819.157-1.325.325-1.771.474l-.237.078c-.969.313-1.755.986-2.213,1.896-.321.637-.453,1.348-.38,2.058.043.425-.061.827-.303,1.165-.113.158-.216.327-.305.505-.517,1.025-.56,2.227-.118,3.295.088.213.11.415.067.603-.306,1.307-.448,3.904-.423,7.721.014,2.177,1.797,3.959,3.974,3.974.289.002.57.003.844.003,3.357,0,5.669-.143,6.877-.426.188-.044.39-.021.602.066,1.068.444,2.269.399,3.294-.117.181-.092.349-.193.507-.307.335-.239.73-.349,1.164-.302.706.071,1.42-.061,2.057-.381.909-.458,1.583-1.244,1.896-2.213l.078-.237c.148-.446.316-.952.475-1.772.058-.303.211-.577.432-.773.691-.616,2.833-2.876,1.31-6.179Zm-7.424-8.768c.812-.475,2.917-1.376,4.85.421,1.848,1.982.945,4.087.472,4.899-.418.716-.59,1.556-.483,2.366.118.894.117,1.424.117,1.985v.31c.004.633-.24,1.228-.688,1.675-.31.31-.699.523-1.127.617-1.036.23-1.907.796-2.518,1.634-.073.1-.154.194-.246.285-.538.539-1.289.803-2.056.734-.678-.069-1.359.1-1.976.476-1.4.853-4.503,1.556-7.016,2.002l6.051-6.051h4.586c.553,0,1-.447,1-1s-.447-1-1-1h-2.586l3.293-3.293c.391-.391.391-1.023,0-1.414s-1.023-.391-1.414,0l-3.293,3.293v-2.586c0-.553-.448-1-1-1s-1,.447-1,1v4.586l-6.051,6.051c.446-2.512,1.149-5.614,2.003-7.016.375-.616.54-1.299.476-1.975-.074-.769.194-1.519.735-2.059.089-.09.184-.171.282-.242.84-.613,1.406-1.485,1.635-2.521.094-.427.308-.816.618-1.126.443-.443,1.032-.688,1.66-.688h.323c.567,0,1.092,0,1.985.117.81.106,1.648-.065,2.366-.482ZM2.21,9.357c.043-.087.093-.166.145-.24.528-.737.758-1.612.665-2.529-.034-.329.028-.659.177-.955.216-.429.586-.745,1.042-.894l.251-.082c.426-.142.829-.275,1.52-.408.497-.096.961-.308,1.364-.602-.102.241-.191.488-.248.746-.122.552-.42,1.015-.862,1.338-.182.133-.355.28-.517.442-.963.963-1.441,2.298-1.311,3.662.029.307-.088.574-.192.744-1.079,1.771-1.851,5.329-2.294,7.88.021-2.721.148-4.704.369-5.648.139-.594.082-1.225-.166-1.822-.219-.53-.199-1.124.058-1.633Zm17.133,10.152l-.082.251c-.147.456-.465.826-.894,1.043-.295.148-.629.208-.956.176-.921-.089-1.792.139-2.529.666-.075.054-.155.103-.243.146-.504.256-1.098.276-1.629.055-.599-.246-1.227-.304-1.822-.165-.944.22-2.924.349-5.65.369,2.552-.444,6.111-1.215,7.883-2.295.17-.104.438-.22.743-.192,1.365.135,2.699-.347,3.661-1.311.163-.163.311-.336.444-.519.322-.44.784-.739,1.337-.861.258-.057.505-.145.746-.248-.293.402-.506.866-.601,1.363-.134.691-.268,1.095-.409,1.521Z"/>
</svg>
