<?xml version="1.0" encoding="UTF-8"?>
<svg xmlns="http://www.w3.org/2000/svg" id="Layer_1" data-name="Layer 1" viewBox="0 0 24 24">
  <path d="m23.707,22.293l-5.963-5.963c1.412-1.725,2.262-3.927,2.262-6.324C20.006,4.492,15.52.006,10.006.006S.006,4.492.006,10.006s4.486,10,10,10c2.398,0,4.6-.85,6.324-2.262l5.963,5.963c.195.195.451.293.707.293s.512-.098.707-.293c.391-.391.391-1.023,0-1.414ZM2.006,10.006C2.006,5.595,5.595,2.006,10.006,2.006s8,3.589,8,8-3.589,8-8,8S2.006,14.417,2.006,10.006Zm9.494,4.494c0,.828-.672,1.5-1.5,1.5s-1.5-.672-1.5-1.5.672-1.5,1.5-1.5,1.5.672,1.5,1.5Zm1.5-7.5c0,1.125-.621,2.146-1.621,2.665-.174.09-.304.287-.355.538-.016.074-.023.15-.023.227v.571c0,.552-.447,1-1,1s-1-.448-1-1v-.571c0-.213.021-.426.065-.633.174-.842.682-1.538,1.393-1.907.335-.173.542-.514.542-.889,0-.551-.448-1-1-1s-1,.449-1,1-.447,1-1,1-1-.448-1-1c0-1.654,1.346-3,3-3s3,1.346,3,3Z"/>
</svg>
