<?xml version="1.0" encoding="UTF-8"?>
<svg xmlns="http://www.w3.org/2000/svg" id="Layer_1" data-name="Layer 1" viewBox="0 0 24 24">
  <path d="m10.1,6.6v1.801h1.101c.442,0,.8.358.8.8s-.358.8-.8.8h-1.101v2.2c0,.442-.358.8-.8.8s-.8-.358-.8-.8v-6.4c0-.442.358-.8.8-.8h1.9c.442,0,.8.358.8.8s-.358.8-.8.8h-1.101Zm5.601,0c.442,0,.8-.358.8-.8s-.358-.8-.8-.8h-1.9c-.442,0-.8.358-.8.8v6.4c0,.442.358.8.8.8h1.9c.442,0,.8-.358.8-.8s-.358-.8-.8-.8h-1.101v-1.4h1.101c.442,0,.8-.358.8-.8s-.358-.8-.8-.8h-1.101v-1.801h1.101Zm4.5,3.4c.442,0,.8-.358.8-.8s-.358-.8-.8-.8h-1.101v-1.801h1.101c.442,0,.8-.358.8-.8s-.358-.8-.8-.8h-1.9c-.442,0-.8.358-.8.8v6.4c0,.442.358.8.8.8h1.9c.442,0,.8-.358.8-.8s-.358-.8-.8-.8h-1.101v-1.4h1.101Zm-.2,5c-.552,0-1,.447-1,1v5.103l-1.1-.753c-.341-.232-.789-.232-1.13,0l-2.101,1.438-2.1-1.439c-.341-.232-.791-.232-1.13,0l-2.101,1.439-2.105-1.438c-.341-.232-.788-.232-1.129,0l-1.105.756V5c0-1.654,1.346-3,3-3h8.356c.732,0,1.436.266,1.983.75.415.366,1.045.327,1.412-.087.366-.414.326-1.046-.087-1.412-.914-.807-2.088-1.25-3.308-1.25H7.998C5.241,0,2.998,2.243,2.998,5v18c0,.371.205.711.533.885.328.172.725.15,1.031-.06l2.105-1.439,2.106,1.439c.17.116.367.175.564.175s.395-.059.565-.175l2.101-1.439,2.1,1.439c.341.232.79.232,1.13,0l2.101-1.438,2.1,1.438c.307.21.703.232,1.031.06s.534-.514.534-.885v-6.999c0-.553-.448-1-1-1Z"/>
</svg>
