<?xml version="1.0" encoding="UTF-8"?>
<svg xmlns="http://www.w3.org/2000/svg" id="Layer_1" data-name="Layer 1" viewBox="0 0 24 24">
  <path d="m23.957,7.593c-.203-1.827-1.096-3.615-2.516-5.034C20.022,1.14,18.234.247,16.407.043c-1.908-.213-3.638.347-4.865,1.572-.914.913-1.462,2.121-1.585,3.493-.08.887-.635,1.757-1.524,2.389-1.962,1.394-2.843,3.829-2.243,6.202.168.666.47,1.284.859,1.838L.293,22.293c-.391.391-.391,1.023,0,1.414.195.195.451.293.707.293s.512-.098.707-.293l6.756-6.756c.554.389,1.172.691,1.839.859.495.125.993.186,1.483.186,1.86,0,3.615-.875,4.718-2.429.631-.889,1.501-1.444,2.389-1.523,1.372-.124,2.579-.673,3.492-1.586,1.227-1.226,1.785-2.954,1.573-4.865Zm-2.987,3.451c-.577.578-1.358.927-2.257,1.008-1.47.132-2.87.991-3.84,2.357-.926,1.305-2.49,1.866-4.081,1.462-1.292-.326-2.337-1.371-2.663-2.662-.402-1.591.158-3.155,1.462-4.081,1.366-.971,2.226-2.37,2.358-3.84.081-.899.429-1.68,1.007-2.258.673-.673,1.608-1.03,2.674-1.03.182,0,.367.01.556.031,1.378.153,2.742.843,3.841,1.942s1.789,2.463,1.942,3.841c.144,1.294-.211,2.441-1,3.229Z"/>
</svg>
