<?xml version="1.0" encoding="UTF-8"?>
<svg xmlns="http://www.w3.org/2000/svg" id="Layer_1" data-name="Layer 1" viewBox="0 0 24 24">
  <path d="m21.753,17.712l-4.314-4.573,2.733-2.844c.681-.71.973-1.709.779-2.673-.466-2.325-1.482-4.321-3.199-6.281-.043-.049-.091-.095-.144-.135-.161-.124-1.686-1.207-5.609-1.207s-5.448,1.083-5.609,1.207c-.052.04-.1.085-.144.135-1.685,1.924-2.731,3.987-3.198,6.305-.194.965.098,1.966.783,2.679l2.812,2.911-4.362,4.478c-1.145,1.186-1.115,3.085.065,4.233l1.241,1.208c.564.55,1.305.851,2.091.851.018,0,.035,0,.053,0,.805-.014,1.556-.342,2.11-.919l4.167-4.297,4.131,4.277c.558.582,1.309.91,2.115.924.018,0,.036,0,.054,0,.786,0,1.526-.301,2.091-.851l1.26-1.227c1.164-1.133,1.207-3.018.094-4.204Zm-3.024-8.802l-2.664,2.772-2.559-2.713,4.068-4.493c.686,1.115,1.162,2.27,1.416,3.54.065.322-.033.657-.261.894ZM7.66,2.766c.296-.166,1.562-.766,4.34-.766,2.808,0,4.071.613,4.336.761.016.018.027.037.043.056l-2.963,3.274c-.847-.094-1.751-.097-2.642-.017l-3.117-3.304s.002-.002.003-.003Zm-2.649,5.275c.264-1.312.731-2.5,1.438-3.638l11.782,12.49-2.719,2.646L5.272,8.938c-.229-.239-.328-.574-.262-.897Zm.688,13.966c-.278.012-.522-.096-.714-.283l-1.242-1.209c-.394-.383-.403-1.016-.025-1.408l.712-.731,2.673,2.602-.699.721c-.186.194-.436.303-.705.308Zm2.796-2.464l-2.67-2.599,2.21-2.268,2.585,2.676-2.125,2.191Zm11.77.94l-1.26,1.227c-.192.187-.444.291-.714.283-.269-.005-.519-.114-.708-.312l-.68-.703,2.702-2.63.693.734c.37.395.356,1.022-.032,1.4Z"/>
</svg>
