<?xml version="1.0" encoding="UTF-8"?>
<svg xmlns="http://www.w3.org/2000/svg" id="Layer_1" data-name="Layer 1" viewBox="0 0 24 24">
  <path d="m20,0H4C1.794,0,0,1.794,0,4v12c0,2.206,1.794,4,4,4h2.923l3.749,3.156c.382.34.861.509,1.337.508.468,0,.931-.162,1.292-.484l3.847-3.18h2.853c2.206,0,4-1.794,4-4V4c0-2.206-1.794-4-4-4Zm2,16c0,1.103-.897,2-2,2h-3.212c-.232,0-.458.081-.637.229l-4.171,3.415-4.048-3.409c-.181-.152-.409-.235-.645-.235h-3.288c-1.103,0-2-.897-2-2V4c0-1.103.897-2,2-2h16c1.103,0,2,.897,2,2v12Zm-7.915-10.337c-.227-.995-1.064-1.663-2.085-1.663s-1.858.668-2.085,1.661l-2.102,9.114c-.124.538.212,1.075.75,1.199.538.126,1.075-.212,1.199-.75l.511-2.217h3.51l.532,2.225c.109.459.52.768.972.768.077,0,.155-.009.233-.027.537-.128.868-.668.74-1.205l-2.176-9.104Zm-3.35,5.345l1.129-4.899c.011-.046.025-.108.136-.108s.125.062.138.118l1.168,4.89h-2.571Z"/>
</svg>
