<?xml version="1.0" encoding="UTF-8"?>
<svg xmlns="http://www.w3.org/2000/svg" id="Layer_1" data-name="Layer 1" viewBox="0 0 24 24">
  <path d="m24,18c0,2.206-1.794,4-4,4h-5c-.553,0-1-.448-1-1s.447-1,1-1h5c1.103,0,2-.897,2-2s-.897-2-2-2h-7c-2.206,0-4-1.794-4-4s1.794-4,4-4h2c.553,0,1,.448,1,1s-.447,1-1,1h-2c-1.103,0-2,.897-2,2s.897,2,2,2h7c2.206,0,4,1.794,4,4Zm-12,2.5c0,.828-.672,1.5-1.5,1.5h-.525c.012.082.025.164.025.25,0,.966-.784,1.75-1.75,1.75s-1.75-.784-1.75-1.75c0-.086.013-.168.025-.25h-2.05c.012.082.025.164.025.25,0,.966-.784,1.75-1.75,1.75s-1.75-.784-1.75-1.75c0-.114.013-.224.033-.331-.599-.197-1.033-.754-1.033-1.419v-2.5c0-1.654,1.346-3,3-3h1.895c1.34,0,2.584.666,3.328,1.781l1.479,2.219h.798c.828,0,1.5.672,1.5,1.5Zm-10-1.5h5.298l-.74-1.109c-.372-.558-.994-.891-1.664-.891h-1.895c-.551,0-1,.449-1,1v1Zm17-9c.553,0,1-.448,1-1v-3.75l3.565-1.885c.581-.399.581-1.329,0-1.729l-2.813-1.259c-.556-.249-1.151-.377-1.751-.377-.553,0-1,.448-1,1v8c0,.552.447,1,1,1Z"/>
</svg>
