<?xml version="1.0" encoding="UTF-8"?>
<svg xmlns="http://www.w3.org/2000/svg" id="Layer_1" data-name="Layer 1" viewBox="0 0 24 24">
  <path d="m24,16v-5c0-2.757-2.243-5-5-5v-2c0-2.206-1.794-4-4-4h-6c-2.073,0-3.782,1.584-3.981,3.605L1.707.293C1.316-.098.684-.098.293.293S-.098,1.316.293,1.707l22,22c.195.195.451.293.707.293s.512-.098.707-.293c.391-.391.391-1.023,0-1.414l-2.053-2.053c1.431-.896,2.346-2.481,2.346-4.24ZM7,4c0-1.103.897-2,2-2h6c1.103,0,2,.897,2,2v2H7.414l-.414-.414v-1.586Zm15,12c0,1.218-.732,2.297-1.825,2.761l-10.761-10.761h9.586c1.654,0,3,1.346,3,3v5Zm-3-5c0,.553-.447,1-1,1h-2c-.553,0-1-.447-1-1s.447-1,1-1h2c.553,0,1,.447,1,1Zm-1.134,11.232c.276.478.112,1.089-.366,1.366-.454.263-.973.401-1.5.401h-8c-1.654,0-3-1.346-3-3-2.757,0-5-2.243-5-5v-5c0-1.435.617-2.802,1.693-3.75.415-.365,1.047-.327,1.411.089.365.414.325,1.046-.089,1.411-.646.569-1.016,1.389-1.016,2.25v5c0,1.654,1.346,3,3,3v-2c0-1.654,1.346-3,3-3h1c.553,0,1,.447,1,1s-.447,1-1,1h-1c-.552,0-1,.448-1,1v4c0,.552.448,1,1,1h8c.176,0,.349-.046.5-.134.477-.276,1.089-.113,1.366.366Z"/>
</svg>
