<?xml version="1.0" encoding="UTF-8"?>
<svg xmlns="http://www.w3.org/2000/svg" id="Layer_1" data-name="Layer 1" viewBox="0 0 24 24">
  <path d="m16,2h-.171c-.413-1.164-1.525-2-2.829-2h-2c-1.304,0-2.416.836-2.829,2h-.171c-2.757,0-5,2.243-5,5v12c0,2.757,2.243,5,5,5h8c2.757,0,5-2.243,5-5V7c0-2.757-2.243-5-5-5Zm3,17c0,1.654-1.346,3-3,3h-8c-1.654,0-3-1.346-3-3V7c0-1.654,1.346-3,3-3h1c.553,0,1-.448,1-1s.448-1,1-1h2c.552,0,1,.449,1,1s.447,1,1,1h1c1.654,0,3,1.346,3,3v12Zm-6.793-10.963c.391.39.391,1.023,0,1.414l-1.843,1.843c-.473.473-1.088.71-1.703.71-.594,0-1.188-.221-1.656-.664l-.649-.615c-.401-.38-.418-1.013-.038-1.414.38-.402,1.012-.417,1.413-.039l.648.614c.164.154.415.149.571-.008l1.843-1.843c.391-.391,1.023-.391,1.414,0Zm0,6c.391.39.391,1.023,0,1.414l-1.843,1.843c-.473.473-1.088.71-1.703.71-.594,0-1.188-.221-1.656-.664l-.649-.615c-.401-.38-.418-1.013-.038-1.414.38-.401,1.012-.418,1.413-.039l.648.614c.164.154.415.15.571-.008l1.843-1.843c.391-.391,1.023-.391,1.414,0Zm4.793-3.037c0,.552-.447,1-1,1h-2c-.553,0-1-.448-1-1s.447-1,1-1h2c.553,0,1,.448,1,1Zm0,6c0,.552-.447,1-1,1h-2c-.553,0-1-.448-1-1s.447-1,1-1h2c.553,0,1,.448,1,1Z"/>
</svg>
