<?xml version="1.0" encoding="UTF-8"?>
<svg xmlns="http://www.w3.org/2000/svg" id="Layer_1" data-name="Layer 1" viewBox="0 0 24 24">
  <path d="m.293,4.293l1.293-1.293L.293,1.707C-.098,1.316-.098.684.293.293S1.316-.098,1.707.293l1.293,1.293,1.293-1.293c.391-.391,1.023-.391,1.414,0s.391,1.023,0,1.414l-1.293,1.293,1.293,1.293c.391.391.391,1.023,0,1.414-.195.195-.451.293-.707.293s-.512-.098-.707-.293l-1.293-1.293-1.293,1.293c-.195.195-.451.293-.707.293s-.512-.098-.707-.293c-.391-.391-.391-1.023,0-1.414Zm9,6.414c.195.195.451.293.707.293s.512-.098.707-.293l1.293-1.293,1.293,1.293c.195.195.451.293.707.293s.512-.098.707-.293c.391-.391.391-1.023,0-1.414l-1.293-1.293,1.293-1.293c.391-.391.391-1.023,0-1.414s-1.023-.391-1.414,0l-1.293,1.293-1.293-1.293c-.391-.391-1.023-.391-1.414,0s-.391,1.023,0,1.414l1.293,1.293-1.293,1.293c-.391.391-.391,1.023,0,1.414Zm11.414,7.586c-.391-.391-1.023-.391-1.414,0l-1.293,1.293-1.293-1.293c-.391-.391-1.023-.391-1.414,0s-.391,1.023,0,1.414l1.293,1.293-1.293,1.293c-.391.391-.391,1.023,0,1.414.195.195.451.293.707.293s.512-.098.707-.293l1.293-1.293,1.293,1.293c.195.195.451.293.707.293s.512-.098.707-.293c.391-.391.391-1.023,0-1.414l-1.293-1.293,1.293-1.293c.391-.391.391-1.023,0-1.414Zm3.014-14.1c-.196.204-.458.307-.721.307-.249,0-.499-.093-.692-.279l-1.308-1.256v8.035c0,2.206-1.794,4-4,4H6.504c-1.099,0-1.995.894-2,1.992v.172c1.438.435,2.496,1.757,2.496,3.336,0,1.93-1.57,3.5-3.5,3.5s-3.5-1.57-3.5-3.5c0-1.581,1.061-2.905,2.503-3.338v-.178c.009-2.197,1.804-3.984,4.001-3.984h10.496c1.103,0,2-.897,2-2V2.972l-1.308,1.249c-.397.383-1.031.37-1.413-.028-.383-.398-.37-1.031.028-1.414l2.301-2.21c.761-.761,2.021-.76,2.798.014l2.286,2.197c.398.383.411,1.016.028,1.414ZM3.5,19c-.827,0-1.5.673-1.5,1.5s.673,1.5,1.5,1.5,1.5-.673,1.5-1.5-.673-1.5-1.5-1.5Z"/>
</svg>
