<?xml version="1.0" encoding="UTF-8"?>
<svg xmlns="http://www.w3.org/2000/svg" id="Layer_1" data-name="Layer 1" viewBox="0 0 24 24">
  <path d="m24,12c0,.553-.447,1-1,1h-1v1c0,.553-.447,1-1,1s-1-.447-1-1v-1h-1c-.553,0-1-.447-1-1s.447-1,1-1h1v-1c0-.553.447-1,1-1s1,.447,1,1v1h1c.553,0,1,.447,1,1Zm-7-2c0-1.654-1.346-3-3-3s-3,1.346-3,3c0,.553.448,1,1,1s1-.447,1-1,.448-1,1-1,1,.448,1,1c0,1.193-.949,2.013-1.955,2.88-1.005.866-2.045,1.763-2.045,3.12,0,.553.448,1,1,1h4c.553,0,1-.447,1-1s-.447-1-1-1h-2.329c.209-.199.446-.404.68-.606,1.181-1.018,2.649-2.284,2.649-4.394Zm-9,7c.552,0,1-.447,1-1v-7.693c0-.542-.326-1.019-.831-1.216-.504-.198-1.067-.068-1.439.334l-1.732,1.901c-.372.409-.342,1.041.066,1.413.409.373,1.041.341,1.413-.065l.523-.574v5.9c0,.553.448,1,1,1Zm13.767.162c-.462-.301-1.081-.171-1.384.292-1.855,2.847-4.989,4.546-8.383,4.546-5.514,0-10-4.486-10-10S6.486,2,12,2c3.394,0,6.527,1.699,8.383,4.546.302.463.923.593,1.384.292.463-.302.594-.921.292-1.384C19.832,2.039,16.072,0,12,0,5.383,0,0,5.383,0,12s5.383,12,12,12c4.071,0,7.832-2.039,10.059-5.454.302-.462.171-1.082-.292-1.384Z"/>
</svg>
