<?xml version="1.0" encoding="UTF-8"?>
<svg xmlns="http://www.w3.org/2000/svg" id="Layer_1" data-name="Layer 1" viewBox="0 0 24 24">
  <path d="m20.545,9.436c.283-.589.455-1.24.455-1.936,0-2.481-2.019-4.5-4.5-4.5s-4.5,2.019-4.5,4.5c0,.171.032.334.051.5h-4.051C3.589,8,0,11.589,0,16s3.589,8,8,8h8c4.411,0,8-3.589,8-8,0-2.628-1.315-5.079-3.455-6.564Zm-4.045-4.436c1.378,0,2.5,1.121,2.5,2.5s-1.122,2.5-2.5,2.5-2.5-1.121-2.5-2.5,1.122-2.5,2.5-2.5Zm-.5,17H8c-3.309,0-6-2.691-6-6s2.691-6,6-6h4.762c.808,1.205,2.182,2,3.738,2,1.061,0,2.024-.384,2.794-1.001,1.672,1.105,2.706,2.984,2.706,5.001,0,3.309-2.691,6-6,6Zm-1-8c0,.553-.448,1-1,1h-6c-.551,0-1,.448-1,1s.449,1,1,1,1,.447,1,1-.448,1-1,1c-1.654,0-3-1.346-3-3s1.346-3,3-3h6c.552,0,1,.447,1,1ZM6,2.5C6,1.119,7.119,0,8.5,0s2.5,1.119,2.5,2.5-1.119,2.5-2.5,2.5-2.5-1.119-2.5-2.5Zm15-1C21,.672,21.672,0,22.5,0s1.5.672,1.5,1.5-.672,1.5-1.5,1.5-1.5-.672-1.5-1.5Z"/>
</svg>
