<?xml version="1.0" encoding="UTF-8"?>
<svg xmlns="http://www.w3.org/2000/svg" id="Layer_1" data-name="Layer 1" viewBox="0 0 24 24">
  <path d="m16.707,13.207l-.543.543.543.543c.391.391.391,1.023,0,1.414-.195.195-.451.293-.707.293s-.512-.098-.707-.293l-.543-.543-.543.543c-.195.195-.451.293-.707.293s-.512-.098-.707-.293c-.391-.391-.391-1.023,0-1.414l.543-.543-.543-.543c-.391-.391-.391-1.023,0-1.414s1.023-.391,1.414,0l.543.543.543-.543c.391-.391,1.023-.391,1.414,0s.391,1.023,0,1.414Zm-7.457,1.957l.543.543c.195.195.451.293.707.293s.512-.098.707-.293c.391-.391.391-1.023,0-1.414l-.543-.543.543-.543c.391-.391.391-1.023,0-1.414s-1.023-.391-1.414,0l-.543.543-.543-.543c-.391-.391-1.023-.391-1.414,0s-.391,1.023,0,1.414l.543.543-.543.543c-.391.391-.391,1.023,0,1.414.195.195.451.293.707.293s.512-.098.707-.293l.543-.543ZM4.5,7c.828,0,1.5-.672,1.5-1.5s-.672-1.5-1.5-1.5-1.5.672-1.5,1.5.672,1.5,1.5,1.5Zm4,0c.828,0,1.5-.672,1.5-1.5s-.672-1.5-1.5-1.5-1.5.672-1.5,1.5.672,1.5,1.5,1.5Zm15.5-1v12c0,2.757-2.243,5-5,5H5c-2.757,0-5-2.243-5-5V6C0,3.243,2.243,1,5,1h14c2.757,0,5,2.243,5,5Zm-22,0v2h20v-2c0-1.654-1.346-3-3-3H5c-1.654,0-3,1.346-3,3Zm20,12v-8H2v8c0,1.654,1.346,3,3,3h14c1.654,0,3-1.346,3-3Zm-7.143-.434c-1.994-.762-3.72-.762-5.714,0-.516.197-.774.775-.577,1.291.197.517.776.776,1.291.577,1.53-.584,2.756-.584,4.286,0,.118.045.238.066.357.066.402,0,.782-.245.934-.644.197-.516-.062-1.094-.577-1.291Z"/>
</svg>
