<?xml version="1.0" encoding="UTF-8"?>
<svg xmlns="http://www.w3.org/2000/svg" id="Layer_1" data-name="Layer 1" viewBox="0 0 24 24">
  <path d="m21,23c0,.553-.448,1-1,1H4c-.552,0-1-.447-1-1s.448-1,1-1h16c.552,0,1,.447,1,1Zm-.605-5.919l-14.58-6.262c-.601-.258-.814-.851-.814-1.319s.214-1.062.814-1.319L20.395,1.919c.507-.218.742-.806.524-1.313-.218-.508-.808-.74-1.313-.524L5.024,6.343c-1.249.537-2.024,1.747-2.024,3.157s.776,2.62,2.025,3.157l14.581,6.262c.128.055.262.081.394.081.388,0,.757-.227.919-.605.218-.508-.017-1.096-.524-1.313Z"/>
</svg>
