<?xml version="1.0" encoding="UTF-8"?>
<svg xmlns="http://www.w3.org/2000/svg" id="Layer_1" data-name="Layer 1" viewBox="0 0 24 24">
  <path d="m22,5h-.283l-.381-1.82c-.386-1.842-2.033-3.18-3.916-3.18H6.58c-1.882,0-3.529,1.337-3.915,3.18l-.381,1.82h-.283c-.552,0-1,.448-1,1s.448,1,1,1h.204l1.464,12.578c.293,2.521,2.429,4.422,4.966,4.422h6.729c2.538,0,4.673-1.901,4.966-4.422l1.464-12.578h.206c.552,0,1-.448,1-1s-.448-1-1-1ZM4.8,12h14.399l-.582,5H5.382l-.582-5Zm1.78-10h10.841c.941,0,1.765.668,1.958,1.59l.295,1.41H4.326l.295-1.41c.193-.921,1.017-1.59,1.958-1.59Zm13.201,5l-.349,3H4.567l-.349-3h15.563Zm-4.417,15h-6.729c-1.522,0-2.804-1.141-2.98-2.653l-.04-.347h12.77l-.04.347c-.176,1.513-1.458,2.653-2.98,2.653Z"/>
</svg>
