<?xml version="1.0" encoding="UTF-8"?>
<svg xmlns="http://www.w3.org/2000/svg" id="Layer_1" data-name="Layer 1" viewBox="0 0 24 24">
  <path d="m18,4.5c0,.828-.672,1.5-1.5,1.5s-1.5-.672-1.5-1.5.672-1.5,1.5-1.5,1.5.672,1.5,1.5Zm5.937,11.965c.008.293-.229.535-.522.535-.259,0-.479-.189-.516-.446-.194-1.353-1.028-5.483-4.208-8.126-.328.182-.68.323-1.046.417-.475.123-.645.682-.645,1.164v1.212c0,3.195-1.866,6.166-4.503,7.696l.495,3.959c.068.548-.32,1.048-.868,1.116-.714,0-1.053-.362-1.116-.868l-.425-3.399c-.477.132-.968.218-1.468.254-.202.014-.403.021-.604.021-.297,0-.591-.016-.884-.046l.365,2.923c.068.548-.32,1.048-.868,1.116-.688,0-1.053-.362-1.116-.868l-.457-3.654c-1.138-.421-2.185-1.083-3.061-1.96C.747,15.768-.152,13.353.021,10.885.323,6.611,4.333,3,8.778,3h.794c1.668,0,2.98-.937,3.787-1.723.25-.244.533-.461.84-.646,1.492-.899,3.449-.829,4.871.173,1.102.777,1.799,1.983,1.913,3.31.058.679-.038,1.35-.271,1.97,1.108,1.64,3.093,5.271,3.225,10.382Zm-4.946-12.18c-.064-.748-.445-1.404-1.073-1.846-.783-.552-1.862-.591-2.686-.095-.176.106-.337.229-.478.367-1.537,1.498-3.329,2.29-5.182,2.29h-.794c-3.375,0-6.535,2.816-6.762,6.026-.133,1.89.555,3.738,1.887,5.07s3.176,2.019,5.07,1.887c3.21-.227,6.026-3.387,6.026-6.762v-1.212c0-1.547.842-2.764,2.146-3.101.424-.109.812-.331,1.122-.641.523-.523.787-1.246.724-1.983Z"/>
</svg>
