<?xml version="1.0" encoding="UTF-8"?>
<svg xmlns="http://www.w3.org/2000/svg" id="Layer_1" data-name="Layer 1" viewBox="0 0 24 24">
  <path d="m17.293,12.293l-5,5c-.391.391-.391,1.023,0,1.414.195.195.451.293.707.293s.512-.098.707-.293l5-5c.391-.391.391-1.023,0-1.414s-1.023-.391-1.414,0Z"/>
  <path d="m22.13,5.38c-.483-.765-1.281-1.261-2.19-1.361-.146-.017-.289-.004-.433,0-.559-1.07-1.195-1.981-1.905-2.693C16.752.471,15.62,0,14.417,0h0c-.957,0-1.868.297-2.653.876-1.433-.585-3.122-.27-4.251.863-.226.227-.42.48-.583.757-1.17.013-2.302.48-3.133,1.315-.833.835-1.297,1.971-1.31,3.144-.277.164-.529.36-.756.587-1.123,1.129-1.438,2.818-.859,4.253-1.291,1.766-1.143,4.268.446,5.864.726.729,1.661,1.38,2.761,1.952,0,.105-.012.208,0,.313.1.905.592,1.702,1.352,2.187,1.97,1.258,4.214,1.871,6.45,1.871,3.139,0,6.26-1.209,8.58-3.538,3.966-3.981,4.668-10.317,1.67-15.065ZM4.946,17.441c-.081.081-.14.176-.21.264-.802-.441-1.475-.928-2.001-1.457-.966-.969-.979-2.537-.029-3.533.325-.337.458-.934.199-1.325-.505-.763-.403-1.787.243-2.436.193-.195.436-.345.718-.445.454-.162.729-.625.652-1.101-.131-.815.122-1.612.694-2.186.569-.573,1.36-.827,2.169-.695.472.075.942-.198,1.104-.655.1-.284.249-.528.443-.723.644-.646,1.661-.749,2.416-.244.404.27.996.146,1.332-.202.47-.455,1.085-.706,1.739-.706.668,0,1.297.262,1.769.736.527.529,1.012,1.203,1.45,2.006-.062.053-.133.095-.191.153l-1.323,1.328c-.894-.78-2.012-1.223-3.208-1.223-1.312,0-2.547.513-3.475,1.445-1.233,1.238-1.66,2.973-1.304,4.566-.99-.045-1.886.077-2.559.22-.607.13-1.109.526-1.378,1.086-.27.562-.264,1.205.017,1.763.428.856.999,1.66,1.683,2.406l-.951.955ZM14.707,7.642l-4.073,4.088c-.899-1.149-.834-2.816.221-3.874,1.019-1.023,2.731-1.085,3.852-.214Zm-5.514,5.536l-1.882,1.889c-.65-.725-1.073-1.407-1.316-1.879.799-.171,1.986-.293,3.198-.01Zm9.851,5.855c-3.316,3.328-8.587,3.914-12.538,1.394-.338-.216-.421-.543-.439-.72-.035-.317.073-.629.297-.854h0l12.496-12.547c.198-.198.463-.307.741-.307.039,0,.079.002.118.006.177.02.505.103.719.441,2.505,3.967,1.918,9.26-1.395,12.585Z"/>
</svg>
