<?xml version="1.0" encoding="UTF-8"?>
<svg xmlns="http://www.w3.org/2000/svg" id="Layer_1" data-name="Layer 1" viewBox="0 0 24 24">
  <path d="m21.414,5.586c.375-.375.586-.884.586-1.414v-1.672c0-1.381-1.119-2.5-2.5-2.5h-1.672c-.53,0-1.039.211-1.414.586l-.414.414h-8l-.414-.414c-.375-.375-.884-.586-1.414-.586h-1.672c-1.381,0-2.5,1.119-2.5,2.5v1.672c0,.53.211,1.039.586,1.414l.414.414v2l-.414.414c-.375.375-.586.884-.586,1.414v4.343c0,.53.211,1.039.586,1.414l.414.414v2l-.414.414c-.375.375-.586.884-.586,1.414v1.672c0,1.381,1.119,2.5,2.5,2.5h1.672c.53,0,1.039-.211,1.414-.586l.414-.414h8l.414.414c.375.375.884.586,1.414.586h1.672c1.381,0,2.5-1.119,2.5-2.5v-1.672c0-.53-.211-1.039-.586-1.414l-.414-.414v-2l.414-.414c.375-.375.586-.884.586-1.414v-4.343c0-.53-.211-1.039-.586-1.414l-.414-.414v-2l.414-.414ZM5,21V3h14v18H5Z"/>
</svg>
