<?xml version="1.0" encoding="UTF-8"?>
<svg xmlns="http://www.w3.org/2000/svg" id="Layer_1" data-name="Layer 1" viewBox="0 0 24 24">
  <path d="m24,7v12.126c0,2.283-1.542,4.274-3.751,4.842-.083.021-.167.032-.25.032-.445,0-.852-.3-.968-.751-.138-.535.185-1.08.72-1.217,1.324-.341,2.249-1.536,2.249-2.906v-9.126h-3c-.553,0-1-.448-1-1s.447-1,1-1h3v-1c0-1.654-1.346-3-3-3H5c-1.654,0-3,1.346-3,3v1h3c.552,0,1,.448,1,1s-.448,1-1,1h-3v9.126c0,1.37.925,2.565,2.249,2.906.535.137.857.683.719,1.217-.137.535-.68.857-1.217.719-2.208-.568-3.751-2.559-3.751-4.842V7C0,4.243,2.243,2,5,2h1v-1c0-.552.448-1,1-1s1,.448,1,1v1h8v-1c0-.552.447-1,1-1s1,.448,1,1v1h1c2.757,0,5,2.243,5,5Zm-4.5,9.5c0,4.142-3.358,7.5-7.5,7.5s-7.5-3.358-7.5-7.5,3.358-7.5,7.5-7.5,7.5,3.358,7.5,7.5Zm-3.5,1.876c0-1.288-.923-2.377-2.193-2.588l-3.286-.548c-.302-.05-.521-.309-.521-.616,0-.344.28-.624.624-.624h2.644c.356,0,.688.192.867.5.274.479.886.642,1.366.365.478-.277.642-.888.364-1.366-.534-.925-1.53-1.5-2.598-1.5h-.268c0-.552-.448-1-1-1s-1,.448-1,1h-.376c-1.447,0-2.624,1.177-2.624,2.624,0,1.288.922,2.377,2.192,2.588l3.286.548c.302.05.521.309.521.616,0,.344-.28.624-.624.624h-2.644c-.356,0-.688-.192-.867-.5-.277-.479-.889-.643-1.366-.365-.479.277-.642.888-.365,1.366.535.925,1.53,1.499,2.598,1.499h.268c0,.552.448,1,1,1s1-.448,1-1h.376c1.447,0,2.624-1.177,2.624-2.624Z"/>
</svg>
