<?xml version="1.0" encoding="UTF-8"?>
<svg xmlns="http://www.w3.org/2000/svg" id="Layer_1" data-name="Layer 1" viewBox="0 0 24 24">
  <path d="m23.174.344c-.741-.515-1.726-.451-2.319.095l-.454.34c-.945.788-2.143,1.221-3.373,1.221H6.925c-1.23,0-2.428-.434-3.416-1.255l-.336-.244C2.505-.107,1.52-.172.779.345-.076.939-.305,2.09.257,2.963l.82,1.477c.626,1.42,1.726,2.565,2.923,3.354v3.206h-1c-.552,0-1,.448-1,1s.448,1,1,1h1v10c0,.552.448,1,1,1s1-.448,1-1v-10h12v10c0,.552.448,1,1,1s1-.448,1-1v-10h1c.552,0,1-.448,1-1s-.448-1-1-1h-1v-3.236c1.176-.788,2.306-1.923,2.923-3.324l.771-1.474c.563-.875.334-2.027-.521-2.622ZM6,8.708c.653.187,1.338.292,2.046.292h2.954v2h-5v-2.292Zm12,2.292h-5v-2h2.906c.725,0,1.427-.107,2.094-.303v2.303Zm2.948-7.426c-.906,2.113-2.381,3.426-5.042,3.426h-7.86c-2.204,0-4.26-1.312-5.165-3.426-.021-.05-.609-1.259-.609-1.259,1.304,1.086,2.956,1.685,4.653,1.685h10.103c1.696,0,3.349-.598,4.61-1.651,0,0-.669,1.175-.69,1.225Z"/>
</svg>
