<?xml version="1.0" encoding="UTF-8"?>
<svg xmlns="http://www.w3.org/2000/svg" id="Layer_1" data-name="Layer 1" viewBox="0 0 24 24">
  <path d="m17.756,9.479c.569.556.175,1.521-.62,1.521H6.864c-.795,0-1.189-.966-.62-1.521l4.607-4.503c.635-.635,1.663-.635,2.298,0l4.607,4.503Zm6.244,2.521c0,6.617-5.383,12-12,12S0,18.617,0,12,5.383,0,12,0s12,5.383,12,12Zm-2,0c0-5.514-4.486-10-10-10S2,6.486,2,12s4.486,10,10,10,10-4.486,10-10Zm-4.075,1.618c.154.375.067.805-.22,1.091l-4.183,4.161c-.405.405-.946.63-1.522.63s-1.117-.225-1.524-.632l-4.181-4.159c-.287-.286-.374-.716-.22-1.091.155-.374.52-.618.925-.618h10c.405,0,.77.244.925.618Zm-3.348,1.382h-5.154l2.465,2.452c.08.08.146.078.223.002l2.467-2.454Z"/>
</svg>
