<?xml version="1.0" encoding="UTF-8"?>
<svg xmlns="http://www.w3.org/2000/svg" id="Layer_1" data-name="Layer 1" viewBox="0 0 24 24">
  <path d="m12.76,10.469l-1.072-5.253c-.101-.496.278-.96.784-.96.38,0,.708.268.784.64l1.072,5.253c.013.065.031.117.05.159.02-.047.042-.109.057-.188l1.053-5.222c.075-.373.403-.642.784-.642.505,0,.884.463.784.958l-1.051,5.211c-.126.647-.609,1.575-1.628,1.575s-1.51-.97-1.618-1.531Zm-4.26-4.869c.408,0,.753.272.863.645.024.081.027.755.833.755s.815-.699.804-.796c-.146-1.241-1.219-2.204-2.5-2.204-1.381,0-2.5,1.119-2.5,2.5v3c0,1.381,1.119,2.5,2.5,2.5,1.278,0,2.35-.958,2.5-2.196.012-.1-.032-.804-.799-.804s-.813.669-.835.747c-.108.376-.455.653-.866.653-.496,0-.9-.404-.9-.9v-3c0-.496.404-.9.9-.9Zm13.5-.6v8.515c0,1.869-.728,3.627-2.05,4.95l-3.486,3.484c-1.321,1.322-3.079,2.051-4.95,2.051h-4.515c-2.757,0-5-2.243-5-5V5C2,2.243,4.243,0,7,0h10c2.757,0,5,2.243,5,5Zm-10.485,17c.165,0,.323-.032.485-.047v-4.953c0-1.654,1.346-3,3-3h4.953c.016-.162.047-.321.047-.485V5c0-1.654-1.346-3-3-3H7c-1.654,0-3,1.346-3,3v14c0,1.654,1.346,3,3,3h4.515Zm7.021-4.949c.315-.315.564-.675.781-1.051h-4.316c-.551,0-1,.448-1,1v4.316c.376-.217.735-.466,1.05-.781l3.486-3.484Z"/>
</svg>
