<?xml version="1.0" encoding="UTF-8"?>
<svg xmlns="http://www.w3.org/2000/svg" id="Layer_1" data-name="Layer 1" viewBox="0 0 24 24">
  <path d="m16.883,21.222c.26.487.075,1.093-.413,1.353-1.245.664-2.575,1.127-3.954,1.377-.176.032-.353.048-.528.048-.688,0-1.36-.242-1.902-.694-.689-.576-1.085-1.419-1.085-2.316v-1.041C3.954,19.446,0,15.177,0,10c0-1.142.191-2.264.568-3.333.185-.52.755-.794,1.276-.61.521.184.794.755.61,1.276-.302.854-.455,1.752-.455,2.667,0,4.411,3.589,8,8,8,.915,0,1.812-.153,2.666-.456.518-.183,1.091.087,1.276.608.185.521-.088,1.092-.608,1.277-.755.268-1.537.437-2.334.517v1.045c0,.302.134.586.366.781.131.11.413.285.792.213,1.175-.213,2.31-.608,3.372-1.174.487-.262,1.093-.074,1.353.412Zm6.824,1.071c.391.391.391,1.023,0,1.414-.195.195-.451.293-.707.293s-.512-.098-.707-.293L.293,1.707C-.098,1.316-.098.684.293.293S1.316-.098,1.707.293l1.969,1.969C5.458.802,7.673,0,10,0c3.392,0,6.525,1.703,8.382,4.555.302.463.171,1.082-.292,1.383-.169.11-.358.162-.545.162-.327,0-.647-.16-.839-.455-1.486-2.283-3.993-3.646-6.706-3.646-1.794,0-3.506.594-4.904,1.682l4.393,4.393c.666-.176,1.403-.011,1.925.511s.687,1.259.511,1.925l4.388,4.388c.138-.177.271-.358.394-.547.303-.462.922-.591,1.384-.291.462.302.593.921.29,1.384-.198.304-.418.593-.647.874l1.46,1.46c1.174-1.43,2.001-3.083,2.437-4.85-.204.044-.414.07-.631.07-1.654,0-3-1.346-3-3s1.346-3,3-3,3,1.346,3,3c0,3.379-1.207,6.616-3.388,9.198l3.095,3.095Zm-1.707-12.293c0-.551-.448-1-1-1s-1,.449-1,1,.448,1,1,1,1-.449,1-1Z"/>
</svg>
