<?xml version="1.0" encoding="UTF-8"?>
<svg xmlns="http://www.w3.org/2000/svg" id="Layer_1" data-name="Layer 1" viewBox="0 0 24 24">
  <path d="m21.122,18.229c.426.352.486.982.135,1.408-2.29,2.772-5.664,4.363-9.257,4.363C5.383,24,0,18.617,0,12S5.383,0,12,0c3.593,0,6.966,1.59,9.257,4.363.352.426.291,1.056-.135,1.408-.426.353-1.056.292-1.408-.134-1.908-2.311-4.72-3.637-7.714-3.637C6.486,2,2,6.486,2,12s4.486,10,10,10c2.994,0,5.806-1.325,7.714-3.637.352-.426.98-.485,1.408-.135Zm-15.336-6.538c-.33-.392-.536-.89-.536-1.441,0-1.241,1.009-2.25,2.25-2.25s2.25,1.009,2.25,2.25c0,.551-.207,1.049-.536,1.441.481.456.785,1.096.785,1.81,0,1.378-1.121,2.499-2.499,2.499s-2.499-1.121-2.499-2.499c0-.714.304-1.354.785-1.81Zm2.613,1.81c0-.496-.403-.9-.899-.9s-.899.404-.899.9.403.899.899.899.899-.403.899-.899Zm-1.799-3.251c0,.496.404.899.899.899s.899-.404.899-.899-.404-.899-.899-.899-.899.404-.899.899Zm6.899-2.25c1.381,0,2.5,1.119,2.5,2.5v3c0,1.381-1.119,2.5-2.5,2.5s-2.5-1.119-2.5-2.5v-3c0-1.381,1.119-2.5,2.5-2.5Zm0,1.6c-.496,0-.9.404-.9.9v3c0,.496.404.9.9.9s.9-.404.9-.9v-3c0-.496-.404-.9-.9-.9Zm9.25,3.881c-.69,0-1.25.56-1.25,1.25s.56,1.25,1.25,1.25,1.25-.56,1.25-1.25-.56-1.25-1.25-1.25Zm-3.25-4.25c0-.69-.56-1.25-1.25-1.25s-1.25.56-1.25,1.25.56,1.25,1.25,1.25,1.25-.56,1.25-1.25Zm-1.156,6.75c.27,0,.522-.136.67-.363l4.178-6.4c.347-.532-.034-1.237-.67-1.237-.27,0-.522.136-.67.363l-4.178,6.4c-.347.532.034,1.237.67,1.237Z"/>
</svg>
