<?xml version="1.0" encoding="UTF-8"?>
<svg xmlns="http://www.w3.org/2000/svg" id="Layer_1" data-name="Layer 1" viewBox="0 0 24 24">
  <path d="m6.5,16c.828,0,1.5.672,1.5,1.5s-.672,1.5-1.5,1.5-1.5-.672-1.5-1.5.672-1.5,1.5-1.5Zm5,3c.828,0,1.5-.672,1.5-1.5s-.672-1.5-1.5-1.5-1.5.672-1.5,1.5.672,1.5,1.5,1.5ZM24,3.998v2.002c0,2.206-1.794,4-4,4h-2.854l-2.435,1.696c-.301.202-.643.302-.983.302-.279,0-.558-.068-.812-.204-.565-.302-.916-.888-.916-1.529V3.998C12,1.792,13.794-.002,16-.002h4C22.206-.002,24,1.792,24,3.998Zm-2,0c0-1.103-.897-2-2-2h-4c-1.103,0-2,.897-2,2v5.757l2.262-1.575c.167-.117.367-.18.571-.18h3.167c1.103,0,2-.897,2-2v-2.002Zm-5.5,11.002h-.5c0-.552-.447-1-1-1s-1,.448-1,1v5c0,1.103-.897,2-2,2h-6c-1.103,0-2-.897-2-2v-5c0-1.103.897-2,2-2h3c.552,0,1-.448,1-1v-2c0-.552-.448-1-1-1s-1,.448-1,1v1h-2c-2.206,0-4,1.794-4,4h-.5c-.827,0-1.5.673-1.5,1.5v2c0,.827.673,1.5,1.5,1.5h.5c0,2.206,1.794,4,4,4h6c2.206,0,4-1.794,4-4h.5c.827,0,1.5-.673,1.5-1.5v-2c0-.827-.673-1.5-1.5-1.5Z"/>
</svg>
