<?xml version="1.0" encoding="UTF-8"?>
<svg xmlns="http://www.w3.org/2000/svg" id="Layer_1" data-name="Layer 1" viewBox="0 0 24 24">
  <path d="m23.782,2.025c-.481-1.23-1.635-2.025-2.938-2.025H3.156C1.853,0,.699.795.218,2.025c-.466,1.19-.183,2.459.771,3.34l8.149,7.528c.548.498,1.19.829,1.863.992v8.115h-4c-.552,0-1,.447-1,1s.448,1,1,1h10c.552,0,1-.447,1-1s-.448-1-1-1h-4v-8.116c.674-.164,1.318-.496,1.869-.997l8.173-7.551c.922-.853,1.206-2.121.74-3.312Zm-2.128,1.871l-8.136,7.517c-.415.378-1.018.587-1.518.587s-1.101-.208-1.512-.581L2.315,3.868c-.445-.411-.312-.916-.235-1.114.143-.364.5-.754,1.076-.754h17.688c.576,0,.934.39,1.076.754.078.198.21.703-.266,1.143Z"/>
</svg>
