<?xml version="1.0" encoding="UTF-8"?>
<svg xmlns="http://www.w3.org/2000/svg" id="Layer_1" data-name="Layer 1" viewBox="0 0 24 24">
  <path d="m13.5,13c-.828,0-1.5-.672-1.5-1.5s.672-1.5,1.5-1.5,1.5.672,1.5,1.5-.672,1.5-1.5,1.5Zm8.803.887c-.215-.191-.409-.37-.564-.526-1.852-1.852-3.105-4.005-4.211-5.904-.873-1.5-1.636-2.81-2.527-3.614V.814c0-.543-.521-.926-1.045-.785-1.453.392-2.578,1.583-2.876,3.073C2.391,4.057,0,11.488,0,16v7c0,.552.448,1,1,1s1-.448,1-1v-7c0-1.126.309-11,11-11,.782,0,1.761,1.682,2.798,3.463,1.11,1.905,2.49,4.277,4.525,6.311.178.179.401.386.65.607,1.184,1.053,1.363,2.85.41,4.089l-.084.109c-.322.418-.891.541-1.352.294-.355-.191-.789-.415-1.272-.664-1.493-.771-3.537-1.825-5.12-2.886-.605-.406-1.389-.366-1.95.094-.558.458-.747,1.213-.47,1.88.856,2.065,2.729,5.104,2.809,5.232.189.306.517.474.852.474.179,0,.361-.048.525-.149.47-.29.615-.906.325-1.376-.015-.024-1.256-2.037-2.142-3.818,1.443.876,3.029,1.694,4.254,2.327.472.243.895.462,1.243.649,1.329.712,2.961.361,3.882-.835l.084-.109c1.59-2.068,1.298-5.057-.665-6.804Z"/>
</svg>
