<?xml version="1.0" encoding="UTF-8"?>
<svg xmlns="http://www.w3.org/2000/svg" id="Layer_1" data-name="Layer 1" viewBox="0 0 24 24">
  <path d="m17.776,21.334c-.564,1.595-2.085,2.666-3.781,2.666H4.005c-1.17,0-2.279-.51-3.044-1.398-.753-.875-1.087-2.025-.917-3.158.405-2.698,1.885-5.198,4.401-7.444C1.929,9.754.449,7.254.044,4.556c-.17-1.132.164-2.283.917-3.157C1.726.51,2.835,0,4.005,0h9.99c1.696,0,3.217,1.071,3.781,2.666.185.521-.088,1.092-.608,1.276-.521.187-1.092-.088-1.276-.608-.283-.798-1.045-1.334-1.896-1.334H4.005c-.587,0-1.145.257-1.528.703-.378.439-.539.991-.454,1.555.375,2.499,1.922,4.84,4.598,6.958.24.189.38.479.38.784s-.14.595-.38.784c-2.676,2.118-4.223,4.458-4.598,6.957-.085.564.076,1.117.454,1.556.384.446.941.703,1.528.703h9.99c.852,0,1.613-.536,1.896-1.333.185-.521.758-.796,1.276-.608.521.184.793.756.608,1.276Zm-8.15-7.39l.508.405c1.172.932,2.727,2.431,3.474,4.275.125.309.088.659-.098.935-.186.275-.496.441-.829.441h-7.362c-.332,0-.643-.166-.829-.441-.186-.275-.223-.625-.099-.933.746-1.853,2.3-3.346,3.472-4.273l.52-.411c.364-.289.88-.288,1.244.002Zm-.627,2.06c-.631.509-1.371,1.194-1.965,1.996h3.928c-.594-.798-1.332-1.484-1.963-1.996Zm15.001-4.003c0,3.309-2.691,6-6,6s-6-2.691-6-6,2.691-6,6-6,6,2.691,6,6Zm-2,0c0-2.206-1.794-4-4-4s-4,1.794-4,4,1.794,4,4,4,4-1.794,4-4Zm-3-.414v-1.586c0-.552-.447-1-1-1s-1,.448-1,1v2c0,.265.105.52.293.707l1,1c.195.195.451.293.707.293s.512-.098.707-.293c.391-.391.391-1.023,0-1.414l-.707-.707Z"/>
</svg>
