<?xml version="1.0" encoding="UTF-8"?>
<svg xmlns="http://www.w3.org/2000/svg" id="Layer_1" data-name="Layer 1" viewBox="0 0 24 24">
  <path d="m18,9V1c0-.552.447-1,1-1,.6,0,1.195.128,1.751.377l2.813,1.259c.581.399.581,1.329,0,1.729l-3.565,1.885v3.75c0,.552-.447,1-1,1s-1-.448-1-1Zm2,5h-7c-1.103,0-2-.897-2-2s.897-2,2-2h2c.553,0,1-.448,1-1s-.447-1-1-1h-2c-2.206,0-4,1.794-4,4s1.794,4,4,4h7c1.103,0,2,.897,2,2s-.897,2-2,2h-6c-.553,0-1,.448-1,1s.447,1,1,1h6c2.206,0,4-1.794,4-4s-1.794-4-4-4Zm-11.5,5c-.073,0-.141.015-.213.021l-1.103-2.021h.815c.553,0,1-.448,1-1s-.447-1-1-1h-1.371c-.596,0-1.132.306-1.437.817-.304.512-.315,1.129-.03,1.652l.069.126-.888.533-.694-1.157c-.359-.599-1.017-.971-1.715-.971h-.934c-.553,0-1,.448-1,1s.447,1,1,1h.934l.602,1.004c-.012,0-.024-.004-.036-.004-1.381,0-2.5,1.119-2.5,2.5s1.119,2.5,2.5,2.5,2.5-1.119,2.5-2.5c0-.45-.128-.867-.337-1.232l1.526-.916.341.625c-.327.423-.53.947-.53,1.523,0,1.381,1.119,2.5,2.5,2.5s2.5-1.119,2.5-2.5-1.119-2.5-2.5-2.5Z"/>
</svg>
