<?xml version="1.0" encoding="UTF-8"?>
<svg xmlns="http://www.w3.org/2000/svg" id="Layer_1" data-name="Layer 1" viewBox="0 0 24 24">
  <path d="m23.677,1.737c.391-.391.391-1.023,0-1.414s-1.023-.391-1.414,0l-5.024,5.024c-2.344-1.743-5.57-1.82-8.024-.068-.751.511-1.188,1.382-1.139,2.273.04.728-.379,1.36-1.243,1.879-.838.503-1.603.631-2.268.385-1.099-.406-2.341-.026-3.018.928-2.379,3.349-1.997,7.888.908,10.793,1.63,1.63,3.774,2.466,5.934,2.466,1.689,0,3.39-.512,4.858-1.556.956-.678,1.338-1.92.928-3.021-.249-.668-.121-1.433.382-2.27.519-.864,1.169-1.285,1.881-1.24.91.049,1.769-.386,2.277-1.138,1.75-2.451,1.674-5.672-.065-8.016l5.026-5.026Zm-6.613,11.916c-.119.175-.32.269-.512.267-.866-.049-2.488.173-3.709,2.208-1.035,1.726-.865,3.127-.541,3.998.095.253.008.538-.211.692-2.271,1.613-5.257,1.547-7.447-.047l1.063-1.063c.391-.391.391-1.023,0-1.414s-1.023-.391-1.414,0l-1.064,1.064c-1.6-2.191-1.666-5.181-.05-7.456.154-.218.436-.304.691-.21.868.323,2.267.49,3.992-.545,2.033-1.221,2.258-2.845,2.21-3.704-.01-.195.092-.391.306-.537,1.653-1.181,3.8-1.189,5.43-.128l-5.515,5.515c-.391.391-.391,1.023,0,1.414.195.195.451.293.707.293s.512-.098.707-.293l5.512-5.512c1.056,1.631,1.044,3.777-.156,5.458Zm-.094-12.122c0-.828.672-1.5,1.5-1.5s1.5.672,1.5,1.5-.672,1.5-1.5,1.5-1.5-.672-1.5-1.5Zm7,4c0,.828-.672,1.5-1.5,1.5s-1.5-.672-1.5-1.5.672-1.5,1.5-1.5,1.5.672,1.5,1.5Zm-14.263,10.763c.391.391.391,1.023,0,1.414-.195.195-.451.293-.707.293s-.512-.098-.707-.293l-2-2c-.391-.391-.391-1.023,0-1.414s1.023-.391,1.414,0l2,2Z"/>
</svg>
