<?xml version="1.0" encoding="UTF-8"?>
<svg xmlns="http://www.w3.org/2000/svg" id="Layer_1" data-name="Layer 1" viewBox="0 0 24 24">
  <path d="m21.618,2h.382c.552,0,1-.448,1-1s-.448-1-1-1H2c-.552,0-1,.448-1,1s.448,1,1,1h.382C.907,4.278,0,7.184,0,9.905c0,4.213,2.637,9.206,3.771,11.156,1.053,1.813,3.032,2.939,5.163,2.939h6.134c2.131,0,4.109-1.126,5.163-2.938,1.134-1.951,3.771-6.943,3.771-11.157,0-2.721-.907-5.627-2.382-7.905Zm-3.118,18.057c-.697,1.198-2.012,1.943-3.433,1.943h-6.134c-1.421,0-2.736-.745-3.433-1.944-2.191-3.771-3.5-7.565-3.5-10.151,0-2.772,1.133-5.889,2.85-7.905h.65c.827,0,1.5.673,1.5,1.5v7.5c0,.552.448,1,1,1s1-.448,1-1V3.5c0-.827.673-1.5,1.5-1.5s1.5.673,1.5,1.5v3.5c0,.552.448,1,1,1s1-.448,1-1v-3.5c0-.827.673-1.5,1.5-1.5h3.65c1.717,2.016,2.85,5.132,2.85,7.905,0,2.585-1.309,6.38-3.5,10.152Z"/>
</svg>
