<?xml version="1.0" encoding="UTF-8"?>
<svg xmlns="http://www.w3.org/2000/svg" id="Layer_1" data-name="Layer 1" viewBox="0 0 24 24">
  <path d="m23.707,5.793L18.207.293c-.391-.391-1.023-.391-1.414,0s-.391,1.023,0,1.414l2.043,2.043-8.864,8.864-1.191-1.191c-1.211-1.212-3.326-1.212-4.539,0l-1.606,1.606c-1.7,1.699-2.636,3.959-2.636,6.364v1.107c0,1.93,1.57,3.5,3.5,3.5h1.107c2.404,0,4.665-.936,6.364-2.636l1.606-1.606c.606-.606.94-1.412.94-2.269s-.333-1.664-.94-2.27l-1.191-1.191,8.864-8.864,2.043,2.043c.195.195.451.293.707.293s.512-.098.707-.293c.391-.391.391-1.023,0-1.414Zm-12.544,10.84c.472.472.472,1.239,0,1.71l-1.606,1.606c-1.322,1.322-3.08,2.05-4.95,2.05h-1.107c-.827,0-1.5-.673-1.5-1.5v-1.107c0-1.87.728-3.628,2.05-4.95l1.606-1.606c.236-.236.545-.354.855-.354s.619.118.855.354l1.191,1.191-2.265,2.265c-.391.391-.391,1.023,0,1.414.195.195.451.293.707.293s.512-.098.707-.293l2.265-2.265,1.191,1.191Z"/>
</svg>
