<?xml version="1.0" encoding="UTF-8"?>
<svg xmlns="http://www.w3.org/2000/svg" id="Layer_1" data-name="Layer 1" viewBox="0 0 24 24">
  <path d="m23,17h-.838l-2.021-11.456c-.465-2.633-2.742-4.544-5.416-4.544h-5.449c-2.673,0-4.951,1.911-5.417,4.544l-2.022,11.456h-.837c-.552,0-1,.447-1,1s.448,1,1,1h.051c.252,2.244,2.139,4,4.449,4h13c2.31,0,4.197-1.756,4.449-4h.051c.553,0,1-.447,1-1s-.447-1-1-1ZM5.457,8h1.043c.827,0,1.5.673,1.5,1.5v4.5c0,.553.448,1,1,1s1-.447,1-1v-4.5c0-.827.673-1.5,1.5-1.5s1.5.673,1.5,1.5v2.5c0,.553.447,1,1,1s1-.447,1-1v-2.5c0-.827.673-1.5,1.5-1.5h2.044l1.588,9H3.868l1.588-9Zm3.819-5h5.449c1.701,0,3.151,1.216,3.447,2.892l.019.108h-1.691c-.979,0-1.864.403-2.5,1.053-.636-.649-1.521-1.053-2.5-1.053s-1.864.403-2.5,1.053c-.636-.649-1.521-1.053-2.5-1.053h-.69l.019-.108c.296-1.676,1.746-2.892,3.447-2.892Zm9.225,18H5.5c-1.207,0-2.217-.86-2.449-2h17.899c-.232,1.14-1.242,2-2.449,2Z"/>
</svg>
