<?xml version="1.0" encoding="UTF-8"?>
<svg xmlns="http://www.w3.org/2000/svg" id="Layer_1" data-name="Layer 1" viewBox="0 0 24 24">
  <path d="m22.828,9.914l-3.401-3.401c-.488-3.683-3.668-6.513-7.427-6.513-3.23,0-6.015,2.039-7.057,5.028-.208.02-.416.052-.623.096C2.184,5.571.484,7.323.092,9.482c-.363,2.008.363,3.966,1.908,5.233v.284c0,.266.105.52.293.707l.793.793-.793.793c-.391.391-.391,1.023,0,1.414l.793.793-.793.793c-.188.188-.293.442-.293.707s.105.52.293.707l1.648,1.647c.43.43.994.646,1.56.646.564,0,1.13-.216,1.56-.646l1.061-1.062c.566-.566.879-1.32.879-2.121v-5.431c1.262-1.041,2-2.589,2-4.241,0-1.664-.741-3.221-2.034-4.271-.585-.475-1.255-.811-1.963-1.011.877-1.934,2.8-3.217,4.998-3.217,2.72,0,5.009,2.025,5.414,4.672l-3.242,3.242c-.745.744-1.172,1.775-1.172,2.828v7.258c0,2.206,1.794,4,4,4h3c2.206,0,4-1.794,4-4v-7.258c0-1.053-.427-2.084-1.172-2.828Zm-13.828.586c0,1.169-.582,2.256-1.557,2.909-.277.186-.443.497-.443.831v5.932c0,.263-.106.521-.293.707l-1.061,1.062c-.068.068-.223.068-.291,0l-.941-.94.793-.793c.391-.391.391-1.023,0-1.414l-.793-.793.793-.793c.391-.391.391-1.023,0-1.414l-1.207-1.207v-.372c0-.333-.166-.645-.442-.83-1.177-.79-1.75-2.148-1.497-3.544.248-1.367,1.321-2.477,2.67-2.759,1.088-.227,2.14.022,2.975.7.823.669,1.295,1.659,1.295,2.719Zm13,9.5c0,1.103-.897,2-2,2h-3c-1.103,0-2-.897-2-2v-7.258c0-.526.214-1.042.586-1.414l2.914-2.914,2.914,2.914c.372.372.586.888.586,1.414v7.258ZM5.5,8c.828,0,1.5.672,1.5,1.5s-.672,1.5-1.5,1.5-1.5-.672-1.5-1.5.672-1.5,1.5-1.5Z"/>
</svg>
