<?xml version="1.0" encoding="UTF-8"?>
<svg xmlns="http://www.w3.org/2000/svg" id="Layer_1" data-name="Layer 1" viewBox="0 0 24 24">
  <path d="m24,14v-6c0-2.757-2.243-5-5-5H5c-.187,0-.37.014-.552.034L1.707.293C1.316-.098.684-.098.293.293S-.098,1.316.293,1.707l22,22c.195.195.451.293.707.293s.512-.098.707-.293c.391-.391.391-1.023,0-1.414l-3.467-3.467c2.156-.555,3.76-2.499,3.76-4.826Zm-2,0c0,1.654-1.346,3-3,3h-.5c-.025,0-.047.013-.071.014L6.414,5h12.586c1.654,0,3,1.346,3,3v6Zm-5.5,7c0,.552-.448,1-1,1h-7.5c-.552,0-1-.448-1-1s.448-1,1-1h3v-1h-6c-2.757,0-5-2.243-5-5v-6c0-.421.053-.841.157-1.249.137-.535.68-.859,1.217-.72.535.137.857.682.72,1.217-.063.245-.095.498-.095.751v6c0,1.654,1.346,3,3,3h7c.552,0,1,.448,1,1v2h2.5c.552,0,1,.448,1,1Z"/>
</svg>
