<?xml version="1.0" encoding="UTF-8"?>
<svg xmlns="http://www.w3.org/2000/svg" id="Layer_1" data-name="Layer 1" viewBox="0 0 24 24">
  <path d="m20.568,1.105c-2.353-1.502-5.394-1.492-7.747.022-1.086.698-1.936,1.614-2.524,2.72-.762,1.427-1.898,2.358-3.201,2.621-2.438.493-4.504,1.947-5.817,4.096-2.126,3.481-1.533,8.075,1.41,10.925,1.667,1.614,3.861,2.504,6.177,2.504,8.2,0,15.128-7.648,15.128-16.703,0-2.504-1.28-4.816-3.425-6.186Zm-11.703,20.888c-1.794,0-3.493-.689-4.786-1.941-2.276-2.204-2.736-5.756-1.094-8.445,1.02-1.668,2.62-2.797,4.507-3.179,1.898-.383,3.521-1.676,4.569-3.64.427-.801,1.046-1.467,1.842-1.979.843-.542,1.829-.813,2.814-.813.974,0,1.945.265,2.774.794,1.589,1.015,2.501,2.655,2.501,4.5,0,7.969-6.012,14.703-13.128,14.703Zm9.135-14.493c0,.828-.672,1.5-1.5,1.5s-1.5-.672-1.5-1.5.672-1.5,1.5-1.5,1.5.672,1.5,1.5Zm-9,7c0,.828-.672,1.5-1.5,1.5s-1.5-.672-1.5-1.5.672-1.5,1.5-1.5,1.5.672,1.5,1.5Zm9-1c0,.828-.672,1.5-1.5,1.5s-1.5-.672-1.5-1.5.672-1.5,1.5-1.5,1.5.672,1.5,1.5Z"/>
</svg>
