<?xml version="1.0" encoding="UTF-8"?>
<svg xmlns="http://www.w3.org/2000/svg" id="Layer_1" data-name="Layer 1" viewBox="0 0 24 24">
  <path d="m17.995,5h-3.262c-.652,0-.978.788-.517,1.249l1.061,1.061-1.522,1.522c-1.448-1.143-3.271-1.832-5.254-1.832C3.813,7,0,10.813,0,15.5s3.813,8.5,8.5,8.5,8.5-3.813,8.5-8.5c0-1.984-.688-3.806-1.832-5.254l1.522-1.522,1.061,1.061c.461.461,1.249.134,1.249-.517v-3.262c0-.555-.45-1.005-1.005-1.005Zm-9.495,17c-3.584,0-6.5-2.916-6.5-6.5s2.916-6.5,6.5-6.5,6.5,2.916,6.5,6.5-2.916,6.5-6.5,6.5Zm15.5-13.5c0,2.698-1.239,5.177-3.399,6.8-.18.135-.391.2-.6.2-.304,0-.604-.138-.801-.399-.331-.441-.242-1.068.199-1.4,1.652-1.241,2.601-3.137,2.601-5.2,0-3.584-2.916-6.5-6.5-6.5-2.063,0-3.959.948-5.201,2.601-.331.441-.957.529-1.4.199-.441-.332-.531-.959-.199-1.4,1.623-2.16,4.101-3.399,6.8-3.399,4.687,0,8.5,3.813,8.5,8.5Z"/>
</svg>
