<?xml version="1.0" encoding="UTF-8"?>
<svg xmlns="http://www.w3.org/2000/svg" id="Layer_1" data-name="Layer 1" viewBox="0 0 24 24">
  <path d="m15.707,14.293c.391.391.391,1.023,0,1.414-.195.195-.451.293-.707.293s-.512-.098-.707-.293l-2-2c-.391-.391-.391-1.023,0-1.414s1.023-.391,1.414,0l2,2Zm8,9.414c-.195.195-.451.293-.707.293s-.512-.098-.707-.293l-2.712-2.712c-.95.654-2.061.994-3.18.994-1.289,0-2.579-.438-3.618-1.325-4.432-3.781-7.834-6.852-10.111-9.129L.318,9.182c-.391-.391-.391-1.023,0-1.414s1.023-.391,1.414,0l1.275,1.275,1.043-1.043-1.238-1.273c-.385-.396-.376-1.029.02-1.414.396-.385,1.028-.377,1.414.02l1.218,1.253,1.086-1.086-1.238-1.273c-.385-.396-.376-1.029.02-1.414.396-.385,1.029-.376,1.414.02l1.218,1.253,1.078-1.078-1.275-1.275c-.391-.391-.391-1.024,0-1.414.391-.391,1.023-.391,1.414,0l2.354,2.354c2.277,2.277,5.349,5.679,9.129,10.111,1.657,1.941,1.743,4.758.335,6.801l2.708,2.708c.391.391.391,1.023,0,1.414Zm-13.936-13.936c1.418-1.418,1.606-3.607.564-5.23l-5.796,5.795c1.592,1.025,3.863.803,5.231-.565Zm9.175,9.175c1.315-1.315,1.401-3.452.196-4.865-2.342-2.746-4.406-5.089-6.171-7.007-.065,1.495-.647,2.972-1.786,4.111-1.102,1.102-2.548,1.731-4.095,1.801,1.916,1.762,4.253,3.821,6.992,6.157,1.412,1.207,3.55,1.119,4.864-.197Z"/>
</svg>
