<?xml version="1.0" encoding="UTF-8"?>
<svg xmlns="http://www.w3.org/2000/svg" id="Layer_1" data-name="Layer 1" viewBox="0 0 24 24">
  <path d="m17.846,14.217l-4.393-1.892c-.937-.403-2.012-.403-2.948.002h0s-4.365,1.89-4.365,1.89c-.723.313-1.172.997-1.173,1.784s.447,1.472,1.168,1.787l1.865.814v2.592c0,.974.57,1.866,1.454,2.273.769.354,1.625.533,2.546.533s1.777-.18,2.548-.533c.882-.407,1.452-1.3,1.452-2.273v-2.6l1-.434v2.841c0,.553.447,1,1,1s1-.447,1-1c0,0,0-4.947,0-5,0-.777-.441-1.478-1.154-1.783Zm-6.546-.054c.432-.188.93-.188,1.362-.002l4.35,1.777c0,.014-.007.025-.008.039l-4.335,1.883c-.436.189-.936.189-1.372-.002l-4.363-1.805,4.365-1.89Zm2.7,7.03c0,.199-.111.375-.289.457-1.01.463-2.413.463-3.421,0-.179-.082-.29-.258-.29-.457v-1.719l.498.217c.473.206.98.309,1.488.309.505,0,1.01-.102,1.481-.307l.533-.232v1.732ZM7,4.5c0,.828-.672,1.5-1.5,1.5s-1.5-.672-1.5-1.5.672-1.5,1.5-1.5,1.5.672,1.5,1.5Zm4,0c0,.828-.672,1.5-1.5,1.5s-1.5-.672-1.5-1.5.672-1.5,1.5-1.5,1.5.672,1.5,1.5ZM19,0H5C2.243,0,0,2.243,0,5v12c0,2.757,2.243,5,5,5,.552,0,1-.447,1-1s-.448-1-1-1c-1.654,0-3-1.346-3-3v-8h20v8c0,.731-.266,1.436-.749,1.983-.365.414-.326,1.046.089,1.411.412.365,1.045.327,1.411-.089.806-.912,1.249-2.087,1.249-3.306V5c0-2.757-2.243-5-5-5ZM2,7v-2c0-1.654,1.346-3,3-3h14c1.654,0,3,1.346,3,3v2H2Z"/>
</svg>
