<?xml version="1.0" encoding="UTF-8"?>
<svg xmlns="http://www.w3.org/2000/svg" id="Layer_1" data-name="Layer 1" viewBox="0 0 24 24">
  <path d="m13,8v1c0,.552-.448,1-1,1s-1-.448-1-1v-1c0-.552.448-1,1-1s1,.448,1,1Zm-7,.5V3.5c0-1.93,1.57-3.5,3.5-3.5h5c1.93,0,3.5,1.57,3.5,3.5v5c0,1.89-1.506,3.436-3.382,3.498l-1.589,1.574c-.29.284-.668.426-1.045.426-.381,0-.761-.145-1.05-.433l-1.557-1.567c-1.873-.065-3.376-1.609-3.376-3.498Zm2,0c0,.827.673,1.5,1.5,1.5h.295c.267,0,.521.106.709.295l1.483,1.493,1.514-1.499c.188-.185.44-.289.704-.289h.295c.827,0,1.5-.673,1.5-1.5V3.5c0-.827-.673-1.5-1.5-1.5h-5c-.827,0-1.5.673-1.5,1.5v5ZM21.502,1.671c-.48-.277-1.09-.113-1.367.364-.277.478-.114,1.09.364,1.367.94.545,1.501,1.517,1.501,2.6v10.792c0,1.451-1.036,2.692-2.463,2.952l-6.285,1.143c-.084.015-.168.011-.252.023v-3.91c0-.552-.448-1-1-1s-1,.448-1,1v3.91c-.084-.012-.169-.008-.252-.023l-6.285-1.143c-1.427-.259-2.463-1.501-2.463-2.952V6.001c0-1.083.561-2.055,1.501-2.6.478-.277.641-.889.364-1.367-.277-.477-.889-.641-1.367-.364C.958,2.564,0,4.224,0,6.001v10.792C0,19.211,1.727,21.28,4.106,21.712l6.284,1.143c.534.097,1.072.146,1.61.146s1.076-.049,1.61-.146l6.284-1.143c2.379-.433,4.106-2.501,4.106-4.919V6.001c0-1.778-.958-3.437-2.499-4.33Zm-9.502,4.329c.828,0,1.5-.672,1.5-1.5s-.672-1.5-1.5-1.5-1.5.672-1.5,1.5.672,1.5,1.5,1.5Z"/>
</svg>
