<?xml version="1.0" encoding="UTF-8"?>
<svg xmlns="http://www.w3.org/2000/svg" id="Layer_1" data-name="Layer 1" viewBox="0 0 24 24">
  <path d="m23,4h-2c0-.552-.448-1-1-1s-1,.448-1,1h-2c-.552,0-1,.448-1,1s.448,1,1,1h2v4.248c-2.035-1.451-4.464-2.248-7-2.248s-4.965.797-7,2.249v-4.249h2c.552,0,1-.448,1-1s-.448-1-1-1h-2c0-.552-.448-1-1-1s-1,.448-1,1H1c-.552,0-1,.448-1,1s.448,1,1,1h2v6.039c0,1.298.624,2.513,1.669,3.25.262.185.552.375.854.565-.756,1.098-1.523,2.593-1.523,4.145v1c0,.552.448,1,1,1s1-.448,1-1v-1c0-.898.468-2.018,1.296-3.173,1.405.665,3.019,1.173,4.704,1.173s3.299-.508,4.704-1.173c.828,1.155,1.296,2.275,1.296,3.173v1c0,.552.448,1,1,1s1-.448,1-1v-1c0-1.552-.766-3.047-1.522-4.145.302-.19.591-.38.854-.565,1.045-.737,1.668-1.952,1.668-3.25v-6.039h2c.552,0,1-.448,1-1s-.448-1-1-1Zm-7.534,6.62l-1.38,1.38h-4.172l-1.379-1.379c1.099-.402,2.267-.621,3.465-.621s2.367.218,3.466.62Zm2.713,3.035c-1.24.875-3.692,2.344-6.178,2.344s-4.938-1.469-6.178-2.344c-.33-.233-.562-.57-.695-.949.48-.447.998-.841,1.545-1.183.039.062.068.129.121.183l2,2c.188.188.442.293.707.293h5c.265,0,.52-.105.707-.293l2-2c.054-.054.082-.121.122-.183.547.341,1.065.736,1.544,1.183-.133.379-.365.716-.695.949Z"/>
</svg>
