<?xml version="1.0" encoding="UTF-8"?>
<svg xmlns="http://www.w3.org/2000/svg" id="Layer_1" data-name="Layer 1" viewBox="0 0 24 24">
  <path d="m21.5,19c-.46,0-.886.133-1.256.35l-2.874-2.09c1.014-.748,1.63-1.941,1.63-3.215l.011-4.087c0-1.279-.619-2.474-1.636-3.221l2.868-2.086c.37.217.796.35,1.256.35,1.381,0,2.5-1.119,2.5-2.5s-1.119-2.5-2.5-2.5-2.5,1.119-2.5,2.5c0,.185.023.364.061.537l-3.563,2.591-1.502-.858c-1.224-.698-2.744-.699-3.97,0h0l-1.515.865-3.573-2.599c.038-.173.061-.352.061-.537,0-1.381-1.119-2.5-2.5-2.5S0,1.119,0,2.5s1.119,2.5,2.5,2.5c.46,0,.886-.133,1.256-.35l2.88,2.094c-1.011.749-1.625,1.94-1.625,3.211l-.011,4.087c0,1.277.616,2.47,1.63,3.218l-2.874,2.09c-.37-.217-.796-.35-1.256-.35-1.381,0-2.5,1.119-2.5,2.5s1.119,2.5,2.5,2.5,2.5-1.119,2.5-2.5c0-.185-.023-.364-.061-.537l3.568-2.595,1.508.862c.612.35,1.299.525,1.985.525.686,0,1.373-.176,1.984-.525l1.508-.862,3.568,2.595c-.038.173-.061.352-.061.537,0,1.381,1.119,2.5,2.5,2.5s2.5-1.119,2.5-2.5-1.119-2.5-2.5-2.5ZM11.019,6.507h0c.306-.175.649-.263.992-.263s.686.088.992.263l2.944,1.682-3.947,2.256-3.936-2.249,2.955-1.688Zm-3.011,9.272c-.622-.355-1.008-1.021-1.008-1.734l.011-4.087c0-.019.007-.038.008-.057l3.981,2.275v5.313l-2.992-1.709Zm4.992,1.709v-5.312l4.002-2.287c0,.023.009.044.009.066l-.011,4.087c0,.717-.386,1.382-1.008,1.737l-2.992,1.709Z"/>
</svg>
