<?xml version="1.0" encoding="UTF-8"?>
<svg xmlns="http://www.w3.org/2000/svg" id="Layer_1" data-name="Layer 1" viewBox="0 0 24 24">
  <path d="m23.707,4.293L19.707.293c-.391-.391-1.023-.391-1.414,0s-.391,1.023,0,1.414l1.293,1.293-8.319,8.319-1.525-1.525c-1.559-1.559-4.097-1.56-5.657,0l-3.206,3.206c-1.17,1.169-1.17,3.073,0,4.243l5.879,5.879c.585.585,1.353.877,2.122.877s1.536-.292,2.121-.877l3.206-3.206c.756-.755,1.172-1.76,1.172-2.829s-.416-2.073-1.172-2.828l-1.525-1.525,8.319-8.319,1.293,1.293c.195.195.451.293.707.293s.512-.098.707-.293c.391-.391.391-1.023,0-1.414Zm-10.329,12.794c0,.535-.208,1.037-.586,1.415l-3.206,3.206c-.39.39-1.025.389-1.415,0l-.747-.747,3.279-3.25c.392-.389.395-1.022.006-1.415-.389-.392-1.021-.394-1.415-.006l-3.286,3.256-1.585-1.585,3.279-3.25c.392-.389.395-1.022.006-1.415-.389-.392-1.021-.394-1.415-.006l-3.286,3.256-.717-.717c-.39-.39-.39-1.024,0-1.415l3.206-3.206c.39-.39.902-.585,1.415-.585s1.024.195,1.414.585l4.465,4.465c.378.378.586.88.586,1.414Z"/>
</svg>
