<?xml version="1.0" encoding="UTF-8"?>
<svg xmlns="http://www.w3.org/2000/svg" id="Layer_1" data-name="Layer 1" viewBox="0 0 24 24">
  <path d="m6,2.5c0,1.381-1.119,2.5-2.5,2.5S1,3.881,1,2.5,2.119,0,3.5,0s2.5,1.119,2.5,2.5Zm0,6.5v5.5c0,1.207-.86,2.217-2,2.449v6.051c0,.552-.448,1-1,1s-1-.448-1-1v-6.051c-1.14-.232-2-1.242-2-2.449v-5.5c0-1.654,1.346-3,3-3s3,1.346,3,3Zm-2,0c0-.551-.449-1-1-1s-1,.449-1,1v5.5c0,.276.224.5.5.5h1c.276,0,.5-.224.5-.5v-5.5ZM11.5,0c-1.381,0-2.5,1.119-2.5,2.5s1.119,2.5,2.5,2.5,2.5-1.119,2.5-2.5-1.119-2.5-2.5-2.5Zm2.5,9v5.5c0,1.207-.86,2.217-2,2.449v6.051c0,.552-.448,1-1,1s-1-.448-1-1v-6.051c-1.14-.232-2-1.242-2-2.449v-5.5c0-1.654,1.346-3,3-3s3,1.346,3,3Zm-2,0c0-.551-.449-1-1-1s-1,.449-1,1v5.5c0,.276.224.5.5.5h1c.276,0,.5-.224.5-.5v-5.5Zm7.5-4c1.381,0,2.5-1.119,2.5-2.5s-1.119-2.5-2.5-2.5-2.5,1.119-2.5,2.5,1.119,2.5,2.5,2.5Zm2.5,4v5.5c0,1.207-.86,2.217-2,2.449v6.051c0,.552-.448,1-1,1s-1-.448-1-1v-6.051c-1.14-.232-2-1.242-2-2.449v-5.5c0-1.654,1.346-3,3-3s3,1.346,3,3Zm-2,0c0-.551-.449-1-1-1s-1,.449-1,1v5.5c0,.276.224.5.5.5h1c.276,0,.5-.224.5-.5v-5.5Z"/>
</svg>
