<?xml version="1.0" encoding="UTF-8"?>
<svg xmlns="http://www.w3.org/2000/svg" id="Layer_1" data-name="Layer 1" viewBox="0 0 24 24">
  <path d="m12,0C8.286,0,2,.737,2,3.5c0,.01.004.019.004.029,0,.007-.004.013-.004.021v16.95c0,2.763,6.286,3.5,10,3.5,3.459,0,10-.742,10-3.55V3.5c0-2.763-6.286-3.5-10-3.5Zm8,16.374c-.418.586-3.432,1.626-8,1.626s-7.577-1.009-8-1.578v-6.686c2.159.955,5.609,1.264,8,1.264,2.248,0,5.79-.318,8-1.309v6.683Zm0-9c-.418.586-3.432,1.626-8,1.626s-7.577-1.009-8-1.578v-1.686c2.159.955,5.609,1.264,8,1.264s5.841-.31,8-1.265v1.639ZM12,2c4.746,0,7.396.986,7.937,1.5-.542.514-3.191,1.5-7.937,1.5s-7.396-.986-7.937-1.5c.541-.514,3.191-1.5,7.937-1.5Zm0,20c-4.562,0-7.574-1.007-8-1.577v-1.687c2.159.955,5.609,1.264,8,1.264,2.248,0,5.79-.318,8-1.309v1.685c-.422.586-3.436,1.624-8,1.624Z"/>
</svg>
