<?xml version="1.0" encoding="UTF-8"?>
<svg xmlns="http://www.w3.org/2000/svg" id="Layer_1" data-name="Layer 1" viewBox="0 0 24 24">
  <path d="m7,17h5v3h-2c-1.657,0-3-1.343-3-3Zm7,3c1.657,0,3-1.343,3-3h-3v3Zm0-8h-2v3h5c0-1.657-1.343-3-3-3Zm-4,0c-1.657,0-3,1.343-3,3h3v-3Zm11-3.929v10.929c0,2.757-2.243,5-5,5h-8c-2.757,0-5-2.243-5-5V5C3,2.243,5.243,0,8,0h4.929c1.603,0,3.109.624,4.243,1.757l2.071,2.071c1.133,1.133,1.757,2.64,1.757,4.243Zm-2,0c0-1.068-.416-2.073-1.171-2.829l-2.071-2.071c-.755-.755-1.76-1.171-2.829-1.171h-4.929c-1.654,0-3,1.346-3,3v14c0,1.654,1.346,3,3,3h8c1.654,0,3-1.346,3-3v-10.929Z"/>
</svg>
