<?xml version="1.0" encoding="UTF-8"?>
<svg xmlns="http://www.w3.org/2000/svg" id="Layer_1" data-name="Layer 1" viewBox="0 0 24 24">
  <path d="m24,5c0-2.757-2.243-5-5-5H5C2.243,0,0,2.243,0,5c0,0,.003,2.076.003,2.083l.694,8.332c.133,1.596,1.027,2.977,2.302,3.795v1.29c0,1.93,1.57,3.5,3.5,3.5s3.5-1.57,3.5-3.5v-.5h4v.5c0,1.93,1.57,3.5,3.5,3.5s3.5-1.57,3.5-3.5v-1.29c1.276-.818,2.169-2.199,2.302-3.795l.698-8.251c.009-.053,0-2.164,0-2.164Zm-2,0l.002,1h-4.002V2h1c1.654,0,3,1.346,3,3Zm-9,1V2h3v4h-3Zm-5,0V2h3v4h-3Zm-3-4h1v4H2v-1c0-1.654,1.346-3,3-3Zm3,18.5c0,.827-.673,1.5-1.5,1.5s-1.5-.673-1.5-1.5v-.547c.223.031.45.047.681.047h2.319v.5Zm11,0c0,.827-.673,1.5-1.5,1.5s-1.5-.673-1.5-1.5v-.5h2.319c.23,0,.458-.016.681-.047v.547Zm2.31-5.251c-.129,1.543-1.442,2.751-2.99,2.751H5.681c-1.548,0-2.861-1.208-2.99-2.751l-.604-7.249h19.827l-.604,7.249Z"/>
</svg>
