<?xml version="1.0" encoding="UTF-8"?>
<svg xmlns="http://www.w3.org/2000/svg" id="Layer_1" data-name="Layer 1" viewBox="0 0 24 24">
  <path d="m20.085,10.327h0l-5.084-1.129V3.107c0-1.516-1.076-2.835-2.503-3.067-.877-.142-1.768.102-2.439.674-.672.571-1.058,1.404-1.058,2.286v11.565l-.955-.758c-1.207-1.128-3.108-1.063-4.236.144-1.13,1.208-1.066,3.11.13,4.23l3.71,3.577c1.499,1.445,3.471,2.241,5.552,2.241h5.798c2.757,0,5-2.243,5-5v-3.791c0-2.361-1.61-4.368-3.915-4.882Zm1.915,8.673c0,1.654-1.346,3-3,3h-5.798c-1.561,0-3.04-.597-4.164-1.681l-3.721-3.587c-.403-.378-.424-1.013-.047-1.416.19-.203.445-.309.711-.309.26,0,.53.102.758.312l2.637,2.1c.301.239.713.288,1.057.118.346-.166.566-.517.566-.9V3c0-.294.129-.572.353-.763.227-.193.516-.273.822-.223.462.075.825.555.825,1.093v6.893c0,.469.326.875.783.977l5.868,1.304c1.383.308,2.349,1.512,2.349,2.929v3.791ZM3.991,9.998c-.589-.002-1.176-.227-1.624-.675L.293,7.25c-.391-.391-.391-1.023,0-1.414s1.023-.391,1.414,0l1.293,1.293V1c0-.553.448-1,1-1s1,.447,1,1v6.129l1.293-1.293c.391-.391,1.023-.391,1.414,0s.391,1.023,0,1.414l-2.074,2.073c-.448.448-1.036.673-1.624.675-.003,0-.006.002-.009.002s-.006-.002-.009-.002Z"/>
</svg>
