<?xml version="1.0" encoding="UTF-8"?>
<svg xmlns="http://www.w3.org/2000/svg" id="Layer_1" data-name="Layer 1" viewBox="0 0 24 24">
  <path d="m5,23c0,.553-.448,1-1,1-2.206,0-4-1.794-4-4,0-.553.448-1,1-1s1,.447,1,1c0,1.103.897,2,2,2,.552,0,1,.447,1,1ZM4,0C1.794,0,0,1.794,0,4c0,.553.448,1,1,1s1-.447,1-1c0-1.103.897-2,2-2,.552,0,1-.447,1-1s-.448-1-1-1ZM1,11c.552,0,1-.447,1-1v-2c0-.553-.448-1-1-1s-1,.447-1,1v2c0,.553.448,1,1,1Zm0,6c.552,0,1-.447,1-1v-2c0-.553-.448-1-1-1s-1,.447-1,1v2c0,.553.448,1,1,1ZM23.939,4.887l-3.459,15.222c-.521,2.291-2.526,3.892-4.875,3.892h-4.643c-1.224,0-2.363-.549-3.126-1.505s-1.045-2.188-.774-3.382l3.459-15.222c.521-2.291,2.526-3.892,4.875-3.892h4.643c1.224,0,2.363.549,3.126,1.505s1.045,2.188.774,3.382Zm-2.337-2.135c-.381-.478-.951-.752-1.563-.752h-4.643c-1.41,0-2.613.96-2.925,2.335l-3.459,15.222c-.136.597.005,1.213.387,1.691.381.478.951.752,1.563.752h4.643c1.41,0,2.613-.96,2.925-2.335l3.459-15.222c.136-.597-.005-1.213-.387-1.691Zm-13.602-.752h1.115c.552,0,1-.447,1-1s-.448-1-1-1h-1.115c-.552,0-1,.447-1,1s.448,1,1,1Z"/>
</svg>
