<?xml version="1.0" encoding="UTF-8"?>
<svg xmlns="http://www.w3.org/2000/svg" id="Layer_1" data-name="Layer 1" viewBox="0 0 24 24">
  <path d="m20.124,23.992c-.042.005-.084.008-.125.008-.497,0-.928-.37-.991-.876-.458-3.663-3.274-6.124-7.008-6.124s-6.55,2.461-7.008,6.124c-.069.548-.573.938-1.116.868-.548-.068-.937-.568-.868-1.116.58-4.637,4.277-7.876,8.992-7.876s8.413,3.239,8.992,7.876c.068.548-.32,1.048-.868,1.116ZM4.5,7c0-.552.448-1,1-1h.5v-.5c0-3.033,2.467-5.5,5.5-5.5h1c3.033,0,5.5,2.467,5.5,5.5v.5h.5c.552,0,1,.448,1,1s-.448,1-1,1h-.5c0,3.309-2.691,6-6,6s-6-2.691-6-6h-.5c-.552,0-1-.448-1-1Zm11.5,1h-8c0,2.206,1.794,4,4,4s4-1.794,4-4Zm-8-2h8v-.5c0-1.76-1.306-3.221-3-3.464v1.964c0,.552-.448,1-1,1s-1-.448-1-1v-1.964c-1.694.243-3,1.704-3,3.464v.5Z"/>
</svg>
