<?xml version="1.0" encoding="UTF-8"?>
<svg xmlns="http://www.w3.org/2000/svg" id="Layer_1" data-name="Layer 1" viewBox="0 0 24 24">
  <path d="m15.388,9.221l-.314-3.659c-.026-.302.212-.562.515-.562.27,0,.494.207.516.477l.212,2.681.75-1.443c.193-.372.725-.372.918,0l.75,1.443.21-2.681c.021-.269.246-.477.516-.477h.002c.303,0,.541.26.515.562l-.314,3.659c-.031.44-.337.779-.706.779-.244,0-.471-.151-.601-.4l-.831-1.6-.831,1.6c-.129.249-.356.4-.601.4-.368,0-.675-.339-.706-.779Zm-4.774.779c.244,0,.471-.151.601-.4l.831-1.6.831,1.6c.129.249.356.4.601.4.368,0,.675-.339.706-.779l.314-3.659c.026-.302-.212-.562-.515-.562h-.002c-.27,0-.495.208-.516.477l-.21,2.681-.75-1.443c-.193-.372-.725-.372-.918,0l-.75,1.443-.212-2.681c-.021-.269-.246-.477-.516-.477-.303,0-.541.26-.515.562l.314,3.659c.031.44.337.779.706.779Zm-2.657,0c.368,0,.675-.339.706-.779l.314-3.659c.026-.302-.212-.562-.515-.562h-.002c-.27,0-.495.208-.516.477l-.21,2.681-.75-1.443c-.193-.372-.725-.372-.918,0l-.75,1.443-.212-2.681c-.021-.269-.246-.477-.516-.477-.303,0-.541.26-.515.562l.314,3.659c.031.44.337.779.706.779.244,0,.471-.151.601-.4l.831-1.6.831,1.6c.129.249.356.4.601.4ZM19,0H5C2.243,0,0,2.243,0,5v5c0,2.757,2.243,5,5,5,.553,0,1-.448,1-1s-.447-1-1-1c-1.654,0-3-1.346-3-3v-5c0-1.654,1.346-3,3-3h14c1.654,0,3,1.346,3,3v5c0,1.654-1.346,3-3,3-.553,0-1,.448-1,1s.447,1,1,1c2.757,0,5-2.243,5-5v-5c0-2.757-2.243-5-5-5Zm-.293,22.293c.391.391.391,1.023,0,1.414-.195.195-.451.293-.707.293s-.512-.098-.707-.293l-2.537-2.537c-.791.524-1.738.83-2.756.83-2.757,0-5-2.243-5-5s2.243-5,5-5,5,2.243,5,5c0,1.018-.306,1.965-.83,2.756l2.537,2.537Zm-6.707-2.293c1.654,0,3-1.346,3-3s-1.346-3-3-3-3,1.346-3,3,1.346,3,3,3Z"/>
</svg>
