<?xml version="1.0" encoding="UTF-8"?>
<svg xmlns="http://www.w3.org/2000/svg" id="Layer_1" data-name="Layer 1" viewBox="0 0 24 24">
  <path d="m24,6.5c0-3.645-5.271-6.5-12-6.5S0,2.855,0,6.5v11c0,3.767,5.047,6.5,12,6.5s12-2.733,12-6.5V6.5ZM12,2c5.894,0,10,2.372,10,4.5s-4.106,4.5-10,4.5S2,8.628,2,6.5,6.107,2,12,2Zm0,20c-5.514,0-10-2.019-10-4.5v-7.362c2.132,1.738,5.778,2.862,10,2.862s7.868-1.124,10-2.862v7.362c0,2.481-4.486,4.5-10,4.5ZM5.292,7.137c-.39-.291-.39-.982,0-1.273,1.141-.853,3.443-1.863,6.708-1.863s5.566,1.011,6.707,1.863c.39.291.39.982,0,1.273-1.141.853-3.442,1.863-6.707,1.863s-5.566-1.011-6.708-1.863Z"/>
</svg>
