<?xml version="1.0" encoding="UTF-8"?>
<svg xmlns="http://www.w3.org/2000/svg" id="Layer_1" data-name="Layer 1" viewBox="0 0 24 24">
  <path d="m17.238,6c-.909,0-1.746.333-2.427.965-.585-.401-1.18-.661-1.779-.807.317-4.106,2.94-4.158,2.968-4.158.551,0,1,.448,1.001,1h-.001c-.552,0-1,.447-1,1s.448,1,1,1c1.103,0,2-.897,2-2,0-1.654-1.346-3-3-3-1.121,0-2.884.623-3.99,2.562-.592-1.07-1.442-1.896-2.563-2.457-.495-.245-1.095-.047-1.342.447s-.047,1.095.447,1.342c1.462.731,2.253,2.133,2.413,4.264-.598.146-1.193.405-1.777.806-.679-.631-1.517-.965-2.427-.965C3.635,6,0,9.932,0,15s3.635,9,6.762,9c.909,0,1.746-.332,2.428-.965,1.84,1.264,3.781,1.264,5.621,0,.679.631,1.518.965,2.428.965,3.127,0,6.762-3.932,6.762-9s-3.635-9-6.762-9Zm0,16c-.419,0-.764-.142-1.082-.444-.381-.365-.863-.552-1.345-.552-.376,0-.753.114-1.082.346-1.205.852-2.255.852-3.461,0-.749-.527-1.747-.442-2.425.205-.319.304-.663.445-1.083.445-1.873,0-4.762-3.006-4.762-7s2.889-7,4.762-7c.418,0,.761.141,1.08.443.682.648,1.681.731,2.431.204,1.203-.848,2.252-.848,3.455,0,.749.527,1.748.444,2.431-.204.318-.303.661-.443,1.08-.443,1.873,0,4.762,3.006,4.762,7s-2.889,7-4.762,7Z"/>
</svg>
