<?xml version="1.0" encoding="UTF-8"?>
<svg xmlns="http://www.w3.org/2000/svg" id="Layer_1" data-name="Layer 1" viewBox="0 0 24 24">
  <path d="m23.003,7.721c.09-.045.171-.091.238-.137.455-.307.737-.819.757-1.37.02-.558-.23-1.096-.67-1.44-.224-.176-.439-.328-.636-.459.274-.43.545-.972.681-1.577.134-.595-.043-1.208-.475-1.639s-1.044-.609-1.64-.475c-.607.137-1.149.409-1.58.683-.131-.198-.284-.413-.459-.637C18.875.232,18.339-.007,17.779,0c-.551.019-1.063.302-1.371.757-.045.067-.091.148-.136.238-.126-.107-.258-.208-.395-.298-.481-.317-1.088-.373-1.623-.15-.53.22-.915.686-1.029,1.244-.256,1.25-.406,2.759-.492,3.95-3.776-1.864-6.774.216-9.275,2.717-3.164,3.164-5.679,7.116-.355,12.439,2.24,2.24,4.237,3.092,6.035,3.092,2.475,0,4.572-1.615,6.405-3.447,2.503-2.503,4.584-5.503,2.714-9.282,1.191-.087,2.702-.236,3.952-.492.559-.114,1.025-.499,1.245-1.029.222-.534.166-1.141-.15-1.623-.09-.136-.191-.269-.299-.394Zm-8.875,11.407c-3.234,3.231-5.723,4.243-9.611.355-3.89-3.89-2.876-6.379.355-9.611,1.769-1.769,3.315-2.873,4.99-2.873,1.386,0,2.86.756,4.622,2.517,3.89,3.891,2.876,6.379-.355,9.611Zm6.292-11.171c.088.107.249.263.445.444.153.142.342.316.504.491-1.513.266-3.335.391-4.37.444-.326-.404-.681-.812-1.102-1.233-.423-.423-.834-.779-1.239-1.107.053-1.036.178-2.855.443-4.366.177.164.353.353.497.507.18.194.334.353.441.44.259.212.608.281.93.183.321-.1.571-.354.665-.676.083-.286.185-.591.271-.826.38.543.564.949.565.951.134.302.409.519.734.579.323.058.659-.046.892-.281.151-.153.634-.559,1.188-.795-.233.546-.632,1.025-.796,1.189-.235.232-.338.566-.279.892s.277.601.579.735c.005.002.411.184.952.561-.237.088-.543.19-.831.275-.322.095-.575.344-.674.665s-.03.67.183.929Zm-11.492,9.468c.211.211.062.572-.237.572h-1.691c-.552,0-1-.448-1-1v-1.69c0-.299.361-.448.572-.237l2.355,2.355Zm5-5c.211.211.062.572-.237.572h-1.691c-.552,0-1-.448-1-1v-1.69c0-.299.361-.448.572-.237l2.355,2.355Zm-5,0c.211.211.062.572-.237.572h-1.691c-.552,0-1-.448-1-1v-1.69c0-.299.361-.448.572-.237l2.355,2.355Zm5,5c.211.211.062.572-.237.572h-1.691c-.552,0-1-.448-1-1v-1.69c0-.299.361-.448.572-.237l2.355,2.355Z"/>
</svg>
