<?xml version="1.0" encoding="UTF-8"?>
<svg xmlns="http://www.w3.org/2000/svg" id="Layer_1" data-name="Layer 1" viewBox="0 0 24 24">
  <path d="m20,.017H4C1.791.017,0,1.807,0,4.017v4c0,2.209,1.791,4,4,4h1.108c.164-.69.515-1.336,1.046-1.866.634-.634,1.457-1.011,2.317-1.112l.016-6.18c.001-.428.349-.775.777-.775h1.939c.433,0,.782.354.777.786-.005.436-.368.783-.804.768l-1.106-.038v1.65l1.15.04c.419.014.75.358.75.777v.044c0,.44-.365.792-.804.777l-1.096-.038v1.551h1.123c.429,0,.777.348.777.777v.681l5.935,2.158h2.095c2.209,0,4-1.791,4-4v-4C24,1.807,22.209.017,20,.017ZM7.442,7.98c-.191,1.175-1.215,2.028-2.436,2.028-.664,0-1.3-.195-1.839-.552-.388-.257-.448-.802-.119-1.131h0c.236-.235.603-.283.888-.111.316.191.688.297,1.069.297.604,0,1.031-.404,1.096-.795.089-.55-.602-.873-.817-.959-.915-.371-1.751-.78-1.753-.78-.692-.484-1.027-1.231-.921-2.049.111-.845.674-1.534,1.471-1.796.839-.277,1.603-.076,2.152.203.405.205.518.733.24,1.093-.203.263-.559.358-.863.225-.306-.134-.71-.226-1.137-.088-.412.136-.517.447-.515.577.005.442.335.57.433.615.282.128.806.368,1.366.595,1.461.591,1.828,1.745,1.685,2.627Zm9.529,1.225c0,.44-.356.797-.796.799l-1.888.008c-.443.002-.802-.356-.802-.799V2.813c0-.441.358-.799.799-.799s.8.359.799.801l-.005,2.185-.008,3.4h1.102c.441,0,.799.358.799.799v.005Zm4.529-.003c0,.441-.358.799-.799.799h-1.902c-.441,0-.799-.358-.799-.799V2.799c0-.441.358-.799.799-.799h.002c.441,0,.799.358.799.799v5.602h1.102c.441,0,.799.358.799.799v.002Zm-5.479,9.402l2.686-2.686c.242-.242.343-.591.269-.924-.074-.334-.314-.607-.636-.724l-8.731-3.162c-.717-.245-1.495-.064-2.031.472-.536.535-.716,1.313-.471,2.03l.006.018,3.156,8.714c.117.321.446.645.94.659.262.008.518-.104.707-.293l2.689-2.689,3.686,3.689c.195.195.452.293.708.293s.512-.098.707-.293c.391-.39.391-1.023,0-1.414l-3.687-3.69Zm-4.406,1.577l-2.593-7.159,7.159,2.593-4.566,4.566Z"/>
</svg>
