<?xml version="1.0" encoding="UTF-8"?>
<svg xmlns="http://www.w3.org/2000/svg" id="Layer_1" data-name="Layer 1" viewBox="0 0 24 24">
  <path d="m22.867,18.985c-.515,0-.946-.361-1.067-.862-.809-3.356-2.643-6.666-5.092-9.418L1.707,23.707c-.195.195-.451.293-.707.293s-.512-.098-.707-.293c-.391-.391-.391-1.023,0-1.414L15.295,7.29c-2.755-2.456-6.071-4.296-9.434-5.106-.5-.121-.862-.552-.862-1.067C5,.505,5.507-.001,6.12.02c5.168.182,9.265,1.637,12.228,4.218l.945-.945c.391-.391,1.023-.391,1.414,0s.391,1.023,0,1.414l-.946.946c2.572,2.962,4.022,7.054,4.204,12.213.022.613-.484,1.12-1.098,1.12Z"/>
</svg>
