<?xml version="1.0" encoding="UTF-8"?>
<svg xmlns="http://www.w3.org/2000/svg" id="Layer_1" data-name="Layer 1" viewBox="0 0 24 24">
  <path d="m19,22h-1v-7h.5c.827,0,1.5-.673,1.5-1.5s-.673-1.5-1.5-1.5h-.5v-4c0-2.968-2.166-5.439-5-5.916v-1.084c0-.552-.447-1-1-1s-1,.448-1,1v1.084c-2.834.477-5,2.948-5,5.916v4h-.5c-.827,0-1.5.673-1.5,1.5s.673,1.5,1.5,1.5h.5v7h-1c-.553,0-1,.448-1,1s.447,1,1,1h14c.553,0,1-.448,1-1s-.447-1-1-1ZM12,4c2.206,0,4,1.794,4,4h-8c0-2.206,1.794-4,4-4Zm-4,6h8v12h-8v-12Zm5.5,3.5c0,.828-.672,1.5-1.5,1.5s-1.5-.672-1.5-1.5.672-1.5,1.5-1.5,1.5.672,1.5,1.5Z"/>
</svg>
