<?xml version="1.0" encoding="UTF-8"?>
<svg xmlns="http://www.w3.org/2000/svg" id="Layer_1" data-name="Layer 1" viewBox="0 0 24 24">
  <path d="m14.996,13.039l2.266-.22c.522,1.277,1.775,2.181,3.238,2.181,1.93,0,3.5-1.57,3.5-3.5s-1.57-3.5-3.5-3.5c-1.7,0-3.118,1.219-3.432,2.829l-2.458.238c-.229-.544-.561-1.03-.957-1.456l1.839-2.776c.322.098.656.166,1.009.166,1.93,0,3.5-1.57,3.5-3.5S18.43,0,16.5,0s-3.5,1.57-3.5,3.5c0,.851.317,1.621.824,2.229l-1.795,2.711c-.622-.278-1.305-.44-2.029-.44s-1.407.162-2.029.44l-1.795-2.711c.507-.607.824-1.378.824-2.229C7,1.571,5.43,0,3.5,0S0,1.571,0,3.501s1.57,3.5,3.5,3.5c.353,0,.687-.068,1.009-.166l1.839,2.776c-.829.893-1.347,2.078-1.347,3.39,0,1.13.391,2.161,1.025,2.999l-1.112,1.304c-.433-.192-.909-.303-1.412-.303-1.93,0-3.5,1.57-3.5,3.5s1.57,3.5,3.5,3.5,3.5-1.57,3.5-3.5c0-.7-.212-1.35-.567-1.897l1.094-1.283c.732.421,1.569.681,2.473.681,1.106,0,2.119-.372,2.948-.982l2.367,2.049c-.198.439-.315.922-.315,1.434,0,1.93,1.57,3.5,3.5,3.5s3.5-1.57,3.5-3.5-1.57-3.5-3.5-3.5c-.691,0-1.332.208-1.875.555l-2.338-2.023c.436-.735.702-1.581.709-2.493Zm5.504-3.038c.827,0,1.5.673,1.5,1.5s-.673,1.5-1.5,1.5-1.5-.673-1.5-1.5.673-1.5,1.5-1.5Zm-4-8c.827,0,1.5.673,1.5,1.5s-.673,1.5-1.5,1.5-1.5-.673-1.5-1.5.673-1.5,1.5-1.5ZM2,3.501c0-.827.673-1.5,1.5-1.5s1.5.673,1.5,1.5-.673,1.5-1.5,1.5-1.5-.673-1.5-1.5Zm1.5,18.5c-.827,0-1.5-.673-1.5-1.5s.673-1.5,1.5-1.5,1.5.673,1.5,1.5-.673,1.5-1.5,1.5Zm3.5-9c0-1.654,1.346-3,3-3s3,1.346,3,3-1.346,3-3,3-3-1.346-3-3Zm13,7.5c0,.827-.673,1.5-1.5,1.5s-1.5-.673-1.5-1.5.673-1.5,1.5-1.5,1.5.673,1.5,1.5Z"/>
</svg>
