<?xml version="1.0" encoding="UTF-8"?>
<svg xmlns="http://www.w3.org/2000/svg" id="Layer_1" data-name="Layer 1" viewBox="0 0 24 24">
  <path d="m16.5,18h-.5V4.5c0-2.481-2.019-4.5-4.5-4.5h-7C2.019,0,0,2.019,0,4.5v16c0,1.93,1.569,3.499,3.498,3.5h12.502c1.654,0,3-1.346,3-3v-.5c0-1.379-1.121-2.5-2.5-2.5Zm-11.5,2.5c0,.827-.673,1.5-1.5,1.5s-1.5-.673-1.5-1.5V4.5c0-1.379,1.121-2.5,2.5-2.5h7c1.379,0,2.5,1.121,2.5,2.5v13.5h-6.5c-1.379,0-2.5,1.121-2.5,2.5Zm12,.5c0,.552-.448,1-1,1H6.662c.217-.455.338-.964.338-1.5,0-.275.225-.5.5-.5h9c.275,0,.5.225.5.5v.5ZM21,0c-1.654,0-3,1.346-3,3v10.343c0,1.336.521,2.592,1.465,3.536l.828.828c.195.195.451.293.707.293s.512-.098.707-.293l.828-.828c.944-.944,1.465-2.2,1.465-3.536V3c0-1.654-1.346-3-3-3Zm1,13.343c0,.802-.313,1.556-.879,2.122l-.121.121-.121-.121c-.566-.566-.879-1.32-.879-2.122V3c0-.552.448-1,1-1s1,.448,1,1v10.343ZM3.293,7.097c-.391-.391-.391-1.024,0-1.414.391-.391,1.023-.391,1.414,0l1.288,1.289c.033.033.105.033.139,0l2.179-2.179c.391-.391,1.023-.391,1.414,0s.391,1.023,0,1.414l-2.179,2.179c-.409.409-.946.613-1.483.613s-1.074-.204-1.483-.613l-1.288-1.289Zm4.255,7.289c-.409.409-.946.613-1.483.613s-1.074-.204-1.483-.613l-1.288-1.289c-.391-.391-.391-1.024,0-1.414.391-.391,1.023-.391,1.414,0l1.288,1.289c.033.033.105.033.139,0l2.179-2.179c.391-.391,1.023-.391,1.414,0s.391,1.023,0,1.414l-2.179,2.179Z"/>
</svg>
