<?xml version="1.0" encoding="UTF-8"?>
<svg xmlns="http://www.w3.org/2000/svg" id="Layer_1" data-name="Layer 1" viewBox="0 0 24 24">
  <path d="m18,0H5.107c-1.516,0-2.835,1.076-3.067,2.503-.143.879.103,1.768.674,2.439.082.096.18.173.272.258l-1.154.535c-.738.311-1.312.892-1.615,1.635-.301.742-.295,1.558.016,2.294.311.738.891,1.312,1.637,1.616.356.144.741.204,1.122.206l-1.674,3.177c-.358.718-.415,1.531-.16,2.291s.791,1.375,1.505,1.729c.418.21.868.316,1.339.316.758,0,1.461-.282,1.999-.766v2.766c0,.882.386,1.715,1.058,2.286.672.572,1.56.815,2.439.674.897-.146,1.657-.723,2.097-1.508.06.089.124.175.193.26.669.818,1.658,1.288,2.714,1.288.633,0,1.253-.172,1.792-.495.402-.24,2.47-1.544,3.723-3.637.043-.072.175-.292,2.745-5.239.811-1.559,1.239-3.312,1.239-5.07v-3.559c0-3.309-2.691-6-6-6ZM5.107,2h4.78l-4.313,2h-.574c-.294,0-.572-.129-.763-.353-.193-.228-.272-.52-.223-.822.075-.463.555-.825,1.093-.825Zm6.893,16.041v-2.041c0-.284.123-.557.336-.747.187-.165.418-.253.664-.253.523,0,.778.311.927.668.298.716-.508,1.394-1.236,1.836-.255.154-.486.336-.69.537Zm10-8.482c0,1.438-.351,2.873-1.014,4.147-2.329,4.482-2.647,5.067-2.688,5.136-1.027,1.717-2.829,2.825-3.033,2.947-.608.364-1.475.213-1.931-.343-.207-.254-.427-.694-.293-1.351.068-.338.318-.659.686-.883,1.949-1.184,2.694-2.756,2.046-4.313-.425-1.021-1.375-1.758-2.422-1.879-.854-.102-1.707.171-2.346.739-.64.57-1.006,1.387-1.006,2.24v4.893c0,.538-.362,1.018-.825,1.093-.3.052-.595-.029-.822-.223-.224-.19-.353-.469-.353-.763v-5c0-2.176,1.398-4.032,3.343-4.717.395-.139.657-.513.657-.931,0-.701-.7-1.17-1.359-.934-1.59.57-2.901,1.708-3.723,3.158l-2.022,3.871c-.238.481-.853.691-1.34.447-.239-.118-.417-.323-.502-.577-.085-.252-.066-.522.054-.763l2.203-4.156c.284-.536.724-.973,1.261-1.254l4.893-2.557c.329-.172.535-.512.535-.884v-.045c0-.752-.801-1.233-1.465-.88l-7.164,3.646c-.232.099-.508.099-.749,0-.247-.101-.442-.293-.546-.54-.106-.248-.107-.512-.005-.763.101-.248.293-.442.516-.537L11.429,3.411c.349-.165.571-.516.571-.901v-.509h6c2.206,0,4,1.794,4,4v3.559Z"/>
</svg>
