<?xml version="1.0" encoding="UTF-8"?>
<svg xmlns="http://www.w3.org/2000/svg" id="Layer_1" data-name="Layer 1" viewBox="0 0 24 24">
  <path d="m17,5v2c0,.553-.447,1-1,1H7c-.552,0-1-.447-1-1v-2c0-.553.448-1,1-1h9c.553,0,1,.447,1,1Zm-9,5h-1c-.552,0-1,.447-1,1s.448,1,1,1h1c.552,0,1-.447,1-1s-.448-1-1-1Zm8,0h-1c-.553,0-1,.447-1,1s.447,1,1,1h1c.553,0,1-.447,1-1s-.447-1-1-1Zm-8,4h-1c-.552,0-1,.447-1,1s.448,1,1,1h1c.552,0,1-.447,1-1s-.448-1-1-1Zm8,0h-1c-.553,0-1,.447-1,1s.447,1,1,1h1c.553,0,1-.447,1-1s-.447-1-1-1Zm-4-4h-1c-.552,0-1,.447-1,1s.448,1,1,1h1c.552,0,1-.447,1-1s-.448-1-1-1Zm0,4h-1c-.552,0-1,.447-1,1s.448,1,1,1h1c.552,0,1-.447,1-1s-.448-1-1-1Zm-4,4h-1c-.552,0-1,.447-1,1s.448,1,1,1h1c.552,0,1-.447,1-1s-.448-1-1-1Zm8,0h-1c-.553,0-1,.447-1,1s.447,1,1,1h1c.553,0,1-.447,1-1s-.447-1-1-1Zm-4,0h-1c-.552,0-1,.447-1,1s.448,1,1,1h1c.552,0,1-.447,1-1s-.448-1-1-1Zm10-13v14c0,.553-.447,1-1,1h-.101c-.465,2.279-2.484,4-4.899,4H7c-2.757,0-5-2.243-5-5V5C2,2.243,4.243,0,7,0h9c2.414,0,4.434,1.721,4.899,4h.101c.553,0,1,.447,1,1Zm-3,14V5c0-1.654-1.346-3-3-3H7c-1.654,0-3,1.346-3,3v14c0,1.654,1.346,3,3,3h9c1.654,0,3-1.346,3-3Z"/>
</svg>
