<?xml version="1.0" encoding="UTF-8"?>
<svg xmlns="http://www.w3.org/2000/svg" id="Layer_1" data-name="Layer 1" viewBox="0 0 24 24">
  <path d="m22,22h-1V6h1c.552,0,1-.448,1-1s-.448-1-1-1h-1v-.5c0-.828-.672-1.5-1.5-1.5h-.5v-1c0-.552-.448-1-1-1s-1,.448-1,1v1h-.5c-.828,0-1.5.672-1.5,1.5v.5h-6v-.5c0-.828-.672-1.5-1.5-1.5h-.5v-1c0-.552-.448-1-1-1s-1,.448-1,1v1h-.5c-.828,0-1.5.672-1.5,1.5v.5h-1c-.552,0-1,.448-1,1s.448,1,1,1h1v16h-1c-.552,0-1,.448-1,1s.448,1,1,1h20c.552,0,1-.448,1-1s-.448-1-1-1ZM5,6h14v16H5V6Zm10.309,7.846c.28.521.25,1.151-.077,1.645l-2.37,4.018c-.187.316-.52.492-.862.492-.173,0-.348-.044-.507-.139-.476-.281-.634-.894-.353-1.37l2.062-3.492h-3.085c-.509,0-.994-.244-1.297-.653s-.396-.943-.249-1.43c.021-.07,2.454-4.408,2.454-4.408.271-.481.878-.652,1.362-.381.481.271.652.881.381,1.362l-1.976,3.509h3.104c.592,0,1.133.324,1.413.846Z"/>
</svg>
