<?xml version="1.0" encoding="UTF-8"?>
<svg xmlns="http://www.w3.org/2000/svg" id="Layer_1" data-name="Layer 1" viewBox="0 0 24 24">
  <path d="m4.5,18c-1.381,0-2.5-1.119-2.5-2.5s1.119-2.5,2.5-2.5,2.5,1.119,2.5,2.5-1.119,2.5-2.5,2.5Zm15,1c-1.472,0-2.797.735-3.624,1.864-.927-1.145-2.328-1.864-3.876-1.864s-2.949.719-3.876,1.864c-.827-1.129-2.152-1.864-3.624-1.864-2.225,0-4.14,1.659-4.454,3.858-.079.547.301,1.054.848,1.132.541.073,1.053-.302,1.131-.849.175-1.221,1.239-2.142,2.475-2.142s2.3.921,2.475,2.142c.071.499.536.858,1.025.858.446,0,.979-.3,1.094-.751.341-1.324,1.536-2.249,2.906-2.249s2.564.925,2.906,2.249c.116.45.65.749,1.094.751.539.073.947-.312,1.025-.858.175-1.221,1.239-2.142,2.475-2.142s2.3.921,2.475,2.142c.071.499.536.858,1.025.858.547-.078,1.033-.595.954-1.142-.314-2.199-2.229-3.858-4.454-3.858Zm2.5-3.5c0-1.381-1.119-2.5-2.5-2.5s-2.5,1.119-2.5,2.5,1.119,2.5,2.5,2.5,2.5-1.119,2.5-2.5Zm-7.5,0c0-1.381-1.119-2.5-2.5-2.5s-2.5,1.119-2.5,2.5,1.119,2.5,2.5,2.5,2.5-1.119,2.5-2.5ZM19,0H5C2.243,0,0,2.243,0,5v6c0,.553.448,1,1,1s1-.447,1-1v-6c0-1.654,1.346-3,3-3h14c1.654,0,3,1.346,3,3v6c0,.553.448,1,1,1s1-.447,1-1v-6c0-2.757-2.243-5-5-5Z"/>
</svg>
