<?xml version="1.0" encoding="UTF-8"?>
<svg xmlns="http://www.w3.org/2000/svg" id="Layer_1" data-name="Layer 1" viewBox="0 0 24 24">
  <path d="m21.5,13.163v-2.326c1.441-.434,2.5-1.757,2.5-3.337,0-1.93-1.57-3.5-3.5-3.5-.984,0-1.87.411-2.507,1.067l-2.507-1.567c0-1.929-1.57-3.5-3.5-3.5s-3.5,1.57-3.5,3.5c0,.005.002.01.002.016l-2.481,1.551c-.636-.656-1.523-1.067-2.507-1.067-1.93,0-3.5,1.57-3.5,3.5,0,1.58,1.059,2.903,2.5,3.337v2.326c-1.441.434-2.5,1.757-2.5,3.337,0,1.93,1.57,3.5,3.5,3.5.984,0,1.87-.411,2.507-1.067l2.481,1.551c0,.005-.002.01-.002.016,0,1.93,1.57,3.5,3.5,3.5s3.5-1.57,3.5-3.5l2.507-1.567c.636.656,1.523,1.067,2.507,1.067,1.93,0,3.5-1.57,3.5-3.5,0-1.58-1.059-2.903-2.5-3.337Zm-1-7.163c.827,0,1.5.673,1.5,1.5s-.673,1.5-1.5,1.5-1.5-.673-1.5-1.5.673-1.5,1.5-1.5ZM11.986,2c.827,0,1.5.673,1.5,1.5s-.673,1.5-1.5,1.5c-.647,0-1.194-.414-1.404-.989.002-.141-.026-.279-.086-.413-.002-.033-.01-.064-.01-.098,0-.827.673-1.5,1.5-1.5ZM2,7.5c0-.827.673-1.5,1.5-1.5s1.5.673,1.5,1.5-.673,1.5-1.5,1.5-1.5-.673-1.5-1.5Zm1.5,10.5c-.827,0-1.5-.673-1.5-1.5s.673-1.5,1.5-1.5,1.5.673,1.5,1.5-.673,1.5-1.5,1.5Zm8.486,4c-.827,0-1.5-.673-1.5-1.5s.673-1.5,1.5-1.5,1.5.673,1.5,1.5-.673,1.5-1.5,1.5Zm2.886-3.474c-.631-.92-1.689-1.526-2.886-1.526s-2.244.601-2.876,1.514l-2.176-1.36c.04-.213.066-.43.066-.654,0-1.58-1.059-2.903-2.5-3.337v-2.326c1.441-.434,2.5-1.757,2.5-3.337,0-.224-.026-.442-.066-.654l2.176-1.36c.632.913,1.684,1.514,2.876,1.514s2.254-.606,2.886-1.526l2.194,1.371c-.04.213-.066.43-.066.654,0,1.58,1.059,2.903,2.5,3.337v2.326c-1.441.434-2.5,1.757-2.5,3.337,0,.224.026.442.066.654l-2.194,1.371Zm5.628-.526c-.827,0-1.5-.673-1.5-1.5s.673-1.5,1.5-1.5,1.5.673,1.5,1.5-.673,1.5-1.5,1.5Zm-7.5-4.892l3-1.715v2.116c0,.61-.315,1.178-.832,1.502l-2.168,1.355v-3.258Zm2.343-3.519l-3.343,1.91-3.343-1.91,2.185-1.366c.709-.443,1.608-.443,2.316,0l2.185,1.366Zm-7.343,1.804l3,1.715v3.258l-2.168-1.355c-.518-.324-.832-.891-.832-1.502v-2.116Z"/>
</svg>
