<?xml version="1.0" encoding="UTF-8"?>
<svg xmlns="http://www.w3.org/2000/svg" id="Layer_1" data-name="Layer 1" viewBox="0 0 24 24">
  <path d="m21.019,2.981C16.654-1.381,9.061-.886,4.087,4.087-.885,9.061-1.381,16.656,2.981,21.019c1.995,1.995,4.665,2.974,7.451,2.974,3.308,0,6.78-1.38,9.479-4.08,2.391-2.39,3.831-5.453,4.058-8.624.229-3.225-.818-6.175-2.951-8.308Zm-2.077,4.653c-2.078,4.157-7.151,9.229-11.307,11.307-2.056,1.029-3.019.884-3.239.663-.221-.22-.366-1.181.663-3.239,2.078-4.157,7.15-9.229,11.307-11.307,1.266-.633,2.116-.822,2.635-.822.325,0,.52.074.604.159.221.221.366,1.182-.663,3.239Zm-13.44-2.133c3.287-3.286,7.881-4.29,11.441-2.849-.452.157-.931.347-1.472.617-4.485,2.243-9.958,7.716-12.201,12.201-.271.541-.46,1.02-.617,1.472-1.441-3.56-.438-8.154,2.849-11.441Zm16.473,5.646c-.191,2.691-1.427,5.302-3.477,7.352-3.288,3.287-7.881,4.29-11.44,2.849.452-.157.931-.347,1.471-.617,4.484-2.242,9.958-7.715,12.201-12.201.272-.543.462-1.024.619-1.477.505,1.242.73,2.629.625,4.095Z"/>
</svg>
