<?xml version="1.0" encoding="UTF-8"?>
<svg xmlns="http://www.w3.org/2000/svg" id="Layer_1" data-name="Layer 1" viewBox="0 0 24 24">
  <path d="m10,11c.552,0,1-.447,1-1s-.448-1-1-1h-1v-1c0-.553-.448-1-1-1s-1,.447-1,1v1h-3v-1c0-.553-.448-1-1-1s-1,.447-1,1v1h-1c-.552,0-1,.447-1,1s.448,1,1,1h1v3h-1c-.552,0-1,.447-1,1s.448,1,1,1h1v1c0,.553.448,1,1,1s1-.447,1-1v-1h3v1c0,.553.448,1,1,1s1-.447,1-1v-1h1c.552,0,1-.447,1-1s-.448-1-1-1h-1v-3h1Zm-3,3h-3v-3h3v3Zm17,2c0,3.309-2.691,6-6,6h-5c-.552,0-1-.447-1-1s.448-1,1-1h5c2.206,0,4-1.794,4-4s-1.794-4-4-4h-3c-.552,0-1-.447-1-1s.448-1,1-1h2.615c1.654,0,3-1.346,3-3s-1.346-3-3-3h-4.615c-.552,0-1-.447-1-1s.448-1,1-1h4.615c2.757,0,5,2.243,5,5,0,1.498-.676,2.829-1.723,3.746,1.851,1.023,3.108,2.994,3.108,5.254Z"/>
</svg>
