<?xml version="1.0" encoding="UTF-8"?>
<svg xmlns="http://www.w3.org/2000/svg" id="Layer_1" data-name="Layer 1" viewBox="0 0 24 24">
  <path d="m23,19c-1.62,0-2.73-3.48-3.014-5.165-.006-.035.014-3.835.014-3.835h1c.552,0,1-.448,1-1s-.448-1-1-1c-1.598,0-2.698-3.383-3-5.092v-1.908c0-.552-.448-1-1-1s-1,.448-1,1v1h-8v-1c0-.552-.448-1-1-1s-1,.448-1,1v1.949c-.035.339-.568,5.051-3,5.051-.552,0-1,.448-1,1s.448,1,1,1h1s.02,3.8.014,3.835c-.284,1.685-1.394,5.165-3.014,5.165-.552,0-1,.448-1,1s.448,1,1,1h1v2c0,.552.448,1,1,1s1-.448,1-1v-2h4v2c0,.552.448,1,1,1s1-.448,1-1v-2h4v2c0,.552.448,1,1,1s1-.448,1-1v-2h4v2c0,.552.448,1,1,1s1-.448,1-1v-2h1c.552,0,1-.448,1-1s-.448-1-1-1Zm-18.801,0c.886-1.322,1.381-2.99,1.617-4h12.367c.236,1.01.731,2.678,1.617,4H4.199Zm3.673-15h8.312c.236,1.01.731,2.678,1.617,4H6.415c.874-1.319,1.282-2.982,1.457-4Zm10.128,6v3H6v-3h12Z"/>
</svg>
