<?xml version="1.0" encoding="UTF-8"?>
<svg xmlns="http://www.w3.org/2000/svg" id="Layer_1" data-name="Layer 1" viewBox="0 0 24 24">
  <path d="m20.683,15.724l-5.578-2.789c-.682-.341-1.105-1.026-1.105-1.789v-7.145c0-1.234-.556-2.38-1.526-3.143C11.504.096,10.261-.176,9.061.113L3.826,1.378C1.573,1.922,0,3.921,0,6.238v15.762c0,1.103.897,2,2,2h5c1.103,0,2-.897,2-2v-1.444c.068.04.139.072.205.116l3.48,2.32c.988.659,2.139,1.008,3.328,1.008h5.077c1.604,0,2.91-1.305,2.91-2.91,0-2.288-1.271-4.344-3.317-5.367Zm-13.683,6.276H2v-2h4.986s.009,0,.014,0v1.999Zm14.09,0h-5.077c-.792,0-1.56-.232-2.219-.672l-3.48-2.32c-.988-.659-2.139-1.008-3.328-1.008H2V6.238c0-1.391.944-2.589,2.295-2.916l1.705-.412v7.089c0,.552.448,1,1,1s1-.448,1-1V2.427l1.53-.37c.599-.146,1.222-.01,1.707.373.485.381.763.954.763,1.571v7.145c0,1.524.847,2.896,2.211,3.578l5.578,2.789c1.364.682,2.211,2.052,2.211,3.578,0,.501-.408.91-.91.91Z"/>
</svg>
