<?xml version="1.0" encoding="UTF-8"?>
<svg xmlns="http://www.w3.org/2000/svg" id="Layer_1" data-name="Layer 1" viewBox="0 0 24 24">
  <path d="m21.938,7c-.448-3.623-3.327-7-8.438-7-2.004,0-4.134.486-6.01,1.607C5.991.906,3.951.248,1.313.004.394-.081-.451,1.127.273,1.699c1.591,1.259,2.661,2.666,3.379,3.935-1.025,1.889-1.652,4.314-1.652,7.365,0,2.43.61,4.695,1.075,6.066-1.491.723-2.647,2.076-3.045,3.677-.169.68.397,1.349,1.09,1.246,3.191-.477,4.38-2.737,4.38-2.737,0,0,1.227,2.256,4.38,2.737.693.106,1.26-.565,1.09-1.245-.43-1.726-1.74-3.164-3.401-3.835.206-1.705.859-3.543,1.754-4.841.79-1.145,1.814-1.881,2.897-2.344.373.565.764,1.455,1.064,2.862.138.646,1.181.486,1.418-.13.553-1.441.83-2.574.952-3.447.152-.005,6.346-.008,6.346-.008,1.103,0,2-.897,2-2s-.958-2-2.062-2Zm-5.837,2c-3.737,0-6.65,1.359-8.424,3.933-1.052,1.525-1.807,3.592-2.072,5.571-.035,0-.435.007-.598.022-.417-1.215-1.006-3.32-1.006-5.525C4,2.53,11.914,2,13.5,2c4.466,0,6.5,3.11,6.5,6,0,.553.448,1,1,1h-4.899Z"/>
</svg>
