<?xml version="1.0" encoding="UTF-8"?>
<svg xmlns="http://www.w3.org/2000/svg" id="Layer_1" data-name="Layer 1" viewBox="0 0 24 24">
  <path d="m0,3c0-.552.448-1,1-1h.348c.926,0,1.854-.219,2.683-.633l1.682-.841c.689-.344,1.459-.525,2.227-.525,1.281,0,2.472.461,3.39,1.298l.7.638.618-.582c1.485-1.399,3.809-1.743,5.639-.829l1.682.841c.829.415,1.757.633,2.683.633h.348c.552,0,1,.448,1,1s-.448,1-1,1h-.348c-1.235,0-2.472-.292-3.578-.844l-1.682-.841c-1.094-.546-2.486-.341-3.374.495l-4.705,4.429c-.358.359-.442.954-.168,1.335.179.249.442.399.739.423.292.028.581-.081.788-.29l4.174-3.995c.399-.381,1.032-.368,1.414.031.382.399.368,1.032-.031,1.414l-1.767,1.691,1.136.852c.442.331.531.958.2,1.4-.196.262-.497.4-.801.4-.208,0-.419-.065-.599-.2l-1.4-1.05-.927.887c-.551.551-1.312.863-2.104.863-.081,0-.162-.003-.244-.01-.878-.071-1.681-.526-2.201-1.249-.845-1.174-.674-2.867.398-3.939l2.647-2.492-.586-.534c-.918-.836-2.349-.977-3.376-.462l-1.681.841c-1.105.552-2.342.844-3.578.844h-.348c-.552,0-1-.448-1-1Zm24,15c0,3.309-2.691,6-6,6s-6-2.691-6-6,2.691-6,6-6,6,2.691,6,6Zm-2,0c0-2.206-1.794-4-4-4s-4,1.794-4,4,1.794,4,4,4,4-1.794,4-4Zm-16.8-3.6c-1.204-.903-2.695-1.4-4.2-1.4-.552,0-1,.447-1,1s.448,1,1,1c1.075,0,2.141.355,3,1l4.4,3.3c.18.135.391.2.599.2.304,0,.604-.138.801-.4.332-.441.242-1.068-.2-1.399l-4.4-3.3Zm14.107,1.878l-1.766,1.695c-.035.035-.09.035-.125,0l-.898-.879c-.395-.386-1.026-.38-1.415.016-.386.395-.379,1.027.015,1.414l.898.879c.405.396.936.594,1.466.594s1.056-.197,1.454-.59l1.756-1.686c.398-.383.412-1.016.029-1.414-.382-.4-1.015-.411-1.414-.029Z"/>
</svg>
