<?xml version="1.0" encoding="UTF-8"?>
<svg xmlns="http://www.w3.org/2000/svg" id="Layer_1" data-name="Layer 1" viewBox="0 0 24 24">
  <path d="m9,18h-3.319c-1.548,0-2.861-1.208-2.99-2.751l-.607-7.249h19.83l-.16,1.917c-.046.55.362,1.034.913,1.08.563.052,1.034-.364,1.079-.914l.254-3.083v-2c0-2.757-2.243-5-5-5H5C2.243,0,0,2.243,0,5l.004,1.982c0,.007-.004.012-.004.018,0,.007.004.012.004.019v.064s.694,8.332.694,8.332c.133,1.595,1.027,2.973,2.302,3.792v1.293c0,1.93,1.57,3.5,3.5,3.5s3.5-1.57,3.5-3.5v-1.5c0-.552-.447-1-1-1Zm2-12h-3V2h3v4Zm2-4h3v4h-3V2Zm9,3l.002,1h-4.002V2h1c1.654,0,3,1.346,3,3ZM5,2h1v4H2v-1c0-1.654,1.346-3,3-3Zm14.565,8.496c-.584-.518-1.134-.492-1.412-.43-.272.061-.774.268-1.072.964-.32.747-.473,1.586-.608,2.328-.072.398-.18.987-.299,1.348-.051-.129-.214-.591-.25-.679-.253-.607-.738-.989-1.3-1.023-.567-.044-1.067.277-1.379.829-.508.897-1.245,2.967-1.245,4.168,0,3.169,2.477,5.8,5.638,5.989.11.007.22.01.329.01,2.057,0,4.01-1.144,5.157-3.043,1.908-3.16.711-6.68-3.559-10.46Zm1.846,9.426c-.387.641-.918,1.157-1.518,1.518.212-.721-.005-1.55-.566-2.112l-.769-1.096c-.308-.308-.807-.308-1.115,0l-.77,1.096c-.585.585-.792,1.46-.532,2.202-1.273-.673-2.141-2.002-2.141-3.529,0-.47.234-1.347.515-2.112.293.569.749,1.112,1.511,1.112,1.816,0,2.163-1.898,2.415-3.285.08-.436.161-.882.273-1.292,3.151,2.936,4.009,5.329,2.697,7.499Z"/>
</svg>
