<?xml version="1.0" encoding="UTF-8"?>
<svg xmlns="http://www.w3.org/2000/svg" id="Layer_1" data-name="Layer 1" viewBox="0 0 24 24">
  <path d="m7.283,3.697c-.385-.396-.376-1.029.021-1.414.396-.384,1.029-.376,1.414.021l2.374,2.442c.34.339.912.341,1.266-.007L16.792.294c.391-.392,1.023-.392,1.414-.002.392.39.392,1.023.002,1.414l-4.439,4.45c-.567.561-1.309.841-2.049.841s-1.487-.283-2.052-.847l-2.384-2.453Zm13.717-.697c-1.654,0-3,1.346-3,3v5.184c-.266-.094-.542-.164-.832-.18-.794-.042-1.567.226-2.173.769l-3.009,2.768c-.082-.084-.16-.172-.247-.252l-2.744-2.525c-.844-.756-1.996-.931-2.996-.579v-5.186c0-1.654-1.346-3-3-3S0,4.346,0,6v10.101c0,2.137.832,4.146,2.343,5.657l1.95,1.95c.195.195.451.293.707.293s.512-.098.707-.293c.391-.391.391-1.023,0-1.414l-1.95-1.95c-1.133-1.133-1.757-2.64-1.757-4.243V6c0-.551.449-1,1-1s1,.449,1,1c0,0-.005,8.077,0,8.118.03.654.286,1.308.747,1.854l2.616,2.721c.383.399,1.017.411,1.414.028.398-.383.411-1.016.028-1.414l-2.57-2.671c-.317-.377-.308-.938.021-1.305.367-.41.999-.444,1.397-.086l2.734,2.516c1.026.944,1.615,2.285,1.615,3.68v3.559c0,.552.448,1,1,1s1-.448,1-1v-3.559c0-1.152-.294-2.275-.824-3.276l3.163-2.911c.198-.178.454-.272.72-.253.266.015.51.132.687.33.16.178.241.402.255.623v.045s0,.001,0,.002c.003.217-.058.427-.188.584l-2.533,2.634c-.383.398-.37,1.031.027,1.414.194.187.443.279.693.279.263,0,.524-.103.721-.307l2.578-2.685c.45-.536.686-1.195.701-1.857.002-.023,0-8.065,0-8.065,0-.551.448-1,1-1s1,.449,1,1v10.101c0,1.603-.624,3.109-1.757,4.243l-1.95,1.95c-.391.39-.391,1.023,0,1.414.195.195.451.293.707.293s.512-.098.707-.293l1.95-1.95c1.511-1.511,2.343-3.52,2.343-5.657V6c0-1.654-1.346-3-3-3Z"/>
</svg>
