<?xml version="1.0" encoding="UTF-8"?>
<svg xmlns="http://www.w3.org/2000/svg" id="Layer_1" data-name="Layer 1" viewBox="0 0 24 24">
  <path d="m19,6v-3c0-1.654-1.346-3-3-3H5C2.243,0,0,2.243,0,5v8c0,2.757,2.243,5,5,5v1c0,2.757,2.243,5,5,5h9c2.757,0,5-2.243,5-5v-8c0-2.757-2.243-5-5-5Zm-8.764,0l6.7-3.35c.041.109.063.227.063.35v3h-6.764ZM2,13V5c0-1.654,1.346-3,3-3h8.764l-6,3c-1.705.854-2.764,2.566-2.764,4.472v6.528c-1.654,0-3-1.346-3-3Zm20,6c0,1.654-1.346,3-3,3h-9c-1.654,0-3-1.346-3-3v-9.528c0-.528.136-1.032.383-1.472h11.617c1.654,0,3,1.346,3,3v8Zm-2-7c0,.553-.447,1-1,1h-3c-.553,0-1-.447-1-1s.447-1,1-1h3c.553,0,1,.447,1,1Zm-7-1v2c0,.552-.448,1-1,1h-2c-.552,0-1-.448-1-1v-2c0-.552.448-1,1-1h2c.552,0,1,.448,1,1Zm7,7c0,.553-.447,1-1,1h-3c-.553,0-1-.447-1-1s.447-1,1-1h3c.553,0,1,.447,1,1Zm-7-1v2c0,.552-.448,1-1,1h-2c-.552,0-1-.448-1-1v-2c0-.552.448-1,1-1h2c.552,0,1,.448,1,1Z"/>
</svg>
