<?xml version="1.0" encoding="UTF-8"?>
<svg xmlns="http://www.w3.org/2000/svg" id="Layer_1" data-name="Layer 1" viewBox="0 0 24 24">
  <path d="m23.707,18.292l-.242-.241c-1.09-1.091-2.477-1.777-3.979-1.984.33-1.032.503-2.1.514-3.067h0c2.206,0,4-1.794,4-4,0,0-.001-4.601-.003-4.625-.029-.727-.321-1.446-.876-2.001-.663-.663-2.649-1.834-3.726-2.321-.508-.23-1.175.331-.858.79.523.757.888,1.508,1.089,2.224-.671-.208-1.423-.555-2.279-1.034-.487-.272-1.02.35-.79.858.487,1.077,1.658,3.063,2.321,3.726.844.844,2.066,1.08,3.121.708v1.675c0,1.103-.897,2-2,2h-.256c-.585-1.977-2.172-3.227-4.744-3.737v-1.263c0-.553-.448-1-1-1s-1,.447-1,1v1.025c-.322-.017-.656-.025-1-.025s-.678.009-1,.025v-1.025c0-.553-.448-1-1-1s-1,.447-1,1v1.263c-2.573.51-4.16,1.76-4.744,3.737h-.256c-1.103,0-2-.897-2-2v-1.675c1.055.372,2.277.136,3.121-.708.663-.663,1.834-2.649,2.321-3.726.23-.508-.303-1.13-.79-.858-.856.479-1.607.825-2.279,1.034.201-.715.566-1.466,1.089-2.224.317-.459-.349-1.02-.858-.79C3.528.541,1.541,1.712.879,2.374.323,2.929.032,3.648.003,4.375c-.002.024-.003,4.625-.003,4.625,0,2.206,1.794,4,4,4h0c.013.873.211,1.964.589,3.057-1.531.194-2.946.885-4.054,1.993l-.243.242c-.391.391-.392,1.023-.001,1.414.195.196.452.294.708.294s.511-.098.707-.292l.244-.243c.941-.942,2.194-1.462,3.526-1.465.512.875,1.156,1.653,1.929,2.198-.981.782-1.817,1.734-2.173,2.161-.354.425-.296,1.055.127,1.408.187.156.414.232.64.232.286,0,.571-.122.769-.359,1.174-1.406,2.685-2.641,3.232-2.641h4c.547,0,2.058,1.234,3.232,2.641.198.237.482.359.769.359.226,0,.453-.076.64-.232.424-.354.481-.983.127-1.408-.351-.421-1.165-1.349-2.126-2.124.81-.54,1.477-1.327,1.999-2.234,1.289.032,2.496.549,3.41,1.464l.243.242c.195.194.451.292.707.292s.513-.098.708-.294c.39-.391.389-1.023-.001-1.414Zm-9.553.708h-4.308c-2.393,0-3.846-4.23-3.846-6.091,0-1.933.713-3.909,6-3.909s6,1.977,6,3.909c0,2.186-1.285,6.091-3.846,6.091Z"/>
</svg>
