<?xml version="1.0" encoding="UTF-8"?>
<svg xmlns="http://www.w3.org/2000/svg" id="Layer_1" data-name="Layer 1" viewBox="0 0 24 24">
  <path d="m12,0C5.383,0,0,5.383,0,12s5.383,12,12,12,12-5.383,12-12S18.617,0,12,0Zm0,22c-5.514,0-10-4.486-10-10S6.486,2,12,2s10,4.486,10,10-4.486,10-10,10Zm-2.829-12.829c-.755.755-1.171,1.76-1.171,2.829s.416,2.073,1.171,2.829c1.56,1.56,4.098,1.56,5.657,0,.391-.391,1.023-.391,1.414,0s.391,1.023,0,1.414c-.914.915-2.055,1.46-3.243,1.659v1.098c0,.552-.448,1-1,1s-1-.448-1-1v-1.098c-1.188-.199-2.328-.744-3.243-1.659-2.339-2.339-2.339-6.146,0-8.485.914-.915,2.055-1.46,3.243-1.659v-1.098c0-.552.448-1,1-1s1,.448,1,1v1.098c1.188.199,2.328.744,3.243,1.659.391.391.391,1.023,0,1.414s-1.023.391-1.414,0c-1.56-1.56-4.098-1.56-5.657,0Z"/>
</svg>
