<?xml version="1.0" encoding="UTF-8"?>
<svg xmlns="http://www.w3.org/2000/svg" id="Layer_1" data-name="Layer 1" viewBox="0 0 24 24">
  <path d="m10,2c0-1.105.895-2,2-2s2,.895,2,2-.895,2-2,2-2-.895-2-2Zm4,15c0-1.105-.895-2-2-2s-2,.895-2,2,.895,2,2,2,2-.895,2-2Zm6.5-9c-1.105,0-2,.895-2,2s.895,2,2,2,2-.895,2-2-.895-2-2-2Zm-15,2c0-1.105-.895-2-2-2s-2,.895-2,2,.895,2,2,2,2-.895,2-2Zm-2,5c.71,0,1.329.504,1.47,1.199.096.474.513.801.979.801.066,0,.133-.007.2-.021.541-.109.891-.638.781-1.179-.33-1.623-1.772-2.801-3.43-2.801S.4,14.178.07,15.801c-.11.541.24,1.069.781,1.179.542.108,1.069-.239,1.179-.78.141-.695.759-1.199,1.47-1.199ZM12,5c-1.657,0-3.1,1.178-3.43,2.801-.11.541.24,1.069.781,1.179.542.109,1.069-.239,1.179-.78.141-.695.759-1.199,1.47-1.199s1.329.504,1.47,1.199c.096.474.513.801.979.801.066,0,.133-.007.2-.021.541-.109.891-.638.781-1.179-.33-1.623-1.772-2.801-3.43-2.801Zm0,15c-1.657,0-3.1,1.178-3.43,2.801-.11.541.24,1.069.781,1.179.542.112,1.069-.24,1.179-.78.141-.695.759-1.199,1.47-1.199s1.329.504,1.47,1.199c.096.474.513.801.979.801.066,0,.133-.007.2-.021.541-.109.891-.638.781-1.179-.33-1.623-1.772-2.801-3.43-2.801Zm11.93-4.699c-.33-1.623-1.772-2.801-3.43-2.801s-3.1,1.178-3.43,2.801c-.11.541.24,1.069.781,1.179.542.108,1.069-.239,1.179-.78.141-.695.759-1.199,1.47-1.199s1.329.504,1.47,1.199c.096.474.513.801.979.801.066,0,.133-.007.2-.021.541-.109.891-.638.781-1.179ZM7,2h-1c-2.206,0-4,1.794-4,4,0,.553.448,1,1,1s1-.447,1-1c0-1.103.897-2,2-2h1c.552,0,1-.447,1-1s-.448-1-1-1Zm11,2c1.103,0,2,.897,2,2,0,.553.448,1,1,1s1-.447,1-1c0-2.206-1.794-4-4-4h-1c-.552,0-1,.447-1,1s.448,1,1,1h1Zm3,13c-.552,0-1,.447-1,1,0,1.103-.897,2-2,2-.552,0-1,.447-1,1s.448,1,1,1c2.206,0,4-1.794,4-4,0-.553-.448-1-1-1Zm-15,3c-1.103,0-2-.897-2-2,0-.553-.448-1-1-1s-1,.447-1,1c0,2.206,1.794,4,4,4,.552,0,1-.447,1-1s-.448-1-1-1Z"/>
</svg>
