<?xml version="1.0" encoding="UTF-8"?>
<svg xmlns="http://www.w3.org/2000/svg" id="Layer_1" data-name="Layer 1" viewBox="0 0 24 24">
  <path d="m10.5,9.75c0,.69-.56,1.25-1.25,1.25s-1.25-.56-1.25-1.25.56-1.25,1.25-1.25,1.25.56,1.25,1.25Zm4.25-1.25c-.69,0-1.25.56-1.25,1.25s.56,1.25,1.25,1.25,1.25-.56,1.25-1.25-.56-1.25-1.25-1.25Zm9.25,3.958v1.711c0,.658-.389,1.254-.991,1.519-.23.101-.479.138-.717.139-.501,1.788-.922,2.987-1.112,3.419l-.623,1.791c-.306.683-.881,1.067-1.536,1.091-.638.004-1.255-.319-1.568-.895v-.003c-1.196.802-2.833,1.859-3.934,2.411-.475.238-.997.358-1.519.358s-1.045-.12-1.521-.359c-1.1-.551-2.736-1.608-3.931-2.41v.003c-.314.575-.91.897-1.57.895-.655-.023-1.23-.408-1.501-1.005l-.657-1.876c-.19-.431-.611-1.631-1.112-3.42-.24,0-.487-.038-.717-.139-.602-.265-.991-.86-.991-1.519v-1.711c0-1.539.282-3.109.841-4.685-.219-.102-.408-.258-.553-.461-.333-.469-.365-1.082-.083-1.6C1.067,4.136,3.316,1.862,6.22.599c1.835-.799,3.916-.799,5.78-.014,1.864-.785,3.945-.785,5.781.014,2.508,1.093,4.983,3.218,6.019,5.169.276.521.24,1.134-.095,1.599-.141.195-.324.347-.531.447.549,1.562.827,3.118.827,4.645Zm-2,0c0-1.722-.421-3.506-1.252-5.302-.163-.352-.107-.766.142-1.062.136-.162.316-.273.513-.325-.951-1.186-2.559-2.525-4.42-3.336-1.439-.627-3.093-.574-4.535.147-.281.141-.612.141-.894,0-1.444-.722-3.096-.773-4.535-.147-1.836.799-3.472,2.159-4.432,3.334.21.052.401.172.541.348.235.296.284.699.125,1.042-.831,1.796-1.252,3.58-1.252,5.302v1.025c.203-.078.429-.09.645-.027.336.099.597.367.686.706.64,2.453,1.179,3.974,1.327,4.291.014.03.37,1.048.37,1.048l.049-.148c.098-.3.332-.535.631-.636.104-.035.212-.053.319-.053.201,0,.399.061.568.178.974.673,3.39,2.312,4.782,3.01.391.197.856.196,1.247,0,1.394-.698,3.81-2.338,4.784-3.011.259-.181.588-.227.888-.125.299.101.533.336.631.636l.05.152s.354-1.021.369-1.052c.147-.317.687-1.838,1.327-4.291.089-.339.349-.607.686-.706.215-.062.441-.051.645.027v-1.025Zm-3.893-6.191c.355.626.893,1.57.893,2.733,0,1.77-.565,3.263-.865,3.929l.145.58c.265,1.058-.082,2.16-.904,2.876l-1.872,1.631c-.729.635-1.662.984-2.627.984h-1.753c-.965,0-1.898-.35-2.627-.984l-1.872-1.631c-.822-.716-1.169-1.818-.904-2.876l.145-.58c-.3-.666-.865-2.159-.865-3.929,0-1.163.538-2.107.893-2.732.618-1.087,1.867-1.665,3.106-1.445.78.139,1.89.427,3.001,1.021,1.111-.595,2.221-.883,3.002-1.021,1.233-.222,2.486.358,3.104,1.444Zm-1.908,6.075c.006-.013.801-1.513.801-3.342,0-.587-.273-1.115-.631-1.744-.201-.351-.609-.54-1.015-.465-.732.13-1.814.418-2.819,1.054-.326.207-.743.207-1.069,0-1.005-.636-2.263-.939-2.994-1.069-.346,0-.669.181-.84.481-.358.628-.631,1.156-.631,1.743,0,1.829.794,3.329.802,3.345.118.219.151.477.091.718l-.232.931c-.082.325.025.664.277.884l1.872,1.631c.333.29.753.454,1.19.481v-1.989l-.793-.793c-.133-.133-.207-.312-.207-.5,0-.391.317-.707.707-.707h2.586c.391,0,.707.317.707.707,0,.188-.075.367-.207.5l-.793.793v1.989c.438-.027.857-.191,1.19-.481l1.872-1.631c.252-.22.359-.559.277-.884l-.232-.931c-.061-.243-.028-.501.092-.721Z"/>
</svg>
