<?xml version="1.0" encoding="UTF-8"?>
<svg xmlns="http://www.w3.org/2000/svg" id="Layer_1" data-name="Layer 1" viewBox="0 0 24 24">
  <path d="m22.21.939c-.365-.588-.997-.939-1.689-.939h-3.009c-1.534,0-2.909.854-3.587,2.23l-1.861,3.773c-.021,0-.042-.003-.063-.003-.014,0-.027.002-.041.002l-1.861-3.772c-.679-1.376-2.053-2.23-3.587-2.23h-3.009c-.692,0-1.324.351-1.69.939-.365.588-.4,1.31-.094,1.931l3.232,6.553c-1.217,1.535-1.95,3.471-1.95,5.578,0,4.962,4.038,9,9,9s9-4.038,9-9c0-2.099-.728-4.027-1.937-5.56l3.241-6.57c.307-.621.271-1.343-.094-1.931Zm-15.699,1.061c.767,0,1.454.427,1.793,1.115l1.555,3.153c-1.264.31-2.424.884-3.416,1.666L3.502,2h3.009Zm5.489,20c-3.86,0-7-3.14-7-7,0-3.66,2.825-6.668,6.409-6.97.001,0,.002,0,.004,0,.194-.016.39-.03.588-.03,3.86,0,7,3.14,7,7s-3.14,7-7,7Zm5.57-14.055c-.99-.784-2.148-1.359-3.41-1.672l1.558-3.158c.339-.688,1.026-1.115,1.793-1.115l3-.015-2.94,5.96Zm-1.413,6.465c0,.361-.251.665-.539.825l-1.49.828.661,1.803c.128.349.012.741-.285.965h0c-.304.229-.723.226-1.023-.007l-1.482-1.146-1.482,1.146c-.301.232-.72.235-1.023.007h0c-.297-.224-.413-.615-.285-.965l.661-1.803-1.49-.828c-.288-.16-.539-.464-.539-.825,0-.306.266-.644.696-.644h2.14l.567-2.175c.09-.345.399-.585.755-.591.355.007.665.246.755.591l.567,2.175h2.14c.43,0,.696.337.696.644Z"/>
</svg>
