<?xml version="1.0" encoding="UTF-8"?>
<svg xmlns="http://www.w3.org/2000/svg" id="Layer_1" data-name="Layer 1" viewBox="0 0 24 24">
  <path d="m22.854,1.161c-.932-.924-2.253-1.332-3.537-1.092-3.701.691-8.991,2.765-12.737,6.51C2.834,10.324.761,15.614.069,19.317c-.239,1.284.17,2.606,1.094,3.537.755.76,1.773,1.178,2.821,1.178.229,0,.461-.021.691-.062,1.77-.316,7.918-1.723,12.745-6.55,4.827-4.827,6.233-10.977,6.55-12.747.229-1.279-.189-2.593-1.117-3.513Zm-.852,3.162c-.599,3.348-2.487,8.176-5.995,11.684s-8.335,5.397-11.683,5.995c-.641.115-1.276-.089-1.741-.557-.469-.472-.668-1.114-.547-1.762.636-3.408,2.535-8.269,5.957-11.69s8.283-5.322,11.69-5.958c.124-.023.248-.035.371-.035.517,0,1.009.203,1.391.581.468.465.671,1.1.557,1.742Zm-10.002,9.677c0,1.105-.895,2-2,2s-2-.895-2-2,.895-2,2-2,2,.895,2,2Zm4-4c0,1.105-.895,2-2,2s-2-.895-2-2,.895-2,2-2,2,.895,2,2Zm-8,8c0,1.105-.895,2-2,2s-2-.895-2-2,.895-2,2-2,2,.895,2,2Zm12-12c0,1.105-.895,2-2,2s-2-.895-2-2,.895-2,2-2,2,.895,2,2Z"/>
</svg>
