<?xml version="1.0" encoding="UTF-8"?>
<svg xmlns="http://www.w3.org/2000/svg" id="Layer_1" data-name="Layer 1" viewBox="0 0 24 24">
  <path d="m2,6V1c0-.553.448-1,1-1s1,.447,1,1v5c0,.552.449,1,1,1h6c.551,0,1-.448,1-1V1c0-.553.448-1,1-1s1,.447,1,1v5c0,1.654-1.346,3-3,3h-6c-1.654,0-3-1.346-3-3Zm5.962-3c1.311,0,2.589-.841,2.997-2.013.168-.481-.196-.987-.706-.987h-4.506c-.51,0-.873.505-.706.987.408,1.172,1.609,2.013,2.92,2.013Zm15.275,10.015l-6.805,7.638c-1.896,2.128-4.618,3.348-7.466,3.348h-4.965c-2.206,0-4-1.794-4-4v-5c0-2.206,1.794-4,4-4h8.858c1.139,0,2.138.609,2.689,1.519l3.216-3.534c.542-.595,1.282-.943,2.086-.981.808-.034,1.574.24,2.168.782,1.213,1.105,1.312,3.003.219,4.229Zm-1.566-2.751c-.2-.182-.458-.278-.728-.263-.27.013-.519.13-.7.329l-4.426,4.864c-.385,1.07-1.339,1.891-2.515,2.059l-5.16.737c-.545.08-1.053-.301-1.131-.849-.078-.547.302-1.054.848-1.132l5.161-.737c.56-.079.981-.565.981-1.13,0-.63-.512-1.143-1.142-1.143H4c-1.103,0-2,.897-2,2v5c0,1.103.897,2,2,2h4.965c2.279,0,4.456-.977,5.973-2.678l6.805-7.638c.367-.412.334-1.05-.073-1.421Z"/>
</svg>
