<?xml version="1.0" encoding="UTF-8"?>
<svg xmlns="http://www.w3.org/2000/svg" id="Layer_1" data-name="Layer 1" viewBox="0 0 24 24">
  <path d="m21.56,2.141h0c-.416-.601-1.043-.991-1.767-1.101-.735-.112-1.5.093-2.093.559-1.699,1.336-3.217,2.081-4.7,2.313v-.913c0-.552-.448-1-1-1s-1,.448-1,1v.922c-2.131-.315-3.985-1.545-4.974-2.322-.593-.466-1.357-.672-2.093-.559-.724.109-1.351.5-1.767,1.101C.569,4.452,0,7.718,0,10.004c0,2.658.988,5.831,2.46,7.895.417.583,1.037.963,1.746,1.07.722.111,1.475-.085,2.063-.535,1.262-.962,2.892-2.037,4.73-2.342v6.908c0,.552.448,1,1,1s1-.448,1-1v-6.915c1.951.3,3.76,1.399,5.006,2.349.481.367,1.072.564,1.667.564.132,0,.265-.01.396-.03.709-.107,1.33-.487,1.747-1.071,1.612-2.262,2.185-5.666,2.185-7.894,0-2.592-.98-5.752-2.44-7.863ZM5.057,16.844c-.162.123-.363.174-.553.148-.12-.018-.29-.077-.416-.254-1.229-1.724-2.088-4.493-2.088-6.733,0-2.494.711-5.134,1.812-6.726.126-.182.298-.242.42-.261.194-.027.396.027.558.154,1.198.942,3.497,2.445,6.21,2.761v8.133c-2.402.299-4.414,1.613-5.943,2.779Zm15.13-.107c-.127.178-.296.237-.417.255-.19.028-.392-.025-.552-.148-1.503-1.146-3.733-2.481-6.218-2.779V5.934c2.529-.303,4.569-1.687,5.936-2.763.162-.127.367-.182.559-.154.122.019.293.079.419.261,1.228,1.776,2.085,4.542,2.085,6.726,0,2.085-.561,4.976-1.813,6.732Z"/>
</svg>
