<?xml version="1.0" encoding="UTF-8"?>
<svg xmlns="http://www.w3.org/2000/svg" id="Layer_1" data-name="Layer 1" viewBox="0 0 24 24">
  <path d="m24,7v12c0,2.757-2.243,5-5,5-.552,0-1-.447-1-1s.448-1,1-1c1.654,0,3-1.346,3-3v-9h-1c-.552,0-1-.447-1-1s.448-1,1-1h1v-1c0-1.654-1.346-3-3-3H5c-1.654,0-3,1.346-3,3v1h11c.552,0,1,.447,1,1s-.448,1-1,1H2v9c0,1.654,1.346,3,3,3,.552,0,1,.447,1,1s-.448,1-1,1c-2.757,0-5-2.243-5-5V7C0,4.243,2.243,2,5,2h1v-1c0-.553.448-1,1-1s1,.447,1,1v1h8v-1c0-.553.448-1,1-1s1,.447,1,1v1h1c2.757,0,5,2.243,5,5Zm-7,10c-.552,0-1,.447-1,1,0,2.206-1.794,4-4,4s-4-1.794-4-4,1.794-4,4-4c.552,0,1-.447,1-1s-.448-1-1-1c-3.309,0-6,2.691-6,6s2.691,6,6,6,6-2.691,6-6c0-.553-.448-1-1-1Zm-.448-7.744l-.966.966c-.375.375-.586.884-.586,1.414v1.95l-2.482,2.482c-.165-.044-.339-.068-.518-.068-1.105,0-2,.895-2,2s.895,2,2,2,2-.895,2-2c0-.179-.024-.353-.068-.518l2.482-2.482h1.95c.53,0,1.039-.211,1.414-.586l.966-.966c.535-.535.156-1.448-.6-1.448h-2.144v-2.144c0-.756-.914-1.135-1.448-.6Z"/>
</svg>
