<?xml version="1.0" encoding="UTF-8"?>
<svg xmlns="http://www.w3.org/2000/svg" id="Layer_1" data-name="Layer 1" viewBox="0 0 24 24">
  <path d="m9.893,17.047c-.291-.031-.588-.047-.893-.047-3.734,0-6.55,2.461-7.008,6.124-.063.506-.494.876-.991.876-.042,0-.083-.003-.125-.008-.548-.068-.937-.568-.868-1.116.58-4.638,4.277-7.876,8.992-7.876.378,0,.748.02,1.107.059.549.06.946.553.887,1.102-.059.55-.559.939-1.102.887ZM1.5,7c0-.553.448-1,1-1h.5v-.5C3,2.468,5.467,0,8.5,0h1c3.033,0,5.5,2.468,5.5,5.5v.5h.5c.553,0,1,.447,1,1s-.447,1-1,1h-.5c0,3.309-2.691,6-6,6s-6-2.691-6-6h-.5c-.552,0-1-.447-1-1Zm11.5,1H5c0,2.206,1.794,4,4,4s4-1.794,4-4Zm-8-2h8v-.5c0-1.758-1.308-3.204-3-3.449v1.949c0,.553-.448,1-1,1s-1-.447-1-1v-1.949c-1.692.245-3,1.691-3,3.449v.5Zm17.5,15h-3c-.828,0-1.5.672-1.5,1.5s.672,1.5,1.5,1.5h3c.828,0,1.5-.672,1.5-1.5s-.672-1.5-1.5-1.5Zm-3-7h3c.828,0,1.5-.672,1.5-1.5s-.672-1.5-1.5-1.5h-3c-.828,0-1.5.672-1.5,1.5s.672,1.5,1.5,1.5Zm-5,7h-3c-.829,0-1.5.672-1.5,1.5s.671,1.5,1.5,1.5h3c.828,0,1.5-.672,1.5-1.5s-.672-1.5-1.5-1.5Zm2-5h-2c-.828,0-1.5.672-1.5,1.5s.672,1.5,1.5,1.5h2c.828,0,1.5-.672,1.5-1.5s-.672-1.5-1.5-1.5Zm6,0h-1c-.828,0-1.5.672-1.5,1.5s.672,1.5,1.5,1.5h1c.828,0,1.5-.672,1.5-1.5s-.672-1.5-1.5-1.5Z"/>
</svg>
