<?xml version="1.0" encoding="UTF-8"?>
<svg xmlns="http://www.w3.org/2000/svg" id="Layer_1" data-name="Layer 1" viewBox="0 0 24 24">
  <path d="m22.46,9.047l-.46-.441v-.606c0-2.206-1.794-4-4-4H6c-2.206,0-4,1.794-4,4v.61l-.458.438C.563,9.986.002,11.303.002,12.658v6.341c-.002,1.336.519,2.592,1.463,3.536s2.2,1.465,3.536,1.465h13.999c2.757,0,5-2.243,5-5v-6.343c0-1.356-.562-2.673-1.54-3.61ZM6,6h12c1.103,0,2,.897,2,2v3.242l-5.879,5.879c-1.133,1.133-3.109,1.133-4.242,0l-5.879-5.879v-3.242c0-1.103.897-2,2-2Zm16,13c0,1.654-1.346,3-3,3H5.001c-.802,0-1.556-.312-2.122-.879-.566-.566-.878-1.32-.878-2.122v-6.341c0-.179.024-.357.055-.531l6.408,6.408c.943.944,2.199,1.465,3.535,1.465s2.592-.521,3.535-1.465l6.41-6.41c.032.175.055.353.055.532v6.343ZM5,1c0-.553.447-1,1-1h12c.553,0,1,.447,1,1s-.447,1-1,1H6c-.553,0-1-.447-1-1Zm11,7.5c0-.83.67-1.5,1.5-1.5s1.5.67,1.5,1.5-.67,1.5-1.5,1.5-1.5-.67-1.5-1.5Zm-4,7.5c1.93,0,3.5-1.57,3.5-3.5s-1.57-3.5-3.5-3.5-3.5,1.57-3.5,3.5,1.57,3.5,3.5,3.5Zm0-5c.827,0,1.5.673,1.5,1.5s-.673,1.5-1.5,1.5-1.5-.673-1.5-1.5.673-1.5,1.5-1.5Zm-7-2.5c0-.83.67-1.5,1.5-1.5s1.5.67,1.5,1.5-.67,1.5-1.5,1.5-1.5-.67-1.5-1.5Z"/>
</svg>
