<?xml version="1.0" encoding="UTF-8"?>
<svg xmlns="http://www.w3.org/2000/svg" id="Layer_1" data-name="Layer 1" viewBox="0 0 24 24">
  <path d="m22.5,8c.828,0,1.5-.672,1.5-1.5v-2c0-.828-.672-1.5-1.5-1.5h-.918c-.773-1.764-2.536-3-4.582-3H7C4.243,0,2,2.243,2,5v15c0,2.206,1.794,4,4,4h11c2.414,0,4.435-1.721,4.899-4h.601c.828,0,1.5-.672,1.5-1.5v-2c0-.828-.672-1.5-1.5-1.5h-.5v-1h.5c.828,0,1.5-.672,1.5-1.5v-2c0-.828-.672-1.5-1.5-1.5h-.5v-1h.5Zm-2.5-3v11h-12V2h9c1.654,0,3,1.346,3,3ZM6,2.172v13.828c-.728,0-1.411.196-2,.537V5c0-1.304.836-2.415,2-2.828Zm11,19.828H6c-1.103,0-2-.897-2-2s.897-2,2-2h14v1c0,1.654-1.346,3-3,3Z"/>
</svg>
