<?xml version="1.0" encoding="UTF-8"?>
<svg xmlns="http://www.w3.org/2000/svg" id="Layer_1" data-name="Layer 1" viewBox="0 0 24 24">
  <path d="m23.507,10.728c-.238-.33-.54-.599-.884-.793l.344-.344c.976-.975,1.13-2.517.359-3.587-.352-.488-.846-.841-1.404-1.017.127-.709-.005-1.451-.434-2.047-.474-.658-1.204-1.073-2.005-1.138-.71-.055-1.393.175-1.943.623-.051-.094-.099-.19-.163-.279-.474-.658-1.204-1.073-2.005-1.138-.799-.061-1.587.223-2.154.792l-7.218,7.218v-.939c0-1.517-1.076-2.835-2.503-3.066-.876-.145-1.767.102-2.439.673-.672.571-1.058,1.405-1.058,2.286v6.169c0,2.381.969,4.708,2.658,6.387l.815.81c1.721,1.709,4.081,2.647,6.504,2.647,2.454-.021,4.748-1.003,6.458-2.763l6.711-6.908c.977-.975,1.131-2.517.36-3.586Zm-1.783,2.182l-6.722,6.918c-1.336,1.374-3.126,2.141-5.042,2.157-1.916.013-3.718-.717-5.077-2.067l-.815-.81c-1.314-1.305-2.067-3.115-2.067-4.967v-6.169c0-.294.129-.572.353-.763.227-.194.517-.274.823-.223.462.075.824.555.824,1.092v3.354c0,.404.244.769.617.924.374.153.803.069,1.09-.217L14.632,3.215c.153-.153.363-.227.579-.212.126.01.364.064.543.312.2.278.135.719-.149,1.003-.042.042-3.821,3.969-3.821,3.969-.385.396-.377,1.029.019,1.414.194.189.446.284.698.284.26,0,.521-.101.717-.302l5.525-5.674c.153-.153.362-.226.579-.212.126.01.364.064.543.312.2.278.135.718-.15,1.003l-5.479,5.629c-.385.396-.375,1.029.021,1.414.396.385,1.028.375,1.414-.021l4.911-5.061c.153-.152.376-.225.578-.212.127.01.365.064.544.312.2.278.135.719-.15,1.003l-4.876,5.025c-.379.401-.362,1.034.039,1.414.4.378,1.033.362,1.414-.039l2.632-2.781c.153-.153.364-.228.579-.212.126.01.364.064.543.312.2.278.135.718-.16,1.013Zm-8.224,1.987c0,1.372-1.682,2.961-2.714,3.807-.459.376-1.113.376-1.572,0-1.032-.846-2.714-2.435-2.714-3.807,0-1.044.784-1.89,1.75-1.89s1.75.674,1.75,1.718c0-1.044.784-1.718,1.75-1.718s1.75.846,1.75,1.89Z"/>
</svg>
