<?xml version="1.0" encoding="UTF-8"?>
<svg xmlns="http://www.w3.org/2000/svg" id="Layer_1" data-name="Layer 1" viewBox="0 0 24 24">
  <path d="m19.951,3.096l-.36-.729c-.272-.817-1.037-1.368-1.897-1.368h-1.782c-.501,0-.828.526-.605.975l.507,1.025h-2.064l-.313-.632c-.272-.817-1.036-1.368-1.897-1.368h-1.775c-.501,0-.828.526-.605.975l.507,1.025h-2.047l-.724-1.447c-.169-.339-.516-.553-.895-.553h-2C1.794,1,0,2.794,0,5v13c0,2.757,2.243,5,5,5h14c2.757,0,5-2.243,5-5v-10c0-2.431-1.746-4.458-4.049-4.904ZM2,5c0-1.103.897-2,2-2h1.382l.724,1.447c.169.339.516.553.895.553h12c1.302,0,2.402.839,2.816,2H2v-2Zm20,13c0,1.654-1.346,3-3,3H5c-1.654,0-3-1.346-3-3v-9h20v9Z"/>
</svg>
