<?xml version="1.0" encoding="UTF-8"?>
<svg xmlns="http://www.w3.org/2000/svg" id="Layer_1" data-name="Layer 1" viewBox="0 0 24 24">
  <path d="m22.294,9.412c-.187-.192-.442-.301-.71-.303-.281-.008-.524.104-.714.293l-6.719,6.719c-1.131,1.129-3.114,1.129-4.243,0l-6.767-6.768c-.188-.188-.442-.293-.707-.293h-.005c-.267.001-.522.109-.709.3C.611,10.493,0,11.983,0,13.559v5.441c0,2.757,2.243,5,5,5h14c2.757,0,5-2.243,5-5v-5.408c0-1.565-.606-3.049-1.706-4.18Zm-.294,9.588c0,1.654-1.346,3-3,3H5c-1.654,0-3-1.346-3-3v-5.441c0-.706.185-1.386.531-1.986l5.963,5.964c.943.941,2.199,1.46,3.536,1.46s2.593-.52,3.535-1.462l5.912-5.912c.341.596.523,1.271.523,1.968v5.408ZM6,9h2.655l2.281,1.883c.623.515,1.524.517,2.15.006l2.314-1.889h2.6c1.657,0,3-1.343,3-3v-3c0-1.657-1.343-3-3-3H6c-1.657,0-3,1.343-3,3v3c0,1.657,1.343,3,3,3ZM15.601,3.766c-.312-.312-.312-.819,0-1.131s.818-.313,1.131,0l.735.735.735-.735c.312-.312.818-.312,1.131,0s.312.819,0,1.131l-.734.734.734.734c.312.312.312.819,0,1.131-.156.156-.36.234-.565.234s-.409-.078-.565-.234l-.735-.735-.735.735c-.156.156-.36.234-.565.234s-.409-.078-.565-.234c-.312-.312-.312-.819,0-1.131l.734-.734-.734-.734Zm-5.53,0c-.312-.312-.312-.819,0-1.132.312-.312.818-.312,1.131,0l.734.734.734-.734c.312-.312.818-.312,1.131,0,.312.312.312.819,0,1.132l-.734.734.734.734c.312.312.312.819,0,1.132-.156.156-.36.234-.565.234s-.409-.078-.565-.234l-.734-.734-.734.734c-.156.156-.36.234-.565.234s-.409-.078-.565-.234c-.312-.312-.312-.819,0-1.132l.734-.734-.734-.734Zm-5.495,0c-.312-.312-.312-.819,0-1.132.312-.312.818-.312,1.131,0l.734.734.734-.734c.312-.312.818-.312,1.131,0,.312.312.312.819,0,1.132l-.734.734.734.734c.312.312.312.819,0,1.132-.156.156-.36.234-.565.234s-.409-.078-.565-.234l-.734-.734-.734.734c-.156.156-.36.234-.565.234s-.409-.078-.565-.234c-.312-.312-.312-.819,0-1.132l.734-.734-.734-.734Z"/>
</svg>
