<?xml version="1.0" encoding="UTF-8"?>
<svg xmlns="http://www.w3.org/2000/svg" id="Layer_1" data-name="Layer 1" viewBox="0 0 24 24">
  <path d="m20.943,1.714c-.671-.572-1.56-.817-2.439-.674-.351.057-.68.181-.978.356-.533-.837-1.463-1.396-2.526-1.396-.771,0-1.468.301-2,.78-.532-.48-1.229-.78-2-.78-1.065,0-1.997.562-2.529,1.401-.437-.248-.934-.401-1.471-.401-1.654,0-3,1.346-3,3v2.737l-1.452,1.421c-1.024,1.021-1.589,2.38-1.59,3.826-.001,1.447.562,2.806,1.613,3.857l4.107,3.798c.205.189.322.457.322.735v2.625c0,.553.448,1,1,1s1-.447,1-1v-2.625c0-.833-.351-1.636-.963-2.203l-4.08-3.771c-.645-.645-1-1.502-.999-2.414,0-.911.356-1.768.996-2.405l2.252-2.205c.39-.389,1.023-.389,1.413,0,.189.189.293.44.293.708s-.104.519-.288.701l-2.367,2.321c-.395.387-.4,1.02-.014,1.414.386.394,1.019.4,1.414.014l2.373-2.327c.568-.566.881-1.32.881-2.122,0-.104-.019-.205-.03-.307.346.14.722.221,1.118.221.771,0,1.468-.301,2-.78.532.48,1.229.78,2,.78s1.468-.301,2-.78c.532.48,1.229.78,2,.78.351,0,.687-.061,1-.171v5.156c0,1.146-.3,2.275-.868,3.27-.74,1.295-1.132,2.77-1.132,4.262v2.484c0,.553.448,1,1,1s1-.447,1-1v-2.484c0-1.146.3-2.275.868-3.27.74-1.295,1.132-2.77,1.132-4.262V4c0-.881-.385-1.714-1.057-2.286Zm-12.943,3.578c-.642-.249-1.348-.26-2-.053v-1.24c0-.551.449-1,1-1s1,.449,1,1v1.293Zm4-.293c0,.551-.449,1-1,1s-1-.449-1-1v-2c0-.551.449-1,1-1s1,.449,1,1v2Zm4,0c0,.551-.449,1-1,1s-1-.449-1-1v-2c0-.551.449-1,1-1s1,.449,1,1v2Zm4,0c0,.551-.449,1-1,1s-1-.449-1-1l-.019-.971c-.011-.565.444-1.029,1.009-1.029.557,0,1.009.452,1.009,1.009v.991Z"/>
</svg>
