<?xml version="1.0" encoding="UTF-8"?>
<svg xmlns="http://www.w3.org/2000/svg" id="Layer_1" data-name="Layer 1" viewBox="0 0 24 24">
  <path d="m17.844,15.873l-2.804-9.872.861-3.02c.227-.689.109-1.453-.317-2.041-.426-.588-1.113-.939-1.839-.939h-3.488c-.726,0-1.414.351-1.839.939-.426.588-.544,1.351-.329,2.002l.872,3.058-2.791,9.829c-.501,1.502-.068,3.16,1.104,4.225l4.054,3.686c.191.173.432.26.673.26s.482-.087.673-.26l4.054-3.685c1.172-1.065,1.605-2.723,1.117-4.182ZM10.037,2.112c.037-.051.104-.112.219-.112h3.488c.114,0,.182.061.219.112.037.051.074.134.026.281l-.744,2.607h-2.491l-.755-2.645c-.036-.109,0-.192.038-.243Zm5.344,16.463l-3.381,3.074-3.382-3.074c-.585-.532-.802-1.361-.538-2.155l2.675-9.419h2.489l2.689,9.462c.25.751.034,1.58-.552,2.112Z"/>
</svg>
