<?xml version="1.0" encoding="UTF-8"?>
<svg xmlns="http://www.w3.org/2000/svg" id="Layer_1" data-name="Layer 1" viewBox="0 0 24 24">
  <path d="m19,0h-2c-.553,0-1,.447-1,1s.447,1,1,1h2c1.654,0,3,1.346,3,3v7.727c-.302.176-.645.273-1,.273-.889,0-1.793-.586-2.058-1.333-.141-.4-.519-.667-.942-.667s-.802.267-.942.667c-.265.747-1.169,1.333-2.058,1.333s-1.793-.586-2.057-1.333c-.141-.399-.519-.667-.943-.667s-.802.268-.943.667c-.264.747-1.167,1.333-2.057,1.333s-1.793-.586-2.057-1.333c-.141-.399-.519-.667-.943-.667s-.802.268-.943.667c-.264.747-1.167,1.333-2.057,1.333-.355,0-.698-.097-1-.273v-7.727c0-1.654,1.346-3,3-3h2c.552,0,1-.447,1-1s-.448-1-1-1h-2C2.243,0,0,2.243,0,5v14c0,2.757,2.243,5,5,5h14c2.757,0,5-2.243,5-5V5c0-2.757-2.243-5-5-5Zm0,22H5c-1.654,0-3-1.346-3-3v-4.143c.325.084.658.143,1,.143,1.127,0,2.222-.472,3-1.225.778.753,1.873,1.225,3,1.225s2.222-.472,3-1.225c.778.753,1.872,1.225,3,1.225s2.222-.472,3-1.226c.778.754,1.872,1.226,3,1.226.342,0,.675-.059,1-.143v4.143c0,1.654-1.346,3-3,3Zm-7-13c.935,0,1.813-.364,2.475-1.025,1.364-1.364,1.364-3.585.039-4.908l-1.338-1.499c-.597-.672-1.755-.671-2.352,0l-1.3,1.459c-1.364,1.364-1.364,3.585,0,4.949.661.661,1.54,1.025,2.475,1.025Z"/>
</svg>
