<?xml version="1.0" encoding="UTF-8"?>
<svg xmlns="http://www.w3.org/2000/svg" id="Layer_1" data-name="Layer 1" viewBox="0 0 24 24">
  <path d="m6.686,17c.404,0,.845-.05,1.311-.152,1.867-.412,3.899-1.609,5.575-3.283,1.52-1.519,2.635-3.311,3.139-5.045.49-1.684.35-3.122-.375-3.846-.648-.648-1.878-.834-3.32-.519-1.868.412-3.9,1.608-5.575,3.283-1.52,1.519-2.635,3.311-3.14,5.045-.49,1.684-.35,3.121.374,3.845.444.443,1.146.672,2.012.672Zm2.168-8.148c1.413-1.412,3.086-2.412,4.591-2.744.317-.07.624-.106.888-.106.381,0,.55.065.572.067.31.468.06,3.278-2.747,6.082-1.413,1.412-3.087,2.413-4.591,2.745-.953.208-1.419.057-1.461.039-.31-.468-.059-3.278,2.748-6.082Zm11.526-5.947s-1.478-1.439-1.596-1.488C15.415-1.353,9.365,0,4.682,4.682.018,9.346-1.343,15.367,1.38,18.743c.049.121,1.523,1.637,1.523,1.637,2.409,2.41,5.573,3.614,8.738,3.614s6.329-1.205,8.738-3.614c2.335-2.334,3.62-5.438,3.62-8.738s-1.285-6.404-3.62-8.738Zm-14.284,3.192c2.619-2.619,5.853-4.085,8.432-4.085,1.317,0,2.465.383,3.272,1.19,2.387,2.388,1.061,7.747-2.896,11.704-3.957,3.956-9.314,5.283-11.704,2.895-2.387-2.388-1.061-7.747,2.896-11.704Zm12.87,12.871c-3.184,3.184-7.937,3.846-11.787,2.01,2.949-.213,6.295-1.814,9.14-4.658s4.451-6.187,4.666-9.133c.657,1.376,1.015,2.887,1.015,4.456,0,2.767-1.077,5.368-3.034,7.324Z"/>
</svg>
