<?xml version="1.0" encoding="UTF-8"?>
<svg xmlns="http://www.w3.org/2000/svg" id="Layer_1" data-name="Layer 1" viewBox="0 0 24 24">
  <path d="m15.011,19c0,.553-.447,1-1,1h-3.26c-.726,0-1.362-.437-1.622-1.111-.263-.682-.08-1.441.464-1.934.228-.205.509-.434.815-.682,1.153-.933,2.732-2.209,2.591-3.479-.049-.445-.483-.794-.988-.794-.552,0-1,.448-1,1s-.447,1-1,1-1-.447-1-1c0-1.654,1.346-3,3-3,1.534,0,2.813,1.106,2.977,2.573.262,2.358-1.895,4.102-3.321,5.256-.072.058-.143.115-.212.171h2.557c.553,0,1,.447,1,1ZM22.305,2.869l-3.242,6.57c1.209,1.532,1.937,3.461,1.937,5.561,0,4.963-4.037,9-9,9S3,19.963,3,15c0-2.107.733-4.043,1.951-5.579L1.718,2.869c-.307-.621-.271-1.342.095-1.93.365-.589.997-.939,1.689-.939h3.009c1.534,0,2.909.854,3.588,2.23l1.86,3.772c.014,0,.027-.002.041-.002.021,0,.041.003.062.003l1.861-3.773c.679-1.376,2.054-2.23,3.587-2.23h3.01c.692,0,1.324.351,1.689.939.366.588.401,1.309.095,1.93ZM3.502,2l2.942,5.934c.992-.782,2.152-1.356,3.416-1.666l-1.555-3.153c-.34-.688-1.026-1.115-1.794-1.115h-3.009Zm15.498,13c0-3.859-3.141-7-7-7-.199,0-.395.013-.59.03,0,0,0,0,0,0-3.583.302-6.409,3.31-6.409,6.97,0,3.859,3.141,7,7,7s7-3.141,7-7Zm1.512-13.016l-3.001.016c-.767,0-1.454.428-1.794,1.115l-1.558,3.157c1.263.313,2.421.888,3.412,1.672l2.941-5.96Z"/>
</svg>
