<?xml version="1.0" encoding="UTF-8"?>
<svg xmlns="http://www.w3.org/2000/svg" id="Layer_1" data-name="Layer 1" viewBox="0 0 24 24">
  <path d="m12,2h-.171c-.413-1.164-1.525-2-2.829-2h-2c-1.304,0-2.416.836-2.829,2h-.171C1.794,2,0,3.794,0,6v13c0,2.757,2.243,5,5,5h6c2.757,0,5-2.243,5-5V6c0-2.206-1.794-4-4-4Zm2,17c0,1.654-1.346,3-3,3h-6c-1.654,0-3-1.346-3-3V6c0-1.103.897-2,2-2h1c.553,0,1-.447,1-1s.448-1,1-1h2c.552,0,1,.448,1,1s.447,1,1,1h1c1.103,0,2,.897,2,2v13ZM21,0c-1.654,0-3,1.346-3,3v16.343c0,1.336.521,2.592,1.465,3.536l.828.828c.195.195.451.293.707.293s.512-.098.707-.293l.828-.828c.944-.944,1.465-2.2,1.465-3.536V3c0-1.654-1.346-3-3-3Zm1,19.343c0,.802-.313,1.556-.879,2.122l-.121.121-.121-.121c-.566-.566-.879-1.32-.879-2.122V3c0-.552.448-1,1-1s1,.448,1,1v16.343ZM9.727,6.793c.391.391.391,1.023,0,1.414l-2.179,2.179c-.409.409-.946.613-1.483.613s-1.074-.204-1.483-.613l-1.288-1.289c-.391-.391-.391-1.024,0-1.414.391-.391,1.023-.391,1.414,0l1.288,1.289c.033.033.105.033.139,0l2.179-2.179c.391-.391,1.023-.391,1.414,0Zm0,6c.391.391.391,1.023,0,1.414l-2.179,2.179c-.409.409-.946.613-1.483.613s-1.074-.204-1.483-.613l-1.288-1.289c-.391-.391-.391-1.024,0-1.414.391-.391,1.023-.391,1.414,0l1.288,1.289c.033.033.105.033.139,0l2.179-2.179c.391-.391,1.023-.391,1.414,0Z"/>
</svg>
