<?xml version="1.0" encoding="UTF-8"?>
<svg xmlns="http://www.w3.org/2000/svg" id="Layer_1" data-name="Layer 1" viewBox="0 0 24 24">
  <path d="m12,14c-1.105,0-2-.895-2-2,0-.178.031-.347.074-.512l-3.781-3.781c-.391-.391-.391-1.023,0-1.414s1.023-.391,1.414,0l3.781,3.781c.164-.044.334-.074.512-.074,1.105,0,2,.895,2,2s-.895,2-2,2Zm7.996-10.948C17.453.778,14.028-.309,10.617.077,5.208.685.785,5.041.099,10.437c-.477,3.758.783,7.432,3.456,10.079.576.57,1.339.858,2.104.858.701,0,1.404-.242,1.969-.729l1.026-.888c.417-.361.463-.993.102-1.411s-.993-.462-1.411-.103l-1.026.889c-.396.341-.991.324-1.357-.038-2.228-2.206-3.277-5.27-2.879-8.405C2.654,6.197,6.336,2.57,10.839,2.065c2.896-.33,5.673.555,7.823,2.478,2.121,1.896,3.337,4.614,3.337,7.457,0,1.089-.174,2.16-.517,3.183-.175.523.107,1.09.63,1.266.524.175,1.091-.105,1.266-.631.412-1.228.62-2.512.62-3.817,0-3.411-1.459-6.673-4.004-8.948Zm2.949,18.605c.606,1.039-.143,2.343-1.346,2.343h-9.198c-1.203,0-1.952-1.305-1.346-2.343l4.599-7.884c.601-1.031,2.091-1.031,2.692,0l4.599,7.884Zm-4.945.343c0-.552-.448-1-1-1s-1,.448-1,1,.448,1,1,1,1-.448,1-1Zm0-5c0-.552-.448-1-1-1s-1,.448-1,1v2c0,.552.448,1,1,1s1-.448,1-1v-2Z"/>
</svg>
