<?xml version="1.0" encoding="UTF-8"?>
<svg xmlns="http://www.w3.org/2000/svg" id="Layer_1" data-name="Layer 1" viewBox="0 0 24 24">
  <path d="m15.054,2.5c0-1.381,1.119-2.5,2.5-2.5s2.5,1.119,2.5,2.5-1.119,2.5-2.5,2.5-2.5-1.119-2.5-2.5Zm-7.054,12.5h-4c-1.103,0-2-.897-2-2v-5.338c0-.929.419-1.79,1.151-2.362l3.324-2.601c1.062-.831,2.503-.933,3.621-.287l1.418.926c.463.301,1.082.172,1.384-.291.302-.462.172-1.082-.291-1.384l-1.464-.955c-1.878-1.084-4.194-.921-5.901.415L1.918,3.724c-1.219.955-1.918,2.39-1.918,3.938v5.338c0,2.206,1.794,4,4,4h4c.552,0,1-.448,1-1s-.448-1-1-1Zm-3-6c-.552,0-1,.448-1,1v1c0,.552.448,1,1,1h1c.552,0,1-.448,1-1v-1c0-.552-.448-1-1-1h-1Zm18.838,5.046c-.302.463-.919.595-1.384.292l-2.399-1.564v3.867l.654.432c.843.558,1.346,1.493,1.346,2.502v3.425c0,.552-.448,1-1,1s-1-.448-1-1v-3.425c0-.336-.168-.648-.449-.834l-4.25-2.81c-.824-.576-1.302-1.495-1.302-2.473v-3.798l-1.564,1.069c-.272.187-.436.495-.436.826v2.444c0,.552-.448,1-1,1s-1-.448-1-1v-2.444c0-.992.489-1.918,1.308-2.477l3.241-2.215c.301-.273,1.105-.847,2.547-.847,1.227,0,2.464.875,2.843,2.001.012.034.699,2.488.699,2.488.065.233.214.436.417.568l2.438,1.589c.462.302.593.921.292,1.384Zm-5.784-5.498c-.146-.266-.57-.532-.904-.532-.599,0-.941.153-1.096.248v5.193c0,.326.16.632.427.82l1.573,1.04v-6.769Zm1.992,8.086s0-.002,0,0h0Zm-4.472,1.441c-.51-.208-1.095.035-1.305.546l-1.641,4c-.209.511.035,1.095.546,1.305.124.051.252.075.379.075.394,0,.767-.234.926-.621l1.641-4c.209-.511-.035-1.095-.546-1.305Z"/>
</svg>
