<?xml version="1.0" encoding="UTF-8"?>
<svg xmlns="http://www.w3.org/2000/svg" id="Layer_1" data-name="Layer 1" viewBox="0 0 24 24">
  <path d="m19,2h-1v-1c0-.552-.448-1-1-1s-1,.448-1,1v1h-8v-1c0-.552-.448-1-1-1s-1,.448-1,1v1h-1C2.243,2,0,4.243,0,7v5c0,.552.448,1,1,1s1-.448,1-1v-2h20v9c0,1.654-1.346,3-3,3H5c-1.37,0-2.564-.925-2.906-2.25-.138-.535-.685-.857-1.218-.719-.535.138-.856.683-.719,1.218.569,2.208,2.56,3.75,4.842,3.75h14c2.757,0,5-2.243,5-5V7c0-2.757-2.243-5-5-5ZM2,8v-1c0-1.654,1.346-3,3-3h14c1.654,0,3,1.346,3,3v1H2Zm-1,7h6.948l-1.571-1.571c-.391-.391-.391-1.023,0-1.414s1.023-.391,1.414,0l2.659,2.659c.731.731.731,1.92,0,2.651l-2.659,2.659c-.195.195-.451.293-.707.293s-.512-.098-.707-.293c-.391-.391-.391-1.023,0-1.414l1.571-1.571H1c-.552,0-1-.448-1-1s.448-1,1-1Z"/>
</svg>
