<?xml version="1.0" encoding="UTF-8"?>
<svg xmlns="http://www.w3.org/2000/svg" id="Layer_1" data-name="Layer 1" viewBox="0 0 24 24">
  <path d="m1,15.5c0,1.93,1.57,3.5,3.5,3.5s3.5-1.57,3.5-3.5-1.57-3.5-3.5-3.5-3.5,1.57-3.5,3.5Zm5,0c0,.827-.673,1.5-1.5,1.5s-1.5-.673-1.5-1.5.673-1.5,1.5-1.5,1.5.673,1.5,1.5Zm13.5-3.5c-1.93,0-3.5,1.57-3.5,3.5s1.57,3.5,3.5,3.5,3.5-1.57,3.5-3.5-1.57-3.5-3.5-3.5Zm0,5c-.827,0-1.5-.673-1.5-1.5s.673-1.5,1.5-1.5,1.5.673,1.5,1.5-.673,1.5-1.5,1.5Zm-5.5,6c0,.552-.447,1-1,1h-2c-.553,0-1-.448-1-1s.447-1,1-1h2c.553,0,1,.448,1,1ZM1,11c.553,0,1-.448,1-1h20c0,.552.447,1,1,1s1-.448,1-1v-3c0-2.757-2.243-5-5-5h-1v-1c0-.552-.447-1-1-1s-1,.448-1,1v1h-8v-1c0-.552-.447-1-1-1s-1,.448-1,1v1h-1C2.243,2,0,4.243,0,7v3c0,.552.447,1,1,1Zm4-7h14c1.654,0,3,1.346,3,3v1H2v-1c0-1.654,1.346-3,3-3Zm3.885,18.535c.258.489.069,1.093-.419,1.351-.148.078-.308.115-.465.115-.359,0-.707-.194-.886-.535-.469-.89-1.495-1.465-2.615-1.465s-2.146.575-2.615,1.465c-.257.489-.862.676-1.351.42-.488-.257-.677-.862-.419-1.351.822-1.563,2.502-2.535,4.385-2.535s3.562.971,4.385,2.535Zm14.581,1.351c-.148.078-.308.115-.465.115-.359,0-.707-.194-.886-.535-.469-.89-1.495-1.465-2.615-1.465s-2.146.575-2.615,1.465c-.257.489-.863.676-1.351.42-.488-.257-.677-.862-.419-1.351.822-1.563,2.502-2.535,4.385-2.535s3.562.971,4.385,2.535c.258.489.069,1.093-.419,1.351Z"/>
</svg>
