<?xml version="1.0" encoding="UTF-8"?>
<svg xmlns="http://www.w3.org/2000/svg" id="Layer_1" data-name="Layer 1" viewBox="0 0 24 24">
  <path d="m22.576,12.52L13.849,3.85c-.842-.835-2.046-1.243-3.221-1.09l-5.803.651L1.707.293C1.316-.098.684-.098.293.293S-.098,1.316.293,1.707l3.118,3.118-.696,6.088c-.091,1.142.323,2.258,1.136,3.062l8.713,8.645c.91.906,2.118,1.404,3.4,1.404h.02c1.29-.005,2.5-.513,3.408-1.431l3.21-3.242c1.87-1.89,1.859-4.955-.025-6.832Zm-1.396,5.426l-3.21,3.242c-.531.537-1.239.834-1.994.837h-.011c-.751,0-1.458-.292-1.992-.823L5.259,12.555c-.394-.39-.594-.93-.554-1.449l.512-4.474,1.857,1.857c-.044.164-.074.334-.074.512,0,1.105.895,2,2,2s2-.895,2-2-.895-2-2-2c-.178,0-.347.031-.512.074l-1.854-1.854,4.226-.474.021-.003c.568-.075,1.151.122,1.559.525l8.726,8.668c1.105,1.102,1.112,2.899.015,4.009Zm-3.974-5.151c-.391-.391-1.023-.391-1.414,0l-3,3c-.391.391-.391,1.023,0,1.414l2.5,2.5c.195.195.451.293.707.293s.512-.098.707-.293l3-3c.391-.391.391-1.023,0-1.414l-2.5-2.5Zm-1.207,4.793l-1.086-1.086,1.586-1.586,1.086,1.086-1.586,1.586Z"/>
</svg>
