<?xml version="1.0" encoding="UTF-8"?>
<svg xmlns="http://www.w3.org/2000/svg" id="Layer_1" data-name="Layer 1" viewBox="0 0 24 24">
  <path d="m19,5h-2.077c-.24-1.367-1.038-2.578-2.236-3.343-.467-.298-1.084-.161-1.381.305s-.161,1.084.305,1.381c.869.555,1.389,1.501,1.389,2.531v11.126H4c-1.103,0-2-.897-2-2v-1c0-.552-.447-1-1-1s-1,.448-1,1v1c0,1.88,1.304,3.461,3.055,3.887-.036.201-.055.406-.055.613,0,1.93,1.57,3.5,3.5,3.5s3.5-1.57,3.5-3.5c0-.169-.013-.335-.037-.5h4.074c-.024.165-.037.331-.037.5,0,1.93,1.57,3.5,3.5,3.5s3.5-1.57,3.5-3.5c0-.207-.019-.412-.055-.613,1.751-.426,3.055-2.007,3.055-3.887v-5c0-2.757-2.243-5-5-5ZM6.5,21c-.827,0-1.5-.673-1.5-1.5,0-.189.037-.356.091-.5h2.819c.054.144.091.311.091.5,0,.827-.673,1.5-1.5,1.5Zm11,0c-.827,0-1.5-.673-1.5-1.5,0-.189.037-.356.091-.5h2.819c.054.144.091.311.091.5,0,.827-.673,1.5-1.5,1.5Zm4.5-6c0,1.103-.897,2-2,2h-3v-4h5v2Zm0-4h-5v-4h2c1.654,0,3,1.346,3,3v1ZM5.293,6.707c-.188-.188-.293-.442-.293-.707v-2c0-.552.447-1,1-1s1,.448,1,1v1.586l.707.707c.391.391.391,1.023,0,1.414-.195.195-.451.293-.707.293s-.512-.098-.707-.293l-1-1Zm.707,5.293c3.309,0,6-2.691,6-6S9.309,0,6,0,0,2.691,0,6s2.691,6,6,6Zm0-10c2.206,0,4,1.794,4,4s-1.794,4-4,4-4-1.794-4-4S3.794,2,6,2Z"/>
</svg>
