<?xml version="1.0" encoding="UTF-8"?>
<svg xmlns="http://www.w3.org/2000/svg" id="Layer_1" data-name="Layer 1" viewBox="0 0 24 24">
  <path d="m3.089,19.583c.169,1.146.586,2.219,1.229,3.157-2.493-.79-4.319-3.288-4.319-6.24,0-1.023.214-2.002.635-2.91.625-1.348.625-2.833,0-4.181-.421-.907-.635-1.886-.635-2.909C0,2.916,2.691,0,6,0c3.143,0,5.729,2.632,5.98,5.968-.712.811-1.26,1.729-1.628,2.736-.249.68-.708,1.197-1.335,1.512.107-.559.285-1.111.534-1.648.298-.642.449-1.338.449-2.068,0-2.481-1.794-4.5-4-4.5S2,4.019,2,6.5c0,.73.151,1.426.449,2.067.876,1.892.876,3.974,0,5.864-.298.643-.449,1.338-.449,2.068,0,1.192.414,2.277,1.089,3.083Zm18.955-4.376c-.703.703-1.522,1.229-2.436,1.563-1.339.49-2.348,1.499-2.839,2.838-.334.913-.859,1.732-1.562,2.436-1.296,1.296-2.978,1.952-4.61,1.952-1.472,0-2.904-.532-3.982-1.61-2.275-2.274-2.122-6.13.342-8.593.703-.703,1.522-1.229,2.436-1.563,1.34-.491,2.348-1.5,2.838-2.838.334-.913.86-1.733,1.563-2.436,1.181-1.18,2.715-1.873,4.32-1.949,1.632-.072,3.158.493,4.272,1.608,2.274,2.274,2.121,6.129-.342,8.592Zm-1.072-7.178c-.667-.667-1.572-1.029-2.566-1.029-.065,0-.131.001-.197.005-1.106.053-2.173.538-3.001,1.366-.496.496-.865,1.07-1.099,1.708-.696,1.901-2.127,3.331-4.028,4.028-.64.234-1.214.604-1.71,1.1-1.684,1.684-1.837,4.27-.342,5.765,1.497,1.496,4.082,1.34,5.765-.342.496-.496.865-1.07,1.099-1.709h0c.696-1.901,2.127-3.332,4.028-4.028.639-.234,1.213-.604,1.709-1.1,1.683-1.684,1.837-4.27.342-5.764Zm-6.472,4.971c-.828,0-1.5.672-1.5,1.5s.672,1.5,1.5,1.5,1.5-.672,1.5-1.5-.672-1.5-1.5-1.5Zm-3,4c-.828,0-1.5.672-1.5,1.5s.672,1.5,1.5,1.5,1.5-.672,1.5-1.5-.672-1.5-1.5-1.5Z"/>
</svg>
