<?xml version="1.0" encoding="UTF-8"?>
<svg xmlns="http://www.w3.org/2000/svg" id="Layer_1" data-name="Layer 1" viewBox="0 0 24 24">
  <path d="m14.988,12.726c.158,1.78-1.24,3.274-2.988,3.274h-3.978c-.691,0-1.181-.666-.975-1.325.502-1.609,1.936-4.165,4.24-4.608,1.755-.338,3.542.879,3.7,2.659Zm8.012-3.726c-.553,0-1,.447-1,1v5c0,1.654-1.346,3-3,3H5c-1.654,0-3-1.346-3-3V7c0-1.654,1.346-3,3-3h8c.553,0,1-.447,1-1s-.447-1-1-1H5C2.243,2,0,4.243,0,7v8c0,2.757,2.243,5,5,5h6v2h-3c-.552,0-1,.447-1,1s.448,1,1,1h8c.553,0,1-.447,1-1s-.447-1-1-1h-3v-2h6c2.757,0,5-2.243,5-5v-5c0-.553-.447-1-1-1Zm-9.414-.315c.007.003.015.006.022.01.384.168.83.059,1.109-.254l5.641-6.13c.348-.389.946-.422,1.334-.074.013.012.025.023.038.036.369.368.369.965.001,1.334,0,0,0,0-.001.001l-5.844,5.686c-.331.331-.378.844-.123,1.237.004.006.008.012.011.017.339.529,1.078.606,1.522.162l5.844-5.685c1.148-1.15,1.148-3.013,0-4.163-1.149-1.15-3.012-1.151-4.162-.002-.039.039-5.761,6.256-5.761,6.256-.455.511-.258,1.298.37,1.569Z"/>
</svg>
