<?xml version="1.0" encoding="UTF-8"?>
<svg xmlns="http://www.w3.org/2000/svg" id="Layer_1" data-name="Layer 1" viewBox="0 0 24 24">
  <path d="m21.773,3.98l-1.137-.758-1.765-1.765C17.941.527,16.653-.006,15.338-.006h-.005L8.646-.001c-1.319,0-2.608.538-3.539,1.472l-1.745,1.753-1.136.757c-1.394.929-2.227,2.484-2.227,4.16v10.859c0,2.757,2.243,5,5,5h1c.552,0,1-.448,1-1s-.448-1-1-1h-1c-1.654,0-3-1.346-3-3v-10.859c0-1.005.5-1.938,1.336-2.496l.537-.358,5.89,5.89-1.647,7.338c-.299,1.047-.007,2.176.729,2.91l1.777,1.964c.352.389.854.612,1.378.612h.001c.523,0,1.026-.222,1.378-.61l1.707-1.884c.745-.721,1.068-1.797.841-2.812l-1.689-7.519,5.889-5.889.537.358c.836.558,1.336,1.491,1.336,2.496v10.859c0,1.654-1.346,3-3,3h-1c-.552,0-1,.448-1,1s.448,1,1,1h1c2.757,0,5-2.243,5-5v-10.859c0-1.676-.833-3.231-2.227-4.16Zm-7.182-1.986l-2.592,2.592-2.588-2.588,5.18-.004Zm-8.067.888c.159-.16.335-.3.524-.418l3.807,3.807-.793,2.379L5.413,3.999l1.112-1.117Zm7.125,17.233l-1.649,1.817-1.708-1.886c-.257-.257-.354-.633-.24-1.038l1.947-8.672,1.976,8.795c.076.337-.032.696-.326.983Zm.287-11.466l-.793-2.379,3.805-3.805c.183.117.354.253.509.407l1.128,1.128-4.649,4.649Z"/>
</svg>
