<?xml version="1.0" encoding="UTF-8"?>
<svg xmlns="http://www.w3.org/2000/svg" id="Layer_1" data-name="Layer 1" viewBox="0 0 24 24">
  <path d="m21,13h-2.159l-5.011-3.854c-.256-.197-.537-.347-.83-.451V1c0-.553-.448-1-1-1s-1,.447-1,1v7.696c-.293.104-.573.253-.83.451l-5.011,3.854h-2.159c-1.654,0-3,1.346-3,3v7c0,.553.448,1,1,1s1-.447,1-1v-7c0-.552.449-1,1-1h2.159l5.011,3.854c.539.415,1.184.623,1.83.623s1.291-.208,1.829-.622l5.012-3.854h2.159c.551,0,1,.448,1,1v7c0,.553.448,1,1,1s1-.447,1-1v-7c0-1.654-1.346-3-3-3Zm-8.391,4.27c-.358.275-.859.276-1.218,0l-4.25-3.269,4.25-3.269s0,0,0,0c.358-.275.859-.276,1.218,0l4.25,3.269-4.251,3.27Zm11.098-8.977c.391.391.391,1.023,0,1.414-.195.195-.451.293-.707.293s-.512-.098-.707-.293l-1.793-1.793-1.793,1.793c-.195.195-.451.293-.707.293s-.512-.098-.707-.293c-.391-.391-.391-1.023,0-1.414l1.793-1.793-1.793-1.793c-.391-.391-.391-1.023,0-1.414s1.023-.391,1.414,0l1.793,1.793,1.793-1.793c.391-.391,1.023-.391,1.414,0s.391,1.023,0,1.414l-1.793,1.793,1.793,1.793ZM.293,6.909c-.391-.391-.391-1.023,0-1.414s1.023-.391,1.414,0l1.358,1.358c.127.128.276.146.354.146.077,0,.226-.019.354-.146l3.016-3.056c.388-.393,1.021-.398,1.415-.01.393.388.397,1.021.009,1.414l-3.021,3.061c-.477.478-1.105.737-1.772.737s-1.296-.26-1.768-.732l-1.358-1.358Z"/>
</svg>
