<?xml version="1.0" encoding="UTF-8"?>
<svg xmlns="http://www.w3.org/2000/svg" id="Layer_1" data-name="Layer 1" viewBox="0 0 24 24">
  <path d="m12.373,11.58c.284.467.627,1.097.627,1.42,0,.552-.448,1-1,1s-1-.448-1-1c0-.323.343-.953.627-1.42.17-.28.576-.28.746,0Zm0-5.159c.284-.467.627-1.097.627-1.42,0-.552-.448-1-1-1s-1,.448-1,1c0,.323.343.953.627,1.42.17.28.576.28.746,0Zm-7.373,3.58c.323,0,.953-.343,1.42-.627.28-.17.28-.576,0-.746-.467-.284-1.097-.627-1.42-.627-.552,0-1,.448-1,1s.448,1,1,1Zm12.58-.627c.467.284,1.097.627,1.42.627.552,0,1-.448,1-1s-.448-1-1-1c-.323,0-.953.343-1.42.627-.28.17-.28.576,0,.746Zm-1.9-2.136c.536-.107,1.232-.282,1.469-.501.406-.374.432-1.007.058-1.413-.374-.406-1.007-.432-1.413-.058-.238.219-.469.898-.62,1.423-.09.315.185.613.506.549Zm-7.387,0c.321.064.596-.234.506-.549-.151-.525-.382-1.204-.62-1.423-.406-.374-1.039-.348-1.413.058-.374.406-.348,1.039.058,1.413.238.219.933.394,1.469.501Zm7.416,3.526c-.321-.064-.596.234-.506.549.151.525.382,1.204.62,1.423.406.374,1.039.348,1.413-.058.374-.406.348-1.039-.058-1.413-.238-.219-.933-.394-1.469-.501Zm-7.416,0c-.536.107-1.232.282-1.469.501-.406.374-.432,1.007-.058,1.413.374.406,1.007.432,1.413.058.238-.219.469-.898.62-1.423.09-.315-.185-.613-.506-.549Zm15.708-1.763v3c0,6.617-5.383,12-12,12S0,18.617,0,12v-3C0,4.038,5.383,0,12,0s12,4.038,12,9Zm-22,0c0,3.86,4.486,7,10,7s10-3.14,10-7-4.486-7-10-7S2,5.14,2,9Zm19.738,5.238c-2.18,2.273-5.728,3.762-9.738,3.762s-7.558-1.489-9.738-3.762c1.02,4.439,4.995,7.762,9.738,7.762s8.718-3.323,9.738-7.762Zm-9.738-4.238c1.657,0,3-.448,3-1s-1.343-1-3-1-3,.448-3,1,1.343,1,3,1Z"/>
</svg>
