<?xml version="1.0" encoding="UTF-8"?>
<svg xmlns="http://www.w3.org/2000/svg" id="Layer_1" data-name="Layer 1" viewBox="0 0 24 24">
  <path d="m20.003,3.058C17.465.785,14.053-.298,10.638.075,5.126.684.684,5.126.075,10.639c-.67,6.064,3.155,11.765,8.897,13.257.27.07.542.104.813.104.701,0,1.386-.231,1.958-.674.798-.617,1.256-1.549,1.256-2.557v-2.87c2.279-.465,4-2.485,4-4.899v-1c.553,0,1-.447,1-1s-.447-1-1-1h-2v-3c0-.553-.447-1-1-1s-1,.447-1,1v3h-2v-3c0-.553-.448-1-1-1s-1,.447-1,1v3h-2c-.552,0-1,.447-1,1s.448,1,1,1v1c0,2.414,1.721,4.435,4,4.899v2.87c0,.384-.175.738-.479.974-.301.232-.681.311-1.045.217-4.709-1.225-7.965-6.101-7.412-11.103C2.57,6.269,6.269,2.57,10.857,2.063c2.891-.316,5.665.562,7.812,2.484,2.117,1.896,3.331,4.612,3.331,7.452,0,4.151-2.498,7.81-6.363,9.318-.515.201-.77.781-.568,1.295.201.516.781.77,1.295.568,4.64-1.811,7.637-6.2,7.637-11.182,0-3.408-1.457-6.667-3.997-8.942Zm-11.003,9.942v-1h6v1c0,1.654-1.346,3-3,3s-3-1.346-3-3Z"/>
</svg>
