<?xml version="1.0" encoding="UTF-8"?>
<svg xmlns="http://www.w3.org/2000/svg" id="Layer_1" data-name="Layer 1" viewBox="0 0 24 24">
  <path d="m.056,13.161c-.182-.521.094-1.092.616-1.273.2-.07.387-.17.555-.298,1.028-.782,2.52-.783,3.546,0,.707.539,1.749.539,2.455,0,1.027-.783,2.518-.782,3.545,0,.707.539,1.749.539,2.455,0,1.027-.783,2.518-.782,3.545,0,.707.539,1.749.539,2.455,0,1.027-.783,2.518-.782,3.545,0,.169.129.356.229.556.299.521.181.797.751.616,1.273-.181.521-.75.799-1.273.616-.4-.139-.774-.34-1.111-.597-.313-.238-.807-.237-1.122,0-.704.536-1.547.82-2.438.82s-1.735-.284-2.439-.82c-.314-.239-.807-.238-1.123,0-1.407,1.072-3.469,1.073-4.877,0-.314-.239-.807-.238-1.123,0-1.407,1.072-3.469,1.073-4.877,0-.314-.239-.807-.238-1.123,0-.336.256-.71.457-1.11.596-.523.182-1.092-.095-1.273-.616Zm23.944,5.339v.5c0,2.206-1.794,4-4,4H4c-2.206,0-4-1.794-4-4v-.5c0-1.378,1.122-2.5,2.5-2.5h19c1.378,0,2.5,1.122,2.5,2.5Zm-2,0c0-.276-.224-.5-.5-.5H2.5c-.276,0-.5.224-.5.5v.5c0,1.103.897,2,2,2h16c1.103,0,2-.897,2-2v-.5Zm2-12.5v.5c0,1.378-1.122,2.5-2.5,2.5H2.5c-1.378,0-2.5-1.122-2.5-2.5v-.5C0,3.794,1.794,2,4,2h16c2.206,0,4,1.794,4,4Zm-2,0c0-1.103-.897-2-2-2H4c-1.103,0-2,.897-2,2v.5c0,.276.224.5.5.5h19c.276,0,.5-.224.5-.5v-.5Z"/>
</svg>
