<?xml version="1.0" encoding="UTF-8"?>
<svg xmlns="http://www.w3.org/2000/svg" id="Layer_1" data-name="Layer 1" viewBox="0 0 24 24">
  <path d="m19,2h-1v-1c0-.553-.447-1-1-1s-1,.447-1,1v1h-8v-1c0-.553-.448-1-1-1s-1,.447-1,1v1h-1C2.243,2,0,4.243,0,7v12c0,2.757,2.243,5,5,5,.552,0,1-.447,1-1s-.448-1-1-1c-1.654,0-3-1.346-3-3v-9h20v3c0,.553.447,1,1,1s1-.447,1-1v-6c0-2.757-2.243-5-5-5Zm3,6H2v-1c0-1.654,1.346-3,3-3h14c1.654,0,3,1.346,3,3v1Zm-9.137,13.972c-.191,1.175-1.215,2.028-2.436,2.028-.664,0-1.3-.195-1.839-.552-.388-.257-.448-.802-.119-1.131.236-.235.603-.283.888-.111.316.191.688.297,1.069.297.604,0,1.031-.404,1.096-.795.089-.55-.602-.873-.816-.959-.915-.371-1.751-.78-1.753-.78-.692-.484-1.027-1.231-.921-2.049.111-.845.674-1.534,1.471-1.796.839-.277,1.603-.076,2.152.203.405.205.518.733.238,1.095l-.011.014c-.195.253-.539.347-.831.216-.308-.138-.72-.237-1.156-.096-.412.136-.517.447-.516.577.005.442.335.57.433.615.282.128.806.368,1.366.595,1.461.591,1.828,1.745,1.685,2.627Zm11.137-5.18c0,.442-.358.8-.8.8h-.95v5.601c0,.442-.358.8-.8.8s-.8-.358-.8-.8v-5.601h-.851c-.442,0-.8-.358-.8-.8s.358-.8.8-.8h3.4c.442,0,.8.358.8.8Zm-7.825-.8c-1.098,0-1.626,1.002-1.742,1.581l-1.165,5.479c-.103.484.266.939.76.939.365,0,.68-.253.759-.61l.175-.79h2.379l.165.782c.076.36.437.617.804.617.494,0,.862-.454.761-.937l-1.142-5.435c-.135-.668-.655-1.627-1.753-1.627Zm-.86,5l.686-3.104c.03-.149.105-.253.176-.296l.017.006c.024.016.121.118.168.349l.641,3.044h-1.688Z"/>
</svg>
