<?xml version="1.0" encoding="UTF-8"?>
<svg xmlns="http://www.w3.org/2000/svg" id="Layer_1" data-name="Layer 1" viewBox="0 0 24 24">
  <path d="m22.32,11.769c-.701-1.682-2.332-2.769-4.154-2.769h-4.333c-1.822,0-3.453,1.087-4.154,2.769l-.803,1.927c-.582,1.396-.876,2.869-.876,4.382,0,1.461.812,2.723,2,3.398v.524c0,1.103.897,2,2,2s2-.897,2-2h4c0,1.103.897,2,2,2s2-.897,2-2v-.524c1.188-.675,2-1.937,2-3.398,0-1.513-.295-2.986-.876-4.382l-.803-1.927Zm-10.795.77c.39-.935,1.295-1.539,2.308-1.539h4.333c1.013,0,1.918.604,2.308,1.539l.609,1.461h-10.167l.609-1.461Zm8.553,7.461h-8.157c-1.06,0-1.921-.862-1.921-1.922,0-.706.087-1.399.241-2.078h1.759v1c0,.553.448,1,1,1s1-.447,1-1v-1h4v1c0,.553.448,1,1,1s1-.447,1-1v-1h1.759c.154.679.241,1.372.241,2.078,0,1.06-.862,1.922-1.921,1.922ZM8.98,4.204l2.45-.223c.331-.03.592-.291.622-.621l.223-2.45c.035-.387.291-.718.656-.85.364-.132.773-.042,1.047.233l1.607,1.607c.26.259.711.259.971,0l1.607-1.607c.274-.275.684-.365,1.047-.233.365.132.621.463.656.85l.223,2.45c.03.33.292.591.622.621l2.451.223c.386.036.718.291.85.656.132.365.041.773-.233,1.048l-1.84,1.839c-.195.195-.451.292-.707.292s-.512-.098-.708-.293c-.39-.391-.39-1.024,0-1.415l.33-.329-.323-.029c-1.292-.118-2.315-1.141-2.433-2.433l-.029-.324-.098.098c-1.048,1.048-2.751,1.048-3.799,0l-.098-.098-.029.324c-.118,1.292-1.141,2.315-2.433,2.433l-.324.029.329.33c.391.391.391,1.024,0,1.414-.391.391-1.023.391-1.414,0l-1.838-1.839c-.274-.274-.365-.683-.233-1.047.132-.365.463-.62.85-.656Zm-1.948,9.521c.25,1.072-.419,2.15-1.493,2.401-.152.035-.304.053-.454.053-.91,0-1.734-.625-1.949-1.546l-.114-.49c-.339-.099-.667-.244-.976-.435-.89-.554-1.511-1.419-1.749-2.44-.344-1.472-.392-2.975-.143-4.466l.344-2.06c.3-1.797,1.641-3.227,3.416-3.641L8.136.118c.269-.063.543-.101.818-.114.548-.022,1.019.401,1.045.953.025.552-.401,1.02-.953,1.045-.151.007-.304.028-.456.063l-4.22.984c-.986.23-1.73,1.024-1.897,2.023l-.261,1.562,3.552-.828c.537-.127,1.076.209,1.201.747.125.538-.208,1.075-.747,1.201l-.549.128.227.974c.125.538-.208,1.075-.747,1.201-.076.018-.153.026-.228.026-.454,0-.865-.312-.973-.773l-.227-.974-1.713.4c.004.697.077,1.392.238,2.079.117.5.421.925.857,1.195.437.272.953.357,1.451.239.001,0,.002,0,.003,0l1.048-.245c.257-.061.53-.016.755.125.226.14.386.364.446.622l.227.975Z"/>
</svg>
