<?xml version="1.0" encoding="UTF-8"?>
<svg xmlns="http://www.w3.org/2000/svg" id="Layer_1" data-name="Layer 1" viewBox="0 0 24 24">
  <path d="m17.994,2.286C16.085.58,13.514-.23,10.956.059,6.905.517,3.591,3.782,3.075,7.822c-.374,2.932.644,5.76,2.792,7.76,1.376,1.279,2.133,2.901,2.133,4.567v.351c0,1.93,1.57,3.5,3.5,3.5h1c1.93,0,3.5-1.57,3.5-3.5v-.185c0-1.816.704-3.476,1.933-4.552,1.949-1.709,3.067-4.174,3.067-6.763,0-2.56-1.096-5.007-3.006-6.714Zm-3.994,18.214c0,.827-.673,1.5-1.5,1.5h-1c-.827,0-1.5-.673-1.5-1.5,0,0-.007-.45-.008-.5h4.024c-.004.105-.016.5-.016.5Zm2.614-6.241c-1.105.968-1.888,2.273-2.294,3.741h-4.642c-.421-1.43-1.248-2.765-2.448-3.881-1.671-1.556-2.463-3.758-2.171-6.043.4-3.137,2.975-5.673,6.121-6.029.278-.031.554-.047.828-.047,1.725,0,3.353.617,4.652,1.778,1.486,1.328,2.339,3.231,2.339,5.222,0,2.013-.869,3.93-2.386,5.259Zm-.282-7.755c-.274-.478-.887-.643-1.365-.367l-.568.327c-.391-.37-.87-.642-1.399-.801v-.663c0-.552-.447-1-1-1s-1,.448-1,1v.663c-.529.159-1.007.431-1.399.801l-.568-.327c-.479-.276-1.091-.111-1.365.367-.276.479-.111,1.09.367,1.366l.567.327c-.061.259-.102.526-.102.804s.041.544.102.803l-.567.326c-.479.276-.644.887-.367,1.366.185.321.521.501.867.501.169,0,.341-.043.498-.133l.569-.327c.391.37.869.642,1.398.801v.663c0,.552.447,1,1,1s1-.448,1-1v-.663c.529-.159,1.007-.431,1.398-.801l.569.327c.157.09.329.133.498.133.346,0,.683-.18.867-.501.276-.479.111-1.09-.367-1.366l-.567-.326c.061-.259.102-.526.102-.803s-.041-.544-.102-.804l.567-.327c.479-.275.644-.887.367-1.366Zm-4.332,3.996c-.827,0-1.5-.673-1.5-1.5s.673-1.5,1.5-1.5,1.5.673,1.5,1.5-.673,1.5-1.5,1.5Z"/>
</svg>
