<?xml version="1.0" encoding="UTF-8"?>
<svg xmlns="http://www.w3.org/2000/svg" id="Layer_1" data-name="Layer 1" viewBox="0 0 24 24">
  <path d="m9.553,14.397c.675.66,1.561.99,2.447.99s1.772-.33,2.447-.99l2.502-2.448c1.322-1.322,2.051-3.08,2.051-4.95s-.729-3.627-2.051-4.95c-1.321-1.322-3.079-2.05-4.949-2.05s-3.628.728-4.95,2.05c-2.729,2.729-2.729,7.17.008,9.907l2.495,2.44Zm-1.089-10.933c.944-.944,2.2-1.464,3.536-1.464s2.591.52,3.535,1.464,1.465,2.2,1.465,3.536-.521,2.591-1.457,3.528l-2.494,2.44c-.578.564-1.52.564-2.098,0l-2.487-2.432c-1.949-1.95-1.949-5.122,0-7.071Zm.536,3.526c0-1.657,1.343-3,3-3s3,1.343,3,3-1.343,3-3,3-3-1.343-3-3Zm15,9.777c0,.352-.185.677-.485.857l-9.861,5.917c-.51.306-1.082.459-1.653.459s-1.144-.153-1.653-.459L.485,17.625c-.301-.181-.485-.506-.485-.857s.185-.677.485-.857l4.229-2.537c.475-.285,1.089-.131,1.372.343.284.474.131,1.088-.343,1.372l-2.8,1.68,8.433,5.06c.385.23.863.23,1.248,0l8.433-5.06-2.8-1.68c-.474-.284-.627-.898-.343-1.372s.897-.628,1.372-.343l4.229,2.537c.301.181.485.506.485.857Z"/>
</svg>
