<?xml version="1.0" encoding="UTF-8"?>
<svg xmlns="http://www.w3.org/2000/svg" id="Layer_1" data-name="Layer 1" viewBox="0 0 24 24">
  <path d="m7,10c-3.859,0-7,3.14-7,7s3.141,7,7,7,7-3.14,7-7-3.141-7-7-7Zm0,12c-2.757,0-5-2.243-5-5s2.243-5,5-5,5,2.243,5,5-2.243,5-5,5Zm2.742-6.499c.168.168.257.393.257.621,0,.113-.021.227-.067.336-.136.328-.456.541-.812.541h-1.121v2c0,.552-.447,1-1,1s-1-.448-1-1v-2h-1.121c-.355,0-.676-.213-.812-.541-.138-.329-.062-.706.19-.958l1.5-1.5c.685-.685,1.8-.685,2.485,0l1.5,1.5ZM16.5,0c-4.275,0-7.5,1.72-7.5,4v3.5c0,.552.447,1,1,1s1-.448,1-1v-.726c1.349.763,3.283,1.226,5.5,1.226s4.151-.463,5.5-1.226v1.226c0,.796-2.193,2-5.5,2-.634,0-1.257-.045-1.853-.134-.545-.077-1.055.296-1.137.842-.081.546.296,1.055.842,1.137.693.103,1.416.155,2.147.155,2.217,0,4.151-.463,5.5-1.226v1.226c0,.796-2.193,2-5.5,2-.553,0-1,.448-1,1s.447,1,1,1c2.217,0,4.151-.463,5.5-1.226v1.226c0,.796-2.193,2-5.5,2-.553,0-1,.448-1,1s.447,1,1,1c2.217,0,4.151-.463,5.5-1.226v1.226c0,.796-2.193,2-5.5,2-.47,0-.938-.025-1.393-.074-.541-.062-1.042.337-1.102.886s.337,1.042.887,1.102c.524.057,1.065.086,1.607.086,4.275,0,7.5-1.72,7.5-4V4c0-2.28-3.225-4-7.5-4Zm0,6c-3.307,0-5.5-1.204-5.5-2s2.193-2,5.5-2,5.5,1.204,5.5,2-2.193,2-5.5,2Z"/>
</svg>
