<?xml version="1.0" encoding="UTF-8"?>
<svg xmlns="http://www.w3.org/2000/svg" id="Layer_1" data-name="Layer 1" viewBox="0 0 24 24">
  <path d="m20.5,15.121v-6.357c.392-.142.762-.361,1.076-.675l1.564-1.564c1.145-1.145,1.145-3.007,0-4.151l-1.564-1.564c-1.146-1.146-3.008-1.144-4.151,0l-1.564,1.564c-.309.309-.531.677-.675,1.076h-6.322c-.476-1.973-2.245-3.449-4.363-3.449C2.019,0,0,2.019,0,4.5c0,1.953,1.258,3.602,3,4.224v7.276h-.199c-1.544,0-2.801,1.256-2.801,2.8v2.4c0,1.544,1.257,2.8,2.801,2.8h2.399c1.544,0,2.8-1.256,2.8-2.8v-2.4c0-1.544-1.256-2.8-2.8-2.8h-.2v-7.051c1.927-.217,3.492-1.635,3.895-3.501h6.29c.144.399.366.767.675,1.076l1.564,1.564c.314.314.683.533,1.075.675v6.357c-2,.457-3.5,2.242-3.5,4.379,0,2.481,2.019,4.5,4.5,4.5s4.5-2.019,4.5-4.5c0-2.137-1.5-3.922-3.5-4.379Zm-14.5,3.679v2.4c0,.441-.358.8-.8.8h-2.399c-.441,0-.801-.358-.801-.8v-2.4c0-.441.359-.8.801-.8h2.399c.441,0,.8.358.8.8Zm-1.5-11.8c-1.379,0-2.5-1.122-2.5-2.5s1.121-2.5,2.5-2.5,2.5,1.122,2.5,2.5-1.121,2.5-2.5,2.5Zm12.774-1.89c-.177-.177-.273-.412-.273-.662s.097-.485.273-.662l1.564-1.564c.177-.177.412-.274.662-.274s.484.097.661.274l1.564,1.564c.177.177.274.412.274.662s-.098.485-.274.662l-1.564,1.564c-.354.354-.971.353-1.323,0l-1.564-1.564Zm2.226,16.89c-1.379,0-2.5-1.121-2.5-2.5s1.121-2.5,2.5-2.5,2.5,1.121,2.5,2.5-1.121,2.5-2.5,2.5Z"/>
</svg>
