<?xml version="1.0" encoding="UTF-8"?>
<svg xmlns="http://www.w3.org/2000/svg" id="Layer_1" data-name="Layer 1" viewBox="0 0 24 24">
  <path d="m6,6c0-3.309,2.691-6,6-6,1.212,0,2.339.364,3.283.984l-7.283,5.016c0,2.209,1.791,4,4,4s4-1.791,4-4h-4.635l5.397-3.636c.773,1.01,1.238,2.268,1.238,3.636,0,3.309-2.691,6-6,6s-6-2.691-6-6Zm14,16v1c0,.553-.447,1-1,1s-1-.447-1-1v-1c0-3.309-2.691-6-6-6-.24,0-.476.018-.708.046l1.489,5.954h2.22c.553,0,1,.447,1,1s-.447,1-1,1H6c-1.299,0-2-1.03-2-2,0-4.411,3.589-8,8-8s8,3.589,8,8Zm-10.627-5.386c-1.994.976-3.373,3.02-3.373,5.386h4.72l-1.347-5.386Z"/>
</svg>
