<?xml version="1.0" encoding="UTF-8"?>
<svg xmlns="http://www.w3.org/2000/svg" id="Layer_1" data-name="Layer 1" viewBox="0 0 24 24">
  <path d="m24,1c0-.552-.448-1-1-1s-.997.445-.999.996h0s-.009,2.069-.009,3.604c0,1.473-.145,2.85-.407,4.155C17.034,5.162,10.153.413,7.966,2.601c-.979.979-.979,2.305-.978,3.274,0,.346,0,.925-.069,1.044-.136.086-.702.082-1.041.081-.96-.004-2.276-.015-3.258.967-2.187,2.187,2.552,9.068,6.137,13.618-1.306.262-2.684.407-4.157.407-1.535,0-3.604.009-3.604.009h0c-.55.003-.996.449-.996,1s.448,1,1,1c.002,0,.003,0,.004,0h0s2.064-.008,3.596-.008c5.635,0,10.326-1.833,13.942-5.449s5.449-8.307,5.449-13.942c0-1.531.009-3.595.009-3.596h0s0-.003,0-.004Zm-6.872,16.128c-1.817,1.816-3.898,3.095-6.262,3.891-.453-.567-.897-1.134-1.323-1.699,2.328-.691,4.387-1.91,6.128-3.65,1.122-1.123,2.038-2.386,2.725-3.755.247-.494.047-1.095-.446-1.342-.497-.249-1.095-.047-1.343.446-.589,1.177-1.38,2.266-2.35,3.236-1.671,1.67-3.684,2.785-5.98,3.333-2.817-3.968-4.654-7.423-4.241-8.209.364-.363.966-.386,1.831-.381.837.006,1.789.012,2.458-.657.667-.667.666-1.624.666-2.469,0-.753,0-1.465.375-1.845,1.021-.531,6.415,2.633,11.656,6.837-.796,2.365-2.075,4.446-3.891,6.262Z"/>
</svg>
