<?xml version="1.0" encoding="UTF-8"?>
<svg xmlns="http://www.w3.org/2000/svg" id="Layer_1" data-name="Layer 1" viewBox="0 0 24 24">
  <path d="m13,4h8.5c1.379,0,2.5-1.122,2.5-2.5v-.5c0-.552-.447-1-1-1s-1,.448-1,1v.5c0,.276-.225.5-.5.5h-1.5v-1c0-.552-.447-1-1-1s-1,.448-1,1v1h-5v-1c0-.552-.448-1-1-1s-1,.448-1,1v1h-5v-1c0-.552-.448-1-1-1s-1,.448-1,1v1h-1.5c-.276,0-.5-.224-.5-.5v-.5c0-.552-.448-1-1-1S0,.448,0,1v.5c0,1.378,1.122,2.5,2.5,2.5h8.5v4h-5v-1c0-.552-.448-1-1-1s-1,.448-1,1v1h-1.5c-.276,0-.5-.224-.5-.5v-.5c0-.552-.448-1-1-1s-1,.448-1,1v.5c0,1.378,1.122,2.5,2.5,2.5h2.086l6.414,6.414v6.586c0,.552.448,1,1,1s1-.448,1-1v-6.586l6.414-6.414h2.086c1.379,0,2.5-1.122,2.5-2.5v-.5c0-.552-.447-1-1-1s-1,.448-1,1v.5c0,.276-.225.5-.5.5h-1.5v-1c0-.552-.447-1-1-1s-1,.448-1,1v1h-5v-4Zm-5.586,6h3.586v3.586l-3.586-3.586Zm9.172,0l-3.586,3.586v-3.586h3.586Z"/>
</svg>
