<?xml version="1.0" encoding="UTF-8"?>
<svg xmlns="http://www.w3.org/2000/svg" id="Layer_1" data-name="Layer 1" viewBox="0 0 24 24">
  <path d="m17.214,10.106c-.316-.452-.207-1.075.246-1.393.455-.316,1.077-.206,1.393.246.636.908,1.187,1.881,1.639,2.893.225.505,0,1.096-.505,1.321-.132.06-.271.087-.407.087-.382,0-.748-.221-.914-.592-.4-.896-.888-1.758-1.452-2.562Zm2.504,5.903c.187.965.282,1.958.282,2.952,0,.553.448,1,1,1s1-.447,1-1c0-1.121-.107-2.242-.318-3.333-.105-.542-.633-.9-1.172-.791-.542.104-.897.629-.792,1.172Zm-7.053-10.204c.724.447,1.418.962,2.066,1.529.19.166.425.248.659.248.278,0,.555-.115.752-.341.364-.415.323-1.047-.093-1.411-.73-.641-1.515-1.222-2.333-1.727-.47-.291-1.086-.146-1.376.325-.291.47-.145,1.086.325,1.376Zm10.334,16.194H4.019c-.713,0-1.356-.366-1.72-.979s-.378-1.352-.037-1.978L11.829,1.479c.264-.485.085-1.093-.4-1.356-.487-.266-1.093-.086-1.357.399L.505,18.087c-.682,1.252-.654,2.73.074,3.956.728,1.226,2.014,1.957,3.439,1.957h18.981c.552,0,1-.447,1-1s-.448-1-1-1Z"/>
</svg>
