<?xml version="1.0" encoding="UTF-8"?>
<svg xmlns="http://www.w3.org/2000/svg" id="Layer_1" data-name="Layer 1" viewBox="0 0 24 24">
  <path d="m21.902,17.298c-.529-5.153-3.464-11.675-8.137-13.028.454-.453.735-1.078.735-1.77,0-1.381-1.119-2.5-2.5-2.5s-2.5,1.119-2.5,2.5c0,.692.281,1.317.735,1.77-4.673,1.353-7.608,7.875-8.137,13.028-1.233.542-2.098,1.772-2.098,3.202,0,1.93,1.57,3.5,3.5,3.5h17c1.93,0,3.5-1.57,3.5-3.5,0-1.43-.865-2.66-2.098-3.202ZM12,6c3.856,0,7.163,5.605,7.864,11H4.136c.087-.667.217-1.337.38-2h11.484c.553,0,1-.448,1-1s-.447-1-1-1H5.126c1.407-3.849,3.984-7,6.874-7Zm8.5,16H3.5c-.827,0-1.5-.673-1.5-1.5s.673-1.5,1.5-1.5h17c.827,0,1.5.673,1.5,1.5s-.673,1.5-1.5,1.5Z"/>
</svg>
