<?xml version="1.0" encoding="UTF-8"?>
<svg xmlns="http://www.w3.org/2000/svg" id="Layer_1" data-name="Layer 1" viewBox="0 0 24 24">
  <path d="m23.751,20.08l-2.509-5.529c-.418-.921-1.271-1.527-2.281-1.623-1.021-.097-1.965.343-2.549,1.17l-1.842,2.61-8.064-4.981,1.099-3.064c.096-.269.304-.483.569-.59.116-.05.241-.074.368-.074.152,0,.306.035.448.106l.47.177c.687.342,1.211.929,1.474,1.652l1.093,3.18c.182.529.762.806,1.288.615.513-.186.782-.75.604-1.266l-1.105-3.213c-.438-1.207-1.312-2.187-2.461-2.759l-.47-.177c-.767-.382-1.661-.418-2.456-.098-.795.319-1.416.965-1.705,1.771l-.956,2.664-3.241-2.002c-.47-.29-1.086-.146-1.376.325-.29.47-.145,1.086.325,1.376l12.94,7.994-.904,1.281c-.6.848-.675,1.947-.198,2.868.481.929,1.433,1.506,2.482,1.506h6.411c.956,0,1.835-.479,2.351-1.279.512-.795.584-1.782.194-2.641Zm-1.876,1.558c-.069.109-.275.362-.669.362h-6.411c-.438,0-.64-.298-.706-.426-.064-.124-.188-.45.056-.795l3.902-5.529c.202-.286.483-.334.649-.334.029,0,.056,0,.076.003.139.014.479.084.648.458l2.509,5.53c.155.342.014.625-.055.73ZM9,2.5c0-1.381,1.119-2.5,2.5-2.5s2.5,1.119,2.5,2.5-1.119,2.5-2.5,2.5-2.5-1.119-2.5-2.5Zm1,16.5v4c0,.553-.447,1-1,1s-1-.447-1-1v-4c0-.553.447-1,1-1s1,.447,1,1Zm-5.141-2.797l-2.532,7.132c-.146.409-.531.665-.942.665-.111,0-.224-.019-.335-.058-.521-.185-.792-.757-.607-1.277l2.532-7.132c.185-.521.753-.791,1.277-.607.521.185.792.757.607,1.277Z"/>
</svg>
