<?xml version="1.0" encoding="UTF-8"?>
<svg xmlns="http://www.w3.org/2000/svg" id="Layer_1" data-name="Layer 1" viewBox="0 0 24 24">
  <path d="m19,3H5C2.243,3,0,5.243,0,8v4c0,2.757,2.243,5,5,5h14c2.757,0,5-2.243,5-5v-4c0-2.757-2.243-5-5-5Zm3,9c0,1.654-1.346,3-3,3H5c-1.654,0-3-1.346-3-3v-4c0-1.654,1.346-3,3-3h14c1.654,0,3,1.346,3,3v4Zm-15-4c0,.552-.448,1-1,1h-1c-.552,0-1-.448-1-1s.448-1,1-1h1c.552,0,1,.448,1,1Zm2,0c0-.552.448-1,1-1h1c.552,0,1,.448,1,1s-.448,1-1,1h-1c-.552,0-1-.448-1-1Zm11,0c0,.552-.448,1-1,1h-4c-.552,0-1-.448-1-1s.448-1,1-1h4c.552,0,1,.448,1,1Zm-4,4c0,.552-.448,1-1,1h-6c-.552,0-1-.448-1-1s.448-1,1-1h6c.552,0,1,.448,1,1Zm.01,7.404c.391.391.391,1.023,0,1.414l-2.596,2.596c-.39.39-.902.585-1.414.585s-1.024-.195-1.414-.585l-2.707-2.707c-.391-.391-.391-1.023,0-1.414s1.023-.391,1.414,0l2.707,2.707,2.596-2.596c.391-.391,1.023-.391,1.414,0Zm3.99-7.404c0,.552-.448,1-1,1s-1-.448-1-1,.448-1,1-1,1,.448,1,1Zm-14,0c0,.552-.448,1-1,1s-1-.448-1-1,.448-1,1-1,1,.448,1,1Z"/>
</svg>
