<?xml version="1.0" encoding="UTF-8"?>
<svg xmlns="http://www.w3.org/2000/svg" id="Layer_1" data-name="Layer 1" viewBox="0 0 24 24">
  <path d="m23.981,12.366l-1.021-8c-.318-2.489-2.45-4.366-4.96-4.366H6.022C3.513,0,1.381,1.877,1.063,4.366L.041,12.366c-.182,1.425.258,2.86,1.208,3.938.949,1.078,2.316,1.696,3.752,1.696h6v4h-4c-.552,0-1,.447-1,1s.448,1,1,1h10c.552,0,1-.447,1-1s-.448-1-1-1h-4v-4h6.022c1.436,0,2.804-.618,3.752-1.696.949-1.077,1.389-2.513,1.207-3.938Zm-3.005-7.746l.432,3.38h-4.968l-.375-6h1.936c1.506,0,2.785,1.126,2.976,2.62Zm-11.912,11.38l.375-6h5.121l.375,6h-5.871Zm.5-8l.375-6h4.121l.375,6h-4.871Zm-3.542-6h1.913l-.375,6H2.615l.432-3.38c.191-1.494,1.471-2.62,2.976-2.62Zm-3.273,12.982c-.569-.646-.833-1.508-.725-2.362l.335-2.62h5.076l-.375,6h-2.06c-.861,0-1.682-.371-2.251-1.018Zm18.524,0c-.569.646-1.39,1.018-2.251,1.018h-2.083l-.375-6h5.099l.335,2.62c.109.854-.155,1.716-.724,2.362Z"/>
</svg>
