<?xml version="1.0" encoding="UTF-8"?>
<svg xmlns="http://www.w3.org/2000/svg" id="Layer_1" data-name="Layer 1" viewBox="0 0 24 24">
  <path d="m20.5,11h-2c-.539,0-1.044.133-1.5.351v-4.851c0-1.93-1.57-3.5-3.5-3.5h-3c-1.93,0-3.5,1.57-3.5,3.5v2.851c-.456-.219-.961-.351-1.5-.351h-2c-1.93,0-3.5,1.57-3.5,3.5v5c0,1.93,1.57,3.5,3.5,3.5h17c1.93,0,3.5-1.57,3.5-3.5v-3c0-1.93-1.57-3.5-3.5-3.5ZM2,17.5v-5c0-.827.673-1.5,1.5-1.5h2c.827,0,1.5.673,1.5,1.5v6.5h-3.5c-.827,0-1.5-.673-1.5-1.5Zm7-11c0-.827.673-1.5,1.5-1.5h3c.827,0,1.5.673,1.5,1.5v12.5h-6V6.5Zm13,11c0,.827-.673,1.5-1.5,1.5h-3.5v-4.5c0-.827.673-1.5,1.5-1.5h2c.827,0,1.5.673,1.5,1.5v3Z"/>
</svg>
