<?xml version="1.0" encoding="UTF-8"?>
<svg xmlns="http://www.w3.org/2000/svg" id="Layer_1" data-name="Layer 1" viewBox="0 0 24 24">
  <path d="m9.182,11.09l.654-1.09-.654-1.09c-.213-.355.043-.807.457-.807h1.336l.568-.946c.207-.345.707-.345.914,0l.568.946h1.336c.414,0,.67.452.457.807l-.654,1.09.654,1.09c.213.355-.043.807-.457.807h-1.336l-.568.946c-.207.345-.707.345-.914,0l-.568-.946h-1.336c-.414,0-.67-.452-.457-.807Zm14.818,2.653v6.257c0,2.206-1.794,4-4,4H4c-2.206,0-4-1.794-4-4v-6.257c0-.916.41-1.77,1.125-2.342l1.154-.923c.701-.562,1.699-.583,2.425-.056l.295.215v-4.136c0-1.252.598-2.449,1.6-3.2l3.6-2.7c1.061-.795,2.541-.794,3.6,0l3.6,2.701c1.002.751,1.6,1.947,1.6,3.2v4.137l.295-.214c.726-.528,1.725-.507,2.426.056l1.153.922c.716.572,1.126,1.426,1.126,2.342ZM7,6.5v15.5h2v-4c0-1.654,1.346-3,3-3s3,1.346,3,3v4h2V6.5c0-.626-.299-1.224-.8-1.6l-3.6-2.701c-.354-.265-.847-.265-1.201,0l-3.599,2.7c-.501.376-.8.974-.8,1.6Zm6,11.5c0-.551-.449-1-1-1s-1,.449-1,1v4h2v-4Zm-9,4h1v-8.891l-1.471-1.069-1.154.923c-.238.191-.375.476-.375.781v6.257c0,1.103.897,2,2,2Zm18-8.257c0-.305-.137-.59-.375-.781l-1.153-.923-1.471,1.07v8.891h1c1.103,0,2-.897,2-2v-6.257Z"/>
</svg>
