<?xml version="1.0" encoding="UTF-8"?>
<svg xmlns="http://www.w3.org/2000/svg" id="Layer_1" data-name="Layer 1" viewBox="0 0 24 24">
  <path d="m21.298,13.885l-.451-.259c.102-.543.153-1.088.153-1.626s-.052-1.083-.153-1.626l.45-.259c.695-.399,1.193-1.046,1.401-1.819.209-.773.104-1.583-.295-2.276-.399-.695-1.046-1.193-1.819-1.401-.775-.209-1.583-.104-2.276.295l-.45.259c-.842-.72-1.811-1.279-2.857-1.649v-.522c0-1.654-1.346-3-3-3s-3,1.346-3,3v.522c-1.047.37-2.016.929-2.857,1.649l-.45-.259c-.693-.397-1.502-.503-2.277-.295-.773.208-1.419.706-1.818,1.4-.4.694-.505,1.503-.296,2.277.208.773.706,1.419,1.401,1.819l.451.26c-.102.544-.153,1.088-.153,1.625s.051,1.081.153,1.625l-.451.26c-.695.4-1.192,1.046-1.401,1.819-.209.774-.104,1.583.295,2.276.399.695,1.045,1.193,1.819,1.401.771.208,1.582.104,2.277-.295l.45-.259c.841.721,1.81,1.279,2.857,1.649v.522c0,1.654,1.346,3,3,3s3-1.346,3-3v-.522c1.047-.37,2.016-.93,2.857-1.649l.449.259c.695.398,1.505.503,2.277.295.773-.208,1.42-.706,1.819-1.4s.504-1.504.295-2.277c-.208-.773-.706-1.42-1.4-1.819Zm-2.556-3.742c.171.621.258,1.246.258,1.857s-.087,1.236-.258,1.857c-.121.439.07.905.465,1.133l1.094.629c.231.133.397.349.467.606.07.258.035.526-.099.759-.133.231-.349.397-.606.467-.26.07-.526.035-.759-.099l-1.091-.627c-.393-.225-.893-.158-1.213.168-.889.908-2.013,1.557-3.25,1.877-.441.113-.75.512-.75.968v1.262c0,.552-.449,1-1,1s-1-.448-1-1v-1.262c0-.456-.309-.854-.75-.968-1.238-.32-2.361-.969-3.25-1.877-.193-.197-.453-.301-.715-.301-.17,0-.342.044-.498.133l-1.091.627c-.232.133-.501.168-.759.099s-.473-.235-.606-.468c-.133-.231-.168-.5-.099-.758.07-.258.236-.474.467-.606l1.093-.629c.395-.228.586-.693.466-1.132-.171-.624-.258-1.249-.258-1.858s.087-1.234.258-1.858c.121-.438-.071-.904-.466-1.132l-1.093-.629c-.231-.133-.397-.349-.467-.606-.069-.258-.034-.526.099-.759.133-.231.348-.397.606-.467.258-.071.527-.036.759.099l1.091.627c.396.227.895.157,1.213-.168.889-.908,2.012-1.557,3.25-1.877.441-.113.75-.512.75-.968v-1.262c0-.552.449-1,1-1s1,.448,1,1v1.262c0,.456.309.854.75.968,1.237.32,2.361.969,3.25,1.877.319.327.818.393,1.213.168l1.092-.627c.229-.134.497-.17.758-.099.258.069.474.235.606.468.134.231.169.5.099.758-.069.258-.235.474-.468.606l-1.093.629c-.395.228-.586.693-.465,1.133Zm-3.035-.264c.391.391.391,1.023,0,1.414-.195.195-.451.293-.707.293s-.512-.098-.707-.293l-1.293-1.293v6c0,.553-.448,1-1,1s-1-.447-1-1v-6l-1.293,1.293c-.391.391-1.023.391-1.414,0s-.391-1.023,0-1.414l2.345-2.345c.727-.729,1.997-.729,2.726,0l2.344,2.345Z"/>
</svg>
