<?xml version="1.0" encoding="UTF-8"?>
<svg xmlns="http://www.w3.org/2000/svg" id="Layer_1" data-name="Layer 1" viewBox="0 0 24 24">
  <path d="m23.562,9.572c.43-.492.555-1.181.323-1.799-.221-.593-.739-1.014-1.353-1.099-2.312-.319-7.207-.674-10.533-.674s-8.221.355-10.534.674c-.612.085-1.131.506-1.352,1.099-.231.618-.106,1.307.323,1.799.052.059,3.208,2.309,3.208,2.309,0,0-2.797,2.806-2.83,2.854-.403.577-.429,1.34-.064,1.943.353.583.983.891,1.648.809,2.384-.303,6.601-.54,9.601-.54s7.217.237,9.601.54c.072.009.145.014.215.014.584,0,1.119-.303,1.434-.822.364-.604.339-1.366-.064-1.943-.033-.048-2.83-2.854-2.83-2.854,0,0,3.156-2.25,3.208-2.309Zm-5.331,1.362c-.24.17-.394.438-.418.731-.025.293.081.583.289.792l2.951,2.954c-2.517-.266-6.293-.463-9.054-.463s-6.537.197-9.054.463l2.951-2.954c.208-.208.314-.498.289-.792-.024-.293-.178-.561-.418-.731l-3.337-2.366c2.433-.284,6.626-.568,9.568-.568s7.137.284,9.568.568l-3.337,2.366Z"/>
</svg>
