<?xml version="1.0" encoding="UTF-8"?>
<svg xmlns="http://www.w3.org/2000/svg" id="Layer_1" data-name="Layer 1" viewBox="0 0 24 24">
  <path d="m18.7,9.6c.386,0,.7.314.7.7v3.4c0,.386-.314.7-.7.7s-.7,0-.7,0v-4.802s.314,0,.7,0Zm-12.701.9c0-.496-.404-.9-.9-.9h-.5v1.8h.5c.496,0,.9-.404.9-.9Zm3.612,2.501h1.261l-.638-3.295-.624,3.295Zm14.388-4.001v6c0,1.043-.533,1.959-1.34,2.497-2.047,3.961-6.184,6.503-10.66,6.503s-8.613-2.542-10.66-6.503c-.807-.538-1.34-1.454-1.34-2.497v-6c0-1.043.533-1.959,1.34-2.497C3.387,2.542,7.524,0,12,0s8.613,2.542,10.66,6.503c.807.538,1.34,1.454,1.34,2.497Zm-5.3-1h-1.5c-.442,0-.8.358-.8.8v6.4c0,.442.358.8.8.8h1.5c1.27,0,2.3-1.03,2.3-2.3v-3.4c0-1.27-1.03-2.3-2.3-2.3Zm-14.665-2h15.929c-1.823-2.42-4.701-4-7.965-4s-6.142,1.58-7.965,4Zm10.565,2c-.442,0-.8.358-.8.8v6.4c0,.442.358.8.8.8s.8-.358.8-.8v-6.4c0-.442-.358-.8-.8-.8Zm-2.998,1.193c-.12-.668-.589-1.192-1.346-1.192s-1.281.587-1.385,1.167l-1.2,5.976c-.089.443.25.857.702.857.345,0,.641-.246.704-.585l.166-.889h2.006l.157.883c.061.342.358.591.705.591h.01c.453,0,.793-.416.701-.86l-1.221-5.947Zm-7.803,6.807c.442,0,.8-.358.8-.8v-2.2h.5c1.365,0,2.474-1.093,2.5-2.452.026-1.401-1.154-2.548-2.556-2.548h-1.244c-.442,0-.8.358-.8.8v6.4c0,.442.358.8.8.8Zm16.165,2H4.035c1.823,2.42,4.701,4,7.965,4s6.142-1.58,7.965-4Z"/>
</svg>
