<?xml version="1.0" encoding="UTF-8"?>
<svg xmlns="http://www.w3.org/2000/svg" id="Layer_1" data-name="Layer 1" viewBox="0 0 24 24">
  <path d="m12,0C5.383,0,0,5.383,0,12s5.383,12,12,12,12-5.383,12-12S18.617,0,12,0Zm0,22c-5.514,0-10-4.486-10-10S6.486,2,12,2s10,4.486,10,10-4.486,10-10,10Zm4.7-14c-1.269,0-2.3,1.031-2.3,2.3v3.4c0,1.269,1.031,2.3,2.3,2.3s2.3-1.031,2.3-2.3v-3.4c0-1.269-1.031-2.3-2.3-2.3Zm.7,5.7c0,.386-.314.7-.7.7s-.7-.314-.7-.7v-3.4c0-.386.314-.7.7-.7s.7.314.7.7v3.4Zm-4.4-4.9v6.4c0,.442-.358.8-.8.8s-.8-.358-.8-.8v-6.4c0-.442.358-.8.8-.8s.8.358.8.8Zm-3.001,1.434c-.036-1.268-1.171-2.234-2.439-2.234h-1.06c-.552,0-1,.448-1,1v6c0,.552.448,1,1,1h1.374c1.249,0,2.395-.86,2.593-2.094.15-.932-.227-1.774-.868-2.312.264-.386.414-.855.4-1.36Zm-2.899-.635h.6c.386,0,.7.314.7.7s-.314.7-.7.7h-.6v-1.4Zm.9,4.8h-.9v-1.8h.9c.496,0,.9.404.9.9s-.404.9-.9.9Z"/>
</svg>
