<?xml version="1.0" encoding="UTF-8"?>
<svg xmlns="http://www.w3.org/2000/svg" id="Layer_1" data-name="Layer 1" viewBox="0 0 24 24">
  <path d="m18.46,3.215l-.968.277-.277.968c-.206.72-1.225.72-1.431,0l-.277-.968-.968-.277c-.72-.206-.72-1.225,0-1.431l.968-.277.277-.968c.206-.719,1.225-.719,1.431,0l.277.968.968.277c.72.206.72,1.225,0,1.431Zm5,1.569l-.968-.277-.277-.968c-.206-.719-1.225-.719-1.431,0l-.277.968-.968.277c-.72.206-.72,1.225,0,1.431l.968.277.277.968c.206.72,1.225.72,1.431,0l.277-.968.968-.277c.72-.206.72-1.225,0-1.431Zm-1,6l-.968-.277-.277-.968c-.206-.719-1.225-.719-1.431,0l-.277.968-.968.277c-.72.206-.72,1.225,0,1.431l.968.277.277.968c.206.72,1.225.72,1.431,0l.277-.968.968-.277c.72-.206.72-1.225,0-1.431Zm-6.46,1.215v7c0,2.757-2.243,5-5,5h-6c-2.757,0-5-2.243-5-5v-7c0-2.414,1.721-4.434,4-4.899v-3.601c0-1.93,1.57-3.5,3.5-3.5h1c1.93,0,3.5,1.57,3.5,3.5v3.601c2.279.465,4,2.484,4,4.899ZM6,7h4v-3.5c0-.827-.673-1.5-1.5-1.5h-1c-.827,0-1.5.673-1.5,1.5v3.5Zm8,5c0-1.654-1.346-3-3-3h-6c-1.654,0-3,1.346-3,3v7c0,1.654,1.346,3,3,3h6c1.654,0,3-1.346,3-3v-7Zm-2,4c0,2.206-1.794,4-4,4s-4-1.794-4-4,1.794-4,4-4,4,1.794,4,4Zm-2,0c0-1.103-.897-2-2-2s-2,.897-2,2,.897,2,2,2,2-.897,2-2Z"/>
</svg>
