<?xml version="1.0" encoding="UTF-8"?>
<svg xmlns="http://www.w3.org/2000/svg" id="Layer_1" data-name="Layer 1" viewBox="0 0 24 24">
  <path d="m24,23c0,.553-.448,1-1,1H5c-2.757,0-5-2.243-5-5V1C0,.447.448,0,1,0s1,.447,1,1v18c0,1.654,1.346,3,3,3h18c.552,0,1,.447,1,1ZM11.562,5.508c.941.458,1.84,1.02,2.67,1.669.183.143.4.212.615.212.297,0,.591-.132.789-.385.34-.435.263-1.063-.172-1.403-.941-.735-1.959-1.371-3.026-1.892-.499-.241-1.096-.035-1.337.461-.242.497-.036,1.096.461,1.338Zm-6.562-1.508c1.106,0,2.211.121,3.283.359.073.017.146.024.218.024.458,0,.871-.316.975-.782.12-.539-.22-1.074-.759-1.193-1.214-.271-2.465-.408-3.717-.408-.552,0-1,.447-1,1s.448,1,1,1Zm13.493,8.438c.173.355.529.562.9.562.147,0,.296-.032.437-.102.497-.241.703-.84.461-1.337-.521-1.068-1.157-2.086-1.892-3.026-.34-.435-.97-.511-1.404-.172-.435.34-.512.969-.172,1.404.648.829,1.21,1.728,1.67,2.671Zm1.147,3.279c.239,1.071.36,2.176.36,3.282,0,.553.448,1,1,1s1-.447,1-1c0-1.253-.137-2.504-.408-3.718-.12-.539-.657-.877-1.194-.758-.539.12-.878.654-.758,1.193Z"/>
</svg>
