<?xml version="1.0" encoding="UTF-8"?>
<svg xmlns="http://www.w3.org/2000/svg" id="Layer_1" data-name="Layer 1" viewBox="0 0 24 24">
  <path d="m21.684,13.762c-1.37-1.095-3.907-3.071-6.064-4.468-.289-2.559-.925-5.708-1.293-7.42-.237-1.104-1.193-1.874-2.326-1.874s-2.089.771-2.326,1.874c-.368,1.713-1.005,4.862-1.293,7.421-2.157,1.397-4.694,3.373-6.064,4.467-.882.705-1.145,1.905-.64,2.918.504,1.013,1.62,1.526,2.714,1.246,1.587-.406,4.315-1.141,6.611-1.936l.01,6.01h-3.012c-.552,0-1,.448-1,1s.448,1,1,1h8c.552,0,1-.448,1-1s-.448-1-1-1h-2.988l-.01-6.009c2.294.795,5.021,1.528,6.608,1.935.199.051.399.076.597.076.883,0,1.705-.494,2.118-1.322.505-1.013.242-2.213-.64-2.917Zm-1.15,2.026c-.081.162-.256.244-.428.2-1.873-.479-5.367-1.423-7.737-2.361-.118-.047-.243-.07-.368-.07s-.25.023-.368.07c-2.37.938-5.864,1.882-7.736,2.361-.173.043-.349-.04-.429-.201-.081-.162-.041-.352.098-.463,1.425-1.139,4.138-3.25,6.291-4.598.263-.165.435-.442.464-.75.247-2.535.927-5.901,1.31-7.682.074-.346.667-.346.741,0,.383,1.781,1.062,5.147,1.31,7.682.03.309.202.586.464.75,2.153,1.348,4.866,3.459,6.291,4.598h0c.139.111.179.301.098.463Z"/>
</svg>
