<?xml version="1.0" encoding="UTF-8"?>
<svg xmlns="http://www.w3.org/2000/svg" id="Layer_1" data-name="Layer 1" viewBox="0 0 24 24">
  <path d="m23.598,11.718l-2.701-7.427c-.715-1.969-2.603-3.292-4.698-3.292H7.802c-2.096,0-3.983,1.323-4.698,3.291L.402,11.718c-.267.733-.402,1.5-.402,2.282v1c0,1.629.795,3.065,2.004,3.978,0,.008-.004.014-.004.022v2c0,1.654,1.346,3,3,3s3-1.346,3-3v-1h8v1c0,1.654,1.346,3,3,3s3-1.346,3-3v-2c0-.008-.004-.014-.004-.022,1.21-.913,2.004-2.349,2.004-3.978v-1c0-.782-.136-1.549-.402-2.282ZM4.982,4.974c.43-1.181,1.562-1.974,2.819-1.974h8.396c1.257,0,2.39.793,2.819,1.975l1.464,4.025H3.518l1.464-4.026Zm1.018,16.026c0,.551-.448,1-1,1s-1-.449-1-1v-1.101c.323.066.658.101,1,.101h1v1Zm14,0c0,.551-.448,1-1,1s-1-.449-1-1v-1h1c.342,0,.677-.035,1-.101v1.101Zm-1-3h-3v-1c0-.552-.447-1-1-1h-6c-.553,0-1,.448-1,1v1h-3c-1.654,0-3-1.346-3-3h2c.553,0,1-.448,1-1s-.447-1-1-1h-1.879c.044-.201.089-.403.16-.598l.51-1.402h18.418l.51,1.402c.071.195.116.396.16.598h-1.879c-.553,0-1,.448-1,1s.447,1,1,1h2c0,1.654-1.346,3-3,3Z"/>
</svg>
