<?xml version="1.0" encoding="UTF-8"?>
<svg xmlns="http://www.w3.org/2000/svg" id="Layer_1" data-name="Layer 1" viewBox="0 0 24 24">
  <path d="m13.5,17.25c1.93,0,3.5-1.57,3.5-3.5s-1.57-3.5-3.5-3.5c-.532,0-1.032.129-1.484.342.082-1.028.935-1.842,1.984-1.842h1c.553,0,1-.447,1-1s-.447-1-1-1h-1c-2.206,0-4,1.794-4,4v3c0,1.93,1.57,3.5,3.5,3.5Zm0-5c.827,0,1.5.673,1.5,1.5s-.673,1.5-1.5,1.5-1.5-.673-1.5-1.5.673-1.5,1.5-1.5Zm10.5-.25c0,.553-.447,1-1,1h-1v1c0,.553-.447,1-1,1s-1-.447-1-1v-1h-1c-.553,0-1-.447-1-1s.447-1,1-1h1v-1c0-.553.447-1,1-1s1,.447,1,1v1h1c.553,0,1,.447,1,1Zm-17,4v-5.901l-.523.575c-.371.407-1.003.438-1.413.065-.408-.372-.438-1.005-.065-1.413l1.732-1.901c.372-.402.936-.532,1.439-.334.504.197.83.674.83,1.216v7.693c0,.553-.447,1-1,1s-1-.447-1-1Zm15.059,2.546c-2.227,3.415-5.987,5.454-10.059,5.454C5.383,24,0,18.617,0,12S5.383,0,12,0c4.072,0,7.832,2.039,10.059,5.454.302.463.171,1.082-.292,1.384-.461.301-1.083.171-1.384-.292-1.855-2.847-4.989-4.546-8.383-4.546C6.486,2,2,6.486,2,12s4.486,10,10,10c3.394,0,6.527-1.699,8.383-4.546.303-.463.923-.593,1.384-.292.463.302.594.922.292,1.384Z"/>
</svg>
