<?xml version="1.0" encoding="UTF-8"?>
<svg xmlns="http://www.w3.org/2000/svg" id="Layer_1" data-name="Layer 1" viewBox="0 0 24 24">
  <path d="m17,10c-3.86,0-7,3.141-7,7s3.14,7,7,7,7-3.141,7-7-3.14-7-7-7Zm1,11.899v-.899c0-.553-.448-1-1-1s-1,.447-1,1v.899c-2.279-.465-4-2.485-4-4.899,0-2.757,2.243-5,5-5s5,2.243,5,5c0,2.414-1.721,4.435-4,4.899Zm1.953-6.435c.223,1.272-.403,2.507-1.506,3.164-.733.437-1.447.371-1.447.371-.552,0-1-.447-1-1s.448-1,1-1c0,0,.251,0,.481-.123.292-.155.595-.535.502-1.066-.069-.392-.402-.725-.793-.793-.522-.093-.895.203-1.057.483-.276.478-.888.643-1.366.364-.478-.276-.641-.889-.364-1.366.639-1.104,1.869-1.676,3.133-1.451,1.209.211,2.204,1.205,2.417,2.417ZM2.5,2.5c0-1.381,1.119-2.5,2.5-2.5s2.5,1.119,2.5,2.5-1.119,2.5-2.5,2.5-2.5-1.119-2.5-2.5Zm7.5,10.5v-3c0-2.206-1.794-4-4-4h-2C1.794,6,0,7.794,0,10v3c0,1.478.805,2.771,2,3.463v6.537c0,.553.448,1,1,1s1-.447,1-1v-6h2v6c0,.553.448,1,1,1s1-.447,1-1v-6.537c1.195-.693,2-1.985,2-3.463Zm-2,0c0,1.103-.897,2-2,2h-2c-1.103,0-2-.897-2-2v-3c0-1.103.897-2,2-2h2c1.103,0,2,.897,2,2v3Z"/>
</svg>
