<?xml version="1.0" encoding="UTF-8"?>
<svg xmlns="http://www.w3.org/2000/svg" id="Layer_1" data-name="Layer 1" viewBox="0 0 24 24">
  <path d="m19,3H5C2.243,3,0,5.243,0,8v12c0,.553.447,1,1,1h.5c.266,0,.52-.105.708-.293l2.791-2.794,2.794,2.794c.195.195.451.293.707.293s.512-.098.707-.293l2.793-2.793,2.793,2.793c.195.195.451.293.707.293s.512-.098.707-.293l2.793-2.793,2.793,2.793c.188.188.441.293.707.293h.5c.553,0,1-.447,1-1v-12c0-2.757-2.243-5-5-5ZM2,8c0-.027.007-.052.008-.078l1.646,1.646-1.654,1.654v-3.223Zm3.068,2.982l2.014,2.014-2.085,2.087-2.015-2.015,2.086-2.086Zm1.414-1.414l2.087-2.088,2.011,2.012-2.086,2.088-2.013-2.013Zm4.513-4.568h2.005c.034.049,1.01,1.06,1.01,1.06l-2.015,2.018-2.01-2.011s.975-1.011,1.011-1.066Zm1,5.907l2.092,2.092-2.087,2.087-2.091-2.091,2.086-2.089Zm1.413-1.415l2.015-2.018,2.094,2.094-2.017,2.017-2.093-2.093Zm5.523,1.491l2.086,2.086-2.017,2.017-2.086-2.086,2.017-2.017Zm1.414-1.414l1.646-1.646c0,.027.008.051.008.078v3.223l-1.654-1.654Zm-2.451-4.568h1.105c.849,0,1.613.358,2.159.927l-2.227,2.227-2.095-2.095,1.058-1.059Zm-12.895,0h1.09l1.066,1.066-2.088,2.088-2.227-2.227c.546-.569,1.31-.927,2.159-.927Zm-3,13.084v-3.17l1.584,1.584-1.584,1.586Zm6.5.502l-2.088-2.088,2.085-2.087,2.09,2.09-2.086,2.086Zm7,0l-2.086-2.086,2.087-2.087,2.086,2.086-2.086,2.086Zm4.914-2.086l1.586-1.586v3.172l-1.586-1.586Z"/>
</svg>
