<?xml version="1.0" encoding="UTF-8"?>
<svg xmlns="http://www.w3.org/2000/svg" id="Layer_1" data-name="Layer 1" viewBox="0 0 24 24">
  <path d="m.5,6.5c0-1.381,1.119-2.5,2.5-2.5s2.5,1.119,2.5,2.5-1.119,2.5-2.5,2.5S.5,7.881.5,6.5Zm8.5,14v2.5c0,.552-.448,1-1,1s-1-.448-1-1v-2.5c0-.276-.224-.5-.5-.5,0,0-3.535,0-3.552-.001-1.63-.028-2.948-1.362-2.948-2.999v-4c0-1.654,1.346-3,3-3s3,1.346,3,3v5h.5c1.378,0,2.5,1.122,2.5,2.5Zm-5-2.5v-5c0-.551-.449-1-1-1s-1,.449-1,1v4c0,.551.449,1,1,1h1Zm17-9c1.381,0,2.5-1.119,2.5-2.5s-1.119-2.5-2.5-2.5-2.5,1.119-2.5,2.5,1.119,2.5,2.5,2.5Zm3,4v4c0,1.637-1.318,2.971-2.948,2.999-.017,0-3.552.001-3.552.001-.276,0-.5.224-.5.5v2.5c0,.552-.448,1-1,1s-1-.448-1-1v-2.5c0-1.378,1.122-2.5,2.5-2.5h.5v-5c0-1.654,1.346-3,3-3s3,1.346,3,3Zm-2,0c0-.551-.449-1-1-1s-1,.449-1,1v5h1c.551,0,1-.449,1-1v-4Zm-6,1c0-.552-.448-1-1-1h-6c-.552,0-1,.448-1,1s.448,1,1,1h6c.552,0,1-.448,1-1ZM7,5.048v-2.096c0-1.628,1.324-2.952,2.952-2.952h4.096c1.628,0,2.952,1.324,2.952,2.952v2.096c0,1.533-1.175,2.797-2.672,2.939l-1.39,1.151c-.272.243-.622.365-.977.365-.363,0-.729-.128-1.021-.388l-1.379-1.141c-1.444-.192-2.561-1.431-2.561-2.926Zm2,0c0,.525.427.952.952.952.233,0,.458.081.638.229l1.363,1.128,1.362-1.128c.179-.149.405-.23.638-.23h.096c.525,0,.952-.427.952-.952v-2.096c0-.525-.427-.952-.952-.952h-4.096c-.525,0-.952.427-.952.952v2.096Zm-5,16.952H1c-.552,0-1,.448-1,1s.448,1,1,1h3c.552,0,1-.448,1-1s-.448-1-1-1Zm19,0h-3c-.552,0-1,.448-1,1s.448,1,1,1h3c.552,0,1-.448,1-1s-.448-1-1-1Z"/>
</svg>
