<?xml version="1.0" encoding="UTF-8"?>
<svg xmlns="http://www.w3.org/2000/svg" id="Layer_1" data-name="Layer 1" viewBox="0 0 24 24">
  <path d="m24.025,6.001v10.792c0,2.417-1.727,4.486-4.105,4.919l-6.284,1.143c-.534.097-1.072.146-1.61.146s-1.075-.048-1.609-.146l-6.284-1.143C1.752,21.279.025,19.21.025,16.793V6.001C.025,4.212.947,2.6,2.492,1.69c.474-.281,1.088-.123,1.369.354.28.476.122,1.089-.354,1.369-.929.547-1.482,1.515-1.482,2.588v10.792c0,1.451,1.036,2.692,2.464,2.952l6.284,1.143c.084.015.168.022.252.034v-9.922c0-.552.447-1,1-1s1,.448,1,1v9.922c.084-.012.169-.019.253-.035l6.284-1.143c1.427-.26,2.463-1.501,2.463-2.952V6.001c0-1.077-.582-2.077-1.52-2.61-.48-.273-.648-.884-.375-1.364.273-.48.883-.647,1.363-.375,1.562.888,2.531,2.554,2.531,4.348Zm-19.025,2.999c.553,0,1-.448,1-1,0-3.309,2.691-6,6-6s6,2.691,6,6c0,.552.447,1,1,1s1-.448,1-1C20,3.589,16.411,0,12,0S4,3.589,4,8c0,.552.447,1,1,1Zm11-1c0-2.206-1.794-4-4-4s-4,1.794-4,4c0,.552.447,1,1,1s1-.448,1-1c0-1.103.897-2,2-2s2,.897,2,2c0,.552.447,1,1,1s1-.448,1-1Zm-11.46,6.215l.968.277.277.968c.206.72,1.225.72,1.431,0l.277-.968.968-.277c.72-.206.72-1.225,0-1.431l-.968-.277-.277-.968c-.206-.719-1.225-.719-1.431,0l-.277.968-.968.277c-.72.206-.72,1.225,0,1.431Zm11,2l.968.277.277.968c.206.72,1.225.72,1.431,0l.277-.968.968-.277c.72-.206.72-1.225,0-1.431l-.968-.277-.277-.968c-.206-.719-1.225-.719-1.431,0l-.277.968-.968.277c-.72.206-.72,1.225,0,1.431Z"/>
</svg>
