<?xml version="1.0" encoding="UTF-8"?>
<svg xmlns="http://www.w3.org/2000/svg" id="Layer_1" data-name="Layer 1" viewBox="0 0 24 24">
  <path d="m23.982,11.143c-.165-1.651-1.572-2.967-3.275-3.127.254-.542.346-1.167.275-1.873-.176-1.763-1.768-3.143-3.625-3.143h-1.59c-.621-1.14-1.623-2.359-2.869-2.871-.5-.205-1.058-.164-1.529.114-.478.283-.8.782-.862,1.334-.062.55-.211,1.047-.37,1.423h-3.494c-1.856,0-3.449,1.38-3.625,3.143-.065.647.052,1.294.327,1.869-1.727.138-3.16,1.464-3.327,3.131-.099.987.224,1.974.886,2.705.472.522,1.089.885,1.761,1.051,0,0,.809,2.067.838,2.116,1.842,3.073,4.642,3.038,7.486,2.995.001,0,.004,0,.01,0h0v1.991h-3c-.552,0-1,.448-1,1s.448,1,1,1h8c.552,0,1-.448,1-1s-.448-1-1-1h-3v-1.991h0c.006,0,.009,0,.01,0,.325.005.76.011,1.077.011,2.48,0,4.775-.281,6.409-3.006.029-.048.838-2.116.838-2.116.672-.166,1.289-.529,1.761-1.051.662-.731.985-1.718.886-2.705Zm-5.244,4.913c-1.19,1.932-2.661,2-5.591,1.955-.347-.005-1.946-.005-2.294,0-2.926.045-4.4-.023-5.591-1.955l-.411-1.056h14.298l-.411,1.056Zm2.875-3.55c-.284.314-.69.494-1.113.494H3.5c-.423,0-.829-.18-1.113-.494-.288-.318-.422-.731-.379-1.165.075-.752.793-1.341,1.634-1.341h8.357c.552,0,1-.448,1-1s-.448-1-1-1h-5.5c-.423,0-.829-.18-1.113-.494-.288-.318-.422-.731-.379-1.165.075-.752.793-1.341,1.634-1.341h4.104c.344,0,.664-.177.847-.469.401-.64.711-1.513.854-2.39.655.416,1.355,1.292,1.786,2.264.16.361.519.595.914.595h2.21c.841,0,1.559.589,1.634,1.342.075.75-.12,1.271-1.337,1.72-.455.167-.724.637-.639,1.114.085.477.5.824.984.824h2.357c.841,0,1.559.589,1.634,1.342.043.433-.091.846-.379,1.164Z"/>
</svg>
