<?xml version="1.0" encoding="UTF-8"?>
<svg xmlns="http://www.w3.org/2000/svg" id="Layer_1" data-name="Layer 1" viewBox="0 0 24 24">
  <path d="m8,23c0,.553-.447,1-1,1h-2c-2.757,0-5-2.243-5-5V5C0,2.243,2.243,0,5,0h6c.553,0,1,.447,1,1s-.447,1-1,1h-6c-1.654,0-3,1.346-3,3v14c0,1.654,1.346,3,3,3h2c.553,0,1,.447,1,1ZM12,7v-2c0-.553-.447-1-1-1h-6c-.553,0-1,.447-1,1v2c0,.553.447,1,1,1h6c.553,0,1-.447,1-1Zm-6,3h-1c-.553,0-1,.447-1,1s.447,1,1,1h1c.553,0,1-.447,1-1s-.447-1-1-1Zm0,4h-1c-.553,0-1,.447-1,1s.447,1,1,1h1c.553,0,1-.447,1-1s-.447-1-1-1Zm3-4c-.553,0-1,.447-1,1s.447,1,1,1h1c.553,0,1-.447,1-1s-.447-1-1-1h-1Zm2,5c0-.553-.447-1-1-1h-1c-.553,0-1,.447-1,1s.447,1,1,1h1c.553,0,1-.447,1-1Zm-5,3h-1c-.553,0-1,.447-1,1s.447,1,1,1h1c.553,0,1-.447,1-1s-.447-1-1-1Zm13.235-5.003c-.534-.597-1.269-.949-2.067-.993-.798-.043-1.567.227-2.207.803l-3.226,3.26c-1.119,1.131-1.735,2.629-1.735,4.22v2.714c0,.553.447,1,1,1s1-.447,1-1v-2.714c0-1.061.411-2.06,1.157-2.813l3.183-3.219c.197-.178.456-.268.719-.253.266.015.509.132.688.331.328.366.338.927.056,1.266l-2.533,2.721c-.377.404-.354,1.037.05,1.413.406.378,1.038.354,1.413-.05l2.567-2.76c.953-1.135.926-2.822-.063-3.925Zm3.608,2.908c-.007.002-.014.003-.021.005-.47.104-.822.492-.822.974v.445c0,1.448-.524,2.848-1.475,3.94l-.92,1.057c-.57.654-.105,1.675.763,1.675.294,0,.574-.128.766-.351l.927-1.077c1.251-1.452,1.939-3.305,1.939-5.221v-.471c0-.614-.559-1.111-1.157-.975Zm-1.843-15.905h-4c-1.654,0-3,1.346-3,3v6.5c0,.553.447,1,1,1s1-.447,1-1V3c0-.552.448-1,1-1h4c.552,0,1,.448,1,1v8c0,.356-.191.688-.501.867-.478.276-.642.888-.364,1.366.185.32.521.499.866.499.17,0,.342-.043.5-.135.925-.534,1.499-1.53,1.499-2.598V3c0-1.654-1.346-3-3-3Z"/>
</svg>
