<?xml version="1.0" encoding="UTF-8"?>
<svg xmlns="http://www.w3.org/2000/svg" id="Layer_1" data-name="Layer 1" viewBox="0 0 24 24">
  <path d="m19,0h-5.822c-1.142,0-2.215.444-3.022,1.252-1.02,1.02-1.401,2.594-.997,4.108l.659,2.471c-.585.444-1.14.918-1.643,1.421l-4.084,4.138c-.463.463-1.27.463-1.732,0-.477-.478-.478-1.254,0-1.731l2.399-2.404c.39-.391.39-1.023-.002-1.414-.391-.389-1.023-.391-1.414.002l-2.399,2.404c-1.254,1.257-1.253,3.302.003,4.558,1.16,1.16,2.991,1.248,4.259.264l1.181,1.181-3.125,3.125c-.391.391-.391,1.023,0,1.414.195.195.451.293.707.293s.512-.098.707-.293l3.125-3.125,1.198,1.198c-.931,1.261-.826,3.053.316,4.194.629.629,1.454.942,2.28.942s1.649-.312,2.277-.939l2.346-2.341c.392-.391.392-1.023.002-1.414-.391-.393-1.023-.391-1.414-.002l-2.346,2.341c-.479.477-1.253.476-1.731,0-.478-.478-.478-1.255.006-1.738l4.02-4.083c.501-.501.975-1.054,1.417-1.638l2.471.659c.399.106.803.159,1.199.159,1.106,0,2.158-.405,2.909-1.156.808-.808,1.252-1.881,1.252-3.022v-5.822c0-2.757-2.243-5-5-5Zm-5.668,14.412l-2.955,3.002-3.748-3.748,2.965-3.004c2.476-2.476,6.492-4.245,8.405-4.684-.416,1.936-2.186,5.952-4.667,8.434Zm8.668-3.59c0,.607-.236,1.179-.666,1.608-.517.518-1.351.699-2.179.479l-1.796-.479c1.366-2.236,2.284-4.588,2.595-6.032.143-.663-.057-1.344-.533-1.82s-1.161-.676-1.819-.533c-1.444.311-3.796,1.229-6.033,2.595l-.479-1.796c-.221-.827-.037-1.662.479-2.179.43-.43,1.001-.666,1.608-.666h5.822c1.654,0,3,1.346,3,3v5.822Z"/>
</svg>
