<?xml version="1.0" encoding="UTF-8"?>
<svg xmlns="http://www.w3.org/2000/svg" id="Layer_1" data-name="Layer 1" viewBox="0 0 24 24">
  <path d="m8.168,12.555c-.307-.459-.183-1.081.277-1.387l2.555-1.703v-3.465c0-.552.447-1,1-1s1,.448,1,1v4c0,.334-.167.646-.445.832l-3,2c-.171.114-.363.168-.554.168-.323,0-.641-.156-.833-.445Zm13.832-2.555v9c0,2.757-2.243,5-5,5H7c-2.757,0-5-2.243-5-5v-9c0-.079.027-.73.027-.73C2.402,4.096,6.732,0,12,0s9.598,4.096,9.973,9.27c.017.074.027.651.027.73Zm-18,0c0,4.411,3.589,8,8,8s8-3.589,8-8S16.411,2,12,2,4,5.589,4,10Zm16,5.993c-1.826,2.431-4.733,4.007-8,4.007s-6.174-1.576-8-4.007v3.007c0,1.654,1.346,3,3,3h10c1.654,0,3-1.346,3-3v-3.007Z"/>
</svg>
