<?xml version="1.0" encoding="UTF-8"?>
<svg xmlns="http://www.w3.org/2000/svg" id="Layer_1" data-name="Layer 1" viewBox="0 0 24 24">
  <path d="m15.526,11.456l-1.78-1.734c-.975-.948-2.505-.95-3.483-.002l-1.798,1.745c-.944.943-1.465,2.199-1.465,3.535s.521,2.592,1.465,3.535c.944.944,2.2,1.465,3.535,1.465s2.592-.521,3.535-1.465c.944-.943,1.465-2.199,1.465-3.535s-.521-2.592-1.465-3.535l-.009-.009Zm-1.406,5.665c-1.13,1.135-3.107,1.133-4.241,0-.566-.566-.879-1.319-.879-2.121s.312-1.555.868-2.11l1.788-1.735c.097-.095.223-.142.348-.142s.25.048.347.142l1.774,1.729c.564.566.875,1.317.875,2.117s-.313,1.555-.88,2.121Zm5.63-11.927l-3.943-3.642c-1.023-1.001-2.375-1.553-3.807-1.553s-2.783.552-3.786,1.533l-3.992,3.688C-.067,9.511-.067,16.489,4.222,20.778c2.078,2.077,4.841,3.222,7.778,3.222s5.7-1.145,7.778-3.222c4.289-4.289,4.289-11.268-.028-15.584Zm-1.386,14.17c-1.701,1.699-3.961,2.636-6.364,2.636s-4.664-.937-6.364-2.636c-3.509-3.51-3.509-9.219-.028-12.701l3.984-3.681c.647-.634,1.503-.982,2.408-.982s1.761.349,2.429,1.002l3.936,3.634c3.509,3.51,3.509,9.219,0,12.729Z"/>
</svg>
