<?xml version="1.0" encoding="UTF-8"?>
<svg xmlns="http://www.w3.org/2000/svg" id="Layer_1" data-name="Layer 1" viewBox="0 0 24 24">
  <path d="m23.068,8.932c-1.241-1.24-3.26-1.24-4.5,0l-5.104,5.104c-.944.944-1.464,2.199-1.464,3.535v1.429c0,.553.448,1,1,1h1.429c1.335,0,2.59-.521,3.536-1.465l5.104-5.104c1.24-1.24,1.24-3.26,0-4.5Zm-1.414,3.086l-5.104,5.104c-.567.566-1.321.879-2.122.879h-.429v-.429c0-.79.32-1.562.878-2.121l5.104-5.104c.461-.461,1.211-.461,1.671,0,.461.461.461,1.211,0,1.672Zm-5.622-6.142c.138-.535.682-.862,1.219-.718.438.112.858.285,1.25.511.478.276.642.888.366,1.366-.186.32-.521.5-.867.5-.169,0-.341-.043-.499-.134-.235-.136-.488-.239-.75-.308-.535-.138-.856-.684-.718-1.218Zm4.299,15.625c-.892,1.541-2.551,2.499-4.331,2.499h-8c-2.757,0-5-2.243-5-5v-2c0-.553.448-1,1-1s1,.447,1,1v2c0,1.654,1.346,3,3,3h8c1.068,0,2.064-.575,2.599-1.501.277-.478.889-.643,1.366-.364.479.276.642.888.365,1.366Zm-6.331-14.501c0-3.859-3.14-7-7-7S0,3.141,0,7s3.14,7,7,7,7-3.141,7-7Zm-12,0c0-2.757,2.243-5,5-5s5,2.243,5,5-2.243,5-5,5-5-2.243-5-5Zm5.98,2.326c-.452.446-1.052.671-1.653.671s-1.204-.225-1.664-.674l-1.132-1.108c-.395-.387-.401-1.02-.015-1.414.386-.395,1.019-.401,1.414-.016l1.132,1.108c.144.142.379.141.522,0l2.223-2.134c.398-.381,1.032-.37,1.414.029.383.398.37,1.031-.029,1.414l-2.212,2.124Z"/>
</svg>
