<?xml version="1.0" encoding="UTF-8"?>
<svg xmlns="http://www.w3.org/2000/svg" id="Layer_1" data-name="Layer 1" viewBox="0 0 24 24">
  <path d="m1.9,10.995c.557.051,1.04-.346,1.095-.896C3.456,5.482,7.327,2,12,2s8.544,3.482,9.005,8.1c.052.516.562,1.006,1.095.896.55-.055.95-.545.896-1.095C22.432,4.256,17.704,0,12,0S1.568,4.256,1.005,9.9c-.055.55.346,1.04.896,1.095Z"/>
  <path d="m23.674,13.811c-.347-.508-.921-.811-1.536-.811H1.862c-.615,0-1.189.303-1.536.811-.348.508-.422,1.153-.198,1.726,0,0,.169.423.198.472,1.622,2.706,3.927,2.964,5.973,2.992h4.701v3h-3c-.553,0-1,.447-1,1s.447,1,1,1h8c.553,0,1-.447,1-1s-.447-1-1-1h-3v-3h4.715c2.032-.028,4.337-.286,5.959-2.992.029-.049.198-.472.198-.472.224-.572.149-1.218-.198-1.726Zm-1.758,1.238c-.994,1.611-2.211,1.923-4.215,1.951H6.312c-2.018-.028-3.234-.34-4.229-1.951l-.02-.049h19.871l-.02.049Z"/>
</svg>
