<?xml version="1.0" encoding="UTF-8"?>
<svg xmlns="http://www.w3.org/2000/svg" id="Layer_1" data-name="Layer 1" viewBox="0 0 24 24">
  <path d="m23.158,9.879h0l-2.158-2.158v-1.721c0-1.654-1.346-3-3-3h-1.721l-2.157-2.157c-1.134-1.133-3.11-1.133-4.243,0l-2.158,2.157h-1.721c-1.654,0-3,1.346-3,3v1.721l-2.158,2.158c-1.168,1.17-1.168,3.072,0,4.242l2.158,2.158v1.721c0,1.654,1.346,3,3,3h1.721l2.157,2.157c.567.566,1.32.879,2.122.879s1.555-.312,2.121-.879l2.158-2.157h1.721c1.654,0,3-1.346,3-3v-1.721l2.158-2.158c1.168-1.17,1.168-3.072,0-4.242Zm-1.415,2.828l-2.451,2.451c-.188.188-.293.441-.293.707v2.135c0,.552-.449,1-1,1h-2.135c-.265,0-.52.105-.707.293l-2.451,2.45c-.377.379-1.036.379-1.414,0l-2.451-2.45c-.188-.188-.442-.293-.707-.293h-2.135c-.551,0-1-.448-1-1v-2.135c0-.266-.105-.52-.293-.707l-2.45-2.451c-.39-.39-.39-1.024,0-1.414l2.451-2.451c.188-.188.293-.441.293-.707v-2.135c0-.552.449-1,1-1h2.135c.265,0,.52-.105.707-.293l2.451-2.45c.377-.379,1.036-.379,1.414,0l2.451,2.45c.188.188.442.293.707.293h2.135c.551,0,1,.448,1,1v2.135c0,.266.105.52.293.707l2.45,2.451c.39.39.39,1.024,0,1.414Z"/>
</svg>
