<?xml version="1.0" encoding="UTF-8"?>
<svg xmlns="http://www.w3.org/2000/svg" id="Layer_1" data-name="Layer 1" viewBox="0 0 24 24">
  <path d="m3,17c.553,0,1-.447,1-1s.448-1,1-1h6v1c0,.553.447,1,1,1s1-.447,1-1v-1h6c.552,0,1,.448,1,1s.447,1,1,1,1-.447,1-1c0-1.654-1.346-3-3-3h-6v-1.101c1.08-.22,2.035-.79,2.74-1.585l.956.552c.157.091.329.134.499.134.346,0,.682-.179.867-.5.276-.479.112-1.09-.366-1.366l-.953-.55c.167-.498.257-1.03.257-1.583s-.091-1.086-.257-1.583l.953-.55c.479-.276.643-.888.366-1.366-.277-.479-.89-.643-1.366-.366l-.956.552c-.706-.795-1.66-1.365-2.74-1.585v-1.101c0-.552-.447-1-1-1s-1,.448-1,1v1.101c-1.08.22-2.035.79-2.74,1.585l-.956-.552c-.479-.277-1.09-.113-1.366.366-.276.479-.112,1.09.366,1.366l.953.55c-.167.498-.257,1.03-.257,1.583s.091,1.086.257,1.583l-.953.55c-.479.276-.643.888-.366,1.366.186.321.521.5.867.5.17,0,.342-.043.499-.134l.956-.552c.706.795,1.66,1.365,2.74,1.585v1.101h-6c-1.654,0-3,1.346-3,3,0,.553.447,1,1,1Zm6-10c0-1.654,1.346-3,3-3s3,1.346,3,3-1.346,3-3,3-3-1.346-3-3Zm4,11h-2c-1.103,0-2,.897-2,2v2c0,1.103.897,2,2,2h2c1.103,0,2-.897,2-2v-2c0-1.103-.897-2-2-2Zm0,4h-2v-2h2v2Zm9-4h-2c-1.103,0-2,.897-2,2v2c0,1.103.897,2,2,2h2c1.103,0,2-.897,2-2v-2c0-1.103-.897-2-2-2Zm0,4h-2v-2h2v2Zm-18-4h-2c-1.103,0-2,.897-2,2v2c0,1.103.897,2,2,2h2c1.103,0,2-.897,2-2v-2c0-1.103-.897-2-2-2Zm0,4h-2v-2h2v2Z"/>
</svg>
