<?xml version="1.0" encoding="UTF-8"?>
<svg xmlns="http://www.w3.org/2000/svg" id="Layer_1" data-name="Layer 1" viewBox="0 0 24 24">
  <path d="m21,4h-13c-1.657,0-3,1.343-3,3v3c0,1.657,1.343,3,3,3h13c1.657,0,3-1.343,3-3v-3c0-1.657-1.343-3-3-3Zm-10.13,5.234c.312.312.312.819,0,1.132-.156.156-.36.234-.565.234s-.409-.078-.565-.234l-.734-.734-.734.734c-.156.156-.36.234-.565.234s-.409-.078-.565-.234c-.312-.312-.312-.819,0-1.132l.734-.734-.734-.734c-.312-.312-.312-.819,0-1.132.312-.312.818-.312,1.131,0l.734.734.734-.734c.312-.312.818-.312,1.131,0,.312.312.312.819,0,1.132l-.734.734.734.734Zm5.495,0c.312.312.312.819,0,1.132-.156.156-.36.234-.565.234s-.409-.078-.565-.234l-.734-.734-.734.734c-.156.156-.36.234-.565.234s-.409-.078-.565-.234c-.312-.312-.312-.819,0-1.132l.734-.734-.734-.734c-.312-.312-.312-.819,0-1.132.312-.312.818-.312,1.131,0l.734.734.734-.734c.312-.312.818-.312,1.131,0,.312.312.312.819,0,1.132l-.734.734.734.734Zm5.531,0c.312.312.312.819,0,1.131-.156.156-.36.234-.565.234s-.409-.078-.565-.234l-.735-.735-.735.735c-.156.156-.36.234-.565.234s-.409-.078-.565-.234c-.312-.312-.312-.819,0-1.131l.734-.734-.734-.734c-.312-.312-.312-.819,0-1.131s.818-.313,1.131,0l.735.735.735-.735c.312-.312.818-.312,1.131,0s.312.819,0,1.131l-.734.734.734.734Zm-6.896,5.766c-.553,0-1,.448-1,1H2V5c0-1.654,1.346-3,3-3h7c.553,0,1-.448,1-1s-.447-1-1-1h-7C2.243,0,0,2.243,0,5v14c0,2.757,2.243,5,5,5h6c2.757,0,5-2.243,5-5v-3c0-.552-.447-1-1-1Zm-4,7h-6c-1.654,0-3-1.346-3-3v-1h12v1c0,1.654-1.346,3-3,3Zm-1.25-2c0,.552-.447,1-1,1h-1.5c-.553,0-1-.448-1-1s.447-1,1-1h1.5c.553,0,1,.448,1,1Z"/>
</svg>
