<?xml version="1.0" encoding="UTF-8"?>
<svg xmlns="http://www.w3.org/2000/svg" id="Layer_1" data-name="Layer 1" viewBox="0 0 24 24">
  <path d="m10,10c2.757,0,5-2.243,5-5S12.757,0,10,0s-5,2.243-5,5,2.243,5,5,5Zm0-8c1.654,0,3,1.346,3,3s-1.346,3-3,3-3-1.346-3-3,1.346-3,3-3Zm9,17h-1c0-4.411-3.589-8-8-8S2,14.589,2,19h-1c-.552,0-1,.447-1,1s.448,1,1,1v2c0,.553.448,1,1,1s1-.447,1-1v-2h14v2c0,.553.448,1,1,1s1-.447,1-1v-2c.552,0,1-.447,1-1s-.448-1-1-1Zm-10.75,0h-4.25c0-2.573,1.631-4.767,3.911-5.617l1.269,1.904-.93,3.713Zm3.499,0l-.93-3.713,1.269-1.904c2.28.851,3.911,3.044,3.911,5.617h-4.25ZM24,1c0,.553-.448,1-1,1v5.347c0,.623-.791.89-1.169.395l-1.331-1.743-1.331,1.743c-.378.495-1.169.228-1.169-.395V2c-.552,0-1-.447-1-1s.448-1,1-1h5c.552,0,1,.447,1,1Z"/>
</svg>
