<?xml version="1.0" encoding="UTF-8"?>
<svg xmlns="http://www.w3.org/2000/svg" id="Layer_1" data-name="Layer 1" viewBox="0 0 24 24">
  <path d="m12.6,17.6v1.801h1.601c.442,0,.8.358.8.8s-.358.8-.8.8h-1.601v2.2c0,.442-.358.8-.8.8s-.8-.358-.8-.8v-6.4c0-.442.358-.8.8-.8h2.4c.442,0,.8.358.8.8s-.358.8-.8.8h-1.601Zm10.201-1.6h0c-.442,0-.8.358-.8.8v6.4c0,.442.358.8.8.8h0c.442,0,.8-.358.8-.8v-6.4c0-.442-.358-.8-.8-.8Zm1.2-9v6c0,.553-.448,1-1,1s-1-.447-1-1v-3H2v9c0,1.654,1.346,3,3,3h3c.552,0,1,.447,1,1s-.448,1-1,1h-3c-2.757,0-5-2.243-5-5V7C0,4.243,2.243,2,5,2h1v-1c0-.553.448-1,1-1s1,.447,1,1v1h8v-1c0-.553.448-1,1-1s1,.447,1,1v1h1c2.757,0,5,2.243,5,5Zm-2,0c0-1.654-1.346-3-3-3H5c-1.654,0-3,1.346-3,3v1h20v-1Zm-2.167,13.544c.024-.014.753,2.423.753,2.423.156.514-.228,1.033-.765,1.033-.356,0-.732-.235-.832-.576l-.705-2.424h-.784v2.2c0,.442-.358.8-.8.8h0c-.442,0-.8-.358-.8-.8v-6.4c0-.442.358-.8.8-.8h1.567c1.284,0,2.456.908,2.613,2.182.121.976-.324,1.854-1.047,2.362Zm-.533-2.044c0-.496-.404-.9-.9-.9h-.9v1.8h.9c.496,0,.9-.404.9-.9Z"/>
</svg>
