<?xml version="1.0" encoding="UTF-8"?>
<svg xmlns="http://www.w3.org/2000/svg" id="Layer_1" data-name="Layer 1" viewBox="0 0 24 24">
  <path d="m8.514,10.922c1.076,0,1.708-.636,2.184-1.537.469-.889.667-2.071.544-3.244-.229-2.194-1.483-3.669-3.119-3.669-.007,0-.015,0-.022,0-.056-.204-.09-.413-.1-.622-.021-.459.04-.916.126-1.311.09-.414-.401-.708-.723-.432-.709.607-1.486,1.553-1.403,2.743.013.188.04.383.09.583-.087.103-.168.214-.243.332-.489.772-.691,1.837-.569,2.998.243,2.332,1.665,4.158,3.236,4.158Zm-.977-6.086c.186-.294.383-.346.52-.36.541,0,1.081.786,1.195,1.874.082.778-.039,1.563-.323,2.102-.169.32-.351.464-.414.47-.234-.012-1.082-.773-1.248-2.366-.074-.705.025-1.333.27-1.72Zm8.085,6.073c1.571,0,2.993-1.827,3.236-4.158.121-1.16-.081-2.224-.569-2.998-.105-.165-.221-.316-.349-.452.031-.154.049-.304.06-.45.083-1.191-.694-2.137-1.403-2.743-.322-.276-.813.018-.723.432.086.395.147.852.126,1.311-.009.205-.042.41-.097.61-1.572.062-2.785,1.523-3.009,3.667-.123,1.174.076,2.356.544,3.244.475.901,1.151,1.537,2.184,1.537Zm-.739-4.573c.114-1.087.589-1.877,1.13-1.877.133.014.399.07.584.363.246.389.344,1.016.271,1.721-.166,1.593-1.013,2.354-1.25,2.366-.06-.006-.242-.15-.411-.47-.284-.539-.405-1.325-.324-2.103ZM4.96,14.589c.425-.807.605-1.882.494-2.949-.209-1.995-1.487-3.331-2.975-3.331-.023,0-.012,0,0,0-.279-.434-.45-.947-.473-1.457-.021-.459.04-.916.126-1.311.09-.414-.401-.708-.723-.432C.7,5.714-.077,6.66.006,7.851c.032.465.188,1.097.544,1.63,0,0,.002-.004,0,0-.444.702-.628,1.67-.518,2.726.222,2.12,1.514,3.78,2.942,3.78.923,0,1.553-.579,1.986-1.398Zm-1.769-.933c-.113.214-.228.321-.193.333-.224-.052-.844-.721-.976-1.99-.063-.602.017-1.129.218-1.448.142-.224.276-.238.338-.244l.041-.002c.337,0,.746.578.847,1.543.07.673-.032,1.349-.274,1.808Zm-.712-5.347s0,0,0,0c.012,0,.024,0,0,0Zm20.117-3.202c-.322-.276-.813.018-.723.432.086.395.147.852.126,1.311-.023.516-.198,1.035-.482,1.472-1.553-.097-2.748,1.276-2.961,3.326-.111,1.065.068,2.138.494,2.944.432.818.95,1.395,1.981,1.395,1.425,0,2.715-1.658,2.936-3.773.106-1.007-.059-1.934-.461-2.627.285-.545.465-1.327.493-1.736.083-1.191-.694-2.137-1.403-2.743Zm-.618,6.898c-.132,1.263-.748,1.931-.897,1.99-.037-.018-.15-.125-.262-.336-.242-.458-.344-1.132-.273-1.803.1-.962.506-1.537.841-1.537l.044.002c.057.006.19.02.33.241.201.318.281.843.218,1.442Zm-9.979.994c-4.187,0-8,3.575-8,7.5,0,2.159,1.221,3.5,3.188,3.5.74,0,1.434-.226,2.167-.464.811-.264,1.649-.536,2.645-.536s1.834.272,2.645.536c.734.238,1.427.464,2.167.464,1.966,0,3.188-1.341,3.188-3.5,0-3.925-3.813-7.5-8-7.5Zm4.812,9c-.423,0-.945-.169-1.549-.366-.869-.282-1.95-.634-3.263-.634s-2.395.352-3.263.634c-.604.197-1.126.366-1.549.366-.587,0-1.188-.178-1.188-1.5,0-2.776,2.972-5.5,6-5.5s6,2.724,6,5.5c0,1.322-.6,1.5-1.188,1.5Z"/>
</svg>
