<?xml version="1.0" encoding="UTF-8"?>
<svg xmlns="http://www.w3.org/2000/svg" id="Layer_1" data-name="Layer 1" viewBox="0 0 24 24">
  <path d="m10,15c0,.552-.448,1-1,1-3.86,0-7,3.14-7,7,0,.552-.448,1-1,1s-1-.448-1-1c0-4.962,4.038-9,9-9,.552,0,1,.448,1,1Zm14,2.5v3c0,1.93-1.57,3.5-3.5,3.5h-5c-1.93,0-3.5-1.57-3.5-3.5v-3c0-1.758,1.308-3.204,3-3.449v-.051c0-1.103.897-2,2-2h2c1.103,0,2,.897,2,2v.051c1.692.245,3,1.691,3,3.449Zm-10,0v.5h8v-.5c0-.827-.673-1.5-1.5-1.5h-5c-.827,0-1.5.673-1.5,1.5Zm8,3v-.5h-3c0,.552-.448,1-1,1s-1-.448-1-1h-3v.5c0,.827.673,1.5,1.5,1.5h5c.827,0,1.5-.673,1.5-1.5ZM.873,12.822c.308-1.306,1.854-7.849,2.026-8.385C3.758,1.783,6.209,0,9,0s5.242,1.783,6.101,4.437c.033.101.132.408,1.303,5.332.128.537-.201,1.231-.974,1.231-.453,0-.863-.309-.972-.769-1.06-4.456-1.233-5.092-1.261-5.181-.305-.942-.905-1.719-1.675-2.256-.528,1.312-1.447,2.423-2.669,3.185-1.081.674-2.303,1.021-3.546,1.021-.055,0-.111-.008-.167-.01.444,1.725,1.999,3.009,3.861,3.009.703,0,1.395-.185,2-.535.477-.277,1.089-.114,1.366.365.276.478.113,1.09-.365,1.366-.909.525-1.946.803-3,.803-2.203,0-4.128-1.197-5.171-2.972-.344,1.439-.717,3.01-1.01,4.253-.108.46-.519.771-.972.771-.741,0-1.101-.692-.974-1.229Zm3.969-7.864c1.031.102,2.06-.118,2.952-.675.856-.534,1.491-1.314,1.863-2.23-.215-.032-.434-.052-.657-.052-1.886,0-3.54,1.187-4.158,2.958Z"/>
</svg>
