<?xml version="1.0" encoding="UTF-8"?>
<svg xmlns="http://www.w3.org/2000/svg" id="Layer_1" data-name="Layer 1" viewBox="0 0 24 24">
  <path d="m24,12c0,.553-.447,1-1,1H1c-.553,0-1-.447-1-1s.447-1,1-1h22c.553,0,1,.447,1,1Zm-7,3c-.553,0-1,.447-1,1v7c0,.553.447,1,1,1s1-.447,1-1v-7c0-.553-.447-1-1-1Zm-4,0c-.553,0-1,.447-1,1v4c0,1.103-.897,2-2,2s-2-.897-2-2v-4c0-.553-.447-1-1-1s-1,.447-1,1v4c0,2.206,1.794,4,4,4s4-1.794,4-4v-4c0-.553-.447-1-1-1Zm-5-6c2.206,0,4-1.794,4-4V1c0-.553-.447-1-1-1s-1,.447-1,1v4c0,1.103-.897,2-2,2s-2-.897-2-2V1c0-.553-.447-1-1-1s-1,.447-1,1v4c0,2.206,1.794,4,4,4Zm6.504-.132c.156.09.327.132.495.132.348,0,.685-.181.869-.504l1.132-1.981,1.132,1.981c.185.323.521.504.869.504.168,0,.339-.042.495-.132.479-.274.646-.885.372-1.364l-1.716-3.004,1.716-3.004c.274-.479.107-1.09-.372-1.364-.481-.276-1.091-.107-1.364.372l-1.132,1.981-1.132-1.981c-.273-.479-.885-.648-1.364-.372-.479.274-.646.885-.372,1.364l1.716,3.004-1.716,3.004c-.274.479-.107,1.09.372,1.364Z"/>
</svg>
