<?xml version="1.0" encoding="UTF-8"?>
<svg xmlns="http://www.w3.org/2000/svg" id="Layer_1" data-name="Layer 1" viewBox="0 0 24 24">
  <path d="m23,13c0,6.065-4.935,11-11,11S1,19.065,1,13c0-.552.448-1,1-1s1,.448,1,1c0,4.963,4.038,9,9,9s9-4.037,9-9c0-.552.448-1,1-1s1,.448,1,1Zm-8-1c0,.535-.141,1.037-.386,1.472.833.534,1.386,1.468,1.386,2.528,0,1.654-1.346,3-3,3h-2c-1.103,0-2-.897-2-2v-6c0-1.103.897-2,2-2h1c1.654,0,3,1.346,3,3Zm-4,1h1c.551,0,1-.449,1-1s-.449-1-1-1h-1v2Zm3,3c0-.552-.449-1-1-1h-2v2h2c.551,0,1-.448,1-1ZM1.169,9.53c-.09.281.015.587.257.755.23.159.535.159.765-.002l1.305-.912,1.309.912c.228.158.529.16.759.005l.006-.004c.248-.168.354-.48.26-.764l-.476-1.447,1.221-.853c.228-.159.334-.442.266-.712l-.004-.014c-.075-.298-.343-.507-.65-.507h-1.585l-.371-1.421c-.087-.333-.387-.565-.731-.565s-.644.232-.731.564l-.371,1.421H.803c-.308,0-.577.21-.651.51l-.005.02c-.066.269.04.552.268.71l1.219.849-.465,1.456Zm22.672-3.023l-.004-.014c-.075-.298-.343-.507-.65-.507h-1.585l-.371-1.421c-.087-.333-.387-.565-.731-.565s-.644.232-.731.564l-.371,1.421h-1.595c-.308,0-.577.21-.651.51l-.005.02c-.066.269.04.552.268.71l1.219.849-.465,1.456c-.09.281.015.587.257.755.23.159.535.159.765-.002l1.305-.912,1.309.912c.228.158.529.16.759.005l.006-.004c.248-.168.354-.48.26-.764l-.476-1.447,1.221-.853c.228-.159.334-.442.266-.712Zm-14.926-3.282l1.219.849-.465,1.456c-.09.281.015.587.257.755.23.159.535.159.765-.002l1.305-.912,1.309.912c.228.158.529.16.759.005l.006-.004c.248-.168.354-.48.26-.764l-.476-1.447,1.221-.853c.228-.159.334-.442.266-.712l-.004-.014c-.075-.298-.343-.507-.65-.507h-1.585l-.371-1.421c-.087-.333-.387-.565-.731-.565s-.644.232-.731.564l-.371,1.421h-1.595c-.308,0-.577.21-.651.51l-.005.02c-.066.269.04.552.268.71Z"/>
</svg>
