<?xml version="1.0" encoding="UTF-8"?>
<svg xmlns="http://www.w3.org/2000/svg" id="Layer_1" data-name="Layer 1" viewBox="0 0 24 24">
  <path d="m19,16.5c0,.828-.672,1.5-1.5,1.5s-1.5-.672-1.5-1.5.672-1.5,1.5-1.5,1.5.672,1.5,1.5Zm5-.499c0,4.411-3.588,7.999-7.999,7.999h-7.274C3.915,24,0,20.085,0,15.273c0-3.367.987-6.628,2.855-9.431l.493-.739C1.556,4.34.246,2.655.004.65-.038.3.235-.023.586.002c3.667.26,4.914,2.773,4.914,2.773C5.5,2.774,6.703.259,10.414.001c.351-.024.624.299.582.649-.275,2.287-1.943,4.16-4.129,4.72l-.463,2.747c-.2,1.185-.326,2.389-.377,3.594,2.872-2.379,5.879-3.711,8.474-3.711.559,0,1.864,0,1.864,0v.009c.621.028,1.223.127,1.8.29L22.877.297c.169-.287.538-.383.825-.214.235.138.349.417.277.68l-2.56,9.36c1.586,1.463,2.581,3.557,2.581,5.878Zm-2,0c0-3.305-2.688-5.996-5.993-5.999-.314-.006-.752-.002-1.507-.002-2.559,0-5.845,1.76-8.793,4.707-.287.286-.716.372-1.09.217-.374-.154-.617-.52-.617-.924v-1.059c0-1.725.146-3.459.432-5.156l.158-.939c-1.648,2.473-2.59,5.457-2.59,8.428,0,3.709,3.018,6.727,6.727,6.727h7.274c3.308,0,5.999-2.691,5.999-5.999Z"/>
</svg>
