<?xml version="1.0" encoding="UTF-8"?>
<svg xmlns="http://www.w3.org/2000/svg" id="Layer_1" data-name="Layer 1" viewBox="0 0 24 24">
  <path d="m18.571,2.126L12.312.051c-.205-.067-.425-.067-.63,0l-6.258,2.075c-2.05.679-3.427,2.586-3.427,4.746v5.171c0,6.563,7.005,10.577,9.153,11.65,0,0,.479.307.85.307.399,0,.964-.311,1.061-.352,2.422-1.026,8.937-4.457,8.937-11.605v-5.171c0-2.159-1.377-4.066-3.427-4.746Zm1.427,9.917c0,6.181-6.088,9.11-7.954,9.861-1.888-.944-8.047-4.445-8.047-9.861v-5.171c0-1.296.826-2.44,2.056-2.848l5.944-1.971,5.945,1.971c1.229.408,2.056,1.552,2.056,2.848v5.171Zm-4.002-2.543c-.387,0-.946-.253-1.268-.738-.731-1.104-2.035-1.762-3.486-1.762h-.242v-1.79c0-.503-.517-.851-.979-.654-.894.381-1.521,1.268-1.521,2.302v.895s-1.577,2.983-1.577,2.983c-.468.934-.55,2.002-.225,2.931.577,1.649,1.983,3.066,3.062,3.964.274.228.612.348.956.348.15,0,.301-.023.448-.069.479-.151.844-.531.977-1.015l.52-1.894h1.642c1.684,0,3.157-1.112,3.584-2.704.272-1.017-.003-1.663-.281-2.026-.562-.733-1.439-.77-1.609-.77Zm-.041,2.279c-.193.719-.872,1.221-1.652,1.221h-2.404c-.45,0-.845.301-.964.735l-.5,1.822c-.926-.875-1.573-1.763-1.849-2.551-.147-.421-.101-.922.115-1.355l1.402-2.65h1.14c.768,0,1.465.333,1.819.867.656.992,1.809,1.633,2.935,1.633v-.054s.023.093-.041.333Z"/>
</svg>
