<?xml version="1.0" encoding="UTF-8"?>
<svg xmlns="http://www.w3.org/2000/svg" id="Layer_1" data-name="Layer 1" viewBox="0 0 24 24">
  <path d="m24,12c0,6.617-5.383,12-12,12S0,18.617,0,12,5.383,0,12,0c.553,0,1,.447,1,1s-.447,1-1,1C6.486,2,2,6.486,2,12s4.486,10,10,10,10-4.486,10-10c0-.553.447-1,1-1s1,.447,1,1ZM22,0h-4c-.553,0-1,.447-1,1s.447,1,1,1h2.586l-3.293,3.293c-.391.391-.391,1.023,0,1.414.195.195.451.293.707.293s.512-.098.707-.293l3.293-3.293v2.586c0,.553.447,1,1,1s1-.447,1-1V2c0-1.103-.897-2-2-2Zm-9,6c0-.553-.447-1-1-1s-1,.447-1,1v1c-1.654,0-3,1.346-3,3,0,1.359.974,2.51,2.315,2.733l3.04.506c.374.062.645.382.645.761,0,.552-.448,1-1,1h-2.268c-.356,0-.688-.191-.867-.501-.276-.479-.887-.643-1.366-.364-.478.276-.642.888-.364,1.366.534.925,1.53,1.499,2.598,1.499h.268v1c0,.553.447,1,1,1s1-.447,1-1v-1c1.654,0,3-1.346,3-3,0-1.359-.974-2.51-2.315-2.733l-3.04-.506c-.374-.062-.645-.382-.645-.761,0-.552.448-1,1-1h2.268c.356,0,.688.191.867.501.275.478.886.642,1.366.364.478-.276.642-.888.364-1.366-.534-.925-1.53-1.499-2.598-1.499h-.268v-1Z"/>
</svg>
