<?xml version="1.0" encoding="UTF-8"?>
<svg xmlns="http://www.w3.org/2000/svg" id="Layer_1" data-name="Layer 1" viewBox="0 0 24 24">
  <path d="m21.618,5c-.309,0-.586-.171-.724-.447-.479-.958-1.442-1.553-2.512-1.553h-1.382V.77c0-.525-.522-.904-1.015-.726-1.157.416-1.985,1.523-1.985,2.824v1.632l-.964,2.839c-.143.395-.521.66-.94.661l-5.098.003c-1.091,0-2.1.353-2.923.948-.6-.277-2.075-1.141-2.075-2.951,0-.552-.448-1-1-1s-1,.448-1,1c0,2.472,1.596,3.834,2.688,4.476-.437.742-.687,1.606-.687,2.528l.002,8.002c0,1.653,1.346,2.998,2.999,2.998s2.999-1.345,2.999-2.999v-2.002l5-.003v2.001c0,1.653,1.345,2.999,3.005,2.999s2.999-1.345,2.999-2.999v-2.766c0-.418.044-.837.131-1.247l1.062-4.994c2.115-.102,3.804-1.855,3.804-3.995v-.5c0-1.834-1.424-2.5-2.382-2.5Zm.382,3c0,1.103-.897,2-2,2-.827,0-1.551.587-1.721,1.394l-1.101,5.179c-.116.546-.175,1.105-.175,1.663v2.766c0,.551-.448.999-1.005.999-.551,0-.999-.448-.999-.999v-3.001c0-.265-.105-.52-.293-.708-.188-.187-.442-.292-.707-.292h0l-7,.004c-.552,0-1,.448-1,1v3.001c0,.551-.448.999-.999.999s-.999-.448-.999-.999l-.002-8.002c0-1.654,1.345-3,2.998-3.001l5.098-.003c1.259,0,2.393-.797,2.82-1.982l1.089-3.018h2.375c.309,0,.586.171.724.447.479.958,1.442,1.553,2.512,1.553.382,0,.382.363.382.5v.5Z"/>
</svg>
