<?xml version="1.0" encoding="UTF-8"?>
<svg xmlns="http://www.w3.org/2000/svg" id="Layer_1" data-name="Layer 1" viewBox="0 0 24 24">
  <path d="m23.442,7.067c-.304-.308-1.38-1.355-2.719-2.14.785-.731,1.276-1.772,1.276-2.927,0-.552-.447-1-1-1s-1,.448-1,1c0,1.103-.897,2-2,2h-.5c-1.379,0-2.5-1.122-2.5-2.5v-.5c0-.552-.447-1-1-1s-1,.448-1,1v.5c0,.924.28,1.784.76,2.5h-1.26c-1.379,0-2.5-1.122-2.5-2.5v-.5c0-.552-.447-1-1-1s-1,.448-1,1v.5c0,2.481,2.019,4.5,4.5,4.5h1.308c-.616.942-.808,1.988-.808,2.586v.914c0,.276-.225.5-.5.5h-6.331c-1.12,0-2.172.44-2.962,1.239-.062.063-2.931,3.071-2.931,3.071-.381.399-.366,1.032.033,1.414.193.185.442.276.69.276.264,0,.526-.104.724-.31l.35-.367c.118.936.362,1.645.616,2.383.101.294.207.6.31.939v2.354c0,1.654,1.346,3,3,3s3-1.346,3-3v-1h3v1c0,1.654,1.346,3,3,3s3-1.346,3-3v-2.115c.627-.746,2-2.695,2-5.485v-2.007l2.099-.24c1.084-.135,1.901-1.06,1.901-2.153,0-.511-.072-1.441-.558-1.933Zm-1.58,2.1l-2.089.238c-1.011.115-1.773.97-1.773,1.987v2.007c0,2.669-1.684,4.37-1.697,4.384-.193.188-.303.446-.303.717v2.5c0,.552-.448,1-1,1s-1-.448-1-1v-2c0-.553-.447-1-1-1h-5c-.553,0-1,.447-1,1v2c0,.552-.448,1-1,1s-1-.448-1-1v-2.5c0-.096-.014-.19-.04-.281-.125-.427-.255-.804-.379-1.162-.316-.921-.566-1.648-.58-2.863-.007-.582.217-1.132.628-1.548.412-.416.958-.645,1.54-.645h6.331c1.379,0,2.5-1.122,2.5-2.5v-.914c0-.265.08-2.586,2.867-2.586,1.15,0,2.893,1.221,4.066,2.386.034.129.066.39.066.614,0,.085-.063.158-.138.167Z"/>
</svg>
