<?xml version="1.0" encoding="UTF-8"?>
<svg xmlns="http://www.w3.org/2000/svg" id="Layer_1" data-name="Layer 1" viewBox="0 0 24 24">
  <path d="m22.014,5.835l-7.419-3.558c-1.65-.79-3.541-.79-5.189,0L1.986,5.835c-1.207.579-1.986,1.818-1.986,3.156v1.162c0,1.338.779,2.577,1.986,3.156l7.412,3.554c.824.395,1.709.593,2.594.593.891,0,1.78-.2,2.609-.6l7.42-3.583c1.202-.581,1.979-1.817,1.979-3.152v-1.13c0-1.338-.779-2.577-1.986-3.156Zm-11.743-1.754c1.1-.527,2.361-.527,3.459,0l6.957,3.336-8.563,4.107c-.123.074-.246,0-.246,0L3.313,7.418l6.958-3.336Zm-7.419,7.424c-.518-.248-.852-.779-.852-1.353v-1.146l9,4.316v1.995c-.25-.065-.498-.143-.736-.257l-7.412-3.554Zm18.301-.033l-7.42,3.583c-.237.114-.484.192-.732.257v-1.99l9-4.316v1.115c0,.572-.333,1.102-.848,1.351Zm2.748,4.33c.24.498.032,1.095-.466,1.335l-8.833,4.265c-.829.4-1.72.601-2.609.601-.885,0-1.77-.198-2.594-.594L.567,17.176c-.498-.239-.708-.836-.469-1.334.239-.499.833-.709,1.334-.47l8.831,4.234c1.101.529,2.366.527,3.469-.004l8.833-4.265c.498-.24,1.095-.031,1.335.465Z"/>
</svg>
