<?xml version="1.0" encoding="UTF-8"?>
<svg xmlns="http://www.w3.org/2000/svg" id="Layer_1" data-name="Layer 1" viewBox="0 0 24 24">
  <path d="m21.999,22.941c.032.552-.389,1.024-.94,1.057-.02,0-.04.002-.059.002-.525,0-.966-.41-.998-.941-.069-1.184-.831-2.217-1.942-2.634l-5.404-2.026c-.39-.146-.649-.52-.649-.937v-5.354c0-.538-.362-1.018-.825-1.093-.302-.053-.596.029-.823.224-.224.19-.353.468-.353.762v8.455c0,.607-.34,1.149-.888,1.414-.547.263-1.183.194-1.66-.185l-1.712-1.363c-.012-.009-.016-.023-.027-.032-.01-.009-.023-.011-.033-.02-.402-.373-1.034-.354-1.41.048-.377.403-.356,1.038.046,1.416l.568.548c.648.624.206,1.72-.694,1.72-.259,0-.508-.1-.694-.28l-.558-.538c-1.196-1.12-1.26-3.022-.13-4.23,1.104-1.183,2.945-1.261,4.155-.205.006.005.014.006.021.011l1.015.808v-7.564c0-.881.385-1.714,1.056-2.285.671-.571,1.558-.816,2.44-.675,1.428.232,2.504,1.552,2.504,3.067v4.661l4.755,1.783c1.851.695,3.121,2.418,3.236,4.39ZM5.16,3.416c-.018-.036-.103-.083-.16-.083-.055,0-.145.055-.167.102l-.725,2.121h1.784l-.732-2.139ZM0,5C0,2.239,2.239,0,5,0s5,2.239,5,5-2.239,5-5,5S0,7.761,0,5Zm2.959,2.778c.232,0,.439-.148.515-.368l.254-.743h2.544l.254.743c.075.22.282.368.514.368h0c.372,0,.634-.365.515-.717l-1.362-4.055c-.286-.647-.685-.784-1.194-.784-.509,0-.909.137-1.202.804l-1.354,4.034c-.118.352.144.717.515.717Zm13.485-1.111h1.643c.29,0,.549-.211.577-.499.033-.331-.228-.612-.553-.612h-2.222v.556c0,.307.248.556.555.556Zm1.664-2.834c-.029-.288-.288-.499-.578-.499h-1.086c-.307,0-.556.249-.556.556v.556h1.667c.325,0,.586-.281.553-.612Zm-6.108,1.167c0-2.761,2.239-5,5-5s5,2.239,5,5-2.239,5-5,5-5-2.239-5-5Zm2.778,1c0,.982.796,1.778,1.778,1.778h1.512c.876,0,1.635-.657,1.705-1.53.052-.645-.267-1.222-.765-1.541.144-.254.223-.549.214-.863-.024-.911-.801-1.622-1.713-1.622h-.848c-1.088,0-1.883.796-1.883,1.778v2Z"/>
</svg>
