<?xml version="1.0" encoding="UTF-8"?>
<svg xmlns="http://www.w3.org/2000/svg" id="Layer_1" data-name="Layer 1" viewBox="0 0 24 24">
  <path d="m22.736,9.473c-1.342-1.371-4.464-2.078-7.639-2.345.257-.487.402-1.041.402-1.628,0-1.248-.657-2.346-1.644-2.966.487-.289,1.182-.534,2.144-.534.553,0,1-.448,1-1s-.447-1-1-1c-1.979,0-3.25.749-4,1.437-.75-.687-2.021-1.437-4-1.437-.553,0-1,.448-1,1s.447,1,1,1c.961,0,1.657.245,2.144.534-.987.62-1.644,1.717-1.644,2.966,0,.587.146,1.141.402,1.628-3.175.266-6.296.974-7.639,2.345-1.68,1.717-1.68,4.51,0,6.226.821.839,1.914,1.301,3.077,1.301,1.086,0,2.109-.402,2.909-1.137.527,2.748,1.783,5.67,2.717,7.053.457.679,1.218,1.084,2.033,1.084s1.576-.405,2.033-1.083c.934-1.384,2.19-4.306,2.717-7.054.799.735,1.823,1.137,2.909,1.137,1.163,0,2.256-.462,3.077-1.301,1.68-1.716,1.68-4.509,0-6.227Zm-10.736-5.473c.827,0,1.5.673,1.5,1.5s-.673,1.5-1.5,1.5-1.5-.673-1.5-1.5.673-1.5,1.5-1.5Zm-.445,6.323c.151-.211.3-.418.445-.62.145.202.294.409.445.62.633.882,1.303,1.816,1.944,2.677h-4.778c.641-.861,1.311-1.794,1.944-2.677Zm-5.565,3.978c-.883.898-2.413.9-3.296,0-.925-.945-.925-2.483,0-3.429.762-.779,3.32-1.609,7.312-1.821-1.339,1.865-3.08,4.292-4.017,5.25Zm6.386,7.498c-.118.175-.286.201-.375.201s-.257-.026-.375-.202c-.424-.628-.924-1.639-1.374-2.798h3.498c-.449,1.159-.95,2.17-1.374,2.799Zm2.046-4.799h-4.842c-.191-.673-.348-1.352-.45-2h5.741c-.102.648-.258,1.327-.45,2Zm6.886-2.699c-.883.901-2.413.899-3.296,0-.937-.957-2.678-3.384-4.017-5.25,3.992.212,6.551,1.042,7.312,1.82.925.946.925,2.484,0,3.429Z"/>
</svg>
