<?xml version="1.0" encoding="UTF-8"?>
<svg xmlns="http://www.w3.org/2000/svg" id="Layer_1" data-name="Layer 1" viewBox="0 0 24 24">
  <path d="m8,22h-3c-1.654,0-3-1.346-3-3v-4c0-1.654,1.346-3,3-3h5c1.081,0,2.083.586,2.615,1.528.272.482.882.652,1.362.38.481-.271.651-.882.38-1.362-.346-.613-.813-1.131-1.359-1.54,0-.002.001-.004.001-.006v-3c0-.772-.445-1.437-1.088-1.77.052-.239.088-.482.088-.73,0-1.93-1.57-3.5-3.5-3.5s-3.5,1.57-3.5,3.5c0,.169.017.335.041.5h-1.041c-1.103,0-2,.897-2,2v3c0,.008.004.014.004.022-1.21.913-2.004,2.349-2.004,3.978v4c0,2.757,2.243,5,5,5h3c.552,0,1-.447,1-1s-.448-1-1-1Zm-1-16.5c0-.827.673-1.5,1.5-1.5s1.5.673,1.5,1.5c0,.188-.037.356-.09.5h-2.82c-.054-.144-.09-.312-.09-.5Zm-3,4.5v-2h7v2h-7ZM16.5,0c-1.93,0-3.5,1.57-3.5,3.5s1.57,3.5,3.5,3.5,3.5-1.57,3.5-3.5-1.57-3.5-3.5-3.5Zm0,5c-.827,0-1.5-.673-1.5-1.5s.673-1.5,1.5-1.5,1.5.673,1.5,1.5-.673,1.5-1.5,1.5Zm1.1,11.8v6.4c0,.442-.358.8-.8.8h0c-.442,0-.8-.358-.8-.8v-6.4c0-.442.358-.8.8-.8h0c.442,0,.8.358.8.8Zm-2.5,0c0,.441-.358.8-.8.8h-1.5v5.612c0,.441-.358.8-.8.8s-.8-.358-.8-.8v-5.612h-1.4c-.442,0-.8-.358-.8-.8s.358-.8.8-.8h4.5c.442,0,.8.358.8.8Zm6.4-.8h-1.7c-.442,0-.8.358-.8.8v6.4c0,.442.358.8.8.8s.8-.358.8-.8v-2.2h.9c1.381,0,2.5-1.119,2.5-2.5s-1.119-2.5-2.5-2.5Zm0,3.4h-.9v-1.801h.9c.497,0,.9.403.9.9s-.403.9-.9.9Z"/>
</svg>
