<?xml version="1.0" encoding="UTF-8"?>
<svg xmlns="http://www.w3.org/2000/svg" id="Layer_1" data-name="Layer 1" viewBox="0 0 24 24">
  <path d="m19,5h-2.101c-.465-2.279-2.484-4-4.899-4h-7C2.243,1,0,3.243,0,6v9c0,1.881,1.309,3.452,3.061,3.877-.038.204-.061.412-.061.623,0,1.93,1.57,3.5,3.5,3.5s3.5-1.57,3.5-3.5c0-.169-.017-.335-.041-.5h4.082c-.024.165-.041.331-.041.5,0,1.93,1.57,3.5,3.5,3.5s3.5-1.57,3.5-3.5c0-.211-.023-.419-.061-.623,1.752-.425,3.061-1.996,3.061-3.877v-5c0-2.757-2.243-5-5-5Zm3,5v1h-5v-4h2c1.654,0,3,1.346,3,3ZM2,15V6c0-1.654,1.346-3,3-3h7c1.654,0,3,1.346,3,3v11H4c-1.103,0-2-.897-2-2Zm6,4.5c0,.827-.673,1.5-1.5,1.5s-1.5-.673-1.5-1.5c0-.19.039-.356.093-.5h2.814c.054.144.093.31.093.5Zm9.5,1.5c-.827,0-1.5-.673-1.5-1.5,0-.19.039-.356.093-.5h2.814c.054.144.093.31.093.5,0,.827-.673,1.5-1.5,1.5Zm2.5-4h-3v-4h5v2c0,1.103-.897,2-2,2Zm-15.707-6.192c-.391-.391-.391-1.023,0-1.414s1.023-.391,1.414,0l1.402,1.402c.346.346.91.346,1.256,0l2.919-2.995c.386-.395,1.021-.402,1.414-.018.396.386.403,1.019.018,1.415l-2.928,3.003c-.568.568-1.312.852-2.054.852s-1.478-.281-2.039-.843l-1.402-1.402Z"/>
</svg>
