<?xml version="1.0" encoding="UTF-8"?>
<svg xmlns="http://www.w3.org/2000/svg" id="Layer_1" data-name="Layer 1" viewBox="0 0 24 24">
  <path d="m13.5,12.5c0,.828-.672,1.5-1.5,1.5s-1.5-.672-1.5-1.5.672-1.5,1.5-1.5,1.5.672,1.5,1.5Zm9.731,6.584c-.28.501-.742.86-1.3,1.011-1.732.468-3.831.902-5.637.902-.337,0-.663-.015-.975-.048-.359.697-.942,1.488-1.742,2.359-.405.44-.98.692-1.577.692s-1.172-.252-1.577-.691c-.801-.872-1.384-1.663-1.742-2.36-1.987.209-4.558-.299-6.613-.854-.557-.15-1.019-.51-1.299-1.011-.28-.501-.344-1.08-.181-1.631.539-1.822,1.324-3.974,2.357-5.537-.479-.48-1.115-1.38-1.797-3.127-.217-.556-.192-1.184.071-1.72.262-.537.742-.942,1.315-1.113,2.456-.727,3.612-.554,4.152-.369.846-1.72,2.414-3.538,3.8-4.95.808-.822,2.224-.821,3.028,0,1.386,1.412,2.955,3.23,3.8,4.951.54-.184,1.695-.359,4.152.37.574.171,1.054.576,1.316,1.114.263.537.288,1.164.069,1.721-.681,1.745-1.316,2.645-1.795,3.125,1.032,1.563,1.818,3.716,2.356,5.537.163.551.1,1.13-.181,1.631Zm-5.314-11.585c.011.111.017.221.017.329,0,.562-.085,1.125-.25,1.672.561.124,1.096.325,1.588.6.155.086.307.189.455.304.31-.349.763-1.064,1.262-2.342.016-.04.014-.078-.004-.114-.013-.026-.038-.06-.088-.074-1.778-.528-2.694-.49-2.98-.375Zm-14.907.563c.499,1.279.953,1.994,1.262,2.343.148-.116.3-.218.455-.304.492-.274,1.027-.476,1.587-.6-.165-.547-.25-1.11-.25-1.672,0-.108.006-.218.017-.33-.284-.114-1.198-.153-2.98.376-.04.012-.069.036-.087.073-.018.037-.02.075-.004.114Zm9.095,13.892c.54-.588.967-1.133,1.253-1.596-.504-.297-.962-.666-1.358-1.098-.396.431-.853.8-1.358,1.098.286.462.713,1.008,1.253,1.597.056.061.153.062.209,0Zm9.389-3.934c-.958-3.243-2.183-5.609-3.196-6.174-.61-.34-1.288-.52-2.052-.489-.35.005-.7-.182-.885-.494-.183-.313-.183-.701.002-1.014.379-.644.571-1.324.571-2.021,0-1.154-1.475-3.373-3.848-5.791h-.174c-2.374,2.419-3.848,4.638-3.848,5.791,0,.696.192,1.376.572,2.021.184.312.185.7.001,1.013-.183.313-.491.494-.884.495-.764-.022-1.441.149-2.053.489-1.012.564-2.236,2.93-3.196,6.174l.083.144c3.278.886,5.943,1.081,6.957.52.661-.368,1.206-.925,1.575-1.609.174-.323.512-.525.88-.525s.706.202.88.525c.369.685.914,1.24,1.574,1.608,1.016.564,3.68.367,6.957-.519,0,0,.083-.143.083-.144Z"/>
</svg>
