<?xml version="1.0" encoding="UTF-8"?>
<svg xmlns="http://www.w3.org/2000/svg" id="Layer_1" data-name="Layer 1" viewBox="0 0 24 24">
  <path d="m14.928,9h.072c1.654,0,3-1.346,3-3v-3c0-1.654-1.346-3-3-3h-6c-1.654,0-3,1.346-3,3v3c0,1.654,1.346,3,3,3h.202l1.834,1.617c.29.256.653.384,1.016.384.358,0,.716-.126.998-.376l1.878-1.624Zm-2.877-.156l-1.81-1.594c-.183-.161-.418-.25-.661-.25h-.58c-.552,0-1-.449-1-1v-3c0-.551.448-1,1-1h6c.552,0,1,.449,1,1v3c0,.551-.448,1-1,1h-.444c-.24,0-.473.086-.654.244l-1.851,1.601Zm-6.551,9.156c1.93,0,3.5-1.57,3.5-3.5s-1.57-3.5-3.5-3.5-3.5,1.57-3.5,3.5,1.57,3.5,3.5,3.5Zm0-5c.827,0,1.5.673,1.5,1.5s-.673,1.5-1.5,1.5-1.5-.673-1.5-1.5.673-1.5,1.5-1.5Zm9.5,1.5c0,1.93,1.57,3.5,3.5,3.5s3.5-1.57,3.5-3.5-1.57-3.5-3.5-3.5-3.5,1.57-3.5,3.5Zm3.5-1.5c.827,0,1.5.673,1.5,1.5s-.673,1.5-1.5,1.5-1.5-.673-1.5-1.5.673-1.5,1.5-1.5Zm-7.563,9.649c.193.517-.068,1.094-.585,1.288-.116.043-.234.064-.352.064-.404,0-.786-.248-.937-.649-.527-1.406-1.959-2.351-3.563-2.351s-3.036.945-3.563,2.351c-.194.518-.771.776-1.288.585-.517-.194-.778-.771-.585-1.288.818-2.183,3.003-3.649,5.437-3.649s4.618,1.466,5.437,3.649Zm12.415,1.288c-.116.043-.234.064-.352.064-.404,0-.786-.248-.937-.649-.527-1.406-1.959-2.351-3.563-2.351s-3.036.945-3.563,2.351c-.194.518-.771.776-1.288.585-.517-.194-.778-.771-.585-1.288.818-2.183,3.003-3.649,5.437-3.649s4.618,1.466,5.437,3.649c.193.517-.068,1.094-.585,1.288Z"/>
</svg>
