<?xml version="1.0" encoding="UTF-8"?>
<svg xmlns="http://www.w3.org/2000/svg" id="Layer_1" data-name="Layer 1" viewBox="0 0 24 24">
  <path d="m1.239,9.575l8.551,4.847c.682.387,1.446.58,2.21.58s1.529-.193,2.211-.58l8.55-4.848c.776-.44,1.239-1.215,1.239-2.075s-.463-1.635-1.239-2.075L14.211.578c-1.362-.772-3.058-.772-4.421,0L1.239,5.425c-.776.44-1.239,1.215-1.239,2.075s.463,1.635,1.239,2.075Zm11.986,3.107c-.744.422-1.706.422-2.449,0l-3.011-1.707,5.493-3.095,4.231,2.384-4.265,2.418Zm8.775-5.182c0,.077-.029.224-.226.334l-2.254,1.278-4.225-2.38,2.867-1.615,3.613,2.049c.196.111.226.257.226.334ZM10.776,2.318h0c.372-.211.798-.316,1.224-.316s.853.105,1.225.316l2.906,1.648-5.553,3.129-4.126-2.325,4.325-2.452ZM2.225,7.166l2.196-1.245,4.12,2.322-2.806,1.581-3.509-1.99c-.196-.111-.225-.257-.225-.334s.029-.224.225-.334Zm21.638,4.996c.278.477.118,1.089-.358,1.368l-9.282,5.433c-.689.391-1.458.586-2.226.586s-1.527-.193-2.207-.579L.51,13.752c-.481-.271-.652-.88-.381-1.362.271-.482.879-.653,1.362-.381l9.283,5.219c.746.423,1.708.423,2.452.001l9.271-5.426c.474-.28,1.088-.119,1.368.357Zm0,4.454c.278.477.118,1.089-.358,1.368l-9.282,5.433c-.689.391-1.458.586-2.226.586s-1.527-.193-2.207-.58L.51,18.205c-.481-.271-.652-.88-.381-1.362.271-.481.879-.653,1.362-.381l9.283,5.219c.746.423,1.708.423,2.452.001l9.271-5.426c.474-.278,1.088-.12,1.368.358Z"/>
</svg>
