<?xml version="1.0" encoding="UTF-8"?>
<svg xmlns="http://www.w3.org/2000/svg" id="Layer_1" data-name="Layer 1" viewBox="0 0 24 24">
  <path d="m20.992,9l.445,6.142c.034.463-.333.858-.798.858-.419,0-.768-.324-.798-.742l-.265-3.66-.848,1.866c-.284.625-1.172.625-1.457,0l-.848-1.866-.265,3.66c-.03.418-.379.742-.798.742-.465,0-.831-.394-.798-.858l.445-6.142c.043-.705.472-1,.988-1,.342,0,.66.242.841.64l1.164,2.56,1.164-2.56c.181-.398.499-.64.841-.64.516,0,.945.295.988,1ZM4.273,5.664c1.908-2.324,4.724-3.657,7.728-3.657,2.174,0,4.262.703,5.984,1.993h-1.984c-.553,0-1,.448-1,1s.447,1,1,1h3.015c1.095,0,1.985-.891,1.985-1.986V1c0-.552-.447-1-1-1s-1,.448-1,1l.006,1.278C16.974.811,14.537.007,12.001.007,8.396.007,5.016,1.606,2.727,4.396c-.351.427-.289,1.057.139,1.407.186.153.411.227.634.227.289,0,.576-.125.773-.366Zm16.811,12.564c-.427-.352-1.057-.29-1.407.136-1.908,2.314-4.721,3.643-7.716,3.643-2.183,0-4.279-.708-6.004-2.007h2.043c.552,0,1-.447,1-1s-.448-1-1-1h-3.014c-1.095,0-1.986.891-1.986,1.985v3.015c0,.553.448,1,1,1s1-.447,1-1l-.006-1.236c2.024,1.449,4.445,2.243,6.966,2.243,3.595,0,6.97-1.593,9.259-4.371.352-.426.291-1.057-.136-1.407Zm-8.151-5.685l.753,2.423c.156.514-.292,1.033-.829,1.033-.356,0-.669-.235-.768-.577l-.705-2.423h-.784v2.2c0,.442-.358.8-.8.8h0c-.442,0-.8-.358-.8-.8v-5.7c0-.828.672-1.5,1.5-1.5h.867c1.284,0,2.456.908,2.614,2.182.121.976-.324,1.854-1.047,2.362Zm-.533-2.044c0-.496-.404-.9-.9-.9h-.9v1.8h.9c.496,0,.9-.404.9-.9Zm-7.079-.883c.416-.081.795.127.973.458.14.26.409.424.704.424.606,0,.993-.648.706-1.181-.433-.806-1.295-1.347-2.281-1.318-1.368.041-2.423,1.235-2.423,2.604v2.79c0,1.369,1.055,2.563,2.423,2.604.986.03,1.848-.512,2.281-1.318.286-.534-.101-1.181-.706-1.181-.295,0-.564.164-.704.424-.178.331-.557.539-.973.458-.427-.083-.721-.482-.721-.918v-2.693c0-.672.293-1.071.721-1.154Z"/>
</svg>
