<?xml version="1.0" encoding="UTF-8"?>
<svg xmlns="http://www.w3.org/2000/svg" id="Layer_1" data-name="Layer 1" viewBox="0 0 24 24">
  <path d="m4,19c-1.379,0-2.5-1.121-2.5-2.5s1.121-2.5,2.5-2.5,2.5,1.121,2.5,2.5-1.121,2.5-2.5,2.5Zm10.5-2.5c0-1.381-1.119-2.5-2.5-2.5s-2.5,1.119-2.5,2.5,1.119,2.5,2.5,2.5,2.5-1.119,2.5-2.5Zm-2.5-11.5c1.381,0,2.5-1.119,2.5-2.5s-1.119-2.5-2.5-2.5-2.5,1.119-2.5,2.5,1.119,2.5,2.5,2.5Zm5.5,11.5c0,1.381,1.119,2.5,2.5,2.5s2.5-1.119,2.5-2.5-1.119-2.5-2.5-2.5-2.5,1.119-2.5,2.5Zm.336-9.186l5.315-4.556c.419-.359.468-.99.108-1.409-.36-.421-.992-.469-1.41-.108l-5.314,4.555c-.906.776-2.062,1.204-3.254,1.204h-2.561c-1.192,0-2.348-.428-3.254-1.203L2.151,1.241c-.419-.359-1.051-.312-1.41.108-.359.419-.311,1.05.108,1.409l5.315,4.557c.551.472,1.177.833,1.835,1.111v4.073c0,.553.448,1,1,1s1-.447,1-1v-3.564c.24.025.477.064.72.064h2.561c.243,0,.48-.039.72-.064v3.564c0,.553.448,1,1,1s1-.447,1-1v-4.073c.659-.279,1.285-.64,1.836-1.112Zm6.099,15.331c-.6-1.582-2.181-2.646-3.935-2.646s-3.335,1.063-3.935,2.646c-.196.517.064,1.094.581,1.29.516.195,1.094-.064,1.29-.581.307-.811,1.137-1.354,2.065-1.354s1.758.544,2.065,1.354c.151.399.532.646.935.646.118,0,.238-.021.354-.064.516-.196.776-.773.581-1.29Zm-11.935-2.646c-1.754,0-3.335,1.063-3.935,2.646-.196.517.064,1.094.581,1.29.515.195,1.094-.064,1.29-.581.307-.811,1.137-1.354,2.065-1.354s1.758.544,2.065,1.354c.151.399.532.646.935.646.118,0,.238-.021.354-.064.516-.196.776-.773.581-1.29-.6-1.582-2.181-2.646-3.935-2.646Zm-8,0c-1.754,0-3.335,1.063-3.935,2.646-.196.517.064,1.094.581,1.29.516.195,1.094-.064,1.29-.581.307-.811,1.137-1.354,2.065-1.354s1.758.544,2.065,1.354c.151.399.532.646.935.646.118,0,.238-.021.354-.064.516-.196.776-.773.581-1.29-.6-1.582-2.181-2.646-3.935-2.646Z"/>
</svg>
