<?xml version="1.0" encoding="UTF-8"?>
<svg xmlns="http://www.w3.org/2000/svg" id="Layer_1" data-name="Layer 1" viewBox="0 0 24 24">
  <path d="m17.163,13c.434,1.441,1.757,2.5,3.337,2.5,1.93,0,3.5-1.57,3.5-3.5s-1.57-3.5-3.5-3.5c-1.58,0-2.903,1.059-3.337,2.5h-1.163v-5c0-.715.504-1.313,1.175-1.462.445,1.421,1.759,2.462,3.325,2.462,1.93,0,3.5-1.57,3.5-3.5s-1.57-3.5-3.5-3.5c-1.593,0-2.926,1.076-3.348,2.535-1.765.178-3.152,1.654-3.152,3.465v5h-1c-.553,0-1,.447-1,1s.447,1,1,1h1v5c0,1.811,1.388,3.287,3.152,3.465.422,1.459,1.755,2.535,3.348,2.535,1.93,0,3.5-1.57,3.5-3.5s-1.57-3.5-3.5-3.5c-1.566,0-2.88,1.041-3.325,2.462-.671-.149-1.175-.747-1.175-1.462v-5h1.163Zm3.337-2.5c.827,0,1.5.673,1.5,1.5s-.673,1.5-1.5,1.5-1.5-.673-1.5-1.5.673-1.5,1.5-1.5Zm0-8.5c.827,0,1.5.673,1.5,1.5s-.673,1.5-1.5,1.5-1.5-.673-1.5-1.5.673-1.5,1.5-1.5Zm0,17c.827,0,1.5.673,1.5,1.5s-.673,1.5-1.5,1.5-1.5-.673-1.5-1.5.673-1.5,1.5-1.5Zm-8.868-10.244c-.274-.479-.887-.644-1.365-.367l-.977.563c-.605-.652-1.393-1.126-2.289-1.331v-1.121c0-.553-.447-1-1-1s-1,.447-1,1v1.121c-.896.205-1.685.678-2.289,1.331l-.977-.563c-.479-.276-1.09-.111-1.365.367-.276.479-.111,1.09.367,1.365l.983.566c-.129.418-.218.853-.218,1.313s.089.895.218,1.313l-.983.566c-.479.275-.644.887-.367,1.365.185.321.521.501.867.501.169,0,.341-.043.498-.134l.977-.563c.605.652,1.393,1.126,2.289,1.331v1.121c0,.553.447,1,1,1s1-.447,1-1v-1.121c.896-.205,1.685-.678,2.289-1.331l.977.563c.157.091.329.134.498.134.346,0,.683-.18.867-.501.276-.479.111-1.09-.367-1.365l-.983-.566c.129-.418.218-.853.218-1.313s-.089-.895-.218-1.313l.983-.566c.479-.275.644-.887.367-1.365Zm-5.632,5.744c-1.379,0-2.5-1.121-2.5-2.5s1.121-2.5,2.5-2.5,2.5,1.121,2.5,2.5-1.121,2.5-2.5,2.5Z"/>
</svg>
