<?xml version="1.0" encoding="UTF-8"?>
<svg xmlns="http://www.w3.org/2000/svg" id="Layer_1" data-name="Layer 1" viewBox="0 0 24 24">
  <path d="m21.122,18.229c.426.352.486.982.135,1.408-2.291,2.773-5.664,4.363-9.257,4.363C5.383,24,0,18.617,0,12S5.383,0,12,0c3.593,0,6.966,1.59,9.257,4.363.352.426.291,1.056-.135,1.408-.427.353-1.055.292-1.408-.134-1.908-2.311-4.72-3.637-7.714-3.637C6.486,2,2,6.486,2,12s4.486,10,10,10c2.994,0,5.806-1.326,7.714-3.637.353-.425.98-.487,1.408-.134Zm1.628-4.748c-.69,0-1.25.56-1.25,1.25s.56,1.25,1.25,1.25,1.25-.56,1.25-1.25-.56-1.25-1.25-1.25Zm-3.25-4.25c0-.69-.56-1.25-1.25-1.25s-1.25.56-1.25,1.25.56,1.25,1.25,1.25,1.25-.56,1.25-1.25Zm-1.156,6.75c.27,0,.522-.136.67-.363l4.178-6.4c.347-.532-.034-1.237-.67-1.237-.27,0-.522.136-.67.363l-4.178,6.4c-.347.532.034,1.237.67,1.237Zm-8.33-5.381c0-1.434-1.128-2.6-2.514-2.6s-2.514,1.167-2.514,2.6c0,.442.358.8.8.8s.8-.358.8-.8c0-.552.41-1,.915-1s.915.449.915,1c0,.562-.841,1.188-1.584,1.739-.914.679-1.859,1.382-1.859,2.411,0,.606.431,1.25,1.229,1.25h3c.442,0,.8-.358.8-.8s-.358-.8-.8-.8h-2.378c.268-.26.691-.575.963-.777.993-.738,2.229-1.657,2.229-3.023Zm3.486,3.8h-1.7c-.442,0-.8.358-.8.8s.358.8.8.8h1.7c1.379,0,2.5-1.122,2.5-2.5s-1.121-2.5-2.5-2.5h-.9v-1.2c0-.11.09-.2.2-.2h1.9c.441,0,.8-.358.8-.8s-.358-.8-.8-.8h-1.9c-.993,0-1.8.807-1.8,1.8v1.5c0,.717.583,1.3,1.3,1.3h1.2c.496,0,.9.404.9.9s-.404.9-.9.9Z"/>
</svg>
