<?xml version="1.0" encoding="UTF-8"?>
<svg xmlns="http://www.w3.org/2000/svg" id="Layer_1" data-name="Layer 1" viewBox="0 0 24 24">
  <path d="m23.461.112c-.49-.254-1.095-.064-1.349.427l-8.543,16.46H3.5c-1.93,0-3.5,1.57-3.5,3.5s1.57,3.5,3.5,3.5h5.044c2.249,0,4.29-1.24,5.326-3.236L23.888,1.46c.254-.49.063-1.094-.427-1.348Zm-11.366,19.729c-.69,1.331-2.052,2.158-3.551,2.158H3.5c-.827,0-1.5-.673-1.5-1.5s.673-1.5,1.5-1.5h9.032l-.438.842Zm11.905,3.158c0,.553-.447,1-1,1h-4c-.553,0-1-.447-1-1s.447-1,1-1h4c.553,0,1,.447,1,1Z"/>
</svg>
