<?xml version="1.0" encoding="UTF-8"?>
<svg xmlns="http://www.w3.org/2000/svg" id="Layer_1" data-name="Layer 1" viewBox="0 0 24 24">
  <path d="m9,12c3.309,0,6-2.691,6-6S12.309,0,9,0,3,2.691,3,6s2.691,6,6,6Zm0-10c2.206,0,4,1.794,4,4s-1.794,4-4,4-4-1.794-4-4,1.794-4,4-4Zm1,13c0,.552-.448,1-1,1-3.86,0-7,3.14-7,7,0,.552-.448,1-1,1s-1-.448-1-1c0-4.962,4.038-9,9-9,.552,0,1,.448,1,1Zm11-.949v-.051c0-1.103-.897-2-2-2h-2c-1.103,0-2,.897-2,2v.051c-1.692.245-3,1.691-3,3.449v3c0,1.93,1.57,3.5,3.5,3.5h5c1.93,0,3.5-1.57,3.5-3.5v-3c0-1.758-1.308-3.204-3-3.449Zm-5.5,1.949h5c.827,0,1.5.673,1.5,1.5v.5h-8v-.5c0-.827.673-1.5,1.5-1.5Zm5,6h-5c-.827,0-1.5-.673-1.5-1.5v-.5h3c0,.552.448,1,1,1s1-.448,1-1h3v.5c0,.827-.673,1.5-1.5,1.5Z"/>
</svg>
