<?xml version="1.0" encoding="UTF-8"?>
<svg xmlns="http://www.w3.org/2000/svg" id="Layer_1" data-name="Layer 1" viewBox="0 0 24 24">
  <path d="m14,12v-7c0-1.654-1.346-3-3-3h-6c-1.654,0-3,1.346-3,3v14c0,1.654,1.346,3,3,3h6c.553,0,1,.447,1,1s-.447,1-1,1h-6c-2.757,0-5-2.243-5-5V5C0,2.243,2.243,0,5,0h6c2.757,0,5,2.243,5,5v7c0,.553-.447,1-1,1s-1-.447-1-1Zm-8,1h-1c-.553,0-1,.447-1,1s.447,1,1,1h1c.553,0,1-.447,1-1s-.447-1-1-1Zm5,0h-1c-.553,0-1,.447-1,1s.447,1,1,1h1c.553,0,1-.447,1-1s-.447-1-1-1Zm-5,4h-1c-.553,0-1,.447-1,1s.447,1,1,1h1c.553,0,1-.447,1-1s-.447-1-1-1Zm5,0h-1c-.553,0-1,.447-1,1s.447,1,1,1h1c.553,0,1-.447,1-1s-.447-1-1-1ZM6,5h-1c-.553,0-1,.447-1,1s.447,1,1,1h1c.553,0,1-.447,1-1s-.447-1-1-1Zm5,0h-1c-.553,0-1,.447-1,1s.447,1,1,1h1c.553,0,1-.447,1-1s-.447-1-1-1Zm-5,4h-1c-.553,0-1,.447-1,1s.447,1,1,1h1c.553,0,1-.447,1-1s-.447-1-1-1Zm5,0h-1c-.553,0-1,.447-1,1s.447,1,1,1h1c.553,0,1-.447,1-1s-.447-1-1-1Zm12.969,13.751c-.56-2.174-2.649-3.751-4.969-3.751s-4.409,1.577-4.969,3.751c-.138.534.185,1.08.72,1.218.53.137,1.08-.185,1.218-.72.33-1.282,1.633-2.249,3.031-2.249s2.701.967,3.031,2.249c.116.451.522.751.968.751.083,0,.167-.01.25-.031.535-.138.857-.684.72-1.218Zm-4.969-4.751c1.379,0,2.5-1.121,2.5-2.5s-1.121-2.5-2.5-2.5-2.5,1.121-2.5,2.5,1.121,2.5,2.5,2.5Z"/>
</svg>
