<?xml version="1.0" encoding="UTF-8"?>
<svg xmlns="http://www.w3.org/2000/svg" id="Layer_1" data-name="Layer 1" viewBox="0 0 24 24">
  <path d="m21.484,11.036c.163-.384.29-.787.378-1.205l1.882-.879c.342-.205.342-.7,0-.905l-1.882-.879c-.13-.62-.347-1.207-.64-1.749l2.728-4.796c.192-.369-.205-.766-.574-.574l-4.796,2.728c-.542-.293-1.129-.51-1.749-.64l-.879-1.882c-.205-.342-.7-.342-.905,0l-.879,1.882c-.417.087-.82.214-1.203.377L8.658.05c-.369-.192-.766.205-.574.574l2.234,3.969c-.567.75-.98,1.623-1.179,2.576l-1.882.879c-.342.205-.342.7,0,.905l1.882.879c.192.919.584,1.764,1.12,2.497L.293,22.293c-.391.391-.391,1.023,0,1.414.195.195.451.293.707.293s.512-.098.707-.293l9.965-9.965c.733.536,1.577.928,2.497,1.12l.879,1.882c.205.342.7.342.905,0l.879-1.882c.951-.199,1.823-.611,2.573-1.177l3.972,2.244c.369.192.766-.205.574-.574l-2.466-4.319Zm-10.484-2.536c0-2.481,2.019-4.5,4.5-4.5s4.5,2.019,4.5,4.5-2.019,4.5-4.5,4.5-4.5-2.019-4.5-4.5Zm4.5,1.5c-.828,0-1.5-.672-1.5-1.5s.672-1.5,1.5-1.5,1.5.672,1.5,1.5-.672,1.5-1.5,1.5Z"/>
</svg>
