<?xml version="1.0" encoding="UTF-8"?>
<svg xmlns="http://www.w3.org/2000/svg" id="Layer_1" data-name="Layer 1" viewBox="0 0 24 24">
  <path d="m22,15.172v-7.172c0-2.757-2.243-5-5-5h-1c-.553,0-1,.448-1,1s.447,1,1,1h1c1.654,0,3,1.346,3,3v7h-4.5c-.266,0-.52.105-.707.293l-.707.707h-4.172l-.707-.707c-.188-.188-.442-.293-.707-.293h-4.5v-7c0-1.654,1.346-3,3-3h1c.552,0,1-.448,1-1s-.448-1-1-1h-1c-2.757,0-5,2.243-5,5v7.172c-1.164.413-2,1.524-2,2.828,0,1.654,1.346,3,3,3h18c1.654,0,3-1.346,3-3,0-1.304-.836-2.415-2-2.828Zm-1,3.828H3c-.551,0-1-.448-1-1s.449-1,1-1h5.086l.707.707c.188.188.442.293.707.293h5c.266,0,.52-.105.707-.293l.707-.707h5.086c.552,0,1,.448,1,1s-.448,1-1,1Zm-10-9.58V1c0-.552.448-1,1-1s1,.448,1,1v8.421l2.319-2.154c.403-.376,1.038-.353,1.413.053.376.405.353,1.037-.052,1.413l-2.613,2.426c-.562.561-1.308.843-2.058.843-.759,0-1.522-.288-2.103-.869l-2.587-2.4c-.405-.375-.429-1.008-.053-1.413.375-.405,1.009-.428,1.413-.053l2.32,2.153Z"/>
</svg>
