<?xml version="1.0" encoding="UTF-8"?>
<svg xmlns="http://www.w3.org/2000/svg" id="Layer_1" data-name="Layer 1" viewBox="0 0 24 24">
  <path d="m16,17.5c0,.828-.672,1.5-1.5,1.5s-1.5-.672-1.5-1.5.672-1.5,1.5-1.5,1.5.672,1.5,1.5Zm8-.999v1.499c0,3.309-2.691,6-6,6h-9.273C3.915,24,0,20.085,0,15.273c0-3.369.987-6.629,2.855-9.43l.493-.739C1.556,4.341.246,2.655.004.65-.038.301.235-.023.586.002c3.667.26,4.914,2.773,4.914,2.773C5.5,2.774,6.703.259,10.414.001c.351-.024.624.299.582.649-.275,2.287-1.942,4.159-4.128,4.72l-.463,2.748c-.2,1.185-.327,2.389-.378,3.593,2.872-2.379,5.879-3.711,8.474-3.711h1.008c4.683.005,8.492,3.818,8.492,8.501Zm-2,0c0-3.581-2.913-6.497-6.494-6.5h-1.007c-2.558,0-5.845,1.759-8.792,4.706-.287.287-.716.372-1.09.217-.374-.155-.617-.52-.617-.924v-1.059c0-1.724.146-3.458.432-5.156l.158-.938c-1.648,2.471-2.59,5.454-2.59,8.426,0,3.709,3.018,6.727,6.727,6.727h9.273c2.206,0,4-1.794,4-4v-1.499Z"/>
</svg>
