<?xml version="1.0" encoding="UTF-8"?>
<svg xmlns="http://www.w3.org/2000/svg" id="Layer_1" data-name="Layer 1" viewBox="0 0 24 24">
  <path d="m18.634,22h2.366c.553,0,1,.447,1,1s-.447,1-1,1h-4c-1.105,0-2-.895-2-2v-4c0-.553.447-1,1-1s1,.447,1,1v2.655c2.799-1.618,4.713-4.518,5.004-7.744.05-.55.543-.956,1.086-.906.55.05.956.536.906,1.086-.327,3.626-2.355,6.913-5.362,8.91ZM.004,10.91c-.049.55.447,1.04.997,1.09.512,0,.948-.391.995-.91.291-3.227,2.206-6.127,5.004-7.745v2.655c0,.553.448,1,1,1s1-.447,1-1V2c0-1.105-.895-2-2-2H3c-.552,0-1,.447-1,1s.448,1,1,1h2.366C2.359,3.997.331,7.284.004,10.91Zm9.996,6.09v4c0,1.654-1.346,3-3,3H3c-1.654,0-3-1.346-3-3v-4c0-1.654,1.346-3,3-3h4c1.654,0,3,1.346,3,3Zm-2,0c0-.552-.449-1-1-1H3c-.551,0-1,.448-1,1v4c0,.552.449,1,1,1h4c.551,0,1-.448,1-1v-4Zm10.5-6c-3.032,0-5.5-2.468-5.5-5.5S15.468,0,18.5,0s5.5,2.468,5.5,5.5-2.468,5.5-5.5,5.5Zm0-2c1.93,0,3.5-1.57,3.5-3.5s-1.57-3.5-3.5-3.5-3.5,1.57-3.5,3.5,1.57,3.5,3.5,3.5Z"/>
</svg>
