<?xml version="1.0" encoding="UTF-8"?>
<svg xmlns="http://www.w3.org/2000/svg" id="Layer_1" data-name="Layer 1" viewBox="0 0 24 24">
  <path d="m19.954,8.046c-.216-2.114-1.886-3.784-4-4-.231-2.266-2.128-4.046-4.454-4.046h-7C2.019,0,0,2.019,0,4.5v7c0,2.326,1.78,4.223,4.046,4.454.216,2.114,1.886,3.784,4,4,.231,2.266,2.128,4.046,4.454,4.046h7c2.481,0,4.5-2.019,4.5-4.5v-7c0-2.326-1.78-4.223-4.046-4.454Zm-15.454,5.954c-.321,0-.626-.066-.909-.177l2.878-2.878,1.648,1.648-1.406,1.406h-2.211Zm-2.5-2.5v-2.211l4.25-4.25,1.648,1.648-5.721,5.721c-.111-.282-.177-.588-.177-.909ZM13.823,3.591c.111.282.177.588.177.909v2.211l-4.469,4.469-1.648-1.648,5.94-5.94Zm.177,5.948v1.961c0,1.378-1.121,2.5-2.5,2.5h-1.961l4.461-4.461Zm-1.591-7.362l-3.096,3.096-1.648-1.648,1.625-1.625h2.211c.321,0,.626.066.909.177Zm-7.909-.177h1.961L2,6.461v-1.961c0-1.378,1.121-2.5,2.5-2.5Zm1.551,14h5.449c2.481,0,4.5-2.019,4.5-4.5v-5.449c1.14.232,2,1.242,2,2.449v7c0,1.378-1.121,2.5-2.5,2.5h-7c-1.208,0-2.217-.86-2.449-2Zm15.949,3.5c0,1.378-1.121,2.5-2.5,2.5h-7c-1.208,0-2.217-.86-2.449-2h5.449c2.481,0,4.5-2.019,4.5-4.5v-5.449c1.14.232,2,1.242,2,2.449v7Z"/>
</svg>
