<?xml version="1.0" encoding="UTF-8"?>
<svg xmlns="http://www.w3.org/2000/svg" id="Layer_1" data-name="Layer 1" viewBox="0 0 24 24">
  <path d="m3,4.474c-.025-1.627,1.023-3.326,3.011-3.942,3.371-1.493,8.988.206,8.988,4.442,0,2.385-1.459,4.01-3.183,4.678-.292.113-.531-.258-.304-.473.916-.868,1.486-2,1.486-3.205,0-2-2.047-2.961-3.5-2.992-1.212-.025-3.5-.008-3.5,1.992,0,.842.906,1.5,2,1.5.583,0,1.188-.135,1.668-.466.262-.181.595.113.438.39-.451.797-1.381,1.604-3.106,1.604-3,0-3.976-1.991-4-3.527Zm20.235,8.541l-6.804,7.637c-1.896,2.128-4.617,3.348-7.467,3.348h-4.965c-2.206,0-4-1.794-4-4v-5c0-2.206,1.794-4,4-4h8.857c1.139,0,2.139.609,2.689,1.519l3.217-3.534c.54-.595,1.281-.944,2.085-.981.812-.039,1.574.24,2.169.782,1.214,1.107,1.312,3.005.218,4.23Zm-1.565-2.752c-.199-.181-.457-.267-.728-.262-.27.013-.519.129-.699.329l-4.427,4.865c-.386,1.07-1.339,1.89-2.514,2.058l-5.161.737c-.548.077-1.054-.302-1.132-.848-.078-.547.302-1.053.849-1.131l5.161-.737c.559-.08.98-.566.98-1.131,0-.63-.513-1.142-1.143-1.142H4c-1.103,0-2,.897-2,2v5c0,1.103.897,2,2,2h4.965c2.279,0,4.456-.976,5.973-2.678l6.805-7.638c.368-.412.335-1.049-.072-1.421Z"/>
</svg>
