<?xml version="1.0" encoding="UTF-8"?>
<svg xmlns="http://www.w3.org/2000/svg" id="Layer_1" data-name="Layer 1" viewBox="0 0 24 24">
  <path d="m20,7.5c0,.828-.672,1.5-1.5,1.5s-1.5-.672-1.5-1.5.672-1.5,1.5-1.5,1.5.672,1.5,1.5Zm-7.5,6.5c-.828,0-1.5.672-1.5,1.5s.672,1.5,1.5,1.5,1.5-.672,1.5-1.5-.672-1.5-1.5-1.5Zm10.947-4.148c-.284.859-.622,1.689-1.003,2.491.337.275.556.688.556,1.157,0,.828-.672,1.5-1.5,1.5-.178,0-.346-.036-.504-.093-2.003,3.044-4.755,5.521-8.049,7.217.031.121.053.245.053.376,0,.828-.672,1.5-1.5,1.5-.534,0-.999-.281-1.265-.701-.126.045-.248.096-.375.138-1.103.371-2.327.558-3.528.558-2.791,0-5.454-1.004-6.146-3.026-.716-2.106.707-4.431,2.879-6.058-.038-.131-.064-.267-.064-.411,0-.828.672-1.5,1.5-1.5.436,0,.826.189,1.1.487.089-.036.178-.076.268-.109,2.095-.77,3.533-1.639,4.665-2.819.821-.787,1.483-1.708,2.065-2.867-.361-.274-.598-.703-.598-1.191,0-.828.672-1.5,1.5-1.5.082,0,.161.011.239.024C15.225,1.847,18.279-.73,20.974.185t.002,0c2.916.996,3.71,5.925,2.472,9.666Zm-1.898-.629c.953-2.88.315-6.617-1.218-7.144-.152-.052-.314-.077-.483-.077-1.538,0-3.667,2.048-4.588,4.553-.868,2.362-1.922,4.084-3.314,5.418-1.305,1.362-3.026,2.415-5.389,3.282-2.782,1.021-5,3.532-4.478,5.068.528,1.549,4.267,2.187,7.142,1.22,5.9-1.986,10.394-6.477,12.328-12.32Z"/>
</svg>
