<?xml version="1.0" encoding="UTF-8"?>
<svg xmlns="http://www.w3.org/2000/svg" id="Layer_1" data-name="Layer 1" viewBox="0 0 24 24">
  <path d="m24,13.5v1.5c0,2.195-.799,4.31-2.25,5.953-.198.224-.474.338-.75.338-.235,0-.472-.083-.662-.25-.414-.365-.453-.998-.088-1.412,1.129-1.277,1.75-2.921,1.75-4.629v-1.5c0-.327-.006-.643-.018-.949-1.09.931-2.565,1.449-3.982,1.449-.553,0-1-.448-1-1s.447-1,1-1c1.626,0,3.356-1.018,3.627-2.574-.52-2.616-1.401-3.792-1.413-3.808-.335-.435-.26-1.062.172-1.4.431-.338,1.052-.271,1.396.158.06.076,1.347,2.394,1.869,4.98.21,1.159.35,2.535.35,4.145Zm-5.445,2.668c.459.306.584.927.277,1.387-.665.998-.804,1.992-.827,3.479-.026,1.636-1.372,2.967-2.999,2.967h-5.006c-4.963,0-9-4.038-9-9v-4.5s0-.009,0-.014c-.624-.74-1-1.695-1-2.736v-1.333c0-1.263.498-2.666,1.035-3.49-.601-.196-1.035-.76-1.035-1.426C0,.672.672,0,1.5,0c.666,0,1.23.434,1.426,1.035,1.005-.654,2.204-1.035,3.491-1.035h2.166c1.286,0,2.485.381,3.491,1.035.196-.601.76-1.035,1.426-1.035.828,0,1.5.672,1.5,1.5,0,.666-.434,1.23-1.035,1.426.654,1.005,1.035,2.204,1.035,3.49v1.333c0,1.27-.56,2.412-1.447,3.191,1.446,1.406,1.447,4.001,1.447,5.059,0,.552-.447,1-1,1s-1-.448-1-1c0-3.691-1-4-2.25-4-1.303,0-2.47-.589-3.25-1.514-.78.925-1.947,1.514-3.25,1.514-.435,0-.855-.066-1.25-.188v.188c0,2.897,2.523,5,6,5,.553,0,1,.448,1,1s-.447,1-1,1c-2.28,0-4.279-.752-5.709-2.003.862,2.89,3.544,5.003,6.709,5.003h5.006c.542,0,.99-.448.999-.999.023-1.457.133-3.009,1.163-4.556.306-.459.925-.585,1.387-.277Zm-14.305-6.168c1.202,0,2.187-.948,2.247-2.136-.297-.173-.497-.495-.497-.864,0-.552.447-1,1-1h1c.553,0,1,.448,1,1,0,.369-.2.691-.497.864.06,1.188,1.045,2.136,2.247,2.136,1.24,0,2.25-1.009,2.25-2.25v-.75h-1.5c-.553,0-1-.448-1-1s.447-1,1-1h1.267c-.592-1.743-2.244-3-4.184-3h-2.166c-1.94,0-3.592,1.257-4.184,3h1.267c.553,0,1,.448,1,1s-.447,1-1,1h-1.5v.75c0,1.241,1.01,2.25,2.25,2.25Z"/>
</svg>
