<?xml version="1.0" encoding="UTF-8"?>
<svg xmlns="http://www.w3.org/2000/svg" id="Layer_1" data-name="Layer 1" viewBox="0 0 24 24">
  <path d="m22.967,17.298c-.021-.029-1.557-1.814-1.557-1.814.319-.235.589-.544.781-.91.462-.88.399-1.935-.165-2.753-.025-.037-1.886-2.091-1.886-2.091.458-.231.84-.602,1.084-1.073.42-.811.353-1.778-.176-2.526-.021-.029-4.663-5.284-4.663-5.284-.949-1.074-2.823-1.073-3.771,0l-.615.696-.614-.695c-.949-1.074-2.823-1.074-3.771,0,0,0-4.644,5.255-4.664,5.284-.528.748-.596,1.716-.176,2.526.244.472.626.842,1.084,1.073,0,0-1.86,2.054-1.886,2.091-.564.818-.627,1.873-.165,2.753.192.366.462.675.781.91,0,0-1.536,1.785-1.557,1.814-.635.921-.706,2.108-.186,3.098.52.99,1.537,1.604,2.655,1.604h4.997v1c0,.553.447,1,1,1s1-.447,1-1v-1h3v1c0,.553.447,1,1,1s1-.447,1-1v-1h4.996c1.118,0,2.136-.615,2.656-1.604.52-.99.449-2.177-.186-3.098Zm-6.585,2.167c-.085.161-.34.535-.886.535h-4.996v-9c0-.553-.447-1-1-1s-1,.447-1,1v9H3.503c-.545,0-.801-.374-.885-.534-.169-.322-.154-.69.037-.995l2.429-2.817c.256-.297.315-.714.152-1.07-.163-.355-.519-.583-.909-.583h-.157c-.364,0-.534-.25-.591-.357-.054-.102-.154-.36.013-.643l3.02-3.328c.267-.293.334-.715.174-1.077-.16-.361-.519-.595-.914-.595h-.868c-.284,0-.41-.185-.451-.264-.043-.082-.095-.242.011-.418l4.552-5.148c.13-.147.298-.17.386-.17s.256.022.387.17l4.551,5.148c.105.176.054.336.011.418-.041.079-.167.264-.451.264h-.868c-.396,0-.754.233-.914.595-.16.362-.093.784.174,1.077l3.02,3.328c.167.282.066.541.013.643-.057.107-.227.357-.591.357h-.157c-.391,0-.746.228-.909.583-.163.356-.104.773.152,1.07l2.43,2.817c.274.435.118.838.036.994Zm5,0c-.085.161-.34.535-.886.535h-2.171c.319-.899.194-1.901-.358-2.702-.021-.029-1.557-1.814-1.557-1.814.319-.235.589-.544.781-.91.462-.88.399-1.935-.165-2.753-.025-.037-1.886-2.091-1.886-2.091.458-.231.84-.602,1.084-1.073.42-.811.353-1.778-.176-2.526-.021-.029-2.714-3.079-2.714-3.079l.779-.881c.13-.147.298-.17.386-.17s.256.022.387.17l4.551,5.148c.105.176.054.336.011.418-.041.079-.167.264-.451.264h-.868c-.396,0-.754.233-.914.595-.16.362-.093.784.174,1.077l3.02,3.328c.167.282.066.541.013.643-.057.107-.227.357-.591.357h-.157c-.391,0-.746.228-.909.583-.163.356-.104.773.152,1.07l2.43,2.817c.274.435.118.838.036.994Z"/>
</svg>
