<?xml version="1.0" encoding="UTF-8"?>
<svg xmlns="http://www.w3.org/2000/svg" id="Layer_1" data-name="Layer 1" viewBox="0 0 24 24">
  <path d="m23.707,22.293l-5.894-5.894c.175-.127.34-.256.492-.387.442-.378.695-.929.695-1.512,0-.236-.042-.467-.121-.683,1.356-.345,2.624-1.118,3.426-1.805.442-.378.695-.929.695-1.512s-.253-1.134-.695-1.512c-.29-.249-.642-.509-1.037-.755.204-.127.393-.272.562-.441,1.292-1.292,1.878-3.664,2.142-5.427.098-.653-.113-1.296-.579-1.762-.466-.467-1.107-.678-1.764-.581-1.763.265-4.136.852-5.427,2.143-.168.168-.313.357-.439.561-.246-.392-.505-.743-.752-1.032-.756-.883-2.266-.883-3.023,0-.69.807-1.468,2.084-1.81,3.448-.753-.252-1.657-.069-2.19.553-.13.153-.26.318-.386.492L1.707.293C1.316-.098.684-.098.293.293S-.098,1.316.293,1.707l22,22c.195.195.451.293.707.293s.512-.098.707-.293c.391-.391.391-1.023,0-1.414Zm-6.207-10.293c-.133,0-.571-.03-.655-.017-.751-.418-1.618-.767-2.502-.912l1.507-1.507c.103-.072.757-.564,1.65-.564,1.198,0,2.656.781,3.504,1.492-.848.727-2.306,1.508-3.504,1.508Zm.117-8.421c.697-.696,2.268-1.272,4.377-1.511-.306,2.042-.881,3.612-1.578,4.31-.575.574-2.133.689-3.392.596-.09-1.264.025-2.827.593-3.395Zm-4.125-.584c.726.849,1.508,2.307,1.508,3.505,0,.894-.492,1.547-.564,1.649l-1.508,1.508c-.145-.885-.495-1.753-.914-2.505.013-.083-.015-.518-.015-.652,0-1.198.782-2.656,1.492-3.505Zm-.187,14.993c-.907-.777-2.41-1.664-3.962-1.917l.364-.364c.391-.391.391-1.023,0-1.414s-1.023-.391-1.414,0l-.364.364c-.253-1.552-1.141-3.055-1.918-3.963-.756-.883-2.266-.883-3.023,0-.917,1.072-1.988,2.974-1.988,4.806,0,1.91.967,3.535,1.646,4.44l-2.353,2.353c-.391.391-.391,1.023,0,1.414.195.195.451.293.707.293s.512-.098.707-.293l2.353-2.353c.906.679,2.53,1.646,4.44,1.646,1.833,0,3.734-1.071,4.805-1.988.442-.378.695-.929.695-1.512s-.253-1.134-.695-1.512Zm-8.813-5.993c.726.849,1.508,2.307,1.508,3.505,0,.894-.492,1.547-.564,1.65l-1.358,1.358c-.487-.701-1.078-1.801-1.078-3.008,0-1.198.782-2.656,1.492-3.505Zm4.008,9.005c-1.207,0-2.307-.591-3.008-1.078l1.359-1.359c.103-.072.756-.563,1.649-.563,1.198,0,2.656.781,3.504,1.492-.848.727-2.306,1.508-3.504,1.508Z"/>
</svg>
