<?xml version="1.0" encoding="UTF-8"?>
<svg xmlns="http://www.w3.org/2000/svg" id="Layer_1" data-name="Layer 1" viewBox="0 0 24 24">
  <path d="m7.768,8.007c-.756,0-1.28.587-1.384,1.166l-1.199,5.97c-.089.443.25.856.701.856.345,0,.64-.246.703-.584l.165-.888h2.005l.156.882c.061.342.358.59.704.59h.01c.453,0,.792-.416.701-.859l-1.22-5.942c-.12-.667-.589-1.191-1.345-1.191Zm-.644,4.996l.623-3.292.637,3.292h-1.26Zm5.483-2.474v2.938c0,.468.346.879.812.923.498.047.906-.317.964-.788h-.079c-.441,0-.799-.358-.799-.799h0c0-.442.358-.8.799-.8h.901c.441,0,.799.358.799.799v.8h-.011c-.059,1.369-1.211,2.455-2.61,2.388-1.34-.064-2.375-1.21-2.375-2.552v-2.884c0-1.4,1.146-2.58,2.546-2.554.932.018,1.739.546,2.153,1.317.287.534-.097,1.18-.702,1.18-.29,0-.567-.151-.699-.409-.158-.308-.488-.513-.862-.488-.477.032-.838.45-.838.928Zm5.994-.924v1.799h1.1c.441,0,.799.358.799.799s-.358.799-.799.799h-1.1v1.399h1.1c.441,0,.799.358.799.799s-.358.799-.799.799h-1.899c-.441,0-.799-.358-.799-.799v-6.395c0-.441.358-.799.799-.799h1.899c.441,0,.799.358.799.799s-.358.799-.799.799h-1.1Zm4.458,8.941c-2.227,3.415-5.987,5.454-10.059,5.454-6.617,0-12-5.383-12-12S6.383,0,13,0c2.528,0,4.968.799,7,2.261v-1.261c0-.552.448-1,1-1s1,.448,1,1v3c0,1.103-.897,2-2,2h-3c-.552,0-1-.448-1-1s.448-1,1-1h1.997c-1.724-1.294-3.822-2-5.997-2C7.486,2,3,6.486,3,12s4.486,10,10,10c3.393,0,6.527-1.7,8.383-4.546.302-.463.921-.592,1.384-.292.462.302.593.921.292,1.384Z"/>
</svg>
