<?xml version="1.0" encoding="UTF-8"?>
<svg xmlns="http://www.w3.org/2000/svg" id="Layer_1" data-name="Layer 1" viewBox="0 0 24 24">
  <path d="m19,2h-1v-1c0-.553-.447-1-1-1s-1,.447-1,1v1h-8v-1c0-.553-.448-1-1-1s-1,.447-1,1v1h-1C2.243,2,0,4.243,0,7v12c0,2.757,2.243,5,5,5h14c2.757,0,5-2.243,5-5V7c0-2.757-2.243-5-5-5Zm-14,2h14c1.654,0,3,1.346,3,3v1H2v-1c0-1.654,1.346-3,3-3Zm14,18H5c-1.654,0-3-1.346-3-3v-9h9.942c-.248.015-.492.112-.672.312-.526.583-1.142,1.483-1.142,2.492,0,.055.007.109.011.164-.854-.466-1.9-.396-2.647-.247-.575.115-.916.713-.739,1.272.204.643.573,1.457,1.222,1.997-.649.54-1.018,1.354-1.222,1.997-.177.559.164,1.158.739,1.272.747.149,1.793.219,2.647-.247-.003.053-.01.105-.01.159,0,1.009.617,1.909,1.142,2.492.389.432,1.073.432,1.462,0,.526-.583,1.142-1.483,1.142-2.492,0-.047-.006-.093-.009-.139.854.465,1.899.395,2.646.246.576-.115.916-.714.739-1.273-.205-.647-.577-1.466-1.233-2.006.656-.54,1.028-1.359,1.233-2.006.177-.56-.163-1.158-.739-1.273-.747-.149-1.793-.22-2.647.247.004-.055.011-.108.011-.164,0-1.009-.617-1.909-1.142-2.492-.18-.2-.424-.297-.672-.312h9.942v9c0,1.654-1.346,3-3,3Zm-7-7.5c.827,0,1.498.67,1.498,1.498s-.671,1.498-1.498,1.498-1.498-.671-1.498-1.498.671-1.498,1.498-1.498Z"/>
</svg>
