<?xml version="1.0" encoding="UTF-8"?>
<svg xmlns="http://www.w3.org/2000/svg" id="Layer_1" data-name="Layer 1" viewBox="0 0 24 24">
  <path d="m21.95,5.551l-3.485-3.485C17.143.743,15.385.015,13.515.015h-4.515C6.727.015,4.737,1.55,4.163,3.747c-.14.534.18,1.081.714,1.221.538.137,1.082-.181,1.22-.715.345-1.317,1.539-2.238,2.903-2.238h4.515c.165,0,.323.032.485.047v4.953c0,1.654,1.346,3,3,3h4.951c.016.162.049.322.049.485v8.515c0,1.654-1.346,3-3,3h-10c-.69,0-1.338-.228-1.875-.657-.43-.343-1.059-.276-1.406.154-.345.432-.276,1.061.155,1.406.882.707,1.992,1.097,3.125,1.097h10c2.757,0,5-2.243,5-5v-8.515c0-1.869-.728-3.627-2.05-4.949Zm-4.95,2.464c-.551,0-1-.448-1-1V2.698c.376.217.735.466,1.05.781l3.485,3.485c.311.311.559.672.776,1.05h-4.312Zm-7,7.985h8c.552,0,1,.447,1,1s-.448,1-1,1h-8c-.552,0-1-.447-1-1s.448-1,1-1Zm-3,2.847v-4.75c.907-.734,1.5-1.842,1.5-3.097,0-2.206-1.794-4-4-4S.5,8.794.5,11c0,1.255.593,2.363,1.5,3.097v4.75c0,.623.791.89,1.169.395l1.331-1.743,1.331,1.743c.378.495,1.169.228,1.169-.395Zm-2.5-9.847c1.103,0,2,.897,2,2s-.897,2-2,2-2-.897-2-2,.897-2,2-2Zm6.5,5c-.552,0-1-.447-1-1s.448-1,1-1h7c.552,0,1,.447,1,1s-.448,1-1,1h-7Z"/>
</svg>
