<?xml version="1.0" encoding="UTF-8"?>
<svg xmlns="http://www.w3.org/2000/svg" id="Layer_1" data-name="Layer 1" viewBox="0 0 24 24">
  <path d="m22.277.709c-1.342-.94-3.215-.94-4.555,0-1.449,1.017-2.066,2.826-1.535,4.5.176.557.021,1.169-.407,1.596l-1.923,1.923-.637-.637c-1.452-1.452-3.817-1.454-5.271,0-.772.772-1.121,1.801-1.073,2.814-1.015-.038-2.043.302-2.784,1.043-.704.704-1.092,1.64-1.092,2.636s.388,1.932,1.092,2.635l.637.637L.293,22.293c-.391.391-.391,1.023,0,1.414.195.195.451.293.707.293s.512-.098.707-.293l4.436-4.436.637.637c.727.727,1.681,1.09,2.636,1.09s1.909-.363,2.636-1.09c.763-.763,1.115-1.777,1.076-2.779.049.002.095.014.145.014.995,0,1.932-.388,2.636-1.092.704-.704,1.092-1.64,1.092-2.636s-.388-1.932-1.092-2.635l-.637-.637,1.923-1.923c.957-.958,1.302-2.342.899-3.614-.266-.838.047-1.747.777-2.259.654-.458,1.604-.458,2.258,0,.554.389.871.992.871,1.654,0,.252-.073.66-.707,1.292-.391.391-.391,1.023,0,1.415.391.391,1.023.39,1.414,0,.87-.87,1.293-1.755,1.293-2.708,0-1.323-.628-2.522-1.723-3.291Zm-11.64,17.785c-.674.673-1.77.673-2.443,0l-2.688-2.688c-.326-.326-.506-.76-.506-1.221s.18-.896.506-1.222.76-.506,1.222-.506.895.18,1.221.506l2.689,2.688c.673.673.673,1.77,0,2.443Zm3.856-3.857c-.652.651-1.79.653-2.442,0l-2.689-2.688c-.673-.673-.673-1.77,0-2.443.337-.336.779-.505,1.222-.505s.885.168,1.222.505l2.688,2.688c.326.326.506.76.506,1.221s-.18.896-.506,1.222Z"/>
</svg>
