<?xml version="1.0" encoding="UTF-8"?>
<svg xmlns="http://www.w3.org/2000/svg" id="Layer_1" data-name="Layer 1" viewBox="0 0 24 24">
  <path d="m11,7h-1c-1.103,0-2,.897-2,2v8c0,.553.448,1,1,1s1-.447,1-1v-3h1c.144,0,.281-.026.42-.042l.821,3.285c.114.455.521.758.969.758.848,0,1.105-.707.971-1.242l-.905-3.621c.743-.642,1.224-1.58,1.224-2.636,0-1.93-1.57-3.5-3.5-3.5Zm0,5h-1v-3h1c.827,0,1.5.673,1.5,1.5s-.673,1.5-1.5,1.5Zm-9.001-1.5v4c0,.827.673,1.5,1.5,1.5.71,0,1.328-.505,1.47-1.199.11-.541.639-.891,1.179-.78.542.109.891.638.781,1.179-.33,1.623-1.772,2.801-3.43,2.801C1.569,18-.001,16.43-.001,14.5v-4C-.001,8.571,1.568,7.001,3.497,7h.001c1.657,0,3.1,1.178,3.43,2.801.11.541-.239,1.069-.781,1.179-.542.109-1.069-.24-1.179-.781-.142-.695-.759-1.199-1.47-1.199-.827,0-1.5.673-1.5,1.5Zm22.017,6.418c.045.55-.306,1.082-.998,1.082-.515,0-.953-.396-.996-.918l-.496-5.997-.991,2.309c-.158.367-.519.605-.918.605h0c-.4,0-.761-.238-.919-.605l-.974-2.267-.458,5.95c-.043.551-.529.954-1.074.92-.551-.042-.963-.523-.92-1.074l.67-8.703c.046-.607.499-1.101,1.1-1.201.601-.098,1.189.222,1.429.781l1.146,2.666,1.136-2.647c.242-.562.831-.887,1.435-.787.604.099,1.06.592,1.11,1.202l.718,8.685Z"/>
</svg>
