<?xml version="1.0" encoding="UTF-8"?>
<svg xmlns="http://www.w3.org/2000/svg" id="Layer_1" data-name="Layer 1" viewBox="0 0 24 24">
  <path d="m24,10v6c0,2.757-2.243,5-5,5h-6v1h3c.553,0,1,.447,1,1s-.447,1-1,1h-8c-.553,0-1-.447-1-1s.447-1,1-1h3v-1h-6c-2.757,0-5-2.243-5-5v-6c0-2.283,1.542-4.274,3.751-4.842.531-.134,1.08.184,1.218.719.138.535-.185,1.08-.72,1.217-1.324.341-2.249,1.536-2.249,2.906v6c0,1.654,1.346,3,3,3h14c1.654,0,3-1.346,3-3v-6c0-1.37-.925-2.565-2.249-2.906-.535-.137-.857-.683-.72-1.217.138-.535.689-.854,1.218-.719,2.209.568,3.751,2.559,3.751,4.842Zm-17.696-.866l.953-.55c-.167-.498-.257-1.03-.257-1.583s.091-1.086.257-1.583l-.953-.55c-.479-.276-.643-.888-.366-1.366.276-.479.888-.643,1.366-.366l.956.552c.706-.795,1.66-1.365,2.74-1.585v-1.101c0-.552.447-1,1-1s1,.448,1,1v1.101c1.08.22,2.035.79,2.74,1.585l.956-.552c.476-.277,1.089-.113,1.366.366.276.479.112,1.09-.366,1.366l-.953.55c.167.498.257,1.03.257,1.583s-.091,1.086-.257,1.583l.953.55c.479.276.643.888.366,1.366-.186.321-.521.5-.867.5-.17,0-.342-.043-.499-.134l-.956-.552c-.706.795-1.66,1.365-2.74,1.585v1.101c0,.553-.447,1-1,1s-1-.447-1-1v-1.101c-1.08-.22-2.035-.79-2.74-1.585l-.956.552c-.157.091-.329.134-.499.134-.346,0-.682-.179-.867-.5-.276-.479-.112-1.09.366-1.366Zm2.696-2.134c0,1.654,1.346,3,3,3s3-1.346,3-3-1.346-3-3-3-3,1.346-3,3Z"/>
  <path d="m12,8.5c.828,0,1.5-.672,1.5-1.5s-.672-1.5-1.5-1.5-1.5.672-1.5,1.5.672,1.5,1.5,1.5"/>
</svg>
