<?xml version="1.0" encoding="UTF-8"?>
<svg xmlns="http://www.w3.org/2000/svg" id="Layer_1" data-name="Layer 1" viewBox="0 0 24 24">
  <path d="m21.944,11.478l-2.501-.829c-.607-.201-1.278-.201-1.888,0l-2.5.829c-1.229.408-2.056,1.552-2.056,2.848v3.187c0,3.568,3.714,5.703,4.853,6.272,0,0,.201.206.648.206s.582-.156.582-.156c1.154-.464,4.917-2.291,4.917-6.322v-3.187c0-1.295-.826-2.439-2.056-2.848Zm.056,6.035c0,2.582-2.424,3.925-3.455,4.378-.916-.491-3.545-2.099-3.545-4.378v-3.187c0-.432.275-.813.686-.949l2.499-.829c.205-.067.428-.067.63,0l2.5.829c.41.136.686.518.686.949v3.187Zm-9-8.513H5c-.552,0-1-.448-1-1s.448-1,1-1h8c.552,0,1,.448,1,1s-.448,1-1,1Zm-2,3c0,.552-.448,1-1,1h-5c-.552,0-1-.448-1-1s.448-1,1-1h5c.552,0,1,.448,1,1Zm0,4c0,.552-.448,1-1,1h-5c-.552,0-1-.448-1-1s.448-1,1-1h5c.552,0,1,.448,1,1Zm2,7c0,.552-.448,1-1,1h-7c-2.757,0-5-2.243-5-5V7C0,4.243,2.243,2,5,2h.171c.413-1.164,1.525-2,2.829-2h2c1.304,0,2.416.836,2.829,2h.171c2.757,0,5,2.243,5,5v1c0,.552-.448,1-1,1s-1-.448-1-1v-1c0-1.654-1.346-3-3-3h-1c-.552,0-1-.448-1-1s-.449-1-1-1h-2c-.551,0-1,.449-1,1s-.448,1-1,1h-1c-1.654,0-3,1.346-3,3v12c0,1.654,1.346,3,3,3h7c.552,0,1,.448,1,1Z"/>
</svg>
