<?xml version="1.0" encoding="UTF-8"?>
<svg xmlns="http://www.w3.org/2000/svg" id="Layer_1" data-name="Layer 1" viewBox="0 0 24 24">
  <path d="m.526,5.006c1.191-.673,2.345-1.297,3.491-1.297.934,0,1.95.674,2.693,1.292h2.426s-.264-.092-.264-.092c-.667-.131-1.336-.393-1.837-.894-.465-.465-.807-1.759-1.016-2.796-.143-.711.488-1.342,1.199-1.199,1.037.209,2.283.545,2.99,1.252,1.217,1.217,1.882,3.729,1.882,3.729h3.047s-.267-.093-.267-.093c-.667-.131-1.336-.393-1.837-.894-.465-.465-.807-1.759-1.016-2.796-.143-.711.488-1.342,1.199-1.199,1.037.209,2.283.545,2.99,1.252,1.217,1.217,1.882,3.73,1.882,3.73h4.908c.553,0,1,.449,1,1.001s-.448,1-1,1h-4.907s-.666,2.507-1.883,3.724c-.707.707-1.954,1.043-2.99,1.252-.711.143-1.342-.488-1.199-1.199.209-1.037.55-2.331,1.016-2.796.501-.501,1.169-.762,1.837-.894l.255-.089h-3.035s-.666,2.508-1.883,3.725c-.707.707-1.954,1.043-2.99,1.252-.711.143-1.342-.488-1.199-1.199.209-1.037.55-2.331,1.016-2.796.501-.501,1.169-.762,1.837-.894l.257-.09h-2.421c-.743.617-1.758,1.29-2.692,1.29-1.146,0-2.3-.624-3.491-1.297-.772-.436-.772-1.552,0-1.988Zm22.821,9.295c.612.812.806,1.833.53,2.803-.749,2.633-3.581,4.722-5.203,5.734-1.221.76-2.658,1.162-4.158,1.162h-5.033c-1.5,0-2.938-.402-4.158-1.162-1.622-1.012-4.454-3.101-5.203-5.734-.275-.97-.082-1.992.53-2.803.624-.827,1.575-1.301,2.609-1.301h17.477c1.034,0,1.985.474,2.609,1.301Zm-1.596,1.206c-.243-.322-.612-.506-1.014-.506H3.262c-.401,0-.771.185-1.014.506-.231.306-.305.689-.202,1.051.406,1.43,2.028,3.144,4.338,4.583.901.562,1.974.859,3.1.859h5.033c1.126,0,2.198-.297,3.1-.859,2.31-1.44,3.932-3.154,4.338-4.583.103-.361.029-.745-.202-1.051Z"/>
</svg>
