<?xml version="1.0" encoding="UTF-8"?>
<svg xmlns="http://www.w3.org/2000/svg" id="Layer_1" data-name="Layer 1" viewBox="0 0 24 24">
  <path d="m24,12c0,.552-.448,1-1,1h-14.036l3.243,3.243c.391.391.391,1.023,0,1.414-.195.195-.451.293-.707.293s-.512-.098-.707-.293l-4.243-4.243c-.78-.78-.78-2.048,0-2.828l4.243-4.243c.391-.391,1.023-.391,1.414,0s.391,1.023,0,1.414l-3.243,3.243h14.036c.552,0,1,.448,1,1Zm-1.386,3.068c-.516-.201-1.095.054-1.295.568-1.51,3.866-5.167,6.364-9.318,6.364-5.514,0-10-4.486-10-10S6.486,2,12,2c4.151,0,7.809,2.498,9.318,6.364.201.514.778.768,1.295.568.515-.201.769-.781.568-1.295C21.37,2.998,16.981,0,12,0,5.383,0,0,5.383,0,12s5.383,12,12,12c4.981,0,9.37-2.998,11.182-7.636.201-.515-.053-1.094-.568-1.295Z"/>
</svg>
