<?xml version="1.0" encoding="UTF-8"?>
<svg xmlns="http://www.w3.org/2000/svg" id="Layer_1" data-name="Layer 1" viewBox="0 0 24 24">
  <path d="m15,6c-1.93,0-3.5,1.57-3.5,3.5s1.57,3.5,3.5,3.5,3.5-1.57,3.5-3.5-1.57-3.5-3.5-3.5Zm0,5c-.827,0-1.5-.673-1.5-1.5s.673-1.5,1.5-1.5,1.5.673,1.5,1.5-.673,1.5-1.5,1.5Zm-2.001,3h-4.183l.58-3.265c.057-.334.029-.519.007-.599-.188-.69-.75-1.136-1.432-1.136-.213,0-.428.044-.64.132-.254.105-.503.367-.682.719l-2.193,4.149h-1.456c-1.657,0-3,1.343-3,3v4c0,1.657,1.343,3,3,3h8.379c1.907,0,3.548-1.346,3.922-3.216l.639-3.196c.371-1.856-1.049-3.588-2.942-3.588Zm-10.999,7v-4c0-.551.449-1,1-1h1v6h-1c-.551,0-1-.449-1-1Zm11.98-3.804l-.639,3.196c-.186.932-1.011,1.608-1.961,1.608h-5.379v-6h6.999c.412,0,.661.229.773.366.112.137.288.426.207.83Zm9.048-2.616c-.189.301-.515.466-.846.466-.183,0-.368-.05-.533-.155l-.901-.57c-.334.397-.712.763-1.131,1.091-.183.144-.4.213-.615.213-.297,0-.592-.132-.788-.384-.341-.435-.264-1.063.171-1.403.492-.385,2.116-1.837,2.116-4.337,0-3.032-2.468-5.5-5.5-5.5-1.885,0-3.618.949-4.636,2.539-.298.465-.917.601-1.381.304l-1.685-1.077c-.465-.298-.602-.916-.304-1.382.297-.465.914-.601,1.381-.304l.898.574c1.202-1.424,2.88-2.343,4.726-2.588v-1.066c0-.553.447-1,1-1s1,.447,1,1v1.067c1.86.249,3.507,1.182,4.677,2.537l.896-.585c.463-.299,1.082-.172,1.385.291.302.463.171,1.083-.291,1.385l-.895.584c.466.976.728,2.069.728,3.221,0,1.102-.237,2.166-.681,3.133l.898.568c.467.295.606.912.311,1.379Z"/>
</svg>
