<?xml version="1.0" encoding="UTF-8"?>
<svg xmlns="http://www.w3.org/2000/svg" id="Layer_1" data-name="Layer 1" viewBox="0 0 24 24">
  <path d="m8.433,18.607c.76.762.76,2.023-.013,2.798l-2.199,2.288c-.196.204-.458.307-.721.307-.25,0-.499-.093-.693-.279-.398-.383-.411-1.016-.028-1.414l1.256-1.307h-2.035c-2.206,0-4-1.794-4-4v-2c0-.553.448-1,1-1s1,.447,1,1v2c0,1.103.897,2,2,2h2.029l-1.25-1.307c-.383-.398-.371-1.031.028-1.414.397-.383,1.03-.37,1.414.027l2.212,2.301ZM20,3h-2.035l1.256-1.307c.383-.398.371-1.031-.028-1.414-.397-.382-1.03-.37-1.414.027l-2.199,2.288c-.773.774-.773,2.036-.013,2.798l2.212,2.301c.196.204.458.307.721.307.25,0,.499-.093.693-.279.398-.383.411-1.016.028-1.414l-1.25-1.307h2.029c1.103,0,2,.897,2,2v2c0,.553.448,1,1,1s1-.447,1-1v-2c0-2.206-1.794-4-4-4Zm3.996,12.715v3.555c0,1.074-.579,2.072-1.512,2.604l-3,1.715c-.459.263-.974.394-1.488.394s-1.029-.131-1.489-.394l-3-1.715c-.932-.531-1.512-1.529-1.512-2.604v-3.555c0-1.074.579-2.072,1.512-2.605l3-1.714c.918-.525,2.058-.525,2.977,0l3,1.714c.933.533,1.512,1.532,1.512,2.605Zm-9.262-1.003l3.266,1.837,3.262-1.834-2.77-1.583c-.153-.088-.325-.131-.496-.131s-.343.043-.496.131l-2.767,1.58Zm2.266,6.854v-3.285l-3.004-1.689v2.677c0,.358.193.69.503.867l2.501,1.43Zm4.996-2.297v-2.672l-2.996,1.685v3.28l2.492-1.424h0c.311-.178.503-.51.503-.868ZM13,6.5c0,3.59-2.91,6.5-6.5,6.5S0,10.09,0,6.5,2.91,0,6.5,0s6.5,2.91,6.5,6.5Zm-2.5,1.897c.01-1.297-.916-2.397-2.193-2.61l-3.261-.544c-.289-.048-.523-.281-.544-.574-.026-.365.263-.67.622-.67h2.376c.367,0,.689.199.862.494.182.31.509.506.869.506.763,0,1.253-.825.874-1.487-.518-.903-1.491-1.513-2.605-1.513,0-.552-.448-1-1-1s-1,.448-1,1h-.315c-1.451,0-2.673,1.152-2.685,2.603-.01,1.297.915,2.397,2.192,2.61l3.286.548c.315.052.54.331.52.655-.02.334-.315.585-.649.585h-2.35c-.367,0-.688-.199-.862-.494-.182-.31-.509-.506-.869-.506-.763,0-1.253.825-.874,1.487.518.903,1.491,1.513,2.605,1.513,0,.552.448,1,1,1s1-.448,1-1h.315c1.451,0,2.673-1.152,2.685-2.603Z"/>
</svg>
