<?xml version="1.0" encoding="UTF-8"?>
<svg xmlns="http://www.w3.org/2000/svg" id="Layer_1" data-name="Layer 1" viewBox="0 0 24 24">
  <path d="m21,22h-.949c1.228-1.354,1.949-2.91,1.949-4.39,0-4.285-3.708-6.157-6.415-7.523-.731-.369-1.718-.87-2.234-1.287-.032-.081-.229-.628-.312-1.807,1.193-.067,2.236-.683,2.887-1.599.202-.285-.038-.671-.383-.619-.175.026-.354.04-.537.04-2.111,0-3.822-1.711-3.822-3.822,0-.183.014-.362.04-.537.052-.345-.334-.585-.619-.383-1.051.747-1.708,2.009-1.593,3.422.106,1.301.884,2.414,1.976,3.019-.053,1.624-.31,2.248-.31,2.248l.008.007c-.505.422-1.524.939-2.272,1.316-2.707,1.367-6.415,3.239-6.415,7.523,0,1.48.721,3.036,1.949,4.39h-.949c-.553,0-1,.448-1,1s.447,1,1,1h18c.553,0,1-.448,1-1s-.447-1-1-1Zm-17-4.39c0-3.054,2.824-4.48,5.316-5.738,1.039-.524,2.003-1.011,2.684-1.597.681.586,1.645,1.072,2.684,1.597,2.492,1.258,5.316,2.684,5.316,5.738,0,1.457-1.171,3.169-2.987,4.39H6.987c-1.816-1.221-2.987-2.932-2.987-4.39Z"/>
</svg>
