<?xml version="1.0" encoding="UTF-8"?>
<svg xmlns="http://www.w3.org/2000/svg" id="Layer_1" data-name="Layer 1" viewBox="0 0 24 24">
  <path d="m18,18V6c.552,0,1-.448,1-1s-.448-1-1-1h-.35c-.826-2.327-3.043-4-5.65-4s-4.824,1.673-5.65,4h-.35c-.552,0-1,.448-1,1s.448,1,1,1v12c-.552,0-1,.448-1,1s.448,1,1,1h.35c.826,2.327,3.043,4,5.65,4s4.824-1.673,5.65-4h.35c.552,0,1-.448,1-1s-.448-1-1-1Zm-4.086,0l-5.914-5.914v-2.672l8,8v.586h-2.086Zm-3.828-12l5.914,5.914v2.672L8,6.586v-.586h2.086Zm5.914,3.086l-3.086-3.086h3.086v3.086Zm-4-7.086c1.474,0,2.75.81,3.444,2h-6.887c.694-1.19,1.97-2,3.444-2Zm-4,12.914l3.086,3.086h-3.086v-3.086Zm4,7.086c-1.474,0-2.75-.81-3.444-2h6.887c-.694,1.19-1.97,2-3.444,2Z"/>
</svg>
