<?xml version="1.0" encoding="UTF-8"?>
<svg xmlns="http://www.w3.org/2000/svg" id="Layer_1" data-name="Layer 1" viewBox="0 0 24 24">
  <path d="m22,5h-7.494l.266-2.124c.062-.5.489-.876.992-.876h3.235c.553,0,1-.448,1-1s-.447-1-1-1h-3.235c-1.509,0-2.788,1.129-2.977,2.627l-.297,2.373H2c-.553,0-1,.448-1,1s.447,1,1,1h.611l1.486,12.586c.298,2.516,2.433,4.414,4.966,4.414h5.875c2.533,0,4.668-1.897,4.966-4.414l1.486-12.586h.611c.553,0,1-.448,1-1s-.447-1-1-1Zm-4.083,14.351c-.179,1.51-1.46,2.649-2.979,2.649h-5.875c-1.52,0-2.801-1.139-2.979-2.648l-1.458-12.352h14.75l-1.458,12.351Z"/>
</svg>
