<?xml version="1.0" encoding="UTF-8"?>
<svg xmlns="http://www.w3.org/2000/svg" id="Layer_1" data-name="Layer 1" viewBox="0 0 24 24">
  <path d="m20.994,12.125c-.137-4.512-2.749-6.125-4.994-6.125-1.012,0-2.099.328-3,1.102v-.602C13,1.702,10.307,0,8,0,5.755,0,3.143,1.614,3.006,6.125c-1.726.443-3.006,2.012-3.006,3.875,0,1.742,1.107,3.804,2.055,5.04.468.61,1.177.96,1.945.96s1.478-.35,1.945-.96c.948-1.236,2.055-3.298,2.055-5.04,0-1.858-1.274-3.424-2.994-3.872.133-3.823,2.312-4.128,2.994-4.128.704,0,3,.325,3,4.5v16.5c0,.552.448,1,1,1s1-.448,1-1v-10.5c0-4.175,2.296-4.5,3-4.5.682,0,2.861.305,2.994,4.128-1.72.447-2.994,2.014-2.994,3.872,0,1.742,1.107,3.804,2.055,5.04.468.61,1.177.96,1.945.96s1.478-.35,1.945-.96c.948-1.236,2.055-3.298,2.055-5.04,0-1.863-1.28-3.432-3.006-3.875Zm-14.994-2.125c0,1.104-.826,2.759-1.642,3.823-.118.154-.275.177-.358.177s-.24-.023-.358-.177c-.816-1.064-1.642-2.719-1.642-3.823s.897-2,2-2,2,.897,2,2Zm14.358,9.823c-.118.154-.275.177-.358.177s-.24-.023-.358-.177c-.816-1.064-1.642-2.719-1.642-3.823s.897-2,2-2,2,.897,2,2-.826,2.759-1.642,3.823Z"/>
</svg>
