<?xml version="1.0" encoding="UTF-8"?>
<svg xmlns="http://www.w3.org/2000/svg" id="Layer_1" data-name="Layer 1" viewBox="0 0 24 24">
  <path d="m17,0H7C4.243,0,2,2.243,2,5v14c0,2.757,2.243,5,5,5h10c2.757,0,5-2.243,5-5V5c0-2.757-2.243-5-5-5ZM7,2h10c1.654,0,3,1.346,3,3v3H4v-3c0-1.654,1.346-3,3-3Zm10,20H7c-1.654,0-3-1.346-3-3v-9h16v9c0,1.654-1.346,3-3,3Zm-1-10h-8c-1.103,0-2,.897-2,2v4c0,1.103.897,2,2,2h8c1.103,0,2-.897,2-2v-4c0-1.103-.897-2-2-2Zm-8,6v-4h8l.002,4h-8.002Zm2.5-13c0-.828.672-1.5,1.5-1.5s1.5.672,1.5,1.5-.672,1.5-1.5,1.5-1.5-.672-1.5-1.5Zm4.5,0c0-.828.672-1.5,1.5-1.5s1.5.672,1.5,1.5-.672,1.5-1.5,1.5-1.5-.672-1.5-1.5Zm-9,0c0-.828.672-1.5,1.5-1.5s1.5.672,1.5,1.5-.672,1.5-1.5,1.5-1.5-.672-1.5-1.5Z"/>
</svg>
