<?xml version="1.0" encoding="UTF-8"?>
<svg xmlns="http://www.w3.org/2000/svg" id="Layer_1" data-name="Layer 1" viewBox="0 0 24 24">
  <path d="m21.932,2.068C20.427.562,18.332-.167,16.04.03c-2.231.186-4.395,1.223-6.091,2.919s-2.733,3.859-2.919,6.091c-.161,1.931.333,3.713,1.389,5.128l-2.935,2.935c-.733-.223-1.561-.055-2.14.524l-2.716,2.716c-.836.836-.836,2.195,0,3.03.836.836,2.195.836,3.03,0l2.716-2.716c.579-.579.747-1.407.524-2.14l2.935-2.935c1.238.923,2.756,1.418,4.411,1.418.237,0,.476-.01.718-.03,2.231-.186,4.395-1.223,6.091-2.919,1.696-1.696,2.733-3.859,2.919-6.091.191-2.294-.532-4.387-2.038-5.893Zm.045,5.726c-.147,1.761-.978,3.481-2.34,4.843s-3.082,2.193-4.843,2.34c-1.699.142-3.229-.377-4.312-1.459-1.083-1.083-1.601-2.614-1.459-4.312.147-1.761.978-3.481,2.34-4.843,1.362-1.362,3.083-2.193,4.843-2.34.184-.015.365-.022.545-.022,1.479,0,2.802.517,3.768,1.482,1.083,1.083,1.601,2.614,1.459,4.312Zm1.452,15.003c.244.57-.174,1.204-.794,1.204h-4.291c-.62,0-1.038-.634-.794-1.204l1.42-2.296v-1c0-.828.672-1.5,1.5-1.5s1.5.672,1.5,1.5v1l1.459,2.296Z"/>
</svg>
