<?xml version="1.0" encoding="UTF-8"?>
<svg xmlns="http://www.w3.org/2000/svg" id="Layer_1" data-name="Layer 1" viewBox="0 0 24 24">
  <path d="m19,9.625v-4.625h1c.553,0,1-.447,1-1s-.447-1-1-1h-1.126c-.445-1.724-2.013-3-3.874-3h-6c-2.206,0-4,1.794-4,4v5.625c-1.273.76-2,1.926-2,2.875,0,2.736,2.342,6.66,7.335,7.383-.479,1.117-1.835,1.117-1.835,1.117-.828,0-1.5.672-1.5,1.5s.672,1.5,1.5,1.5h7c.828,0,1.5-.672,1.5-1.5s-.672-1.5-1.5-1.5c0,0-1.356,0-1.835-1.117,4.993-.723,7.335-4.647,7.335-7.383,0-.948-.727-2.115-2-2.875ZM9,2h6c1.103,0,2,.897,2,2v5.032l-10-.031v-5.001c0-1.103.897-2,2-2Zm3,16c-2.761,0-4.621-1.116-5.725-2.436,1.648.379,3.717.436,5.725.436s4.077-.058,5.725-.436c-1.104,1.32-2.964,2.436-5.725,2.436Zm0-4c-4.643,0-6.999-.505-7-1.498h0c.008-.276.575-1.131,1.806-1.502h10.389c1.229.371,1.798,1.226,1.806,1.5,0,.995-2.355,1.5-7,1.5Z"/>
</svg>
