<?xml version="1.0" encoding="UTF-8"?>
<svg xmlns="http://www.w3.org/2000/svg" id="Layer_1" data-name="Layer 1" viewBox="0 0 24 24">
  <path d="m21,21c0,.553-.448,1-1,1H1c-.552,0-1-.447-1-1s.448-1,1-1h19c.552,0,1,.447,1,1Zm3-12.5v2c0,1.93-1.57,3.5-3.5,3.5h-1.601c-.465,2.279-2.485,4-4.899,4h-7c-2.757,0-5-2.243-5-5V5c0-1.654,1.346-3,3-3h11c1.654,0,3,1.346,3,3h1.5c1.93,0,3.5,1.57,3.5,3.5Zm-15.707-.379c-.186.187-.293.444-.293.707v1.672c0,.275.224.5.5.5h1c.276,0,.5-.225.5-.5v-1.672c0-.263-.107-.521-.293-.707l-.707-.707-.707.707Zm8.707-3.121c0-.552-.449-1-1-1h-6v1.586l1.121,1.121c.567.566.879,1.32.879,2.121v1.672c0,1.379-1.122,2.5-2.5,2.5h-1c-1.378,0-2.5-1.121-2.5-2.5v-1.672c0-.801.312-1.555.879-2.121l1.121-1.121v-1.586h-3c-.551,0-1,.448-1,1v8c0,1.654,1.346,3,3,3h7c1.654,0,3-1.346,3-3V5Zm5,3.5c0-.827-.673-1.5-1.5-1.5h-1.5v5h1.5c.827,0,1.5-.673,1.5-1.5v-2Z"/>
</svg>
