<?xml version="1.0" encoding="UTF-8"?>
<svg xmlns="http://www.w3.org/2000/svg" id="Layer_1" data-name="Layer 1" viewBox="0 0 24 24">
  <path d="m19,5h-2c0-2.206-1.794-4-4-4H4C1.794,1,0,2.794,0,5v10c0,1.881,1.309,3.452,3.061,3.877-.038.204-.061.412-.061.623,0,1.93,1.57,3.5,3.5,3.5s3.5-1.57,3.5-3.5c0-.169-.017-.335-.041-.5h4.082c-.024.165-.041.331-.041.5,0,1.93,1.57,3.5,3.5,3.5s3.5-1.57,3.5-3.5c0-.211-.023-.419-.061-.623,1.752-.425,3.061-1.996,3.061-3.877v-5c0-2.757-2.243-5-5-5Zm0,2c1.654,0,3,1.346,3,3v1h-5v-4h2ZM2,15V5c0-1.103.897-2,2-2h9c1.103,0,2,.897,2,2v12H4c-1.103,0-2-.897-2-2Zm18,2h-3v-4h5v2c0,1.103-.897,2-2,2ZM4,10c0-.553.447-1,1-1h2.5v-2.5c0-.553.447-1,1-1s1,.447,1,1v2.5h2.5c.553,0,1,.447,1,1s-.447,1-1,1h-2.5v2.5c0,.553-.447,1-1,1s-1-.447-1-1v-2.5h-2.5c-.553,0-1-.447-1-1Z"/>
</svg>
