<?xml version="1.0" encoding="UTF-8"?>
<svg xmlns="http://www.w3.org/2000/svg" id="Layer_1" data-name="Layer 1" viewBox="0 0 24 24">
  <path d="m7,12.5c0,.828-.672,1.5-1.5,1.5s-1.5-.672-1.5-1.5.672-1.5,1.5-1.5,1.5.672,1.5,1.5Zm-1.5,5.5c-.828,0-1.5.672-1.5,1.5s.672,1.5,1.5,1.5,1.5-.672,1.5-1.5-.672-1.5-1.5-1.5Zm13,0c-.828,0-1.5.672-1.5,1.5s.672,1.5,1.5,1.5,1.5-.672,1.5-1.5-.672-1.5-1.5-1.5Zm0-7c-.828,0-1.5.672-1.5,1.5s.672,1.5,1.5,1.5,1.5-.672,1.5-1.5-.672-1.5-1.5-1.5Zm5.5,2v6c0,2.757-2.243,5-5,5H5c-2.757,0-5-2.243-5-5v-6c0-2.757,2.243-5,5-5h5.998l-.01-5.066-1.283,1.275c-.195.194-.45.291-.705.291-.257,0-.514-.099-.709-.295-.39-.392-.388-1.025.004-1.414l2.19-2.177c.818-.818,2.151-.818,2.972.002l2.238,2.165c.396.384.407,1.018.023,1.414-.384.398-1.017.407-1.414.023l-1.316-1.273.01,5.055h6.002c2.757,0,5,2.243,5,5Zm-2,0c0-1.654-1.346-3-3-3H5c-1.654,0-3,1.346-3,3v6c0,1.654,1.346,3,3,3h14c1.654,0,3-1.346,3-3v-6Zm-6,3c0,2.206-1.794,4-4,4s-4-1.794-4-4,1.794-4,4-4,4,1.794,4,4Zm-2,0c0-1.103-.897-2-2-2s-2,.897-2,2,.897,2,2,2,2-.897,2-2Z"/>
</svg>
