<?xml version="1.0" encoding="UTF-8"?>
<svg xmlns="http://www.w3.org/2000/svg" id="Layer_1" data-name="Layer 1" viewBox="0 0 24 24">
  <path d="m23.311,6.205l-1.371-.587c-.432-3.168-3.155-5.617-6.44-5.617-3.584,0-6.5,2.916-6.5,6.5v1c0,1.93-1.57,3.5-3.5,3.5s-3.5-1.57-3.5-3.5v-.5c0-.552-.447-1-1-1s-1,.448-1,1v4c0,5.026,3.388,9.275,8,10.584v1.416c0,.553.447,1,1,1s1-.447,1-1v-1.046c.329.03.663.046,1,.046s.671-.016,1-.046v1.046c0,.553.447,1,1,1s1-.447,1-1v-1.416c4.612-1.309,8-5.558,8-10.584v-2.143l1.311-.562c.418-.179.689-.59.689-1.045s-.271-.866-.689-1.045ZM5.5,13c1.328,0,2.548-.474,3.5-1.261v.761c0,2.481-2.019,4.5-4.5,4.5h-.202c-1.268-1.415-2.095-3.232-2.265-5.234.947.771,2.154,1.234,3.467,1.234Zm14.5-2c0,4.963-4.037,9-9,9-1.687,0-3.267-.467-4.618-1.278,2.669-.809,4.618-3.292,4.618-6.222v-6c0-2.481,2.019-4.5,4.5-4.5s4.5,2.019,4.5,4.5v4.5Zm-2-5.5c0,.828-.672,1.5-1.5,1.5s-1.5-.672-1.5-1.5.672-1.5,1.5-1.5,1.5.672,1.5,1.5Z"/>
</svg>
