<?xml version="1.0" encoding="UTF-8"?>
<svg xmlns="http://www.w3.org/2000/svg" id="Layer_1" data-name="Layer 1" viewBox="0 0 24 24">
  <path d="m18.802,12.819c.266-.521.266-1.118,0-1.639,0,0,0-.002-.002-.003-.454-.882-2.939-4.178-6.8-4.178s-6.346,3.296-6.798,4.175c-.269.518-.269,1.134-.002,1.647.454.883,2.938,4.178,6.8,4.178s6.346-3.296,6.802-4.181Zm-6.802,2.181c-2.688,0-4.558-2.322-4.969-3,.406-.671,2.277-3,4.969-3s4.562,2.327,4.969,3c-.407.673-2.28,3-4.969,3Zm2-3c0,1.105-.895,2-2,2s-2-.895-2-2,.895-2,2-2,2,.895,2,2ZM.293,1.707C-.098,1.316-.098.684.293.293S1.316-.098,1.707.293l3.293,3.293v-1.586c0-.553.447-1,1-1s1,.447,1,1v2.49c0,1.374-1.117,2.495-2.49,2.5l-2.506.01h-.004c-.551,0-.998-.445-1-.996-.002-.553.443-1.002.996-1.004l1.584-.006L.293,1.707Zm16.717,2.803l-.01-2.506c-.002-.553.443-1.002.996-1.004h.004c.551,0,.998.445,1,.996l.006,1.584,3.287-3.287c.391-.391,1.023-.391,1.414,0s.391,1.023,0,1.414l-3.293,3.293h1.586c.553,0,1,.447,1,1s-.447,1-1,1h-2.49c-1.374,0-2.495-1.117-2.5-2.49Zm-10.01,15v2.49c0,.553-.447,1-1,1s-1-.447-1-1v-1.586l-3.293,3.293c-.195.195-.451.293-.707.293s-.512-.098-.707-.293c-.391-.391-.391-1.023,0-1.414l3.287-3.287-1.584-.006c-.553-.002-.998-.451-.996-1.004.002-.551.449-.996,1-.996h.004l2.506.01c1.373.005,2.49,1.126,2.49,2.5Zm16.707,2.783c.391.391.391,1.023,0,1.414-.195.195-.451.293-.707.293s-.512-.098-.707-.293l-3.287-3.287-.006,1.584c-.002.551-.449.996-1,.996h-.004c-.553-.002-.998-.451-.996-1.004l.01-2.506c.005-1.373,1.126-2.49,2.5-2.49h2.49c.553,0,1,.447,1,1s-.447,1-1,1h-1.586l3.293,3.293Z"/>
</svg>
