<?xml version="1.0" encoding="UTF-8"?>
<svg xmlns="http://www.w3.org/2000/svg" id="Layer_1" data-name="Layer 1" viewBox="0 0 24 24">
  <path d="m19,2h-1v-1c0-.552-.448-1-1-1s-1,.448-1,1v1h-8v-1c0-.552-.448-1-1-1s-1,.448-1,1v1h-1C2.243,2,0,4.243,0,7v3c0,.552.448,1,1,1s1-.448,1-1h20v9c0,1.654-1.346,3-3,3H4.146c-.732,0-1.436-.266-1.983-.75-.415-.366-1.046-.326-1.412.087-.366.414-.326,1.046.087,1.412.914.807,2.088,1.25,3.308,1.25h14.854c2.757,0,5-2.243,5-5V7c0-2.757-2.243-5-5-5ZM2,8v-1c0-1.654,1.346-3,3-3h14c1.654,0,3,1.346,3,3v1H2Zm2.623,5.429l-1.571,1.571h6.948c.552,0,1,.448,1,1s-.448,1-1,1H3.052l1.571,1.571c.391.391.391,1.023,0,1.414-.195.195-.451.293-.707.293s-.512-.098-.707-.293l-2.659-2.659c-.731-.731-.731-1.92,0-2.651l2.659-2.659c.391-.391,1.023-.391,1.414,0s.391,1.023,0,1.414Z"/>
</svg>
