<?xml version="1.0" encoding="UTF-8"?>
<svg xmlns="http://www.w3.org/2000/svg" id="Layer_1" data-name="Layer 1" viewBox="0 0 24 24">
  <path d="m21.193,3.832L14.193.488c-1.37-.654-2.94-.654-4.31,0L2.883,3.832C1.155,4.657.039,6.429.039,8.341l-.039,14.656c-.001.553.445,1.002.998,1.003h.002c.551,0,.999-.446,1-.997l.008-3.003h19.992v3c0,.553.448,1,1,1s1-.447,1-1v-14.656c0-1.956-1.076-3.686-2.807-4.512Zm-10.448-1.539c.822-.392,1.765-.393,2.586,0l5.667,2.707H5.078l5.667-2.707Zm2.255,15.707v-5l1.6-1.2c.442-.331.531-.958.2-1.399-.33-.442-.957-.531-1.4-.2l-1.6,1.2c-.501.375-.8.974-.8,1.6v5H2.013l.025-9.656c0-.475.12-.932.327-1.344h2.634v1c0,.553.448,1,1,1s1-.447,1-1v-1h4v1c0,.553.448,1,1,1s1-.447,1-1v-1h4v1c0,.553.448,1,1,1s1-.447,1-1v-1h2.692c.197.407.308.862.308,1.344v9.656h-9Zm5,5c0,.553-.448,1-1,1H7c-.552,0-1-.447-1-1s.448-1,1-1h10c.552,0,1,.447,1,1Z"/>
</svg>
