<?xml version="1.0" encoding="UTF-8"?>
<svg xmlns="http://www.w3.org/2000/svg" id="Layer_1" data-name="Layer 1" viewBox="0 0 24 24">
  <path d="m15.843,20.249c-.569,2.209-2.561,3.751-4.843,3.751H2.653c-1.463,0-2.653-1.19-2.653-2.653,0-1.089.684-2.066,1.741-2.488.765-.306,1.259-1.035,1.259-1.858v-8c0-.553.447-1,1-1s1,.447,1,1v8c0,1.646-.987,3.104-2.517,3.716-.234.093-.483.308-.483.631,0,.36.293.653.653.653h8.347c1.37,0,2.564-.925,2.905-2.249.138-.535.69-.856,1.218-.72.535.138.857.684.72,1.218Zm2.157-11.749c0,1.381.448,2.5,1,2.5s1-1.119,1-2.5-.448-2.5-1-2.5-1,1.119-1,2.5Zm5.707,13.793c.391.391.391,1.023,0,1.414-.195.195-.451.293-.707.293s-.512-.098-.707-.293L.293,1.707C-.098,1.316-.098.684.293.293S1.316-.098,1.707.293l2.421,2.421c.931-1.703,2.338-2.714,3.872-2.714h11c2.804,0,5,3.733,5,8.5s-2.196,8.5-5,8.5h-.586l5.293,5.293ZM19,2c-1.419,0-3,2.67-3,6.5s1.581,6.5,3,6.5,3-2.67,3-6.5-1.581-6.5-3-6.5Zm-13.377,2.209l8.377,8.377v-4.086c0-2.634.671-4.953,1.745-6.5h-7.745c-.898,0-1.801.853-2.377,2.209Z"/>
</svg>
