<?xml version="1.0" encoding="UTF-8"?>
<svg xmlns="http://www.w3.org/2000/svg" id="Layer_1" data-name="Layer 1" viewBox="0 0 24 24">
  <path d="m23.392,9.478l-1.306-1.306c-.744-.745-1.774-1.172-2.828-1.172h-2.26c0-1.405-.597-2.754-1.637-3.7-.573-.521-1.257-.896-1.991-1.106-.119-.035-.247-.046-.37-.072v-1.122c0-.552-.447-1-1-1s-1,.448-1,1v1.122c-.125.026-.256.037-.378.073-.731.209-1.413.584-1.985,1.104-1.04.946-1.637,2.295-1.637,3.7h-2.26c-1.054,0-2.084.427-2.828,1.172l-1.306,1.306c-.593.592-.768,1.475-.447,2.249.172.416.474.743.841.966v7.808c0,1.93,1.57,3.5,3.5,3.5h.715c1.536,0,2.785-1.25,2.785-2.785v-.215c0-1.2.532-2.326,1.459-3.089.94-.775,2.131-1.072,3.357-.831,1.845.36,3.184,2.099,3.184,4.135,0,1.536,1.249,2.785,2.785,2.785h.715c1.93,0,3.5-1.57,3.5-3.5v-7.809c.366-.223.667-.549.839-.965.32-.774.146-1.656-.447-2.249Zm-20.065.108c.375-.375.883-.586,1.414-.586h3.26c.552,0,1-.448,1-1v-1.001c0-1.656,1.343-2.999,2.999-2.999h0c1.657,0,3,1.344,2.999,3.001v.999c0,.552.448,1,1,1h3.26c.53,0,1.039.211,1.414.586l1.306,1.306-.045.108H2.065l-.045-.108,1.306-1.306Zm16.173,12.414h-.715c-.433,0-.785-.352-.785-.785,0-2.99-2.019-5.555-4.801-6.098-1.795-.354-3.622.105-5.012,1.25-1.39,1.145-2.187,2.834-2.187,4.633v.215c0,.433-.353.785-.785.785h-.715c-.827,0-1.5-.673-1.5-1.5v-7.5h18v7.5c0,.827-.673,1.5-1.5,1.5ZM10.5,7c0-.828.672-1.5,1.5-1.5s1.5.672,1.5,1.5-.672,1.5-1.5,1.5-1.5-.672-1.5-1.5Z"/>
</svg>
