<?xml version="1.0" encoding="UTF-8"?>
<svg xmlns="http://www.w3.org/2000/svg" id="Layer_1" data-name="Layer 1" viewBox="0 0 24 24">
  <path d="m23,22h-2v-10.462c1.719-.584,3-1.737,3-3.538,0-2.402-2.254-5.872-5.804-5.996-.963-.362-5.632-2.004-11.196-2.004-.552,0-1,.447-1,1s.448,1,1,1c2.934,0,5.641.502,7.589.994-.125.062-.25.126-.376.19-1.679.852-3.582,1.816-7.213,1.816-.552,0-1,.447-1,1s.448,1,1,1c2.733,0,4.631-.498,6.122-1.099-.08.354-.122.721-.122,1.099,0,.571.097,1.12.274,1.632C5.154,10.764,3.453,17.618,3.098,20.329c-.315-.208-.692-.329-1.098-.329-1.105,0-2,.895-2,2,0,1.087.867,1.971,1.948,1.999.017,0,.035.001.052.001h21c.552,0,1-.447,1-1s-.448-1-1-1Zm-1-14c0,1.468-2.392,2-4,2-1.654,0-3-1.346-3-3s1.346-3,3-3c2.481,0,4,2.59,4,4Zm-7.638,2.426c.912.968,2.206,1.574,3.638,1.574.334,0,.669-.016,1-.047v10.047h-2v-1c0-3.309-2.691-6-6-6-.552,0-1,.447-1,1s.448,1,1,1c2.206,0,4,1.794,4,4v1H5.002l.002-.548c.001-.37.146-8.981,9.358-11.026Z"/>
</svg>
