<?xml version="1.0" encoding="UTF-8"?>
<svg xmlns="http://www.w3.org/2000/svg" id="Layer_1" data-name="Layer 1" viewBox="0 0 24 24">
  <path d="m2.5,3.452c.006-.307.198-.579.484-.687l1.299-.492.52-1.301c.114-.285.39-.472.697-.472s.583.187.697.472l.523,1.308,1.308.523c.285.114.472.39.472.697s-.187.583-.472.697l-1.308.523-.523,1.308c-.114.285-.39.472-.697.472s-.583-.187-.697-.472l-.526-1.316-1.318-.556c-.283-.119-.464-.398-.459-.705Zm21.5,19.548c0,.553-.447,1-1,1H6.558c-.136,0-.771-.018-.869-.05-2.927-.332-5.689-2.317-5.689-5.45,0-2.135.945-3.659,1.778-5.004.655-1.057,1.222-1.969,1.222-2.996,0-1.56-.638-2.31-2.132-2.509-.548-.072-.933-.575-.859-1.123.072-.548.575-.934,1.123-.859,2.494.332,3.868,1.927,3.868,4.491,0,1.597-.773,2.844-1.521,4.051-.761,1.226-1.479,2.384-1.479,3.949,0,1.791,1.467,2.851,2.997,3.279-.004-1.12.234-7.646,6.022-11.145-.646-1.06-1.019-2.304-1.019-3.633,0-3.859,3.141-7,7-7s7,3.141,7,7c0,1.903-.764,3.63-2,4.893v10.107h1c.553,0,1,.447,1,1Zm-4-9.676c-.91.433-1.927.676-3,.676-1.801,0-3.446-.684-4.688-1.806-5.556,3.142-5.327,9.525-5.313,9.806h9.001c0-2.206-1.794-4-4-4-.553,0-1-.447-1-1s.447-1,1-1c3.309,0,6,2.691,6,6h2v-8.676Zm1-9.757c0-.521-.656-.752-.982-.346l-1.046,1.3c-.582-.331-1.255-.521-1.972-.521s-1.39.19-1.972.521l-1.046-1.3c-.327-.406-.982-.175-.982.346v3.255c0,2.088,1.522,3.956,3.6,4.159,2.384.233,4.4-1.643,4.4-3.98v-3.433Z"/>
</svg>
