<?xml version="1.0" encoding="UTF-8"?>
<svg xmlns="http://www.w3.org/2000/svg" id="Layer_1" data-name="Layer 1" viewBox="0 0 24 24">
  <path d="m18.793,12.225l3.8,1.689c.132.059.27.086.405.086.384,0,.749-.222.915-.594.224-.505-.003-1.096-.508-1.32l-7.25-3.222,2.958-1.381c1.753-.818,2.886-2.597,2.886-4.531v-1.953c0-.552-.447-1-1-1s-1,.448-1,1v1.953c0,1.161-.68,2.228-1.731,2.718l-2.801,1.307c.021-.156.033-.316.033-.478,0-1.93-1.57-3.5-3.5-3.5s-3.5,1.57-3.5,3.5c0,.162.011.322.033.478l-2.801-1.307c-1.052-.491-1.731-1.558-1.731-2.718v-1.953c0-.552-.447-1-1-1s-1,.448-1,1v1.953c0,1.934,1.133,3.712,2.886,4.531l2.958,1.381L.594,12.086c-.505.224-.731.815-.508,1.32.166.373.531.594.915.594.136,0,.273-.027.405-.086l3.8-1.689-3.806,5.075c-.903,1.203-1.4,2.694-1.4,4.2v1.5c0,.553.447,1,1,1s1-.447,1-1v-1.5c0-1.075.355-2.141,1-3l2.043-2.724c.387,3.496,3.36,6.224,6.957,6.224s6.569-2.728,6.957-6.224l2.043,2.725c.645.858,1,1.924,1,2.999v1.5c0,.553.447,1,1,1s1-.447,1-1v-1.5c0-1.506-.497-2.997-1.4-4.199l-3.806-5.076Zm-6.793-7.225c.827,0,1.5.673,1.5,1.5s-.673,1.5-1.5,1.5-1.5-.673-1.5-1.5.673-1.5,1.5-1.5Zm0,15c-2.757,0-5-2.243-5-5s2.243-5,5-5,5,2.243,5,5-2.243,5-5,5Zm2.364-7l-1.719,2,1.719,2c.322.403.035,1-.481,1h-3.766c-.516,0-.803-.597-.481-1l1.719-2-1.719-2c-.322-.403-.035-1,.481-1h3.766c.516,0,.803.597.481,1Z"/>
</svg>
