<?xml version="1.0" encoding="UTF-8"?>
<svg xmlns="http://www.w3.org/2000/svg" id="Layer_1" data-name="Layer 1" viewBox="0 0 24 24">
  <path d="m24,5v2c0,2.757-2.243,5-5,5h-2c-.552,0-1-.448-1-1s.448-1,1-1h2c1.654,0,3-1.346,3-3v-2c0-1.654-1.346-3-3-3H5c-1.654,0-3,1.346-3,3v2c0,1.654,1.346,3,3,3,.552,0,1,.448,1,1s-.448,1-1,1c-2.757,0-5-2.243-5-5v-2C0,2.243,2.243,0,5,0h14c2.757,0,5,2.243,5,5Zm-5.238,13.552l-4.755-1.783v-4.662c0-1.516-1.076-2.834-2.503-3.066-.879-.143-1.768.103-2.439.674-.672.571-1.057,1.404-1.057,2.286v7.563l-1.003-.799c-1.21-1.083-3.075-1.006-4.188.186-1.13,1.208-1.066,3.11.13,4.23l.558.538c.186.18.435.28.694.28.9,0,1.342-1.095.694-1.72l-.568-.548c-.403-.378-.424-1.013-.046-1.416.375-.402,1.008-.421,1.41-.048h0c.011.011,1.771,1.415,1.771,1.415.476.378,1.111.451,1.66.186.548-.264.889-.806.889-1.415v-8.455c0-.294.128-.572.353-.762.228-.193.519-.272.823-.224.462.076.825.556.825,1.093v5.354c0,.417.259.79.649.937l5.404,2.027c1.111.417,1.873,1.45,1.941,2.633.031.532.472.942.998.942.02,0,.039,0,.059-.001.551-.032.972-.505.94-1.057-.115-1.973-1.385-3.696-3.236-4.39Zm2.207-13.23c-.072-.197-.26-.329-.47-.329h-1.5l-.531-1.49c-.073-.196-.26-.325-.469-.325s-.396.13-.469.325l-.531,1.49h-1.5c-.21,0-.397.131-.469.328-.073.197-.014.418.146.553l1.189.967-.47,1.508c-.063.202.007.423.177.55.089.066.194.1.3.1.097,0,.194-.028.278-.084l1.354-.906,1.377.897c.178.115.409.106.578-.023.168-.13.236-.352.169-.553l-.489-1.49,1.183-.964c.161-.135.22-.357.148-.554Zm-6,0c-.072-.197-.26-.329-.47-.329h-1.5l-.531-1.49c-.073-.196-.26-.325-.469-.325s-.396.13-.469.325l-.531,1.49h-1.5c-.21,0-.397.131-.469.328-.073.197-.014.418.146.553l1.446,1.142c.397-.031.8-.016,1.202.05.823.134,1.576.48,2.21.978l-.396-1.205,1.183-.964c.161-.135.22-.357.148-.554Zm-10.898,3.578c.089.066.194.1.3.1.097,0,.194-.028.278-.084l1.354-.906,1.377.897c.178.115.409.106.578-.023.168-.13.236-.352.169-.553l-.489-1.49,1.183-.964c.161-.135.22-.357.148-.554s-.26-.329-.47-.329h-1.5l-.531-1.49c-.073-.196-.26-.325-.469-.325s-.396.13-.469.325l-.531,1.49h-1.5c-.21,0-.397.131-.469.328-.073.197-.014.418.146.553l1.189.967-.47,1.508c-.063.202.007.423.177.55Z"/>
</svg>
