<?xml version="1.0" encoding="UTF-8"?>
<svg xmlns="http://www.w3.org/2000/svg" id="Layer_1" data-name="Layer 1" viewBox="0 0 24 24">
  <path d="m23.855,10.012c-.287-.473-.902-.622-1.373-.337l-12.125,7.341c-1.315.018-4.485.129-5.639.764-.775.427-1.339,1.13-1.586,1.98-.247.851-.147,1.746.279,2.522s1.13,1.339,1.979,1.586c.307.089.619.133.93.133.551,0,1.096-.139,1.592-.412,1.198-.658,2.84-3.629,3.488-4.868l12.118-7.336c.473-.286.624-.901.338-1.374ZM6.948,21.837c-.308.169-.663.208-.999.11-.338-.098-.616-.321-.786-.629-.169-.308-.208-.663-.11-1s.321-.617.63-.786c.397-.219,1.774-.384,3.244-.465-.821,1.415-1.636,2.576-1.979,2.771Zm.727-5.94c2.277-.401,4.233-2.107,4.982-4.346,1.429-4.264-1.906-7.55-4.112-9.724l-.344-.339c-.438-.435-1.059-.618-1.667-.492-.603.127-1.097.545-1.32,1.118-.293.747-.45,1.522-.589,2.206-.149.741-.267,1.229-.396,1.479-.075-.169-.167-.413-.27-.758-.165-.555-.623-.948-1.196-1.027-.569-.082-1.134.186-1.439.672-.817,1.301-1.323,3.512-1.323,4.814,0,1.926.847,3.742,2.323,4.981,1.179.989,2.66,1.518,4.189,1.518.386,0,.774-.034,1.162-.102Zm-4.065-2.948c-1.022-.858-1.609-2.115-1.609-3.449,0-.685.202-1.747.514-2.646.331.646.794,1.146,1.486,1.146,1.921,0,2.305-1.898,2.586-3.284.109-.543.223-1.102.397-1.62l.157.155c2.073,2.042,4.652,4.583,3.62,7.664h0c-.52,1.554-1.867,2.735-3.434,3.011-1.355.24-2.68-.107-3.718-.978Zm1.393.349c-.693-.81-.558-2.046.195-2.8l.739-.739c.325-.325.851-.325,1.176,0l.739.74c.753.754.888,1.99.195,2.8-.802.936-2.242.936-3.045,0Z"/>
</svg>
