<?xml version="1.0" encoding="UTF-8"?>
<svg xmlns="http://www.w3.org/2000/svg" id="Layer_1" data-name="Layer 1" viewBox="0 0 24 24">
  <path d="m23,18h-15c-1.654,0-3-1.346-3-3V4C5,1.794,3.206,0,1,0,.448,0,0,.447,0,1s.448,1,1,1c1.103,0,2,.897,2,2v11c0,2.046,1.236,3.809,3,4.582v.918c0,1.93,1.57,3.5,3.5,3.5s3.5-1.57,3.5-3.5v-.5h3v.5c0,1.93,1.57,3.5,3.5,3.5s3.5-1.57,3.5-3.5v-.5c.552,0,1-.447,1-1s-.448-1-1-1Zm-12,2.5c0,.827-.673,1.5-1.5,1.5s-1.5-.673-1.5-1.5v-.5h3v.5Zm10,0c0,.827-.673,1.5-1.5,1.5s-1.5-.673-1.5-1.5v-.5h3v.5Zm1-11.5h-13c-1.103,0-2,.897-2,2v3c0,1.103.897,2,2,2h13c1.103,0,2-.897,2-2v-3c0-1.103-.897-2-2-2Zm0,5h-13v-3h13v3Zm-13-7h3c1.103,0,2-.897,2-2v-3c0-1.103-.897-2-2-2h-3c-1.103,0-2,.897-2,2v3c0,1.103.897,2,2,2Zm0-5h3v3s-3,0-3,0v-3Zm13-1h-4c-1.103,0-2,.897-2,2v2c0,1.103.897,2,2,2h4c1.103,0,2-.897,2-2v-2c0-1.103-.897-2-2-2Zm-4,4v-2h4v2s-4,0-4,0Z"/>
</svg>
