<?xml version="1.0" encoding="UTF-8"?>
<svg xmlns="http://www.w3.org/2000/svg" id="Layer_1" data-name="Layer 1" viewBox="0 0 24 24">
  <path d="m8,22.5c0,.828-.672,1.5-1.5,1.5s-1.5-.672-1.5-1.5.672-1.5,1.5-1.5,1.5.672,1.5,1.5Zm4-4.5c-.828,0-1.5.672-1.5,1.5s.672,1.5,1.5,1.5,1.5-.672,1.5-1.5-.672-1.5-1.5-1.5Zm-10.5,0c-.828,0-1.5.672-1.5,1.5s.672,1.5,1.5,1.5,1.5-.672,1.5-1.5-.672-1.5-1.5-1.5ZM14.102.024c.063-.01-.06,0,0,0h0Zm9.898,9.976c0,.553-.448,1-1,1h-1.351c.191.737.352,1.489.352,2.487,0,2.482-2.018,4.5-4.5,4.5-3.001,0-4.492-2.541-4.492-4.999,0-.701.063-1.357.157-1.988h-2.553c.057.246.116.493.157.724.134.766.23,1.32.23,1.763,0,2.482-2.018,4.5-4.5,4.5-3.001,0-4.495-2.526-4.495-4.825,0-.768.056-1.478.137-2.162h-1.143c-.552,0-1-.447-1-1s.448-1,1-1h1.51C4.06,3.037,9.195.811,14.102.024c.764,0,1.265.779.741,1.398-.508.601-4.841,1.565-4.841,6.065,0,.507.074,1.013.168,1.513h3.474c1.477-4.395,5.327-6.81,8.922-7.916.127-.039.253-.057.374-.057.75,0,1.318.7.953,1.441-.24.488-2.891,2.019-2.891,4.519,0,.792.069,1.439.17,2.013h1.829c.552,0,1,.447,1,1Zm-14.999,3.487c0-.616-.361-2.173-.467-2.603-.25-1.013-.533-2.161-.533-3.397,0-1.564.391-2.813.97-3.812-3.366,1.832-4.966,4.934-4.966,9.487,0,1.225.686,2.825,2.495,2.825,1.379,0,2.5-1.122,2.5-2.5Zm11,0c0-.924-.174-1.571-.395-2.391-.27-1.002-.605-2.25-.605-4.109,0-.863.197-1.634.498-2.311-2.34,1.528-4.49,4.083-4.49,8.312,0,1.356.991,2.999,2.492,2.999,1.379,0,2.5-1.122,2.5-2.5Zm2.499,4.513c-.828,0-1.5.672-1.5,1.5s.672,1.5,1.5,1.5,1.5-.672,1.5-1.5-.672-1.5-1.5-1.5Zm-5,3c-.828,0-1.5.672-1.5,1.5s.672,1.5,1.5,1.5,1.5-.672,1.5-1.5-.672-1.5-1.5-1.5Z"/>
</svg>
