<?xml version="1.0" encoding="UTF-8"?>
<svg xmlns="http://www.w3.org/2000/svg" id="Layer_1" data-name="Layer 1" viewBox="0 0 24 24">
  <path d="m23.63,2.228c-.425-.349-1.054-.284-1.405.141-.083.1-1.46,1.713-4.533,2.755-.611-2.545-2.019-5.123-3.262-5.123-1.142,0-1.717.481-2.098.8-.24.2-.255.2-.332.2s-.092,0-.332-.2c-.381-.318-.956-.8-2.098-.8-1.243,0-2.651,2.579-3.262,5.124C3.246,4.085,1.867,2.48,1.776,2.369c-.347-.428-.974-.493-1.403-.148-.43.347-.498.977-.151,1.406.102.126,1.875,2.252,5.779,3.492v.881c0,3.309,2.691,6,6,6s6-2.691,6-6v-.881c3.904-1.24,5.677-3.365,5.779-3.492.345-.428.277-1.052-.149-1.399Zm-13.794-.207c.222.04.344.142.549.313.317.265.797.666,1.615.666s1.298-.401,1.615-.666c.205-.172.327-.273.549-.313.409.481,1.205,1.936,1.602,3.617-1.1.221-2.347.362-3.767.362s-2.666-.141-3.766-.362c.397-1.68,1.193-3.136,1.602-3.617Zm2.164,9.979c-2.206,0-4-1.794-4-4v-.371c1.184.229,2.512.371,4,.371s2.816-.142,4-.371v.371c0,2.206-1.794,4-4,4Zm7.99,10.856c.079.547-.299,1.054-.846,1.133-.049.008-.097.011-.145.011-.488,0-.916-.358-.988-.856-.426-2.933-3.009-5.144-6.01-5.144s-5.584,2.211-6.01,5.144c-.08.547-.585.931-1.133.846-.547-.079-.925-.586-.846-1.133.567-3.909,4.002-6.856,7.99-6.856s7.422,2.947,7.99,6.856Z"/>
</svg>
