<?xml version="1.0" encoding="UTF-8"?>
<svg xmlns="http://www.w3.org/2000/svg" id="Layer_1" data-name="Layer 1" viewBox="0 0 24 24">
  <path d="m16.5,2.5c0-1.381,1.119-2.5,2.5-2.5s2.5,1.119,2.5,2.5-1.119,2.5-2.5,2.5-2.5-1.119-2.5-2.5Zm3.5,3.5h-3c-.553,0-1,.448-1,1s.447,1,1,1h3c1.103,0,2,.897,2,2v3c0,1.103-.897,2-2,2-.553,0-1,.448-1,1s.447,1,1,1v6c0,.552.447,1,1,1s1-.448,1-1v-6.556c1.19-.694,2-1.97,2-3.444v-3c0-2.206-1.794-4-4-4Zm-15-1c1.381,0,2.5-1.119,2.5-2.5S6.381,0,5,0s-2.5,1.119-2.5,2.5,1.119,2.5,2.5,2.5Zm1,10h-2c-1.103,0-2-.897-2-2v-3c0-1.103.897-2,2-2h1c.553,0,1-.448,1-1s-.447-1-1-1h-1C1.794,6,0,7.794,0,10v3c0,1.474.81,2.75,2,3.444v6.556c0,.552.447,1,1,1s1-.448,1-1v-6h2v6c0,.552.447,1,1,1s1-.448,1-1v-6c0-1.103-.897-2-2-2Zm1.626-3.54l1.688,1.688c.195.195.451.293.707.293s.512-.098.707-.293c.391-.391.391-1.024,0-1.414l-.696-.734h3.968c.553,0,1-.448,1-1s-.447-1-1-1h-4.006l.734-.734c.391-.39.391-1.023,0-1.414s-1.023-.391-1.414,0l-1.688,1.688c-.805.805-.805,2.115,0,2.92Zm8.748,3.08l-1.688-1.688c-.391-.391-1.023-.391-1.414,0s-.391,1.024,0,1.414l.696.734h-3.968c-.553,0-1,.448-1,1s.447,1,1,1h4.006l-.734.734c-.391.39-.391,1.023,0,1.414.195.195.451.293.707.293s.512-.098.707-.293l1.688-1.688c.805-.805.805-2.115,0-2.92Zm.626,5.46c-.553,0-1,.448-1,1v2c0,.552.447,1,1,1s1-.448,1-1v-2c0-.552-.447-1-1-1Z"/>
</svg>
