<?xml version="1.0" encoding="UTF-8"?>
<svg xmlns="http://www.w3.org/2000/svg" id="Layer_1" data-name="Layer 1" viewBox="0 0 24 24">
  <path d="m16,0h-8C5.243,0,3,2.243,3,5v14c0,2.757,2.243,5,5,5h8c2.757,0,5-2.243,5-5V5c0-2.757-2.243-5-5-5Zm3,19c0,1.654-1.346,3-3,3h-8c-1.654,0-3-1.346-3-3V5c0-1.654,1.346-3,3-3h8c1.654,0,3,1.346,3,3v14Zm-3-8c0,1.754-2.26,3.935-3.383,4.792-.364.278-.87.278-1.234,0-1.122-.856-3.383-3.038-3.383-4.792,0-1.105.895-2,2-2s2,.895,2,2c0-1.105.895-2,2-2s2,.895,2,2Z"/>
</svg>
