<?xml version="1.0" encoding="UTF-8"?>
<svg xmlns="http://www.w3.org/2000/svg" id="Layer_1" data-name="Layer 1" viewBox="0 0 24 24">
  <path d="m1.5,3.5c0-1.381,1.119-2.5,2.5-2.5s2.5,1.119,2.5,2.5-1.119,2.5-2.5,2.5-2.5-1.119-2.5-2.5Zm1.5,13.5v3c0,.107-.017.214-.051.316l-1,3c-.14.419-.53.684-.949.684-.104,0-.211-.017-.316-.052-.524-.174-.807-.74-.632-1.265l.949-2.846v-9.838c0-1.637,1.318-2.971,2.948-2.999.017,0,.034-.001.052-.001h4.171c.267,0,.519-.104.708-.293l1.914-1.914c.391-.391,1.023-.391,1.414,0s.391,1.023,0,1.414l-1.914,1.914c-.566.566-1.32.879-2.122.879h-1.171v6h2c1.103,0,2,.897,2,2v2c0,.553-.448,1-1,1s-1-.447-1-1v-2H3Zm0-2h2v-6h-1c-.551,0-1,.448-1,1v5Zm10.67-7.366l.53-.306c-.13-.42-.2-.866-.2-1.328s.07-.908.2-1.328l-.53-.306c-.478-.276-.642-.888-.366-1.366.276-.478.886-.643,1.366-.366l.533.307c.605-.652,1.401-1.125,2.297-1.329v-.612c0-.553.448-1,1-1s1,.447,1,1v.612c.897.204,1.692.677,2.297,1.329l.533-.307c.479-.276,1.089-.111,1.366.366.276.479.112,1.09-.366,1.366l-.53.306c.13.42.2.866.2,1.328s-.07.908-.2,1.328l.53.306c.478.276.642.888.366,1.366-.186.32-.521.5-.867.5-.169,0-.341-.043-.499-.134l-.533-.307c-.605.652-1.401,1.125-2.297,1.329v.612c0,.553-.448,1-1,1s-1-.447-1-1v-.612c-.897-.204-1.692-.677-2.297-1.329l-.533.307c-.158.091-.33.134-.499.134-.346,0-.682-.18-.867-.5-.276-.479-.112-1.09.366-1.366Zm2.33-1.634c0,1.379,1.122,2.5,2.5,2.5s2.5-1.121,2.5-2.5-1.122-2.5-2.5-2.5-2.5,1.121-2.5,2.5Zm7.822,7.43c-.315-.453-.939-.568-1.392-.251l-13,9.021c-.454.314-.566.938-.251,1.392.194.279.506.43.823.43.197,0,.396-.058.569-.179l13-9.021c.454-.314.566-.938.251-1.392Z"/>
</svg>
