<?xml version="1.0" encoding="UTF-8"?>
<svg xmlns="http://www.w3.org/2000/svg" id="Layer_1" data-name="Layer 1" viewBox="0 0 24 24">
  <path d="m13.768,8.73h0c-.943-.945-2.592-.945-3.535,0l-2.501,2.502c-.975.975-.975,2.561,0,3.535l2.501,2.502c.472.473,1.1.732,1.768.732s1.296-.26,1.768-.732l2.501-2.502c.975-.975.975-2.561,0-3.535l-2.501-2.502Zm1.087,4.623l-2.502,2.502c-.127.128-.276.146-.353.146s-.226-.019-.354-.146l-2.501-2.502c-.127-.128-.146-.276-.146-.354s.019-.226.146-.354l2.502-2.502c.127-.128.276-.146.353-.146s.226.019.353.146h0l2.501,2.502c.127.128.146.276.146.354s-.019.226-.146.354Zm9.079-8.174c-.385-2.383-2.571-4.18-5.086-4.18H6.242C2.849,1,.482,2.602.066,5.18c-.269,1.665.308,3.338,1.543,4.476.146.134.391.415.391.791v7.554c0,2.757,2.243,5,5,5h10c2.757,0,5-2.243,5-5v-7.555c0-.376.242-.654.388-.787,1.237-1.139,1.815-2.812,1.546-4.479Zm-2.899,3.006c-.667.611-1.034,1.414-1.034,2.26v7.555c0,1.654-1.346,3-3,3H7c-1.654,0-3-1.346-3-3v-7.554c0-.845-.368-1.648-1.036-2.263-.75-.691-1.087-1.67-.923-2.686.256-1.588,1.787-2.498,4.201-2.498h12.606c1.544,0,2.882,1.074,3.111,2.498.164,1.017-.173,1.996-.925,2.688Z"/>
</svg>
