<?xml version="1.0" encoding="UTF-8"?>
<svg xmlns="http://www.w3.org/2000/svg" id="Layer_1" data-name="Layer 1" viewBox="0 0 24 24">
  <path d="m22.812,6.768c-2.024-.902-3.372-2.498-3.812-4.258-.007-.03,0-1.664,0-1.664,0-.574-.576-1.004-1.11-.791-.902.359-1.588,1.247-1.812,2.248-3.136,1.009-4.061,4.305-4.078,6.197v.5h-4.006c-1.186,0-2.661.615-3.312,1.552-2.136.717-4.682,2.765-4.682,8.448,0,.552.448,1,1,1s1-.448,1-1c0-2.799.672-4.753,2.001-5.834.053,1.521.714,3.117,1.257,4.426.224.54.437,1.054.581,1.492l-.209,1.511c-.119.858.14,1.724.708,2.377.569.653,1.392,1.027,2.258,1.027,1.488,0,2.733-1.068,2.959-2.539l.225-1.461h1.219v1.006c0,1.651,1.343,2.994,3.006,2.994,1.651,0,2.994-1.343,2.994-2.994v-2.401l.384-1.811c.417-1.46.616-2.416.616-3.896v-2.016l2.234-.279c1.007-.125,1.766-.986,1.766-2,0-.794-.467-1.514-1.188-1.835Zm-12.812,11.655l-.42,2.733c-.075.489-.489.843-.983.843-.292,0-.558-.121-.75-.341-.191-.22-.275-.5-.235-.79l.239-1.732c.019-.14.009-.283-.031-.418-.17-.58-.435-1.217-.714-1.892-.791-1.906-1.687-4.066-.63-5.232.342-.377.896-.594,1.518-.594h.006v2c0,1.304.836,2.415,2,2.828v2.595Zm1-4.423c-.551,0-1-.449-1-1v-2h2v2c0,.551-.449,1-1,1Zm8.752-5.102c-.999.125-1.752.978-1.752,1.984v2.016c0,1.25-.166,2.042-.555,3.412l-.423,1.98c-.015.069-.022.139-.022.209v2.506c0,.548-.446.994-1.006.994-.548,0-.994-.446-.994-.994v-2.006c0-.552-.448-1-1-1h-2v-2.172c1.164-.413,2-1.524,2-2.828v-4.487c.007-.432.165-4.002,3.407-4.463.738,1.989,2.278,3.519,4.579,4.57l-2.234.279Z"/>
</svg>
