<?xml version="1.0" encoding="UTF-8"?>
<svg xmlns="http://www.w3.org/2000/svg" id="Layer_1" data-name="Layer 1" viewBox="0 0 24 24">
  <path d="m13.5,12c0,2.206,1.794,4,4,4s4-1.794,4-4-1.794-4-4-4-4,1.794-4,4Zm4-2c1.103,0,2,.897,2,2s-.897,2-2,2-2-.897-2-2,.897-2,2-2Zm-5.5-2c2.206,0,4-1.794,4-4S14.206,0,12,0s-4,1.794-4,4,1.794,4,4,4Zm0-6c1.103,0,2,.897,2,2s-.897,2-2,2-2-.897-2-2,.897-2,2-2Zm-5.5,14c2.206,0,4-1.794,4-4s-1.794-4-4-4-4,1.794-4,4,1.794,4,4,4Zm0-6c1.103,0,2,.897,2,2s-.897,2-2,2-2-.897-2-2,.897-2,2-2Zm17.471,12.91c.05.55-.356,1.036-.906,1.086-.03.002-.061.004-.091.004-.512,0-.948-.391-.995-.91-.11-1.219-.737-2.355-1.721-3.118-.025-.02-.107-.011-.16.049l-1.841,2.133c-.189.22-.485.389-.757.347-.288,0-.562-.124-.752-.34l-1.865-2.126c-.051-.059-.133-.07-.16-.048-.986.774-1.591,1.876-1.701,3.104-.043.476-.413.82-.873.881-.029.005-.054.022-.084.025-.031.002-.061.004-.091.004-.01,0-.018-.005-.027-.005-.004,0-.007.002-.011.001-.011,0-.02-.008-.031-.009-.481-.034-.882-.402-.926-.897-.111-1.237-.722-2.344-1.72-3.118-.029-.021-.11-.011-.16.049l-1.841,2.133c-.19.221-.468.349-.757.347-.288,0-.562-.124-.752-.341l-1.865-2.126c-.052-.058-.134-.069-.16-.047-.987.774-1.592,1.876-1.702,3.104-.049.55-.528.948-1.086.906-.55-.05-.956-.536-.906-1.086.158-1.757,1.055-3.396,2.46-4.499.876-.686,2.148-.552,2.897.303l1.107,1.262,1.09-1.263c.745-.865,2.019-1.007,2.9-.322.608.471,1.115,1.047,1.516,1.685.396-.629.893-1.197,1.489-1.665.874-.685,2.148-.553,2.897.304l1.107,1.261,1.09-1.263c.745-.865,2.02-1.005,2.899-.323,1.421,1.102,2.327,2.749,2.487,4.519Z"/>
</svg>
