<?xml version="1.0" encoding="UTF-8"?>
<svg xmlns="http://www.w3.org/2000/svg" id="Layer_1" data-name="Layer 1" viewBox="0 0 24 24">
  <path d="m4.875,10.503s-.003.004-.005.006c-.035.005-.012-.002.005-.006Zm19.125-1.897c0,1.013-.758,1.871-1.763,1.997l-2.236.28v2.016c0,1.48-.199,2.436-.616,3.896l-.385,1.811v2.425c0,1.638-1.332,2.97-2.97,2.97-1.698,0-3.03-1.332-3.03-2.97v-1.03h-1.617l-.175,1.398c-.186,1.483-1.453,2.602-2.947,2.602-.859,0-1.675-.372-2.24-1.019-.564-.648-.82-1.507-.702-2.358l.213-1.543c-.112-.36-.25-.755-.396-1.172-.491-1.405-1.097-3.141-1.139-4.738-1.326,1.082-1.997,3.035-1.997,5.83,0,.552-.448,1-1,1s-1-.448-1-1c0-5.683,2.734-7.774,4.87-8.492.028-.009.018-.009.005-.006.738-.915,1.872-1.503,3.14-1.503h3.485c.276,0,.5-.224.5-.5.027-1.917.96-5.267,4.086-6.232.229-.977.895-1.847,1.771-2.208.547-.226,1.143.222,1.143.814v2.129c.493,1.627,1.766,2.891,3.79,3.762.734.314,1.21,1.038,1.21,1.842Zm-2.011.013c-2.399-1.051-3.995-2.581-4.744-4.565-3.07.479-3.236,4.032-3.245,4.463,0,1.361-1.122,2.483-2.5,2.483h-3.485c-1.113,0-2.02.893-2.021,1.989-.001,1.307.547,2.875,1.03,4.259.186.531.359,1.028.488,1.47.04.136.05.278.031.418l-.243,1.76c-.039.282.042.556.229.77.187.215.447.333.731.333.488,0,.902-.365.962-.85l.284-2.274c.062-.5.488-.876.992-.876h3.5c.553,0,1,.448,1,1v2.03c0,.535.435.97.97.97.596,0,1.03-.435,1.03-.97v-2.53c0-.07.008-.14.022-.209l.423-1.98c.389-1.37.555-2.163.555-3.412v-2.016c0-1.006.753-1.859,1.752-1.984l2.237-.28Z"/>
</svg>
