<?xml version="1.0" encoding="UTF-8"?>
<svg xmlns="http://www.w3.org/2000/svg" id="Layer_1" data-name="Layer 1" viewBox="0 0 24 24">
  <path d="m21,8c0-1.654-1.346-3-3-3,0-1.654-1.346-3-3-3h-6c-1.654,0-3,1.346-3,3-1.654,0-3,1.346-3,3-1.654,0-3,1.346-3,3v6c0,2.757,2.243,5,5,5h14c2.757,0,5-2.243,5-5v-6c0-1.654-1.346-3-3-3Zm1,9c0,1.654-1.346,3-3,3v-3c0-.552-.447-1-1-1s-1,.448-1,1v3h-2v-3c0-.552-.447-1-1-1s-1,.448-1,1v3h-2v-3c0-.552-.448-1-1-1s-1,.448-1,1v3h-2v-3c0-.552-.448-1-1-1s-1,.448-1,1v3c-1.654,0-3-1.346-3-3v-6c0-.551.449-1,1-1h1c.552,0,1-.448,1-1v-1c0-.551.449-1,1-1h1c.552,0,1-.448,1-1v-1c0-.551.449-1,1-1h6c.552,0,1,.449,1,1v1c0,.552.447,1,1,1h1c.552,0,1,.449,1,1v1c0,.552.447,1,1,1h1c.552,0,1,.449,1,1v6Z"/>
</svg>
