<?xml version="1.0" encoding="UTF-8"?>
<svg xmlns="http://www.w3.org/2000/svg" id="Layer_1" data-name="Layer 1" viewBox="0 0 24 24">
  <path d="m2.5,2.5c0-1.381,1.119-2.5,2.5-2.5s2.5,1.119,2.5,2.5-1.119,2.5-2.5,2.5-2.5-1.119-2.5-2.5Zm5.5,13.963v6.537c0,.553-.447,1-1,1s-1-.447-1-1v-6h-2v6c0,.553-.447,1-1,1s-1-.447-1-1v-6.537c-1.195-.693-2-1.985-2-3.463v-3c0-2.206,1.794-4,4-4h2c2.206,0,4,1.794,4,4v3c0,1.478-.805,2.771-2,3.463Zm0-6.463c0-1.103-.897-2-2-2h-2c-1.103,0-2,.897-2,2v3c0,1.103.897,2,2,2h2c1.103,0,2-.897,2-2v-3Zm16,7c0,3.859-3.141,7-7,7s-7-3.141-7-7,3.141-7,7-7,7,3.141,7,7Zm-2,0c0-2.757-2.243-5-5-5s-5,2.243-5,5,2.243,5,5,5,5-2.243,5-5Zm-3.192-1.241l-2.223,2.134c-.144.14-.379.144-.522.002l-1.131-1.108c-.396-.388-1.028-.381-1.414.014-.387.395-.381,1.027.014,1.414l1.132,1.109c.46.449,1.062.674,1.663.674s1.201-.225,1.653-.671l2.213-2.124c.398-.383.411-1.016.029-1.414-.383-.399-1.017-.411-1.414-.029Z"/>
</svg>
