<?xml version="1.0" encoding="UTF-8"?>
<svg xmlns="http://www.w3.org/2000/svg" id="Layer_1" data-name="Layer 1" viewBox="0 0 24 24">
  <path d="m19.707,15.707l-1.293,1.293,1.293,1.293c.391.391.391,1.023,0,1.414-.195.195-.451.293-.707.293s-.512-.098-.707-.293l-1.293-1.293-1.293,1.293c-.195.195-.451.293-.707.293s-.512-.098-.707-.293c-.391-.391-.391-1.023,0-1.414l1.293-1.293-1.293-1.293c-.391-.391-.391-1.023,0-1.414s1.023-.391,1.414,0l1.293,1.293,1.293-1.293c.391-.391,1.023-.391,1.414,0s.391,1.023,0,1.414Zm4.293,1.293c0,3.859-3.141,7-7,7s-7-3.141-7-7,3.141-7,7-7,7,3.141,7,7Zm-2,0c0-2.757-2.243-5-5-5s-5,2.243-5,5,2.243,5,5,5,5-2.243,5-5ZM5,5c1.381,0,2.5-1.119,2.5-2.5S6.381,0,5,0s-2.5,1.119-2.5,2.5,1.119,2.5,2.5,2.5Zm3,11.463v6.537c0,.553-.447,1-1,1s-1-.447-1-1v-6h-2v6c0,.553-.447,1-1,1s-1-.447-1-1v-6.537c-1.195-.693-2-1.985-2-3.463v-3c0-2.206,1.794-4,4-4h2c2.206,0,4,1.794,4,4v3c0,1.478-.805,2.771-2,3.463Zm0-6.463c0-1.103-.897-2-2-2h-2c-1.103,0-2,.897-2,2v3c0,1.103.897,2,2,2h2c1.103,0,2-.897,2-2v-3Z"/>
</svg>
