<?xml version="1.0" encoding="UTF-8"?>
<svg xmlns="http://www.w3.org/2000/svg" id="Layer_1" data-name="Layer 1" viewBox="0 0 24 24">
  <path d="m13,1.5c0-.828.672-1.5,1.5-1.5s1.5.672,1.5,1.5-.672,1.5-1.5,1.5-1.5-.672-1.5-1.5Zm1.5,4.5c.872,0,2.194-.203,2.958-.605.629-.331.81-1.152.366-1.707h0c-.338-.423-.922-.537-1.402-.286-.624.326-1.451.598-2.422.598-.815,0-2.347-.466-3.08-.954-.226-.15-.512.091-.391.334.619,1.249,1.706,2.619,3.971,2.619Zm4.5,1c-2.347,0-3.286,1.601-4.041,2.887-.428.729-.831,1.416-1.425,1.729-.638.335-1.295.387-2.526.387.636-.839,1.028-1.871,1.028-3.002,0-2.757-2.243-5-5-5-2.62,0-4.688,2.23-4.774,2.325-.373.408-.344,1.041.064,1.413.408.374,1.04.345,1.413-.063.016-.018,1.578-1.675,3.297-1.675,1.654,0,3,1.346,3,3s-1.346,3-3,3h-1.036c-.552,0-1,.447-1,1s.448,1,1,1h1c2.206,0,4,1.794,4,4s-1.794,4-4,4h-1c-3,0-4.5-2-5.25-3.878-.393-.983-.75-.385-.75-.385v.952c0,2.515,2.5,5.311,5.5,5.311.054.009,1.5,0,1.5,0,3.309,0,6-2.691,6-6,0-1.537-.582-2.941-1.536-4.004,1.207-.021,2.079-.125,3.001-.611,1.099-.578,1.693-1.592,2.218-2.485.732-1.248,1.168-1.899,2.316-1.899,1.454,0,3,1.928,3,5.5,0,3.388-1.147,5.494-2.993,5.499-.003,0-.014,0-.014,0-1.5,0-2.983-1.814-3.493-2.5-.173-.232-.548-.085-.527.203.117,1.68,1.773,4.297,4.023,4.297,2.505,0,5.005-2.06,5.005-7.5,0-4.924-2.516-7.5-5-7.5Z"/>
</svg>
