<?xml version="1.0" encoding="UTF-8"?>
<svg xmlns="http://www.w3.org/2000/svg" id="Layer_1" data-name="Layer 1" viewBox="0 0 24 24">
  <path d="m11,3.5c0,1.93-1.57,3.5-3.5,3.5s-3.5-1.57-3.5-3.5S5.57,0,7.5,0s3.5,1.57,3.5,3.5Zm5.5,4.5c-1.93,0-3.5,1.57-3.5,3.5s1.57,3.5,3.5,3.5,3.5-1.57,3.5-3.5-1.57-3.5-3.5-3.5Zm-9,8c-1.93,0-3.5,1.57-3.5,3.5s1.57,3.5,3.5,3.5,3.5-1.57,3.5-3.5-1.57-3.5-3.5-3.5Zm9-9c1.93,0,3.5-1.57,3.5-3.5s-1.57-3.5-3.5-3.5-3.5,1.57-3.5,3.5,1.57,3.5,3.5,3.5Zm-5.5,4.5c0,1.93-1.57,3.5-3.5,3.5s-3.5-1.57-3.5-3.5,1.57-3.5,3.5-3.5,3.5,1.57,3.5,3.5Zm-2,0c0-.827-.673-1.5-1.5-1.5s-1.5.673-1.5,1.5.673,1.5,1.5,1.5,1.5-.673,1.5-1.5Zm7.5,4.5c-1.93,0-3.5,1.57-3.5,3.5s1.57,3.5,3.5,3.5,3.5-1.57,3.5-3.5-1.57-3.5-3.5-3.5Z"/>
</svg>
