<?xml version="1.0" encoding="UTF-8"?>
<svg xmlns="http://www.w3.org/2000/svg" id="Layer_1" data-name="Layer 1" viewBox="0 0 24 24">
  <path d="m10,9.03c.165.103.605.449,1.337,1.542.6.894,1.596,1.428,2.663,1.428,3.309,0,6-2.691,6-6S17.309,0,14,0H6C2.691,0,0,2.691,0,6s2.691,6,6,6c1.067,0,2.062-.534,2.663-1.429.732-1.092,1.172-1.438,1.337-1.541Zm-2.998.427c-.229.34-.603.543-1.002.543-2.206,0-4-1.794-4-4S3.794,2,6,2h8c2.206,0,4,1.794,4,4s-1.794,4-4,4c-.399,0-.774-.203-1.002-.542-1.124-1.677-2.077-2.458-2.998-2.458s-1.875.781-2.998,2.457ZM24,1v15.5c0,4.136-3.364,7.5-7.5,7.5s-7.5-3.364-7.5-7.5v-1.5c0-.553.448-1,1-1s1,.447,1,1v1.5c0,3.032,2.468,5.5,5.5,5.5s5.5-2.468,5.5-5.5V1c0-.553.447-1,1-1s1,.447,1,1Z"/>
</svg>
