<?xml version="1.0" encoding="UTF-8"?>
<svg xmlns="http://www.w3.org/2000/svg" id="Layer_1" data-name="Layer 1" viewBox="0 0 24 24">
  <path d="m23.548,11.84c-.456-.801-1.197-1.377-2.086-1.621-.748-.205-2.692-.232-5.462-.219h-2.023l4.994-3.555c.671-.478,1.062-1.253,1.05-2.075l-.012-.75c-.002-.135.051-.267.146-.362l1.551-1.551c.391-.391.391-1.024,0-1.414-.391-.391-1.023-.391-1.414,0l-1.55,1.551c-.476.475-.743,1.133-.733,1.807l.012.751c.003.164-.076.319-.21.415l-3.862,2.749c.344-.428.551-.972.551-1.565,0-.922-.499-1.727-1.242-2.16l-.746-3.428c-.12-.55-.904-.55-1.023,0l-.746,3.428c-.743.433-1.242,1.238-1.242,2.16,0,.586.202,1.125.54,1.551l-3.831-2.737c-.131-.094-.209-.246-.209-.407v-.787c0-.658-.267-1.302-.732-1.768L3.707.293c-.391-.391-1.023-.391-1.414,0s-.391,1.023,0,1.414l1.561,1.561c.093.093.146.222.146.354v.787c0,.805.392,1.565,1.047,2.034l4.982,3.559h-2.029c-2.772.01-4.715.015-5.462.219-.889.244-1.63.82-2.086,1.621s-.572,1.732-.328,2.621c.243.889.819,1.63,1.621,2.086.527.3,1.111.454,1.702.454.307,0,.615-.041.919-.125,1.007-.277,3.589-2.22,5.458-3.702l-4.221,4.926c-.39.452-.604,1.03-.604,1.628v1.022c0,.157-.075.307-.199.4l-1.4,1.05c-.442.332-.532.958-.2,1.4.196.262.496.4.801.4.209,0,.419-.065.599-.2l1.402-1.051c.625-.47.998-1.218.998-1.999v-1.022c0-.119.042-.234.121-.325l3.879-4.526v4.123c0,.552.447,1,1,1s1-.448,1-1v-4.123l3.881,4.527c.077.09.119.205.119.324v1.022c0,.781.373,1.529,1,2l1.4,1.05c.18.135.39.2.599.2.305,0,.604-.138.801-.4.332-.442.242-1.068-.2-1.4l-1.398-1.048c-.126-.095-.201-.245-.201-.401v-1.022c0-.598-.214-1.176-.602-1.627l-4.222-4.926c1.869,1.482,4.45,3.425,5.457,3.701.304.083.612.125.919.125.591,0,1.175-.153,1.702-.454.802-.456,1.378-1.197,1.621-2.086.244-.889.128-1.82-.328-2.621ZM3.837,14.948c-.374.102-.766.053-1.103-.138-.337-.192-.579-.503-.683-.877-.212-.772.244-1.572,1.016-1.784.544-.149,3.359-.149,5.011-.148-1.932,1.507-3.74,2.804-4.241,2.948Zm18.111-1.016c-.104.374-.346.686-.683.877-.337.191-.73.241-1.102.138-.502-.144-2.311-1.441-4.242-2.948,1.652,0,4.467,0,5.011.148.771.212,1.228,1.012,1.016,1.784Z"/>
</svg>
