<?xml version="1.0" encoding="UTF-8"?>
<svg xmlns="http://www.w3.org/2000/svg" id="Layer_1" data-name="Layer 1" viewBox="0 0 24 24">
  <path d="m12,0C5.383,0,0,5.383,0,12s5.383,12,12,12,12-5.383,12-12S18.617,0,12,0Zm7,9c0,3.859-3.14,7-7,7s-7-3.141-7-7c0-3.618,2.76-6.604,6.285-6.964.237-.017.474-.036.715-.036s.478.019.715.036c3.525.359,6.285,3.346,6.285,6.964Zm-7,13c-5.514,0-10-4.486-10-10,0-1.683.422-3.269,1.16-4.662-.101.539-.16,1.094-.16,1.662,0,4.963,4.038,9,9,9s9-4.037,9-9c0-.568-.059-1.123-.16-1.662.738,1.393,1.16,2.979,1.16,4.662,0,5.514-4.486,10-10,10Zm-3-16c0,.72.266,1.373.69,1.891-.724.642-1.19,1.568-1.19,2.609,0,1.93,1.57,3.5,3.5,3.5s3.5-1.57,3.5-3.5c0-1.041-.466-1.967-1.19-2.609.425-.518.69-1.171.69-1.891,0-1.654-1.346-3-3-3s-3,1.346-3,3Zm3,6c-.827,0-1.5-.673-1.5-1.5s.673-1.5,1.5-1.5,1.5.673,1.5,1.5-.673,1.5-1.5,1.5Zm1-6c0,.552-.449,1-1,1s-1-.448-1-1,.449-1,1-1,1,.448,1,1Z"/>
</svg>
