<?xml version="1.0" encoding="UTF-8"?>
<svg xmlns="http://www.w3.org/2000/svg" id="Layer_1" data-name="Layer 1" viewBox="0 0 24 24">
  <path d="m2,2.5c0-1.381,1.119-2.5,2.5-2.5s2.5,1.119,2.5,2.5-1.119,2.5-2.5,2.5-2.5-1.119-2.5-2.5Zm12,5.5c.552,0,1-.447,1-1s-.448-1-1-1H4C1.794,6,0,7.794,0,10v3c0,.553.448,1,1,1s1-.447,1-1v-3c0-1.103.897-2,2-2h2v5c0,.553.448,1,1,1s1-.447,1-1v-5h6ZM19.5,0h-9.5c-.552,0-1,.447-1,1s.448,1,1,1h9.5c1.378,0,2.5,1.121,2.5,2.5v5c0,1.379-1.122,2.5-2.5,2.5h-.5v-1c0-.553-.448-1-1-1h-2c-.552,0-1,.447-1,1v1h-4c-.552,0-1,.447-1,1s.448,1,1,1h8.5c2.481,0,4.5-2.019,4.5-4.5v-5c0-2.481-2.019-4.5-4.5-4.5Zm1,21c-1.257,0-2.433.478-3.225,1.311-.381.4-.365,1.034.036,1.414.4.382,1.033.364,1.414-.035.82-.863,2.73-.863,3.551,0,.196.206.46.311.725.311.248,0,.496-.091.689-.275.4-.38.417-1.014.036-1.414-.792-.833-1.967-1.311-3.225-1.311Zm-8.5,0c-1.257,0-2.433.478-3.225,1.311-.381.4-.365,1.034.036,1.414.4.382,1.034.364,1.414-.035.82-.863,2.73-.863,3.551,0,.196.206.46.311.725.311.248,0,.496-.091.689-.275.4-.38.417-1.014.036-1.414-.792-.833-1.967-1.311-3.225-1.311Zm-8.5,0c-1.257,0-2.433.478-3.225,1.311-.381.4-.365,1.034.036,1.414.4.382,1.034.364,1.414-.035.82-.863,2.73-.863,3.551,0,.196.206.46.311.725.311.248,0,.496-.091.689-.275.4-.38.417-1.014.036-1.414-.792-.833-1.967-1.311-3.225-1.311Zm2-3c0-1.105-.895-2-2-2s-2,.895-2,2,.895,2,2,2,2-.895,2-2Zm8.5,0c0-1.105-.895-2-2-2s-2,.895-2,2,.895,2,2,2,2-.895,2-2Zm8.5,0c0-1.105-.895-2-2-2s-2,.895-2,2,.895,2,2,2,2-.895,2-2Z"/>
</svg>
