<?xml version="1.0" encoding="UTF-8"?>
<svg xmlns="http://www.w3.org/2000/svg" id="Layer_1" data-name="Layer 1" viewBox="0 0 24 24">
  <path d="m23.217,2h-1.377c.103-.313.16-.649.16-1,0-.552-.447-1-1-1s-1,.448-1,1c0,.542-.36,1-.786,1h-4.428c-.426,0-.786-.458-.786-1,0-.552-.447-1-1-1s-1,.448-1,1c0,.351.057.687.16,1h-1.377c-.533,0-.92.531-.737,1.031.366.999,1.247,1.748,2.321,1.927l.403,2.041h-5.771c-1.49,0-2.83.656-3.747,1.694L.341,11.248c-.415.364-.457.996-.093,1.412.198.225.475.34.752.34.234,0,.47-.082.659-.248l.341-.299v8.547c0,1.654,1.346,3,3,3,1.124,0,2.105-.622,2.619-1.539,2.065-.258,3.74-1.777,4.233-3.461h2.148v2c0,1.654,1.346,3,3,3s3-1.346,3-3v-4c0-.552-.447-1-1-1s-1,.448-1,1v4c0,.551-.448,1-1,1s-1-.449-1-1v-3c0-.552-.447-1-1-1H7c-.553,0-1,.448-1,1v3c0,.551-.448,1-1,1s-1-.449-1-1v-9c0-.321.051-.63.145-.92.62.571,1.445.92,2.355.92,1.763,0,3.222-1.304,3.464-3h3.202l.332,1.68c-.31.352-.498.814-.498,1.32,0,1.105.895,2,2,2h4c1.105,0,2-.895,2-2,0-.506-.188-.968-.498-1.32l1.131-5.721c1.074-.179,1.956-.929,2.321-1.927.183-.5-.204-1.031-.737-1.031Zm-8.431,2h4.428c.2,0,.394-.023.582-.066l-1.199,6.066h-3.194l-1.199-6.066c.188.043.382.066.582.066Z"/>
</svg>
