<?xml version="1.0" encoding="UTF-8"?>
<svg xmlns="http://www.w3.org/2000/svg" id="Layer_1" data-name="Layer 1" viewBox="0 0 24 24">
  <path d="m14.5,2.5c0-1.381,1.119-2.5,2.5-2.5s2.5,1.119,2.5,2.5-1.119,2.5-2.5,2.5-2.5-1.119-2.5-2.5Zm-2.5,2.5c.403,0,.778-.104,1.115-.273-.381-.659-.615-1.412-.615-2.227s.234-1.568.614-2.227c-.337-.169-.711-.273-1.114-.273-1.381,0-2.5,1.119-2.5,2.5s1.119,2.5,2.5,2.5Zm-5,0c.403,0,.778-.104,1.115-.273-.381-.659-.615-1.412-.615-2.227s.234-1.568.614-2.227c-.337-.169-.711-.273-1.114-.273-1.381,0-2.5,1.119-2.5,2.5s1.119,2.5,2.5,2.5Zm16.159,9.26c-.528-.322-1.174-.347-1.728-.064l-.377.195c-1.757.912-5.026,2.609-9.055,2.609s-7.298-1.697-9.055-2.609l-.378-.195c-.552-.284-1.198-.259-1.727.064-.526.322-.841.884-.841,1.502v7.238c0,.552.447,1,1,1s1-.448,1-1v-6.846l.023.012c1.908.99,5.46,2.834,9.977,2.834s8.068-1.844,9.977-2.834l.023-.012v6.846c0,.552.447,1,1,1s1-.448,1-1v-7.238c0-.618-.314-1.18-.841-1.502Zm-11.159-.26c0,.552.447,1,1,1s1-.448,1-1v-4c0-1.103.897-2,2-2h2c1.103,0,2,.897,2,2v2c0,.552.447,1,1,1s1-.448,1-1v-2c0-2.206-1.794-4-4-4h-2c-2.206,0-4,1.794-4,4v4Zm-5-.5c0,.552.447,1,1,1s1-.448,1-1v-3.5c0-.856.544-1.582,1.301-1.867.262-.799.69-1.521,1.239-2.133h-.54c-2.206,0-4,1.794-4,4v3.5Zm-4-1c.553,0,1-.448,1-1v-1.5c0-.856.544-1.582,1.301-1.867.262-.799.69-1.521,1.239-2.133h-.54c-2.206,0-4,1.794-4,4v1.5c0,.552.447,1,1,1Zm1,10.5c0,.552.447,1,1,1s1-.448,1-1v-2.96c-.716-.226-1.389-.467-2-.721v3.681Zm5,0c0,.552.447,1,1,1s1-.448,1-1v-2.048c-.692-.037-1.36-.104-2-.206v2.254Zm9,0c0,.552.447,1,1,1s1-.448,1-1v-3.68c-.611.254-1.284.495-2,.721v2.96Zm-4,0c0,.552.447,1,1,1s1-.448,1-1v-2.435c-.64.135-1.302.249-2,.323v2.113Z"/>
</svg>
