<?xml version="1.0" encoding="UTF-8"?>
<svg xmlns="http://www.w3.org/2000/svg" id="Layer_1" data-name="Layer 1" viewBox="0 0 24 24">
  <path d="m16.856,8.065l-1.856-.742V2c.553,0,1-.447,1-1s-.447-1-1-1h-6c-.553,0-1,.447-1,1s.447,1,1,1v5.323l-1.856.742c-1.91.764-3.144,2.586-3.144,4.643v6.292c0,2.757,2.243,5,5,5h6c2.757,0,5-2.243,5-5v-6.292c0-2.057-1.233-3.879-3.144-4.643Zm1.144,10.935c0,1.654-1.346,3-3,3h-6c-1.654,0-3-1.346-3-3v-6.292c0-1.233.74-2.327,1.886-2.785l2.485-.994c.38-.152.629-.52.629-.929V2h2v6c0,.409.249.776.629.929l2.485.994c1.146.458,1.886,1.552,1.886,2.785v6.292Zm-7.643-6.219c-1.232,1.427-1.857,2.678-1.857,3.719,0,1.93,1.57,3.5,3.5,3.5s3.5-1.57,3.5-3.5c0-1.041-.625-2.292-1.857-3.72-.828-.955-2.457-.956-3.285,0Zm1.643,5.219c-.827,0-1.5-.673-1.5-1.5,0-.193.099-.939,1.371-2.411.043-.05.094-.061.129-.061s.086.011.129.06c1.272,1.473,1.371,2.219,1.371,2.412,0,.827-.673,1.5-1.5,1.5Z"/>
</svg>
