<?xml version="1.0" encoding="UTF-8"?>
<svg xmlns="http://www.w3.org/2000/svg" id="Layer_1" data-name="Layer 1" viewBox="0 0 24 24">
  <path d="m11.996,23.045c-.047.52-.483.91-.995.91-.03,0-.06,0-.091-.004C4.69,23.391,0,18.253,0,12,0,5.383,5.383,0,12,0c6.253,0,11.391,4.69,11.951,10.91.05.55-.356,1.036-.906,1.086-.54.056-1.036-.355-1.086-.906-.467-5.182-4.748-9.09-9.959-9.09C6.486,2,2,6.486,2,12c0,5.211,3.908,9.492,9.09,9.959.55.05.956.536.906,1.086Zm-6.996-15.045v2c0,.553.448,1,1,1s1-.447,1-1v-2c0-.553-.448-1-1-1s-1,.447-1,1Zm4,0v2c0,.553.448,1,1,1s1-.447,1-1v-2c0-.553-.448-1-1-1s-1,.447-1,1Zm4,0v2c0,.553.447,1,1,1s1-.447,1-1v-2c0-.553-.447-1-1-1s-1,.447-1,1Zm4,0v2c0,.553.447,1,1,1s1-.447,1-1v-2c0-.553-.447-1-1-1s-1,.447-1,1Zm7,10.6c0,1.469-.572,2.851-1.611,3.889-1.039,1.039-2.42,1.611-3.889,1.611s-2.851-.572-3.889-1.611c-1.039-1.038-1.611-2.419-1.611-3.889s.572-2.851,1.611-3.889l1.9-1.859c1.096-1.072,2.881-1.072,3.977,0l1.893,1.852c1.047,1.046,1.619,2.428,1.619,3.896Zm-2,0c0-.935-.364-1.813-1.025-2.475l-1.885-1.844c-.165-.162-.378-.242-.59-.242s-.425.08-.59.242l-1.893,1.852c-.653.653-1.018,1.532-1.018,2.467s.364,1.813,1.025,2.475c1.322,1.322,3.627,1.323,4.949,0,.661-.661,1.025-1.54,1.025-2.475Z"/>
</svg>
