<?xml version="1.0" encoding="UTF-8"?>
<svg xmlns="http://www.w3.org/2000/svg" id="Layer_1" data-name="Layer 1" viewBox="0 0 24 24">
  <path d="m23,22v-14c.553,0,1-.448,1-1s-.447-1-1-1v-1c0-1.302-.839-2.402-2-2.816v-1.184c0-.552-.447-1-1-1s-1,.448-1,1v1.184c-1.161.414-2,1.514-2,2.816v1c-.553,0-1,.448-1,1s.447,1,1,1v14h-4v-4.064c1.273-1.146,2-2.537,2-3.88,0-3.265-2.88-4.719-4.786-5.681-.636-.321-1.597-.806-1.714-1.01v-1.365c0-.552-.447-1-1-1s-1,.448-1,1v1.325c-.165.267-1.094.736-1.714,1.05-1.906.962-4.786,2.416-4.786,5.681,0,1.323.743,2.741,2,3.88v4.064h-1c-.553,0-1,.448-1,1s.447,1,1,1h22c.553,0,1-.448,1-1s-.447-1-1-1Zm-4-17c0-.551.448-1,1-1s1,.449,1,1v1h-2v-1Zm0,3h2v14h-2v-14Zm-13.313,2.16c.662-.334,1.308-.66,1.813-1.047.505.387,1.15.712,1.812,1.047,2.159,1.09,3.688,2.007,3.688,3.896,0,.611-.336,1.317-.907,1.963-.032-.003-9.154-.003-9.186,0-.571-.647-.907-1.352-.907-1.963,0-1.889,1.528-2.806,3.687-3.896Zm-1.687,7.84h7v4h-7v-4Z"/>
</svg>
