<?xml version="1.0" encoding="UTF-8"?>
<svg xmlns="http://www.w3.org/2000/svg" id="Layer_1" data-name="Layer 1" viewBox="0 0 24 24">
  <path d="m4.737,11.273c-.979-.974-.984-2.556-.01-3.536.974-.979,2.556-.984,3.536-.01s.984,2.556.01,3.536c-.974.979-2.556.984-3.536.01Zm16.701,12.073c-.149.404-.532.654-.938.654-.115,0-.232-.02-.346-.062l-3.817-1.407c-.196-.072-.409-.082-.613-.024l-5.024,1.395c-1.464.333-2.91-.404-3.477-1.748l-3.056-7.153h-1.667c-1.378,0-2.5-1.121-2.5-2.5v-3.5c0-.552.448-1,1-1s1,.448,1,1v3.5c0,.276.224.5.5.5h2.934l6.132-.817c.248-.033.434-.247.434-.496v-3.687c0-.552.448-1,1-1s1,.448,1,1v3.687c0,1.248-.933,2.313-2.169,2.479l-1.592.212,2.102,5.08,2.45-2.54c.562-.583,1.35-.917,2.159-.917h3.05c.552,0,1,.447,1,1s-.448,1-1,1h-3.05c-.27,0-.532.111-.72.306l-2.615,2.711,1.574-.437c.611-.168,1.246-.143,1.839.075l3.818,1.407c.519.191.784.767.593,1.284Zm-10.329-1.633l-2.922-7.062-1.887.252,2.764,6.47c.19.452.671.695,1.146.591l.9-.25Zm11.868-14.045l-2.189-1.122c-.295-.151-.44-.492-.345-.81l.709-2.356c.112-.372-.001-.774-.291-1.033s-.704-.327-1.059-.175l-2.091.89c-.346.15-.752-.014-.901-.363l-.89-2.091C15.768.251,15.423.015,15.036,0c-.399-.013-.748.199-.926.543l-1.122,2.189c-.151.296-.494.438-.81.345l-2.356-.708c-.372-.111-.774.002-1.033.291-.259.289-.327.702-.175,1.059l1.019,2.393c.216.509.803.747,1.312.528.508-.216.745-.804.528-1.312l-.182-.429.311.094c1.243.375,2.574-.192,3.166-1.347l.148-.289.054.127c.581,1.363,2.165,1.999,3.524,1.419l.127-.054-.094.312c-.374,1.242.193,2.573,1.348,3.165l.453.232-.454.232c-1.154.592-1.721,1.923-1.347,3.165l.094.312-.126-.053c-.554-.237-1.183-.278-1.765-.12-.533.146-.846.696-.7,1.228.146.533.694.841,1.229.701.106-.029.27-.047.453.03l2.091.89c.126.054.259.08.392.08.242,0,.48-.088.667-.255.289-.259.402-.662.291-1.033l-.709-2.355c-.095-.318.05-.659.345-.81l2.189-1.122c.334-.171.544-.515.544-.89s-.21-.719-.544-.89Z"/>
</svg>
