<?xml version="1.0" encoding="UTF-8"?>
<svg xmlns="http://www.w3.org/2000/svg" id="Layer_1" data-name="Layer 1" viewBox="0 0 24 24">
  <path d="m15,6c0,.553-.448,1-1,1h-4c-.552,0-1-.447-1-1s.448-1,1-1h4c.552,0,1,.447,1,1Zm-1,4h-4c-.552,0-1,.447-1,1s.448,1,1,1h4c.552,0,1-.447,1-1s-.448-1-1-1Zm-2,12h-7c-1.654,0-3-1.346-3-3V5c0-1.654,1.346-3,3-3h9c1.654,0,3,1.346,3,3v5.5c0,.553.448,1,1,1s1-.447,1-1v-5.5c0-2.757-2.243-5-5-5H5C2.243,0,0,2.243,0,5v14c0,2.757,2.243,5,5,5h7c.552,0,1-.447,1-1s-.448-1-1-1Zm12-5.5c0,2.65-3.114,5.884-4.622,7.034-.405.31-.892.465-1.378.465s-.973-.155-1.378-.465c-1.508-1.15-4.622-4.384-4.622-7.034,0-1.93,1.57-3.5,3.5-3.5.979,0,1.864.403,2.5,1.053.636-.649,1.521-1.053,2.5-1.053,1.93,0,3.5,1.57,3.5,3.5Zm-2,0c0-.827-.673-1.5-1.5-1.5s-1.5.673-1.5,1.5c0,.553-.448,1-1,1s-1-.447-1-1c0-.827-.673-1.5-1.5-1.5s-1.5.673-1.5,1.5c0,1.677,2.458,4.395,3.835,5.444.098.074.233.074.33,0,1.377-1.05,3.835-3.768,3.835-5.444ZM5.5,4.5c-.828,0-1.5.672-1.5,1.5s.672,1.5,1.5,1.5,1.5-.672,1.5-1.5-.672-1.5-1.5-1.5Zm0,10c-.828,0-1.5.672-1.5,1.5s.672,1.5,1.5,1.5,1.5-.672,1.5-1.5-.672-1.5-1.5-1.5Zm0-5c-.828,0-1.5.672-1.5,1.5s.672,1.5,1.5,1.5,1.5-.672,1.5-1.5-.672-1.5-1.5-1.5Z"/>
</svg>
