<?xml version="1.0" encoding="UTF-8"?>
<svg xmlns="http://www.w3.org/2000/svg" id="Layer_1" data-name="Layer 1" viewBox="0 0 24 24">
  <path d="m11.293,10.707c-.391-.391-.391-1.023,0-1.414s1.023-.391,1.414,0l1.293,1.293,1.293-1.293c.391-.391,1.023-.391,1.414,0s.391,1.023,0,1.414l-1.293,1.293,1.293,1.293c.391.391.391,1.023,0,1.414-.195.195-.451.293-.707.293s-.512-.098-.707-.293l-1.293-1.293-1.293,1.293c-.195.195-.451.293-.707.293s-.512-.098-.707-.293c-.391-.391-.391-1.023,0-1.414l1.293-1.293-1.293-1.293Zm10.707-5.726v14c0,2.757-2.243,5-5,5H6c-2.206,0-4-1.794-4-4V4.981C2,2.224,4.243-.019,7-.019h10c2.757,0,5,2.243,5,5Zm-5-3h-9v14h12V4.981c0-1.654-1.346-3-3-3Zm-13,3v11.556c.591-.344,1.268-.556,2-.556V2.165c-1.161.414-2,1.514-2,2.816Zm16,14v-1H6c-1.103,0-2,.897-2,2s.897,2,2,2h11c1.654,0,3-1.346,3-3Zm-7.505-11.609c.787.832,2.109.839,2.905.015l2.211-2.193c.376-.389.374-1.007-.004-1.394-.394-.403-1.042-.401-1.433.004l-2.22,2.202-1.138-1.183c-.392-.414-1.05-.417-1.445-.006-.37.384-.372.992-.006,1.379l1.131,1.175Z"/>
</svg>
