<?xml version="1.0" encoding="UTF-8"?>
<svg xmlns="http://www.w3.org/2000/svg" id="Layer_1" data-name="Layer 1" viewBox="0 0 24 24">
  <path d="m14,10c1.654,0,3-1.346,3-3s-1.346-3-3-3-3,1.346-3,3,1.346,3,3,3Zm0-4c.551,0,1,.449,1,1s-.449,1-1,1-1-.449-1-1,.449-1,1-1Zm-4,13c0,.552-.448,1-1,1h-5c-2.206,0-4-1.794-4-4v-7.5c0-.552.448-1,1-1s1,.448,1,1v7.5c0,1.103.897,2,2,2h5c.552,0,1,.448,1,1Zm5,0c0,.552-.448,1-1,1h-1c-.552,0-1-.448-1-1s.448-1,1-1h1c.552,0,1,.448,1,1Zm-7-5h12c2.206,0,4-1.794,4-4v-6c0-2.206-1.794-4-4-4h-12c-2.206,0-4,1.794-4,4v6c0,2.206,1.794,4,4,4Zm-2-10c0-1.103.897-2,2-2h12c1.103,0,2,.897,2,2v6c0,1.103-.897,2-2,2h-12c-1.103,0-2-.897-2-2v-6Zm17.451,16.326l-2.223,2.36c-.197.209-.462.314-.728.314-.246,0-.493-.09-.686-.272-.402-.379-.421-1.012-.042-1.414l1.238-1.314h-3.01c-.552,0-1-.448-1-1s.448-1,1-1h3.011l-1.239-1.314c-.378-.402-.36-1.035.042-1.414.401-.378,1.034-.36,1.414.042l2.244,2.381c.71.709.71,1.899-.021,2.63ZM7,9.5c0-.828.672-1.5,1.5-1.5s1.5.672,1.5,1.5-.672,1.5-1.5,1.5-1.5-.672-1.5-1.5Zm0-5c0-.828.672-1.5,1.5-1.5s1.5.672,1.5,1.5-.672,1.5-1.5,1.5-1.5-.672-1.5-1.5Zm11,5c0-.828.672-1.5,1.5-1.5s1.5.672,1.5,1.5-.672,1.5-1.5,1.5-1.5-.672-1.5-1.5Zm0-5c0-.828.672-1.5,1.5-1.5s1.5.672,1.5,1.5-.672,1.5-1.5,1.5-1.5-.672-1.5-1.5Z"/>
</svg>
