<?xml version="1.0" encoding="UTF-8"?>
<svg xmlns="http://www.w3.org/2000/svg" id="Layer_1" data-name="Layer 1" viewBox="0 0 24 24">
  <path d="m19,0H5C2.243,0,0,2.243,0,5v15c0,2.206,1.794,4,4,4h5c2.206,0,4-1.794,4-4v-10.806c1.996,3.46,5.069,5.204,7.257,6.05-1.661,1.396-3.715,3.627-4.225,6.43-.104.567.052,1.15.426,1.599.385.461.949.726,1.55.726h1.912c2.288,0,4.08-1.757,4.08-4V5c0-2.757-2.243-5-5-5ZM5,2h6v10H2v-7c0-1.654,1.346-3,3-3Zm4,20h-5c-1.103,0-2-.897-2-2v-6h9v6c0,1.103-.897,2-2,2ZM13.027,2h2.014c.195,3.065,1.289,5.561,3.277,7.418.192.18.438.27.683.27.267,0,.534-.106.73-.317.377-.403.355-1.036-.048-1.413-1.574-1.471-2.459-3.473-2.643-5.958h1.961c1.654,0,3,1.346,3,3v8.759c-2.557-.711-8.536-3.274-8.973-11.759Zm8.973,18c0,1.122-.914,2-2.08,2l-1.921.034c.448-2.457,2.531-4.474,4.001-5.625v3.591Zm-13-3c0,.552-.448,1-1,1h-3c-.552,0-1-.448-1-1s.448-1,1-1h3c.552,0,1,.448,1,1Z"/>
</svg>
