<?xml version="1.0" encoding="UTF-8"?>
<svg xmlns="http://www.w3.org/2000/svg" id="Layer_1" data-name="Layer 1" viewBox="0 0 24 24">
  <path d="m8,13c2.206,0,4-1.794,4-4s-1.794-4-4-4-4,1.794-4,4,1.794,4,4,4Zm0-6c1.103,0,2,.897,2,2s-.897,2-2,2-2-.897-2-2,.897-2,2-2Zm7,14.5v1.5c0,.553-.448,1-1,1s-1-.447-1-1v-1.5c0-2.481-2.019-4.5-4.5-4.5H2c-1.103,0-2-.897-2-2V6c0-.553.448-1,1-1s1,.447,1,1v9h6.5c3.584,0,6.5,2.916,6.5,6.5ZM23.121.878c-.567-.566-1.319-.878-2.12-.878h-.003l-4,.002c-1.654,0-2.999,1.348-2.998,3v6.207s.001,0,.001,0c0,.653.357,1.255.931,1.568.268.147.563.22.859.22.335,0,.671-.094.964-.281.067-.043.13-.095.185-.152l1.488-1.56,2.575-.003c1.652,0,2.997-1.348,2.997-3v-3.002c0-.802-.312-1.555-.879-2.122Zm-1.121,5.124c0,.551-.448.999-.999,1l-3.002.003c-.273,0-.534.112-.723.31l-1.275,1.337V3.002c-.001-.551.447-.999.998-1l4-.002h0c.267,0,.517.104.706.293.189.188.293.439.293.707v3.002ZM5.284,20.334c-.188.532-.284,1.093-.284,1.666v1c0,.553-.448,1-1,1s-1-.447-1-1v-1c0-.801.134-1.586.398-2.334.185-.521.758-.793,1.276-.608.521.184.793.756.609,1.276Z"/>
</svg>
