<?xml version="1.0" encoding="UTF-8"?>
<svg xmlns="http://www.w3.org/2000/svg" id="Layer_1" data-name="Layer 1" viewBox="0 0 24 24">
  <path d="m14,2.5c0-1.381,1.119-2.5,2.5-2.5s2.5,1.119,2.5,2.5-1.119,2.5-2.5,2.5-2.5-1.119-2.5-2.5Zm-6,12.5h-4c-1.103,0-2-.897-2-2v-5.338c0-.929.419-1.79,1.151-2.362l3.324-2.601c1.062-.832,2.501-.932,3.607-.296l.498.337c.458.31,1.08.19,1.389-.268.31-.458.189-1.08-.268-1.389l-.558-.375c-1.877-1.084-4.193-.921-5.901.415L1.918,3.724c-1.219.955-1.918,2.39-1.918,3.938v5.338c0,2.206,1.794,4,4,4h4c.552,0,1-.448,1-1s-.448-1-1-1Zm-3-6c-.552,0-1,.448-1,1v1c0,.552.448,1,1,1h1c.552,0,1-.448,1-1v-1c0-.552-.448-1-1-1h-1Zm19,2.556v2.444c0,.552-.447,1-1,1s-1-.448-1-1v-2.444c0-.331-.163-.639-.436-.825l-1.564-1.069v3.797c0,.978-.479,1.897-1.28,2.458l-4.271,2.824c-.281.186-.449.498-.449.834v3.425c0,.552-.447,1-1,1s-1-.448-1-1v-3.425c0-1.01.503-1.945,1.346-2.502l.654-.433v-3.867l-2.399,1.565c-.463.302-1.083.171-1.384-.292-.301-.463-.171-1.083.292-1.384l2.437-1.589c.204-.133.352-.334.417-.568,0,0,.693-2.472.709-2.512.406-1.127,1.625-1.976,2.833-1.976,1.444,0,2.247.574,2.548.848l3.24,2.214c.818.559,1.308,1.485,1.308,2.477Zm-9.991,5.078s0-.001,0,0h0Zm3.991-8.37c-.154-.094-.496-.248-1.096-.248-.33,0-.746.259-.904.542v6.759l1.595-1.055c.246-.172.405-.479.405-.805v-5.194Zm1.784,10.356c-.209-.511-.792-.755-1.305-.546-.511.209-.755.794-.545,1.305l1.641,4c.158.387.531.621.925.621.127,0,.255-.024.38-.075.511-.209.755-.794.545-1.305l-1.641-4Z"/>
</svg>
