<?xml version="1.0" encoding="UTF-8"?>
<svg xmlns="http://www.w3.org/2000/svg" id="Layer_1" data-name="Layer 1" viewBox="0 0 24 24">
  <path d="m23.707,23.707c-.195.195-.451.293-.707.293s-.512-.098-.707-.293l-5.969-5.969c-1.725,1.412-3.927,2.262-6.324,2.262C4.486,20,0,15.514,0,10S4.486,0,10,0c1.758,0,3.487.463,5.001,1.338.478.277.642.889.364,1.367-.185.32-.521.499-.866.499-.17,0-.342-.043-.5-.134-1.209-.7-2.592-1.07-3.999-1.07C5.589,2,2,5.589,2,10c0,1.167.257,2.274.709,3.274l3.799-4.559c.362-.436.896-.7,1.462-.726.562-.025,1.122.188,1.524.591l1.928,1.928L20.237.34c.362-.419.994-.462,1.41-.103.418.361.465.993.104,1.411l-8.78,10.166c-.366.424-.897.679-1.458.7-.557.014-1.108-.195-1.505-.592l-1.928-1.928-4.263,5.075c1.468,1.788,3.695,2.93,6.183,2.93,4.411,0,8-3.589,8-8,0-.15-.005-.299-.013-.447-.029-.552.395-1.022.946-1.052.547-.04,1.022.394,1.052.945.01.183.015.368.015.553,0,2.398-.85,4.6-2.262,6.324l5.969,5.969c.391.391.391,1.023,0,1.414Z"/>
</svg>
