<?xml version="1.0" encoding="UTF-8"?>
<svg xmlns="http://www.w3.org/2000/svg" id="Layer_1" data-name="Layer 1" viewBox="0 0 24 24">
  <path d="m22.527,15.457l-1.813-1.773c-.943-.924-2.483-.924-3.429,0l-1.82,1.781c-.944.943-1.465,2.199-1.465,3.535s.521,2.592,1.464,3.535,2.2,1.465,3.536,1.465,2.591-.521,3.535-1.465,1.465-2.199,1.465-3.535-.521-2.592-1.473-3.543Zm-1.406,5.664c-1.134,1.134-3.11,1.134-4.242,0-.566-.566-.879-1.319-.879-2.121s.312-1.555.871-2.113l1.812-1.773c.087-.085.201-.128.316-.128.114,0,.229.043.315.128l1.806,1.766c.566.566.879,1.319.879,2.121s-.313,1.555-.879,2.121Zm-5.121-9.121c.553,0,1-.447,1-1V2c1.654,0,3,1.346,3,3v5c0,.553.447,1,1,1s1-.447,1-1v-5c0-2.757-2.243-5-5-5H5C2.243,0,0,2.243,0,5v12c0,2.757,2.243,5,5,5h6c.553,0,1-.447,1-1v-9h4Zm-1-10v8h-3V2h3Zm-5,8h-3V2h3v8ZM5,2v8h-3v-5c0-1.654,1.346-3,3-3Zm-3,15v-5h3v8c-1.654,0-3-1.346-3-3Zm8,3h-3v-8h3v8Z"/>
</svg>
