<?xml version="1.0" encoding="UTF-8"?>
<svg xmlns="http://www.w3.org/2000/svg" id="Layer_1" data-name="Layer 1" viewBox="0 0 24 24">
  <path d="m13.257,12.001c-.757,0-1.281.587-1.385,1.167l-1.2,5.976c-.089.443.25.857.702.857.345,0,.641-.246.704-.585l.166-.889h2.006l.157.883c.061.342.358.591.705.591h.01c.453,0,.793-.416.701-.86l-1.221-5.947c-.12-.668-.589-1.192-1.346-1.192Zm-.645,5l.624-3.295.638,3.295h-1.261Zm4.988-5.001c.442,0,.8.358.8.8v6.4c0,.442-.358.8-.8.8s-.8-.358-.8-.8v-6.4c0-.442.358-.8.8-.8Zm-9.557,0h-1.244c-.442,0-.8.358-.8.8v6.4c0,.442.358.8.8.8s.8-.358.8-.8v-2.2h.5c1.365,0,2.474-1.093,2.5-2.452.026-1.401-1.154-2.548-2.556-2.548Zm.056,3.4h-.5v-1.8h.5c.496,0,.9.404.9.9s-.404.9-.9.9Zm13.601-3.4h-1.5c-.442,0-.8.358-.8.8v6.4c0,.442.358.8.8.8h1.5c1.27,0,2.3-1.03,2.3-2.3v-3.4c0-1.27-1.03-2.3-2.3-2.3Zm.7,5.7c0,.386-.314.7-.7.7s-.7,0-.7,0v-4.802s.314,0,.7,0,.7.314.7.7v3.4Zm-4.4,4.3H5c-1.654,0-3-1.346-3-3V5c0-1.654,1.346-3,3-3h4.515c.163,0,.325.008.485.023v4.977c0,1.654,1.346,3,3,3h5.813c.309,0,.601-.143.79-.387s.255-.562.179-.861c-.312-1.217-.945-2.33-1.833-3.217l-3.484-3.485c-1.322-1.322-3.081-2.05-4.95-2.05h-4.515C2.243,0,0,2.243,0,5v14c0,2.757,2.243,5,5,5h13c.553,0,1-.448,1-1s-.447-1-1-1ZM12,2.659c.379.218.733.488,1.051.806l3.484,3.486c.314.314.584.667.804,1.05h-4.339c-.551,0-1-.449-1-1V2.659Z"/>
</svg>
