<?xml version="1.0" encoding="UTF-8"?>
<svg xmlns="http://www.w3.org/2000/svg" id="Layer_1" data-name="Layer 1" viewBox="0 0 24 24">
  <path d="m9,8.96c2.206,0,4-1.742,4-3.884,0-1.163-.73-2.59-2.17-4.241-.924-1.062-2.736-1.062-3.659,0-1.44,1.652-2.171,3.079-2.171,4.242,0,2.142,1.794,3.884,4,3.884Zm-.321-6.812c.112-.129.249-.147.321-.147s.209.019.321.148c1.051,1.205,1.679,2.3,1.679,2.928,0,1.039-.897,1.884-2,1.884s-2-.845-2-1.884c0-.628.627-1.723,1.679-2.929Zm14.338,6.638c-.595-.542-1.361-.818-2.168-.782-.804.038-1.544.387-2.086.981l-3.216,3.534c-.551-.909-1.55-1.519-2.689-1.519H4c-2.206,0-4,1.794-4,4v5c0,2.206,1.794,4,4,4h4.965c2.849,0,5.57-1.22,7.466-3.348l6.805-7.638c1.093-1.227.994-3.124-.219-4.229Zm-1.274,2.899l-6.805,7.638c-1.517,1.701-3.694,2.678-5.973,2.678h-4.965c-1.103,0-2-.897-2-2v-5c0-1.103.897-2,2-2h8.858c.63,0,1.142.513,1.142,1.143,0,.564-.421,1.051-.981,1.13l-5.161.737c-.546.078-.926.585-.848,1.132.079.548.586.929,1.131.849l5.16-.737c1.175-.168,2.13-.988,2.515-2.059l4.426-4.864c.182-.199.43-.316.7-.329.27-.014.528.081.728.263.407.371.44,1.009.073,1.421Z"/>
</svg>
