<?xml version="1.0" encoding="UTF-8"?>
<svg xmlns="http://www.w3.org/2000/svg" id="Layer_1" data-name="Layer 1" viewBox="0 0 24 24">
  <path d="m22.97,6.251c-.637-.354-1.415-.331-2.1.101l-4.87,3.649v-2.001c0-.727-.395-1.397-1.03-1.749-.637-.354-1.416-.331-2.1.101l-4.87,3.649V2c.553,0,1-.448,1-1s-.447-1-1-1H1C.447,0,0,.448,0,1s.447,1,1,1v17c0,2.757,2.243,5,5,5h13c2.757,0,5-2.243,5-5v-11c0-.727-.395-1.397-1.03-1.749Zm-.97,12.749c0,1.654-1.346,3-3,3H6c-1.654,0-3-1.346-3-3V2h3v9.991c0,.007,0,.014,0,.02v5.989c0,.552.447,1,1,1s1-.448,1-1v-5.5l6-4.5v4c0,.379.214.725.553.895s.743.134,1.047-.094l6.4-4.8v11Zm-8-2v1c0,.552-.448,1-1,1h-1c-.552,0-1-.448-1-1v-1c0-.552.448-1,1-1h1c.552,0,1,.448,1,1Zm2,1v-1c0-.552.448-1,1-1h1c.552,0,1,.448,1,1v1c0,.552-.448,1-1,1h-1c-.552,0-1-.448-1-1Z"/>
</svg>
