<?xml version="1.0" encoding="UTF-8"?>
<svg xmlns="http://www.w3.org/2000/svg" id="Layer_1" data-name="Layer 1" viewBox="0 0 24 24" width="512" height="512"><path d="M22.02,14.19c-.35-1.78-1.07-3.31-2.13-4.54l1.51-1.31c1.29,1.5,2.16,3.33,2.58,5.46l-1.96,.39Zm.03,2.49l1.9,.63c-1.36,4.08-4.31,4.68-5.95,4.68-1.41,0-2.64-.62-3.66-1.55-1.18,.93-2.63,1.55-4.34,1.55s-3.27-.98-4.69-2.46c-1.58,1.49-3.39,2.46-5.31,2.46v-2c1.41,0,2.79-.79,4.03-2C1.62,14.74,0,10.23,0,7.5,0,4.57,2.54,2,5.43,2s5.57,2.62,5.57,5.5-1.71,7.35-4.33,10.57c1.09,1.17,2.24,1.93,3.33,1.93,1.17,0,2.19-.42,3.02-1.06-1.31-1.86-2.02-4.12-2.02-5.48,0-1.84,1.64-3.45,3.51-3.45s3.49,1.61,3.49,3.45c0,1.51-.77,3.77-2.23,5.58,.67,.59,1.42,.97,2.23,.97,1.95,0,3.32-1.12,4.05-3.32Zm-16.66-.23c2.14-2.83,3.61-6.68,3.61-8.95,0-1.8-1.74-3.5-3.57-3.5s-3.43,1.67-3.43,3.5c0,2.38,1.46,6.17,3.39,8.95Zm9.06,1.01c1.02-1.4,1.55-3.05,1.55-4,0-.73-.74-1.45-1.49-1.45s-1.51,.73-1.51,1.45c0,.95,.55,2.6,1.45,4Z"/></svg>
