<?xml version="1.0" encoding="UTF-8"?>
<svg xmlns="http://www.w3.org/2000/svg" id="Layer_1" data-name="Layer 1" viewBox="0 0 24 24">
  <path d="m22,9v-3c0-1.654-1.346-3-3-3h-6V0h-2v3h-6c-1.654,0-3,1.346-3,3v3H0v6h2v6h12.697l3.963,2.642c.36.24.775.361,1.191.361.348,0,.696-.084,1.015-.255.699-.375,1.134-1.1,1.134-1.894v-6.855h2v-6h-2Zm-6.5-1c.828,0,1.5.672,1.5,1.5s-.672,1.5-1.5,1.5-1.5-.672-1.5-1.5.672-1.5,1.5-1.5Zm-7,0c.828,0,1.5.672,1.5,1.5s-.672,1.5-1.5,1.5-1.5-.672-1.5-1.5.672-1.5,1.5-1.5Zm3.5,9c-3.107,0-5.563-2.162-5.666-2.254l1.33-1.493c.02.018,2.005,1.748,4.336,1.748s4.316-1.73,4.336-1.748l1.33,1.493c-.103.092-2.559,2.254-5.666,2.254Z"/>
</svg>
