<?xml version="1.0" encoding="UTF-8"?>
<svg xmlns="http://www.w3.org/2000/svg" id="Layer_1" data-name="Layer 1" viewBox="0 0 24 24" width="512" height="512"><path d="m20.517,17.034h-3.517v-2.034h2.5c1.381,0,2.5-1.119,2.5-2.5s-1.119-2.5-2.5-2.5h-2.5v-2h1c1.105,0,2-.895,2-2s-.895-2-2-2h-2.145c-.487-1.868-2.169-4-3.855-4,0,2-.75,3.25-1.5,4h-4.5c-1.105,0-2,.895-2,2s.895,2,2,2h7v2H4.5c-1.381,0-2.5,1.119-2.5,2.5s1.119,2.5,2.5,2.5h8.5v2h-1.625v.034H3.483c-1.924,0-3.483,1.559-3.483,3.483s1.559,3.483,3.483,3.483h17.034c1.924,0,3.483-1.56,3.483-3.483s-1.559-3.483-3.483-3.483Z"/></svg>
