<?xml version="1.0" encoding="UTF-8"?>
<svg xmlns="http://www.w3.org/2000/svg" id="Layer_1" data-name="Layer 1" viewBox="0 0 24 24">
  <path d="m11,21.5c0,1.381-1.119,2.5-2.5,2.5s-2.5-1.119-2.5-2.5c0-.61.218-1.168.581-1.602l-.208-.417-1.64.894c.171.338.267.72.267,1.124,0,1.381-1.119,2.5-2.5,2.5s-2.5-1.119-2.5-2.5,1.119-2.5,2.5-2.5c.011,0,.023,0,.034,0l-.601-1.001h-.934v-2h2.066l1.359,2.265,1.052-.574-.478-.956v-1.736h4v2h-1.632l1.002,2.003c.043-.002.087-.003.13-.003,1.381,0,2.5,1.119,2.5,2.5ZM20,5l4-2.5-4-2.5h-2v10h2v-5Zm0,9h-7c-1.103,0-2-.897-2-2s.897-2,2-2h3v-2h-3c-2.206,0-4,1.794-4,4s1.794,4,4,4h7c1.103,0,2,.897,2,2s-.897,2-2,2h-7v2h7c2.206,0,4-1.794,4-4s-1.794-4-4-4Z"/>
</svg>
