<?xml version="1.0" encoding="UTF-8"?>
<svg xmlns="http://www.w3.org/2000/svg" id="Layer_1" data-name="Layer 1" viewBox="0 0 24 24">
  <path d="m16,24h-8c0-2.206,1.794-4,4-4s4,1.794,4,4Zm4.771-6.011c-.671-2.349-2.846-3.989-5.289-3.989h-6.966c-2.442,0-4.617,1.64-5.289,3.989l-1.717,6.011h4.489c0-3.309,2.691-6,6-6s6,2.691,6,6h4.489l-1.717-6.011Zm-5.241-5.988c.04,0,.081.001.121.002-.045-.021-.086-.024-.121-.002Zm2.672-7.45c-.855-2.722-3.348-4.55-6.202-4.55s-5.348,1.829-6.202,4.55c-.017.054-.058.211-.117.45h2.088c1.25,0,2.214-.212,3.025-.717.858-.535,1.508-1.312,1.879-2.233.679.102,1.313.356,1.862.732-.527,1.319-1.455,2.432-2.683,3.198-1.081.674-2.609,1.02-3.852,1.02-.038,0-.41,0-.69,0,.361,2.264,2.327,3.999,4.69,3.999,1.751,0,3.284-.953,4.108-2.368.097.409.485,2.044.834,3.513,1.303.261,2.503.865,3.484,1.725-.875-3.729-2.106-8.945-2.224-9.32Zm-12.907,2.48c-.02-.065-.04-.13-.059-.196-.465,1.945-1.13,4.766-1.663,7.036,1.327-1.163,3.054-1.858,4.895-1.87-1.72-1.06-2.931-2.87-3.174-4.971Z"/>
</svg>
