<?xml version="1.0" encoding="UTF-8"?>
<svg xmlns="http://www.w3.org/2000/svg" id="Layer_1" data-name="Layer 1" viewBox="0 0 24 24" width="512" height="512"><path d="m24,10v-2h-2.075c-.081-.581-.226-1.146-.447-1.682l1.772-1.051-1.021-1.72-1.773,1.052c-.156-.193-.32-.379-.498-.557h0c-.237-.238-.491-.446-.752-.642l.993-1.814-1.754-.961-.995,1.817c-.472-.174-.958-.295-1.451-.363V0h-2v2.088c-.569.084-1.129.234-1.667.459l-1.092-1.794-1.708,1.04,1.085,1.782c-.178.146-.351.301-.518.467l-.779.779-1.422-1.422-1.414,1.414,1.422,1.422-1.672,1.672-1.422-1.422-1.414,1.414,1.422,1.422-.779.779c-.166.166-.321.339-.467.517l-1.782-1.085-1.04,1.708,1.794,1.092c-.225.538-.375,1.098-.459,1.667H0v2h2.079c.069.493.189.979.363,1.451l-1.817.995.961,1.754,1.814-.993c.196.261.405.515.642.752.178.178.365.344.557.499l-1.052,1.772,1.72,1.021,1.053-1.775c.542.222,1.107.367,1.68.446v2.078h2v-2.087c.576-.085,1.143-.239,1.686-.468l1.134,1.862,1.708-1.04-1.13-1.856c.173-.142.341-.293.502-.454l.779-.779,1.488,1.488,1.414-1.414-1.488-1.488,1.672-1.672,1.488,1.488,1.414-1.414-1.488-1.488.779-.779c.161-.161.312-.329.455-.502l1.855,1.129,1.04-1.708-1.858-1.131c.228-.538.381-1.105.467-1.689h2.083Zm-16.5,6c-.828,0-1.5-.672-1.5-1.5s.672-1.5,1.5-1.5,1.5.672,1.5,1.5-.672,1.5-1.5,1.5Zm6-1c-.828,0-1.5-.672-1.5-1.5s.672-1.5,1.5-1.5,1.5.672,1.5,1.5-.672,1.5-1.5,1.5Zm1-6c-.828,0-1.5-.672-1.5-1.5s.672-1.5,1.5-1.5,1.5.672,1.5,1.5-.672,1.5-1.5,1.5Z"/></svg>
