<?xml version="1.0" encoding="UTF-8"?>
<svg xmlns="http://www.w3.org/2000/svg" id="Layer_1" data-name="Layer 1" viewBox="0 0 24 24" width="512" height="512"><path d="m8.972,3C8.972,1.343,10.316,0,11.972,0s3,1.343,3,3-1.343,3-3,3-3-1.343-3-3Zm-.972,9c1.657,0,3-1.343,3-3s-1.343-3-3-3-3,1.343-3,3,1.343,3,3,3Zm8,0c1.657,0,3-1.343,3-3s-1.343-3-3-3-3,1.343-3,3,1.343,3,3,3Zm8,5.599s-1.84-.404-3.035-1.605c-.797-.8-1.402-2.303-1.718-3.22-.875.754-2,1.226-3.246,1.226h-3v5c1.399.37,2.728.944,3.38,1.599,1.196,1.201,1.628,3.17,1.628,3.17,0,0,1.352-.795,2.852-.795s2.994.528,2.994.528c0,0-.855-1.502-.855-3.002,0-1,1-2.901,1-2.901ZM1,20.5c0,1.5-.855,3.002-.855,3.002,0,0,1.494-.528,2.994-.528s2.852.795,2.852.795c0,0,.432-1.969,1.628-3.17.652-.655,1.981-1.229,3.38-1.599v-5h-3c-1.246,0-2.371-.472-3.246-1.226-.317.917-.922,2.42-1.718,3.22-1.196,1.201-3.035,1.605-3.035,1.605,0,0,1,1.901,1,2.901Z"/></svg>
