<?xml version="1.0" encoding="UTF-8"?>
<svg xmlns="http://www.w3.org/2000/svg" id="Layer_1" data-name="Layer 1" viewBox="0 0 24 24">
  <path d="m12,20c-1.105,0-2-.895-2-2v-4.499c.354-.212,1.017-.501,2-.501s1.65.291,2,.499v4.501c0,1.105-.895,2-2,2ZM24,3v17c-1.103,0-2-.897-2-2h-2c0,1.103-.897,2-2,2s-2-.897-2-2v-5.414l-.293-.293c-.132-.133-1.36-1.293-3.707-1.293s-3.575,1.16-3.707,1.293l-.293.293v5.414c0,1.103-.897,2-2,2s-2-.897-2-2h-2c0,1.103-.897,2-2,2V3C0,1.346,1.346,0,3,0h18c1.654,0,3,1.346,3,3Zm-4,9c0-4.411-3.589-8-8-8S4,7.589,4,12c0,2.021.759,3.864,2,5.274v-5.274c0-3.309,2.691-6,6-6s6,2.691,6,6v5.274c1.241-1.41,2-3.253,2-5.274Zm-2,10c-1.201,0-2.266-.542-3-1.382-.734.84-1.799,1.382-3,1.382s-2.266-.542-3-1.382c-.734.84-1.799,1.382-3,1.382s-2.266-.542-3-1.382c-.734.84-1.799,1.382-3,1.382v2h24v-2c-1.201,0-2.266-.542-3-1.382-.734.84-1.799,1.382-3,1.382Z"/>
</svg>
