<?xml version="1.0" encoding="UTF-8"?>
<svg xmlns="http://www.w3.org/2000/svg" id="Layer_1" data-name="Layer 1" viewBox="0 0 24 24" width="512" height="512"><path d="M14.707,7.293c.189,.188,.293,.439,.293,.707s-.104,.518-.293,.707l-4.293,4.293h-1.414v-1.415l4.293-4.292c.391-.39,1.023-.39,1.414,0Zm4.364,9.784l-7.071,6.916-7.063-6.908c-3.906-3.907-3.906-10.251-.008-14.15C6.818,1.046,9.329,.006,12,.006s5.182,1.04,7.071,2.929c3.898,3.899,3.898,10.243,0,14.142Zm-2.071-9.078c0-.801-.313-1.555-.879-2.121-1.17-1.17-3.072-1.17-4.242,0l-4.879,4.878v4.243h4.242l4.879-4.878c.566-.567,.879-1.32,.879-2.122Z"/></svg>
