<?xml version="1.0" encoding="UTF-8"?>
<svg xmlns="http://www.w3.org/2000/svg" id="Layer_1" data-name="Layer 1" viewBox="0 0 24 24">
  <path d="m17.626,23.992h1.632l-1.339-6.373c-.135-.668-.588-1.627-1.753-1.627s-1.626,1.002-1.742,1.581l-1.365,6.418h1.584l.309-1.4h2.379l.295,1.4Zm-2.32-2.999l.686-3.104c.03-.149.105-.253.176-.296l.017.006c.024.016.121.118.168.349l.641,3.044h-1.688Zm8.695-3.4h-1.75v6.4h-1.6v-6.4h-1.65v-1.6h5v1.6Zm-16.335,5.272c.633.723,1.541,1.136,2.506,1.136,1.221,0,2.245-.853,2.436-2.028.143-.882-.224-2.036-1.685-2.627-.56-.228-1.084-.467-1.366-.595-.099-.045-.428-.173-.433-.615-.002-.131.103-.441.515-.577.73-.236,1.392.2,1.611.367l.86-1.113c-.401-.369-1.539-1.123-2.863-.686-.796.263-1.359.951-1.471,1.796-.106.818.23,1.565.921,2.049h0s.838.409,1.753.78c.214.086.905.409.817.959-.065.391-.492.795-1.096.795-.572,0-1.124-.24-1.497-.645l-1.009,1.006Zm16.335-14.864v-3c0-1.654-1.346-3-3-3h-3V0h-2v2h-8V0h-2v2h-3c-1.654,0-3,1.346-3,3v3h24ZM0,10v14h6.086l-1.068-1.22,1.854-1.85c-.782-.887-1.145-2.048-.987-3.26.214-1.619,1.298-2.935,2.83-3.438.437-.144.867-.205,1.286-.218v-.014h14v-4H0Z"/>
</svg>
