<?xml version="1.0" encoding="UTF-8"?>
<svg xmlns="http://www.w3.org/2000/svg" id="Layer_1" data-name="Layer 1" viewBox="0 0 24 24" width="512" height="512"><path d="m10,11c0-1.105.895-2,2-2s2,.895,2,2-.895,2-2,2-2-.895-2-2Zm14,0c0-4.308-2.335-8.307-6.093-10.438l-.829-.47-4.323,6.842.998.491c1.386.682,2.246,2.051,2.247,3.573v.998s8,.004,8,.004v-1.001Zm-16.001.997v-.998c.002-1.522.862-2.892,2.248-3.573l.998-.491L6.922.092l-.829.47C2.335,2.692,0,6.691,0,10.999v1.001l7.999-.004Zm10.34,9.179l.81-.506-3.962-7.042-.904.636c-1.374.967-3.202.961-4.568.003l-.904-.633-3.958,7.035.81.506c1.91,1.194,4.103,1.826,6.339,1.826s4.431-.631,6.339-1.825Z"/></svg>
