<?xml version="1.0" encoding="UTF-8"?>
<svg xmlns="http://www.w3.org/2000/svg" id="Layer_1" data-name="Layer 1" viewBox="0 0 24 24">
  <path d="m13,10.094l6.561,2.808-1.561,4.698v6.395h-5v-13.901Zm8.618-5.099c-.309,0-.586-.171-.724-.447-.479-.958-1.442-1.553-2.512-1.553h-1.382V-.004c-1.657,0-3,1.343-3,3v1.668l-.907,2.512L3.236,0H0l10.995,7.996-4.994.003c-.827,0-1.616.249-2.281.713-.482-.332-1.72-1.411-1.72-3.716H0c0,2.962,1.531,4.557,2.413,5.231-.27.545-.412,1.148-.412,1.774l.003,12h4.996v-6.001l4-.002v-9.997h2.25l6.945,2.996h.805c1.654,0,3-1.346,3-3v-3h-2.382Z"/>
</svg>
