<?xml version="1.0" encoding="UTF-8"?>
<svg xmlns="http://www.w3.org/2000/svg" id="Layer_1" data-name="Layer 1" viewBox="0 0 24 24" width="512" height="512"><path d="M17.43,11.35c.97-.99,1.57-2.35,1.57-3.85,0-3.03-2.47-5.5-5.5-5.5h-2.5V0h-2V2h-2c-1.65,0-3,1.35-3,3v14c0,1.65,1.35,3,3,3h2v2h2v-2h4.5c3.03,0,5.5-2.47,5.5-5.5,0-2.36-1.49-4.37-3.57-5.15Zm-3.93-7.35c1.93,0,3.5,1.57,3.5,3.5s-1.57,3.5-3.5,3.5h-2.5V4h2.5Zm-7.5,1c0-.55,.45-1,1-1h2v7h-3V5Zm1,15c-.55,0-1-.45-1-1v-6h3v7h-2Zm8.5,0h-4.5v-7h4.5c1.93,0,3.5,1.57,3.5,3.5s-1.57,3.5-3.5,3.5Z"/></svg>
