<?xml version="1.0" encoding="UTF-8"?>
<svg xmlns="http://www.w3.org/2000/svg" id="Layer_1" data-name="Layer 1" viewBox="0 0 24 24">
  <path d="m6,9h11.99c-.105,3.086-2.437,5.689-5.404,5.972-.191.019-.383.027-.573.027-1.492,0-2.942-.553-4.049-1.559-1.249-1.136-1.964-2.754-1.964-4.44Zm-3,12v3h6v-8h-1c-2.757,0-5,2.243-5,5Zm18,0v3h-10v-8h5c2.757,0,5,2.243,5,5Zm-5-.5c0-.828-.672-1.5-1.5-1.5s-1.5.672-1.5,1.5.672,1.5,1.5,1.5,1.5-.672,1.5-1.5ZM6.001,4.95c0,.973,0,2.049,0,2.049h12s0-1.076,0-2.049c1.141-.232,2.001-1.24,2.001-2.45,0-1.381-1.119-2.5-2.5-2.5-.599,0-1.62.211-2.584.563-.004-.004-.008-.006-.012-.01-.618-.22-1.747-.553-2.904-.553s-2.286.333-2.905.553c-.004.004-.007.006-.011.01-.964-.352-1.985-.563-2.584-.563-1.381,0-2.5,1.119-2.5,2.5,0,1.21.859,2.218,2.001,2.45Z"/>
</svg>
