<?xml version="1.0" encoding="UTF-8"?>
<svg xmlns="http://www.w3.org/2000/svg" id="Layer_1" data-name="Layer 1" viewBox="0 0 24 24">
  <path d="m19.979.793l-.707-.707-8.914,8.914h11.544c.059.475.098.954.098,1.44,0,.188-.018.373-.027.56h-9.559l6.874,6.874c-.215.255-.437.506-.676.745-.236.237-.485.456-.738.669l-6.874-6.874v9.558c-.189.009-.376.028-.566.028-.484,0-.961-.04-1.434-.099v-11.544L.086,19.272l.707.707c1.241,1.24,4.207,4.021,9.641,4.021,3.475,0,6.948-1.322,9.593-3.967,2.562-2.562,3.974-5.969,3.974-9.593,0-5.44-2.909-8.534-4.021-9.647Z"/>
</svg>
