<?xml version="1.0" encoding="UTF-8"?>
<svg xmlns="http://www.w3.org/2000/svg" id="Layer_1" data-name="Layer 1" viewBox="0 0 24 24">
  <path d="m2.5,2.5c0-1.381,1.119-2.5,2.5-2.5s2.5,1.119,2.5,2.5-1.119,2.5-2.5,2.5-2.5-1.119-2.5-2.5Zm9.5,7.5c1.381,0,2.5-1.119,2.5-2.5s-1.119-2.5-2.5-2.5-2.5,1.119-2.5,2.5,1.119,2.5,2.5,2.5Zm1,1h-2c-1.654,0-3,1.346-3,3v6h1v4h2v-4h2v4h2v-4h1v-6c0-1.654-1.346-3-3-3Zm5-6c1.381,0,2.5-1.119,2.5-2.5s-1.119-2.5-2.5-2.5-2.5,1.119-2.5,2.5,1.119,2.5,2.5,2.5Zm5.133,15l-1.422-11.372c-.187-1.498-1.467-2.628-2.977-2.628h-1.469c-.337,0-.663.057-.968.161,0,0-.017.004-.021.005.132.424.224.866.224,1.334,0,.874-.257,1.681-.69,2.368,1.321.901,2.19,2.416,2.19,4.132v6h1v4h2v-4h2.133ZM7.5,7.5c0-.494.099-.96.246-1.405-.007-.002-.013-.004-.02-.006-.233-.058-.476-.089-.726-.089H3c-1.654,0-3,1.346-3,3v8h2v7h2v-7h2v-3c0-1.715.87-3.23,2.19-4.131-.432-.688-.69-1.496-.69-2.369Z"/>
</svg>
