<?xml version="1.0" encoding="UTF-8"?>
<svg xmlns="http://www.w3.org/2000/svg" id="Layer_1" data-name="Layer 1" viewBox="0 0 24 24" width="512" height="512"><path d="M0,7v-1c0-1.65,1.35-3,3-3H21c1.65,0,3,1.35,3,3v1H0Zm8,6h-1.48c-.22,.38-.52,1.07-.52,2s.3,1.62,.52,2h1.48v-4Zm2,4h4v-4h-4v4Zm6-4v4h1.48c.22-.38,.52-1.07,.52-2s-.3-1.62-.52-2h-1.48Zm8-4v12H0V9H24Zm-4,6c0-2.23-1.2-3.61-1.25-3.66l-.3-.34H5.55l-.3,.34c-.05,.06-1.25,1.43-1.25,3.66s1.2,3.61,1.25,3.66l.3,.34h12.9l.3-.34c.05-.06,1.25-1.43,1.25-3.66Z"/></svg>
