<?xml version="1.0" encoding="UTF-8"?>
<svg xmlns="http://www.w3.org/2000/svg" id="Layer_1" data-name="Layer 1" viewBox="0 0 24 24" width="512" height="512"><path d="M2,24c0-3.305-1.652-5.873-1.669-5.898-.603-.922-.349-2.16,.57-2.767,.92-.607,2.099-.335,2.763,.556,.102,.137,3.336,3.557,3.336,8.109H2Zm20.004,0c0-3.305,1.652-5.873,1.669-5.898,.603-.922,.349-2.16-.57-2.767-.92-.607-2.099-.335-2.763,.556-.102,.137-3.336,3.557-3.336,8.109h5Zm-6.986-.398c-.966,.251-1.974,.398-3.018,.398s-2.049-.147-3.014-.397c-.147-4.308-2.625-7.652-3.762-8.965-1.256-1.63-3.391-2.076-5.119-1.134-.062-.494-.104-.993-.104-1.504C0,5.373,5.373,0,12,0s12,5.373,12,12c0,.51-.042,1.009-.104,1.502-1.751-.951-3.91-.484-5.12,1.14-1.101,1.267-3.609,4.626-3.758,8.959Zm.196-13.816c1.184,1.184,2.719,1.568,3.429,.857,.71-.71,.326-2.246-.857-3.43-1.184-1.184-2.719-1.568-3.429-.857s-.326,2.246,.857,3.429Zm-6.428,0c1.184-1.184,1.568-2.719,.857-3.429-.71-.71-2.246-.326-3.429,.857-1.184,1.184-1.568,2.719-.857,3.429,.71,.71,2.246,.326,3.429-.857Zm6.214,6.214v-1c0-1.657-1.343-3-3-3s-3,1.343-3,3v1c0,1.657,1.343,3,3,3s3-1.343,3-3Z"/></svg>
