<?xml version="1.0" encoding="UTF-8"?>
<svg xmlns="http://www.w3.org/2000/svg" id="Layer_1" data-name="Layer 1" viewBox="0 0 24 24" width="512" height="512"><path d="M22,9c0,1.826-1.537,1.992-2,2h-5c-.552,0-1-.448-1-1v-2c0-1,1-1,1-1,.041-.037,.274,.253,.33,.235,.911,.732,2.088,.955,3.244,.599,1.037-.32,1.896-1.145,2.237-2.175,.381-1.152,.178-2.37-.541-3.299-.827-1.068-2.217-1.583-3.538-1.271C15.487-.081,13.484-.323,12,.546c-1.483-.868-3.486-.626-4.731,.542-.655-.152-1.33-.11-1.987,.135-1.108,.411-1.95,1.37-2.197,2.502-.23,1.058,.021,2.141,.689,2.97,.668,.83,1.662,1.306,2.727,1.306,.572,0,1.389-.138,2.202-.76,.044,.015,.298-.24,.298-.24,0,0,1,0,1,1v2c0,.552-.448,1-1,1H4.007c-.471-.008-2.007-.174-2.007-2H0v3c0,6.627,5.373,12,12,12s12-5.373,12-12v-3h-2ZM7,14.5c0-.828,.672-1.5,1.5-1.5s1.5,.672,1.5,1.5-.672,1.5-1.5,1.5-1.5-.672-1.5-1.5Zm2,5.5c0-1.657,1.343-3,3-3s3,1.343,3,3h-6Zm6.5-4c-.828,0-1.5-.672-1.5-1.5s.672-1.5,1.5-1.5,1.5,.672,1.5,1.5-.672,1.5-1.5,1.5Z"/></svg>
