<?xml version="1.0" encoding="UTF-8"?>
<svg xmlns="http://www.w3.org/2000/svg" id="Layer_1" data-name="Layer 1" viewBox="0 0 24 24" width="512" height="512"><path d="M21,13c-1.139,0-2.223-.239-3.204-.67,1.97-1.828,3.204-4.438,3.204-7.33,0-2.757-2.243-5-5-5s-5,2.243-5,5c0,2.893,1.234,5.502,3.204,7.33-.981,.431-2.065,.67-3.204,.67-4.411,0-8-3.589-8-8H1V24H3V10.974c.576,.769,1.257,1.45,2.026,2.026h-.026v11h2V14.159c.636,.279,1.304,.497,2,.639v9.202h2V15c.687,0,1.351-.09,2-.223v9.223h2V14.155c.342-.15,.679-.311,1-.497,.321,.186,.658,.347,1,.497v9.845h2V14.777c.649,.133,1.313,.223,2,.223v9h2V13h-2Zm-5-1.759c-1.828-1.468-3-3.721-3-6.241,0-1.654,1.346-3,3-3s3,1.346,3,3c0,2.521-1.172,4.773-3,6.241Z"/></svg>
