<?xml version="1.0" encoding="UTF-8"?>
<svg xmlns="http://www.w3.org/2000/svg" id="Layer_1" data-name="Layer 1" viewBox="0 0 24 24">
  <path d="m13,13.75c0,.827-.673,1.5-1.5,1.5s-1.5-.673-1.5-1.5.673-1.5,1.5-1.5,1.5.673,1.5,1.5Zm11-1.75c0,6.617-5.383,12-12,12S0,18.617,0,12,5.383,0,12,0s12,5.383,12,12ZM6,7h-1.487l-2.517,2.776,1.482,1.344.521-.576v6.456h2V7Zm9,6.75c0-1.93-1.57-3.5-3.5-3.5-.532,0-1.032.129-1.484.342.082-1.028.935-1.842,1.984-1.842h2v-2h-2c-2.206,0-4,1.794-4,4v3.5h.051c.245,1.692,1.691,3,3.449,3,1.93,0,3.5-1.57,3.5-3.5Zm7-.75v-2h-2v-2h-2v2h-2v2h2v2h2v-2h2Z"/>
</svg>
