<?xml version="1.0" encoding="UTF-8"?>
<svg xmlns="http://www.w3.org/2000/svg" id="Layer_1" data-name="Layer 1" viewBox="0 0 24 24">
  <path d="m.574,13.871c.533-2.269,1.198-5.09,1.663-7.035-.005-.017-.01-.034,0-.001.008.029.005.019,0,.005.244,2.099,1.513,4.102,3.232,5.161-1.841.012-3.568.707-4.895,1.87ZM7.794,4.283c.858-.535,1.508-1.312,1.879-2.233.679.102,1.313.356,1.862.732-.527,1.319-1.455,2.432-2.683,3.198-1.081.674-2.609,1.02-3.852,1.02-.038,0-.41,0-.69,0,.361,2.264,2.327,3.999,4.69,3.999,1.751,0,3.284-.953,4.108-2.368.049.205.171.721.325,1.368h3.082c-.644-2.726-1.233-5.196-1.313-5.45-.855-2.722-3.348-4.55-6.202-4.55S3.652,1.829,2.798,4.55c-.017.054-.058.211-.117.45h2.088c1.25,0,2.214-.212,3.025-.717Zm14.706,10.217l-3.5-.649v-1.851h-2v1.48l-3.5-.649-1.5,4.782v.333c0,1.134.919,2.054,2.054,2.054,1.057,0,1.928-.799,2.042-1.826h.013v-.575l-.861-2.406,1.752.328v6.48h-3v2h8v-2h-3v-6.105l1.854.348-.854,2.42v.336c0,1.104.895,2,2,2s2-.896,2-2v-.336l-1.5-4.164Zm-12.5,3.445v-.64l1.037-3.306h-6.037c-2.761,0-5,2.239-5,5v5h12v-2.579c-1.191-.707-2-1.993-2-3.476Z"/>
</svg>
