<?xml version="1.0" encoding="UTF-8"?>
<svg xmlns="http://www.w3.org/2000/svg" id="Layer_1" data-name="Layer 1" viewBox="0 0 24 24">
  <path d="m7,3c-.695,0-1.366.102-2,.292V0h14v3.292c-.634-.189-1.305-.292-2-.292H7Zm10,2H7c-2.757,0-5,2.243-5,5v11c0,1.654,1.346,3,3,3h3.786,0c-.497-.269-.948-.549-1.186-.787-.721-.721-1.103-3.714-1.103-3.714,0,0,2.993.382,3.714,1.103.439.439.668,1.025.783,1.61l.003.006v-2.674c-.089-.037-2.684-1.119-3.393-1.828-.721-.721-1.104-3.716-1.104-3.716,0,0,2.995.382,3.716,1.104.437.437.666,1.02.782,1.602v-2.605c-.55-.711-1.123-1.589-1.123-2.165,0-1.108,2.125-4.437,2.125-4.437,0,0,2.125,3.329,2.125,4.437,0,.576-.574,1.455-1.126,2.167v2.279c.135-.46.354-.901.703-1.251.736-.736,3.798-1.132,3.798-1.132,0,0-.439,3.105-1.176,3.841-.654.654-2.844,1.583-3.327,1.784v2.594s0,0,0,0c.115-.585.345-1.171.783-1.61.721-.721,3.72-1.109,3.72-1.109,0,0-.388,2.999-1.109,3.72-.236.236-.682.514-1.174.78h3.783c1.654,0,3-1.345,3-3v-11c0-2.757-2.243-5-5-5Z"/>
</svg>
