<?xml version="1.0" encoding="UTF-8"?>
<svg xmlns="http://www.w3.org/2000/svg" id="Layer_1" data-name="Layer 1" viewBox="0 0 24 24" width="512" height="512"><path d="M17.41,5h-4.41V.59l4.41,4.41Zm-6.41,2V0H3C1.34,0,0,1.34,0,3V22H10v-2.42l2.75-2.75-1.25-.34-1.45,.39c-.38,.08-.75,.12-1.05,.12-1.05,0-2.09-.41-3-1.05-.91,.64-1.95,1.05-3,1.05v-2c.51,0,1.02-.17,1.5-.45-.92-1.1-1.5-2.42-1.5-3.55,0-1.65,1.35-3,3-3s3,1.35,3,3c0,1.14-.58,2.45-1.5,3.55,.48,.28,.99,.45,1.5,.45,.12,0,.64-.03,1.17-.27-.1-.36-.17-.77-.17-1.23,0-.83,.68-1.5,1.5-1.5s1.5,.67,1.5,1.5c0,.46-.07,.87-.17,1.23,.53,.25,1.05,.27,1.17,.27h.57s3.43-3.42,3.43-3.42V7h-7Zm12.26,5.74c-.99-.99-2.6-.99-3.59,0l-7.67,7.67v3.59h3.59l7.67-7.67c.48-.48,.74-1.12,.74-1.8s-.26-1.32-.74-1.79Zm-18.26-1.74c0,.63,.39,1.48,1,2.24,.61-.76,1-1.61,1-2.24,0-.55-.45-1-1-1s-1,.45-1,1Z"/></svg>
