<?xml version="1.0" encoding="UTF-8"?>
<svg xmlns="http://www.w3.org/2000/svg" id="Layer_1" data-name="Layer 1" viewBox="0 0 24 24">
  <path d="m21.97,11.441l-1.414-1.414c-1.549,1.55-3.954,1.724-5.703.535L23.996,1.418,22.582.004l-.024.024c.008-.015.014-.028.014-.028,0,0-5.573,1.739-5.573,2.844,0,.212.173,1.407.857,1.885l-4.358,4.358c-.991-1.719-.769-3.951.699-5.419l-.016-.016c.206-.2.427-.416.676-.665l-1.414-1.414c-.574.574-1.019.996-1.387,1.346-.944.896-1.464,1.39-2.336,2.708-1.075,1.625-2.094,2.283-4.361,2.819-.279.066-.547.125-.804.181-1.22.267-2.273.498-2.953,1.177-3.51,3.51-.566,6.538,2.031,9.209l1.213,1.261c1.887,1.985,3.517,3.699,5.548,3.724.016,0,.031,0,.046,0,1.133,0,2.215-.531,3.306-1.622.707-.707,1.082-1.948,1.498-3.499.573-2.132,1.158-2.902,3.13-4.12,1.079-.666,1.485-1.094,2.295-1.947.33-.347.741-.78,1.313-1.352l-.017-.017s.003-.002.004-.003Zm-13.316,6.906l-3-3,1.414-1.414,3,3-1.414,1.414Zm2.76-2.76l-3-3,1.414-1.414,3,3-1.414,1.414Z"/>
</svg>
