<?xml version="1.0" encoding="UTF-8"?>
<svg xmlns="http://www.w3.org/2000/svg" id="Layer_1" data-name="Layer 1" viewBox="0 0 24 24">
  <path d="m15.004,5.996s-.158-2.861,1.51-4.529S20.992.008,20.992.008c0,0,.209,2.81-1.459,4.478-1.668,1.668-4.529,1.51-4.529,1.51Zm1.996,9.004c0-2.978,1.379-5.616,3.491-7.255-.344-.265-.702-.51-1.082-.719-1.65.87-3.424.975-4.178.975-.103,0-1.321,0-2.231,0v-2c0-2.862-.943-4.466-1.568-5.527-.088-.149-.17-.288-.242-.42l-1.756.958c.082.149.174.308.274.477.575.978,1.292,2.195,1.292,4.513v.409c-.809-.264-1.652-.409-2.5-.409-1.874,0-3.602.653-5.009,1.745,2.121,1.635,3.509,4.27,3.509,7.255s-1.383,5.624-3.5,7.262c1.405,1.088,3.13,1.738,5,1.738,1.204,0,2.403-.275,3.5-.8,1.097.525,2.296.8,3.5.8,1.87,0,3.595-.65,5-1.738-2.117-1.639-3.5-4.279-3.5-7.262Z"/>
</svg>
