<?xml version="1.0" encoding="UTF-8"?>
<svg xmlns="http://www.w3.org/2000/svg" id="Layer_1" data-name="Layer 1" viewBox="0 0 24 24">
  <path d="m13,16.462l9,3.538v4H5.538l-1.821-1.628c-.917-.858-.96-2.307-.098-3.23.861-.922,2.313-.97,3.235-.109.034.032,1.069.898,2.145,1.784v-8.817c0-1.215,1.083-2.176,2.336-1.973.983.16,1.664,1.083,1.664,2.08v4.355ZM21,0H3C1.346,0,0,1.346,0,3v9h7c0-1.904,1.33-3.497,3.112-3.901l.548-1.714-1.66-.924v-.462h2.175l.588-2.251h.486l.588,2.251h2.163v.458l-1.648.955.663,2.015-.572.405c.947.731,1.557,1.878,1.557,3.167h9V3c0-1.654-1.346-3-3-3Zm-13,5.458l-1.648.955.663,2.015-.378.262-1.63-1.261-1.638,1.266-.36-.272.652-2.039-1.66-.924v-.462h2.175l.588-2.251h.486l.588,2.251h2.163v.458Zm14,0l-1.648.955.663,2.015-.378.262-1.63-1.261-1.638,1.266-.36-.272.652-2.039-1.66-.924v-.462h2.175l.588-2.251h.486l.588,2.251h2.163v.458Z"/>
</svg>
