<?xml version="1.0" encoding="UTF-8"?>
<svg xmlns="http://www.w3.org/2000/svg" id="Layer_1" data-name="Layer 1" viewBox="0 0 24 24">
  <path d="m19.317,14.658l-9.732-3.538c-.7-.259-1.49-.083-2.018.445-.533.532-.704,1.304-.446,2.012l3.541,9.737,3.621-3.621,4.242,4.241,1.414-1.414-4.242-4.241,3.621-3.621ZM21,.017H3C1.343.017,0,1.36,0,3.017v9h5.108c.164-.69.515-1.336,1.046-1.866.634-.634,1.457-1.011,2.317-1.112V2h3.5v1.6h-1.9v1.65h1.9v1.6h-1.9v1.551h1.9v1.459l5.935,2.158h6.095V3.017C24,1.36,22.657.017,21,.017ZM7.442,7.98c-.191,1.175-1.215,2.028-2.436,2.028-.965,0-1.873-.413-2.506-1.136l1.009-1.006c.373.406.925.646,1.497.646.604,0,1.031-.404,1.096-.795.089-.55-.602-.873-.817-.959-.915-.371-1.751-.78-1.753-.78-.692-.484-1.027-1.231-.921-2.049.111-.845.674-1.534,1.471-1.796,1.324-.437,2.462.317,2.863.686l-.86,1.113c-.219-.166-.881-.602-1.611-.367-.412.136-.517.447-.515.577.005.442.335.57.433.615.282.128.806.368,1.366.595,1.461.591,1.828,1.745,1.685,2.627Zm9.529,2.02h-3.5V2h1.6v6.4h1.9v1.6Zm4.5,0h-3.5V2h1.6v6.4h1.9v1.6Z"/>
</svg>
