<?xml version="1.0" encoding="UTF-8"?>
<svg xmlns="http://www.w3.org/2000/svg" id="Layer_1" data-name="Layer 1" viewBox="0 0 24 24" width="512" height="512"><path d="M24,12C24,5.209,18.359-.264,11.507,.01,5.413,.254,.351,5.238,.018,11.327c-.301,5.512,3.125,10.256,7.982,11.975v-4.303c0-1.858,1.28-3.411,3-3.858v-4.142c0-.552,.448-1,1-1h0c.552,0,1,.448,1,1v4h1.369c1.945,0,3.824,.709,5.284,1.994l2.159,1.9c1.374-1.952,2.187-4.326,2.187-6.893Zm-15,1.359c-1.556-.646-2.6-1.554-2.666-1.613l1.33-1.493c.01,.008,.527,.456,1.336,.897v2.209Zm-.5-5.359c-.828,0-1.5-.672-1.5-1.5s.672-1.5,1.5-1.5,1.5,.672,1.5,1.5-.672,1.5-1.5,1.5Zm5.5-1.5c0-.828,.672-1.5,1.5-1.5s1.5,.672,1.5,1.5-.672,1.5-1.5,1.5-1.5-.672-1.5-1.5Zm1,4.65c.809-.44,1.326-.888,1.336-.897l1.33,1.493c-.066,.059-1.11,.968-2.666,1.613v-2.209Zm1.144,12.85h-6.144v-5c0-1.105,.895-2,2-2h3c1.105,0,2,.895,2,2v1c0,.552-.448,1-1,1h0c-.552,0-1-.448-1-1v-1h-1v3h2.142c.605,0,1.178-.274,1.558-.744l.894-1.107c.347-.429,.976-.496,1.406-.149h0c.43,.347,.497,.977,.15,1.406l-.895,1.108c-.759,.94-1.903,1.486-3.111,1.486Z"/></svg>
