<?xml version="1.0" encoding="UTF-8"?>
<svg xmlns="http://www.w3.org/2000/svg" id="Layer_1" data-name="Layer 1" viewBox="0 0 24 24">
  <path d="m18.595,17.181c1.502-1.817,2.405-4.145,2.405-6.681C21,4.71,16.29,0,10.5,0S0,4.71,0,10.5s4.71,10.5,10.5,10.5c2.536,0,4.864-.904,6.681-2.405l5.375,5.375,1.414-1.414-5.375-5.375Zm-2.494-3.371c-.309,2.389-2.438,4.19-5.01,4.19-4.461,0-8.091-3.629-8.091-8.091v-.591c0-3.484,2.834-6.318,6.318-6.318,2.144,0,4.067,1.182,5.234,3.188,2,.437,3.448,2.083,3.448,4.017,0,1.408-.745,2.792-1.899,3.605Zm-2.298-5.72l-.55-.056-.245-.496c-.784-1.589-2.163-2.538-3.689-2.538-2.381,0-4.318,1.937-4.318,4.318v.591c0,3.358,2.732,6.091,6.091,6.091,1.654,0,3.052-1.243,3.052-2.714v-.612l.542-.339c.762-.389,1.315-1.285,1.315-2.13,0-1.183-1.117-2.004-2.197-2.115Zm-4.803,3.91c-1.105,0-2-.895-2-2s.895-2,2-2,2,.895,2,2-.895,2-2,2Z"/>
</svg>
