<?xml version="1.0" encoding="UTF-8"?>
<svg xmlns="http://www.w3.org/2000/svg" id="Layer_1" data-name="Layer 1" viewBox="0 0 24 24">
  <path d="m24,7.625c0,2.485-3.101,3.375-5.556,3.375s-4.444-2.015-4.444-4.5c0-.502.081-.984.231-1.435-1.893.884-4.264,1.935-8.231,1.935v-2c3.648,0,5.728-.973,7.562-1.83.116-.054.231-.108.346-.161-2.083-.498-4.945-1.009-7.908-1.009V0c5.911,0,11.258,1.852,11.804,2.047.209-.031.423-.047.641-.047,3.333,0,5.556,3.375,5.556,5.625Zm-12,13.375c0-2.729-1.271-4-4-4v-2c3.466,0,5.588,1.808,5.946,5h2.657l2.88-7.04c-.337.026-.683.04-1.039.04-2.675,0-4.975-1.653-5.948-4h-4.996c-1.369,0-2.64.426-3.689,1.151-.319-.68-1.01-1.151-1.811-1.151-1.105,0-2,.895-2,2,0,.941.65,1.729,1.525,1.943-.337.785-.525,1.65-.525,2.557,0,3.584,2.916,6.5,6.5,6.5,1.103,0,2,.897,2,2h10.5v-2h-8v-1Z"/>
</svg>
