<?xml version="1.0" encoding="UTF-8"?>
<svg xmlns="http://www.w3.org/2000/svg" id="Layer_1" data-name="Layer 1" viewBox="0 0 24 24" width="512" height="512"><path d="M13,12c0,.551-.448,1-1,1s-1-.449-1-1,.448-1,1-1,1,.449,1,1Zm-1,6c-.552,0-1,.449-1,1s.448,1,1,1,1-.449,1-1-.448-1-1-1ZM20,3V24H4V3c0-1.654,1.346-3,3-3h10c1.654,0,3,1.346,3,3Zm-5,16c0-1.654-1.346-3-3-3s-3,1.346-3,3,1.346,3,3,3,3-1.346,3-3Zm0-7c0-1.654-1.346-3-3-3s-3,1.346-3,3,1.346,3,3,3,3-1.346,3-3Zm0-7c0-1.654-1.346-3-3-3s-3,1.346-3,3,1.346,3,3,3,3-1.346,3-3Z"/></svg>
