<?xml version="1.0" encoding="UTF-8"?>
<svg xmlns="http://www.w3.org/2000/svg" id="Layer_1" data-name="Layer 1" viewBox="0 0 24 24" width="512" height="512"><path d="m8.009,23h-.006c-.803-.002-1.557-.316-2.123-.887L.311,16.502l1.42-1.408,5.569,5.611c.188.189.439.295.707.295h.002c.267,0,.519-.104.708-.293l13.577-13.577,1.414,1.414-13.577,13.577c-.567.567-1.32.879-2.122.879Zm2.14-11.897L18.349,2.902l-1.414-1.414-8.2,8.2c-.19.191-.404.307-.713.293-.269-.001-.521-.108-.709-.301L3.235,5.516l-1.429,1.399,4.077,4.165c.565.577,1.32.897,2.127.902h.017c.801,0,1.554-.312,2.121-.879Z"/></svg>
