<?xml version="1.0" encoding="UTF-8"?>
<svg xmlns="http://www.w3.org/2000/svg" id="Layer_1" data-name="Layer 1" viewBox="0 0 24 24">
  <path d="m8.566,19.435l1.997,4.565h-1.758l-1.593-3.533h-.612v3.533h-1.6v-8h1.6v2.867h.354l1.685-2.867h1.861l-1.934,3.435Zm12.434.486v-5.921h-9c1.105,0,2-.895,2-2,0-.178-.031-.347-.074-.512l4.781-4.781-1.414-1.414-4.781,4.781c-.164-.044-.334-.074-.512-.074-1.105,0-2,.895-2,2s.895,2,2,2H3v5.921c-1.909-2.17-3-4.979-3-7.921C0,5.383,5.383,0,12,0s12,5.383,12,12c0,2.942-1.091,5.751-3,7.921ZM15.871,3.887c-1.174-.563-2.484-.887-3.871-.887C7.375,3,3.558,6.507,3.059,11h2.021c.488-3.386,3.401-6,6.92-6,.823,0,1.611.15,2.345.413l1.526-1.526Zm2.717,5.768c.154.43.254.882.323,1.345h2.031c-.116-1.017-.404-1.983-.829-2.871l-1.526,1.526Zm-1.587,14.345h1.6v-8h-1.6v8Zm-1.003-5.5c0,1.381-1.119,2.5-2.5,2.5h-.5v3h-1.6v-8h2.1c1.381,0,2.5,1.119,2.5,2.5Zm-1.6,0c0-.496-.404-.9-.9-.9h-.5v1.8h.5c.496,0,.9-.404.9-.9Z"/>
</svg>
