<?xml version="1.0" encoding="UTF-8"?>
<svg xmlns="http://www.w3.org/2000/svg" id="Layer_1" data-name="Layer 1" viewBox="0 0 24 24">
  <path d="m1.5,4c0-1.105.895-2,2-2s2,.895,2,2-.895,2-2,2-2-.895-2-2Zm5.5,5c0-1.103-.897-2-2-2h-3c-1.103,0-2,.897-2,2v1h7v-1Zm13.5-3c1.105,0,2-.895,2-2s-.895-2-2-2-2,.895-2,2,.895,2,2,2Zm3.5,3c0-1.103-.897-2-2-2h-3c-1.103,0-2,.897-2,2v1h7v-1Zm-12-5c1.105,0,2-.895,2-2s-.895-2-2-2-2,.895-2,2,.895,2,2,2Zm3.5,3c0-1.103-.897-2-2-2h-3c-1.103,0-2,.897-2,2v1h7v-1Zm-1.5,4.107c0-.996-.681-1.92-1.664-2.08-1.253-.204-2.336.758-2.336,1.973v8.817c-1.076-.886-2.111-1.752-2.145-1.784-.922-.861-2.373-.813-3.235.109-.863.923-.819,2.372.098,3.23l2.886,2.693,15.396-.065v-4.5l-9-3.538v-4.855Z"/>
</svg>
