<?xml version="1.0" encoding="UTF-8"?>
<svg xmlns="http://www.w3.org/2000/svg" id="Layer_1" data-name="Layer 1" viewBox="0 0 24 24">
  <path d="m15.509,8.001s-1.143,0-1.21.002c0,0-.001,0-.002,0-4.244.11-8.598,3.618-10.297,5.355v-2.781c.656-.592,1.433-1.202,2.298-1.778.033-.228.068-.455.106-.682l.466-2.765c2.374-.615,4.129-2.788,4.129-5.352-4.173,0-5.5,2.776-5.5,2.776,0,0-1.378-2.776-5.5-2.776,0,2.278,1.385,4.247,3.358,5.089l-.503.754C.987,8.644,0,11.904,0,15.273v2.727c0,3.309,2.691,6,6,6h13c2.757,0,5-2.243,5-5v-2.499c0-4.683-3.81-8.496-8.491-8.5Zm-.009,10.999c-.828,0-1.5-.672-1.5-1.5s.672-1.5,1.5-1.5,1.5.672,1.5,1.5-.672,1.5-1.5,1.5Z"/>
</svg>
