<?xml version="1.0" encoding="UTF-8"?>
<svg xmlns="http://www.w3.org/2000/svg" id="Layer_1" data-name="Layer 1" viewBox="0 0 24 24">
  <path d="m10.427,3.971l-1.437-1.391,2.499-2.58h1.51v7h-2v-3.62l-.573.591Zm-4.427,5.029h-2.405c1.145-.65,2.405-1.485,2.405-3,0-1.654-1.346-3-3-3S0,4.346,0,6h2c0-.552.449-1,1-1s1,.448,1,1c0,.484-.944,1.012-1.702,1.435-1.077.601-2.298,1.282-2.298,2.565v1h6v-2Zm18,2.5c0-.72-.306-1.369-.794-1.825.187-.35.294-.75.294-1.175,0-1.379-1.122-2.5-2.5-2.5h-3v2h3c.276,0,.5.225.5.5s-.224.5-.5.5h-1v2h1.5c.276,0,.5.225.5.5s-.224.5-.5.5h-3.5v2h3.5c1.378,0,2.5-1.121,2.5-2.5Zm-2,4.5h-2.5c-1.105,0-2,.895-2,2v6h6.5v-6c0-1.105-.895-2-2-2Zm-17.5-3h-2.5c-1.105,0-2,.895-2,2v9h6.5v-9c0-1.105-.895-2-2-2Zm9-4h-3c-1.105,0-2,.895-2,2v13h7v-13c0-1.105-.895-2-2-2Z"/>
</svg>
