<?xml version="1.0" encoding="UTF-8"?>
<svg xmlns="http://www.w3.org/2000/svg" id="Layer_1" data-name="Layer 1" viewBox="0 0 24 24" width="512" height="512"><path d="M23.94,13.22C15.56,7.92,6.6,5.81,2.24,5.05c.58-.81,1.25-1.55,2.01-2.2,4.55,.92,12.25,3.03,19.64,7.6,.07,.51,.11,1.02,.11,1.54,0,.41-.02,.82-.06,1.22ZM0,12c0,.3,.02,.59,.04,.89,1.43-1.21,3.92-2.98,7.61-4.53-2.75-.76-5.03-1.21-6.51-1.45-.73,1.55-1.15,3.27-1.15,5.09Zm23.52,3.33c-1.45,5-6.06,8.67-11.52,8.67S1.86,20.27,.45,15.22c.83-.81,3.02-2.72,6.77-4.48-.13,.22-.22,.48-.22,.76,0,.83,.67,1.5,1.5,1.5s1.5-.67,1.5-1.5c0-.71-.5-1.31-1.17-1.46,.62-.25,1.27-.5,1.96-.73,1.13,.38,2.31,.8,3.52,1.28-.19,.25-.31,.56-.31,.91,0,.83,.67,1.5,1.5,1.5,.75,0,1.36-.55,1.48-1.26,2.18,1,4.39,2.18,6.54,3.59Zm-5.86,1.93c-.1-.09-2.56-2.25-5.67-2.25s-5.56,2.16-5.67,2.25l1.33,1.49s2-1.75,4.34-1.75,4.32,1.73,4.34,1.75l1.33-1.49Zm5.53-9.53C21.47,3.21,17.11,0,12,0c-1.96,0-3.8,.48-5.43,1.31,4.36,1.02,10.51,2.94,16.63,6.41Z"/></svg>
