<?xml version="1.0" encoding="UTF-8"?>
<svg xmlns="http://www.w3.org/2000/svg" id="Layer_1" data-name="Layer 1" viewBox="0 0 24 24">
  <path d="m19.727,7.982l-3.71-3.71,3.504-3.504c1.024-1.024,2.685-1.024,3.71,0,1.024,1.024,1.024,2.685,0,3.71l-3.504,3.504Zm-1.414,1.414l-3.71-3.71-3.751,3.751L1.457.043.043,1.457l22.5,22.5,1.414-1.414-9.395-9.395,3.751-3.751ZM0,20.29v3.71h3.71l8.015-8.015-3.71-3.71L0,20.29Z"/>
  <path d="m19.727,7.982l-3.71-3.71,3.504-3.504c1.024-1.024,2.685-1.024,3.71,0,1.024,1.024,1.024,2.685,0,3.71l-3.504,3.504Zm-1.414,1.414l-3.71-3.71-3.751,3.751L1.457.043.043,1.457l22.5,22.5,1.414-1.414-9.395-9.395,3.751-3.751ZM0,20.29v3.71h3.71l8.015-8.015-3.71-3.71L0,20.29Z"/>
</svg>
