<?xml version="1.0" encoding="UTF-8"?>
<svg xmlns="http://www.w3.org/2000/svg" id="Layer_1" data-name="Layer 1" viewBox="0 0 24 24">
  <path d="m21.113,14.484c.547-.684.887-1.54.887-2.484,0-1.617-.964-3.002-2.344-3.632.213-.412.344-.872.344-1.368,0-1.657-1.343-3-3-3h-1.145c-.487-1.868-2.169-4-3.855-4,0,2-.75,3.25-1.5,4h-3.5c-1.657,0-3,1.343-3,3,0,.496.132.956.344,1.368-1.38.631-2.344,2.015-2.344,3.632,0,.944.34,1.799.887,2.484-1.701.798-2.887,2.513-2.887,4.516,0,2.761,2.239,5,5,5h14c2.761,0,5-2.239,5-5,0-2.003-1.186-3.719-2.887-4.516Zm-4.666.922l-4.794,6.594h-1.199l.972-4h-3.199c-.619,0-1.062-.597-.883-1.19l2.352-6.81h4.303l-1.536,4h3.23c.722,0,1.153.804.754,1.406Z"/>
</svg>
