<?xml version="1.0" encoding="UTF-8"?>
<svg xmlns="http://www.w3.org/2000/svg" id="Layer_1" data-name="Layer 1" viewBox="0 0 24 24" width="512" height="512"><path d="m9.297,7.883c1.689-1.324,2.216-3.738,1.126-5.665-.583-1.029-1.526-1.764-2.657-2.069C6.647-.153,5.476.004,4.471.591,1.175,2.52,0,5.683,0,8,0,10.128.141,11.457.905,12.81c.791,1.398,2.205,2.182,3.709,2.182.741,0,1.503-.19,2.223-.591,1.249-.731,2.003-2,2.143-3.362.007.068.02.135.02.205v12.757h2v-12.757c0-1.068-.416-2.073-1.172-2.829l-.531-.531ZM19.529.591c-1.004-.587-2.176-.744-3.295-.443-1.131.305-2.075,1.04-2.657,2.069-1.09,1.928-.563,4.341,1.126,5.665l-.531.531c-.756.755-1.172,1.76-1.172,2.829v12.757h2v-12.757c0-.069.013-.136.02-.204.139,1.362.891,2.629,2.136,3.358,0,0,.844.609,2.214.609,1.494,0,2.927-.786,3.725-2.196.765-1.353.905-2.681.905-4.81,0-2.317-1.174-5.48-4.471-7.409Z"/></svg>
