<?xml version="1.0" encoding="UTF-8"?>
<svg xmlns="http://www.w3.org/2000/svg" id="Layer_1" data-name="Layer 1" viewBox="0 0 24 24">
  <path d="m0,11.5c.023-1.491.388-3,1.027-4.249l2.373,3.674c.42-.197,1.063-.474,1.886-.758l-3.037-4.724c.494-.57,1.061-1.075,1.688-1.507l3.583,5.589c.659-.152,1.372-.283,2.126-.377l-3.943-6.158c.213-.084.429-.163.651-.231.469-.146,1.017-.272,1.601-.381l4.242,6.631c.868.009,1.698.08,2.482.19l-4.546-7.112c.629-.054,1.262-.086,1.869-.086.237,0,.478.005.721.013l5.008,7.843c1.372.404,2.568.942,3.122,1.206L15.224,2.241c.897.13,1.739.305,2.423.517,3.754,1.163,6.292,4.722,6.353,8.742,0,.847-.471,1.673-1.259,2.124-.797.458-1.776.5-2.622.112-1.832-.839-4.927-1.736-8.119-1.736s-6.287.897-8.12,1.737c-.828.379-1.839.334-2.622-.113-.787-.45-1.258-1.276-1.258-2.124Zm21.323,4.499c-.694,0-1.39-.147-2.037-.445-1.64-.751-4.416-1.554-7.286-1.554s-5.646.803-7.287,1.555c-1.4.643-3.117.567-4.448-.195-.093-.053-.177-.116-.265-.174v1.315c0,3.779,2.333,5.5,4.5,5.5.98,0,1.864-.407,2.5-1.058.636.651,1.52,1.058,2.5,1.058s1.864-.407,2.5-1.058c.636.651,1.52,1.058,2.5,1.058s1.864-.407,2.5-1.058c.636.651,1.52,1.058,2.5,1.058,2.167,0,4.5-1.721,4.5-5.5v-1.315c-.088.059-.172.121-.266.175-.742.425-1.575.639-2.411.639Z"/>
</svg>
