<?xml version="1.0" encoding="UTF-8"?>
<svg xmlns="http://www.w3.org/2000/svg" id="Layer_1" data-name="Layer 1" viewBox="0 0 24 24">
  <path d="m5.5,11c-1.93,0-3.5-1.57-3.5-3.5s1.57-3.5,3.5-3.5,3.5,1.57,3.5,3.5-1.57,3.5-3.5,3.5Zm12.5,1c-3.314,0-6,2.686-6,6s2.686,6,6,6,6-2.686,6-6-2.686-6-6-6Zm.619,8.414c-.378.378-.88.586-1.414.586h-.002c-.534,0-1.036-.209-1.413-.587l-2.012-2.012,1.414-1.414,2.013,2.013,3.615-3.615,1.414,1.414-3.615,3.615Zm-3.119-13.414c-1.93,0-3.5-1.57-3.5-3.5s1.57-3.5,3.5-3.5,3.5,1.57,3.5,3.5-1.57,3.5-3.5,3.5Zm-3.224,5.412c1.453-1.488,3.48-2.412,5.724-2.412,1.049,0,2.051.202,2.969.569-.21-1.451-1.461-2.569-2.969-2.569h-5c-1.463,0-2.684,1.053-2.947,2.441.925.418,1.7,1.11,2.223,1.971Zm-4.276-.412H3c-1.654,0-3,1.346-3,3v3h10c0-1.341.33-2.604.913-3.714-.321-1.31-1.505-2.286-2.913-2.286Z"/>
</svg>
