<?xml version="1.0" encoding="UTF-8"?>
<svg xmlns="http://www.w3.org/2000/svg" id="Layer_1" data-name="Layer 1" viewBox="0 0 24 24" width="512" height="512"><path d="M15.5,18.5l1.414,1.414-3.5,3.5c-.39,.39-.902,.585-1.414,.585s-1.024-.195-1.414-.585l-3.5-3.5,1.414-1.414,2.5,2.5v-6h2v6l2.5-2.5ZM2,11c-.552,0-1,.448-1,1s.448,1,1,1,1-.448,1-1-.448-1-1-1Zm4,0c-.552,0-1,.448-1,1s.448,1,1,1,1-.448,1-1-.448-1-1-1Zm5,1c0-.552-.448-1-1-1s-1,.448-1,1,.448,1,1,1,1-.448,1-1Zm4,0c0-.552-.448-1-1-1s-1,.448-1,1,.448,1,1,1,1-.448,1-1ZM10.586,.586l-3.5,3.5,1.414,1.414,2.5-2.5v6h2V3l2.5,2.5,1.414-1.414L13.414,.586c-.779-.78-2.049-.78-2.828,0Zm11.414,10.414c-.552,0-1,.448-1,1s.448,1,1,1,1-.448,1-1-.448-1-1-1Zm-4,0c-.552,0-1,.448-1,1s.448,1,1,1,1-.448,1-1-.448-1-1-1Z"/></svg>
