<?xml version="1.0" encoding="UTF-8"?>
<svg xmlns="http://www.w3.org/2000/svg" id="Layer_1" data-name="Layer 1" viewBox="0 0 24 24">
  <path d="m15.073,17.49l1.927,4.817v1.692H0v-1.692l1.927-4.817c.325-.812.567-1.645.745-2.49h11.658c.178.846.42,1.678.744,2.49Zm-1.073-5.571v-4.919H3v4.919c0,.363-.025.722-.051,1.081h11.102c-.026-.359-.051-.719-.051-1.081Zm2-4.919v4.919c0,.315.023.628.046.94l.01.141h4.995c-.026-.359-.051-.719-.051-1.081v-4.919h-5Zm5.329,8h-4.939c.148.612.323,1.204.54,1.748l2.069,5.175v2.077h5v-1.692l-1.927-4.817c-.324-.812-.566-1.645-.744-2.49Zm-5.329-11.5c0-.827.673-1.5,1.5-1.5.403,0,.71.168.896.309l.499.375.558-.28c.223-.112.935-.403,1.547-.403.552,0,1,.448,1,1s-.448,1-1,1v2c1.654,0,3-1.346,3-3s-1.346-3-3-3c-.739,0-1.448.21-1.915.387-.49-.254-1.029-.387-1.585-.387-1.93,0-3.5,1.57-3.5,3.5v1.5h2v-1.5Zm-9,0c0-.827.673-1.5,1.5-1.5.404,0,.71.168.896.309l.604.458.604-.458c.186-.141.492-.309.896-.309.271,0,.493.077.67.17.166-.665.451-1.282.835-1.827-.001,0-.003,0-.004.002-.936-.453-2.064-.453-3,0-.468-.227-.976-.344-1.5-.344-1.93,0-3.5,1.57-3.5,3.5v1.5h2v-1.5Z"/>
</svg>
