<?xml version="1.0" encoding="UTF-8"?>
<svg xmlns="http://www.w3.org/2000/svg" id="Layer_1" data-name="Layer 1" viewBox="0 0 24 24">
  <path d="m17.238,6c-.921,0-1.745.331-2.427.966-.583-.399-1.179-.657-1.779-.802.315-4.11,2.94-4.163,2.968-4.163.551,0,1,.448,1.001,1v2c1.102,0,1.999-.897,1.999-2,0-1.654-1.346-3-3-3-1.121,0-2.884.623-3.99,2.562-.592-1.07-1.442-1.896-2.563-2.457l-.895,1.789c1.463.731,2.254,2.135,2.414,4.269-.599.145-1.194.403-1.777.802-.682-.635-1.506-.966-2.427-.966C3.635,6,0,9.932,0,15s3.635,9,6.762,9c.921,0,1.745-.331,2.427-.966,1.835,1.256,3.787,1.256,5.622,0,.682.635,1.506.966,2.427.966,3.127,0,6.762-3.932,6.762-9s-3.635-9-6.762-9Z"/>
</svg>
