<?xml version="1.0" encoding="UTF-8"?>
<svg xmlns="http://www.w3.org/2000/svg" id="Layer_1" data-name="Layer 1" viewBox="0 0 24 24">
  <path d="m21,8.986c-.014,0-.026.004-.04.004l-1.771-2.951c.499-.536.811-1.249.811-2.039,0-1.657-1.343-3-3-3-1.304,0-2.403.837-2.816,2h-4.367c-.413-1.163-1.512-2-2.816-2-1.657,0-3,1.343-3,3,0,.79.312,1.503.811,2.039l-1.771,2.951c-.014,0-.026-.004-.04-.004-1.657,0-3,1.343-3,3s1.343,3,3,3c.008,0,.016-.002.024-.002l1.787,2.978c-.499.536-.811,1.249-.811,2.039,0,1.657,1.343,3,3,3,1.304,0,2.403-.837,2.816-2h4.367c.413,1.163,1.512,2,2.816,2,1.657,0,3-1.343,3-3,0-.79-.312-1.503-.811-2.039l1.787-2.978c.008,0,.016.002.024.002,1.657,0,3-1.343,3-3s-1.343-3-3-3Zm-3.591,8.055c-.135-.019-.269-.041-.409-.041-1.304,0-2.403.837-2.816,2h-4.367c-.413-1.163-1.512-2-2.816-2-.14,0-.274.023-.409.041l-1.664-2.773c.651-.55,1.073-1.363,1.073-2.282,0-.914-.417-1.722-1.062-2.273l1.653-2.755c.135.019.269.041.409.041,1.304,0,2.403-.837,2.816-2h4.367c.413,1.163,1.512,2,2.816,2,.14,0,.274-.023.409-.041l1.653,2.755c-.645.55-1.062,1.359-1.062,2.273,0,.919.422,1.731,1.073,2.282l-1.664,2.773Zm-2.009-8.154l-1.002.577c-.391-.37-.87-.642-1.398-.801v-1.163h-2v1.163c-.529.159-1.007.431-1.398.801l-1.002-.577-.998,1.733,1,.576c-.061.259-.102.526-.102.803s.041.544.102.803l-1,.577.998,1.732,1.001-.577c.391.371.87.642,1.399.802v1.163h2v-1.163c.529-.159,1.008-.431,1.399-.802l1.001.577.998-1.732-1-.577c.061-.259.102-.526.102-.803s-.041-.544-.102-.803l1-.576-.998-1.733Zm-3.4,4.613c-.827,0-1.5-.673-1.5-1.5s.673-1.5,1.5-1.5,1.5.673,1.5,1.5-.673,1.5-1.5,1.5Z"/>
</svg>
