<?xml version="1.0" encoding="UTF-8"?>
<svg xmlns="http://www.w3.org/2000/svg" id="Layer_1" data-name="Layer 1" viewBox="0 0 24 24">
  <path d="m14.135,3.826c.419-1.821,1.866-3.27,3.688-3.69,1.525-.35,3.087-.005,4.288.949,1.201.955,1.89,2.382,1.89,3.915,0,1.586-.76,3.061-2.034,4h-5.927c-1.611-1.185-2.361-3.185-1.904-5.174Zm2.865,7.174v2h4.001l-.002-2h-3.999Zm-2,4v-3.354c0-.548-.225-1.073-.627-1.446-1.839-1.708-2.756-4.349-2.188-6.821.293-1.272.943-2.414,1.836-3.315h0c-1.522-.14-3.02.013-4.457.486-2.145.708-4,2.046-5.342,3.839-1.204,1.488-2.316,4.04-3.495,6.741-.214.491-.728,1.658-.728,1.658v2.212h2.33l.449,3.394c.197,1.492,1.469,2.606,2.974,2.606h2.247v3h13v-4.709c0-.482.189-.937.496-1.31.747-.907,1.325-1.915,1.743-2.981h-8.238Z"/>
</svg>
