<?xml version="1.0" encoding="UTF-8"?>
<svg xmlns="http://www.w3.org/2000/svg" id="Layer_1" data-name="Layer 1" viewBox="0 0 24 24" width="512" height="512"><path d="M21,19h3v2h-3v3h-2v-3h-3v-2h3v-3h2v3Zm-4.57-3.82c1.73-1.28,3.97-1.5,5.89-.69l-1.39-7.2c-.34-1.91-2-3.3-3.94-3.3h-.17c.11-.31,.18-.65,.18-1,0-1.65-1.35-3-3-3h-4c-1.65,0-3,1.35-3,3,0,.35,.07,.69,.18,1h-.17c-1.94,0-3.6,1.39-3.94,3.3L.81,19H14.1c.25-1.47,1.04-2.86,2.33-3.82ZM9,3c0-.55,.45-1,1-1h4c.55,0,1,.45,1,1s-.45,1-1,1h-4c-.55,0-1-.45-1-1Zm3,21c1.08,0,2.04-.44,2.75-1.13-.33-.59-.54-1.23-.65-1.87h-5.96c.45,1.72,2,3,3.86,3Z"/></svg>
