<?xml version="1.0" encoding="UTF-8"?>
<svg xmlns="http://www.w3.org/2000/svg" id="Layer_1" data-name="Layer 1" viewBox="0 0 24 24" width="512" height="512"><path d="M23.95,17.32l-1.9-.63c-.36,1.07-.87,1.88-1.52,2.43l-3.08-3.08c.35-.93,.55-1.83,.55-2.58,0-1.84-1.63-3.45-3.49-3.45-.81,0-1.61,.32-2.24,.85l-1.48-1.48c.13-.68,.22-1.31,.22-1.87,0-2.88-2.66-5.5-5.57-5.5-.58,0-1.16,.1-1.71,.3L1.46,.04,.04,1.46,22.54,23.96l1.41-1.41-2.01-2.01c.87-.78,1.55-1.86,2-3.22Zm-9.44-5.32c.75,0,1.49,.72,1.49,1.45,0,.28-.05,.62-.14,.99l-2.16-2.16c.25-.17,.53-.28,.81-.28ZM5.43,4c1.84,0,3.57,1.7,3.57,3.5,0,.02,0,.06,0,.08l-3.58-3.58s0,0,.01,0ZM22.02,14.19c-.35-1.78-1.07-3.31-2.13-4.54l1.51-1.31c1.29,1.5,2.16,3.33,2.58,5.46l-1.96,.39Zm-10.61,1.46l6.33,6.33c-1.3-.07-2.45-.67-3.4-1.54-1.1,.89-2.53,1.56-4.34,1.56-1.65,0-3.26-.97-4.67-2.45-1.56,1.47-3.36,2.45-5.33,2.45v-2c1.39,0,2.77-.8,4.02-2.01C1.62,14.72,0,10.22,0,7.5c0-.89,.26-1.77,.69-2.57l1.5,1.5c-.12,.35-.19,.7-.19,1.07,0,2.38,1.46,6.16,3.39,8.94,.99-1.31,1.85-2.83,2.47-4.33l1.52,1.52c-.71,1.55-1.61,3.1-2.7,4.45,1.08,1.17,2.24,1.93,3.32,1.93,1.23,0,2.23-.45,3.03-1.07-.73-1.04-1.28-2.21-1.62-3.28Z"/></svg>
