<?xml version="1.0" encoding="UTF-8"?>
<svg xmlns="http://www.w3.org/2000/svg" id="Layer_1" data-name="Layer 1" viewBox="0 0 24 24">
  <path d="m20.802,13.422l-1.876.686c-.493-1.329-1.135-2.584-1.928-3.733l1.522-1.299c.941,1.333,1.705,2.792,2.281,4.346Zm-8.164-7.41c1.154.798,2.198,1.74,3.121,2.792l1.52-1.296c-1.083-1.236-2.311-2.343-3.677-3.266l-.964,1.771Zm6.874,10.013c.308,1.278.489,2.604.489,3.976h2c0-1.612-.224-3.169-.603-4.665l-1.885.69Zm4.489,5.976H2.531c-.269,0-.404-.179-.449-.256-.046-.077-.138-.28-.009-.516L13.073,1.031l-1.757-.957L.316,20.271c-.43.789-.413,1.721.046,2.494.459.772,1.27,1.234,2.169,1.234h21.469v-2Z"/>
</svg>
