<?xml version="1.0" encoding="UTF-8"?>
<svg xmlns="http://www.w3.org/2000/svg" id="Layer_1" data-name="Layer 1" viewBox="0 0 24 24" width="512" height="512"><path d="m24,2V0H0v2h2v20H0v2h24v-2h-2V2h2Zm-6,6h-5v2h3v2h-3v2h2.399c1.096.017,1.995.643,2.396,1.633.418,1.031.187,2.199-.59,2.976l-1.392,1.392h-7.627l-1.392-1.392c-.776-.776-1.008-1.944-.59-2.976.4-.99,1.3-1.616,2.346-1.633h2.449v-2h-3v-2h3v-2h-5v-2h5v-2h2v2h5v2Zm-9.399,8h6.815c.324.005.468.242.525.383.092.228.101.561-.15.812l-.806.806h-5.971l-.806-.806c-.251-.251-.242-.584-.15-.812.058-.141.201-.378.542-.383Z"/></svg>
