<?xml version="1.0" encoding="UTF-8"?>
<svg xmlns="http://www.w3.org/2000/svg" id="Layer_1" data-name="Layer 1" viewBox="0 0 24 24">
  <path d="m14.88,20.034c-.656.656-1.518.984-2.38.984s-1.724-.328-2.38-.984l-3.959-3.959c-.096.293-.161.6-.161.925v7h13v-7c0-.325-.065-.632-.161-.925l-3.959,3.959Z"/>
  <polygon points="18 .586 18 6 23.414 6 18 .586"/>
  <path d="m2,0C.895,0,0,.895,0,2v12l2,2,2-2V2c0-1.105-.895-2-2-2Z"/>
  <path d="m16,8V0h-7c-1.657,0-3,1.343-3,3v10.026c.838-.635,1.87-1.026,3-1.026h7c2.757,0,5,2.243,5,5v5h3v-14h-8Z"/>
  <path d="m13.466,18.62l4.143-4.143c-.466-.298-1.016-.477-1.609-.477h-7c-.593,0-1.143.178-1.609.477l4.143,4.143c.533.533,1.398.533,1.932,0Z"/>
</svg>
