<?xml version="1.0" encoding="UTF-8"?>
<svg xmlns="http://www.w3.org/2000/svg" id="Layer_1" data-name="Layer 1" viewBox="0 0 24 24">
  <path d="m21.735,7.575c-.21-1.468-1.486-2.575-2.97-2.575h-3.617c.219-.456.351-.961.351-1.5,0-1.93-1.57-3.5-3.5-3.5s-3.5,1.57-3.5,3.5c0,.539.133,1.044.351,1.5h-3.617c-1.483,0-2.76,1.107-2.969,2.575L.01,23.358l-.01.642h24v-.5l-2.265-15.925ZM10.5,3.5c0-.827.673-1.5,1.5-1.5s1.5.673,1.5,1.5-.673,1.5-1.5,1.5-1.5-.673-1.5-1.5Zm.144,10.261l3.041.506c1.342.224,2.315,1.374,2.315,2.733,0,1.654-1.346,3-3,3v1h-2v-1c-1.654,0-3-1.346-3-3h2c0,.552.449,1,1,1h2c.552,0,1-.448,1-1,0-.379-.271-.698-.645-.761l-3.04-.506c-1.342-.224-2.315-1.374-2.315-2.733,0-1.654,1.346-3,3-3v-1h2v1c1.654,0,3,1.346,3,3h-2c0-.552-.448-1-1-1h-2c-.551,0-1,.448-1,1,0,.379.271.698.644.761Z"/>
</svg>
