<?xml version="1.0" encoding="UTF-8"?>
<svg xmlns="http://www.w3.org/2000/svg" id="Layer_1" data-name="Layer 1" viewBox="0 0 24 24" width="512" height="512"><polygon points="9.73 13.99 9.73 14 14.27 14 14.27 13.99 12 10.02 9.73 13.99"/><path d="M18.01,1H5.96L-.01,12l5.97,11h12.05l5.98-11L18.01,1Zm-2.01,16c-.74,0-1.39-.4-1.73-1h-4.54c-.35,.6-.99,1-1.73,1-1.1,0-2-.9-2-2s.89-1.99,1.99-2l2.28-3.99c-.17-.3-.27-.64-.27-1.01,0-1.1,.9-2,2-2s2,.9,2,2c0,.37-.1,.71-.27,1.01l2.28,3.99c1.1,0,1.99,.9,1.99,2s-.9,2-2,2Z"/></svg>
