<?xml version="1.0" encoding="UTF-8"?>
<svg xmlns="http://www.w3.org/2000/svg" id="Layer_1" data-name="Layer 1" viewBox="0 0 24 24">
  <path d="m24,3.023c0,.807-.314,1.566-.886,2.138l-3.407,3.407c-1.337,1.336-1.368,3.461-.071,4.837l-1.435,1.393L9.202,5.798l1.393-1.435c1.375,1.296,3.501,1.266,4.837-.071l3.408-3.407c1.141-1.144,3.133-1.143,4.275,0,.571.571.885,1.33.885,2.138ZM3.593,16l-1.681,1.681c-.589.589-.913,1.371-.913,2.203,0,.485.122.948.331,1.371l-1.331,1.331,1.414,1.414,1.331-1.331c.423.209.886.331,1.371.331.832,0,1.615-.324,2.203-.913l6.087-6.087H3.593Zm2-2h8.737l-4.368-4.368-4.368,4.368Z"/>
</svg>
