<?xml version="1.0" encoding="UTF-8"?>
<svg xmlns="http://www.w3.org/2000/svg" id="Layer_1" data-name="Layer 1" viewBox="0 0 24 24">
  <path d="m4,7v-1C4,1.922,6.589.618,9,.2v2.8h2V.011c.37-.011.709-.011,1-.011s.63,0,1,.011v2.989h2V.2c2.411.418,5,1.722,5,5.8v1H4Zm17.956,12.408c.168,1.175-.173,2.336-.934,3.213s-1.862,1.379-3.022,1.379H6c-1.16,0-2.262-.503-3.022-1.379s-1.102-2.038-.938-3.187l1.775-10.434h16.369l1.771,10.408Zm-6.956.092c0-.828-.672-1.5-1.5-1.5s-1.5.672-1.5,1.5.672,1.5,1.5,1.5,1.5-.672,1.5-1.5Zm3-4c0-.828-.672-1.5-1.5-1.5s-1.5.672-1.5,1.5.672,1.5,1.5,1.5,1.5-.672,1.5-1.5Z"/>
</svg>
