<?xml version="1.0" encoding="UTF-8"?>
<svg xmlns="http://www.w3.org/2000/svg" id="Layer_1" data-name="Layer 1" viewBox="0 0 24 24" width="512" height="512"><path d="M24,13v-2h-2.049c-.226-2.293-1.228-4.42-2.88-6.071-1.651-1.651-3.778-2.653-6.071-2.879V0h-2V2.049c-1.963,.194-3.804,.956-5.329,2.207L1.457,.043,.043,1.457,22.543,23.957l1.414-1.414-4.214-4.214c1.251-1.525,2.014-3.366,2.207-5.329h2.049Zm-7.786,1.714l-1.471-1.471c.19-.398,.3-.832,.3-1.286,0-.802-.312-1.555-.878-2.121-.921-.921-2.292-1.106-3.406-.577l-1.473-1.473c1.94-1.283,4.585-1.071,6.292,.636,.944,.944,1.464,2.199,1.464,3.535,0,.996-.291,1.946-.829,2.757Zm.411,6.153c-1.121,.586-2.348,.945-3.625,1.073v2.06h-2v-2.049c-2.293-.226-4.42-1.228-6.071-2.879-1.651-1.651-2.654-3.778-2.88-6.071H0v-2H2.06c.127-1.277,.486-2.504,1.072-3.625l3.935,3.935c-.031,.228-.067,.456-.067,.69,0,1.336,.52,2.591,1.464,3.535,.975,.975,2.255,1.462,3.536,1.462,.231,0,.46-.034,.689-.066l3.936,3.936Z"/></svg>
