<?xml version="1.0" encoding="UTF-8"?>
<svg xmlns="http://www.w3.org/2000/svg" id="Layer_1" data-name="Layer 1" viewBox="0 0 24 24" width="512" height="512"><path d="M16.972,16.886c.342,.567,.373,1.411-.131,1.716-.215,.129-.469,.141-.754,.03-.323-.124-.632-.39-.826-.711l-.32-.53c.709-.288,1.314-.634,1.772-.934l.259,.429Zm7.028-4.886c0,6.617-5.383,12-12,12S0,18.617,0,12,5.383,0,12,0s12,5.383,12,12Zm-11-1h2c0-1.054,.679-2,1-2s1,.946,1,2h2c0-1.892-1.232-4-3-4s-3,2.108-3,4Zm-8,0h2c0-1.054,.679-2,1-2s1,.946,1,2h2c0-1.892-1.232-4-3-4s-3,2.108-3,4Zm13.684,4.852l-1.45-2.393-.898,.793c-.02,.018-2.005,1.748-4.336,1.748s-4.316-1.73-4.336-1.748l-1.33,1.493c.103,.092,2.559,2.254,5.666,2.254,.318,0,.629-.022,.932-.063l.616,1.019c.604,1,1.743,1.753,2.922,1.753,.472,0,.951-.121,1.404-.395,1.585-.958,1.654-3.062,.809-4.461Z"/></svg>
