<?xml version="1.0" encoding="UTF-8"?>
<svg xmlns="http://www.w3.org/2000/svg" id="Layer_1" data-name="Layer 1" viewBox="0 0 24 24">
  <path d="m20,6v-1c0-1.654-1.346-3-3-3h-4V0h-2v2h-4c-1.654,0-3,1.346-3,3v1h-2v5h2v4h16v-4h2v-5h-2Zm-3.399,5.014l-1.101-1.101-1.082,1.081-1.414-1.414,1.081-1.081-1.081-1.081,1.414-1.414,1.082,1.081,1.086-1.086,1.414,1.414-1.086,1.086,1.101,1.1-1.414,1.414Zm-7,0l-1.101-1.101-1.082,1.081-1.414-1.414,1.081-1.081-1.081-1.081,1.414-1.414,1.082,1.081,1.086-1.086,1.414,1.414-1.086,1.086,1.101,1.1-1.414,1.414Zm11.399,12.986H3v-3c0-2.206,1.794-4,4-4h10c2.206,0,4,1.794,4,4v3Z"/>
</svg>
