<?xml version="1.0" encoding="UTF-8"?>
<svg xmlns="http://www.w3.org/2000/svg" id="Layer_1" data-name="Layer 1" viewBox="0 0 24 24">
  <path d="m18.348,7.23c-1.311-3.151-4.395-5.23-7.848-5.23C5.813,2,2,5.813,2,10.5c0,.551.053,1.097.157,1.633-1.347,1.032-2.157,2.646-2.157,4.367,0,3.032,2.243,5.5,5,5.5h11.5c4.136,0,7.5-3.364,7.5-7.5,0-3.467-2.344-6.437-5.652-7.27Zm-9.01,10.932l-2.802-2.802c-.775-.776-.774-2.038,0-2.812l2.756-2.756,1.414,1.414-2.756,2.756,2.802,2.786-1.414,1.414Zm8.127-2.803l-2.803,2.803-1.414-1.414,2.802-2.802-2.756-2.74,1.414-1.414,2.756,2.756c.774.774.775,2.036,0,2.812Z"/>
</svg>
