<?xml version="1.0" encoding="UTF-8"?>
<svg xmlns="http://www.w3.org/2000/svg" id="Layer_1" data-name="Layer 1" viewBox="0 0 24 24" width="512" height="512"><path d="M2,24H0V3C0,1.35,1.35,0,3,0H24V2H3c-.55,0-1,.45-1,1V24Zm17-1.5c0-.83-.67-1.5-1.5-1.5s-1.5,.67-1.5,1.5,.67,1.5,1.5,1.5,1.5-.67,1.5-1.5Zm-11,0c0-.83-.67-1.5-1.5-1.5s-1.5,.67-1.5,1.5,.67,1.5,1.5,1.5,1.5-.67,1.5-1.5Zm16,0c0-.83-.67-1.5-1.5-1.5s-1.5,.67-1.5,1.5,.67,1.5,1.5,1.5,1.5-.67,1.5-1.5Zm0-5c0-.83-.67-1.5-1.5-1.5s-1.5,.67-1.5,1.5,.67,1.5,1.5,1.5,1.5-.67,1.5-1.5Zm0-5.5c0-.83-.67-1.5-1.5-1.5s-1.5,.67-1.5,1.5,.67,1.5,1.5,1.5,1.5-.67,1.5-1.5Zm0-5.5c0-.83-.67-1.5-1.5-1.5s-1.5,.67-1.5,1.5,.67,1.5,1.5,1.5,1.5-.67,1.5-1.5ZM13.5,22.5c0-.83-.67-1.5-1.5-1.5s-1.5,.67-1.5,1.5,.67,1.5,1.5,1.5,1.5-.67,1.5-1.5Z"/></svg>
