<?xml version="1.0" encoding="UTF-8"?>
<svg xmlns="http://www.w3.org/2000/svg" id="Layer_1" data-name="Layer 1" viewBox="0 0 24 24">
  <path d="m3,22h5v2H3c-1.654,0-3-1.346-3-3v-5h2v5c0,.552.448,1,1,1Zm19-1c0,.552-.448,1-1,1h-5v2h5c1.654,0,3-1.346,3-3v-5h-2v5ZM21,0h-5v2h5c.552,0,1,.448,1,1v5h2V3c0-1.654-1.346-3-3-3ZM2,3c0-.552.448-1,1-1h5V0H3C1.346,0,0,1.346,0,3v5h2V3Zm6.5,4h.464l1.33-2h3.412l1.33,2h.464c1.379,0,2.5,1.121,2.5,2.5v7.5H6v-7.5c0-1.379,1.121-2.5,2.5-2.5Zm5.5,5c0-1.105-.895-2-2-2s-2,.895-2,2,.895,2,2,2,2-.895,2-2Z"/>
</svg>
