<?xml version="1.0" encoding="UTF-8"?>
<svg xmlns="http://www.w3.org/2000/svg" id="Layer_1" data-name="Layer 1" viewBox="0 0 24 24">
  <path d="m24,6v2h-8v-2h1v-1c0-1.302.839-2.402,2-2.816V0h2v2.184c1.161.414,2,1.514,2,2.816v1h1Zm-1,4h-6v12h-4v-3H2v3H0v2h24v-2h-1v-12Zm-9.132,7c.718-.928,1.132-1.957,1.132-2.944,0-3.265-2.88-4.719-4.786-5.681-.61-.308-1.511-.764-1.687-.981-.076-.384-.17-.905-.226-1.394h-1.601c-.053.464-.141.961-.215,1.339-.183.269-1.087.727-1.698,1.036-1.906.962-4.786,2.416-4.786,5.681,0,.987.414,2.016,1.132,2.944h12.736Z"/>
</svg>
