<?xml version="1.0" encoding="UTF-8"?>
<svg xmlns="http://www.w3.org/2000/svg" id="Layer_1" data-name="Layer 1" viewBox="0 0 24 24">
  <path d="m24,21c0,1.654-1.346,3-3,3H3c-1.654,0-3-1.346-3-3s1.346-3,3-3h18c1.654,0,3,1.346,3,3Zm-3-5c.249,0,.489.038.728.074-.852-5.003-3.737-10.561-7.957-11.81.45-.452.729-1.075.729-1.764,0-1.381-1.119-2.5-2.5-2.5s-2.5,1.119-2.5,2.5c0,.689.279,1.312.73,1.765-2.793.827-5,3.541-6.42,6.735h14.162c.325.636.614,1.307.868,2H3.039c-.334,1.021-.594,2.058-.767,3.074.24-.035.479-.074.728-.074h18Z"/>
</svg>
