<?xml version="1.0" encoding="UTF-8"?>
<svg xmlns="http://www.w3.org/2000/svg" id="Layer_1" data-name="Layer 1" viewBox="0 0 24 24">
  <path d="m2,2C2,.895,2.895,0,4,0s2,.895,2,2-.895,2-2,2-2-.895-2-2Zm10,7v-1.5c0-.828-.672-1.5-1.5-1.5h-3c-.828,0-1.5.672-1.5,1.5v1.5h6Zm-3-4c1.105,0,2-.895,2-2s-.895-2-2-2-2,.895-2,2,.895,2,2,2Zm5-1c1.105,0,2-.895,2-2S15.105,0,14,0s-2,.895-2,2,.895,2,2,2Zm-10,3.5c0-.98.407-1.864,1.058-2.5h-2.558c-.828,0-1.5.672-1.5,1.5v1.5h3v-.5Zm11.5-2.5h-2.558c.651.636,1.058,1.52,1.058,2.5v.5h3v-1.5c0-.828-.672-1.5-1.5-1.5Zm7.648,3.681c-.515-.469-1.186-.712-1.878-.678-.697.032-1.339.334-1.794.835l-3.541,3.737c.032.21.065.42.065.638,0,2.083-1.555,3.876-3.617,4.17l-4.241.606-.283-1.979,4.241-.606c1.084-.155,1.9-1.097,1.9-2.191,0-1.22-.993-2.213-2.213-2.213H3c-1.654,0-3,1.346-3,3v7c0,1.654,1.346,3,3,3h9.664l10.674-11.655c.948-1.062.862-2.707-.189-3.665Z"/>
</svg>
