<?xml version="1.0" encoding="UTF-8"?>
<svg xmlns="http://www.w3.org/2000/svg" id="Layer_1" data-name="Layer 1" viewBox="0 0 24 24">
  <path d="m18.5,24.1c-1.47,0-2.851-.572-3.889-1.611-1.039-1.038-1.611-2.419-1.611-3.889s.572-2.851,1.611-3.889l3.889-3.804,3.881,3.796c1.047,1.046,1.619,2.427,1.619,3.896s-.572,2.851-1.611,3.889h0c-1.039,1.039-2.42,1.611-3.889,1.611Zm-5.304-.198c-1.416-1.414-2.196-3.298-2.196-5.302s.781-3.888,2.198-5.304l3.802-3.719v-2.577h2v1.598l4.779,4.675c.046.046.092.093.137.14.055-.464.084-.935.084-1.414C24,5.383,18.617,0,12,0S0,5.383,0,12s5.383,12,12,12c.416,0,.827-.021,1.233-.063-.012-.012-.024-.024-.036-.036Zm-.196-16.901h2v4h-2v-4Zm-6,4h-2v-4h2v4Zm2-4h2v4h-2v-4Z"/>
</svg>
