<?xml version="1.0" encoding="UTF-8"?>
<svg xmlns="http://www.w3.org/2000/svg" id="Layer_1" data-name="Layer 1" viewBox="0 0 24 24" width="512" height="512"><path d="M24,16.24c0,3.39-6,7.56-6,7.56,0,0-6-4.17-6-7.56,0-1.79,1.34-3.24,3-3.24s3,1.16,3,2.95c0-1.79,1.34-2.95,3-2.95s3,1.45,3,3.24Zm0-10.24v-1c0-1.65-1.35-3-3-3H12.24L8.24,0H3C1.35,0,0,1.35,0,3v3H24Zm-14,10.24c0-2.89,2.24-5.24,5-5.24,1.14,0,2.18,.34,3,.94,.82-.59,1.86-.94,3-.94s2.16,.41,3,1.07v-4.07H0v14H12.89c-1.53-1.65-2.89-3.7-2.89-5.76Z"/></svg>
