<?xml version="1.0" encoding="UTF-8"?>
<svg xmlns="http://www.w3.org/2000/svg" id="Layer_1" data-name="Layer 1" viewBox="0 0 24 24" width="512" height="512"><path d="M3,19.5c0,.828-.672,1.5-1.5,1.5s-1.5-.672-1.5-1.5,.672-1.5,1.5-1.5,1.5,.672,1.5,1.5Zm12,0v-3.523c-.902-.53-1.964-.977-3-.977s-2.098,.448-3,.977v3.523c0,1.378-1.122,2.5-2.5,2.5h-1.5v2h14v-2h-1.5c-1.378,0-2.5-1.122-2.5-2.5Zm9-7.5c0,3.078-1.169,5.876-3.074,8h-3.426c-.276,0-.5-.224-.5-.5v-2.063c.183,.162-.005-.005,0,0l1.413-1.415c-.134-.135-3.038-3.022-6.413-3.022s-6.279,2.887-6.413,3.022l1.413,1.415v2.063c0,.276-.224,.5-.5,.5h-1.55c.024-.165,.05-.329,.05-.5,0-1.933-1.567-3.5-3.5-3.5-.265,0-.521,.035-.768,.091-.467-1.277-.732-2.651-.732-4.091C0,5.373,5.373,0,12,0s12,5.373,12,12Zm-12.899-3l-3.476-2.781-1.249,1.562,1.524,1.219-1.524,1.219,1.249,1.562,3.476-2.781Zm5,0l1.524-1.219-1.249-1.562-3.476,2.781,3.476,2.781,1.249-1.562-1.524-1.219Zm6.399,12c-.828,0-1.5,.672-1.5,1.5s.672,1.5,1.5,1.5,1.5-.672,1.5-1.5-.672-1.5-1.5-1.5Z"/></svg>
