<?xml version="1.0" encoding="UTF-8"?>
<svg xmlns="http://www.w3.org/2000/svg" id="Layer_1" data-name="Layer 1" viewBox="0 0 24 24">
  <path d="m15.156,18.949l1.412,1.416-2.696,2.691c-.628.627-1.454.941-2.279.941s-1.651-.313-2.28-.942c-1.141-1.14-1.236-2.924-.307-4.185l-1.207-1.207-3.588,3.588-1.414-1.414,3.588-3.588-1.191-1.191c-1.268.982-3.09.905-4.249-.254-1.256-1.258-1.256-3.303,0-4.561l2.69-2.695,1.416,1.414-2.691,2.695c-.478.478-.478,1.255,0,1.732.479.479,1.254.479,1.732,0l3.141-3.183.002.002c4.404-4.403,9.696-5.15,11.821-5.266-.115,2.126-.863,7.418-5.266,11.821l.016.016-3.073,3.122c-.483.483-.483,1.261-.006,1.738s1.256.477,1.732,0l2.697-2.692ZM13.178,0c-1.142,0-2.215.444-3.022,1.252-1.02,1.02-1.401,2.594-.997,4.108l.17.639c5.327-3.348,10.535-3.083,10.801-3.065l.882.055.055.882c.017.265.283,5.473-3.065,10.801l.639.17c.399.106.803.159,1.199.159,1.106,0,2.158-.405,2.909-1.156.808-.808,1.252-1.881,1.252-3.022V0h-10.822Z"/>
</svg>
