<?xml version="1.0" encoding="UTF-8"?>
<svg xmlns="http://www.w3.org/2000/svg" id="Layer_1" data-name="Layer 1" viewBox="0 0 24 24" width="512" height="512"><path d="M9.692,14l10,10H0V4.308l7,7v7.692h2v-5h.692ZM24,3V24h-1.48L.278,1.757C.752,.723,1.79,0,3,0H21c1.654,0,3,1.346,3,3ZM7.615,6.201l1.455,1.455c.141-.381,.501-.656,.93-.656h3.5c1.379,0,2.5,1.122,2.5,2.5s-1.121,2.5-2.5,2.5h-.086l1.691,1.691c1.688-.649,2.895-2.277,2.895-4.191,0-2.481-2.019-4.5-4.5-4.5h-3.5c-.977,0-1.837,.476-2.385,1.201Z"/></svg>
