<?xml version="1.0" encoding="UTF-8"?>
<svg xmlns="http://www.w3.org/2000/svg" id="Layer_1" data-name="Layer 1" viewBox="0 0 24 24">
  <path d="m21,0h-12c-1.654,0-3,1.346-3,3v4c.614,0,1.179-.23,1.63-.616.299-.256.668-.384,1.037-.384s.738.128,1.037.384c.451.386,1.016.616,1.63.616s1.179-.23,1.63-.616c.299-.256.668-.384,1.037-.384s.738.128,1.037.384c.451.386,1.016.616,1.63.616s1.179-.23,1.63-.616c.299-.256.668-.384,1.037-.384s.738.128,1.037.384c.451.386,1.016.616,1.63.616v2c-.695,0-1.378-.17-2-.482l-.003,1.846c.002,4.736-1.174,9.111-2.01,11.625,0,.002-.001.01-.002.012h6.015V3c0-1.654-1.346-3-3-3Zm-3.021,9.965l-.474-.351c-.99-.821-2.428-.821-3.418,0-.607.504-1.479.504-2.087,0-.99-.821-2.428-.821-3.418,0-.607.504-1.479.504-2.087,0-.989-.821-2.427-.822-3.418,0l-.491.416-.007.454c-.075,5.12-1.931,10.748-2.577,11.938v1.577h15.078l.26-.604c.109-.253,2.662-6.266,2.661-12.949l-.02-.481Zm-8.393,11.035h-2.086c.139-.45.937-2.054,1.275-4.681l-.294.258-1.481-1.077c1.414-1.279,2.343-2.5,2.343-2.5h1.657c0,4-1.103,6.892-1.414,8Z"/>
</svg>
