<?xml version="1.0" encoding="UTF-8"?>
<svg xmlns="http://www.w3.org/2000/svg" id="Layer_1" data-name="Layer 1" viewBox="0 0 24 24">
  <path d="m23.553,22.139l-2.666-2.666c.698-.981,1.113-2.177,1.113-3.473,0-3.314-2.686-6-6-6s-6,2.686-6,6,2.686,6,6,6c1.296,0,2.492-.415,3.473-1.113l2.666,2.666,1.414-1.414Zm-6.805-3.695c-.744.744-2.058.746-2.823-.019l-2.182-2.268,1.387-1.441,2.216,2.301,3.614-3.703,1.398,1.43-3.607,3.696-.004.004Zm-8.748-2.443c0-4.411,3.589-8,8-8,1.458,0,2.822.398,4,1.082v-2.082h0V3c0-1.654-1.346-3-3-3H3C1.345,0,0,1.347,0,3.001v20.999h8v-.004l7.96.002c-4.393-.022-7.96-3.6-7.96-7.998Zm1-11h7v2h-7v-2Zm-2,12h-3v-2h3v2Zm0-5h-3v-2h3v2Zm0-5h-3v-2h3v2Z"/>
</svg>
