<?xml version="1.0" encoding="UTF-8"?>
<svg xmlns="http://www.w3.org/2000/svg" id="Layer_1" data-name="Layer 1" viewBox="0 0 24 24" width="512" height="512"><path d="m20.5,8.479V3.5h-4.979L12-.021l-3.521,3.521H3.5v4.979L-.021,12l3.521,3.521v4.979h4.979l3.521,3.521,3.521-3.521h4.979v-4.979l3.521-3.521-3.521-3.521Zm-7.5,9.521h-2v-2h2v2Zm.447-5.371c-.188.103-.447.563-.447.876v.495h-2v-.495c0-1.033.637-2.163,1.481-2.628.29-.159.595-.535.502-1.066-.069-.392-.402-.725-.793-.793-.306-.057-.602.021-.832.216-.228.19-.358.47-.358.767h-2c0-.889.391-1.727,1.072-2.299.68-.572,1.578-.814,2.463-.653,1.209.211,2.204,1.205,2.417,2.417.223,1.272-.382,2.543-1.506,3.164Z"/></svg>
