<?xml version="1.0" encoding="UTF-8"?>
<svg xmlns="http://www.w3.org/2000/svg" id="Layer_1" data-name="Layer 1" viewBox="0 0 24 24">
  <path d="m8,12c-3.309,0-6-2.691-6-6S4.691,0,8,0s6,2.691,6,6-2.691,6-6,6ZM0,18.5v5.5h7v-10h-2.5c-2.485,0-4.5,2.015-4.5,4.5Zm24-3.5v9h-15v-9c0-1.657,1.343-3,3-3h9c1.657,0,3,1.343,3,3Zm-8,1.5c0-1.381-1.119-2.5-2.5-2.5s-2.5,1.119-2.5,2.5v3c0,1.381,1.119,2.5,2.5,2.5s2.5-1.119,2.5-2.5v-.5h-1.6v.5c0,.496-.404.9-.9.9s-.9-.404-.9-.9v-3c0-.496.404-.9.9-.9s.9.404.9.9v.5h1.6v-.5Zm6.25-2.244h-1.632l-1.182,5.864c-.015.078-.037.141-.057.188-.019-.041-.038-.094-.05-.159l-1.202-5.893h-1.633l1.268,6.213c.108.561.592,1.531,1.618,1.531s1.503-.928,1.628-1.575l1.244-6.169Z"/>
</svg>
