<?xml version="1.0" encoding="UTF-8"?>
<svg xmlns="http://www.w3.org/2000/svg" id="Layer_1" data-name="Layer 1" viewBox="0 0 24 24">
  <path d="m22-.003s-.009,3.069-.009,4.603c0,1.473-.145,2.85-.407,4.155C17.034,5.162,10.153.413,7.966,2.601c-.979.979-.979,2.305-.978,3.274,0,.346,0,.925-.069,1.044-.136.086-.702.082-1.041.081-.96-.004-2.276-.015-3.258.967-1.654,1.654.654,5.992,3.428,9.977,3.306-.268,6.002-1.481,8.208-3.687,1.181-1.181,2.066-2.509,2.685-3.989.528.382,1.072.788,1.632,1.219-.709,1.544-1.666,2.948-2.903,4.184-2.255,2.255-5.041,3.623-8.294,4.114.468.627.934,1.232,1.381,1.8-1.306.262-2.684.407-4.157.407-1.534,0-4.603.009-4.603.009l.006,2s3.065-.009,4.597-.009c5.635,0,10.326-1.833,13.942-5.449s5.449-8.307,5.449-13.942c0-1.532.009-4.597.009-4.597l-2-.006Z"/>
</svg>
