<?xml version="1.0" encoding="UTF-8"?>
<svg xmlns="http://www.w3.org/2000/svg" id="Layer_1" data-name="Layer 1" viewBox="0 0 24 24">
  <path d="m7,23H1v-4.5c0-.828.672-1.5,1.5-1.5h3c.828,0,1.5.672,1.5,1.5v4.5Zm8-4.5c0-.828-.672-1.5-1.5-1.5h-3c-.828,0-1.5.672-1.5,1.5v4.5h6v-4.5Zm0-16c0-.828-.672-1.5-1.5-1.5h-3c-.828,0-1.5.672-1.5,1.5v4.5h6V2.5Zm8,16c0-.828-.672-1.5-1.5-1.5h-3c-.828,0-1.5.672-1.5,1.5v4.5h6v-4.5Zm-12-8c0-.828-.672-1.5-1.5-1.5h-3c-.828,0-1.5.672-1.5,1.5v4.5h6v-4.5Zm8,0c0-.828-.672-1.5-1.5-1.5h-3c-.828,0-1.5.672-1.5,1.5v4.5h6v-4.5Z"/>
</svg>
