<?xml version="1.0" encoding="UTF-8"?>
<svg xmlns="http://www.w3.org/2000/svg" id="Layer_1" data-name="Layer 1" viewBox="0 0 24 24">
  <path d="m24,12.423l-7.978-3.497,5.978-2.79V0h-2v4.863l-5.319,2.482c.203-.405.319-.861.319-1.345,0-1.657-1.343-3-3-3s-3,1.343-3,3c0,.484.115.94.319,1.345l-5.319-2.482V0h-2v6.137l5.978,2.79L0,12.423v2.231l5.159-2.365L0,19.167v4.833h2v-4.167l4.313-5.751c-.203.602-.313,1.247-.313,1.918,0,3.314,2.686,6,6,6s6-2.686,6-6c0-.671-.11-1.315-.313-1.918l4.313,5.751v4.167h2v-4.833l-5.159-6.878,5.159,2.365v-2.231Z"/>
</svg>
