<?xml version="1.0" encoding="UTF-8"?>
<svg xmlns="http://www.w3.org/2000/svg" id="Layer_1" data-name="Layer 1" viewBox="0 0 24 24" width="512" height="512"><path d="M17,10c-3.86,0-7,3.14-7,7s3.14,7,7,7,7-3.14,7-7-3.14-7-7-7Zm.87,9.46c-.36,.36-.83,.55-1.33,.55-.01,0-.02,0-.03,0-.51,0-.99-.22-1.34-.6l-1.99-2.08,1.44-1.39,1.93,2.02,3.22-3.22,1.41,1.41-3.3,3.3ZM4,11C1.79,11,0,9.21,0,7v-3C0,1.79,1.79,0,4,0s4,1.79,4,4v3c0,2.21-1.79,4-4,4Zm0-9c-1.1,0-2,.9-2,2v3c0,1.1,.9,2,2,2s2-.9,2-2v-3c0-1.1-.9-2-2-2Zm1,22H3v-7.63l-1.58,1.63L-.02,16.6l3.51-3.6h1.42l.09,1v10ZM11.42,5l-1.43-1.4L13.49,0h1.42l.09,1v7.23c-.7,.16-1.37,.4-2,.72V3.37l-1.58,1.63Z"/></svg>
