<?xml version="1.0" encoding="UTF-8"?>
<svg xmlns="http://www.w3.org/2000/svg" id="Layer_1" data-name="Layer 1" viewBox="0 0 24 24" width="512" height="512"><path d="M22,14v-1c0-2.21-1.79-4-4-4s-4,1.79-4,4v1h-2v7c0,1.65,1.35,3,3,3h6c1.65,0,3-1.35,3-3v-7h-2Zm-6-1c0-1.1,.9-2,2-2s2,.9,2,2v1h-4v-1Zm3,7h-2v-2h2v2ZM8,4C8,1.79,6.21,0,4,0S0,1.79,0,4v3c0,2.21,1.79,4,4,4s4-1.79,4-4v-3Zm-2,3c0,1.1-.9,2-2,2s-2-.9-2-2v-3c0-1.1,.9-2,2-2s2,.9,2,2v3Zm-1.09,6l.09,1v10H3v-7.63l-1.58,1.63L-.02,16.6l3.51-3.6h1.42ZM13,3.37l-1.58,1.63-1.43-1.4L13.49,0h1.42l.09,1V7.81c-.81,.47-1.49,1.14-2,1.92V3.37Zm-3,17.63c0,1.05,.33,2.02,.88,2.82-1.66-.49-2.88-2.01-2.88-3.82v-3c0-1.47,.81-2.75,2-3.44v7.44Z"/></svg>
