<?xml version="1.0" encoding="UTF-8"?>
<svg xmlns="http://www.w3.org/2000/svg" id="Layer_1" data-name="Layer 1" viewBox="0 0 24 24">
  <path d="m23.021,10.173c-1.242-1.269-5.38-2.089-9.841-2.165,1.07-.458,1.82-1.52,1.82-2.758,0-1.004-.498-1.888-1.256-2.433.448-.438,1.141-.817,2.256-.817V0c-1.954,0-3.225.811-4,1.754-.775-.943-2.046-1.754-4-1.754v2c1.112,0,1.805.379,2.253.82-.756.545-1.253,1.427-1.253,2.43,0,1.238.75,2.299,1.82,2.758-4.461.076-8.599.896-9.841,2.165-1.305,1.333-1.305,3.494,0,4.828s3.421,1.333,4.726,0c.619-.632,1.603-1.763,2.633-3h7.326c1.029,1.237,2.014,2.368,2.633,3,1.305,1.333,3.421,1.333,4.726,0s1.305-3.495,0-4.828Zm-13.059-.173c.518-.652.996-1.272,1.403-1.82.205.044.417.07.635.07s.43-.026.635-.07c.406.548.885,1.168,1.403,1.82h-4.075Zm-2.407,4h8.888c-.07.666-.21,1.336-.39,2H7.946c-.181-.664-.32-1.334-.39-2Zm1.07,4h6.748c-.282.701-.592,1.375-.912,2h-4.924c-.32-.625-.63-1.299-.912-2Zm2.035,4h2.677c-.75,1.224-1.339,2-1.339,2,0,0-.589-.776-1.339-2Z"/>
</svg>
