<?xml version="1.0" encoding="UTF-8"?>
<svg xmlns="http://www.w3.org/2000/svg" id="Layer_1" data-name="Layer 1" viewBox="0 0 24 24" width="512" height="512"><path d="m17.144,6c-.407,0-.769.115-1.091.329,0,0-.17.113-.417.284-.603-.391-1.209-.613-1.765-.613-.288,0-.568.069-.84.179.31-4.126,2.94-4.179,2.969-4.179.551,0,1,.449,1.001,1v2c1.102,0,1.999-.897,1.999-2,0-1.654-1.346-3-3-3-1.121,0-2.884.623-3.99,2.563-.592-1.07-1.441-1.897-2.563-2.457l-.895,1.789c1.466.733,2.257,2.142,2.414,4.284-.272-.11-.551-.179-.838-.179-.561,0-1.172.226-1.781.623-.237-.178-.4-.294-.4-.294-.322-.215-.684-.329-1.091-.329C4.446,6,0,10.029,0,15s4.465,9,6.874,9c.516,0,.956-.199,1.337-.538.541.342,1.088.538,1.606.538.253,0,.693-.137,1.072-.29.356.183.726.29,1.11.29s.755-.108,1.11-.29c.379.154.818.29,1.072.29.518,0,1.066-.196,1.607-.538.381.34.821.538,1.337.538,2.41,0,6.874-4.029,6.874-9s-4.446-9-6.856-9Zm-1.644,4l2.286,4h-4.571l2.286-4Zm-7,0l2.286,4h-4.571l2.286-4Zm6.5,9.5v-1.5h-2v1.924c-.163.016-.318.041-.488.049-.169.017-.339.027-.512.027-6,0-8-5-8-5,0,0,1.587,1.262,5,1.78v1.22h2v-1.023c.322.015.655.023,1,.023,5.5,0,8-2,8-2,0,0-1.325,3.252-5,4.5Z"/></svg>
