<?xml version="1.0" encoding="UTF-8"?>
<svg xmlns="http://www.w3.org/2000/svg" id="Layer_1" data-name="Layer 1" viewBox="0 0 24 24" width="512" height="512"><path d="m20.005,5.853c-.088-2.278-2.117-4.096-4.433-3.819C14.83.792,13.49.006,12.008.006s-2.822.787-3.564,2.027c-2.384-.292-4.437,1.623-4.437,3.974,0,.078.003.157.009.238-1.241.776-2.008,2.128-2.008,3.629,0,.076.006.15.01.225.315-.061.637-.099.965-.099h10.108c-.056-.157-.092-.324-.092-.5,0-.828.672-1.5,1.5-1.5s1.5.672,1.5,1.5c0,.176-.036.343-.092.5h5.063c.336,0,.664.039.986.103.031-.207.051-.416.051-.626,0-1.487-.767-2.843-2.003-3.624Zm-10.498,2.154c-.828,0-1.5-.672-1.5-1.5s.672-1.5,1.5-1.5,1.5.672,1.5,1.5-.672,1.5-1.5,1.5Zm13.856,5.167c-.578-.746-1.45-1.174-2.392-1.174H2.983c-.941,0-1.813.428-2.392,1.174C.03,13.898-.162,14.817.064,15.694c.92,3,4.828,6.642,7.92,8.306h8c3.091-1.663,7-5.306,7.908-8.306.263-.867.033-1.796-.528-2.521Z"/></svg>
