<?xml version="1.0" encoding="UTF-8"?>
<svg xmlns="http://www.w3.org/2000/svg" id="Layer_1" data-name="Layer 1" viewBox="0 0 24 24">
  <path d="m7.3,19.6h1.9v4.4H3c-1.654,0-3-1.346-3-3v-5c0-1.641.806-3.088,2.031-4h10.935c.69.517,1.25,1.2,1.602,2h-7.268v5.6Zm2-2h1.9v6.4h1.6v-6.4h2v-1.6h-5.5v1.6Zm3.7-10.6h-2c0-1.657-1.343-3-3-3s-3,1.343-3,3h-3v3h11v-3ZM15.025.05c-1.643,0-2.975,1.332-2.975,2.975s1.332,2.975,2.975,2.975,2.975-1.332,2.975-2.975S16.668.05,15.025.05Zm.975,23.95h1.6v-8h-1.6v8Zm8-5.5c0,1.381-1.119,2.5-2.5,2.5h-.9v3h-1.6v-8h2.5c1.381,0,2.5,1.119,2.5,2.5Zm-1.6,0c0-.497-.403-.9-.9-.9h-.9v1.801h.9c.497,0,.9-.403.9-.9Z"/>
</svg>
