<?xml version="1.0" encoding="UTF-8"?>
<svg xmlns="http://www.w3.org/2000/svg" id="Layer_1" data-name="Layer 1" viewBox="0 0 24 24" width="512" height="512"><path d="M13.18,20h-.46l4.56-14.51c.66,.55,1.21,1.24,1.61,2.05l1.79-.89c-.65-1.31-1.62-2.38-2.77-3.17l1.09-3.47h-2.11l-.8,2.54c-.69-.26-1.42-.42-2.18-.49l.64-2.05h-2.11l-.63,2h-.46C6.75,2,3,5.75,3,10.36v3.27c0,2.63,1.22,4.97,3.12,6.51l-1.21,3.85h2.11l.87-2.77c.67,.31,1.38,.53,2.13,.65l-.67,2.12h2.11l.63-2h1.09c3.14,0,5.99-1.74,7.43-4.53l-1.78-.92c-1.1,2.13-3.27,3.45-5.66,3.45ZM5,13.64v-3.27c0-3.45,2.76-6.26,6.19-6.35l-4.41,14.04c-1.1-1.14-1.78-2.7-1.78-4.41Zm3.49,5.67L13.3,4.01c.77,.01,1.51,.17,2.2,.44l-4.87,15.51c-.76-.09-1.48-.31-2.13-.64Z"/></svg>
