<?xml version="1.0" encoding="UTF-8"?>
<svg xmlns="http://www.w3.org/2000/svg" id="Layer_1" data-name="Layer 1" viewBox="0 0 24 24">
  <path d="m10,2.5c0-1.381,1.119-2.5,2.5-2.5s2.5,1.119,2.5,2.5-1.119,2.5-2.5,2.5-2.5-1.119-2.5-2.5Zm4.621,8.038l-1.408,5.296,2.788,1.584v6.582h-2v-5.418l-4.482-2.546c-1.148-.652-1.74-2.006-1.439-3.292l1.037-4.434-3.119,1.559-1.03,3.887-1.934-.513,1.262-4.759,4.969-2.484h3.236c.865,0,1.687.374,2.258,1.024l.094.126,2.253,3.58,3.75,1.875-.895,1.789-4.25-2.125-1.089-1.731Zm-6.598,6.594l-.463,1.996-2.272,4.872h2.199l1.923-4.086.388-1.688-1.029-.585c-.259-.147-.508-.317-.747-.509Z"/>
</svg>
