<?xml version="1.0" encoding="UTF-8"?>
<svg xmlns="http://www.w3.org/2000/svg" id="Layer_1" data-name="Layer 1" viewBox="0 0 24 24" width="512" height="512"><path d="M13,14h11v7c0,1.65-1.35,3-3,3H3c-1.65,0-3-1.35-3-3v-7H11v-4h-3l3.18-3.65c.44-.49,1.22-.49,1.66,0l3.16,3.65h-3v4ZM24,3v7h-5.36l-1.88-2.18,5.17-5.17c-.14-.38-.51-.65-.94-.65h-1.59l-4.12,4.12-.96-1.11c-.12-.14-.26-.25-.4-.36l2.65-2.65h-3.17L5.41,10H0V3C0,1.35,1.35,0,3,0H21c1.65,0,3,1.35,3,3ZM2,3v1.59l2.59-2.59h-1.59c-.55,0-1,.45-1,1Zm8.59-1h-3.17L2,7.41v.59h2.59L10.59,2Zm11.41,6v-2.59l-2.59,2.59h2.59Z"/></svg>
