<?xml version="1.0" encoding="UTF-8"?>
<svg xmlns="http://www.w3.org/2000/svg" id="Layer_1" data-name="Layer 1" viewBox="0 0 24 24">
  <path d="m6,2.5c0-1.381,1.119-2.5,2.5-2.5s2.5,1.119,2.5,2.5-1.119,2.5-2.5,2.5-2.5-1.119-2.5-2.5Zm16.5.5c.828,0,1.5-.672,1.5-1.5s-.672-1.5-1.5-1.5-1.5.672-1.5,1.5.672,1.5,1.5,1.5Zm-5.5,0c-2.209,0-4,1.791-4,4s1.791,4,4,4,4-1.791,4-4-1.791-4-4-4Zm7,12.562v1.875c0,3.624-2.938,6.562-6.562,6.562H6.562c-3.624,0-6.562-2.938-6.562-6.562v-1.875c0-3.624,2.938-6.562,6.562-6.562h4.786c.825,2.329,3.04,4,5.651,4,1.945,0,3.668-.929,4.764-2.363,1.368,1.203,2.236,2.961,2.236,4.926Zm-11-2.562h-5.5c-1.93,0-3.5,1.57-3.5,3.5s1.57,3.5,3.5,3.5h.5v-2h-.5c-.827,0-1.5-.673-1.5-1.5s.673-1.5,1.5-1.5h5.5v-2Z"/>
</svg>
