<?xml version="1.0" encoding="UTF-8"?>
<svg xmlns="http://www.w3.org/2000/svg" id="Layer_1" data-name="Layer 1" viewBox="0 0 24 24">
  <path d="m3.5,17h-1.71c-1.131-1.726-1.79-3.786-1.79-6v-4h2c0,2.209,1.791,4,4,4,.732,0,1.41-.211,2-.555v2.055c0,2.481-2.019,4.5-4.5,4.5ZM24,6.5v1.5l-2,.857v2.143c0,5.024-3.39,9.263-8,10.574v2.426h-2v-2.051c-.33.03-.662.051-1,.051s-.67-.021-1-.051v2.051h-2v-2.426c-1.717-.488-3.264-1.384-4.531-2.574h.031c3.584,0,6.5-2.916,6.5-6.5v-6.5c0-3.314,2.686-6,6-6,3.19,0,5.792,2.492,5.982,5.635l2.018.865Zm-7.5-2.5c-.828,0-1.5.672-1.5,1.5s.672,1.5,1.5,1.5,1.5-.672,1.5-1.5-.672-1.5-1.5-1.5Z"/>
</svg>
