<?xml version="1.0" encoding="UTF-8"?>
<svg xmlns="http://www.w3.org/2000/svg" id="Layer_1" data-name="Layer 1" viewBox="0 0 24 24">
  <path d="m14,12c0,.551-.448,1-1,1h-2v-2h2c.552,0,1,.449,1,1Zm-1-4c0-.551-.448-1-1-1h-1v2h1c.552,0,1-.449,1-1Zm11,11h-5v5l-4.364-4.364c-.841.231-1.722.364-2.636.364s-1.794-.134-2.636-.364l-4.364,4.364v-5H0l3.598-3.598c-1.006-1.56-1.598-3.412-1.598-5.402C2,4.486,6.486,0,12,0s10,4.486,10,10c0,1.99-.591,3.842-1.598,5.402l3.598,3.598Zm-11-4c1.654,0,3-1.346,3-3,0-1.061-.554-1.995-1.387-2.528.246-.435.387-.937.387-1.472,0-1.654-1.346-3-3-3h-3v10h4Z"/>
</svg>
