<?xml version="1.0" encoding="UTF-8"?>
<svg xmlns="http://www.w3.org/2000/svg" id="Layer_1" data-name="Layer 1" viewBox="0 0 24 24">
  <path d="m12.949,10.348l3.942-3.943,1.869,1.168-2.136,2.135c-.722.72-2.103.784-3.675.639Zm-11.798,1.313c.107-.128.208-.259.324-.381,2.155-2.288,5.774-1.748,8.974-1.26l4.702-4.702-2.934-1.834s-.007.008-.01.012l-3.071-1.919c-1.558-.973-3.596-.625-4.741.808L.681,7.027c-.914,1.141-.939,2.755-.062,3.926l.531.708ZM22.746,3.337l-.245-.244c-2.397-2.393-6.08-2.742-8.752-1.011l8.069,5.043c-.109.27-.271.519-.484.732l-3.295,3.266c-1.803,1.798-4.879,1.33-7.854.878-2.855-.435-5.809-.884-7.252.649-2.576,2.736-2.481,7.149.211,9.838l-.016.016.215.215c.818.818,1.894,1.227,2.97,1.227s2.15-.409,2.97-1.227l13.466-13.447c.793-.792,1.23-1.846,1.23-2.967s-.438-2.175-1.231-2.968Z"/>
</svg>
