<?xml version="1.0" encoding="UTF-8"?>
<svg xmlns="http://www.w3.org/2000/svg" id="Layer_1" data-name="Layer 1" viewBox="0 0 24 24" width="512" height="512"><path d="m24,15.143c0-3.016-1.56-5.616-2.726-7.142h1.727s0-2.001,0-2.001l-22,.009v2s1.721,0,1.721,0c-1.166,1.527-2.72,4.124-2.72,7.135,0,2.107,1.005,4.042,2.676,5.564l-1.747,1.953,1.49,1.334,1.861-2.08c2.089,1.3,4.781,2.086,7.72,2.086s5.632-.787,7.721-2.087l1.869,2.089,1.49-1.334-1.756-1.961c1.67-1.522,2.676-3.457,2.676-5.563ZM7,1.5c0-.828.672-1.5,1.5-1.5s1.5.672,1.5,1.5-.672,1.5-1.5,1.5-1.5-.672-1.5-1.5Zm7,1c0-.828.672-1.5,1.5-1.5s1.5.672,1.5,1.5-.672,1.5-1.5,1.5-1.5-.672-1.5-1.5Z"/></svg>
