<?xml version="1.0" encoding="UTF-8"?>
<svg xmlns="http://www.w3.org/2000/svg" id="Layer_1" data-name="Layer 1" viewBox="0 0 24 24">
  <path d="m18,11c1.916,0,3.517-1.354,3.906-3.155,1.211-.386,2.094-1.507,2.094-2.845,0-1.657-1.5-5-1.5-5,0,0-.502,1.661-1.5,3.069-.998-1.408-1.5-3.069-1.5-3.069,0,0-1.5,3.343-1.5,5,0,1.247.762,2.316,1.845,2.768-.302.722-1.015,1.232-1.845,1.232h-2v-2.346c0-2.674-2.975-5.561-3.313-5.881l-.687-.649-.687.649c-.339.32-3.313,3.207-3.313,5.881v2.346h-2c-.83,0-1.544-.509-1.845-1.232,1.083-.452,1.845-1.521,1.845-2.768,0-1.657-1.5-5-1.5-5,0,0-.502,1.661-1.5,3.069C2.002,1.661,1.5,0,1.5,0,1.5,0,0,3.343,0,5c0,1.339.883,2.459,2.094,2.845.389,1.8,1.991,3.155,3.906,3.155h2v2h-2.414l-2.588,2.588,1.414,1.414,2.002-2.002h1.586v3.516l-1.397,1.397c-.498.497-.603,1.021-.603,1.372,0,.537.235,1.057.681,1.502,1.079,1.08,3.377,1.863,5.319.581.716.473,1.479.665,2.213.665,1.257,0,2.425-.563,3.106-1.246.445-.445.681-.965.681-1.502,0-.352-.104-.875-.602-1.371l-1.398-1.398v-3.516h1.586l2.002,2.002,1.414-1.414-2.588-2.588h-2.414v-2h2Zm-4,6h-4v-2h4v2Zm0-4h-4v-2h4v2Z"/>
</svg>
