<?xml version="1.0" encoding="UTF-8"?>
<svg xmlns="http://www.w3.org/2000/svg" id="Layer_1" data-name="Layer 1" viewBox="0 0 24 24">
  <path d="m24,10v6c-.69,0-1.326-.23-1.833-.616-.673-.512-1.661-.512-2.334,0-.507.386-1.143.616-1.833.616s-1.326-.23-1.833-.616c-.673-.512-1.661-.512-2.334,0-.507.386-1.143.616-1.833.616s-1.326-.23-1.833-.616c-.673-.512-1.661-.512-2.334,0-.507.386-1.143.616-1.833.616s-1.326-.23-1.833-.616c-.673-.512-1.661-.512-2.334,0-.507.386-1.143.616-1.833.616v-6h24ZM1.5,18c-.828,0-1.5.672-1.5,1.5s.672,1.5,1.5,1.5,1.5-.672,1.5-1.5-.672-1.5-1.5-1.5Zm5,3c-.828,0-1.5.672-1.5,1.5s.672,1.5,1.5,1.5,1.5-.672,1.5-1.5-.672-1.5-1.5-1.5Zm11,0c-.828,0-1.5.672-1.5,1.5s.672,1.5,1.5,1.5,1.5-.672,1.5-1.5-.672-1.5-1.5-1.5Zm-5.5-3c-.828,0-1.5.672-1.5,1.5s.672,1.5,1.5,1.5,1.5-.672,1.5-1.5-.672-1.5-1.5-1.5Zm10.5,0c-.828,0-1.5.672-1.5,1.5s.672,1.5,1.5,1.5,1.5-.672,1.5-1.5-.672-1.5-1.5-1.5ZM6.004,8.002c.506,0,1.01-.191,1.391-.571l2.801-2.712-1.392-1.438-1.804,1.743V0h-2v5.028l-1.804-1.747-1.392,1.438,2.79,2.701c.389.388.9.582,1.41.582Zm12,0c.506,0,1.01-.191,1.391-.571l2.801-2.712-1.392-1.438-1.804,1.743V0h-2v5.028l-1.804-1.747-1.392,1.438,2.79,2.701c.389.388.9.582,1.41.582Z"/>
</svg>
