<?xml version="1.0" encoding="UTF-8"?>
<svg xmlns="http://www.w3.org/2000/svg" id="Layer_1" data-name="Layer 1" viewBox="0 0 24 24">
  <path d="m15.996,11.5h.004c0,.827-.673,1.5-1.5,1.5h-3.364l-.703,2.559c-1.227-1.157-1.903-2.304-1.939-3.313l1.624-3.246h1.125c.768,0,1.465.333,1.819.867.656.992,1.809,1.633,2.935,1.633Zm6.004-6.061v6.525c0,7.435-7.047,10.848-9.207,11.716l-.835.336-.805-.402c-2.147-1.074-9.153-5.087-9.153-11.65v-6.525c0-1.293.826-2.435,2.055-2.842L12-.038l7.945,2.634c1.229.407,2.055,1.549,2.055,2.842Zm-4,6.057l-.008-1.996h-1.996c-.387,0-.946-.253-1.268-.738-.731-1.104-2.035-1.762-3.486-1.762h-.242v-2.5c-1.381,0-2.501,1.12-2.501,2.501v.764s-2.007,4.012-2.007,4.012v.385c0,2.501,2.116,4.624,3.89,5.963l1.177.888,1.101-4.011h1.839c1.93,0,3.5-1.57,3.5-3.504Z"/>
</svg>
