<?xml version="1.0" encoding="UTF-8"?>
<svg xmlns="http://www.w3.org/2000/svg" id="Layer_1" data-name="Layer 1" viewBox="0 0 24 24" width="512" height="512"><path d="m15.54,13.229c-.589.408-1.18.803-1.763,1.191.72.511,1.41,1.034,2.054,1.58h-7.662c1.319-1.118,2.835-2.134,4.385-3.168,4.644-3.096,9.445-6.297,9.445-12.832h-2c0,.711-.073,1.374-.205,2H4.21c-.132-.627-.21-1.288-.21-2h-2c0,5.12,2.95,8.191,6.46,10.771.589-.408,1.18-.803,1.763-1.191-.72-.511-1.41-1.034-2.054-1.58h7.662c-1.319,1.118-2.835,2.134-4.385,3.168-4.644,3.096-9.445,6.297-9.445,12.832h2c0-.711.073-1.374.205-2h15.584c.132.627.21,1.288.21,2h2c0-5.12-2.95-8.191-6.46-10.771ZM4.89,4h14.216c-.345.717-.775,1.38-1.28,2H6.173c-.505-.62-.938-1.283-1.283-2Zm.004,16c.345-.717.775-1.38,1.28-2h11.653c.505.62.938,1.283,1.283,2H4.894Z"/></svg>
