<?xml version="1.0" encoding="UTF-8"?>
<svg xmlns="http://www.w3.org/2000/svg" id="Layer_1" data-name="Layer 1" viewBox="0 0 24 24">
  <path d="m21.168,8.217c-.239-.431-.557-.761-.918-.995-.644-.416-.987-1.181-.817-1.928.097-.429.091-.897-.048-1.381-.246-.859-.946-1.559-1.805-1.805-.484-.139-.952-.145-1.38-.048-.748.17-1.513-.172-1.929-.817-.233-.361-.564-.679-.994-.918-.782-.433-1.771-.433-2.553,0-.431.239-.761.557-.994.918-.416.644-1.181.987-1.929.817-.428-.097-.896-.091-1.38.048-.859.246-1.559.946-1.805,1.805-.139.484-.145.953-.048,1.381.17.748-.173,1.513-.817,1.928-.362.233-.679.564-.918.995-.219.394-.325.842-.323,1.289-.002.447.105.894.323,1.289.239.431.557.761.918.995.644.416.987,1.181.817,1.928-.097.429-.091.897.048,1.382.246.859.946,1.559,1.805,1.805.484.139.952.145,1.38.048.748-.17,1.513.172,1.929.817.233.361.563.679.994.918.782.433,1.772.433,2.553,0,.431-.239.761-.557.994-.918.416-.644,1.181-.987,1.929-.817.428.097.896.091,1.38-.048.859-.246,1.559-.946,1.805-1.805.139-.484.145-.953.048-1.382-.17-.748.173-1.513.817-1.928.362-.233.679-.564.918-.995.219-.394.325-.842.323-1.289.002-.447-.105-.894-.323-1.289Zm-6.168,3.783v2h-6v-1c0-1.466,1.187-2.25,2.233-2.941,1.1-.727,1.767-1.228,1.767-2.059,0-.552-.448-1-1-1s-1,.448-1,1h-2c0-1.654,1.346-3,3-3s3,1.346,3,3c0,1.967-1.54,2.984-2.664,3.727-.14.093-.277.184-.408.273h3.072Zm-5.809,8.072l-3.571,3.571c-.323.33-.82.445-1.263.286-.175-.061-.33-.16-.457-.287-.194-.194-.321-.453-.349-.736l-.245-2.212-2.221-.246c-.667-.074-1.149-.675-1.076-1.342.03-.273.153-.531.346-.725l2.435-2.435c.502,1.383,1.658,2.473,3.081,2.88.735.211,1.505.247,2.231.105.297.44.662.821,1.09,1.14m13.726.376l-2.221.246-.245,2.212c-.028.284-.155.542-.349.736-.127.127-.282.226-.457.287-.444.159-.941.044-1.263-.286l-3.571-3.571c.428-.319.794-.701,1.09-1.14.727.141,1.495.105,2.231-.105,1.423-.407,2.579-1.497,3.081-2.88l2.435,2.435c.193.194.316.451.346.725.073.667-.409,1.269-1.076,1.342Z"/>
</svg>
