<?xml version="1.0" encoding="UTF-8"?>
<svg xmlns="http://www.w3.org/2000/svg" id="Layer_1" data-name="Layer 1" viewBox="0 0 24 24" width="512" height="512"><path d="m21.511,2.49c-3.314-3.314-8.707-3.314-12.021,0-3.171,3.171-3.478,11.139-3.488,11.476l-.016.434,1.1,1.1-4.278,4.279c-.256-.462-.742-.779-1.308-.779-.828,0-1.5.672-1.5,1.5s.672,1.5,1.5,1.5c.237,0,.459-.06.658-.158-.098.199-.158.421-.158.658,0,.828.672,1.5,1.5,1.5s1.5-.672,1.5-1.5c0-.565-.316-1.052-.778-1.307l4.278-4.278,1.101,1.101.436-.016c.092-.003,2.288-.087,4.828-.593l1.004-.2-.224-.999c-.091-.407-.137-.812-.137-1.205,0-3.033,2.468-5.5,5.5-5.5.567,0,1.131.088,1.674.261l1.249.399.054-1.311c.098-2.374-.804-4.692-2.474-6.362Z"/></svg>
