<?xml version="1.0" encoding="UTF-8"?>
<svg xmlns="http://www.w3.org/2000/svg" id="Layer_1" data-name="Layer 1" viewBox="0 0 24 24">
  <path d="m19,2C19,.895,19.895,0,21,0s2,.895,2,2-.895,2-2,2-2-.895-2-2ZM3,4c1.105,0,2-.895,2-2S4.105,0,3,0,1,.895,1,2s.895,2,2,2Zm19.5,1h-2.569c.041.328.069.661.069,1,0,.692-.097,1.36-.262,2h4.262v-1.5c0-.828-.672-1.5-1.5-1.5Zm-18.5,1c0-.339.028-.672.069-1H1.5c-.828,0-1.5.672-1.5,1.5v1.5h4.262c-.165-.64-.262-1.308-.262-2Zm10,5.107c0-.996-.681-1.92-1.664-2.08-1.253-.204-2.336.758-2.336,1.973v9.817c-1.076-.886-2.111-1.752-2.145-1.784-.922-.861-2.373-.813-3.235.109-.863.923-.819,2.372.098,3.23l1.821,1.628h16.462v-4l-9-3.538v-5.355ZM12,0c-3.309,0-6,2.691-6,6,0,1.788.787,3.396,2.032,4.496.125-.984.611-1.892,1.377-2.544.896-.761,2.078-1.088,3.248-.899,1.713.279,3.046,1.714,3.3,3.454,1.252-1.1,2.044-2.713,2.044-4.507,0-3.309-2.691-6-6-6Zm0,6c-1.105,0-2-.895-2-2s.895-2,2-2,2,.895,2,2-.895,2-2,2Z"/>
</svg>
