<?xml version="1.0" encoding="UTF-8"?>
<svg xmlns="http://www.w3.org/2000/svg" id="Layer_1" data-name="Layer 1" viewBox="0 0 24 24" width="512" height="512"><path d="m2.352,13.707c-1.517-1.517-2.352-3.533-2.352-5.678S.835,3.868,2.352,2.352C5.482-.78,10.576-.778,13.707,2.352l.707.707L3.059,14.414l-.707-.707Zm.148,4.293c-.828,0-1.5.672-1.5,1.5s.672,1.5,1.5,1.5,1.5-.672,1.5-1.5-.672-1.5-1.5-1.5Zm10-7c-.828,0-1.5.672-1.5,1.5s.672,1.5,1.5,1.5,1.5-.672,1.5-1.5-.672-1.5-1.5-1.5Zm8-6c.828,0,1.5-.672,1.5-1.5s-.672-1.5-1.5-1.5-1.5.672-1.5,1.5.672,1.5,1.5,1.5Zm1.793,1.152c-2.45,2.449-4.934,2.449-7.383,0l-1.414,1.414c1.623,1.622,3.363,2.434,5.105,2.434s3.483-.812,5.105-2.434l-1.414-1.414Zm-14.727,7.248l-1.414,1.414c.934.934,1.521,1.889,1.745,2.838.354,1.503-.232,3.032-1.745,4.545l1.414,1.414c2.536-2.536,2.638-4.891,2.277-6.419-.311-1.316-1.077-2.593-2.277-3.792Zm8.395,1.836l-1.292,1.527c.013.011,1.266,1.111,1.329,2.618.041.969-.427,1.948-1.39,2.911l1.414,1.414c1.375-1.374,2.039-2.857,1.974-4.408-.1-2.398-1.956-3.995-2.035-4.062Zm6.539-2.236c-.828,0-1.5.672-1.5,1.5s.672,1.5,1.5,1.5,1.5-.672,1.5-1.5-.672-1.5-1.5-1.5Zm0,8c-.828,0-1.5.672-1.5,1.5s.672,1.5,1.5,1.5,1.5-.672,1.5-1.5-.672-1.5-1.5-1.5Z"/></svg>
