<?xml version="1.0" encoding="UTF-8"?>
<svg xmlns="http://www.w3.org/2000/svg" id="Layer_1" data-name="Layer 1" viewBox="0 0 24 24" width="512" height="512"><path d="M14,12c0,1.1-.9,2-2,2s-2-.9-2-2,.9-2,2-2,2,.9,2,2ZM20.49,3.51l-1.41,1.41c3.9,3.9,3.9,10.24,0,14.14l1.41,1.41c4.68-4.68,4.68-12.29,0-16.97Zm-4.95,4.95c.94,.94,1.46,2.2,1.46,3.54s-.52,2.59-1.46,3.54l1.41,1.41c1.32-1.32,2.05-3.08,2.05-4.95s-.73-3.63-2.05-4.95l-1.41,1.41ZM3.51,3.51C-1.16,8.19-1.16,15.81,3.51,20.49l1.41-1.41c-3.9-3.9-3.9-10.24,0-14.14l-1.41-1.41Zm3.54,3.54c-2.73,2.73-2.73,7.17,0,9.9l1.41-1.41c-1.95-1.95-1.95-5.12,0-7.07l-1.41-1.41Z"/></svg>
