<?xml version="1.0" encoding="UTF-8"?>
<svg xmlns="http://www.w3.org/2000/svg" id="Layer_1" data-name="Layer 1" viewBox="0 0 24 24">
  <path d="m8.9,13.5c0,.496-.404.9-.9.9h-.9v-1.8h.9c.496,0,.9.404.9.9Zm-.5-3.2c0-.386-.314-.7-.7-.7h-.6v1.4h.6c.386,0,.7-.314.7-.7Zm8.3-.7c-.386,0-.7.314-.7.7v3.4c0,.386.314.7.7.7s.7-.314.7-.7v-3.4c0-.386-.314-.7-.7-.7Zm7.3,2.4c0,6.617-5.383,12-12,12S0,18.617,0,12,5.383,0,12,0s12,5.383,12,12Zm-13.5,1.5c0-.768-.355-1.447-.901-1.906.252-.369.401-.814.401-1.294,0-1.269-1.031-2.3-2.3-2.3h-2.2v8h2.5c1.379,0,2.5-1.121,2.5-2.5Zm2.5-5.5h-1.6v8h1.6v-8Zm6,2.3c0-1.269-1.031-2.3-2.3-2.3s-2.3,1.031-2.3,2.3v3.4c0,1.269,1.031,2.3,2.3,2.3s2.3-1.031,2.3-2.3v-3.4Z"/>
</svg>
