<?xml version="1.0" encoding="UTF-8"?>
<svg xmlns="http://www.w3.org/2000/svg" id="Layer_1" data-name="Layer 1" viewBox="0 0 24 24">
  <path d="m22,3v.027c-1.413,5.194-5.261,7.009-8,7.641v-1.668h-2v1.973c-.237.017-.421.024-.577.027h-.08c-.18-.003-.306-.001-.361,0h-.982v-2h-2v2h-2v-2h-2v2H0v2h3.026c-.635.838-1.026,1.87-1.026,3,0,2.757,2.243,5,5,5h4c2.757,0,5-2.243,5-5,0-.808-.211-1.561-.553-2.237,2.508.908,5.376,2.881,6.549,7.192h.004s0,.045,0,.045h2V3h-2Zm-11,16h-4c-1.654,0-3-1.346-3-3s1.346-3,3-3h4c1.654,0,3,1.346,3,3s-1.346,3-3,3Z"/>
</svg>
