<?xml version="1.0" encoding="UTF-8"?>
<svg xmlns="http://www.w3.org/2000/svg" id="Layer_1" data-name="Layer 1" viewBox="0 0 24 24" width="512" height="512"><path d="M13.02,15.49c.63,.57,.98,1.38,.98,2.22v6.29H4.16l-3.12-3.41c-.67-.74-1.05-1.7-1.05-2.7V5.5c0-1.47,1.26-2.64,2.76-2.49,1.3,.13,2.24,1.32,2.24,2.63v3.95s-.76,.62-.91,.78c-1.4,1.54-1.45,3.91-.13,5.52l3.44,3.47,1.4-1.4-3.24-3.27c-.6-.73-.75-1.77-.27-2.59,.74-1.25,2.39-1.46,3.41-.53l4.32,3.92Zm.36-7.49h-2.38c-.55,0-1-.45-1-1h-2c0,1.65,1.35,3,3,3v1h2v-1h.38c1.45,0,2.62-1.18,2.62-2.62,0-1.29-.92-2.38-2.19-2.59l-3.28-.55c-.3-.05-.52-.31-.52-.62,0-.34,.28-.62,.62-.62h2.38c.55,0,1,.45,1,1h2c0-1.65-1.35-3-3-3V0h-2V1h-.38c-1.45,0-2.62,1.18-2.62,2.62,0,1.29,.92,2.38,2.19,2.59l3.28,.55c.3,.05,.52,.31,.52,.62,0,.34-.28,.62-.62,.62Zm5.33,4.1c-.74-1.25-2.39-1.46-3.41-.53l-1.81,1.65,.87,.79c.92,.83,1.46,1.99,1.59,3.21l2.49-2.53c.6-.73,.75-1.77,.27-2.59Zm2.79-9.1c-1.38,0-2.5,1.12-2.5,2.5v4.1s.76,.62,.91,.78c1.4,1.54,1.45,3.91,.13,5.52l-4.03,4.09v4.02h3.84l3.12-3.41c.67-.74,1.05-1.7,1.05-2.7V5.5c0-1.38-1.12-2.5-2.5-2.5Z"/></svg>
