<?xml version="1.0" encoding="UTF-8"?>
<svg xmlns="http://www.w3.org/2000/svg" id="Layer_1" data-name="Layer 1" viewBox="0 0 24 24">
  <path d="m8,8H0V0h8v8Zm10,0h-8V0h8v8Zm-5-3h2v-2h-2v2Zm2,11.462l9,3.538v4H7.538l-1.821-1.628c-.917-.858-.96-2.307-.098-3.23.861-.922,2.313-.97,3.235-.109.034.032,1.069.898,2.145,1.784v-8.817c0-1.215,1.083-2.176,2.336-1.973.983.16,1.664,1.083,1.664,2.08v4.355Zm-10.842,1.315c1.017-1.088,2.472-1.527,3.842-1.299v-6.477H0v8h3.963c.062-.076.127-.151.195-.224Z"/>
</svg>
