<?xml version="1.0" encoding="UTF-8"?>
<svg xmlns="http://www.w3.org/2000/svg" id="Layer_1" data-name="Layer 1" viewBox="0 0 24 24" width="512" height="512"><polygon points="7.405 11.467 9.283 11.467 8.344 9.926 7.405 11.467"/><polygon points="12 3.923 11.06 5.467 12.94 5.467 12 3.923"/><polygon points="13.549 6.467 10.451 6.467 8.929 8.965 10.455 11.467 13.545 11.467 15.071 8.965 13.549 6.467"/><polygon points="9.279 6.467 7.406 6.467 8.343 8.004 9.279 6.467"/><polygon points="12 14.001 12.936 12.467 11.064 12.467 12 14.001"/><polygon points="14.717 11.467 16.595 11.467 15.656 9.926 14.717 11.467"/><path d="m20,20H2v4h18c1.105,0,2-.895,2-2s-.895-2-2-2Z"/><path d="m22,18.765V3c0-1.657-1.343-3-3-3H4c-1.105,0-2,.895-2,2v16h18c.738-.001,1.451.271,2,.765Zm-3.625-6.298h-4.268l-2.107,3.455-2.107-3.455h-4.268l2.133-3.502-2.133-3.498h4.264l2.112-3.467,2.112,3.467h4.264l-2.133,3.498,2.133,3.502Z"/><polygon points="14.721 6.467 15.657 8.004 16.594 6.467 14.721 6.467"/></svg>
