<?xml version="1.0" encoding="UTF-8"?>
<svg xmlns="http://www.w3.org/2000/svg" id="Layer_1" data-name="Layer 1" viewBox="0 0 24 24" width="512" height="512"><rect x="21" y="5" width="3" height="2"/><rect x="17.925" y="12.819" width="1.999" height="3" transform="translate(-4.803 14.711) rotate(-38.06)"/><rect x="20.693" y="9.263" width="2" height="3.001" transform="translate(1.668 24.381) rotate(-60.607)"/><polygon points="5.993 9.395 0 21.261 5.398 24 11.391 12.132 5.993 9.395"/><path d="M17.7,10.844l1.583-3.121c.499-.983,.104-2.189-.879-2.688L9.864,.702C6.67-.918,2.749,.361,1.127,3.558l-.453,.892,14.337,7.272c.289,.146,.597,.216,.901,.216,.729,0,1.435-.4,1.787-1.095Z"/></svg>
