<?xml version="1.0" encoding="UTF-8"?>
<svg xmlns="http://www.w3.org/2000/svg" id="Layer_1" data-name="Layer 1" viewBox="0 0 24 24">
  <path d="m23.992,15.968l-.016,8.045-5.976-.017v-3.997h-7v4h-6v-8.036c.467-.067.923-.271,1.315-.625l1.319-1.194c.213-.192.394-.192.605,0l1.321,1.196c.968.875,2.32.874,3.289,0l1.319-1.194c.213-.191.395-.192.605,0l1.321,1.196c.484.438,1.063.655,1.644.655s1.161-.219,1.645-.656l1.32-1.194c.213-.192.394-.192.605,0l1.321,1.196c.406.366.88.569,1.365.629ZM2.097,9.962c.622.293,1.983.57,2.903.735v3.134l1.292-1.17c.969-.875,2.321-.876,3.289,0l1.321,1.196c.213.192.394.192.605,0l1.319-1.194c.969-.875,2.32-.874,3.289,0l1.321,1.196c.212.192.393.192.605,0l1.319-1.194c.969-.875,2.321-.876,3.289,0l1.321,1.196c.009.008.018.011.027.019l.004-1.875c0-2.757-2.243-5-5-5h-7v-.5c0-1.069-.38-2.029-1-2.793v-.707c0-1.657-1.343-3-3-3v2.051c-.048-.006-.093-.022-.142-.027l-.5-.024v.019c-.439.026-1.044.086-1.437.211l-3.667,1.324c-.864.311-1.556.939-1.948,1.77-.392.831-.436,1.764-.125,2.628.312.871.975,1.566,1.916,2.011Z"/>
</svg>
