<?xml version="1.0" encoding="UTF-8"?>
<svg xmlns="http://www.w3.org/2000/svg" id="Layer_1" data-name="Layer 1" viewBox="0 0 24 24" width="512" height="512"><path d="M22.858,22.871l.142,1.129-3-1-3,1,.142-1.129c.136-1.079,.705-1.99,1.243-2.64-1.004-1.016-2.385-2.791-2.385-4.892,0-3.227,3.263-5.698,3.402-5.802l.598-.446,.598,.446c.139,.104,3.402,2.575,3.402,5.802,0,2.101-1.382,3.877-2.385,4.892,.538,.65,1.108,1.561,1.243,2.64Zm-14.858-7.871c0,1.654-1.346,3-3,3-.352,0-.686-.072-1-.184v4.184c0,1.103-.897,2-2,2s-2-.897-2-2v-6c0-.775,.448-1.441,1.094-1.773C1.6,9.366,4.582,0,20,0h1V8h-2V2.015C7.909,2.335,4.416,8.003,3.394,12.475c.465-.297,1.014-.475,1.606-.475,1.654,0,3,1.346,3,3Zm-2,0c0-.552-.449-1-1-1s-1,.448-1,1,.449,1,1,1,1-.448,1-1Z"/></svg>
