<?xml version="1.0" encoding="UTF-8"?>
<svg xmlns="http://www.w3.org/2000/svg" id="Layer_1" data-name="Layer 1" viewBox="0 0 24 24">
  <path d="m14.393,12.979l9.564,9.564-1.414,1.414L.043,1.457,1.457.043l9.59,9.59c-.52-.976-1.064-2.164-1.064-2.885,0-1.381,2.5-4.705,2.5-4.705,0,0,.384.512.851,1.216L16.603-.01l1.414,1.414-3.623,3.623c.34.657.589,1.286.589,1.721,0,.37-.075.725-.187,1.068L22.569.043l1.414,1.414-7.773,7.773c.342-.112.698-.187,1.068-.187.43,0,1.048.242,1.695.576l3.629-3.629,1.414,1.414-3.272,3.272c.715.473,1.239.866,1.239.866,0,0-3.324,2.5-4.705,2.5-.721,0-1.909-.544-2.885-1.064Zm-9.41-1.231c0,1.087,1.236,3.245,1.764,4.117l-1.951,1.951c.112-.342.187-.698.187-1.068,0-1.381-2.5-4.705-2.5-4.705C2.483,12.043-.017,15.367-.017,16.748c0,1.087,1.236,3.245,1.764,4.117L.026,22.586l1.414,1.414,1.721-1.721c.872.528,3.03,1.764,4.117,1.764,1.381,0,4.705-2.5,4.705-2.5,0,0-3.324-2.5-4.705-2.5-.37,0-.725.075-1.068.187l1.951-1.951c.872.528,3.03,1.764,4.117,1.764.463,0,1.145-.283,1.847-.657L5.641,9.901c-.374.702-.657,1.384-.657,1.847Z"/>
</svg>
