<?xml version="1.0" encoding="UTF-8"?>
<svg xmlns="http://www.w3.org/2000/svg" id="Layer_1" data-name="Layer 1" viewBox="0 0 24 24">
  <path d="m23.676,7.02h-2.06c.585-1.957.48-3.513-.312-4.305-.456-.456-1.166-.685-2.06-.685-2.669,0-6.981,2.038-11.088,6.146-.555.555-1.062,1.113-1.541,1.671l-.606-2.317c.241-.257.479-.515.732-.768C12.752.754,19.77-1.646,22.719,1.301c1.278,1.278,1.548,3.324.957,5.719Zm-5.178-2.5l1.176,4.5h4.326v.917l-3.3,1.909,1.326,4.029-.75.523-3.261-2.521-3.275,2.532-.721-.543,1.304-4.076-3.323-1.848v-.922h4.35l1.178-4.5h.97Zm1.002,14.5c-.828,0-1.5.672-1.5,1.5s.672,1.5,1.5,1.5,1.5-.672,1.5-1.5-.672-1.5-1.5-1.5ZM1.5,3.02c-.828,0-1.5.672-1.5,1.5s.672,1.5,1.5,1.5,1.5-.672,1.5-1.5-.672-1.5-1.5-1.5ZM6.5.02c-.828,0-1.5.672-1.5,1.5s.672,1.5,1.5,1.5,1.5-.672,1.5-1.5S7.328.02,6.5.02Zm1.5,12.668l-2.839-.829-.829-2.839h-.647l-.841,2.837-2.844.831v.647l2.843.842.842,2.843h.647l.831-2.844,2.837-.841v-.647Zm5.487,5.29c-2.32,1.87-4.591,3.084-6.487,3.653-1.957.585-3.537.51-4.328-.281-.456-.456-.685-1.166-.685-2.06,0-.23.036-.487.066-.74l-.819-2.764-.495-.147c-1.089,2.992-1.002,5.602.519,7.124,1.278,1.278,3.347,1.521,5.742.93,2.486-.615,5.347-2.157,8.127-4.473l-1.639-1.243Z"/>
</svg>
