<?xml version="1.0" encoding="UTF-8"?>
<svg xmlns="http://www.w3.org/2000/svg" id="Layer_1" data-name="Layer 1" viewBox="0 0 24 24">
  <path d="m23.414,17.414l-3.75,3.75-1.414-1.414,2.75-2.75h-3.5c-1.379,0-2.5,1.121-2.5,2.5v4.5h-2v-4.5c0-2.481,2.019-4.5,4.5-4.5h3.5l-2.75-2.75,1.414-1.414,3.75,3.75c.78.779.78,2.049,0,2.828ZM2,6C2,2.691,4.691,0,8,0s6,2.691,6,6-2.691,6-6,6-6-2.691-6-6Zm9,13.5c0-2.039.944-3.862,2.418-5.054-.584-.278-1.229-.446-1.918-.446h-7c-2.481,0-4.5,2.019-4.5,4.5v5.5h11v-4.5Z"/>
</svg>
