<?xml version="1.0" encoding="UTF-8"?>
<svg xmlns="http://www.w3.org/2000/svg" id="Layer_1" data-name="Layer 1" viewBox="0 0 24 24" width="512" height="512"><path d="M17.109,7c.689,0,1.288,.468,1.455,1.137l.216,.863h.386c1.215,0,2.302,.725,2.77,1.847,0,0,1.271,3.077,1.301,3.153H8.763c.03-.076,1.302-3.154,1.302-3.154,.467-1.122,1.554-1.846,2.769-1.846h.386l.216-.863c.167-.669,.766-1.137,1.455-1.137h2.219Zm.891-2.816c0-1.147-.664-2.208-1.692-2.701-1.41-.676-3.65-1.482-6.308-1.482S5.102,.806,3.691,1.483c-1.027,.493-1.691,1.553-1.691,2.701v.816H18v-.816ZM2,19h2v2h2v-4c.08-1.008,.328-2.039,.639-3H2v5Zm22-1v4h-2v2h-4v-2h-4v2h-4v-2h-2v-4c0-.676,.068-1.343,.189-2h15.622c.121,.657,.189,1.324,.189,2Zm-11,.994c0-.549-.445-.994-.994-.994h-.012c-.549,0-.994,.445-.994,.994v.013c0,.549,.445,.994,.994,.994h.012c.549,0,.994-.445,.994-.994v-.013Zm8,0c0-.549-.445-.994-.994-.994h-.012c-.549,0-.994,.445-.994,.994v.013c0,.549,.445,.994,.994,.994h.012c.549,0,.994-.445,.994-.994v-.013ZM11.666,7.15c.021-.051,.046-.101,.069-.15H2v1H0v2c0,1.105,.895,2,2,2H7.417l.801-1.923c.624-1.499,1.917-2.56,3.448-2.926Z"/></svg>
