<?xml version="1.0" encoding="UTF-8"?>
<svg xmlns="http://www.w3.org/2000/svg" id="Layer_1" data-name="Layer 1" viewBox="0 0 24 24">
  <path d="m17.738,16.334c1.412-1.725,2.262-3.927,2.262-6.324C20,4.496,15.514.01,10,.01S0,4.496,0,10.01s4.486,10,10,10c2.398,0,4.6-.85,6.324-2.262l6.251,6.251,1.414-1.414-6.251-6.251Zm-6.738-1.334h-2v-2h2v2Zm.379-4.335c-.227.118-.379.425-.379.765v.571h-2v-.571c0-1.1.559-2.073,1.458-2.54.335-.173.542-.514.542-.889,0-.551-.448-1-1-1s-1,.449-1,1h-2c0-1.654,1.346-3,3-3s3,1.346,3,3c0,1.125-.621,2.146-1.621,2.665Z"/>
</svg>
