<?xml version="1.0" encoding="UTF-8"?>
<svg xmlns="http://www.w3.org/2000/svg" id="Layer_1" data-name="Layer 1" viewBox="0 0 24 24">
  <path d="m21,21v3H3v-3c0-2.276,1.502-4.231,3.677-4.823l5.323,5.323,5.323-5.323c2.175.592,3.677,2.546,3.677,4.823Zm-3.002-11.854c-.078,3.241-2.738,5.854-5.998,5.854s-5.92-2.613-5.998-5.854c1.068.36,3.068.854,5.998.854s4.93-.494,5.998-.854ZM13.698.209c-1.115-.279-2.281-.279-3.396,0l-6.302,1.791v3l2,1v1s2,1,6,1,6-1,6-1v-1l2-1v-3L13.698.209Zm.302,3.856c0,1.513-1.459,2.218-1.907,2.397l-.093.037-.089-.045c-.448-.224-1.911-1.059-1.911-2.39v-1.45c0-.191.122-.36.304-.421l1.696-.562,1.696.562c.182.06.304.229.304.421v1.45Z"/>
</svg>
