<?xml version="1.0" encoding="UTF-8"?>
<svg xmlns="http://www.w3.org/2000/svg" id="Layer_1" data-name="Layer 1" viewBox="0 0 24 24">
  <path d="m20,10h-2V0h2l4,2.5-4,2.5v5Zm0,4h-7c-1.103,0-2-.897-2-2s.897-2,2-2h3v-2h-3c-2.206,0-4,1.794-4,4s1.794,4,4,4h7c1.103,0,2,.897,2,2s-.897,2-2,2h-6v2h6c2.206,0,4-1.794,4-4s-1.794-4-4-4Zm-8,6.5v1.5h-2.018c.012.082.018.165.018.25,0,.966-.784,1.75-1.75,1.75s-1.75-.784-1.75-1.75c0-.085.006-.168.018-.25h-2.036c.012.082.018.165.018.25,0,.966-.784,1.75-1.75,1.75s-1.75-.784-1.75-1.75c0-.085.006-.168.018-.25H0v-4.5c0-1.378,1.122-2.5,2.5-2.5h3.197c.838,0,1.615.416,2.08,1.113l1.924,2.887h.798c.828,0,1.5.672,1.5,1.5Zm-10-1.5h5.298l-1.185-1.777c-.093-.14-.249-.223-.416-.223h-3.197c-.276,0-.5.224-.5.5v1.5Z"/>
</svg>
