<?xml version="1.0" encoding="UTF-8"?>
<svg xmlns="http://www.w3.org/2000/svg" id="Layer_1" data-name="Layer 1" viewBox="0 0 24 24">
  <path d="m24,19v5H0v-5h2v-3c0-1.657,1.343-3,3-3h.763c.651.811,1.454,1.492,2.369,2h-3.132c-.552,0-1,.448-1,1v3h3v3h2v-3h2v3h2v-3h2v3h2v-3h3v-3c0-.552-.448-1-1-1h-3.132c.915-.508,1.718-1.189,2.369-2h.763c1.657,0,3,1.343,3,3v3h2ZM6,8c0-1.725,1-3.06,1.995-4.087,0,0,.681,2.087,1.287,2.087,1.263,0,.897-3.898,2.718-6,1.895,1.895,6,4.526,6,8,0,3.314-2.686,6-6,6s-6-2.686-6-6Zm4.585,3.414c.781.781,2.048.781,2.829,0s.781-2.048,0-2.829h0l-1.415-1.415-1.415,1.415c-.781.781-.781,2.048,0,2.829Z"/>
</svg>
