<?xml version="1.0" encoding="UTF-8"?>
<svg xmlns="http://www.w3.org/2000/svg" id="Layer_1" data-name="Layer 1" viewBox="0 0 24 24">
  <path d="m17,1.5c0-.828.672-1.5,1.5-1.5s1.5.672,1.5,1.5-.672,1.5-1.5,1.5-1.5-.672-1.5-1.5Zm5.5,2.5c-.828,0-1.5.672-1.5,1.5s.672,1.5,1.5,1.5,1.5-.672,1.5-1.5-.672-1.5-1.5-1.5Zm-12.793,11.707l-1.414-1.414,8.218-8.218c-1.604-1.295-3.641-2.075-5.859-2.075-.737,0-1.502.112-2.272.335l-.718.207-.005.748c-.008,1.255-.5,2.435-1.388,3.322-1.073,1.073-2.606,1.57-4.112,1.326l-.711-.115-.334.639c-.728,1.39-1.112,2.839-1.112,4.19,0,2.218.78,4.255,2.075,5.859l3.718-3.718,1.414,1.414-3.718,3.718c1.604,1.295,3.641,2.075,5.859,2.075,1.368,0,2.834-.394,4.238-1.138l.661-.351-.15-.733c-.32-1.567.162-3.177,1.291-4.305.903-.903,2.095-1.382,3.38-1.388l.784.005.192-.76c.17-.672.256-1.339.256-1.983,0-2.218-.78-4.255-2.075-5.859l-8.218,8.218Zm8.218-8.218l6.064-6.064L22.575.011l-6.064,6.064c.52.42.994.894,1.414,1.414ZM2.075,20.511L.036,22.55l1.414,1.414,2.039-2.039c-.52-.42-.994-.894-1.414-1.414Z"/>
</svg>
