<?xml version="1.0" encoding="UTF-8"?>
<svg xmlns="http://www.w3.org/2000/svg" id="Layer_1" data-name="Layer 1" viewBox="0 0 24 24" width="512" height="512"><path d="M12,0C5.383,0,0,5.383,0,12s5.383,12,12,12,12-5.383,12-12S18.617,0,12,0Zm-3.892,4.784l.784,1.84c-1.282,.546-2.364,1.441-3.048,2.521l-1.689-1.07c.912-1.438,2.279-2.576,3.953-3.29Zm-1.827,5.521c.399,.396,.969,.653,1.525,.691,.653,.039,1.23-.195,1.737-.707l1.422,1.406c-.839,.848-1.902,1.305-3.018,1.305-.091,0-.183-.003-.274-.009-1.038-.069-2.058-.53-2.799-1.265l1.407-1.422Zm5.719,8.694c-3.107,0-5.563-2.162-5.666-2.254l1.33-1.493c.02,.017,2.005,1.747,4.336,1.747s4.316-1.73,4.336-1.747l1.33,1.493c-.103,.092-2.559,2.254-5.666,2.254Zm4.135-6.027c-1.044,0-2.119-.39-3.017-1.297l1.422-1.406c1.188,1.202,2.598,.668,3.256,.02l1.406,1.422c-.792,.782-1.91,1.262-3.068,1.262Zm1.96-3.921c-.695-1.052-1.729-1.892-2.988-2.428l.784-1.84c1.621,.69,2.959,1.785,3.872,3.164l-1.668,1.104Z"/></svg>
