<?xml version="1.0" encoding="UTF-8"?>
<svg xmlns="http://www.w3.org/2000/svg" id="Layer_1" data-name="Layer 1" viewBox="0 0 24 24">
  <path d="m11.566,13.848l5.434-5.434v7.086c0,4.687-3.813,8.5-8.5,8.5-2.27,0-4.404-.884-6.01-2.489-1.605-1.605-2.49-3.74-2.49-6.011C0,10.813,3.813,7,8.5,7h7.086l-5.434,5.434c-.494-.268-1.052-.434-1.652-.434-1.93,0-3.5,1.57-3.5,3.5s1.57,3.5,3.5,3.5,3.5-1.57,3.5-3.5c0-.601-.166-1.158-.434-1.652Zm-3.066.152c-.827,0-1.5.673-1.5,1.5s.673,1.5,1.5,1.5,1.5-.673,1.5-1.5-.673-1.5-1.5-1.5ZM24.001,3.181L20.819-.001l-2.819,2.001-.323,2.909-2.091,2.091,1.414,1.414,2.091-2.091,2.909-.323,2.001-2.819Z"/>
</svg>
