<?xml version="1.0" encoding="UTF-8"?>
<svg xmlns="http://www.w3.org/2000/svg" id="Layer_1" data-name="Layer 1" viewBox="0 0 24 24" width="512" height="512"><path d="M19.97,12.502c-.212,0-.424,.081-.585,.242l-4.377,4.377v-1.119c0-.552-.448-1-1-1s-1,.448-1,1v3.58c0,.811,.186,1.625,.612,2.316,.863,1.401,2.292,2.102,3.722,2.102,1.11,0,2.219-.422,3.064-1.267,0,0,3.424-3.441,3.426-3.47,.24-.324,.228-.777-.066-1.071-.162-.162-.373-.242-.585-.242s-.424,.081-.585,.242l-1.84,1.84-.985-.985,3.631-3.631c.323-.323,.323-.847,0-1.171-.162-.162-.374-.242-.585-.242s-.424,.081-.585,.242l-3.634,3.634-1.002-1.002,2.961-2.961c.323-.323,.323-.847,0-1.171-.162-.162-.373-.242-.585-.242h0Zm-15.903,0c-.212,0-.424,.081-.585,.242-.323,.323-.323,.847,0,1.171l2.961,2.961-1.002,1.002-3.634-3.634c-.162-.162-.373-.242-.585-.242s-.424,.081-.585,.242c-.323,.323-.323,.847,0,1.171l3.631,3.631-.985,.985-1.84-1.84c-.162-.162-.374-.242-.585-.242s-.424,.081-.585,.242c-.294,.294-.307,.747-.066,1.071,.003,.029,3.426,3.47,3.426,3.47,.845,.845,1.954,1.267,3.064,1.267,1.43,0,2.858-.701,3.722-2.102,.425-.69,.612-1.505,.612-2.316v-3.58c0-.552-.448-1-1-1s-1,.448-1,1v1.119s-4.377-4.377-4.377-4.377c-.162-.162-.374-.242-.585-.242h0Zm-2.509-.48c.132-.252,.302-.485,.509-.691,1.068-1.068,2.931-1.068,3.999,0l2.227,2.226c.49-.349,1.09-.555,1.736-.555,.773,0,1.471,.302,2.004,.784,.532-.482,1.231-.784,2.004-.784,.646,0,1.246,.206,1.736,.555l2.227-2.226c1.063-1.067,2.933-1.069,4.001,.002,.206,.206,.375,.438,.507,.689,.507-.058,1.014,.038,1.478,.242,.002-.089,.013-.175,.013-.264C24,5.373,18.627,0,12,0S0,5.373,0,12c0,.1,.012,.196,.015,.295,.481-.228,1.014-.335,1.544-.273ZM16,3c1.768,0,3,2.108,3,4h-2c0-1.054-.679-2-1-2s-1,.946-1,2h-2c0-1.892,1.232-4,3-4Zm.336,5.252l1.33,1.493c-.103,.092-2.559,2.254-5.666,2.254s-5.563-2.162-5.666-2.254l1.33-1.493c.02,.018,2.005,1.748,4.336,1.748s4.316-1.73,4.336-1.748ZM8,3c1.768,0,3,2.108,3,4h-2c0-1.054-.679-2-1-2s-1,.946-1,2h-2c0-1.892,1.232-4,3-4Z"/></svg>
