<?xml version="1.0" encoding="UTF-8"?>
<svg xmlns="http://www.w3.org/2000/svg" id="Layer_1" data-name="Layer 1" viewBox="0 0 24 24">
  <path d="m12,5.635c0,1.858-1.567,3.365-3.5,3.365s-3.5-1.507-3.5-3.365C5,3.391,8.5.138,8.5.138c0,0,3.5,3.254,3.5,5.497Zm11.338,6.71l-10.674,11.655H3c-1.654,0-3-1.346-3-3v-7c0-1.654,1.346-3,3-3h8.787c1.22,0,2.213.993,2.213,2.213,0,1.094-.816,2.036-1.9,2.191l-4.241.606.283,1.979,4.241-.606c2.062-.294,3.617-2.087,3.617-4.17,0-.219-.032-.429-.065-.638l3.541-3.737c.455-.5,1.097-.803,1.794-.835.692-.034,1.363.209,1.878.678,1.052.958,1.138,2.602.189,3.665Z"/>
</svg>
