<?xml version="1.0" encoding="UTF-8"?>
<svg xmlns="http://www.w3.org/2000/svg" id="Layer_1" data-name="Layer 1" viewBox="0 0 24 24" width="512" height="512"><path d="m12,6c-1.654,0-3,1.346-3,3,0,1.304.836,2.415,2,2.828v12.172h2v-12.172c1.164-.413,2-1.524,2-2.828,0-1.654-1.346-3-3-3Zm-3.536-.46c-.944.944-1.464,2.2-1.464,3.536s.52,2.591,1.464,3.536l-1.414,1.414c-1.322-1.322-2.05-3.08-2.05-4.95s.728-3.627,2.05-4.95l1.414,1.414Zm8.485-1.414c1.322,1.322,2.05,3.08,2.05,4.95s-.728,3.628-2.05,4.95l-1.414-1.414c.944-.944,1.464-2.2,1.464-3.536s-.52-2.591-1.464-3.536l1.414-1.414ZM4.929,2.004c-3.898,3.899-3.898,10.243,0,14.142l-1.414,1.414C-1.164,12.882-1.164,5.269,3.515.59l1.414,1.414Zm15.557,15.556l-1.414-1.414c3.898-3.899,3.898-10.243,0-14.142l1.414-1.414c4.679,4.678,4.679,12.292,0,16.97Z"/></svg>
