<?xml version="1.0" encoding="UTF-8"?>
<svg xmlns="http://www.w3.org/2000/svg" id="Layer_1" data-name="Layer 1" viewBox="0 0 24 24">
  <path d="m12,14c-1.103,0-2,.897-2,2s.897,2,2,2,2-.897,2-2-.897-2-2-2Zm12-3v13H0v-13c0-1.654,1.346-3,3-3h12v4h3.092c-.056.157-.092.324-.092.5,0,.828.672,1.5,1.5,1.5s1.5-.672,1.5-1.5v-4.5c1.654,0,3,1.346,3,3ZM6,19.5c0-.828-.672-1.5-1.5-1.5s-1.5.672-1.5,1.5.672,1.5,1.5,1.5,1.5-.672,1.5-1.5Zm0-7c0-.828-.672-1.5-1.5-1.5s-1.5.672-1.5,1.5.672,1.5,1.5,1.5,1.5-.672,1.5-1.5Zm10,3.5c0-2.206-1.794-4-4-4s-4,1.794-4,4,1.794,4,4,4,4-1.794,4-4Zm5,3.5c0-.828-.672-1.5-1.5-1.5s-1.5.672-1.5,1.5.672,1.5,1.5,1.5,1.5-.672,1.5-1.5Zm-.454-14.98l-1.546-1.546v7.026h-2V2.941l-1.538,1.538-1.414-1.414,2.449-2.449c.821-.819,2.155-.818,2.973,0l2.49,2.49-1.414,1.414Z"/>
</svg>
