<?xml version="1.0" encoding="UTF-8"?>
<svg xmlns="http://www.w3.org/2000/svg" id="Layer_1" data-name="Layer 1" viewBox="0 0 24 24">
  <path d="m17,23.414v-4.414h4.414l-4.414,4.414ZM2,0v21c0,1.657,1.343,3,3,3h10v-7h7V0H2Zm8,6h-1.6v-.5c0-.496-.404-.9-.9-.9s-.9.404-.9.9v3c0,.496.404.9.9.9s.9-.404.9-.9v-.5h1.6v.5c0,1.381-1.119,2.5-2.5,2.5s-2.5-1.119-2.5-2.5v-3c0-1.381,1.119-2.5,2.5-2.5s2.5,1.119,2.5,2.5v.5Zm5.006,3.425c-.126.647-.673,1.575-1.628,1.575s-1.51-.97-1.618-1.531l-1.268-6.213h1.633l1.202,5.893c.013.065.031.117.05.159.02-.047.042-.109.057-.188l1.182-5.864h1.632l-1.244,6.169Z"/>
</svg>
