<?xml version="1.0" encoding="UTF-8"?>
<svg xmlns="http://www.w3.org/2000/svg" id="Layer_1" data-name="Layer 1" viewBox="0 0 24 24" width="512" height="512"><path d="M24,4c0-2.206-1.794-4-4-4s-4,1.794-4,4c0,1.858,1.28,3.411,3,3.858v2.142c0,.551-.449,1-1,1H6c-.351,0-.687,.061-1,.171v-3.313c1.72-.447,3-2,3-3.858C8,1.794,6.206,0,4,0S0,1.794,0,4c0,1.858,1.28,3.411,3,3.858v8.284c-1.72,.447-3,2-3,3.858,0,2.206,1.794,4,4,4s4-1.794,4-4c0-1.858-1.28-3.411-3-3.858v-2.142c0-.551,.449-1,1-1h12c1.654,0,3-1.346,3-3v-2.142c1.72-.447,3-2,3-3.858Z"/></svg>
