<?xml version="1.0" encoding="UTF-8"?>
<svg xmlns="http://www.w3.org/2000/svg" id="Layer_1" data-name="Layer 1" viewBox="0 0 24 24">
  <path d="m7.942,20c.034.162.058.328.058.5,0,1.381-1.119,2.5-2.5,2.5s-2.5-1.119-2.5-2.5c0-.172.024-.338.058-.5h4.885Zm9.115,0c-.034.162-.058.328-.058.5,0,1.381,1.119,2.5,2.5,2.5s2.5-1.119,2.5-2.5c0-.172-.024-.338-.058-.5h-4.885Zm-2.058-16v14H0V4C0,2.343,1.343,1,3,1h9c1.657,0,3,1.343,3,3Zm-4.208,5.642c-.244-.382-.659-.609-1.112-.609h-3.209l2.226-4.051-1.753-.963-2.803,5.103c-.206.412-.185.893.058,1.284.243.393.663.627,1.124.627h3.156l-2.367,3.954,1.717,1.027,3.049-5.105c.19-.411.159-.885-.085-1.267Zm8.208-4.642h-2v6h7v-1c0-2.757-2.243-5-5-5Zm-2,13h7v-5h-7v5Z"/>
</svg>
