<?xml version="1.0" encoding="UTF-8"?>
<svg xmlns="http://www.w3.org/2000/svg" id="Layer_1" data-name="Layer 1" viewBox="0 0 24 24">
  <path d="m20.976.186h-.002c-2.695-.915-5.749,1.661-7.235,4.839-.078-.013-.157-.024-.239-.024-.828,0-1.5.672-1.5,1.5,0,.488.237.917.598,1.191-.582,1.16-1.245,2.08-2.065,2.867-1.132,1.181-2.57,2.05-4.665,2.819-.09.033-.178.073-.268.109-.274-.297-.663-.487-1.1-.487-.828,0-1.5.672-1.5,1.5,0,.143.027.28.064.411-2.172,1.627-3.594,3.952-2.879,6.058.691,2.022,3.354,3.026,6.146,3.026,1.201,0,2.426-.187,3.528-.558.127-.043.25-.093.375-.138.266.42.731.701,1.265.701.828,0,1.5-.672,1.5-1.5,0-.131-.022-.255-.053-.376,3.293-1.697,6.046-4.173,8.049-7.217.158.057.327.093.504.093.828,0,1.5-.672,1.5-1.5,0-.469-.219-.882-.556-1.157.381-.803.719-1.633,1.003-2.491,1.238-3.741.444-8.67-2.472-9.666Zm-8.476,16.814c-.828,0-1.5-.672-1.5-1.5s.672-1.5,1.5-1.5,1.5.672,1.5,1.5-.672,1.5-1.5,1.5Zm6-8c-.828,0-1.5-.672-1.5-1.5s.672-1.5,1.5-1.5,1.5.672,1.5,1.5-.672,1.5-1.5,1.5Z"/>
</svg>
