<?xml version="1.0" encoding="UTF-8"?>
<svg xmlns="http://www.w3.org/2000/svg" id="Layer_1" data-name="Layer 1" viewBox="0 0 24 24">
  <path d="m24,20.5h0s0,.003,0,.004c0,1.381-1.119,2.5-2.5,2.5s-2.5-1.119-2.5-2.5,1.119-2.5,2.5-2.5c.171,0,.338.018.5.05v-5.054l-5,.714v7.79h0c0,1.381-1.119,2.5-2.5,2.5s-2.5-1.119-2.5-2.5,1.119-2.5,2.5-2.5c.171,0,.338.018.5.05v-5.34c0-.989.738-1.84,1.717-1.979l5-.714c.576-.08,1.156.089,1.594.469s.689.93.689,1.51v7.5ZM8,12c3.309,0,6-2.691,6-6S11.309,0,8,0,2,2.691,2,6s2.691,6,6,6Zm5,5.276v-3.276H4.5c-2.481,0-4.5,2.019-4.5,4.5v5.5h10.76c-.479-.715-.76-1.575-.76-2.5,0-1.956,1.256-3.605,3-4.224Z"/>
</svg>
