<?xml version="1.0" encoding="UTF-8"?>
<svg xmlns="http://www.w3.org/2000/svg" id="Layer_1" data-name="Layer 1" viewBox="0 0 24 24">
  <path d="m4.95,10.25c0-.358.292-.65.65-.65s.65.292.65.65-.292.65-.65.65-.65-.292-.65-.65Zm6.65-.65c-.496,0-.9.404-.9.9v3c0,.496.404.9.9.9s.9-.404.9-.9v-3c0-.496-.404-.9-.9-.9Zm-6,3.001c-.496,0-.899.403-.899.899s.403.899.899.899.899-.403.899-.899-.403-.899-.899-.899Zm18.4-.601c0,6.627-5.373,12-12,12S0,18.627,0,12,5.373,0,12,0s12,5.373,12,12Zm-8.9-2.769c0,.69.56,1.25,1.25,1.25s1.25-.56,1.25-1.25-.56-1.25-1.25-1.25-1.25.56-1.25,1.25Zm-7.001,4.27c0-.714-.303-1.355-.784-1.81.329-.391.535-.889.535-1.44,0-1.243-1.007-2.25-2.25-2.25s-2.25,1.007-2.25,2.25c0,.551.206,1.049.535,1.44-.481.456-.784,1.096-.784,1.81,0,1.38,1.119,2.499,2.499,2.499s2.499-1.119,2.499-2.499Zm6.001-3.001c0-1.381-1.119-2.5-2.5-2.5s-2.5,1.119-2.5,2.5v3c0,1.381,1.119,2.5,2.5,2.5s2.5-1.119,2.5-2.5v-3Zm2.778,5.481l5.222-8h-1.911l-5.222,8h1.911Zm5.222-1.25c0-.69-.56-1.25-1.25-1.25s-1.25.56-1.25,1.25.56,1.25,1.25,1.25,1.25-.56,1.25-1.25Z"/>
</svg>
