<?xml version="1.0" encoding="UTF-8"?>
<svg xmlns="http://www.w3.org/2000/svg" id="Layer_1" data-name="Layer 1" viewBox="0 0 24 24">
  <path d="m17.943,7.387l-5.943,3.307-5.943-3.307.819-.468-3.12-2.269c-.37.217-.796.35-1.256.35-1.381,0-2.5-1.119-2.5-2.5S1.119,0,2.5,0s2.5,1.119,2.5,2.5c0,.185-.023.364-.061.537l3.841,2.794,3.22-1.84,3.22,1.84,3.841-2.794c-.038-.173-.061-.352-.061-.537,0-1.381,1.119-2.5,2.5-2.5s2.5,1.119,2.5,2.5-1.119,2.5-2.5,2.5c-.46,0-.886-.133-1.256-.35l-3.12,2.269.819.468Zm-12.943,8.622l1.876,1.072-3.12,2.269c-.37-.217-.796-.35-1.256-.35-1.381,0-2.5,1.119-2.5,2.5s1.119,2.5,2.5,2.5,2.5-1.119,2.5-2.5c0-.185-.023-.364-.061-.537l3.841-2.794,2.22,1.268v-7.01l-6-3.339v6.921Zm16.5,2.991c-.46,0-.886.133-1.256.35l-3.12-2.269,1.876-1.072v-6.921l-6,3.339v7.01l2.22-1.268,3.841,2.794c-.038.173-.061.352-.061.537,0,1.381,1.119,2.5,2.5,2.5s2.5-1.119,2.5-2.5-1.119-2.5-2.5-2.5Z"/>
</svg>
