<?xml version="1.0" encoding="UTF-8"?>
<svg xmlns="http://www.w3.org/2000/svg" id="Layer_1" data-name="Layer 1" viewBox="0 0 24 24" width="512" height="512"><path d="m15.707,6.293c.189.188.293.439.293.707s-.104.518-.293.707l-6.293,6.293h-1.414v-1.415l6.293-6.292c.391-.39,1.023-.39,1.414,0Zm8.293-3.293v17h-6.852l-3.848,3.18c-.361.322-.824.484-1.292.484-.476,0-.955-.168-1.337-.507l-3.749-3.157H0V3C0,1.346,1.346,0,3,0h18c1.654,0,3,1.346,3,3Zm-6,4c0-.801-.313-1.555-.879-2.121-1.17-1.17-3.072-1.17-4.242,0l-6.879,6.878v4.243h4.242l6.879-6.878c.566-.567.879-1.32.879-2.122Z"/></svg>
