<?xml version="1.0" encoding="UTF-8"?>
<svg xmlns="http://www.w3.org/2000/svg" id="Layer_1" data-name="Layer 1" viewBox="0 0 24 24">
  <path d="m12,0C5.383,0,0,5.383,0,12s5.383,12,12,12,12-5.383,12-12S18.617,0,12,0Zm-5,17h-2v-6.456l-.521.576-1.482-1.344,2.517-2.776h1.487v10Zm5,0h-3v-2h3c.552,0,1-.448,1-1s-.448-1-1-1h-2v-2h1.5c.552,0,1-.448,1-1s-.448-1-1-1h-2.5v-2h2.5c1.654,0,3,1.346,3,3,0,.646-.21,1.242-.559,1.732.642.551,1.059,1.358,1.059,2.268,0,1.654-1.346,3-3,3Zm8-4v2h-2v-2h-2v-2h2v-2h2v2h2v2h-2Z"/>
</svg>
