<?xml version="1.0" encoding="UTF-8"?>
<svg xmlns="http://www.w3.org/2000/svg" id="Layer_1" data-name="Layer 1" viewBox="0 0 24 24" width="512" height="512"><path d="m5,4.146V0h-2v4.146c-1.444.431-2.5,1.772-2.5,3.354s1.056,2.923,2.5,3.354v13.146h2v-13.146c1.444-.431,2.5-1.772,2.5-3.354s-1.056-2.923-2.5-3.354Zm8,9V0h-2v13.146c-1.444.431-2.5,1.772-2.5,3.354s1.056,2.923,2.5,3.354v4.146h2v-4.146c1.444-.431,2.5-1.772,2.5-3.354s-1.056-2.923-2.5-3.354Zm10.5-5.646c0-1.582-1.056-2.923-2.5-3.354V0h-2v4.146c-1.444.431-2.5,1.772-2.5,3.354s1.056,2.923,2.5,3.354v13.146h2v-13.146c1.444-.431,2.5-1.772,2.5-3.354Z"/></svg>
