<?xml version="1.0" encoding="UTF-8"?>
<svg xmlns="http://www.w3.org/2000/svg" id="Layer_1" data-name="Layer 1" viewBox="0 0 24 24" width="512" height="512"><path d="m17.797,7.203c-.824-3.584-4.054-6.203-7.797-6.203C5.589,1,2,4.589,2,9c0,1.29.303,2.535.884,3.66-1.746.943-2.884,2.786-2.884,4.84,0,3.032,2.467,5.5,5.5,5.5h10.5c4.411,0,8-3.589,8-8,0-3.743-2.62-6.973-6.203-7.797Zm-5.797,12.797h-2v-2h2v2Zm.679-5.369c-.406.188-.679.672-.679,1.203v.166h-2v-.166c0-1.316.722-2.501,1.839-3.018.731-.339,1.385-1.224,1.09-2.365-.169-.656-.724-1.21-1.379-1.379-.643-.169-1.271-.044-1.772.345-.494.383-.777.96-.777,1.583h-2c0-1.247.566-2.4,1.553-3.164.988-.765,2.264-1.021,3.498-.7,1.358.351,2.464,1.456,2.815,2.815.49,1.898-.429,3.867-2.187,4.68Z"/></svg>
