<?xml version="1.0" encoding="UTF-8"?>
<svg xmlns="http://www.w3.org/2000/svg" id="Layer_1" data-name="Layer 1" viewBox="0 0 24 24">
  <path d="m21,3H3c-1.654,0-3,1.346-3,3v15h1.747l3.364-3.369,3.458,3.457,3.466-3.466,3.466,3.466,3.464-3.464,3.374,3.375h1.661V6c0-1.654-1.346-3-3-3ZM3.689,9.277l-1.689,1.689v-3.378l1.689,1.689Zm1.414,1.414l2.058,2.058-2.051,2.053-2.059-2.059,2.052-2.052Zm1.414-1.414l2.052-2.051,2.055,2.056-2.05,2.052-2.057-2.057Zm4.277-4.277h2.481l.813.813-2.051,2.054-2.054-2.055.812-.811Zm1.244,5.696l2.048,2.048-2.051,2.051-2.047-2.047,2.05-2.052Zm1.413-1.415l2.052-2.054,2.05,2.05-2.053,2.053-2.049-2.049Zm5.516,1.41l2.052,2.052-2.053,2.053-2.052-2.052,2.053-2.053Zm1.414-1.414l1.619-1.619v3.238l-1.619-1.619Zm.619-4.277c.233,0,.447.08.617.214l-2.65,2.65-2.051-2.051.811-.812h3.272Zm-14.656,0l.811.811-2.052,2.052-2.68-2.679c.163-.115.362-.184.577-.184h3.344Zm-4.344,12.916v-3.396l1.697,1.697-1.697,1.699Zm6.569.345l-2.045-2.044,2.051-2.053,2.046,2.046-2.052,2.052Zm6.932,0l-2.052-2.052,2.05-2.05,2.051,2.052-2.05,2.05Zm4.878-2.05l1.621-1.621v3.242l-1.621-1.621Z"/>
</svg>
