<?xml version="1.0" encoding="UTF-8"?>
<svg xmlns="http://www.w3.org/2000/svg" id="Layer_1" data-name="Layer 1" viewBox="0 0 24 24">
  <path d="m12,0C5.383,0,0,5.383,0,12s5.383,12,12,12,12-5.383,12-12S18.617,0,12,0Zm8.647,7h-3.232c-.788-1.881-1.879-3.477-2.818-4.646,2.576.694,4.74,2.389,6.05,4.646Zm-.147,2.526l-.363,4.221c-.031.44-.337.779-.706.779-.244,0-.471-.151-.601-.4l-.831-1.6-.831,1.6c-.129.249-.356.4-.601.4-.368,0-.675-.339-.706-.779l-.363-4.221h1.042l.249,3.158,1.209-2.327,1.209,2.327.247-3.158h1.044Zm-8.501,12.06c-.812-.859-2.195-2.508-3.216-4.586h6.429c-1.021,2.075-2.403,3.725-3.213,4.586Zm-2.448-12.06h1.042l.249,3.158,1.209-2.327,1.209,2.327.247-3.158h1.044l-.363,4.221c-.031.44-.337.779-.706.779-.244,0-.471-.151-.601-.4l-.831-1.6-.831,1.6c-.129.249-.356.4-.601.4-.368,0-.675-.339-.706-.779l-.363-4.221Zm-.771-2.526c1.021-2.078,2.41-3.725,3.221-4.586.813.86,2.202,2.506,3.223,4.586h-6.444Zm.619-4.645c-.941,1.17-2.031,2.763-2.817,4.645h-3.228c1.31-2.256,3.472-3.95,6.045-4.645Zm-.899,7.17l-.363,4.221c-.031.44-.337.779-.706.779-.244,0-.471-.151-.601-.4l-.831-1.6-.831,1.6c-.129.249-.356.4-.601.4-.368,0-.675-.339-.706-.779l-.363-4.221h1.042l.249,3.158,1.209-2.327,1.209,2.327.247-3.158h1.044Zm-5.147,7.474h3.221c.789,1.881,1.881,3.475,2.822,4.644-2.573-.696-4.734-2.389-6.043-4.644Zm11.251,4.644c.941-1.169,2.033-2.763,2.822-4.644h3.221c-1.309,2.255-3.47,3.948-6.043,4.644Z"/>
</svg>
