<?xml version="1.0" encoding="UTF-8"?>
<svg xmlns="http://www.w3.org/2000/svg" id="Layer_1" data-name="Layer 1" viewBox="0 0 24 24">
  <path d="m3,4C1.847,4,.75,3.501-.01,2.631l1.508-1.314c.379.435.927.684,1.502.684,1.103,0,2-.897,2-2h2c0,2.206-1.794,4-4,4Zm18,0c1.153,0,2.25-.499,3.01-1.369l-1.508-1.314c-.379.435-.927.684-1.502.684-1.103,0-2-.897-2-2h-2c0,1.103-.897,2-2,2v2c1.193,0,2.267-.525,3-1.357.733.832,1.807,1.357,3,1.357Zm0,18s-.003,0-.004,0l1.622-3.273c.693-1.488.406-3.224-.688-4.421l2.034-4.188-2.699-1.311-2.052,4.224c-1.638-.082-3.15.822-3.842,2.307l-2.248,4.663h-2.124c0,1.103-.897,2-2,2s-2-.897-2-2h-2c0,1.103-.897,2-2,2-.575,0-1.123-.249-1.502-.684L-.01,22.631c.76.87,1.856,1.369,3.01,1.369,1.193,0,2.267-.525,3-1.357.733.832,1.807,1.357,3,1.357s2.267-.525,3-1.357c.733.832,1.807,1.357,3,1.357s2.267-.525,3-1.357c.733.832,1.807,1.357,3,1.357,1.153,0,2.25-.499,3.01-1.369l-1.508-1.314c-.379.435-.927.684-1.502.684ZM6,13.643c.733.832,1.807,1.357,3,1.357s2.26-.539,2.993-1.374c.401.458.9.827,1.47,1.065l.105-.219c.264-.566.612-1.073,1.02-1.516-.906-.19-1.589-.995-1.589-1.957l-3.489-6.466c.401-.688,1.446-2.034,3.489-2.034V.5c-3.321,0-4.879,2.358-5.373,3.311L1.462,6.923l.908,1.921,5.694-2.863.898,1.788-5.71,2.871.98,1.924c-.341.269-.765.436-1.231.436-.575,0-1.123-.249-1.502-.684L-.01,13.631c.76.87,1.856,1.369,3.01,1.369,1.193,0,2.267-.525,3-1.357Z"/>
</svg>
