<?xml version="1.0" encoding="UTF-8"?>
<svg xmlns="http://www.w3.org/2000/svg" id="Layer_1" data-name="Layer 1" viewBox="0 0 24 24" width="512" height="512"><path d="m20.34,14.008c.33,0,.652-.028.969-.074-4.647,3.546-10.943,4.042-11.236,4.064l-.456.033-1.116-1.116-4.279,4.278c.462.256.779.742.779,1.308,0,.828-.672,1.5-1.5,1.5s-1.5-.672-1.5-1.5c0-.237.06-.459.158-.658-.199.098-.421.158-.658.158-.828,0-1.5-.672-1.5-1.5s.672-1.5,1.5-1.5c.565,0,1.052.316,1.307.778l4.279-4.278-1.117-1.117.034-.456c.021-.292.526-6.577,4.071-11.223-.369,2.535.752,5.584,3.2,8.032,2.144,2.144,4.749,3.272,7.065,3.272Zm2.664-3.004c-1.832,1.832-5.555,1.078-8.316-1.682-2.761-2.761-3.514-6.484-1.682-8.316,1.832-1.832,5.555-1.079,8.316,1.682,2.761,2.761,3.514,6.484,1.682,8.316Zm-4.273-5.725c-.725-.725-1.637-.988-2.038-.587s-.138,1.313.587,2.038,1.637.988,2.038.587.138-1.313-.587-2.038Z"/></svg>
