<?xml version="1.0" encoding="UTF-8"?>
<svg xmlns="http://www.w3.org/2000/svg" id="Layer_1" data-name="Layer 1" viewBox="0 0 24 24" width="512" height="512"><path d="m11.336,20.414l.664.591.664-.591c.3-.266,7.336-6.588,7.336-12.414C20,3.589,16.411,0,12,0S4,3.589,4,8c0,5.826,7.036,12.148,7.336,12.414Zm2.474-13.604c.992-.992,3.174-.794,3.174-.794,0,0,.198,2.182-.794,3.174s-3.174.794-3.174.794c0,0-.198-2.182.794-3.174Zm-6.793-.793s2.19-.199,3.185.796.796,3.185.796,3.185c0,0-2.19.199-3.185-.796-.995-.995-.796-3.185-.796-3.185Zm13.984,11.984v6H3v-6c0-1.159.503-2.195,1.292-2.926,2.18,3.625,5.202,6.38,5.715,6.834l1.993,1.773,1.99-1.771c.515-.456,3.537-3.211,5.718-6.837.789.731,1.292,1.767,1.292,2.926Z"/></svg>
