<?xml version="1.0" encoding="UTF-8"?>
<svg xmlns="http://www.w3.org/2000/svg" id="Layer_1" data-name="Layer 1" viewBox="0 0 24 24">
  <path d="m22,20c0-1.654-1.346-3-3-3h-3v-2c0-.551.449-1,1-1h3c2.206,0,4-1.794,4-4,0-1.18-.524-2.232-1.34-2.965l.2-.035-.308-.054c-.695-.582-1.577-.946-2.552-.946h-2.824c-.773-.147-8.292-1.666-11.18-5.592l-.3-.408h-1.696v14h1.696l.3-.408c2.887-3.926,10.407-5.445,11.18-5.592h2.824c1.103,0,2,.897,2,2s-.897,2-2,2h-3c-1.654,0-3,1.346-3,3v2H5c-1.654,0-3,1.346-3,3v2H0v2h24v-2h-2v-2Z"/>
</svg>
