<?xml version="1.0" encoding="UTF-8"?>
<svg xmlns="http://www.w3.org/2000/svg" id="Layer_1" data-name="Layer 1" viewBox="0 0 24 24">
  <path d="m23.013,3.776l-4.598,4.598c-.781.781-2.047.781-2.828,0-.781-.781-.781-2.047,0-2.828L20.172.959l-.292-.148c-1.062-.539-2.2-.812-3.381-.812-4.136,0-7.5,3.364-7.5,7.5,0,.959.178,1.886.531,2.767L.918,18.879c-1.168,1.17-1.168,3.072,0,4.242.585.585,1.353.877,2.121.877s1.537-.292,2.122-.877l8.631-8.631c.865.339,1.773.51,2.708.51,4.136,0,7.5-3.364,7.5-7.5,0-1.208-.283-2.366-.841-3.442l-.146-.282Z"/>
</svg>
