<?xml version="1.0" encoding="UTF-8"?>
<svg xmlns="http://www.w3.org/2000/svg" id="Layer_1" data-name="Layer 1" viewBox="0 0 24 24">
  <path d="m24,5.5v8.469l-1.558.295c-.01.002-.176.033-.442.08v-7.884l-7.969,4.063c-.627.32-1.345.48-2.064.48s-1.437-.16-2.063-.48L.052,5.5,9.904.477c1.251-.638,2.871-.639,4.125,0l9.97,5.024ZM0,17.004v6.991l1.186-.225c.062-.012,5.752-1.079,9.814-1.247v-4.049c-4.06-.168-9.752-1.235-9.814-1.247l-1.186-.225Zm13,1.471v4.049c4.06.168,9.752,1.235,9.814,1.247l1.186.225v-6.991l-1.186.225c-.062.012-5.752,1.079-9.814,1.247Zm6-8.241l-4.061,2.07c-.895.457-1.923.698-2.972.698s-2.077-.242-2.972-.699l-3.995-2.037v5.566c2.182.324,4.961.667,7,.667s4.819-.342,7-.667v-5.599Z"/>
</svg>
