<?xml version="1.0" encoding="UTF-8"?>
<svg xmlns="http://www.w3.org/2000/svg" id="Layer_1" data-name="Layer 1" viewBox="0 0 24 24" width="512" height="512"><path d="M12,9.914L7.086,5,12,.086l4.914,4.914-4.914,4.914Zm1.017,5.573c.626,.569,.983,1.375,.983,2.221v6.292H4.164l-3.117-3.412c-.673-.737-1.047-1.699-1.047-2.698V5.5c0-1.466,1.261-2.637,2.758-2.487,1.301,.13,2.242,1.322,2.242,2.63v3.954s-.76,.616-.907,.778c-1.4,1.542-1.455,3.915-.125,5.519l3.437,3.472,1.404-1.404-3.243-3.275c-.603-.728-.752-1.772-.272-2.586,.739-1.254,2.39-1.457,3.407-.533l4.317,3.92Zm5.691-3.386c-.739-1.254-2.39-1.457-3.407-.533l-1.813,1.646,.874,.794c.918,.834,1.465,1.987,1.587,3.212l2.487-2.532c.603-.728,.752-1.772,.272-2.586Zm2.793-9.101c-1.381,0-2.5,1.119-2.5,2.5v4.096s.76,.616,.907,.778c1.4,1.542,1.455,3.915,.125,5.519l-4.033,4.088v4.019h3.836l3.117-3.412c.673-.737,1.047-1.699,1.047-2.698V5.5c0-1.381-1.119-2.5-2.5-2.5Z"/></svg>
