<?xml version="1.0" encoding="UTF-8"?>
<svg xmlns="http://www.w3.org/2000/svg" id="Layer_1" data-name="Layer 1" viewBox="0 0 24 24" width="512" height="512"><path d="M11,9.401l-2.175,3.624c-.482,.804-1.458,1.165-2.347,.868l-5.081-1.694c-1.23-.41-1.764-1.854-1.097-2.965l1.7-2.834,9,3Zm2,0l2.175,3.624c.482,.804,1.458,1.165,2.347,.868l5.118-1.706c1.211-.404,1.737-1.825,1.08-2.92l-1.72-2.866-9,3Zm-2.46,4.654c-.742,1.236-2.044,1.945-3.415,1.945-.425,0-.856-.067-1.28-.209l-3.845-1.281v6.491l9,3V13.288l-.46,.766Zm7.615,1.736c-.424,.142-.855,.209-1.28,.209-1.371,0-2.673-.708-3.415-1.945l-.46-.766v10.712l9-3v-6.491l-3.845,1.282ZM12,7.627l6.386-2.129-3.912-3.912-5.15,5.149,2.676,.892Zm-4.798-1.599L11.86,1.371,10.525,.036,5.2,5.36l2.002,.667Z"/></svg>
