<?xml version="1.0" encoding="UTF-8"?>
<svg xmlns="http://www.w3.org/2000/svg" id="Layer_1" data-name="Layer 1" viewBox="0 0 24 24">
  <path d="m21.995,17v2.899c0,.537-.364,1.015-.829,1.087-.297.044-.584-.031-.804-.219-.221-.189-.348-.469-.348-.768v-10.547c0-1.794-.908-3.481-2.396-4.494-.854-2.349-3.11-3.958-5.618-3.958-2.757,0-5,2.243-5,5s2.243,5,5,5v2c-3.859,0-7-3.14-7-7,0-1.068.247-2.077.677-2.984-3.158.169-5.677,2.784-5.677,5.984v14h4.99l.01-4h6.5l-.009,4h4.528v-4h1.995v.998c0,.883.381,1.717,1.046,2.288.542.464,1.23.713,1.941.713.156,0,.313-.012.471-.036,1.438-.224,2.522-1.541,2.522-3.063v-2.899h-2Z"/>
</svg>
