<?xml version="1.0" encoding="UTF-8"?>
<svg xmlns="http://www.w3.org/2000/svg" id="Layer_1" data-name="Layer 1" viewBox="0 0 24 24">
  <path d="m24,8.5l-2.126-1.276c-.131-.655-.36-1.274-.672-1.843l2.798-5.382-5.382,2.798c-.568-.312-1.188-.542-1.843-.672l-1.276-2.126-1.276,2.126c-.463.092-.907.234-1.329.419L8,0l2.356,4.531c-.601.778-1.031,1.694-1.23,2.693l-2.126,1.276,2.126,1.276c.188.941.58,1.809,1.128,2.557L.038,22.548l1.414,1.414,10.215-10.215c.748.548,1.616.94,2.557,1.128l1.276,2.126,1.276-2.126c.999-.2,1.916-.629,2.693-1.23l4.531,2.356-2.545-4.895c.185-.422.327-.867.419-1.329l2.126-1.276Zm-8.5,1.5c-.828,0-1.5-.672-1.5-1.5s.672-1.5,1.5-1.5,1.5.672,1.5,1.5-.672,1.5-1.5,1.5Z"/>
</svg>
