<?xml version="1.0" encoding="UTF-8"?>
<svg xmlns="http://www.w3.org/2000/svg" id="Layer_1" data-name="Layer 1" viewBox="0 0 24 24">
  <path d="m8.592,11.403c-.784.38-1.661.597-2.592.597-3.314,0-6-2.686-6-6S2.686,0,6,0c.93,0,1.807.217,2.591.597-2.544.483-4.468,2.718-4.468,5.403s1.924,4.921,4.469,5.403Zm.408-7.903l2.333,1.167,1.167,2.333,1.167-2.333,2.333-1.167-2.333-1.167-1.167-2.333-1.167,2.333-2.333,1.167ZM.5,18.5l2,1,1,2,1-2,2-1-2-1-1-2-1,2-2,1ZM19,5.5l1.667.833.833,1.667.833-1.667,1.667-.833-1.667-.833-.833-1.667-.833,1.667-1.667.833Zm5,9.609v8.891H8v-8.891c0-.929.42-1.79,1.151-2.363l5.448-4.263c.824-.646,1.977-.646,2.801,0l5.448,4.264c.731.572,1.151,1.434,1.151,2.362Zm-6-.109h-4v4h4v-4Z"/>
</svg>
