<?xml version="1.0" encoding="UTF-8"?>
<svg xmlns="http://www.w3.org/2000/svg" id="Layer_1" data-name="Layer 1" viewBox="0 0 24 24">
  <path d="m9,7h-2v2h-3v-2h-2v2H0v2h2v3H0v2h2v2h2v-2h3v2h2v-2h2v-2h-2v-3h2v-2h-2v-2Zm-2,7h-3v-3h3v3Zm7.263,6h9.737v2h-12v-1c0-2.486,2.352-4.348,4.842-6.318,2.536-2.007,5.158-4.082,5.158-6.682,0-2.206-1.794-4-4-4-1.86,0-3.428,1.276-3.873,3h-2.043c.477-2.834,2.948-5,5.916-5,3.309,0,6,2.691,6,6,0,3.567-3.144,6.055-5.917,8.25-1.643,1.3-3.214,2.543-3.82,3.75Z"/>
</svg>
