<?xml version="1.0" encoding="UTF-8"?>
<svg xmlns="http://www.w3.org/2000/svg" id="Layer_1" data-name="Layer 1" viewBox="0 0 24 24">
  <path d="m5.245,12.615l3.755-6.906,3.8,6.989-1.793,2.884-2.014-3.356-1.996,3.327-1.752-2.937Zm8.655,2.104l-2.922,4.699-1.984-3.306-2.001,3.335-2.858-4.79L0,22.261v1.739h18v-1.739l-4.101-7.541ZM24,3v21h-4v-2.248l-1.496-2.752h1.496v-2h-2v1.074l-2-3.678-1.846-3.395h1.846v-2h-2v1.718l-4-7.357v-.362c0-1.654,1.346-3,3-3h8c1.654,0,3,1.346,3,3Zm-8,2h-2v2h2v-2Zm4,8h-2v2h2v-2Zm0-4h-2v2h2v-2Zm0-4h-2v2h2v-2Z"/>
</svg>
