<?xml version="1.0" encoding="UTF-8"?>
<svg xmlns="http://www.w3.org/2000/svg" id="Layer_1" data-name="Layer 1" viewBox="0 0 24 24">
  <path d="m3.5,1c-.828,0-1.5.672-1.5,1.5s.672,1.5,1.5,1.5h6.938L1,7.086c-.781.277-1.19,1.134-.913,1.915.277.781,1.134,1.19,1.915.913l8.999-2.914-6.157,3.458-2.673,5.374c-.369.741-.067,1.642.675,2.011.215.107.442.157.667.157.551,0,1.082-.305,1.344-.832l2.302-4.626,1.152-.595c-.815.96-1.309,2.199-1.309,3.553v7c0,.828.672,1.5,1.5,1.5s1.5-.672,1.5-1.5v-7c0-1.379,1.121-2.5,2.5-2.5s2.5,1.121,2.5,2.5v.5c0,.651-1.183,1.771-2.03,2.286-.944.567-1.252,1.792-.687,2.739.374.627,1.038.975,1.719.975.349,0,.702-.091,1.023-.283.213-.127,1.293-.802,2.274-1.881l.038.035,6.662-7.289V1H3.5Z"/>
</svg>
