<?xml version="1.0" encoding="UTF-8"?>
<svg xmlns="http://www.w3.org/2000/svg" id="Layer_1" data-name="Layer 1" viewBox="0 0 24 24">
  <path d="m23.4,19.429l-3.993,3.993c-.386.385-.895.579-1.404.579-.513,0-1.026-.195-1.417-.586l-4-4,1.414-1.414,3.002,3.002L17.025,0l2,.002-.023,21.017,2.998-3.018,1.4,1.429Zm-13.643-.015l.564.564c-.108.004-.212.022-.321.022C4.486,20,0,15.514,0,10S4.486,0,10,0c1.822,0,3.527.498,5,1.353v14.818l-1-1-4.243,4.243Zm-.757-4.414v1h2v-1c1.654,0,3-1.346,3-3,0-1.36-.974-2.51-2.315-2.733l-3.042-.507c-.373-.062-.644-.382-.644-.76,0-.551.449-1,1-1h2c.551,0,1,.449,1,1h2c0-1.654-1.346-3-3-3v-1h-2v1c-1.654,0-3,1.346-3,3,0,1.36.974,2.51,2.315,2.733l3.042.507c.373.062.644.382.644.76,0,.551-.449,1-1,1h-2c-.551,0-1-.449-1-1h-2c0,1.654,1.346,3,3,3Z"/>
</svg>
