<?xml version="1.0" encoding="UTF-8"?>
<svg xmlns="http://www.w3.org/2000/svg" id="Layer_1" data-name="Layer 1" viewBox="0 0 24 24" width="512" height="512"><path d="m5,11h3v2h-3v3h-2v-3H0v-2h3v-3h2v3Zm-2,13h5v-5H3v5ZM3,2v3h5V0h-3c-1.105,0-2,.895-2,2Zm7,15h5V7h-5v10Zm0,7h5v-5h-5v5ZM20.661,6.166l-4.928.848,1.789,10.443,4.928-.848-1.789-10.443Zm2.129,12.414l-4.928.848.764,4.586,4.928-.848-.764-4.586ZM19.887,1.689c-.188-1.088-1.222-1.819-2.31-1.631l-.985.17c-.829.143-1.448.779-1.614,1.555-.11-1.001-.948-1.782-1.978-1.782h-3v5h5v-2.233l.393,2.277,4.927-.847-.433-2.508Zm-4.495,3.355h0s0,0,0,0h0Z"/></svg>
