<?xml version="1.0" encoding="UTF-8"?>
<svg xmlns="http://www.w3.org/2000/svg" id="Layer_1" data-name="Layer 1" viewBox="0 0 24 24" width="512" height="512"><path d="M12.5,1H2.07C1.06,1,.18,1.72,.03,2.67c-.1,.59,.07,1.18,.45,1.63,.38,.45,.94,.71,1.52,.71H7.73c1.68,0,3.12,1.18,3.27,2.68,.09,.87-.2,1.69-.78,2.33-.58,.64-1.35,.99-2.21,.99h-2.42c-1.26,0-2.36,.9-2.56,2.09-.12,.73,.09,1.47,.56,2.03s1.17,.88,1.9,.88H14v7h10V13.73c0-1.98-.58-3.9-1.68-5.55l-1.82-2.73c-1.8-2.7-4.77-4.35-8-4.45h0"/></svg>
