<?xml version="1.0" encoding="UTF-8"?>
<svg xmlns="http://www.w3.org/2000/svg" id="Layer_1" data-name="Layer 1" viewBox="0 0 24 24">
  <path d="m14.928,20.931c.299.566.231,1.275-.246,1.751-.293.293-.677.439-1.061.439-.241,0-.472-.078-.69-.194-.185.619-.752,1.073-1.431,1.073s-1.246-.454-1.431-1.073c-.218.115-.45.194-.69.194-.384,0-.768-.146-1.061-.439-.477-.476-.545-1.185-.246-1.751-.619-.185-1.072-.752-1.072-1.431s.454-1.246,1.072-1.431c-.299-.566-.231-1.275.246-1.751.477-.477,1.185-.545,1.751-.246.185-.619.752-1.073,1.431-1.073s1.246.454,1.431,1.073c.566-.299,1.274-.231,1.751.246.477.476.545,1.185.246,1.751.619.185,1.072.752,1.072,1.431s-.454,1.246-1.072,1.431Zm3.572.069c-.828,0-1.5.672-1.5,1.5s.672,1.5,1.5,1.5,1.5-.672,1.5-1.5-.672-1.5-1.5-1.5Zm-14,0c-.828,0-1.5.672-1.5,1.5s.672,1.5,1.5,1.5,1.5-.672,1.5-1.5-.672-1.5-1.5-1.5Zm12.941-15.947C15.961,1.322,11.762-.93,7.613.36,4.228,1.412,2,4.449,2,7.994c0,.697.089,1.384.265,2.05-1.415,1.025-2.265,2.664-2.265,4.45,0,2.413,1.569,4.454,3.735,5.193l1.307.353c-.027-.176-.042-.356-.042-.54,0-.893.331-1.716.896-2.34.045-.832.389-1.637,1.009-2.256.607-.607,1.401-.96,2.254-1.006.624-.566,1.449-.898,2.342-.898s1.718.332,2.342.898c.852.046,1.646.399,2.253,1.006.62.619.964,1.424,1.009,2.257.565.624.896,1.447.896,2.34,0,.115-.006.228-.016.34l.016.003c3.419-.697,6-3.727,6-7.349,0-3.837-2.829-6.982-6.559-7.441Z"/>
</svg>
