<?xml version="1.0" encoding="UTF-8"?>
<svg xmlns="http://www.w3.org/2000/svg" id="Layer_1" data-name="Layer 1" viewBox="0 0 24 24" width="512" height="512"><path d="m23.964,9.037L14.964.037l-1.414,1.414.964.964-5.5,5.501c-1.943,1.943-3.014,4.526-3.014,7.275v1.395L.025,22.561l1.414,1.414,5.975-5.975h1.396c2.748,0,5.332-1.07,7.275-3.014l5.5-5.5.965.965,1.414-1.414Zm-15.964,6.963v-.809c0-1.877.625-3.655,1.768-5.108l4.15,4.149c-1.453,1.142-3.231,1.767-5.107,1.767h-.81Zm7.378-3.135l-4.243-4.243,4.793-4.794,4.243,4.243-4.793,4.793Z"/></svg>
