<?xml version="1.0" encoding="UTF-8"?>
<svg xmlns="http://www.w3.org/2000/svg" id="Layer_1" data-name="Layer 1" viewBox="0 0 24 24" width="512" height="512"><path d="M7.42,12.12c.65-.77,1.49-1.38,2.45-1.74l1.5-8.1,1.99,.34-1.26,7.37h5.88l1.41-5.18-4.18-1.17,.45-2.65L9.97,.02V-.02s-.11,.02-.11,.02l-.1-.02V.01S4.05,.99,4.05,.99l.45,2.64L.27,4.8l1.96,7.2H.04l1.92,9.59c.28,1.4,1.51,2.41,2.94,2.41h2.66c-.97-1.07-1.56-2.46-1.56-4.01v-4c0-1.47,.53-2.82,1.42-3.87ZM2.73,6.2l2.11-.59,1.09,6.39h-1.62l-1.58-5.8Zm21.27,9.8v1H8v-1c0-2.21,1.79-4,4-4h8c2.21,0,4,1.79,4,4Zm-4,3h4v1c0,2.21-1.79,4-4,4H12c-2.21,0-4-1.79-4-4v-1h6l3,2,3-2Z"/></svg>
