<?xml version="1.0" encoding="UTF-8"?>
<svg xmlns="http://www.w3.org/2000/svg" id="Layer_1" data-name="Layer 1" viewBox="0 0 24 24">
  <path d="m9.5,2.5c0-1.381,1.119-2.5,2.5-2.5s2.5,1.119,2.5,2.5c0,1.025-.617,1.906-1.5,2.291v2.327c-.322-.073-.655-.118-1-.118s-.678.045-1,.118v-2.327c-.883-.386-1.5-1.266-1.5-2.291Zm-3.758,6.169l2.303,1.733c.106-.706.396-1.351.82-1.886l-1.929-1.452c.042-.182.065-.37.065-.565,0-1.381-1.119-2.5-2.5-2.5s-2.5,1.119-2.5,2.5,1.119,2.5,2.5,2.5c.452,0,.876-.121,1.242-.331Zm8.258,7.792v-5.355c0-.996-.681-1.92-1.664-2.08-1.253-.204-2.336.758-2.336,1.973v9.817c-1.076-.886-2.111-1.752-2.145-1.784-.922-.861-2.373-.813-3.235.109-.863.923-.819,2.372.098,3.23l1.821,1.628h16.462v-4l-9-3.538Zm1.927-6.225l2.236-1.625c.387.245.845.388,1.337.388,1.381,0,2.5-1.119,2.5-2.5s-1.119-2.5-2.5-2.5-2.5,1.119-2.5,2.5c0,.156.015.307.042.455l-1.997,1.451c.439.514.749,1.141.882,1.831Z"/>
</svg>
