<?xml version="1.0" encoding="UTF-8"?>
<svg xmlns="http://www.w3.org/2000/svg" id="Layer_1" data-name="Layer 1" viewBox="0 0 24 24">
  <path d="m23.121,6.151L17.849.878c-.567-.566-1.321-.878-2.121-.878h-7.456c-.801,0-1.554.312-2.121.879L.879,6.151c-.567.567-.879,1.32-.879,2.121v7.456c0,.801.312,1.554.879,2.121l5.272,5.272c.567.567,1.32.879,2.121.879h7.456c.8,0,1.554-.312,2.122-.879l5.271-5.272c.566-.567.879-1.32.879-2.121v-7.456c0-.801-.313-1.554-.879-2.121Zm-6.682,8.91l-1.414,1.414-3.043-3.043-3.043,3.043-1.414-1.414,3.043-3.043-3.043-3.043,1.414-1.414,3.043,3.043,3.043-3.043,1.414,1.414-3.043,3.043,3.043,3.043Z"/>
</svg>
