<?xml version="1.0" encoding="UTF-8"?>
<svg xmlns="http://www.w3.org/2000/svg" id="Layer_1" data-name="Layer 1" viewBox="0 0 24 24" width="512" height="512"><path d="M13,7.5c0-.827,.673-1.5,1.5-1.5s1.5,.673,1.5,1.5-.673,1.5-1.5,1.5-1.5-.673-1.5-1.5Zm11,4.5c0,6.627-5.373,12-12,12S0,18.627,0,12,5.373,0,12,0s12,5.373,12,12ZM11,7.5c0,1.93,1.57,3.5,3.5,3.5s3.5-1.57,3.5-3.5-1.57-3.5-3.5-3.5-3.5,1.57-3.5,3.5Zm-4,6.5c1.103,0,2-.897,2-2s-.897-2-2-2-2,.897-2,2,.897,2,2,2Zm11.31-1.428s-2.402,2.067-5.177,3.206c-2.775,1.139-5.931,1.352-5.93,1.353,.229,.3,.497,.595,.798,.876v.993c0,1.5,1,3,2.5,3s2.5-1.5,2.5-3v-1.038c.298-.103,.597-.213,.893-.334,.378-.155,.747-.327,1.107-.506v1.878c0,.103-.013,.201-.018,.302,2.804-1.366,3.614-4.477,3.328-6.73Z"/></svg>
