<?xml version="1.0" encoding="UTF-8"?>
<svg xmlns="http://www.w3.org/2000/svg" id="Layer_1" data-name="Layer 1" viewBox="0 0 24 24" width="512" height="512"><path d="M0,24s5.455-4,12-4,12,4,12,4H0ZM12,.002s1.483,3.596,4.796,5.809,7.204,2.203,7.204,2.203c0,0-1.114-3.907-4.428-6.119C16.258-.317,12,.002,12,.002,12,.002,7.786-.141,4.472,2.071,1.158,4.284,0,8.014,0,8.014,0,8.014,3.89,8.023,7.204,5.811S12,.002,12,.002m0,3.902c-.884,1.19-2.101,2.512-3.686,3.57-.427,.285-.862,.535-1.298,.76-.081,2.041,.747,3.766,.747,3.766,0,0,3.169-1.424,4.201-4.213,.522-1.41,.397-2.898,.146-4.025-.038,.051-.072,.086-.111,.142Zm-.432,14.111c.145-.003,.286-.016,.432-.016,1.599,0,3.127,.219,4.546,.551,.41-2.351,.776-5.983-.008-9.315-.121-.512-.247-.996-.376-1.465-.159-.097-.319-.192-.477-.297-.512-.342-.972-.716-1.408-1.099-.061,.74-.195,1.452-.437,2.107-.134,.361-.296,.698-.473,1.02,0,.078,.003,.157,.003,.233,0,3.037-.937,6.095-1.803,8.281Z"/></svg>
