<?xml version="1.0" encoding="UTF-8"?>
<svg xmlns="http://www.w3.org/2000/svg" id="Layer_1" data-name="Layer 1" viewBox="0 0 24 24" width="512" height="512"><path d="m23.999,14.545c-.001-3.989-2.622-7.619-6.495-8.575-1.311-.324-2.577-.326-3.756-.087-.429.087-.773-.328-.642-.746.63-2.008,1.794-3.778,3.334-5.137h-1.896c-3.989.002-7.619,2.623-8.575,6.495-.324,1.311-.326,2.577-.087,3.755.087.429-.328.774-.746.643-2.008-.63-3.778-1.794-5.137-3.334v1.896c.002,3.989,2.623,7.619,6.495,8.575,1.311.324,2.577.326,3.756.087.429-.087.773.328.642.746-.63,2.008-1.794,3.778-3.334,5.137h1.896c3.989-.002,7.619-2.623,8.575-6.495.324-1.311.326-2.577.087-3.756-.087-.429.328-.773.746-.642,2.008.63,3.778,1.794,5.137,3.334v-1.896Zm-12-1.045c-.828,0-1.5-.672-1.5-1.5s.672-1.5,1.5-1.5,1.5.672,1.5,1.5-.672,1.5-1.5,1.5Z"/></svg>
