<?xml version="1.0" encoding="UTF-8"?>
<svg xmlns="http://www.w3.org/2000/svg" id="Layer_1" data-name="Layer 1" viewBox="0 0 24 24" width="512" height="512"><path d="M7.17,11.41l1.47,1.47c-.57,.32-1.11,.7-1.59,1.17l-1.41-1.41c.47-.47,.99-.88,1.53-1.22ZM.69,7.69l1.41,1.41c.47-.47,.97-.88,1.48-1.27l-1.43-1.43c-.51,.4-1.01,.82-1.47,1.29Zm11.31,9.31c-1.1,0-2,.9-2,2s.9,2,2,2,2-.9,2-2-.9-2-2-2Zm1.6-4.81c1.25,.29,2.41,.92,3.35,1.86l1.41-1.41c-1.84-1.84-4.34-2.77-6.92-2.6L7.25,5.83c5.1-1.85,10.77-.62,14.65,3.27l1.41-1.41C18.65,3.03,11.75,1.7,5.7,4.29L1.46,.04,.04,1.46,22.54,23.96l1.41-1.41L13.6,12.19Z"/></svg>
