<?xml version="1.0" encoding="UTF-8"?>
<svg xmlns="http://www.w3.org/2000/svg" id="Layer_1" data-name="Layer 1" viewBox="0 0 24 24">
  <path d="m4.887,15.119l6.113,7.633v1.249H3v-5c0-1.574.746-2.964,1.887-3.881Zm15.113-11.119h-2.405c-.573-1.817-1.709-4-3.095-4-.978,0-1.857.578-2.5,1.128-.643-.55-1.522-1.128-2.5-1.128-1.386,0-2.522,2.183-3.095,4h-2.405v2h16v-2Zm-.887,11.119l-6.113,7.633v1.249h8v-5c0-1.574-.746-2.964-1.887-3.881Zm-6.113,4.881h-2l-3.824-5h0l-2.676-3.5s.795-.768,2.344-1.453c-.367-.621-.63-1.309-.754-2.047h11.82c-.124.738-.388,1.426-.754,2.047,1.549.685,2.344,1.453,2.344,1.453l-2.676,3.5h0l-3.824,5Zm1.026-5l1.051-2.854c-.9.541-1.951.854-3.078.854s-2.178-.313-3.078-.854l1.051,2.854h4.053Z"/>
</svg>
