<?xml version="1.0" encoding="UTF-8"?>
<svg xmlns="http://www.w3.org/2000/svg" id="Layer_1" data-name="Layer 1" viewBox="0 0 24 24" width="512" height="512"><path d="M8.424,15.561l-1.887,2.522c.842,.236,1.462,1.001,1.462,1.918,0,.748-.416,1.392-1.024,1.735-.12,1.268-1.176,2.265-2.476,2.265-1.211,0-2.22-.862-2.45-2.005-.017,0-.033,.005-.05,.005-1.105,0-2-.895-2-2,0-.749,.417-1.394,1.027-1.737-.012-.087-.027-.173-.027-.263,0-1.105,.895-2,2-2,.757,0,1.408,.425,1.747,1.045l3.677-1.485Zm14.549,2.702c.012-.087,.027-.173,.027-.263,0-1.105-.895-2-2-2-.757,0-1.408,.425-1.747,1.045l-3.677-1.485,1.887,2.522c-.842,.236-1.462,1.001-1.462,1.918,0,.748,.416,1.392,1.024,1.735,.12,1.268,1.176,2.265,2.476,2.265,1.211,0,2.22-.862,2.45-2.005,.017,0,.033,.005,.05,.005,1.105,0,2-.895,2-2,0-.749-.417-1.394-1.027-1.737Zm-7.734,4.62c.067,.207,.153,.406,.248,.599-1.104,.335-2.274,.519-3.488,.519s-2.384-.184-3.488-.519c.095-.193,.18-.392,.248-.599,.761-.729,1.24-1.748,1.24-2.883,0-.807-.244-1.556-.657-2.185l1.657-4.815-5.966,1.575c-.598-.357-1.288-.575-2.034-.575-1,0-1.911,.373-2.611,.983-.245-.955-.389-1.951-.389-2.983C0,5.373,5.373,0,12,0s12,5.373,12,12c0,1.032-.144,2.027-.389,2.983-.7-.61-1.611-.983-2.611-.983-.745,0-1.436,.218-2.034,.575l-5.966-1.575,1.657,4.815c-.412,.629-.657,1.378-.657,2.185,0,1.134,.479,2.154,1.24,2.883Zm2.76-12.883h-4v2h4v-2Zm-4.834-2.052l1.668,1.104c.695-1.052,1.729-1.892,2.988-2.428l-.784-1.84c-1.621,.69-2.959,1.785-3.872,3.164Zm-3.166,2.052H6v2h4v-2Zm.834-2.052c-.912-1.379-2.251-2.474-3.872-3.164l-.784,1.84c1.259,.536,2.292,1.376,2.988,2.428l1.668-1.104Z"/></svg>
