<?xml version="1.0" encoding="UTF-8"?>
<svg xmlns="http://www.w3.org/2000/svg" id="Layer_1" data-name="Layer 1" viewBox="0 0 24 24" width="512" height="512"><path d="m12,24C5.383,24,0,18.617,0,12S5.383,0,12,0c1.622,0,2.962.246,4.098.753l2.29,1.021-2.364.834c-4.136,1.46-7.023,5.321-7.023,9.391s2.886,7.928,7.018,9.389l2.433.86-2.376,1.004c-1.239.523-2.458.747-4.074.747Zm7.014-9.585l2.819,1.948.682-.476-1.059-3.319,2.545-1.736v-.833h-3.478l-1.069-3.636h-.882l-1.07,3.636h-3.5v.839l2.566,1.68-.984,3.351.656.494,2.776-1.948Z"/></svg>
