<?xml version="1.0" encoding="UTF-8"?>
<svg xmlns="http://www.w3.org/2000/svg" id="Layer_1" data-name="Layer 1" viewBox="0 0 24 24">
  <path d="m23.377,7.447l-.104-.106c-.788-.807-1.595-1.633-2.919-2.364,1.004-.826,1.646-2.078,1.646-3.477v-.5h-2v.5c0,1.378-1.121,2.5-2.5,2.5s-2.5-1.122-2.5-2.5V0h-2v1.5c0,.924.28,1.784.76,2.5h-1.26c-1.379,0-2.5-1.122-2.5-2.5V0h-2v1.5c0,2.481,2.019,4.5,4.5,4.5h2.074c-.464.942-.574,1.988-.574,2.586v1.414H5.894c-1.273,0-2.438.596-3.21,1.511L.003,14.547l2.091,1.806c.133.392.773,1.872.906,2.295v5.352h4v-5h7v5h4v-5.115c.627-.746,2-2.695,2-5.485v-2.017l2.1-.263c1.083-.136,1.9-1.061,1.9-2.153,0-.568-.221-1.107-.623-1.521Z"/>
</svg>
