<?xml version="1.0" encoding="UTF-8"?>
<svg xmlns="http://www.w3.org/2000/svg" id="Layer_1" data-name="Layer 1" viewBox="0 0 24 24" width="512" height="512"><path d="M12,0C5.383,0,0,5.383,0,12H24C24,5.383,18.617,0,12,0Zm-3.5,10c-.828,0-1.5-.672-1.5-1.5,0-.154,.03-.3,.073-.439l-1.675-1.262,1.203-1.598s2.794,2.103,2.838,2.138l.008,.006h0c.335,.275,.553,.688,.553,1.155,0,.828-.672,1.5-1.5,1.5Zm8.5-1.5c0,.828-.672,1.5-1.5,1.5s-1.5-.672-1.5-1.5c0-.467,.218-.879,.553-1.154h0s.008-.006,.008-.006c.044-.036,2.838-2.138,2.838-2.138l1.203,1.598-1.675,1.262c.043,.14,.073,.285,.073,.439ZM2,16.624c0,.307,.22,.565,.521,.616l3.285,.548c1.271,.211,2.193,1.3,2.193,2.588,0,1.447-1.177,2.624-2.624,2.624h-.376v1H3v-1c-1.654,0-3-1.346-3-3H2c0,.551,.448,1,1,1h2.376c.344,0,.624-.28,.624-.624,0-.307-.22-.565-.521-.616l-3.285-.548c-1.271-.211-2.193-1.3-2.193-2.588,0-1.447,1.177-2.624,2.624-2.624h.376v-1h2v1c1.654,0,3,1.346,3,3h-2c0-.551-.448-1-1-1H2.624c-.344,0-.624,.28-.624,.624Zm8-2.624h2v6h-2v-6Zm12,0h-2v2h-2v-2h-2v2h-2v2h2v2h-2v2h2v2h2v-2h2v2h2v-2h2v-2h-2v-2h2v-2h-2v-2Zm-2,6h-2v-2h2v2Zm-10,2h2v2h-2v-2Z"/></svg>
