<?xml version="1.0" encoding="UTF-8"?>
<svg xmlns="http://www.w3.org/2000/svg" id="Layer_1" data-name="Layer 1" viewBox="0 0 24 24" width="512" height="512"><path d="m17.696,16.293l6.268,6.268-1.414,1.414-6.268-6.268,1.414-1.414Zm3.889-6.807l-5.5,5.5c-1.943,1.943-4.527,3.014-7.275,3.014h-1.396l-5.975,5.975L.025,22.561l5.975-5.975v-1.395c0-.654.065-1.297.183-1.926l-3.779-3.779-.965.965L.025,9.037,9.025.037l1.414,1.414-.965.965,2.52,2.519,2.519-2.52-.964-.964L14.964.037l9,9-1.414,1.414-.965-.965Zm-14.737,1.616c.509-1.174,1.233-2.255,2.165-3.187l1.567-1.567-2.52-2.519-4.243,4.243,3.03,3.03Zm1.961,4.898c1.877,0,3.655-.625,5.107-1.767l-4.15-4.149c-1.142,1.453-1.768,3.231-1.768,5.108v.809h.81Zm11.362-7.928l-4.243-4.243-4.793,4.794,4.243,4.243,4.793-4.793Z"/></svg>
