<?xml version="1.0" encoding="UTF-8"?>
<svg xmlns="http://www.w3.org/2000/svg" id="Layer_1" data-name="Layer 1" viewBox="0 0 24 24">
  <path d="m13.5,12.02c0,.828-.672,1.5-1.5,1.5s-1.5-.672-1.5-1.5.672-1.5,1.5-1.5,1.5.672,1.5,1.5Zm6.383,4.591c.365,2.817-.251,4.948-1.755,5.895-.54.34-1.168.513-1.853.513-.357,0-.729-.047-1.112-.142-1.014-.249-2.091-.82-3.166-1.651-1.53,1.184-3.002,1.794-4.282,1.794-.675,0-1.296-.17-1.844-.516-1.559-.982-2.126-3.172-1.767-5.923C1.497,15.47,0,13.832,0,12.02c0-1.883,1.57-3.508,4.117-4.591-.365-2.817.251-4.948,1.755-5.895.822-.519,1.847-.648,2.965-.372,1.017.25,2.097.824,3.176,1.659,2.332-1.799,4.537-2.282,6.116-1.287,1.559.982,2.126,3.172,1.767,5.923,2.608,1.113,4.104,2.751,4.104,4.562,0,1.883-1.57,3.508-4.117,4.591Zm-5.669-.702c.391-.555.772-1.132,1.126-1.742.42-.723.781-1.441,1.098-2.147-.326-.722-.689-1.444-1.098-2.149-.365-.629-.743-1.199-1.126-1.742-.725-.071-1.467-.11-2.215-.11-.768,0-1.506.041-2.215.111-.393.558-.774,1.135-1.126,1.741-.419.722-.781,1.44-1.097,2.145.326.722.688,1.445,1.098,2.151.363.625.739,1.193,1.12,1.733.727.071,1.467.118,2.221.118.767,0,1.506-.041,2.215-.111Zm-.695-11.728c1.266,1.272,2.488,2.856,3.551,4.687.115.197.216.399.325.599.915-3.088.751-5.558-.333-6.241-.757-.477-2.073-.106-3.543.954Zm-7.47,2.582c1.735-.474,3.754-.743,5.951-.743.18,0,.358.01.538.014-1.558-1.679-3.076-2.658-4.178-2.929-.586-.145-1.065-.104-1.421.122-.739.465-1.052,1.783-.889,3.537Zm.88,2.105c.058-.099.122-.193.18-.292-3.103.753-5.11,2.15-5.11,3.443,0,.877.943,1.82,2.505,2.56.478-1.8,1.285-3.748,2.424-5.712Zm3.55,10.99c-1.265-1.272-2.487-2.856-3.55-4.685-.115-.198-.216-.4-.325-.6-.915,3.088-.751,5.558.333,6.242.76.479,2.072.105,3.541-.956Zm7.471-2.581c-1.735.474-3.754.743-5.951.743-.182,0-.36-.013-.541-.017,1.559,1.681,3.078,2.661,4.182,2.933.586.143,1.064.102,1.421-.122.739-.465,1.052-1.783.889-3.537Zm4.049-5.257c0-.876-.943-1.819-2.505-2.56-.478,1.8-1.285,3.748-2.424,5.712-.058.1-.121.193-.18.291,3.103-.753,5.11-2.15,5.11-3.443Z"/>
</svg>
