<?xml version="1.0" encoding="UTF-8"?>
<svg xmlns="http://www.w3.org/2000/svg" id="Layer_1" data-name="Layer 1" viewBox="0 0 24 24">
  <path d="m23.999.972l-.028-.972h-.972C22.597,0,13.082.075,6.579,6.579.077,13.083,0,22.597,0,22.999v.972s1.071.03,1.186.03c1.482,0,9.941-.287,16.234-6.58C24.194,10.647,24.01,1.364,23.999.972ZM6,20c-1.105,0-2-.895-2-2s.895-2,2-2,2,.895,2,2-.895,2-2,2Zm4-4c-1.105,0-2-.895-2-2s.895-2,2-2,2,.895,2,2-.895,2-2,2Zm4-4c-1.105,0-2-.895-2-2s.895-2,2-2,2,.895,2,2-.895,2-2,2Zm4-4c-1.105,0-2-.895-2-2s.895-2,2-2,2,.895,2,2-.895,2-2,2Z"/>
</svg>
