<?xml version="1.0" encoding="UTF-8"?>
<svg xmlns="http://www.w3.org/2000/svg" id="Layer_1" data-name="Layer 1" viewBox="0 0 24 24" width="512" height="512"><path d="M13,16.216v1.384c0,.662-.411,1.4-1,1.4s-1-.738-1-1.4v-1.384c.285-.125,.606-.216,1-.216s.715,.092,1,.216Zm11-4.216c0,6.627-5.373,12-12,12-5.41,0-9.981-3.582-11.479-8.502,.457,.597,1.169,.988,1.979,.988,1.381,0,2.5-1.119,2.5-2.5,0-1.987-2.5-4.5-2.5-4.5,0,0-2.005,1.979-2.42,3.858-.049-.442-.08-.889-.08-1.344C0,5.373,5.373,0,12,0s12,5.373,12,12Zm-15.5-3c-.828,0-1.5,.672-1.5,1.5s.672,1.5,1.5,1.5,1.5-.672,1.5-1.5-.672-1.5-1.5-1.5Zm-3.13,.334c1.582-.631,2.952-1.765,3.962-3.279l-1.664-1.11c-.773,1.159-1.853,2.058-3.039,2.532l.741,1.857Zm9.596,8.666h2.034c0-2.761-2.239-5-5-5s-5,2.239-5,5h2.034c.168,1.51,1.263,3,2.966,3s2.797-1.49,2.966-3Zm2.034-7.5c0-.828-.672-1.5-1.5-1.5s-1.5,.672-1.5,1.5,.672,1.5,1.5,1.5,1.5-.672,1.5-1.5Zm2.371-3.023c-1.187-.474-2.266-1.373-3.039-2.532l-1.664,1.11c1.01,1.514,2.38,2.647,3.962,3.279l.741-1.857Z"/></svg>
