<?xml version="1.0" encoding="UTF-8"?>
<svg xmlns="http://www.w3.org/2000/svg" id="Layer_1" data-name="Layer 1" viewBox="0 0 24 24">
  <path d="m10,22v-.5c0-1.379-1.121-2.5-2.5-2.5h-.873c.663-1.253,1.373-3.764,1.373-4.5,0-1.381-1.119-2.45-2.5-2.45s-2.5,1.069-2.5,2.45c0,.736.71,3.247,1.373,4.5h-.873c-1.379,0-2.5,1.121-2.5,2.5v.5H0v2h11v-2h-1Zm9-4.5c0,.827-.673,1.5-1.5,1.5s-1.5-.673-1.5-1.5.673-1.5,1.5-1.5,1.5.673,1.5,1.5ZM21,0h-12c-1.654,0-3,1.346-3,3v7.05l.005.051c2.241.252,3.995,2.117,3.995,4.399,0,.63-.254,1.773-.61,2.916,1.092.508,1.948,1.44,2.354,2.584h1.257v4h11V3c0-1.654-1.346-3-3-3Zm-11,5h10v2h-10v-2Zm0,6v-2h8v2h-8Zm7.5,10c-1.93,0-3.5-1.57-3.5-3.5s1.57-3.5,3.5-3.5,3.5,1.57,3.5,3.5-1.57,3.5-3.5,3.5Z"/>
</svg>
