<?xml version="1.0" encoding="UTF-8"?>
<svg xmlns="http://www.w3.org/2000/svg" id="Layer_1" data-name="Layer 1" viewBox="0 0 24 24" width="512" height="512"><path d="m14.5,11c0,1.379-1.122,2.5-2.5,2.5s-2.5-1.121-2.5-2.5,1.122-2.5,2.5-2.5,2.5,1.121,2.5,2.5Zm7.5-5.55v6.524c0,7.436-7.047,10.848-9.207,11.716l-.835.336-.805-.402c-2.147-1.074-9.153-5.087-9.153-11.649v-6.524c0-1.293.826-2.436,2.054-2.843L12-.027l7.946,2.635c1.229.407,2.054,1.55,2.054,2.843Zm-5.621,4.55c-.114-.5-.313-.965-.579-1.386l.622-.622c.026.001.051.008.078.008.828,0,1.5-.672,1.5-1.5s-.672-1.5-1.5-1.5-1.5.672-1.5,1.5c0,.027.006.052.008.078l-.622.622c-.421-.266-.887-.465-1.386-.579v-1.621h-2v1.621c-.5.114-.965.313-1.386.579l-.622-.622c.001-.026.008-.051.008-.078,0-.828-.672-1.5-1.5-1.5s-1.5.672-1.5,1.5.672,1.5,1.5,1.5c.027,0,.052-.006.078-.008l.622.622c-.266.421-.465.887-.579,1.386h-1.621v2h1.621c.114.5.313.965.579,1.386l-.622.622c-.026-.001-.051-.008-.078-.008-.828,0-1.5.672-1.5,1.5s.672,1.5,1.5,1.5,1.5-.672,1.5-1.5c0-.027-.006-.052-.008-.078l.622-.622c.421.266.887.465,1.386.579v1.621h2v-1.621c.5-.114.965-.313,1.386-.579l.622.622c-.001.026-.008.051-.008.078,0,.828.672,1.5,1.5,1.5s1.5-.672,1.5-1.5-.672-1.5-1.5-1.5c-.027,0-.052.006-.078.008l-.622-.622c.266-.421.465-.887.579-1.386h1.621v-2h-1.621Z"/></svg>
