<?xml version="1.0" encoding="UTF-8"?>
<svg xmlns="http://www.w3.org/2000/svg" id="Layer_1" data-name="Layer 1" viewBox="0 0 24 24">
  <path d="m16,14v2l-1.5,8H5v-8h-2v8h-1c-1.105,0-2-.895-2-2v-6c0-1.105.895-2,2-2h3.026l2.193-4.149c.18-.352.428-.614.682-.719.212-.088.427-.132.64-.132.682,0,1.244.446,1.432,1.136.022.08.05.265-.007.599l-.58,3.265h6.613Zm6.5-4.5c0-1.131-.252-2.204-.702-3.167l1.741-1.115-1.078-1.684-1.744,1.116c-1.173-1.381-2.836-2.333-4.717-2.585V0h-2v2.066c-1.845.245-3.522,1.163-4.724,2.586l-1.735-1.116-1.082,1.682,2.929,1.885c1.205.3,2.169,1.233,2.515,2.508.026.093.074.21.132.343-.022-.148-.034-.299-.034-.454,0-1.657,1.343-3,3-3s3,1.343,3,3c0,1.044-.533,1.963-1.342,2.5,0,0,1.342.5,1.342,1.5v2.863c1.05-.463,1.974-1.16,2.707-2.021l1.754,1.123,1.078-1.684-1.748-1.119c.455-.965.709-2.037.709-3.162Z"/>
</svg>
