<?xml version="1.0" encoding="UTF-8"?>
<svg xmlns="http://www.w3.org/2000/svg" id="Layer_1" data-name="Layer 1" viewBox="0 0 24 24">
  <path d="m24,8.92v.58l-5,.5v2.9c0,1.48-.2,2.44-.62,3.9l-.38,1.81v5.4h-4v-5h-4.38l-.62,5h-4.15l.68-4.92c-.11-.36-.25-.76-.4-1.17-.49-1.4-1.09-3.13-1.13-4.72-1.32,1.08-2,3.02-2,5.81H0c0-5.16,2.1-7.32,4.08-8.21,1.06,1.76,2.89,3.48,5.98,4.71l.74-1.86c-6.11-2.44-6.3-6.9-6.03-9,.31-1.73.79-3.05.79-3.05,0,0,3.31,5.6,6.46,6.3.18-1.9,1.21-4.62,4.05-5.55.3-1.34,1.49-2.34,2.92-2.34v1.6l4.63-1.6c.2.34.17.28.37.61l-4.27,3.52c.6,1.07,1.57,1.92,2.85,2.53.86.41,1.41,1.3,1.41,2.25Z"/>
</svg>
