<?xml version="1.0" encoding="UTF-8"?>
<svg xmlns="http://www.w3.org/2000/svg" id="Layer_1" data-name="Layer 1" viewBox="0 0 24 24" width="512" height="512"><path d="m20.485,20.485c-2.339,2.34-5.413,3.509-8.485,3.509s-6.146-1.169-8.485-3.509C-1.164,15.807-1.164,8.193,3.515,3.515,8.194-1.166,15.807-1.164,20.485,3.515l.707.707-7.071,7.071-.707-.707c-.752-.752-2.097-.717-2.855.029-.367.381-.566.881-.559,1.41.007.534.221,1.033.604,1.406.765.746,2.082.729,2.828-.036l1.432,1.396c-.746.765-1.745,1.194-2.813,1.208-1.068.014-2.078-.39-2.843-1.136-.765-.745-1.194-1.745-1.208-2.813-.014-1.068.39-2.078,1.136-2.843,1.27-1.27,3.393-1.545,4.897-.656l1.44-1.44c-1.008-.719-2.209-1.113-3.473-1.113-1.514,0-2.938.563-4.046,1.579.029.136.046.276.046.421,0,.976-.7,1.786-1.624,1.962-.764,2.121-.315,4.584,1.381,6.281.75.75,1.667,1.271,2.664,1.542.366-.474.933-.785,1.579-.785s1.213.311,1.579.785c.997-.27,1.914-.792,2.664-1.542,1.563-1.564,2.057-3.776,1.531-5.775l1.588-1.588c1.229,2.912.664,6.408-1.705,8.776-1.088,1.088-2.415,1.787-3.812,2.117-.303.72-1.014,1.226-1.844,1.226s-1.542-.506-1.844-1.226c-1.398-.329-2.725-1.029-3.812-2.117-2.259-2.259-2.873-5.542-1.86-8.367-.297-.349-.483-.796-.483-1.29,0-1.105.895-2,2-2,.213,0,.415.042.607.104,2.887-2.642,7.25-2.784,10.293-.419l1.428-1.428c-3.925-3.211-9.74-2.987-13.4.672-3.898,3.899-3.898,10.243,0,14.143,3.899,3.899,10.244,3.897,14.143,0,3.16-3.16,3.757-7.926,1.795-11.695l1.461-1.461c2.708,4.599,2.103,10.625-1.842,14.57Z"/></svg>
