<?xml version="1.0" encoding="UTF-8"?>
<svg xmlns="http://www.w3.org/2000/svg" id="Layer_1" data-name="Layer 1" viewBox="0 0 24 24">
  <path d="m14,16.5c0,.813-.916,1.5-2,1.5s-2-.687-2-1.5.916-1.5,2-1.5,2,.687,2,1.5Zm9-3.5c0,6.065-4.935,11-11,11S1,19.065,1,13,5.935,2,12,2s11,4.935,11,11Zm-14.5-1c.828,0,1.5-.672,1.5-1.5s-.672-1.5-1.5-1.5-1.5.672-1.5,1.5.672,1.5,1.5,1.5Zm7.5,4.5c0-1.93-1.794-3.5-4-3.5s-4,1.57-4,3.5,1.794,3.5,4,3.5,4-1.57,4-3.5Zm1-6c0-.828-.672-1.5-1.5-1.5s-1.5.672-1.5,1.5.672,1.5,1.5,1.5,1.5-.672,1.5-1.5ZM7.308.876C5.573,0,3.461,0,1,0H0v1c0,.124.015,2.392.99,5.094C2.471,3.742,4.684,1.895,7.308.876Zm15.702,5.218c.975-2.702.99-4.971.99-5.094V0h-1c-2.461,0-4.573,0-6.308.876,2.623,1.019,4.837,2.866,6.318,5.218Z"/>
</svg>
