<?xml version="1.0" encoding="UTF-8"?>
<svg xmlns="http://www.w3.org/2000/svg" id="Layer_1" data-name="Layer 1" viewBox="0 0 24 24">
  <path d="m10,19h-.383l-.617,5h-4.148l.681-4.92c-.112-.36-.251-.755-.396-1.172-.489-1.4-1.087-3.127-1.133-4.72-1.323,1.083-2.003,3.02-2.003,5.812H0c0-5.683,2.546-7.73,4.682-8.448l.155-.052h.062c.734-.907,1.842-1.5,3.096-1.5h.006v4c0,1.302.839,2.402,2,2.816v3.184Zm12.587-12.336c-1.788-.857-2.965-2.171-3.398-3.906l-.188-.758V0c-1.429,0-2.619,1.001-2.921,2.338-3.163,1.041-4.079,4.291-4.079,6.162v.5h2v4c0,1.302-.839,2.402-2,2.816v3.184h2v5h4v-5.395l.385-1.811c.417-1.46.615-2.416.615-3.896v-2.899l5-.5v-.584c0-.956-.555-1.839-1.413-2.252Zm-12.587,6.336c0,.551.449,1,1,1s1-.449,1-1v-4h-2v4Z"/>
</svg>
