<?xml version="1.0" encoding="UTF-8"?>
<svg xmlns="http://www.w3.org/2000/svg" id="Layer_1" data-name="Layer 1" viewBox="0 0 24 24">
  <path d="m3.136,6.317L.389,3.687l1.384-1.444,2.747,2.631-1.384,1.444Zm5.298-2.473L7.896.052l-1.98.281.538,3.792,1.98-.281ZM18.084.333l-1.98-.281-.538,3.792,1.98.281.538-3.792Zm5.526,3.353l-1.384-1.444-2.747,2.631,1.384,1.444,2.747-2.631Zm.389,19.313c0-1.654-1.346-3-3-3H3c-1.654,0-3,1.346-3,3v1h24v-1ZM3.031,18l1.149-8.506c.249-1.988,1.956-3.494,3.968-3.494h7.703c2.013,0,3.719,1.506,3.969,3.504l1.148,8.496H3.031Zm4.576-4h2.018l.27-2h2.104v-2h-3.852l-.54,4Z"/>
</svg>
