<?xml version="1.0" encoding="UTF-8"?>
<svg xmlns="http://www.w3.org/2000/svg" id="Layer_1" data-name="Layer 1" viewBox="0 0 24 24">
  <path d="m16.086,20h-3.086s0-3.086,0-3.086l7.275-7.275c.852-.852,2.234-.852,3.086,0h0c.852.852.852,2.234,0,3.086l-7.275,7.275Zm-4.086-14c0,3.314-2.686,6-6,6S0,9.314,0,6,2.686,0,6,0s6,2.686,6,6Zm-1.641-1.256l-1.398-1.43-3.614,3.703-2.216-2.301-1.387,1.441,2.182,2.268c.766.765,2.079.763,2.823.019l.004-.004,3.607-3.696Zm6.558,17.256h-5.914v-5.914l7.861-7.861c.456-.456.995-.771,1.566-.972-.545-.756-1.427-1.253-2.43-1.253h-4c0,4.418-3.582,8-8,8-1.062,0-2.073-.211-3-.587v10.587h18v-6.083l-4.083,4.083Z"/>
</svg>
