<?xml version="1.0" encoding="UTF-8"?>
<svg xmlns="http://www.w3.org/2000/svg" id="Layer_1" data-name="Layer 1" viewBox="0 0 24 24">
  <path d="m3.08,9.799c-1.38,2.265-2.297,6.824-2.823,10.25l-.285,1.853c-.047-2.292-.091-7.441.398-9.539.032-.136.052-.34-.032-.531-.479-1.087-.448-2.317.085-3.372.09-.181.194-.352.309-.511.237-.331.341-.734.298-1.159-.072-.71.06-1.421.381-2.058.458-.909,1.244-1.582,2.213-1.896l.227-.075c.458-.152.979-.325,1.836-.487.216-.041.807-.377,1.13-.619-.354.544-.615,1.145-.757,1.787-.083.374-.272.672-.569.889-.23.169-.451.355-.663.567-1.229,1.23-1.839,2.934-1.672,4.673.005.058-.022.141-.076.228ZM22.513,1.487C20.097-.765,17.441-.01,15.982.84c-.562.327-1.213.467-1.857.381-1.211-.161-1.871-.131-2.598-.135-.927-.005-1.855.345-2.562,1.052-.496.496-.811,1.1-.952,1.736-.186.84-.645,1.563-1.34,2.07-.15.11-.294.232-.43.368-.841.841-1.202,1.972-1.097,3.069.049.515-.089,1.017-.358,1.459-1.284,2.106-2.162,6.958-2.555,9.513l7.766-7.766v-5.586h2v3.586l3.954-3.954,1.414,1.414-3.954,3.954h3.586v2h-5.586l-7.766,7.766c2.555-.392,7.406-1.271,9.513-2.555.441-.269.944-.407,1.459-.358,1.097.105,2.228-.256,3.069-1.097.136-.136.259-.28.368-.43.507-.695,1.23-1.154,2.07-1.34.636-.141,1.24-.456,1.736-.952.707-.707,1.058-1.635,1.052-2.562-.004-.727.025-1.387-.135-2.598-.085-.645.054-1.295.381-1.857.85-1.459,1.604-4.115-.647-6.531Zm-2.841,17.018c-.173.235-.36.457-.569.666-1.23,1.229-2.937,1.838-4.673,1.674-.055-.012-.141.021-.228.074-2.267,1.381-6.825,2.298-10.251,2.824l-1.852.285c.668.014,1.573.027,2.578.027,2.451,0,5.474-.079,6.96-.425.136-.03.338-.052.53.033,1.087.477,2.319.445,3.373-.085.182-.092.353-.195.507-.307.335-.239.73-.349,1.164-.302.706.071,1.42-.061,2.057-.381.909-.458,1.583-1.244,1.896-2.212l.075-.228c.152-.459.325-.979.487-1.838.041-.218.374-.804.617-1.128-.544.353-1.144.613-1.785.755-.373.083-.672.273-.886.565Z"/>
</svg>
