<?xml version="1.0" encoding="UTF-8"?>
<svg xmlns="http://www.w3.org/2000/svg" id="Layer_1" data-name="Layer 1" viewBox="0 0 24 24">
  <path d="m23.418,10.686c.365.614.582,1.318.582,2.046v11.269H0l.002-11.269c0-.74.223-1.457.604-2.081l7.888,7.889c.943.942,2.199,1.46,3.536,1.46s2.592-.519,3.535-1.461l7.853-7.853Zm-3.418.558l-5.849,5.88c-1.131,1.131-3.112,1.129-4.243,0l-5.908-5.948V3c0-1.657,1.343-3,3-3h10c1.657,0,3,1.343,3,3v8.244Zm-11.5-5.244c.828,0,1.5-.672,1.5-1.5s-.672-1.5-1.5-1.5-1.5.672-1.5,1.5.672,1.5,1.5,1.5Zm7,5.5c0-1.933-1.567-3.5-3.5-3.5s-3.5,1.567-3.5,3.5,1.567,3.5,3.5,3.5,3.5-1.567,3.5-3.5Zm1.5-7c0-.828-.672-1.5-1.5-1.5s-1.5.672-1.5,1.5.672,1.5,1.5,1.5,1.5-.672,1.5-1.5Zm-5,8.5c.828,0,1.5-.672,1.5-1.5s-.672-1.5-1.5-1.5-1.5.672-1.5,1.5.672,1.5,1.5,1.5Z"/>
</svg>
