<?xml version="1.0" encoding="UTF-8"?>
<svg xmlns="http://www.w3.org/2000/svg" id="Layer_1" data-name="Layer 1" viewBox="0 0 24 24">
  <path d="m19,0c-1.657,0-3,3.806-3,8.5s1.343,8.5,3,8.5,3-3.806,3-8.5S20.657,0,19,0Zm0,10.5c-.552,0-1-.895-1-2s.448-2,1-2,1,.895,1,2-.448,2-1,2Zm5,11.5v2h-13c-1.657,0-3-1.343-3-3v-2h11c1.241,0,2.235-.68,3-1.794v2.794c0,1.103.897,2,2,2Zm-12-13v-2h2.043c.157-2.715.749-5.302,1.825-7H5C2.486,0,.461,2.814.069,7h1.931v2H.008c.141,4.732,2.283,8,4.992,8h10.868c-1.207-1.905-1.804-4.93-1.863-8h-2.005Zm-6,0h-2v-2h2v2Zm4,0h-2v-2h2v2Z"/>
</svg>
