<?xml version="1.0" encoding="UTF-8"?>
<svg xmlns="http://www.w3.org/2000/svg" id="Layer_1" data-name="Layer 1" viewBox="0 0 24 24" width="512" height="512"><path d="m4,0H0v24h4V0Zm20,0h-4v24h4V0Z"/><g><polygon points="9.28 9.505 7.406 9.505 8.344 11.043 9.28 9.505"/><polygon points="8.344 12.964 7.405 14.505 9.284 14.505 8.344 12.964"/><polygon points="12.935 15.505 11.065 15.505 12 17.04 12.935 15.505"/><polygon points="11.06 8.505 12.94 8.505 12 6.961 11.06 8.505"/><polygon points="6 14.891 7.758 12.004 6 9.12 6 14.891"/><polygon points="15.071 12.003 13.549 9.505 10.451 9.505 8.929 12.003 10.455 14.505 13.545 14.505 15.071 12.003"/><polygon points="16.594 9.505 14.72 9.505 15.656 11.043 16.594 9.505"/><polygon points="9.889 8.505 12 5.039 14.111 8.505 18 8.505 18 1 6 1 6 8.505 9.889 8.505"/><polygon points="14.107 15.505 12 18.96 9.893 15.505 6 15.505 6 23 18 23 18 15.505 14.107 15.505"/><polygon points="15.656 12.964 14.716 14.505 16.595 14.505 15.656 12.964"/><polygon points="18 9.12 16.242 12.004 18 14.891 18 9.12"/></g></svg>
