<?xml version="1.0" encoding="UTF-8"?>
<svg xmlns="http://www.w3.org/2000/svg" id="Layer_1" data-name="Layer 1" viewBox="0 0 24 24" width="512" height="512"><path d="m23.332,2.35c-.129-.064-3.194-1.581-6.991-2.124-3.799-.542-7.165.056-7.307.081l-.709.129-1.379,9.652c-.614,4.293,5.604,8.352,6.315,8.8l.379.239.43-.123c.808-.231,7.914-2.387,8.527-6.679l1.38-9.653-.645-.322Zm-9.903,2.5c.837.121,1.393,1.078,1.449,2.227l-3.465-.495c.376-1.087,1.177-1.854,2.015-1.732Zm1.096,8.238c-1.917-.271-3.253-1.98-3.472-3.979,2.765,1.857,4.745,2.14,7.92,1.132-.77,1.857-2.533,3.118-4.447,2.847Zm1.344-5.869c.376-1.087,1.177-1.854,2.015-1.732.837.121,1.393,1.078,1.449,2.227l-3.465-.495Zm-2.164,14.291c-1.436,1.297-2.779,2.174-2.875,2.236l-.382.247-.437-.125c-.809-.231-7.917-2.387-8.53-6.681L.101,7.532l.645-.322c.103-.052,2.094-1.036,4.835-1.705l-.614,4.3c-.055.382-.072.759-.058,1.131-.484.385-.787,1.118-.829,1.952l1.145-.164c.271.87.696,1.697,1.208,2.466-.869.807-1.388,2.015-1.433,3.311.972-.764,1.852-1.303,2.741-1.641,1.746,1.936,3.775,3.293,4.453,3.721l1.51.93Z"/></svg>
