<?xml version="1.0" encoding="UTF-8"?>
<svg xmlns="http://www.w3.org/2000/svg" id="Layer_1" data-name="Layer 1" viewBox="0 0 24 24" width="512" height="512"><path d="M5.5,7c-1.93,0-3.5-1.57-3.5-3.5S3.57,0,5.5,0s3.5,1.57,3.5,3.5-1.57,3.5-3.5,3.5Zm9,0c-1.93,0-3.5-1.57-3.5-3.5s1.57-3.5,3.5-3.5,3.5,1.57,3.5,3.5-1.57,3.5-3.5,3.5Zm7.5,10c0-.551-.111-1.071-.276-1.567l1.841-1.06-.998-1.733-1.84,1.06c-.706-.796-1.646-1.378-2.726-1.598v-2.101h-2v2.101c-1.08,.22-2.021,.802-2.726,1.598l-1.84-1.06-.998,1.733,1.841,1.06c-.165,.496-.276,1.016-.276,1.567s.111,1.071,.276,1.567l-1.841,1.06,.998,1.733,1.84-1.06c.706,.796,1.646,1.378,2.726,1.598v2.101h2v-2.101c1.08-.22,2.021-.802,2.726-1.598l1.84,1.06,.998-1.733-1.841-1.06c.165-.496,.276-1.016,.276-1.567Zm-5,1.5c-.827,0-1.5-.673-1.5-1.5s.673-1.5,1.5-1.5,1.5,.673,1.5,1.5-.673,1.5-1.5,1.5Zm-8.657-3.938c.185-.656,.434-1.285,.755-1.871,.446-.87,.992-1.573,1.853-2.341,.499-.454,1.045-.855,1.636-1.189-.64-.709-1.559-1.161-2.587-1.161-1.93,0-3.5,1.57-3.5,3.5,0,1.328,.749,2.474,1.843,3.062Zm-3.843-3.062c0-1.328,.474-2.548,1.261-3.5H3c-1.654,0-3,1.346-3,3v3H5.121c-.394-.762-.621-1.612-.621-2.5Zm3.205,7.393l2.32-1.337c-.017-.186-.025-.371-.025-.556s.008-.37,.025-.556l-.771-.444h-2.254c-1.654,0-3,1.346-3,3v3h5.494l-1.789-3.107Z"/></svg>
