<?xml version="1.0" encoding="UTF-8"?>
<svg xmlns="http://www.w3.org/2000/svg" id="Layer_1" data-name="Layer 1" viewBox="0 0 24 24" width="512" height="512"><path d="M12.001,6.962c-1.346-.384-2.714-.749-4-.89V.072c1.286,.141,2.654,.506,4,.89V6.962Zm2,.547c1.072,.276,2.112,.491,3,.491,.289,0,.627-.034,1.001-.094V1.948c-.331,.033-.666,.052-1,.052-.887,0-1.928-.216-3-.491V7.509Zm6.001-.062c1.313-.366,2.75-.862,3.999-1.329V.09l-1.413,.64c-.017,.008-1.105,.495-2.586,.863V7.447Zm0,2.068v6.132c1.893-.416,3.325-1.055,3.413-1.095l.587-.266v-6.037c-1.244,.451-2.671,.924-4,1.266Zm-2,.404c-.359,.048-.701,.082-1.001,.082-.947,0-1.965-.184-3-.431v6c1.034,.247,2.053,.431,3.001,.431,.336,0,.67-.018,1-.046v-6.036Zm-6.001-.88c-.091-.026-.184-.051-.275-.077-1.272-.363-2.572-.731-3.725-.884v6c1.153,.153,2.454,.521,3.726,.884,.091,.026,.183,.051,.274,.077v-6Zm-6-2.935V.066C3.119,.411,.563,2.088,.444,2.168L0,2.465V24H1.999V15.563c.744-.425,2.325-1.222,4.001-1.476v-5.959c-1.123,.245-2.579,.815-4,1.456v-2.186c1.391-.587,2.819-1.092,4-1.295Z"/></svg>
