<?xml version="1.0" encoding="UTF-8"?>
<svg xmlns="http://www.w3.org/2000/svg" id="Layer_1" data-name="Layer 1" viewBox="0 0 24 24" width="512" height="512"><path d="M14.962,12.502c-.212,0-.424,.081-.585,.242l-4.377,4.377v-1.119c0-.552-.448-1-1-1s-1,.448-1,1v3.58c0,.811,.186,1.625,.612,2.316,.863,1.401,2.292,2.102,3.722,2.102,1.11,0,2.219-.422,3.064-1.267,0,0,3.424-3.441,3.426-3.47,.24-.324,.228-.777-.066-1.071-.162-.162-.373-.242-.585-.242s-.424,.081-.585,.242l-1.84,1.84-.985-.985,3.631-3.631c.323-.323,.323-.847,0-1.171-.162-.162-.374-.242-.585-.242s-.424,.081-.585,.242l-3.634,3.634-1.002-1.002,2.961-2.961c.323-.323,.323-.847,0-1.171-.162-.162-.373-.242-.585-.242h0ZM12,0C5.373,0,0,5.373,0,12c0,4.78,2.802,8.895,6.846,10.824-.549-.943-.846-2.057-.846-3.242v-3.58c0-1.308,.849-2.407,2.019-2.816-.003-.063-.019-.122-.019-.186,0-2.209,1.791-4,4-4,1.28,0,2.406,.612,3.139,1.548,.672,.039,1.332,.292,1.823,.784,.207,.206,.377,.439,.509,.69,.855-.101,1.728,.195,2.342,.813,.529,.53,.823,1.24,.823,1.996,0,.659-.224,1.284-.636,1.787,.058,.049,.113,.101,.168,.154,.999,.999,1.106,2.547,.26,3.684l-.033-.024c-.138,.173-.33,.39-.579,.657,2.56-2.197,4.185-5.449,4.185-9.089C24,5.373,18.627,0,12,0ZM5.707,9.707l-1.414-1.414c1.802-1.802,3.655-2.903,5.511-3.273l.393,1.961c-1.462,.292-2.972,1.209-4.489,2.727Zm12.586,0c-1.518-1.518-3.027-2.435-4.489-2.727l.393-1.961c1.855,.37,3.709,1.472,5.511,3.273l-1.414,1.414Z"/></svg>
