<?xml version="1.0" encoding="UTF-8"?>
<svg xmlns="http://www.w3.org/2000/svg" id="Layer_1" data-name="Layer 1" viewBox="0 0 24 24">
  <path d="m2,12H0C0,5.383,5.383,0,12,0c2.982,0,5.821,1.117,8,3.066V0h2v5c0,1.103-.897,2-2,2h-5v-2h4.116c-1.865-1.893-4.417-3-7.116-3C6.486,2,2,6.486,2,12Zm20,0c0,5.514-4.486,10-10,10-2.699,0-5.252-1.107-7.117-3h4.117v-2h-5c-1.103,0-2,.897-2,2v5h2v-3.066c2.179,1.949,5.018,3.066,8,3.066,6.617,0,12-5.383,12-12h-2Zm-4.302-2.128l-1.416.816c.129.418.218.853.218,1.312s-.089.894-.218,1.312l1.416.816-.998,1.733-1.411-.813c-.605.652-1.393,1.125-2.289,1.33v1.621h-2v-1.621c-.896-.205-1.684-.678-2.289-1.33l-1.411.813-.998-1.733,1.416-.816c-.129-.418-.218-.853-.218-1.313s.089-.895.218-1.312l-1.416-.815.998-1.733,1.411.812c.605-.652,1.393-1.125,2.289-1.33v-1.621h2v1.621c.896.205,1.685.678,2.289,1.33l1.411-.813.998,1.733Zm-4.198,2.128c0-.827-.673-1.5-1.5-1.5s-1.5.673-1.5,1.5.673,1.5,1.5,1.5,1.5-.673,1.5-1.5Z"/>
</svg>
