<?xml version="1.0" encoding="UTF-8"?>
<svg xmlns="http://www.w3.org/2000/svg" id="Layer_1" data-name="Layer 1" viewBox="0 0 24 24">
  <path d="m2,12H0C0,5.383,5.383,0,12,0c3.517,0,6.743,1.509,9,4.091V1h2v4c0,1.103-.897,2-2,2h-4v-2h2.131c-1.856-1.902-4.389-3-7.131-3C6.486,2,2,6.486,2,12Zm7,7.404v-2.335c-.817-.46-1.456-1.189-1.804-2.069h-2.6c-.548-1.35-.75-2.878-.464-4.478.547-3.058,2.924-5.57,5.945-6.292,1.763-.422,3.449-.24,4.922.357v2.344c.817.46,1.456,1.189,1.804,2.069h2.609c.597,1.473.779,3.158.358,4.921-.722,3.02-3.232,5.398-6.289,5.946-1.601.287-3.13.085-4.482-.463Zm2-3.604h.2v1.2h1.6v-1.2h.326c1.199,0,2.174-.975,2.174-2.173,0-1.033-.734-1.929-1.747-2.131l-2.792-.559c-.267-.054-.461-.291-.461-.562,0-.316.257-.574.573-.574h2.127c.316,0,.585.211.671.5h1.62c-.102-1.175-1.09-2.1-2.291-2.1h-.2v-1.2h-1.6v1.2h-.327c-1.198,0-2.173.975-2.173,2.173,0,1.033.734,1.929,1.747,2.131l2.791.559c.268.054.462.291.462.563,0,.316-.258.574-.574.574h-2.126c-.316,0-.585-.211-.671-.5h-1.62c.102,1.175,1.09,2.1,2.291,2.1Zm11-3.8c0,5.514-4.486,10-10,10-2.742,0-5.275-1.098-7.131-3h2.131v-2H3c-1.103,0-2,.897-2,2v4h2v-3.091c2.257,2.582,5.483,4.091,9,4.091,6.617,0,12-5.383,12-12h-2Z"/>
</svg>
