<?xml version="1.0" encoding="UTF-8"?>
<svg xmlns="http://www.w3.org/2000/svg" id="Layer_1" data-name="Layer 1" viewBox="0 0 24 24" width="512" height="512"><path d="m10.5,2.551C10.5,1.171,11.619.051,13,.051s2.5,1.119,2.5,2.5-1.119,2.5-2.5,2.5-2.5-1.119-2.5-2.5Zm-5.675,14.301l-.494,1.199H0v2h5.669l.8-1.942-.665-.421c-.374-.236-.691-.526-.98-.837Zm19.175-4.852c0,3.608-.292,12-3,12-2.101,0-2.746-5.05-2.93-9h1.93v-2h-4.562l-2.3-3.772-2.837,6.572,2.688,1.701v6.551h-2v-5.449l-4.117-2.604c-1.233-.779-1.726-2.324-1.172-3.674l1.753-4.272h-2.836l-1.724,3.447-1.789-.895,2.276-4.553h8.478c1.046,0,2.03.557,2.57,1.452l2.132,3.496h1.446c.059-3.955.512-11,2.993-11,2.708,0,3,8.392,3,12Z"/></svg>
