<?xml version="1.0" encoding="UTF-8"?>
<svg xmlns="http://www.w3.org/2000/svg" id="Layer_1" data-name="Layer 1" viewBox="0 0 24 24">
  <path d="m23.99,7.404l-1.414-1.414-3.629,3.629c-.648-.334-1.266-.576-1.695-.576-.37,0-.725.075-1.068.187l7.773-7.773L22.543.043l-7.773,7.773c.112-.342.187-.698.187-1.068,0-.435-.249-1.064-.589-1.721l3.623-3.623L16.576-.01l-3.268,3.268c-.466-.703-.851-1.216-.851-1.216,0,0-2.5,3.324-2.5,4.705,0,1.087,1.236,3.245,1.764,4.117l-1.951,1.951c.112-.342.187-.698.187-1.068,0-1.381-2.5-4.705-2.5-4.705,0,0-2.5,3.324-2.5,4.705,0,1.087,1.236,3.245,1.764,4.117l-1.951,1.951c.112-.342.187-.698.187-1.068,0-1.381-2.5-4.705-2.5-4.705C2.457,12.043-.043,15.367-.043,16.748c0,1.087,1.236,3.245,1.764,4.117l-1.721,1.721,1.414,1.414,1.721-1.721c.872.528,3.03,1.764,4.117,1.764,1.381,0,4.705-2.5,4.705-2.5,0,0-3.324-2.5-4.705-2.5-.37,0-.725.075-1.068.187l1.951-1.951c.872.528,3.03,1.764,4.117,1.764,1.381,0,4.705-2.5,4.705-2.5,0,0-3.324-2.5-4.705-2.5-.37,0-.725.075-1.068.187l1.951-1.951c.872.528,3.03,1.764,4.117,1.764,1.381,0,4.705-2.5,4.705-2.5,0,0-.524-.393-1.239-.866l3.272-3.272Z"/>
</svg>
