<?xml version="1.0" encoding="UTF-8"?>
<svg xmlns="http://www.w3.org/2000/svg" id="Layer_1" data-name="Layer 1" viewBox="0 0 24 24" width="512" height="512"><path d="M24,13H15.5c-1.933,0-3.5-1.567-3.5-3.5h0c0-1.933,1.567-3.5,3.5-3.5h8.5v7Zm-13.975-4c.254-2.799,2.611-5,5.475-5h3.942C16.993,1.039,13.302-.426,9.453,.106,4.786,.748,1.029,4.414,.183,9H10.025Zm5.475,6c-2.512,0-4.631-1.695-5.287-4H.004c0,2.572,.882,5.037,2.539,7.029,.295,.353,.457,.801,.457,1.262v4.709h13v-3h2.247c1.5,0,2.778-1.121,2.974-2.606l.449-3.394h-6.17Z"/></svg>
