<?xml version="1.0" encoding="UTF-8"?>
<svg xmlns="http://www.w3.org/2000/svg" id="Layer_1" data-name="Layer 1" viewBox="0 0 24 24" width="512" height="512"><path d="M8.64,6c1.39-2.32,2.04-3.17,2.45-3.62C12.38,.99,14.12,.16,16,.02V5.82c-.13,.04-.26,.11-.38,.18h-6.98ZM4.15,14c-.81,1.47-1.58,2.88-2.21,4h6.55c.51-.92,1.05-1.9,1.58-2.88,.21-.39,.42-.76,.61-1.12H4.15ZM18,6h5.87c-.29-1.52-1.06-2.92-2.24-4.01-1.03-.96-2.28-1.59-3.63-1.85V6ZM.83,20c-.17,.31-.27,.49-.27,.49l-.5,.9,5.09,2.64,.47-.85s.73-1.31,1.77-3.18H.83ZM18.09,8c-.08,.19-.2,.37-.35,.53l-1,1.39,4.81,3.28,.58-.74c1.07-1.37,1.69-2.9,1.82-4.46h-5.87Zm-10.62,0c-.63,1.1-1.36,2.42-2.23,4h6.55c1.05-1.88,1.8-3.14,2.33-4H7.47Z"/></svg>
