<?xml version="1.0" encoding="UTF-8"?>
<svg xmlns="http://www.w3.org/2000/svg" id="Layer_1" data-name="Layer 1" viewBox="0 0 24 24">
  <path d="m10,15c0,.378.271.698.644.76l3.041.507c1.342.223,2.315,1.373,2.315,2.733,0,1.654-1.346,3-3,3v2h-2v-2c-1.654,0-3-1.346-3-3h2c0,.551.448,1,1,1h2c.552,0,1-.449,1-1,0-.378-.271-.698-.644-.76l-3.041-.507c-1.342-.223-2.315-1.373-2.315-2.733,0-1.654,1.346-3,3-3v-2h2v2c1.654,0,3,1.346,3,3h-2c0-.551-.448-1-1-1h-2c-.552,0-1,.449-1,1Zm14.011-3.818l-2.597-2.596c-.779-.78-2.049-.78-2.828,0l-2.577,2.577,1.414,1.414,1.577-1.577v13h2v-13l1.597,1.596,1.414-1.414ZM11,3v5h2V3l1.597,1.596,1.414-1.414-2.597-2.596c-.779-.78-2.049-.78-2.828,0l-2.577,2.577,1.414,1.414,1.577-1.577Zm-2.989,5.182l-2.597-2.596c-.779-.78-2.049-.78-2.828,0L.009,8.163l1.414,1.414,1.577-1.577v16h2V8l1.597,1.596,1.414-1.414Z"/>
</svg>
