<?xml version="1.0" encoding="UTF-8"?>
<svg xmlns="http://www.w3.org/2000/svg" id="Layer_1" data-name="Layer 1" viewBox="0 0 24 24">
  <path d="m23.959,22.545l-2.792-2.792c.524-.791.833-1.736.833-2.753,0-2.757-2.243-5-5-5s-5,2.243-5,5,2.243,5,5,5c1.017,0,1.962-.309,2.753-.833l2.792,2.792,1.414-1.414Zm-13.959-5.545c0-1.075.25-2.09.683-3h-1.683v-2h2v1.408c1.223-2.039,3.449-3.408,6-3.408.183,0,.362.014.542.027L12.619,1.531C12.063.573,11.07,0,9.962,0c-1.108,0-2.103.572-2.66,1.53L.422,13.381c-.56.962-.562,2.113-.007,3.078.556.965,1.552,1.541,2.664,1.541h7.001c-.047-.327-.08-.66-.08-1Zm-1-12h2v5h-2v-5Z"/>
</svg>
