<?xml version="1.0" encoding="UTF-8"?>
<svg xmlns="http://www.w3.org/2000/svg" id="Layer_1" data-name="Layer 1" viewBox="0 0 24 24">
  <path d="m21,9v9h-6.329l-1,1h-3.343l-1-1H3v-9h8v4.034l-1.793-1.792-1.414,1.414,2.881,2.881c.366.365.846.549,1.326.549s.96-.184,1.326-.549l2.881-2.881-1.414-1.414-1.793,1.792v-4.034h8Zm-8-3h-2v3h2v-3Zm4-2h-2v2h2v-2Zm-4-3h-2v2h2V1Zm6-1h-2v2h2V0ZM7,0h-2v2h2V0Zm2,4h-2v2h2v-2Zm-4.5,3L2.083,0H0l2.417,7h2.083Zm17.083,0L24,0h-2.083s-2.417,7-2.417,7h2.083Zm-13.083,13H1v2c0,1.105.895,2,2,2h18c1.105,0,2-.895,2-2v-2h-7.5l-1,1h-5l-1-1Z"/>
</svg>
