<?xml version="1.0" encoding="UTF-8"?>
<svg xmlns="http://www.w3.org/2000/svg" id="Layer_1" data-name="Layer 1" viewBox="0 0 24 24" width="512" height="512"><path d="M15,7.5C15,3.36,11.64,0,7.5,0H3C1.35,0,0,1.35,0,3V24H2V15H7.5c.13,0,.25-.01,.37-.02l4.86,9.02h2.27l-5.07-9.41c2.94-1.01,5.07-3.8,5.07-7.09Zm-7.5,5.5H2V3c0-.55,.45-1,1-1H7.5c3.03,0,5.5,2.47,5.5,5.5s-2.47,5.5-5.5,5.5Zm13,0h-1.5c-1.65,0-3,1.35-3,3v8h2v-4h2.5c1.93,0,3.5-1.57,3.5-3.5s-1.57-3.5-3.5-3.5Zm0,5h-2.5v-2c0-.55,.45-1,1-1h1.5c.83,0,1.5,.67,1.5,1.5s-.67,1.5-1.5,1.5Z"/></svg>
