<?xml version="1.0" encoding="UTF-8"?>
<svg xmlns="http://www.w3.org/2000/svg" id="Layer_1" data-name="Layer 1" viewBox="0 0 24 24">
  <path d="m7.3,9.862l1.411-.813c.605.652,1.393,1.125,2.289,1.33v1.621h2v-1.621c.896-.205,1.685-.678,2.289-1.33l1.411.813.998-1.733-1.416-.816c.129-.418.218-.853.218-1.313s-.089-.895-.218-1.313l1.416-.816-.998-1.733-1.411.813c-.605-.652-1.393-1.125-2.289-1.33V0h-2v1.621c-.896.205-1.685.678-2.289,1.33l-1.411-.813-.998,1.733,1.416.816c-.129.418-.218.853-.218,1.313s.089.895.218,1.313l-1.416.816.998,1.733Zm4.7-5.362c.827,0,1.5.673,1.5,1.5s-.673,1.5-1.5,1.5-1.5-.673-1.5-1.5.673-1.5,1.5-1.5Zm1,16.5v1h4v2H7v-2h4v-1H0v-13c0-1.654,1.346-3,3-3h1.069c-.041.328-.069.661-.069,1,0,4.418,3.582,8,8,8s8-3.582,8-8c0-.339-.028-.672-.069-1h1.069c1.654,0,3,1.346,3,3v13h-11Z"/>
</svg>
