<?xml version="1.0" encoding="UTF-8"?>
<svg xmlns="http://www.w3.org/2000/svg" id="Layer_1" data-name="Layer 1" viewBox="0 0 24 24">
  <path d="m23.772,20.55l-2.772,2.95v-2.5H3V3H.5L3.45.228c.304-.304.796-.304,1.1,0l2.95,2.772h-2.5v14.54c.8-1.345,1.785-3.313,2.205-4.8,1.531-5.419,2.582-8.74,4.795-8.74,1.843,0,2.881,2.32,4.06,6.219-.4-.138-.833-.219-1.31-.219-2.77,0-4.149,2.592-5.26,4.677h0s0,0,0,0c-.331.623-1.114,1.941-1.399,2.323-.77,1.154-1.591,2-1.591,2h2c.956,0,1.954-1.876,2.756-3.383.99-1.86,1.925-3.617,3.494-3.617s2.504,1.757,3.494,3.617c.802,1.507,1.8,3.383,2.756,3.383v-2.5l2.772,2.95c.304.304.304.796,0,1.1Z"/>
</svg>
