<?xml version="1.0" encoding="UTF-8"?>
<svg xmlns="http://www.w3.org/2000/svg" id="Layer_1" data-name="Layer 1" viewBox="0 0 24 24">
  <path d="m8.5,4v-2c0-1.103.897-2,2-2h3c1.103,0,2,.897,2,2v2c0,1.103-.897,2-2,2h-3c-1.103,0-2-.897-2-2Zm5,14h-3c-1.103,0-2,.897-2,2v2c0,1.103.897,2,2,2h3c1.103,0,2-.897,2-2v-2c0-1.103-.897-2-2-2Zm8.5,0h-3c-1.103,0-2,.897-2,2v2c0,1.103.897,2,2,2h3c1.103,0,2-.897,2-2v-2c0-1.103-.897-2-2-2Zm-17,0h-3c-1.103,0-2,.897-2,2v2c0,1.103.897,2,2,2h3c1.103,0,2-.897,2-2v-2c0-1.103-.897-2-2-2Zm-.5-4.5c0-.275.224-.5.5-.5h6v3h2v-3h6c.275,0,.5.225.5.5v2.5h2v-2.5c0-1.379-1.121-2.5-2.5-2.5h-6v-3h-2v3h-6c-1.378,0-2.5,1.121-2.5,2.5v2.5h2v-2.5Z"/>
</svg>
