<?xml version="1.0" encoding="UTF-8"?>
<svg xmlns="http://www.w3.org/2000/svg" id="Layer_1" data-name="Layer 1" viewBox="0 0 24 24">
  <path d="m24,0v9c0,1.654-1.346,3-3,3h-1v12h-2v-12h-1c-1.654,0-3-1.346-3-3V0h2v9c0,.551.449,1,1,1h1V0h2v10h1c.551,0,1-.449,1-1V0h2Zm-12,9v-3c-3.309,0-6,2.691-6,6s2.691,6,6,6c1.538,0,2.937-.586,4-1.54v-2.561c-2.279-.465-4-2.484-4-4.899Zm-8,3c0-4.411,3.589-8,8-8V0C5.373,0,0,5.373,0,12s5.373,12,12,12c1.405,0,2.747-.254,4-.697v-4.385c-1.178.684-2.542,1.082-4,1.082-4.411,0-8-3.589-8-8Z"/>
</svg>
