<?xml version="1.0" encoding="UTF-8"?>
<svg xmlns="http://www.w3.org/2000/svg" id="Layer_1" data-name="Layer 1" viewBox="0 0 24 24">
  <path d="m11,13h2v2h-2v-2Zm0-1h2v-3h-2v3Zm9.707,1.454l3.224,1.812-2.941,5.23-3.188-1.794c-.823.73-1.773,1.303-2.801,1.688v3.608h-6v-3.5c-1.094-.364-2.107-.938-2.988-1.691l-3.001,1.688L.07,15.267l2.944-1.655c-.099-.536-.148-1.082-.148-1.631,0-.536.048-1.07.142-1.596L.07,8.733,3.011,3.504l2.975,1.672c.886-.764,1.909-1.346,3.015-1.715V0h6v3.57c1.039.39,1.997.97,2.827,1.711l3.162-1.777,2.941,5.229-3.218,1.811c.077.475.115.955.115,1.438,0,.495-.041.988-.121,1.474Zm-2.707,2.546l-6-10.286-6,10.286h12Z"/>
</svg>
