<?xml version="1.0" encoding="UTF-8"?>
<svg xmlns="http://www.w3.org/2000/svg" id="Layer_1" data-name="Layer 1" viewBox="0 0 24 24">
  <path d="m5,20h2.888c-.596.521-1.04,1.209-1.246,2h-1.642c-1.657,0-3-1.343-3-3v-2h2v2c0,.552.448,1,1,1Zm2-5c0-1.103-.897-2-2-2h-3c-1.103,0-2,.897-2,2v1h7v-1Zm-3.5-3c1.105,0,2-.895,2-2s-.895-2-2-2-2,.895-2,2,.895,2,2,2Zm15.5,1c-1.103,0-2,.897-2,2v1h7v-1c0-1.103-.897-2-2-2h-3Zm-7-9c1.105,0,2-.895,2-2s-.895-2-2-2-2,.895-2,2,.895,2,2,2Zm8.5,4c-1.105,0-2,.895-2,2s.895,2,2,2,2-.895,2-2-.895-2-2-2ZM5,2c-1.657,0-3,1.343-3,3v1.297c.464-.188.969-.297,1.5-.297.171,0,.335.029.5.05v-1.05c0-.552.448-1,1-1h2.914c.144-.126.28-.262.443-.366-.225-.5-.357-1.051-.357-1.634h-3Zm15,3v1.05c.165-.022.329-.05.5-.05.531,0,1.036.109,1.5.297v-1.297c0-1.657-1.343-3-3-3h-3c0,.583-.132,1.134-.357,1.634.163.104.298.24.443.366h2.914c.552,0,1,.448,1,1Zm0,14c0,.552-.448,1-1,1h-2.888c.596.521,1.04,1.209,1.246,2h1.642c1.657,0,3-1.343,3-3v-2h-2v2Zm-6.5-14h-3c-1.103,0-2,.897-2,2v1h7v-1c0-1.103-.897-2-2-2Zm0,16h-3c-1.103,0-2,.897-2,2v1h7v-1c0-1.103-.897-2-2-2Zm-1.5-1c1.105,0,2-.895,2-2s-.895-2-2-2-2,.895-2,2,.895,2,2,2Z"/>
</svg>
