<?xml version="1.0" encoding="UTF-8"?>
<svg xmlns="http://www.w3.org/2000/svg" id="Layer_1" data-name="Layer 1" viewBox="0 0 24 24" width="512" height="512"><path d="m24,14v9h-12v-5c0-2.206,1.794-4,4-4h8Zm-6.898-6.688l-1.532,1.532c.845.895,1.506,1.967,1.931,3.156h-1.501c-3.309,0-6,2.691-6,6v5H0v-7.971C0,10.39,3.507,6.56,8,6.059v-2.059h2v2.061c1.477.165,2.852.69,4.036,1.489l1.652-1.652c-1.054-1.355-1.688-3.052-1.688-4.898h2c0,3.309,2.691,6,6,6v2c-1.846,0-3.542-.634-4.898-1.688Zm-11.102,8.688h-3v3h3v-3Z"/></svg>
