<?xml version="1.0" encoding="UTF-8"?>
<svg xmlns="http://www.w3.org/2000/svg" id="Layer_1" data-name="Layer 1" viewBox="0 0 24 24">
  <path d="m24,21.086v2.914h-8.728c-1.46-1.794-2.272-4.03-2.272-6.388v-5.612c0-1.105.895-2,2-2s2,.895,2,2v4h2v-4c0-2-1.328-3.045-1.41-3.154l-4.229-5.7c-.633-.905-.412-2.152.493-2.785h0c.905-.633,2.152-.412,2.785.493l5.583,7.589c.505.687.778,1.518.778,2.37v9.273l1,1ZM0,21.086v2.914s8.728,0,8.728,0c1.46-1.794,2.272-4.03,2.272-6.388v-5.612c0-1.105-.895-2-2-2s-2,.895-2,2v4h-2v-4c0-2,1.328-3.045,1.41-3.154l4.229-5.7c.633-.905.412-2.152-.493-2.785h0c-.905-.633-2.152-.412-2.785.493L1.778,8.443c-.505.687-.778,1.518-.778,2.37v9.273S0,21.086,0,21.086Z"/>
</svg>
