<?xml version="1.0" encoding="UTF-8"?>
<svg xmlns="http://www.w3.org/2000/svg" id="Layer_1" data-name="Layer 1" viewBox="0 0 24 24" width="512" height="512"><path d="M19.5,24H4.5c-2.481,0-4.5-2.019-4.5-4.5,0-2.249,1.612-4.09,3.771-4.435,1.055-1.88,3.047-3.065,5.229-3.065,1.058,0,2.083,.282,3,.821,.917-.539,1.942-.821,3-.821,2.182,0,4.174,1.186,5.229,3.065,2.158,.345,3.771,2.186,3.771,4.435,0,2.481-2.019,4.5-4.5,4.5ZM9,10c1.028,0,2.048,.204,3,.594,.952-.391,1.972-.594,3-.594,1.319,0,2.591,.331,3.72,.926,.178-.618,.279-1.269,.279-1.944-.009-4.167-3.895-6.939-4.675-7.453l-2.325-1.53s-1,1.284-1,2.284c0,1.5,1,1.954,1,2.954,0,.828-.462,1.75-1.741,1.75s-1.759-.922-1.759-1.75c0-1,1-2.75,1-2.75,0,0-4.5,1.52-4.5,6.499,0,.673,.101,1.323,.278,1.94,1.13-.596,2.402-.927,3.722-.927Z"/></svg>
