<?xml version="1.0" encoding="UTF-8"?>
<svg xmlns="http://www.w3.org/2000/svg" id="Layer_1" data-name="Layer 1" viewBox="0 0 24 24" width="512" height="512"><path d="M9.139,5.725l-3.604-3.604C7.098,.979,8.967,.235,11,.051V5.09c-.663,.111-1.291,.325-1.861,.635Zm-3.139,5.275H1v3H6v-3Zm11.651-2h5.158c-.394-2.132-1.403-4.045-2.837-5.558l-3.532,3.532c.529,.583,.943,1.269,1.211,2.026Zm-2.79-3.275l3.604-3.604C16.902,.979,15.033,.235,13,.051V5.09c.663,.111,1.291,.325,1.861,.635Zm-7.301,1.249l-3.532-3.532c-1.434,1.512-2.444,3.426-2.837,5.558H6.349c.268-.757,.683-1.443,1.211-2.026Zm10.44,4.026v3h5v-3h-5Zm-12,5H1v3H6v-3Zm12,3h5v-3h-5v3Zm-12,2H1v3H6v-3Zm12,3h5v-3h-5v3ZM13,7.141V24h3V11c0-1.862-1.278-3.413-3-3.859Zm-2,0c-1.722,.446-3,1.997-3,3.859v13h3V7.141Z"/></svg>
