<?xml version="1.0" encoding="UTF-8"?>
<svg xmlns="http://www.w3.org/2000/svg" id="Layer_1" data-name="Layer 1" viewBox="0 0 24 24" width="512" height="512"><path d="m16.883,21.125l1.483,1.483c-1.62.908-3.453,1.392-5.366,1.392h-2C4.935,24,0,19.065,0,13h2c0,4.962,4.038,9,9,9h2c1.368,0,2.687-.302,3.883-.875Zm7.117-8.125h-2c0,2.075-.7,4.048-1.987,5.642l-1.736-1.736c.885-1.136,1.441-2.478,1.618-3.906h-5.895v-2h5.957v-2h-5.957v-2h5.895c-.494-3.941-3.865-7-7.938-7-2.818,0-5.362,1.448-6.803,3.783L1.414.043,0,1.457l22.5,22.5,1.414-1.414-2.48-2.48c1.661-1.977,2.566-4.454,2.566-7.063Zm-20-2h2.757l-2.757-2.757v2.757Zm8,9c1.093,0,2.151-.217,3.126-.631l-6.369-6.369h-4.695c.494,3.941,3.865,7,7.938,7Z"/></svg>
