<?xml version="1.0" encoding="UTF-8"?>
<svg xmlns="http://www.w3.org/2000/svg" id="Layer_1" data-name="Layer 1" viewBox="0 0 24 24">
  <path d="m15.5,5c1.817,0,3.526.708,4.812,1.993l-1.414,1.414c-.907-.908-2.114-1.407-3.397-1.407s-2.489.5-3.397,1.407l-1.414-1.414c1.285-1.285,2.994-1.993,4.811-1.993Zm0-3c2.65,0,5.144,1.033,7.019,2.907l1.414-1.414c-2.253-2.252-5.248-3.493-8.433-3.493s-6.18,1.241-8.433,3.493l1.414,1.414c1.875-1.875,4.367-2.907,7.019-2.907Zm8.5,16v6H0v-6c0-1.654,1.346-3,3-3h11.5v-5h2v5h4.5c1.654,0,3,1.346,3,3Zm-18,1.5c0-.828-.672-1.5-1.5-1.5s-1.5.672-1.5,1.5.672,1.5,1.5,1.5,1.5-.672,1.5-1.5Zm5,0c0-.828-.672-1.5-1.5-1.5s-1.5.672-1.5,1.5.672,1.5,1.5,1.5,1.5-.672,1.5-1.5Z"/>
</svg>
