<?xml version="1.0" encoding="UTF-8"?>
<svg xmlns="http://www.w3.org/2000/svg" id="Layer_1" data-name="Layer 1" viewBox="0 0 24 24" width="512" height="512"><path d="m23.298,11.078c-.575-.681-1.414-1.07-2.303-1.07h-8.99v-3.001h11.995v-2h-11.995v-1.929l11.978-.572-.096-1.998L2.951,1.508l.096,1.998,1.959-.094v1.595h-2.007v2h2.007v3.001h-1.991c-.889,0-1.729.391-2.304,1.07-.568.672-.81,1.553-.664,2.415.778,4.601,3.866,8.689,7.733,10.515h8.45c3.867-1.826,6.955-5.914,7.733-10.515.146-.863-.096-1.743-.665-2.415Zm-13.293-1.07h-3v-3.001h3v3.001Zm0-5.001h-3v-1.69l3-.143v1.833Z"/></svg>
