<?xml version="1.0" encoding="UTF-8"?>
<svg xmlns="http://www.w3.org/2000/svg" id="Layer_1" data-name="Layer 1" viewBox="0 0 24 24" width="512" height="512"><path d="m21.141,8.408l1.058.866,1.268-1.548-3.666-3-1.268,1.548,1.059.867-1.426,1.743c-.669-.45-1.393-.833-2.166-1.133V2h1V0H7v2h1v5.75c-4.217,1.639-7,5.668-7,10.25,0,1.129.173,2.244.514,3.313.512,1.607,2.031,2.687,3.779,2.687h13.414c1.748,0,3.268-1.08,3.779-2.687.341-1.069.514-2.184.514-3.313,0-3.039-1.23-5.831-3.286-7.848l1.427-1.744Zm-1.074,5.592c.311.631.55,1.301.707,2H3.226c.157-.699.396-1.369.707-2h16.133Z"/></svg>
