<?xml version="1.0" encoding="UTF-8"?>
<svg xmlns="http://www.w3.org/2000/svg" id="Layer_1" data-name="Layer 1" viewBox="0 0 24 24" width="512" height="512"><path d="m21.394,11h2.606v-2H7.549L1.844.045.156,1.119l6.295,9.881h2.155l4.93,4.607-2.932,2.866c-.465-.296-1.013-.474-1.604-.474-1.654,0-3,1.346-3,3s1.346,3,3,3,3-1.346,3-3c0-.329-.066-.639-.164-.935l3.164-3.089,3.164,3.089c-.098.296-.164.607-.164.935,0,1.654,1.346,3,3,3s3-1.346,3-3-1.346-3-3-3c-.591,0-1.139.178-1.604.474l-2.932-2.866,4.93-4.607Zm-9.86,0h6.932l-3.466,3.239-3.466-3.239Z"/></svg>
