<?xml version="1.0" encoding="UTF-8"?>
<svg xmlns="http://www.w3.org/2000/svg" id="Layer_1" data-name="Layer 1" viewBox="0 0 24 24" width="512" height="512"><path d="M17.07,17.35l1.42-2.82c-1.52,.92-3.42,1.47-5.49,1.47-1.36,0-2.69-.25-3.91-.71-.36-.8-1.24-2.66-1.99-3.41-.7-.7-1.73-.97-2.68-.8-.27-.67-.43-1.37-.43-2.08,0-3.86,4.04-7,9-7s9,3.14,9,7c0,1.37-.52,2.65-1.4,3.73l.96,1.91c1.52-1.54,2.44-3.51,2.44-5.64C24,4.04,19.07,0,13,0S2,4.04,2,9c0,1.07,.25,2.11,.69,3.1-.44,.53-.69,1.19-.69,1.89,0,.42,.09,.82,.25,1.19-1,.99-2.25,2.67-2.25,4.82,0,2.93,2.39,4,4,4v-2c-.46,0-2-.17-2-2,0-1.47,.94-2.69,1.68-3.43,.92,.34,2.26,.43,3.43,.43,.3,0,.58,0,.84-.02,1.55,.65,3.29,1.01,5.04,1.01,1.44,0,2.81-.23,4.07-.65Zm4.26,1.31l2.67,1.33-2.67,1.33-1.33,2.67-1.33-2.67-2.67-1.33,2.67-1.33,1.33-2.67,1.33,2.67ZM14.5,6l1.17,2.33,2.33,1.17-2.33,1.17-1.17,2.33-1.17-2.33-2.33-1.17,2.33-1.17,1.17-2.33Z"/></svg>
