<?xml version="1.0" encoding="UTF-8"?>
<svg xmlns="http://www.w3.org/2000/svg" id="Layer_1" data-name="Layer 1" viewBox="0 0 24 24" width="512" height="512"><path d="m21,0H3C1.346,0,0,1.346,0,3v17h6.923l3.749,3.156c.382.34.861.509,1.337.508.468,0,.931-.162,1.292-.484l3.847-3.18h6.853V3c0-1.654-1.346-3-3-3Zm-8,18h-2v-2h2v2Zm.93-6.495c-.47.259-.93,1.126-.93,1.752v.743h-2v-.743c0-1.19.734-2.826,1.963-3.504.764-.42,1.157-1.254,1.004-2.124-.138-.786-.81-1.458-1.596-1.596-.609-.109-1.195.046-1.656.435-.454.381-.715.939-.715,1.532h-2c0-1.185.521-2.302,1.429-3.064.907-.762,2.103-1.078,3.288-.873,1.612.284,2.937,1.608,3.221,3.221.298,1.697-.509,3.395-2.008,4.222Z"/></svg>
