<?xml version="1.0" encoding="UTF-8"?>
<svg xmlns="http://www.w3.org/2000/svg" id="Layer_1" data-name="Layer 1" viewBox="0 0 24 24">
  <path d="m0,8v-3c0-1.654,1.346-3,3-3h3V0h2v2h8V0h2v2h3c1.654,0,3,1.346,3,3v3H0Zm12.5,16l-.508-7c-.043-.705-.472-1-.988-1-.342,0-.66.242-.841.64l-1.164,2.56-1.164-2.56c-.181-.398-.499-.64-.841-.64-.516,0-.945.295-.988,1l-.508,7h1.604l.319-4.402,1.577,3.468,1.577-3.469.319,4.402h1.604Zm9.9-8v4.063l-1.8-4.054v-.009h-1.6v8h1.6v-4.054l1.8,4.054h1.6v-8h-1.6Zm-4.4,2.3v3.4c0,1.269-1.031,2.3-2.3,2.3s-2.3-1.031-2.3-2.3v-3.4c0-1.269,1.031-2.3,2.3-2.3s2.3,1.031,2.3,2.3Zm-1.6,0c0-.386-.314-.7-.7-.7s-.7.314-.7.7v3.4c0,.386.314.7.7.7s.7-.314.7-.7v-3.4Zm-12.895,5.556l.508-7c.101-1.671,1.327-2.855,2.982-2.855h17.005v-4H0v14h3.51c0-.048-.008-.096-.004-.145Z"/>
</svg>
