<?xml version="1.0" encoding="UTF-8"?>
<svg xmlns="http://www.w3.org/2000/svg" id="Layer_1" data-name="Layer 1" viewBox="0 0 24 24">
  <path d="m18.364,4.636c-3.51-3.509-9.219-3.509-12.729,0l-1.414-1.414c4.289-4.289,11.268-4.289,15.557,0l-1.414,1.414Zm-1.415,1.415c-1.322-1.322-3.079-2.05-4.949-2.05s-3.627.728-4.949,2.05l1.414,1.414c.944-.944,2.2-1.464,3.535-1.464s2.591.52,3.535,1.464l1.414-1.414Zm7.051,6.95v11H0v-11c0-1.654,1.346-3,3-3h18c1.654,0,3,1.346,3,3Zm-18,6h-1v-6h-2v8h3v-2Zm3-6h-2v8h2v-8Zm7,0h-2v.36l-1,3.5-1-3.5v-.36h-2v.5l2.115,7.5h1.783l2.065-7.225.038-.775Zm5,0h-4v8h4v-2h-2v-1h2v-2h-2v-1h2v-2Z"/>
</svg>
