<?xml version="1.0" encoding="UTF-8"?>
<svg xmlns="http://www.w3.org/2000/svg" id="Layer_1" data-name="Layer 1" viewBox="0 0 24 24">
  <path d="m0,13l1.413,3.584c1.376,2.208,3.698,2.416,5.908,2.416.298,0,2.655.005,3.68.002v2.998h-4v2h10v-2h-4v-2.998c1.024.003,2.457.009,2.797.013,2.464.029,5.234.064,6.791-2.432l1.412-3.584H0Zm.025-2c.257-3.351,3.059-6,6.475-6,2.317,0,4.349,1.222,5.5,3.052,1.151-1.83,3.183-3.052,5.5-3.052,3.415,0,6.218,2.649,6.475,6H.025ZM6.525,3c1.157-1.803,3.179-3,5.475-3s4.319,1.197,5.475,3c-2.044.006-3.968.735-5.475,2.024-1.508-1.289-3.432-2.018-5.475-2.024Z"/>
</svg>
