<?xml version="1.0" encoding="UTF-8"?>
<svg xmlns="http://www.w3.org/2000/svg" id="Layer_1" data-name="Layer 1" viewBox="0 0 24 24" width="512" height="512"><path d="M2,7H0V3C0,1.35,1.35,0,3,0H7V2H3c-.55,0-1,.45-1,1V7Zm5,15H3c-.55,0-1-.45-1-1v-4H0v4c0,1.65,1.35,3,3,3H7v-2Zm17-1v-4h-2v4c0,.55-.45,1-1,1h-4v2h4c1.65,0,3-1.35,3-3Zm0-18c0-1.65-1.35-3-3-3h-4V2h4c.55,0,1,.45,1,1V7h2V3ZM12.02,14.86l3.26,2.52,.75-.52-1.33-4.03,3.3-1.91v-.92h-4.33l-1.18-4.5h-.97l-1.18,4.5H6v.92l3.32,1.85-1.3,4.08,.72,.54,3.27-2.53Z"/></svg>
