<?xml version="1.0" encoding="UTF-8"?>
<svg xmlns="http://www.w3.org/2000/svg" id="Layer_1" data-name="Layer 1" viewBox="0 0 24 24">
  <path d="m20.62,6.179c-1.897,1.64-4.444,1.822-5.389,1.822-.166,0-2.23,0-2.23,0,0-3.662-1.184-6.8-1.81-7.948l-1.756.958c.334.611,1.07,2.408,1.399,4.732-.692-1.104-1.554-2.194-2.388-3.143C4.117,4.078,1,8.17,1,13c0,6.075,4.925,11,11,11s11-4.925,11-11c0-2.579-.894-4.945-2.38-6.821Zm-7.12,8.821c-.828,0-1.5-.672-1.5-1.5s.672-1.5,1.5-1.5,1.5.672,1.5,1.5-.672,1.5-1.5,1.5Zm3,4c-.828,0-1.5-.672-1.5-1.5s.672-1.5,1.5-1.5,1.5.672,1.5,1.5-.672,1.5-1.5,1.5Zm2-4c-.828,0-1.5-.672-1.5-1.5s.672-1.5,1.5-1.5,1.5.672,1.5,1.5-.672,1.5-1.5,1.5Zm-3.496-9.004s-.158-2.861,1.51-4.529S20.992.008,20.992.008c0,0,.209,2.81-1.459,4.478-1.668,1.668-4.529,1.51-4.529,1.51Z"/>
</svg>
