<?xml version="1.0" encoding="UTF-8"?>
<svg xmlns="http://www.w3.org/2000/svg" id="Layer_1" data-name="Layer 1" viewBox="0 0 24 24" width="512" height="512"><path d="m10,24H1.703c-.691,0-1.308-.412-1.572-1.051s-.119-1.366.37-1.854l7.134-8.096H0v-2h8.297c.691,0,1.308.413,1.572,1.051s.119,1.366-.37,1.854l-7.134,8.096h7.634v2Zm14-2h-5.553c-.587,0-1.111-.351-1.336-.893s-.102-1.161.313-1.576l3.916-4.531h-4.34v-2h5.553c.587,0,1.111.351,1.336.893s.102,1.161-.313,1.576l-3.916,4.531h4.34v2Zm-5-12h-6.489c-.613,0-1.161-.366-1.395-.932-.235-.566-.106-1.212.327-1.646l4.937-5.422h-5.38V0h6.489c.613,0,1.161.366,1.395.932.235.566.106,1.212-.327,1.646l-4.937,5.422h5.38v2Z"/></svg>
