<?xml version="1.0" encoding="UTF-8"?>
<svg xmlns="http://www.w3.org/2000/svg" id="Layer_1" data-name="Layer 1" viewBox="0 0 24 24">
  <path d="m8.5,21h2v3h-2v-3Zm9.678-6h-2.188l3.475,6h-3.964v3h-2v-3h-3v-12h-2v12H-.005l3.478-6H1.089l3.958-6h-2.154L7.547,1.103l.076-.112c.497-.63,1.266-.991,2.107-.991s1.612.362,2.108.992l3.549,6.008h2.181L13.556.08c.216-.053.443-.08.675-.08.843,0,1.611.362,2.108.992l4.731,8.008h-2.155l3.958,6h-2.383l3.477,6h-2.314l-3.475-6Zm-1.124-2h2.104l-2.638-4h-2.104l2.638,4Z"/>
</svg>
