<?xml version="1.0" encoding="UTF-8"?>
<svg xmlns="http://www.w3.org/2000/svg" id="Layer_1" data-name="Layer 1" viewBox="0 0 24 24" width="512" height="512"><path d="m21,0H3C1.346,0,0,1.346,0,3v17h6.923l3.748,3.156c.382.34.862.509,1.338.509.467,0,.931-.163,1.292-.485l3.847-3.18h6.852V3c0-1.654-1.346-3-3-3ZM5.197,8.962c.016,0,.614.263,1.272.506,1.223.451,1.529,1.336,1.408,2.014-.16.899-1.019,1.552-2.04,1.552-.826,0-1.603-.333-2.13-.914l-.42-.462.926-.84.42.463c.286.315.736.504,1.204.504.448,0,.764-.265.81-.521.062-.345-.451-.562-.61-.621-.752-.277-1.43-.58-1.43-.58-.6-.382-.864-.969-.777-1.579.094-.649.568-1.178,1.239-1.38,1.317-.397,2.407.499,2.452.537l.479.402-.805.957-.476-.399c-.025-.021-.633-.495-1.29-.299-.293.088-.351.282-.362.361-.008.059-.013.206.13.302Zm9.803,4.038h-1.253v-3.892l-1.747,1.892-1.748-1.894-.002,3.894h-1.25v-6h1.253l1.747,2,1.747-2h1.253v6Zm2.909-4.072c.016,0,.614.263,1.272.506,1.223.451,1.529,1.336,1.408,2.014-.16.899-1.019,1.552-2.04,1.552-.826,0-1.603-.333-2.13-.914l-.42-.462.926-.84.42.463c.286.315.736.504,1.204.504.448,0,.764-.265.81-.521.062-.345-.451-.562-.61-.621-.752-.277-1.43-.58-1.43-.58-.6-.382-.864-.969-.777-1.579.094-.649.568-1.178,1.239-1.38,1.317-.397,2.407.499,2.452.537l.479.402-.805.957-.476-.399c-.025-.021-.633-.495-1.29-.299-.293.088-.351.282-.362.361-.008.059-.013.206.13.302Z"/></svg>
