<?xml version="1.0" encoding="UTF-8"?>
<svg xmlns="http://www.w3.org/2000/svg" id="Layer_1" data-name="Layer 1" viewBox="0 0 24 24" width="512" height="512"><path d="m22,22c0,1.105-.895,2-2,2H2v-4h18c1.105,0,2,.895,2,2Zm0-19v15.765c-.549-.494-1.262-.766-2-.765H2V2C2,.896,2.895,0,4,0h15C20.657,0,22,1.343,22,3Zm-8.325,10.696c-1.942-.687-3.341-2.52-3.341-4.696s1.401-4.011,3.344-4.697c-.525-.19-1.087-.303-1.678-.303-2.761,0-5,2.239-5,5s2.239,5,5,5c.59,0,1.15-.114,1.675-.304Zm3.325-5.696h-1.802l-.49-1.875h-.404l-.491,1.875h-1.812v.384l1.384.77-.543,1.698.301.226,1.364-1.055,1.359,1.051.312-.218-.552-1.679,1.375-.796v-.382Z"/></svg>
