<?xml version="1.0" encoding="UTF-8"?>
<svg xmlns="http://www.w3.org/2000/svg" id="Layer_1" data-name="Layer 1" viewBox="0 0 24 24">
  <path d="m14,5.097v4.587c0,2.046,1.533,3.316,4,3.316s4-1.271,4-3.316v-4.478c.824-.36,1.768-1.265,2-2.206,0,0-1.263-.359-3.025-.647-.733-.823-1.789-1.352-2.975-1.352s-2.242.529-2.975,1.352c-1.763.288-3.025.647-3.025.647.221.897.896,1.57,2,2.098Zm9.027,7.689c.135.385.223.789.223,1.215,0,1.41-.791,2.672-2,3.308-.023,1.509-.944,2.8-2.25,3.373v3.319h-4v-2.236c-.398.144-.817.236-1.25.236-.768,0-1.505-.237-2.125-.671-.62.434-1.357.671-2.125.671-.17,0-.334-.029-.5-.052v2.052h-4v-3.076c-1.691-.345-2.973-1.832-3-3.617-1.21-.636-2-1.897-2-3.308s.791-2.671,2-3.308c.031-2.041,1.701-3.692,3.75-3.692.355,0,.711.054,1.056.158.699-.729,1.671-1.158,2.694-1.158.768,0,1.505.237,2.125.671l.375.329v2.684c0,3.18,2.411,5.316,6,5.316,2.23,0,4.003-.827,5.027-2.215Z"/>
</svg>
