<?xml version="1.0" encoding="UTF-8"?>
<svg xmlns="http://www.w3.org/2000/svg" id="Layer_1" data-name="Layer 1" viewBox="0 0 24 24">
  <path d="m6.5,2.5c0-1.381,1.119-2.5,2.5-2.5s2.5,1.119,2.5,2.5-1.119,2.5-2.5,2.5-2.5-1.119-2.5-2.5Zm7.5,6.5v8h-2v7h-2v-7h-2v7h-2v-7h-2v7h-2v-7H0v-8c0-1.654,1.346-3,3-3h.026c-.635.838-1.026,1.87-1.026,3v6h2v-6c0-1.654,1.346-3,3-3h4c1.654,0,3,1.346,3,3ZM5,5c.085,0,.165-.017.248-.025-.471-.711-.748-1.56-.748-2.475S4.778.736,5.248.025c-.083-.008-.163-.025-.248-.025-1.381,0-2.5,1.119-2.5,2.5s1.119,2.5,2.5,2.5Zm16,5v12h3v2h-8v-2h3v-12h-3V0h8v10h-3Z"/>
</svg>
