<?xml version="1.0" encoding="UTF-8"?>
<svg xmlns="http://www.w3.org/2000/svg" id="Layer_1" data-name="Layer 1" viewBox="0 0 24 24" width="512" height="512"><path d="M6.59,.209l4.41,11.969v11.822H1v-7h7v-2H1v-3.368c.681-.801,2-2.699,2-3.632V3.394c0-1.358,.905-2.549,2.202-2.896,.471-.126,.943-.219,1.388-.289Zm8.41-.209h-6c-.019,0-.148,0-.352,.008l3.352,9.099L15.352,.008c-.205-.008-.333-.008-.352-.008Zm8,15v-3.369c-.574-.673-2-2.658-2-3.631V3.394c0-1.358-.905-2.549-2.202-2.896-.471-.126-.943-.219-1.388-.289l-4.41,11.969v11.822h10v-7h-7v-2h7Z"/></svg>
