<?xml version="1.0" encoding="UTF-8"?>
<svg xmlns="http://www.w3.org/2000/svg" id="Layer_1" data-name="Layer 1" viewBox="0 0 24 24">
  <path d="m23,19.439c-.021-1.424-.78-2.975-2.258-4.61-1.452-1.606-2.898-4.765-3.955-7.071l-.722-1.556c-.882-1.872-1.065-2.262-1.065-5.202V0h-3c-2.761,0-5,2.239-5,5v6.688c1.693-.775,3.124-1.127,3.271-1.161l.459,1.947c-.077.018-7.73,1.887-7.73,6.526,0,2.408,1.564,5,5,5h2.403c-.242-.341-.346-.674-.381-.945-.077-.595.138-1.029.205-1.148s.331-.526.88-.766c.47-.207,1.249-.327,2.282.259.644.365,1.157.799,1.652,1.219.847.715,1.535,1.286,2.685,1.366,1.958-.041,3.426-.581,4.337-1.632,1.024-1.182.972-2.542.936-2.912Z"/>
</svg>
