<?xml version="1.0" encoding="UTF-8"?>
<svg xmlns="http://www.w3.org/2000/svg" id="Layer_1" data-name="Layer 1" viewBox="0 0 24 24">
  <path d="m18.959,22.545l-2.792-2.792c.524-.791.833-1.736.833-2.753,0-2.757-2.243-5-5-5s-5,2.243-5,5,2.243,5,5,5c1.017,0,1.962-.309,2.753-.833l2.792,2.792,1.414-1.414ZM21,0H3C1.346,0,0,1.346,0,3v12h5.294c.861-2.891,3.536-5,6.706-5s5.845,2.109,6.706,5h5.294V3c0-1.654-1.346-3-3-3Zm-12.863,9.221c-.031.44-.337.779-.706.779-.244,0-.471-.151-.601-.4l-.831-1.6-.831,1.6c-.129.249-.356.4-.601.4-.368,0-.675-.339-.706-.779l-.363-4.221h1.042l.249,3.158,1.209-2.327,1.209,2.327.247-3.158h1.044l-.363,4.221Zm6,0c-.031.44-.337.779-.706.779-.244,0-.471-.151-.601-.4l-.831-1.6-.831,1.6c-.129.249-.356.4-.601.4-.368,0-.675-.339-.706-.779l-.363-4.221h1.042l.249,3.158,1.209-2.327,1.209,2.327.247-3.158h1.044l-.363,4.221Zm6,0c-.031.44-.337.779-.706.779-.244,0-.471-.151-.601-.4l-.831-1.6-.831,1.6c-.129.249-.356.4-.601.4-.368,0-.675-.339-.706-.779l-.363-4.221h1.042l.249,3.158,1.209-2.327,1.209,2.327.247-3.158h1.044l-.363,4.221Z"/>
</svg>
