<?xml version="1.0" encoding="UTF-8"?>
<svg xmlns="http://www.w3.org/2000/svg" id="Layer_1" data-name="Layer 1" viewBox="0 0 24 24" width="512" height="512"><path d="M11.44,15.69l5.31,5.31H0V6c0-.51,.14-.98,.36-1.4l3.39,3.39c-.48,.77-.75,1.71-.75,2.76v2.5c0,2.71,1.84,4.75,4.28,4.75h.45c1.63,0,2.99-.91,3.71-2.31Zm10.97,5.31h1.59V6c0-1.65-1.35-3-3-3H4.41L1.41,0,0,1.41,5.17,6.58c.62-.37,1.34-.58,2.12-.58h.45c1.63,0,2.99,.91,3.71,2.31l.13,.29-1.82,.8c-.37-.86-1.1-1.4-2.02-1.4h-.45c-.21,0-.42,.03-.61,.08l6.48,6.48c-.1-.42-.15-.86-.15-1.32v-2.5c0-2.71,1.84-4.75,4.28-4.75h.45c1.63,0,2.99,.91,3.71,2.31l.13,.29-1.82,.8c-.37-.86-1.1-1.4-2.02-1.4h-.45c-1.34,0-2.28,1.13-2.28,2.75v2.5c0,1.62,.94,2.75,2.28,2.75h.45c.92,0,1.66-.54,2.02-1.4l1.82,.8-.13,.29c-.73,1.41-2.09,2.31-3.71,2.31h-.45c-.26,0-.52-.02-.77-.07l6.08,6.08,1.41-1.41-1.59-1.59ZM5,13.25c0,1.62,.94,2.75,2.28,2.75h.45c1.08,0,1.89-.73,2.18-1.85l-4.68-4.68c-.15,.37-.23,.81-.23,1.28v2.5Z"/></svg>
