<?xml version="1.0" encoding="UTF-8"?>
<svg xmlns="http://www.w3.org/2000/svg" id="Layer_1" data-name="Layer 1" viewBox="0 0 24 24" width="512" height="512"><path d="M24,22c0,1.105-.895,2-2,2s-2-.895-2-2c0-3.5-2-5-2-5,0,0,6,1,6,5Zm-5.969,.363c-1.774,1.035-3.83,1.637-6.031,1.637C5.373,24,0,18.627,0,12S5.373,0,12,0s12,5.373,12,12c0,1.718-.367,3.349-1.018,4.827-.314-.212-.636-.412-.969-.587-1.652-.868-3.52-1.241-5.386-1.24-.82,0-1.628,0-1.628,0,.108,.094,2.995,4.714,2.999,6.924,0,.148,.017,.293,.032,.438Zm-4.912-10.688c.837,.848,1.899,1.306,3.016,1.306,.09,0,.181-.003,.271-.009,1.036-.068,2.056-.527,2.798-1.26l-1.406-1.423c-.398,.394-.968,.651-1.522,.688-.647,.045-1.228-.195-1.733-.707l-1.422,1.405Zm-5.172,1.318c1.044,0,2.12-.389,3.019-1.296l-1.422-1.407c-1.192,1.204-2.605,.668-3.264,.017l-1.406,1.422c.792,.784,1.912,1.265,3.073,1.265Zm7.65,4.205c-.066-.049-1.632-1.198-3.598-1.198s-3.531,1.149-3.598,1.198l1.191,1.607c.011-.008,1.117-.805,2.406-.805s2.396,.797,2.402,.802l1.195-1.604Z"/></svg>
