<?xml version="1.0" encoding="UTF-8"?>
<svg xmlns="http://www.w3.org/2000/svg" id="Layer_1" data-name="Layer 1" viewBox="0 0 24 24" width="512" height="512"><path d="M24,12c0,1.1-.15,2.19-.44,3.24l-1.93-.54c.24-.87,.37-1.78,.37-2.7s-.12-1.83-.37-2.7l1.93-.54c.29,1.05,.44,2.14,.44,3.24Zm-24,0c0,1.1,.15,2.19,.44,3.24l1.93-.54c-.24-.87-.37-1.78-.37-2.7s.12-1.83,.37-2.7l-1.93-.54C.15,9.81,0,10.9,0,12ZM20.63,6.95l1.72-1.01c-1.04-1.77-2.53-3.26-4.3-4.3l-1.01,1.73c1.48,.87,2.72,2.11,3.59,3.58Zm-8.63,15.05c-.92,0-1.83-.12-2.7-.37l-.54,1.93c1.05,.29,2.14,.44,3.24,.44s2.19-.15,3.24-.44l-.54-1.93c-.87,.24-1.78,.37-2.7,.37Zm5.05-1.37l1.01,1.72c1.77-1.04,3.26-2.53,4.3-4.3l-1.73-1.01c-.87,1.48-2.11,2.72-3.58,3.59ZM8.76,.44l.54,1.93c.87-.24,1.78-.37,2.7-.37s1.83,.12,2.7,.37l.54-1.93c-1.05-.29-2.14-.44-3.24-.44s-2.19,.15-3.24,.44ZM3.37,17.05l-1.72,1.01c1.04,1.77,2.53,3.26,4.3,4.3l1.01-1.73c-1.48-.87-2.72-2.11-3.59-3.58ZM1.64,5.94l1.73,1.01c.87-1.48,2.11-2.72,3.58-3.59l-1.01-1.72c-1.77,1.04-3.26,2.53-4.3,4.3Z"/></svg>
