<?xml version="1.0" encoding="UTF-8"?>
<svg xmlns="http://www.w3.org/2000/svg" id="Layer_1" data-name="Layer 1" viewBox="0 0 24 24">
  <path d="m7,8c-.355,0-.685.014-1,.036v-3.107l-1-1.4V0h4v3.5l-1,1.414v3.121c-.315-.022-.645-.036-1-.036Zm17,12.818c0,2.517-2.795,3.182-4.273,3.182h-5.454c-1.478,0-4.273-.665-4.273-3.182,0-1.724.738-2.918,1.332-3.878.475-.769.85-1.376.85-2.122,0-.816-.203-1.625-.438-2.561-.33-1.316-.741-2.953-.743-5.243,0-.002,0-.005,0-.007h0s0-.004,0-.007h.778l1.222-.011c.006.371.151,3.336,3,3.908v-4.897c-.92-.064-2-1-2-1.5,0-1.542,2-4.5,2-4.5h2v10.909c2.952-.517,3-3.28,3-3.409h2c0,2.312-.416,3.793-.75,4.983-.241.857-.431,1.534-.431,2.335,0,.746.375,1.353.85,2.122.593.959,1.332,2.154,1.332,3.878Zm-5-2.818h-4v2h4v-2Zm-11,2.818c0-2.293.981-3.88,1.63-4.93.271-.438.551-.892.551-1.07,0-.569-.167-1.233-.378-2.074-.285-1.133-.656-2.624-.768-4.583-.322-.054-.661-.1-1.036-.126v6.964h-2v-6.964c-4.319.302-5,2.572-5,3.964,0,.793.362,1.492.653,2.053.146.282.347.669.347.822-.002.142-.344.582-.549.845-.612.786-1.451,1.862-1.451,3.488,0,2.731,3.009,4.792,7,4.792.718,0,1.404-.069,2.047-.194-.647-.79-1.047-1.785-1.047-2.987Z"/>
</svg>
