<?xml version="1.0" encoding="UTF-8"?>
<svg xmlns="http://www.w3.org/2000/svg" id="Layer_1" data-name="Layer 1" viewBox="0 0 24 24">
  <path d="m5,20c0,1.381-1.119,2.5-2.5,2.5s-2.5-1.119-2.5-2.5,1.119-2.5,2.5-2.5,2.5,1.119,2.5,2.5ZM21.5,6.5c1.381,0,2.5-1.119,2.5-2.5s-1.119-2.5-2.5-2.5-2.5,1.119-2.5,2.5,1.119,2.5,2.5,2.5Zm-1,8v1.5h2v-1.5c0-2.481-2.019-4.5-4.5-4.5H4.5c-1.378,0-2.5-1.122-2.5-2.5s1.122-2.5,2.5-2.5h9.457l-1.639,1.639,1.414,1.414,2.761-2.761c.336-.336.522-.784.522-1.259s-.186-.924-.522-1.259L13.732.012l-1.414,1.414,1.574,1.574H4.5C2.019,3,0,5.019,0,7.5s2.019,4.5,4.5,4.5h13.5c1.378,0,2.5,1.122,2.5,2.5Zm1,3.077c-1.381,0-2.5,1.119-2.5,2.5s1.119,2.5,2.5,2.5,2.5-1.119,2.5-2.5-1.119-2.5-2.5-2.5Zm-7.707-1.504l-1.414,1.414,1.513,1.513h-6.892v2h6.957l-1.578,1.578,1.414,1.414,2.71-2.71c.688-.688.688-1.809,0-2.499l-2.71-2.71Z"/>
</svg>
