<?xml version="1.0" encoding="UTF-8"?>
<svg xmlns="http://www.w3.org/2000/svg" id="Layer_1" data-name="Layer 1" viewBox="0 0 24 24" width="512" height="512"><path d="m12.258,21.328c-.787-1.075-1.258-2.396-1.258-3.828,0-3.584,2.916-6.5,6.5-6.5,1.432,0,2.752.471,3.828,1.258l-9.069,9.07Zm1.414,1.414c1.075.787,2.396,1.258,3.827,1.258,3.584,0,6.5-2.916,6.5-6.5,0-1.432-.471-2.752-1.258-3.828l-9.069,9.069Zm-1.673-11.742v-5c0-3.308-2.692-6-6-6S0,2.692,0,6v5h12Zm-3,6.5c0-1.655.48-3.194,1.298-4.5H0v5c0,3.308,2.692,6,6,6,1.719,0,3.268-.731,4.363-1.894-.859-1.328-1.363-2.907-1.363-4.606Z"/></svg>
