<?xml version="1.0" encoding="UTF-8"?>
<svg xmlns="http://www.w3.org/2000/svg" id="Layer_1" data-name="Layer 1" viewBox="0 0 24 24">
  <path d="m24,8v-4c0-1.654-1.346-3-3-3H3C1.346,1,0,2.346,0,4v4h24ZM7.5,3c.828,0,1.5.672,1.5,1.5s-.672,1.5-1.5,1.5-1.5-.672-1.5-1.5.672-1.5,1.5-1.5Zm-4,0c.828,0,1.5.672,1.5,1.5s-.672,1.5-1.5,1.5-1.5-.672-1.5-1.5.672-1.5,1.5-1.5ZM0,10v13h24v-13H0Zm6.793,3.553l1.414-1.414.98.98.98-.98,1.414,1.414-.98.98.98.98-1.414,1.414-.98-.98-.98.98-1.414-1.414.98-.98-.98-.98Zm8.051,7.31c-1.961-1.146-3.727-1.146-5.688,0l-1.009-1.727c2.58-1.509,5.125-1.509,7.705,0l-1.009,1.727Zm2.363-5.349l-1.414,1.414-.98-.98-.98.98-1.414-1.414.98-.98-.98-.98,1.414-1.414.98.98.98-.98,1.414,1.414-.98.98.98.98Z"/>
</svg>
