<?xml version="1.0" encoding="UTF-8"?>
<svg xmlns="http://www.w3.org/2000/svg" id="Layer_1" data-name="Layer 1" viewBox="0 0 24 24">
  <path d="m21,12c0-.538-.052-1.082-.153-1.626l3.052-1.755-2.991-5.201-3.051,1.754c-.841-.721-1.81-1.279-2.856-1.649V0h-6v3.522c-1.047.37-2.016.929-2.857,1.649l-3.05-1.754L.102,8.619l3.052,1.756c-.102.544-.153,1.088-.153,1.625s.051,1.081.153,1.625L.102,15.381l2.991,5.201,3.05-1.754c.841.721,1.81,1.279,2.857,1.649v3.522h6v-3.522c1.047-.37,2.016-.929,2.856-1.649l3.051,1.754,2.991-5.201-3.052-1.755c.102-.544.153-1.088.153-1.626Zm-6,0l-2-2v7h-2v-7l-2,2-1.414-1.414,3.052-3.052c.727-.729,1.997-.729,2.726,0l3.051,3.052-1.414,1.414Z"/>
</svg>
