<?xml version="1.0" encoding="UTF-8"?>
<svg xmlns="http://www.w3.org/2000/svg" id="Layer_1" data-name="Layer 1" viewBox="0 0 24 24">
  <path d="m13,16.462l9,3.538v4H5.538l-1.821-1.628c-.917-.858-.96-2.307-.098-3.23.861-.922,2.313-.97,3.235-.109.034.032,1.069.898,2.145,1.784v-8.817c0-1.215,1.083-2.176,2.336-1.973.983.16,1.664,1.083,1.664,2.08v4.355ZM5,0C2.239,0,0,2.239,0,5s2.239,5,5,5,5-2.239,5-5S7.761,0,5,0Zm1.784,7.667l-.411-1.2h-2.748l-.41,1.2h-1.237l1.723-5.131c.317-.721.748-.868,1.298-.869.55,0,.981.148,1.29.847l1.731,5.153h-1.237Zm-1.658-4.794c-.025-.003-.065-.006-.126-.006-.059,0-.098.003-.123.006-.014.02-.034.053-.058.104l-.783,2.29h1.927l-.79-2.31c-.019-.039-.035-.066-.046-.083Zm13.024.799c0-.33-.269-.6-.6-.6h-1.714c-.047,0-.086.039-.086.086v1.114h1.8c.331,0,.6-.27.6-.6Zm-1.15-3.672c-2.761,0-5,2.239-5,5s2.239,5,5,5,5-2.239,5-5S19.761,0,17,0Zm1.15,7.872h-2.314c-.709,0-1.286-.577-1.286-1.286v-3.429c0-.709.577-1.286,1.286-1.286h1.714c.993,0,1.8.807,1.8,1.8,0,.321-.084.622-.232.884.5.32.832.88.832,1.516,0,.993-.807,1.8-1.8,1.8Zm0-1.2c.331,0,.6-.27.6-.6s-.269-.6-.6-.6h-2.4v1.114c0,.047.038.086.086.086h2.314Z"/>
</svg>
