<?xml version="1.0" encoding="UTF-8"?>
<svg xmlns="http://www.w3.org/2000/svg" id="Layer_1" data-name="Layer 1" viewBox="0 0 24 24">
  <path d="m19.898,9.164c.05.061.129.19.093.371l-.337,1.685c-.09.452-.491.781-.953.781h-2.656c-.45,0-.841-.305-.95-.742l-.488-1.951.307-.307h4.639c.184,0,.295.103.345.164Zm-15.451-.164c-.184,0-.295.103-.345.164-.05.061-.129.19-.093.371l.337,1.685c.09.453.491.781.953.781h2.656c.45,0,.841-.305.95-.742l.488-1.952-.307-.307h-4.639Zm19.553,3c0,6.617-5.383,12-12,12S0,18.617,0,12,5.383,0,12,0s12,5.383,12,12Zm-5.168,5.555l-1.664-1.109c-1.703,2.555-4.22,2.555-5.168,2.555v2c3.009,0,5.308-1.159,6.832-3.445Zm3.12-7.628c.145-.722-.04-1.462-.507-2.031-.466-.569-1.156-.896-1.892-.896h-5.467l-1,1h-2.172l-1-1h-5.467c-.736,0-1.426.327-1.892.896-.467.569-.651,1.31-.507,2.031l.337,1.684c.276,1.384,1.502,2.389,2.914,2.389h2.656c1.37,0,2.559-.928,2.891-2.257l.436-1.743h1.438l.436,1.743c.332,1.329,1.521,2.257,2.891,2.257h2.656c1.412,0,2.637-1.005,2.914-2.389l.337-1.685Z"/>
</svg>
