<?xml version="1.0" encoding="UTF-8"?>
<svg xmlns="http://www.w3.org/2000/svg" id="Layer_1" data-name="Layer 1" viewBox="0 0 24 24" width="512" height="512"><path d="m22.954,12.997h1.043s-.002-2.001-.002-2.001h-1.041c-.207-2.283-1.116-4.368-2.508-6.035l.741-.742-1.416-1.413-.74.742c-1.669-1.39-3.754-2.296-6.038-2.502V0h-2v1.047c-2.283.208-4.366,1.116-6.033,2.508l-.744-.745-1.414,1.414.745.745c-1.389,1.668-2.295,3.751-2.501,6.034H-.003v2h1.05c.207,2.282,1.115,4.366,2.505,6.033l-.745.745,1.414,1.414.745-.745c1.667,1.39,3.751,2.297,6.034,2.504v1.047s2.001-.002,2.001-.002v-1.045c2.283-.207,4.368-1.114,6.036-2.505l.743.741,1.412-1.415-.741-.74c1.391-1.668,2.299-3.753,2.505-6.038Zm-3.927,4.619l-2.861-2.856c.349-.525.602-1.12.732-1.758l4.045-.003c-.192,1.734-.88,3.322-1.917,4.617Zm-7.027-2.616c-1.654,0-3-1.346-3-3s1.346-3,3-3,3,1.346,3,3-1.346,3-3,3Zm8.944-4.001l-4.044.003c-.13-.638-.382-1.233-.73-1.758l2.857-2.861c1.037,1.295,1.725,2.882,1.917,4.616Zm-3.332-6.03l-2.856,2.861c-.526-.349-1.122-.601-1.762-.731V3.055c1.735.191,3.322.878,4.618,1.914Zm-6.618-1.912v4.045c-.637.131-1.23.383-1.754.732l-2.858-2.858c1.294-1.037,2.88-1.725,4.612-1.919Zm-6.025,3.334l2.859,2.859c-.347.524-.598,1.117-.727,1.754H3.055c.192-1.733.877-3.318,1.912-4.613Zm-1.911,6.613h4.045c.13.637.382,1.229.73,1.753l-2.859,2.859c-1.036-1.294-1.723-2.879-1.916-4.612Zm3.33,6.026l2.859-2.859c.523.347,1.114.598,1.749.728l.003,4.045c-1.732-.193-3.317-.879-4.611-1.915Zm6.611,1.915l-.003-4.044c.638-.129,1.232-.381,1.758-.728l2.862,2.857c-1.295,1.037-2.882,1.723-4.616,1.915Z"/></svg>
