<?xml version="1.0" encoding="UTF-8"?>
<svg xmlns="http://www.w3.org/2000/svg" id="Layer_1" data-name="Layer 1" viewBox="0 0 24 24">
  <path d="m22.015,7.315c.751-.475,1.458-.945,1.988-1.342-1.5-1.271-2-1.476-2-1.476,0,0,.997-1.996.997-3.496-1.5,0-3.5,1-3.5,1,0,0-.206-.5-1.476-2-.398.53-.867,1.237-1.342,1.988-.378-.311-1.095-.854-2.181-1.488-.493,1.572-.716,4.195-.812,5.805-4.236-2.767-7.529-.547-10.24,2.164-3.164,3.164-5.679,7.116-.355,12.439,2.24,2.24,4.237,3.092,6.035,3.092,2.475,0,4.572-1.615,6.405-3.447,2.712-2.711,4.932-6.006,2.161-10.244,1.61-.096,4.236-.319,5.81-.812-.634-1.086-1.177-1.803-1.488-2.181ZM6,18v-3.5l3.5,3.5h-3.5Zm0-5v-3.5l3.5,3.5h-3.5Zm5,5v-3.5l3.5,3.5h-3.5Zm0-5v-3.5l3.5,3.5h-3.5Z"/>
</svg>
