<?xml version="1.0" encoding="UTF-8"?>
<svg xmlns="http://www.w3.org/2000/svg" id="Layer_1" data-name="Layer 1" viewBox="0 0 24 24">
  <path d="m18.819,22.833l.197,1.167H4.817l.196-1.166c.151-.897.475-1.737.935-2.489,1.779,1.045,3.843,1.655,6.051,1.655,2.156,0,4.176-.58,5.927-1.579.438.734.747,1.549.893,2.413Zm-6.819-15.833c-1.654,0-3,1.346-3,3s1.346,3,3,3,3-1.346,3-3-1.346-3-3-3Zm10,3c0,5.514-4.486,10-10,10S2,15.514,2,10,6.486,0,12,0s10,4.486,10,10Zm-5,0c0-2.757-2.243-5-5-5s-5,2.243-5,5,2.243,5,5,5,5-2.243,5-5Z"/>
</svg>
