<?xml version="1.0" encoding="UTF-8"?>
<svg xmlns="http://www.w3.org/2000/svg" id="Layer_1" data-name="Layer 1" viewBox="0 0 24 24" width="512" height="512"><path d="m22,14c0,.545-.056,1.076-.14,1.598l-5.012-5.012-4.891,4.892-4.659-4.659-5.108,5.108c-.122-.624-.19-1.267-.19-1.926,0-4.092,2.473-7.613,6-9.159v-1.841h2.275c-.172-.295-.277-.634-.277-1,0-1.105.895-2,2-2s2,.895,2,2c0,.366-.106.705-.277,1h2.28v1.841c3.527,1.547,6,5.068,6,9.159Zm-10.043,4.306l-4.659-4.659-4.423,4.423c1.563,3.489,5.061,5.93,9.125,5.93,4.166,0,7.741-2.562,9.242-6.192l-4.395-4.394-4.891,4.892Z"/></svg>
