<?xml version="1.0" encoding="UTF-8"?>
<svg xmlns="http://www.w3.org/2000/svg" id="Layer_1" data-name="Layer 1" viewBox="0 0 24 24" width="512" height="512"><path d="M15,9c0,.55-.45,1-1,1h-3.01l-.3,.4c-.29,.38-.72,.6-1.19,.6-.12,0-.26-.02-.43-.07l-.81-.24-.38,.76c-.17,.35-.51,.56-.89,.56-.55,0-1-.45-1-1,0-.38,.21-.72,.56-.89l.76-.38-.24-.81c-.05-.17-.07-.3-.07-.43,0-.77,.58-1.41,1.36-1.48l.52-.05,.26-.46c.18-.32,.5-.51,.86-.51,.38,0,.72,.21,.89,.56l.38,.76,.81-.24c.17-.05,.3-.07,.43-.07,.49,0,.96,.25,1.24,.66l.2,.29,.34,.1c.43,.13,.72,.51,.72,.95Zm9,3.79v2.21h-2.33l-.45,3.39c-.2,1.49-1.48,2.61-2.97,2.61h-2.25v3H3v-4.71c0-.46-.16-.91-.46-1.26C.67,15.78-.22,12.92,.05,9.98,.5,4.95,4.46,.79,9.45,.11c4.04-.55,7.91,1.06,10.35,4.31,1.18,1.46,2.29,4.01,3.47,6.71,.21,.49,.43,.98,.64,1.46l.09,.19Zm-7-3.79c0-1.22-.72-2.28-1.82-2.75-.72-.85-1.79-1.33-2.94-1.24-.56-.64-1.37-1.01-2.24-1.01s-1.75,.42-2.32,1.11c-1.56,.37-2.68,1.75-2.68,3.39,0,.09,0,.17,.01,.26-.64,.56-1.01,1.37-1.01,2.24,0,1.65,1.35,3,3,3,.35,0,.68-.08,1-.19v6.19h2v-7.03c.74-.1,1.41-.44,1.94-.97h2.06c1.65,0,3-1.35,3-3Z"/></svg>
