<?xml version="1.0" encoding="UTF-8"?>
<svg xmlns="http://www.w3.org/2000/svg" id="Layer_1" data-name="Layer 1" viewBox="0 0 24 24" width="512" height="512"><path d="M19.071,2.936C17.182,1.047,14.671,.006,12,.006S6.818,1.046,4.929,2.936c-1.889,1.889-2.929,4.4-2.929,7.071s1.04,5.183,2.937,7.079l7.063,6.908,7.071-6.916c1.889-1.889,2.929-4.4,2.929-7.071s-1.04-5.182-2.929-7.071Zm-4.571,3.064c.828,0,1.5,.672,1.5,1.5s-.672,1.5-1.5,1.5-1.5-.672-1.5-1.5,.672-1.5,1.5-1.5Zm-5,0c.828,0,1.5,.672,1.5,1.5s-.672,1.5-1.5,1.5-1.5-.672-1.5-1.5,.672-1.5,1.5-1.5Zm2.5,8c-1.778,0-3.45-.692-4.708-1.95l1.414-1.414c.88,.879,2.05,1.364,3.293,1.364s2.413-.484,3.292-1.364l1.414,1.414c-1.257,1.257-2.929,1.95-4.707,1.95Z"/></svg>
