<?xml version="1.0" encoding="UTF-8"?>
<svg xmlns="http://www.w3.org/2000/svg" id="Layer_1" data-name="Layer 1" viewBox="0 0 24 24" width="512" height="512"><path d="M12,0C5.383,0,0,5.383,0,12s5.383,12,12,12,12-5.383,12-12S18.617,0,12,0ZM5.661,12.56l4-1.442,.678,1.881-4,1.442-.678-1.881Zm8.741,6.242c-.007-.005-1.113-.802-2.402-.802s-2.396,.797-2.406,.805l-1.191-1.606c.066-.049,1.632-1.198,3.598-1.198s3.531,1.149,3.598,1.198l-1.195,1.604Zm3.259-4.361l-4-1.442,.678-1.881,4,1.442-.678,1.881Z"/></svg>
