<?xml version="1.0" encoding="UTF-8"?>
<svg xmlns="http://www.w3.org/2000/svg" id="Layer_1" data-name="Layer 1" viewBox="0 0 24 24">
  <path d="m20.792,7.985l2.66-2.66c.729-.73.729-1.919,0-2.65L20.792.015l-1.414,1.414,1.57,1.571h-8.948C7.029,3,3,7.029,3,12c0,.353.026.7.065,1.043l4.386,4.386-1.571,1.571h-2.829l1.571-1.571-1.414-1.414-2.659,2.659c-.731.731-.731,1.92,0,2.651l2.659,2.659,1.414-1.414-1.571-1.571h8.948c4.971,0,9-4.029,9-9,0-.354-.026-.701-.065-1.044l-4.385-4.385,1.571-1.571h2.828l-1.57,1.571,1.414,1.414Zm-7.666,7.815h-.326v1.2h-1.6v-1.2h-.2c-1.201,0-2.189-.925-2.291-2.1h1.62c.086.289.354.5.671.5h2.126c.316,0,.574-.257.574-.574,0-.272-.194-.509-.462-.563l-2.791-.559c-1.013-.203-1.747-1.099-1.747-2.131,0-1.199.975-2.173,2.173-2.173h.327v-1.2h1.6v1.2h.2c1.201,0,2.189.925,2.291,2.1h-1.62c-.086-.289-.354-.5-.671-.5h-2.127c-.316,0-.573.257-.573.574,0,.272.194.509.461.562l2.792.559c1.013.202,1.747,1.099,1.747,2.131,0,1.199-.975,2.173-2.174,2.173Z"/>
</svg>
