<?xml version="1.0" encoding="UTF-8"?>
<svg xmlns="http://www.w3.org/2000/svg" id="Layer_1" data-name="Layer 1" viewBox="0 0 24 24">
  <path d="m23.609,1.439l-1.652-1.128-5.624,8.233c-1.45.707-6.608,3.306-7.693,4.984-.678,1.049-.766,2.16-.254,3.214.385.79,1.109,1.533,2.154,2.208,1.162.75,2.123,1.031,2.91,1.031,1.4,0,2.253-.887,2.71-1.594,1.043-1.614,1.612-6.945,1.769-8.634L23.609,1.439Zm-13.289,13.175h0c.362-.56,1.866-1.545,3.565-2.514l-3.036,4.578c-.305-.275-.537-.549-.664-.811-.144-.295-.239-.675.135-1.253Zm2.216,3.139l2.932-4.421c-.283,1.801-.633,3.424-.987,3.971-.239.37-.663.983-1.945.45ZM2.018,10.093c-.004-.075-.01-.15-.01-.225,0-1.501.767-2.853,2.008-3.629-.006-.081-.009-.16-.009-.238,0-2.351,2.053-4.266,4.437-3.974.742-1.24,2.083-2.027,3.564-2.027s2.822.786,3.564,2.027c.887-.106,1.729.099,2.438.516l-3.032,4.439c-1.763.875-3.723,1.935-5.303,3.012H2.983c-.329,0-.65.038-.965.099Zm18.17-.099l1.485-2.174c.215.513.335,1.071.335,1.651,0,.21-.02.419-.051.626-.321-.064-.65-.103-.986-.103h-.783Zm3.175,3.174c.562.725.791,1.653.528,2.521-.908,3-4.817,6.643-7.908,8.306H7.983C4.892,22.331.983,18.688.064,15.688c-.226-.877-.033-1.796.528-2.521.578-.746,1.45-1.174,2.392-1.174h4.32c-.129.151-.247.302-.342.449-1.062,1.644-1.195,3.481-.372,5.176.547,1.123,1.511,2.136,2.867,3.013,1.388.896,2.731,1.351,3.995,1.351,1.786,0,3.345-.891,4.39-2.509.929-1.436,1.506-4.559,1.86-7.479h1.271c.941,0,1.813.428,2.392,1.174Z"/>
</svg>
