<?xml version="1.0" encoding="UTF-8"?>
<svg xmlns="http://www.w3.org/2000/svg" id="Layer_1" data-name="Layer 1" viewBox="0 0 24 24">
  <path d="m24,20.5c0,1.93-1.57,3.5-3.5,3.5s-3.5-1.57-3.5-3.5,1.57-3.5,3.5-3.5,3.5,1.57,3.5,3.5Zm-9.872-9.214L23.948,1.465,22.534.051l-9.82,9.82-1.853-1.853-1.595,3.19c-.47-.137-.963-.209-1.467-.209-1.389,0-2.694.541-3.677,1.523-1.757,1.757-3.307,8.439-3.6,9.761l-.339,1.532,1.531-.339c1.322-.293,8.004-1.842,9.761-3.6.982-.982,1.523-2.288,1.523-3.677,0-.504-.071-.996-.209-1.467l3.19-1.595-1.853-1.853Z"/>
</svg>
