<?xml version="1.0" encoding="UTF-8"?>
<svg xmlns="http://www.w3.org/2000/svg" id="Layer_1" data-name="Layer 1" viewBox="0 0 24 24">
  <path d="m4,16c1.426,1.762,3,4.489,3,8H0v-8h4ZM24,3v11h-4c-3.11-1.398-7.638-4.65-8-12-.362,7.35-4.89,10.602-8,12H0V3C0,1.346,1.346,0,3,0h18c1.654,0,3,1.346,3,3Zm-14.959-1h-2.018c-.234,3.376-1.616,5.36-3.023,6.5v2.377c2.136-1.234,4.738-3.767,5.041-8.877Zm10.959,6.5c-1.407-1.14-2.788-3.124-3.023-6.5h-2.018c.302,5.11,2.904,7.643,5.041,8.877v-2.377Zm-3,15.5h7v-8h-4c-1.426,1.762-3,4.489-3,8Z"/>
</svg>
