<?xml version="1.0" encoding="UTF-8"?>
<svg xmlns="http://www.w3.org/2000/svg" id="Layer_1" data-name="Layer 1" viewBox="0 0 24 24">
  <path d="m18,12c-3.308,0-6,2.692-6,6s2.692,6,6,6,6-2.692,6-6-2.692-6-6-6Zm1,10h-2v-2h2v2Zm0-3h-2v-5h2v5Zm-7.855,3.108c-1.081.74-2.912,1.892-3.85,1.892-1.087,0-3.245-1.236-4.117-1.764l-1.721,1.721L.043,22.543l1.721-1.721c-.527-.872-1.764-3.03-1.764-4.117,0-1.381,2.5-4.705,2.5-4.705,0,0,2.5,3.324,2.5,4.705,0,.37-.075.725-.187,1.068l1.951-1.951c-.527-.872-1.764-3.03-1.764-4.117,0-1.381,2.5-4.705,2.5-4.705,0,0,2.5,3.324,2.5,4.705,0,.37-.075.725-.187,1.068l1.951-1.951c-.527-.872-1.764-3.03-1.764-4.117,0-1.381,2.5-4.705,2.5-4.705,0,0,.384.512.851,1.216L16.619-.053l1.414,1.414-3.623,3.623c.34.657.589,1.286.589,1.721,0,.37-.075.725-.187,1.068L22.586,0l1.414,1.414-7.773,7.773c.342-.112.698-.187,1.068-.187.43,0,1.048.242,1.695.576l3.629-3.629,1.414,1.414-3.174,3.174c-.889-.341-1.85-.535-2.859-.535-4.418,0-8,3.582-8,8,0,.082.01.162.012.244-.732-.359-1.426-.76-1.835-1.008l-1.951,1.951c.342-.112.698-.187,1.068-.187.736,0,2.021.709,3.063,1.372.191.615.461,1.194.787,1.736Z"/>
</svg>
