<?xml version="1.0" encoding="UTF-8"?>
<svg xmlns="http://www.w3.org/2000/svg" id="Layer_1" data-name="Layer 1" viewBox="0 0 24 24">
  <path d="m19.447,6.912c-1.731-1.595-3.973-2.643-6.449-2.867L15,0h7.867l-3.42,6.912Zm-8.451-2.866l-1.996-4.046H1.028l3.446,6.985c1.74-1.635,4.01-2.71,6.522-2.939Zm10.004,10.954c0,4.963-4.038,9-9,9S3,19.963,3,15,7.038,6,12,6s9,4.037,9,9Zm-4-1.5h-3.582l-.996-3.528h-.822l-.997,3.528h-3.602v.747l2.702,1.578-1.074,3.175.611.46,2.773-2.145,2.762,2.136.635-.443-1.154-3.135,2.744-1.63v-.742Z"/>
</svg>
