<?xml version="1.0" encoding="UTF-8"?>
<svg xmlns="http://www.w3.org/2000/svg" id="Layer_1" data-name="Layer 1" viewBox="0 0 24 24" width="512" height="512"><path d="M12,0C5.383,0,0,5.383,0,12s5.383,12,12,12,12-5.383,12-12S18.617,0,12,0Zm3.5,8c.828,0,1.5,.672,1.5,1.5s-.672,1.5-1.5,1.5-1.5-.672-1.5-1.5,.672-1.5,1.5-1.5Zm-7,0c.828,0,1.5,.672,1.5,1.5s-.672,1.5-1.5,1.5-1.5-.672-1.5-1.5,.672-1.5,1.5-1.5Zm3.5,10c-3.107,0-5.563-2.162-5.666-2.254l1.33-1.493c.02,.018,2.005,1.748,4.336,1.748,0,.718,.205,1.382,.537,1.965-.177,.017-.354,.035-.537,.035Zm4,0c-1.105,0-2-.895-2-2,0-1.631,2-3.6,2-3.6,0,0,2,2.01,2,3.6,0,1.105-.895,2-2,2Z"/></svg>
