<?xml version="1.0" encoding="UTF-8"?>
<svg xmlns="http://www.w3.org/2000/svg" id="Layer_1" data-name="Layer 1" viewBox="0 0 24 24">
  <path d="m20.836,6.25l-7.75,7.75h-3.086v-3.086l7.75-7.75,3.086,3.086Zm2.525-5.611c-.852-.852-2.234-.852-3.086,0l-1.111,1.111,3.086,3.086,1.111-1.111c.852-.852.852-2.234,0-3.086Zm-.413,6.327l-9.034,9.034h-5.914v-5.914l7-7V0h-6v3.522c-1.047.37-2.016.929-2.857,1.649l-3.051-1.754L.102,8.619l3.052,1.755c-.102.544-.153,1.088-.153,1.626s.051,1.082.153,1.626L.102,15.381l2.99,5.201,3.051-1.754c.841.721,1.81,1.279,2.857,1.649v3.522h6v-3.522c1.047-.37,2.016-.929,2.857-1.649l3.05,1.754,2.991-5.201-3.052-1.756c.102-.544.153-1.088.153-1.625s-.051-1.081-.153-1.625l3.052-1.756-.951-1.653Z"/>
</svg>
