<?xml version="1.0" encoding="UTF-8"?>
<svg xmlns="http://www.w3.org/2000/svg" id="Layer_1" data-name="Layer 1" viewBox="0 0 24 24" width="512" height="512"><path d="M12,0C5.373,0,0,5.373,0,12c0,.455,.031,.902,.08,1.344,.415-1.879,2.42-3.858,2.42-3.858,0,0,2.5,2.513,2.5,4.5,0,1.381-1.119,2.5-2.5,2.5-.81,0-1.522-.391-1.979-.988,1.498,4.921,6.068,8.502,11.479,8.502,6.627,0,12-5.373,12-12S18.627,0,12,0ZM4.629,8.571c1.187-.474,2.266-1.372,3.039-2.531l1.664,1.109c-1.01,1.515-2.38,2.648-3.962,3.279l-.741-1.857Zm2.371,3.929c0-.828,.672-1.5,1.5-1.5s1.5,.672,1.5,1.5-.672,1.5-1.5,1.5-1.5-.672-1.5-1.5Zm1,6.5c0-2.209,1.791-4,4-4s4,1.791,4,4H8Zm7.5-5c-.828,0-1.5-.672-1.5-1.5s.672-1.5,1.5-1.5,1.5,.672,1.5,1.5-.672,1.5-1.5,1.5Zm3.13-3.571c-1.582-.631-2.952-1.765-3.962-3.279l1.664-1.109c.773,1.159,1.852,2.058,3.039,2.531l-.741,1.857Z"/></svg>
