<?xml version="1.0" encoding="UTF-8"?>
<svg xmlns="http://www.w3.org/2000/svg" id="Layer_1" data-name="Layer 1" viewBox="0 0 24 24">
  <path d="m21.688,12h-9.688v8h-2v-5.124l-4,4.667v1.938l-2.875,2.301-1.249-1.562,2.125-1.699v-1.717l5.542-6.465c-2.379,1.543-5.249,3.339-6.066,3.563-1.463.402-2.975-.459-3.377-1.922s.459-2.975,1.922-3.377c.744-.204,2.276-.551,4.703-.551.666,0,1.58,0,2.377,0L3,5.694v-2.121L1.219,1.348,2.781.098l2.219,2.774v1.793l4.073,2.909c-.352-.431-.573-.974-.573-1.574,0-1.009.601-1.873,1.461-2.268l1.039-3.732,1.039,3.732c.86.395,1.461,1.259,1.461,2.268,0,.608-.226,1.157-.586,1.591l4.112-2.926v-1.792L19.245.098l1.562,1.25-1.781,2.226v2.122l-6.122,4.356c.797,0,1.706,0,2.372,0,2.428,0,3.959.346,4.703.551.772.212,1.369.737,1.709,1.398Zm-7.688,2v10h10v-10h-10Zm4,8h-2v-2h2v2Zm0-4h-2v-2h2v2Zm4,4h-2v-2h2v2Zm0-4h-2v-2h2v2Z"/>
</svg>
