<?xml version="1.0" encoding="UTF-8"?>
<svg xmlns="http://www.w3.org/2000/svg" id="Layer_1" data-name="Layer 1" viewBox="0 0 24 24" width="512" height="512"><path d="m11,9c1.103,0,2,.897,2,2s-.897,2-2,2-2-.897-2-2,.897-2,2-2Zm12.277,2.142c-1.181-2.706-2.295-5.262-3.477-6.723C17.882,1.858,15.075.313,12,.042v7.085c1.724.445,3,2.013,3,3.874,0,2.206-1.794,4-4,4s-4-1.794-4-4c0-1.861,1.276-3.429,3-3.874V.044c-.182.016-.364.037-.547.062C4.457.793.501,4.946.046,9.983c-.265,2.935.622,5.792,2.497,8.046.295.353.457.801.457,1.262v4.709h13v-3h2.247c1.5,0,2.778-1.121,2.974-2.606l.449-3.394h2.33v-2.212l-.723-1.646Z"/></svg>
