<?xml version="1.0" encoding="UTF-8"?>
<svg xmlns="http://www.w3.org/2000/svg" id="Layer_1" data-name="Layer 1" viewBox="0 0 24 24">
  <path d="m20.568,1.105c-2.353-1.502-5.394-1.492-7.747.022-1.086.698-1.936,1.614-2.524,2.72-.762,1.427-1.898,2.358-3.201,2.621-2.438.493-4.504,1.947-5.817,4.096-2.126,3.481-1.533,8.075,1.41,10.925,1.667,1.614,3.861,2.504,6.177,2.504,8.2,0,15.128-7.648,15.128-16.703,0-2.504-1.28-4.816-3.425-6.186Zm-13.068,14.895c-.828,0-1.5-.672-1.5-1.5s.672-1.5,1.5-1.5,1.5.672,1.5,1.5-.672,1.5-1.5,1.5Zm9-1c-.828,0-1.5-.672-1.5-1.5s.672-1.5,1.5-1.5,1.5.672,1.5,1.5-.672,1.5-1.5,1.5Zm0-6c-.828,0-1.5-.672-1.5-1.5s.672-1.5,1.5-1.5,1.5.672,1.5,1.5-.672,1.5-1.5,1.5Z"/>
</svg>
