<?xml version="1.0" encoding="UTF-8"?>
<svg xmlns="http://www.w3.org/2000/svg" id="Layer_1" data-name="Layer 1" viewBox="0 0 24 24">
  <path d="m23.896,13.749l-1.654-11.188c-.217-1.459-1.492-2.561-2.968-2.561h-3.274v2h3.274c.492,0,.917.367.989.854l1.5,10.146h-4.764c-1.474,0-2.75.81-3.444,2h-3.113c-.694-1.19-1.97-2-3.444-2H2.236L3.736,2.854c.072-.487.497-.854.989-.854h3.274V0h-3.274C3.25,0,1.975,1.101,1.758,2.561L.104,13.744c-.069.453-.104.913-.104,1.368v4.888c0,2.206,1.794,4,4,4h3c2.206,0,4-1.794,4-4v-3h2v3c0,2.206,1.794,4,4,4h3c2.206,0,4-1.794,4-4v-4.888c0-.455-.035-.915-.104-1.363Z"/>
</svg>
