<?xml version="1.0" encoding="UTF-8"?>
<svg xmlns="http://www.w3.org/2000/svg" id="Layer_1" data-name="Layer 1" viewBox="0 0 24 24" width="512" height="512"><path d="M16.43,20.65c-1.3,.86-2.83,1.35-4.43,1.35-2.95,0-5.53-1.61-6.92-4H3v4H1v-4c0-1.1,.9-2,2-2h1.26c-.17-.64-.26-1.31-.26-2,0-.29,.04-.63,.1-1H1v-2h3.58c.16-.55,.34-1.12,.53-1.68l11.33,11.33Zm7.52,1.89l-1.41,1.41L.04,1.46,1.46,.04,6.68,5.26c1.02-1.99,3.07-3.26,5.32-3.26,2.39,0,4.54,1.41,5.5,3.6,0,0,.07,.16,.16,.4h3.34V2h2V6c0,1.1-.9,2-2,2h-2.57c.33,.91,.7,1.98,.99,3h3.58v2h-3.1c.06,.37,.1,.71,.1,1,0,.68-.11,1.35-.27,2h1.27c1.1,0,2,.9,2,2v3.59l.96,.96Zm-2.96-4.54h-1.59l1.59,1.59v-1.59Z"/></svg>
