<?xml version="1.0" encoding="UTF-8"?>
<svg xmlns="http://www.w3.org/2000/svg" id="Layer_1" data-name="Layer 1" viewBox="0 0 24 24">
  <path d="m12,18v-1.5c0-1.379,1.121-2.5,2.5-2.5h.5v-.5c0-.827.673-1.5,1.5-1.5h3c.827,0,1.5.673,1.5,1.5v.5h.5c1.379,0,2.5,1.121,2.5,2.5v1.5h-12Zm7,2v1h-2v-1h-5v4h12v-4h-5Zm-9,4H0V3C0,1.346,1.346,0,3,0h10c1.654,0,3,1.346,3,3v7.038c-1.242.179-2.276,1.009-2.739,2.136-1.881.539-3.261,2.274-3.261,4.326v7.5Zm-1-17h3v-2h-3v2Zm0,4h3v-2h-3v2Zm-2,6h-3v2h3v-2Zm0-4h-3v2h3v-2Zm0-4h-3v2h3v-2Zm0-4h-3v2h3v-2Z"/>
</svg>
