<?xml version="1.0" encoding="UTF-8"?>
<svg xmlns="http://www.w3.org/2000/svg" id="Layer_1" data-name="Layer 1" viewBox="0 0 24 24">
  <path d="m21,1H3C1.346,1,0,2.346,0,4v4h24v-4c0-1.654-1.346-3-3-3ZM3.5,6c-.828,0-1.5-.672-1.5-1.5s.672-1.5,1.5-1.5,1.5.672,1.5,1.5-.672,1.5-1.5,1.5Zm4,0c-.828,0-1.5-.672-1.5-1.5s.672-1.5,1.5-1.5,1.5.672,1.5,1.5-.672,1.5-1.5,1.5ZM0,10v13h24v-13H0Zm11.6,7.2c0,1.544-1.256,2.8-2.8,2.8s-2.8-1.256-2.8-2.8v-4.2h1.6v4.2c0,.662.539,1.2,1.2,1.2s1.2-.538,1.2-1.2v-4.2h1.6v4.2Zm6.7,2.8h-1.829l-1.012-1.848-1.029,1.848h-1.829l1.944-3.5-1.944-3.5h1.829l1.029,1.848,1.012-1.848h1.829l-1.927,3.5,1.927,3.5Z"/>
</svg>
