<?xml version="1.0" encoding="UTF-8"?>
<svg xmlns="http://www.w3.org/2000/svg" id="Layer_1" data-name="Layer 1" viewBox="0 0 24 24">
  <path d="m3,1.5v3.5H0V1.5C0,.672.672,0,1.5,0s1.5.672,1.5,1.5Zm9,17.5v2.5c0,.924-.28,1.784-.76,2.5h9.26c1.93,0,3.5-1.57,3.5-3.5v-1.5h-12ZM24,2.537c0,.678-.264,1.316-.744,1.795l-6.667,6.667h-3.59v-3.59L19.666.742c.99-.99,2.6-.99,3.59,0,.479.479.744,1.117.744,1.795Zm-6.582,10.462h-6.419v-6.418L17.335.245c-.419-.149-.864-.245-1.335-.245H4.662c.217.455.338.964.338,1.5v19.857c0,1.308.941,2.5,2.242,2.63,1.496.15,2.758-1.021,2.758-2.487v-4.5h10v-6.583l-2.582,2.582Z"/>
</svg>
