<?xml version="1.0" encoding="UTF-8"?>
<svg xmlns="http://www.w3.org/2000/svg" id="Layer_1" data-name="Layer 1" viewBox="0 0 24 24">
  <path d="m6.4,13.5c0,.496-.404.9-.9.9-.124,0-.242-.025-.35-.071-.323-.137-.55-.457-.55-.829,0-.496.404-.9.9-.9s.9.404.9.9Zm5.1-3.9c-.496,0-.9.404-.9.9v3c0,.496.404.9.9.9s.9-.404.9-.9v-3c0-.496-.404-.9-.9-.9Zm12.5,2.4c0,6.627-5.373,12-12,12S0,18.627,0,12,5.373,0,12,0s12,5.373,12,12Zm-9-2.769c0,.69.56,1.25,1.25,1.25s1.25-.56,1.25-1.25-.56-1.25-1.25-1.25-1.25.56-1.25,1.25Zm-7.047,3.775c-.151-.79-.721-1.466-1.458-1.79-.691-.303-1.336-.259-1.895-.042v-.674c0-.497.403-.9.9-.9h2v-1.6h-2c-1.381,0-2.5,1.119-2.5,2.5v3c0,1.381,1.119,2.5,2.5,2.5,1.542,0,2.758-1.396,2.453-2.994Zm6.047-2.506c0-1.381-1.119-2.5-2.5-2.5s-2.5,1.119-2.5,2.5v3c0,1.381,1.119,2.5,2.5,2.5s2.5-1.119,2.5-2.5v-3Zm2.778,5.481l5.222-8h-1.911l-5.222,8h1.911Zm5.222-1.25c0-.69-.56-1.25-1.25-1.25s-1.25.56-1.25,1.25.56,1.25,1.25,1.25,1.25-.56,1.25-1.25Z"/>
</svg>
