<?xml version="1.0" encoding="UTF-8"?>
<svg xmlns="http://www.w3.org/2000/svg" id="Layer_1" data-name="Layer 1" viewBox="0 0 24 24" width="512" height="512"><path d="M11.992,11.512c.349-.527,1.058-.671,1.585-.322l1.907,1.263c.527,.349,.671,1.058,.322,1.585l-4.669,7.173c-1.225,1.748-3.226,2.789-5.361,2.789h-1.206c-2.514,0-4.572-2.036-4.574-4.55-.003-3.593,.617-5.91,1.144-8.45l7.117,.013c.313,1.509,.659,2.792,.888,4.339l2.848-3.84ZM22.653,0c-1.012,0-1.948,.504-2.505,1.35l-5.411,8.211,1.668,1.103L21.818,2.45c.186-.282,.498-.45,.835-.45h1.347V0h-1.347Z"/></svg>
