<?xml version="1.0" encoding="UTF-8"?>
<svg xmlns="http://www.w3.org/2000/svg" id="Layer_1" data-name="Layer 1" viewBox="0 0 24 24">
  <path d="m21.976,0c-1.323,0-2.476.849-2.865,2.113-.072.232-.153.5-.239.784l-.055-.017c-.783-.242-1.358-.42-1.762-.558l-.645,1.894c.416.142,1.009.325,1.815.575l.075.023c-.228.775-.476,1.62-.734,2.508l-.225-.07c-.783-.242-1.358-.42-1.762-.558l-.645,1.894c.416.142,1.009.325,1.815.575l.256.079c-.258.888-.518,1.781-.772,2.649-.834,2.366-2.23,5.109-3.759,5.109-1.327,0-1.491-1.056-1.5-1.5v-2.493c.008-.471.174-2.007,2-2.007v-2H-.024v2c1.826,0,1.992,1.537,2,2.009l.031,3.322c0,2.979,1.221,5.408,3.348,6.666,1.078.636,2.324.983,3.605,1.003.041,0,.082,0,.123,0,3.188,0,6.063-1.938,7.019-4.746.384-1.127,1.162-3.753,2.018-6.682.402-1.15,2.437-8.367,2.901-9.869.13-.42.514-.703.955-.703h2.024V0h-2.024ZM1.011,7c-.001-.046-.011-.09-.011-.137,0-1.582,1.088-2.922,2-3.863,0,0,.453,2.03,1.008,2.03,1.158,0,.823-3.103,2.492-5.03,1.737,1.737,5.5,3.679,5.5,6.863,0,.047-.01.091-.011.137H1.011Z"/>
</svg>
