<?xml version="1.0" encoding="UTF-8"?>
<svg xmlns="http://www.w3.org/2000/svg" id="Layer_1" data-name="Layer 1" viewBox="0 0 24 24">
  <path d="m22.389,12.605c-1.039-1.039-2.42-1.611-3.889-1.611s-2.85.572-3.889,1.61c-1.039,1.039-1.611,2.42-1.611,3.89s.576,2.855,1.649,3.925l3.851,3.574,3.889-3.609c1.039-1.039,1.611-2.42,1.611-3.89s-.572-2.851-1.611-3.889Zm-3.889,5.395c-.828,0-1.5-.672-1.5-1.5s.672-1.5,1.5-1.5,1.5.672,1.5,1.5-.672,1.5-1.5,1.5Zm-5.211,3.885c-.85-.847-1.465-1.829-1.845-2.885h-2.444v-2h2.025c-.011-.168-.025-.336-.025-.506,0-.508.051-1.007.149-1.494h-2.149v-2h2.862c.348-.658.794-1.269,1.336-1.81.804-.804,1.762-1.394,2.803-1.762V3c0-1.654-1.346-3-3-3H3C1.346,0,0,1.346,0,3v21h15.568l-2.279-2.115ZM9,5h3v2h-3v-2Zm0,4h3v2h-3v-2Zm-2,10h-3v-2h3v2Zm0-4h-3v-2h3v2Zm0-4h-3v-2h3v2Zm0-4h-3v-2h3v2Z"/>
</svg>
