<?xml version="1.0" encoding="UTF-8"?>
<svg xmlns="http://www.w3.org/2000/svg" id="Layer_1" data-name="Layer 1" viewBox="0 0 24 24">
  <path d="m17,11c0-2.757-2.243-5-5-5s-5,2.243-5,5,2.243,5,5,5,5-2.243,5-5Zm2,11v2H5v-2c0-2.209,1.791-4,4-4h6c2.209,0,4,1.791,4,4Zm3.038-6.257l-1.091,1.677h0s-3.401-2.162-3.401-2.162c.909-1.18,1.455-2.653,1.455-4.257,0-3.866-3.134-7-7-7s-7,3.134-7,7c0,1.604.546,3.078,1.455,4.257l-3.401,2.161h0s-1.091-1.676-1.091-1.676l1.785-1.162c-.478-1.098-.747-2.308-.747-3.581,0-1.451.353-2.819.966-4.034l-1.732-1.127,1.092-1.677,1.727,1.124c1.452-1.762,3.561-2.961,5.947-3.226V0h2v2.059c2.387.265,4.495,1.464,5.947,3.226l1.727-1.124,1.092,1.677-1.732,1.127c.613,1.215.966,2.583.966,4.034,0,1.273-.269,2.482-.747,3.581l1.785,1.162Z"/>
</svg>
