<?xml version="1.0" encoding="UTF-8"?>
<svg xmlns="http://www.w3.org/2000/svg" id="Layer_1" data-name="Layer 1" viewBox="0 0 24 24">
  <path d="m5.659,15s7.112-8.87,7.341-9.309v3.871c0,2.998-2.376,5.438-5.298,5.438h-2.043ZM22,3.524c0-.008,0-.016,0-.024,0-1.933-1.567-3.5-3.5-3.5s-3.5,1.567-3.5,3.5v6.062c0,4.101-3.274,7.438-7.298,7.438h-3.641L.052,22.017l1.562,1.248,1.809-2.265h5.438l1.5,3h2.236l-1.531-3.062c.855-.093,1.684-.29,2.476-.576l1.819,3.638h2.236l-2.243-4.487c3.341-1.949,5.645-5.604,5.645-9.685,0,0,.002-2.795.005-2.828h2.995c0-1.892-1.085-2.934-2-3.476Z"/>
</svg>
