<?xml version="1.0" encoding="UTF-8"?>
<svg xmlns="http://www.w3.org/2000/svg" id="Layer_1" data-name="Layer 1" viewBox="0 0 24 24">
  <path d="m13.758,5c-.076.044-5.758,3.922-5.758,3.922v8.078H0V7.463c0-.974.44-1.876,1.207-2.475L7.043.42c.803-.628,1.947-.546,2.913.21l3.072,2.375c.082.732.339,1.411.729,1.994Zm-7.758,5h-3v3h3v-3ZM17.5,0c-1.381,0-2.5,1.119-2.5,2.5s1.119,2.5,2.5,2.5,2.5-1.119,2.5-2.5S18.881,0,17.5,0Zm-7.5,9.972v5.028s2,0,2,0v-3.972s2-1.38,2-1.38v3.759c0,.978.479,1.897,1.28,2.458l4.743,3.168-.023,4.962,2,.01.028-6.038-3.028-2.022.017-3.812,3.796,2.475,1.092-1.676-3.166-2.063-1.239-2.868c-.367-1.178-1.596-2-2.5-2-1.5,0-2.452.865-2.452.865l-4.548,3.107Zm4.661,7.672l-2.559,6.356h2.162s2.074-5.174,2.074-5.174c0,0-1.624-1.144-1.677-1.182Z"/>
</svg>
