<?xml version="1.0" encoding="UTF-8"?>
<svg xmlns="http://www.w3.org/2000/svg" id="Layer_1" data-name="Layer 1" viewBox="0 0 24 24" width="512" height="512"><path d="M12,6c-3.31,0-6,2.69-6,6s2.69,6,6,6c.95,0,1.84-.23,2.63-.62-.39-.71-.63-1.52-.63-2.38,0-2.31,1.58-4.24,3.72-4.81-.77-2.42-3.04-4.19-5.72-4.19Zm0,7.5c-.83,0-1.5-.67-1.5-1.5s.67-1.5,1.5-1.5,1.5,.67,1.5,1.5-.67,1.5-1.5,1.5Zm0,10.5H0V3C0,1.35,1.35,0,3,0H21c1.65,0,3,1.35,3,3V15c0-2.5-1.85-4.56-4.24-4.92-.86-3.48-4.01-6.08-7.76-6.08-4.41,0-8,3.59-8,8s3.59,8,8,8c.15,0,.29-.01,.44-.02-.28,.62-.44,1.3-.44,2.02v2Zm12,0H14v-2c0-1.65,1.35-3,3-3h4c1.65,0,3,1.35,3,3v2Zm-5-6c-1.65,0-3-1.35-3-3s1.35-3,3-3,3,1.35,3,3-1.35,3-3,3Z"/></svg>
