<?xml version="1.0" encoding="UTF-8"?>
<svg xmlns="http://www.w3.org/2000/svg" id="Layer_1" data-name="Layer 1" viewBox="0 0 24 24" width="512" height="512"><path d="M24,6h-5v-1.914l2.086-2.086h-2.086V0h5V1.914l-2.086,2.086h2.086v2Zm-.697,2c.444,1.253,.697,2.595,.697,4,0,6.627-5.373,12-12,12S0,18.627,0,12,5.373,0,12,0c1.787,0,3.476,.401,5,1.102v6.898h6.303Zm-13.303,2h5v-2h-2.086l2.086-2.086v-1.914h-5v2h2.086l-2.086,2.086v1.914Zm-2.13,4.984c1.117,0,2.18-.458,3.019-1.306l-1.422-1.406c-.507,.512-1.095,.746-1.737,.707-.557-.037-1.127-.295-1.526-.69l-1.407,1.422c.742,.734,1.763,1.195,2.8,1.264,.091,.007,.182,.01,.273,.01Zm6.13,4.016c0-1.105-.895-2-2-2s-2,.895-2,2,.895,2,2,2,2-.895,2-2Zm5.165-5.29l-1.406-1.422c-.398,.394-.968,.65-1.523,.687-.647,.05-1.228-.194-1.733-.707l-1.423,1.406c.838,.848,1.9,1.306,3.017,1.306,.09,0,.18-.003,.27-.009,1.036-.068,2.056-.527,2.798-1.261Z"/></svg>
