<?xml version="1.0" encoding="UTF-8"?>
<svg xmlns="http://www.w3.org/2000/svg" id="Layer_1" data-name="Layer 1" viewBox="0 0 24 24">
  <path d="m18,12c-3.314,0-6,2.686-6,6s2.686,6,6,6,6-2.686,6-6-2.686-6-6-6Zm.619,8.414c-.378.378-.88.586-1.414.586h-.002c-.534,0-1.036-.209-1.413-.587l-2.012-2.012,1.414-1.414,2.013,2.013,3.615-3.615,1.414,1.414-3.615,3.615Zm5.381-12.414H0V3C0,1.343,1.343,0,3,0h18c1.657,0,3,1.343,3,3v5Zm-11.285,16H1v-14h17c-4.411,0-8,3.589-8,8,0,2.387,1.051,4.533,2.715,6Z"/>
</svg>
