<?xml version="1.0" encoding="UTF-8"?>
<svg xmlns="http://www.w3.org/2000/svg" id="Layer_1" data-name="Layer 1" viewBox="0 0 24 24">
  <path d="m4,20h18v4H4c-1.105,0-2-.895-2-2s.895-2,2-2Zm2-2V0h-1c-1.657,0-3,1.343-3,3v15.765c.549-.494,1.262-.766,2-.765h2ZM22,2v16h-14V0h12c1.105,0,2,.895,2,2Zm-5.586,10l1.793-1.793-1.414-1.414-1.793,1.793-1.793-1.793-1.414,1.414,1.793,1.793-1.793,1.793,1.414,1.414,1.793-1.793,1.793,1.793,1.414-1.414-1.793-1.793Zm2.517-8.07l-1.398-1.43-2.543,2.631-1.496-1.581-1.387,1.441,2.037,2.152c.455.478,1.216.481,1.674.007l3.113-3.221Z"/>
</svg>
