<?xml version="1.0" encoding="UTF-8"?>
<svg xmlns="http://www.w3.org/2000/svg" id="Layer_1" data-name="Layer 1" viewBox="0 0 24 24">
  <path d="m21.386,10.089L24,.53l-.904-.53-4.895,8.31c-.702-.201-1.443-.308-2.208-.308-.994,0-1.676,0-1.694.001,0,0-.001,0-.002,0-4.244.11-8.598,3.618-10.297,5.355v-2.781c.656-.592,1.433-1.202,2.298-1.778.033-.228.068-.455.106-.682l.466-2.765c2.374-.615,4.129-2.788,4.129-5.352-4.173,0-5.5,2.776-5.5,2.776,0,0-1.378-2.776-5.5-2.776,0,2.278,1.385,4.247,3.358,5.089l-.503.754C.994,8.637,0,11.919,0,15.276v2.724c0,3.314,2.686,6,6,6h10.001c4.418,0,7.999-3.581,7.999-7.999,0-2.342-1.008-4.449-2.614-5.912Zm-3.886,7.911c-.828,0-1.5-.672-1.5-1.5s.672-1.5,1.5-1.5,1.5.672,1.5,1.5-.672,1.5-1.5,1.5Z"/>
</svg>
