<?xml version="1.0" encoding="UTF-8"?>
<svg xmlns="http://www.w3.org/2000/svg" id="Layer_1" data-name="Layer 1" viewBox="0 0 24 24" width="512" height="512"><path d="m7,6.291V2h-2V0h14v2h-2v4.333c2.786,1.249,4.94,3.462,6.086,6.089-.96.657-3.986,2.579-6.586,2.579-1.652,0-2.865-.455-4.148-.937-1.395-.523-2.837-1.063-4.852-1.063-2.962,0-6.127,1.87-7.455,2.752.356-4.135,2.985-7.727,6.955-9.461Zm9.5,10.709c-2.015,0-3.457-.541-4.852-1.063-1.283-.482-2.496-.937-4.148-.937-3.119,0-6.863,2.772-6.9,2.8l-.499.327c.256,1.986,1.043,3.864,2.331,5.493l.3.38h18.539l.3-.38c1.59-2.012,2.431-4.399,2.431-6.906,0-.788-.093-1.566-.264-2.323-1.436.927-4.429,2.609-7.236,2.609Z"/></svg>
