<?xml version="1.0" encoding="UTF-8"?>
<svg xmlns="http://www.w3.org/2000/svg" id="Layer_1" data-name="Layer 1" viewBox="0 0 24 24">
  <path d="m24,10c0-1.654-1.346-3-3-3s-3,1.346-3,3,1.346,3,3,3c.214,0,.422-.024.624-.067-.454,1.796-1.316,3.428-2.476,4.801l-1.424-1.424c.455-.547.854-1.142,1.182-1.783-1.711-.794-2.905-2.516-2.905-4.526s1.194-3.733,2.905-4.526C17.25,2.231,13.884,0,10,0c-2.398,0-4.595.854-6.319,2.267L1.457.043.043,1.457l22.5,22.5,1.414-1.414-3.401-3.401c2.133-2.455,3.443-5.642,3.443-9.142Zm-14-3c1.657,0,3,1.343,3,3,0,.463-.108.899-.296,1.289l-3.993-3.993c.39-.188.826-.296,1.289-.296Zm6.082,13.329l1.452,1.452c-2.178,1.398-4.759,2.219-7.534,2.219h-1v-4.051C3.954,19.446,0,15.177,0,10c0-1.665.415-3.233,1.137-4.615l13.469,13.469c-1.099.571-2.316.945-3.606,1.075v2.03c1.846-.153,3.569-.732,5.082-1.629Z"/>
</svg>
