<?xml version="1.0" encoding="UTF-8"?>
<svg xmlns="http://www.w3.org/2000/svg" id="Layer_1" data-name="Layer 1" viewBox="0 0 24 24" width="512" height="512"><path d="m21.8,15.614l.622-.622c.026.001.051.008.078.008.828,0,1.5-.672,1.5-1.5s-.672-1.5-1.5-1.5-1.5.672-1.5,1.5c0,.027.006.052.008.078l-.622.622c-.421-.266-.887-.465-1.386-.579v-1.621h-2v1.621c-.5.114-.965.313-1.386.579l-.622-.622c.001-.026.008-.051.008-.078,0-.828-.672-1.5-1.5-1.5s-1.5.672-1.5,1.5.672,1.5,1.5,1.5c.027,0,.052-.006.078-.008l.622.622c-.266.421-.465.887-.579,1.386h-1.621v2h1.621c.114.5.313.965.579,1.386l-.622.622c-.026-.001-.051-.008-.078-.008-.828,0-1.5.672-1.5,1.5s.672,1.5,1.5,1.5,1.5-.672,1.5-1.5c0-.027-.006-.052-.008-.078l.622-.622c.421.266.887.465,1.386.579v1.621h2v-1.621c.5-.114.965-.313,1.386-.579l.622.622c-.001.026-.008.051-.008.078,0,.828.672,1.5,1.5,1.5s1.5-.672,1.5-1.5-.672-1.5-1.5-1.5c-.027,0-.052.006-.078.008l-.622-.622c.266-.421.465-.887.579-1.386h1.621v-2h-1.621c-.114-.5-.313-.965-.579-1.386Zm-9.901-7.614h2.101v-2h-2.101c-.13-.637-.384-1.229-.732-1.753l1.255-1.255c.026.001.051.008.078.008.828,0,1.5-.672,1.5-1.5s-.672-1.5-1.5-1.5-1.5.672-1.5,1.5c0,.027.006.052.008.078l-1.255,1.255c-.524-.348-1.116-.602-1.753-.732V0h-2v2.101c-.637.13-1.229.384-1.753.732l-1.255-1.255c.001-.026.008-.051.008-.078,0-.828-.672-1.5-1.5-1.5S0,.672,0,1.5s.672,1.5,1.5,1.5c.027,0,.052-.006.078-.008l1.255,1.255c-.348.524-.602,1.116-.732,1.753H0v2h2.101c.13.637.384,1.229.732,1.753l-1.255,1.255c-.026-.001-.051-.008-.078-.008-.828,0-1.5.672-1.5,1.5s.672,1.5,1.5,1.5,1.5-.672,1.5-1.5c0-.027-.006-.052-.008-.078l1.255-1.255c.524.348,1.116.602,1.753.732v2.101h2v-2.101c1.956-.399,3.5-1.943,3.899-3.899Z"/></svg>
