<?xml version="1.0" encoding="UTF-8"?>
<svg xmlns="http://www.w3.org/2000/svg" id="Layer_1" data-name="Layer 1" viewBox="0 0 24 24" width="512" height="512"><path d="m16.5,14H7.5c-2.481,0-4.5,2.019-4.5,4.5v5.5h18v-5.5c0-2.481-2.019-4.5-4.5-4.5Zm-.171,7.5c-.786,0-2.286,1.524-2.286,1.5.071-1.031.257-1.894.486-2.614.329-.971.843-1.762,1.471-2.386.622.615,1.129,1.403,1.457,2.206.329.779.486,1.431.586,2.294-.347-.413-1.121-1-1.714-1Zm1.671-13.5H6c-.552,0-1-.448-1-1v-2c0-.552.448-1,1-1h12c.552,0,1,.448,1,1v2c0,.552-.448,1-1,1ZM7.54,2c1.099-1.224,2.688-2,4.46-2s3.36.776,4.46,2H7.54Zm8.919,8c-1.099,1.224-2.688,2-4.46,2s-3.36-.776-4.46-2h8.919Z"/></svg>
