<?xml version="1.0" encoding="UTF-8"?>
<svg xmlns="http://www.w3.org/2000/svg" id="Layer_1" data-name="Layer 1" viewBox="0 0 24 24" width="512" height="512"><path d="M1.287,8h-.4L0,0,8,.886v.4c0,2.948-3.765,6.713-6.713,6.713ZM12,0c-.683,0-1.348,.07-2,.18V1.287c0,4.071-4.642,8.713-8.713,8.713H.18c-.11,.652-.18,1.317-.18,2,0,6.627,5.373,12,12,12,4.645,0,8.665-2.644,10.66-6.504-.476,.317-1.046,.504-1.66,.504h-6.092c.056,.157,.092,.324,.092,.5,0,.828-.672,1.5-1.5,1.5h-3.5v-2h2v-2h-2v-2h3.5c.828,0,1.5,.672,1.5,1.5,0,.176-.036,.343-.092,.5h6.092c.552,0,1-.448,1-1s-.448-1-1-1c-.274,0-.53,.108-.721,.307l-1.439-1.389c.562-.583,1.35-.918,2.16-.918,1.305,0,2.407,.843,2.819,2.009,.111-.655,.181-1.323,.181-2.009C24,5.373,18.627,0,12,0ZM7.947,12.021c-1.16,0-2.281-.48-3.073-1.265l1.406-1.422c.659,.653,2.073,1.186,3.264-.017l1.422,1.406c-.898,.907-1.975,1.297-3.019,1.297Zm8.458-.021c-.09,.006-.181,.009-.271,.009-1.116,0-2.179-.458-3.017-1.306l1.424-1.406c.504,.511,1.085,.745,1.731,.707,.556-.037,1.125-.294,1.523-.688l1.406,1.422c-.742,.733-1.762,1.192-2.798,1.262Z"/></svg>
