<?xml version="1.0" encoding="UTF-8"?>
<svg xmlns="http://www.w3.org/2000/svg" id="Layer_1" data-name="Layer 1" viewBox="0 0 24 24">
  <path d="m17.955,17.651l-4.628-4.628,2.92-2.92,4.628,4.628-2.92,2.92Zm4.188-9.053c-.688-.491-1.143-1.286-1.143-2.197,0-.594.204-1.132.527-1.578l-3.866,3.866,4.116,4.115c-.485-.495-.776-1.203-.776-1.955,0-.925.453-1.739,1.143-2.252Zm-11.875-4.473l-2.92,2.92,4.564,4.564,2.92-2.92-4.564-4.564Zm-4.334,4.334L1.879,12.515c-1.17,1.169-1.17,3.073,0,4.243l6.364,6.364c.585.585,1.353.877,2.122.877s1.536-.292,2.121-.877l4.056-4.056L5.935,8.459Zm10.312-1.184l3.953-3.953-2.442-2.442c-1.132-1.133-3.109-1.135-4.243,0l-1.832,1.832,4.564,4.564Z"/>
</svg>
