<?xml version="1.0" encoding="UTF-8"?>
<svg xmlns="http://www.w3.org/2000/svg" id="Layer_1" data-name="Layer 1" viewBox="0 0 24 24" width="512" height="512"><path d="m24,22h-2v-6h2v6Zm-15-6v6h11v-6h-11Zm-2,0H0v6h7v-6Zm13-4.18c0-1.396-.744-2.711-1.942-3.431l-1.602-.961c-.898-.539-1.457-1.524-1.457-2.572v-2.856h-2v2.856c0,1.746.93,3.389,2.427,4.287l1.601.961c.6.359.972,1.018.972,1.716v2.18h2v-2.18Zm4-1.556c0-1.746-.93-3.389-2.427-4.287l-2.086-1.252c-.3-.18-.486-.509-.486-.858V0h-2v3.867c0,1.047.558,2.033,1.457,2.573l2.087,1.252c.898.539,1.457,1.524,1.457,2.572v1.735h2v-1.735Z"/></svg>
