<?xml version="1.0" encoding="UTF-8"?>
<svg xmlns="http://www.w3.org/2000/svg" id="Layer_1" data-name="Layer 1" viewBox="0 0 24 24">
  <path d="m22,14v-1c0-2.206-1.794-4-4-4s-4,1.794-4,4v1h-2v7c0,1.654,1.346,3,3,3h6c1.654,0,3-1.346,3-3v-7h-2Zm-3,6h-2v-2h2v2Zm1-6h-4v-1c0-1.103.897-2,2-2s2,.897,2,2v1Zm-11.802,1h1.802v2h-2.042l-.841,7h-2.012l.841-7H0l.235-2h5.951l.721-6H.706l.235-2h6.206l.841-7h2.012l-.841,7h6.883l.841-7h2.012l-.841,7h5.946l-.235,2h-1.305c-1.099-1.224-2.688-2-4.46-2s-3.36.776-4.46,2h-4.622l-.721,6Z"/>
</svg>
