<?xml version="1.0" encoding="UTF-8"?>
<svg xmlns="http://www.w3.org/2000/svg" id="Layer_1" data-name="Layer 1" viewBox="0 0 24 24" width="512" height="512"><path d="M8.067,23.327c-1.114-.699-1.924-1.899-2.03-3.41-.057-.809,.155-1.617,.531-2.336l1.659-3.172c.179-.341,.527-.537,.887-.537,.156,0,.315,.037,.463,.114,.489,.256,.679,.86,.423,1.349l-.482,.921,6.196-1.955c.099-.031,.198-.046,.297-.046,.422,0,.812,.271,.945,.695,.164,.522-.127,1.078-.649,1.242l-2.302,.721-.005,5.029c0,.645-.414,1.218-1.026,1.422l-1.309,.436c-.214,.067-.429,.116-.644,.149,0,0-1.452,.29-2.952-.623ZM12,0C5.373,0,0,5.373,0,12c0,3.652,1.637,6.915,4.213,9.112-.081-.343-.146-.693-.171-1.054-.08-1.128,.18-2.305,.752-3.402l1.66-3.174c.517-.992,1.536-1.61,2.659-1.61,.479,0,.958,.117,1.385,.339,.555,.29,.981,.729,1.256,1.242l3.357-1.059c1.585-.494,3.267,.416,3.751,1.957h0c.239,.763,.167,1.573-.203,2.281-.369,.708-.993,1.229-1.755,1.468l-.902,.283-.004,3.562c0,.526-.124,1.027-.338,1.482,4.836-1.548,8.34-6.077,8.34-11.427C24,5.373,18.627,0,12,0Zm-3.5,11c-.828,0-1.5-.672-1.5-1.5s.672-1.5,1.5-1.5,1.5,.672,1.5,1.5-.672,1.5-1.5,1.5Zm1.668-3.623c-.007-.014-.668-1.377-1.668-1.377-.7,0-1.056,.452-1.059,.456l-1.646-1.135c.093-.135,.961-1.321,2.705-1.321,2.312,0,3.441,2.446,3.488,2.55l-1.82,.827Zm5.332,4.623c-.828,0-1.5-.672-1.5-1.5s.672-1.5,1.5-1.5,1.5,.672,1.5,1.5-.672,1.5-1.5,1.5Z"/></svg>
