<?xml version="1.0" encoding="UTF-8"?>
<svg xmlns="http://www.w3.org/2000/svg" id="Layer_1" data-name="Layer 1" viewBox="0 0 24 24">
  <path d="m22.738,12.718l-.957-.718.957-.718c.802-.602,1.262-1.485,1.262-2.425,0-1.733-1.366-3.403-3.273-3.403-.863,0-2.175.624-3.372,1.19.567-1.197,1.19-2.509,1.19-3.372,0-1.906-1.67-3.273-3.403-3.273-.939,0-1.823.46-2.425,1.262l-.718.957-.718-.957c-.602-.802-1.485-1.262-2.425-1.262-1.733,0-3.403,1.366-3.403,3.273,0,.863.624,2.175,1.19,3.372-1.197-.567-2.509-1.19-3.372-1.19-1.906,0-3.273,1.669-3.273,3.403,0,.939.46,1.823,1.262,2.425l.957.718-.957.718c-.802.602-1.262,1.485-1.262,2.425,0,1.733,1.366,3.403,3.273,3.403.863,0,2.175-.624,3.372-1.19-.567,1.197-1.19,2.509-1.19,3.372,0,1.906,1.67,3.273,3.403,3.273.939,0,1.823-.46,2.425-1.262l.718-.957.718.957c.602.802,1.485,1.262,2.425,1.262,1.733,0,3.403-1.366,3.403-3.273,0-.863-.624-2.175-1.19-3.372,1.197.567,2.509,1.19,3.372,1.19,1.906,0,3.273-1.67,3.273-3.403,0-.939-.46-1.823-1.262-2.425Z"/>
</svg>
