<?xml version="1.0" encoding="UTF-8"?>
<svg xmlns="http://www.w3.org/2000/svg" id="Layer_1" data-name="Layer 1" viewBox="0 0 24 24" width="512" height="512"><path d="M17,5.59V3l3-3V4h4l-3,3h-2.59l-4.49,4.49c.04,.16,.07,.33,.07,.51,0,1.1-.9,2-2,2s-2-.9-2-2,.9-2,2-2c.18,0,.35,.03,.51,.07l4.49-4.49Zm4.83,3.41h-1.34c.32,.93,.51,1.92,.51,2.96-.45,11.96-17.55,11.96-18,0C3,6.98,7.04,2.93,12,2.93c1.05,0,2.06,.19,3,.53v-1.29l1.39-1.39C9.5-1.77,.38,1.95,0,11.96c0,6.64,5.38,12.04,12,12.04s12-5.4,12-12.04c-.06-1.6-.35-3.04-.82-4.32l-1.35,1.35Zm-10.04-1.03l2.61-2.61c-.71-.25-1.51-.4-2.4-.42-9.25,.29-9.25,13.75,0,14.05,5.67-.18,7.86-5.31,6.58-9.32l-2.65,2.65c-.15,1.85-1.45,3.59-3.93,3.66-5.37-.12-5.84-7.62-.22-8Z"/></svg>
