<?xml version="1.0" encoding="UTF-8"?>
<svg xmlns="http://www.w3.org/2000/svg" id="Layer_1" data-name="Layer 1" viewBox="0 0 24 24">
  <path d="m22.5,18c0-.46-.089-.895-.218-1.313l1.416-.816-.998-1.733-1.411.813c-.605-.652-1.393-1.125-2.289-1.33v-1.621h-2v1.621c-.896.205-1.685.678-2.289,1.33l-1.411-.813-.998,1.733,1.416.816c-.129.418-.218.853-.218,1.313s.089.895.218,1.313l-1.416.816.998,1.733,1.411-.813c.605.652,1.393,1.125,2.289,1.33v1.621h2v-1.621c.896-.205,1.685-.678,2.289-1.33l1.411.813.998-1.733-1.416-.816c.129-.418.218-.853.218-1.313Zm-4.5,1.5c-.827,0-1.5-.673-1.5-1.5s.673-1.5,1.5-1.5,1.5.673,1.5,1.5-.673,1.5-1.5,1.5Zm-9.999-.502h-3.125c-.264-1.251-.951-2.435-2.007-3.417C.72,13.58-.298,10.752.076,7.82.591,3.78,3.905.515,7.957.057c2.567-.289,5.13.522,7.038,2.227,1.91,1.707,3.006,4.154,3.006,6.714,0,.338-.021.673-.058,1.005-4.386.031-7.932,3.589-7.942,7.98v-7.169c1.161-.414,2-1.514,2-2.816h-2c0,.551-.448,1-1,1s-1-.449-1-1h-2c0,1.302.839,2.402,2,2.816v8.184Zm4.718,5h-7.718v-3h5.585c.47,1.162,1.207,2.184,2.132,3Z"/>
</svg>
