<?xml version="1.0" encoding="UTF-8"?>
<svg xmlns="http://www.w3.org/2000/svg" id="Layer_1" data-name="Layer 1" viewBox="0 0 24 24" width="512" height="512"><path d="m12,0C5.383,0,0,5.383,0,12s5.383,12,12,12,12-5.383,12-12S18.617,0,12,0Zm-.37,16.25h.454c1.209,0,2.236-.592,2.748-1.583l1.777.918c-.85,1.644-2.584,2.665-4.525,2.665h-.454c-2.831,0-5.049-2.196-5.049-5v-2.409c0-2.807,2.265-5.091,5.049-5.091h.454c1.946,0,3.694,1.083,4.562,2.827l-1.791.891c-.527-1.06-1.589-1.718-2.771-1.718h-.454c-1.71,0-3.049,1.357-3.049,3.091v2.409c0,1.682,1.339,3,3.049,3Z"/></svg>
