<?xml version="1.0" encoding="UTF-8"?>
<svg xmlns="http://www.w3.org/2000/svg" id="Layer_1" data-name="Layer 1" viewBox="0 0 24 24">
  <path d="m21,12.089v-6.089l1.539,1.538,1.414-1.414-2.672-2.673c-.706-.702-1.854-.704-2.561,0l-2.672,2.672,1.414,1.414,1.539-1.538v4.273c-1.718-1.24-3.771-2.037-6-2.222V3l1.539,1.538,1.414-1.414L13.28.451c-.705-.702-1.854-.704-2.561,0l-2.672,2.672,1.414,1.414,1.539-1.538v5.051c-2.229.185-4.282.982-6,2.222v-4.273l1.539,1.538,1.414-1.414-2.672-2.673c-.705-.702-1.854-.704-2.561,0L.047,6.124l1.414,1.414,1.539-1.538v6.089c-1.861,2.115-3,4.879-3,7.911,0,1.088.156,2.188.463,3.272l.206.728h22.663l.206-.728c.307-1.084.463-2.185.463-3.272,0-3.032-1.139-5.796-3-7.911Zm-7,7.911c0,1.105-.895,2-2,2s-2-.895-2-2,.895-2,2-2c.164,0,.321.025.474.062l3.795-3.795,1.414,1.414-3.768,3.769c.051.176.086.358.086.55Z"/>
</svg>
