<?xml version="1.0" encoding="UTF-8"?>
<svg xmlns="http://www.w3.org/2000/svg" id="Layer_1" data-name="Layer 1" viewBox="0 0 24 24">
  <path d="m22.535,9.122l-3.126-3.126,4.567-4.567L22.562.014l-4.567,4.567-3.117-3.117c-.944-.944-2.2-1.464-3.536-1.464h-2.343v2h2.343c.802,0,1.556.312,2.122.878l.745.746-7.099,7.108c-2.463,2.463-4.507,5.291-6.074,8.403l-.898,1.785-.083.234c-.173.784.062,1.592.631,2.16.445.445,1.038.687,1.651.687.169,0,.339-.019.508-.056l2.021-.982c3.111-1.567,5.938-3.61,8.403-6.075l7.097-7.107.754.754c.559.559.879,1.332.879,2.121v2.343h2v-2.343c0-1.335-.521-2.591-1.465-3.535Z"/>
</svg>
