<?xml version="1.0" encoding="UTF-8"?>
<svg xmlns="http://www.w3.org/2000/svg" id="Layer_1" data-name="Layer 1" viewBox="0 0 24 24" width="512" height="512"><path d="M5.508,12h12.985l4.113-5.597C20.592,2.6,16.596,0,12,0S3.426,2.587,1.406,6.376l4.102,5.624ZM14.196,6.02c1.494,.299,2.99,1.07,4.447,2.295l-1.287,1.531c-1.196-1.006-2.392-1.633-3.553-1.865l.393-1.961Zm-4.393,0l.393,1.961c-1.161,.232-2.356,.859-3.553,1.865l-1.287-1.531c1.457-1.225,2.953-1.996,4.447-2.295Zm9.196,7.98v5.08c0,.937-.423,1.801-1.16,2.371-1.227,.951-2.749,2.549-5.84,2.549s-4.613-1.598-5.841-2.55c-.736-.569-1.159-1.434-1.159-2.37v-5.08h14Zm4.455-5.375c.332,1.097,.528,2.251,.528,3.457,0,3.038-1.138,5.805-3,7.919V11.874l2.472-3.25ZM3,11.874v8.126C1.138,17.886,0,15.119,0,12.081c0-1.205,.197-2.36,.528-3.457l2.472,3.25Z"/></svg>
