<?xml version="1.0" encoding="UTF-8"?>
<svg xmlns="http://www.w3.org/2000/svg" id="Layer_1" data-name="Layer 1" viewBox="0 0 24 24">
  <path d="m13.802,10.232c.615.76,1.198,1.959,1.198,3.768,0,4.188-2.02,8.275-2.105,8.447l-.895,1.789-.895-1.789c-.086-.172-2.105-4.259-2.105-8.447,0-1.809.583-3.008,1.198-3.768-.432-.449-.698-1.059-.698-1.732v-3.5l1.304,1.304c.355-.194.763-.304,1.196-.304s.841.11,1.196.304l1.304-1.304v3.5c0,.672-.266,1.283-.698,1.732ZM19.581,1.186L18,.057v2.943c0,3.394,0,5.873-1.89,7.111.515.979.89,2.253.89,3.889,0,1.83-.333,3.615-.747,5.128.242.052.491.152.751.3l1.085.618.367-1.194c.164-.533.771-2.038,1.599-2.589.909-.605,1.901.026,1.935.048l1.274.865.271-1.517c.019-.102.445-2.501.465-3.642.062-3.676-1.465-8.721-4.419-10.831Zm-13.581,1.814V.057l-1.581,1.129C1.465,3.296-.063,8.341,0,12.017c.02,1.141.446,3.541.465,3.642l.274,1.478,1.264-.82c.042-.027,1.036-.657,1.942-.053.827.552,1.435,2.056,1.599,2.589l.367,1.195,1.085-.62c.26-.148.509-.248.751-.3-.414-1.513-.747-3.298-.747-5.128,0-1.637.375-2.911.89-3.889-1.89-1.238-1.89-3.717-1.89-7.111Z"/>
</svg>
