<?xml version="1.0" encoding="UTF-8"?>
<svg xmlns="http://www.w3.org/2000/svg" id="Layer_1" data-name="Layer 1" viewBox="0 0 24 24">
  <path d="m7.375,12.062l-2.774-1.713,5.1-3.131,2.782,1.708-5.109,3.136ZM2.526,5.926L-.017,7.497l2.712,1.675,2.558-1.571-2.728-1.675Zm14.128-2.977l-5.042,3.095,2.782,1.708,5.033-3.09-2.774-1.713Zm7.362,4.547l-2.683-1.657-2.564,1.574,2.699,1.657,2.548-1.574Zm-7.158,1.09l-7.579,4.652,2.72,1.68,7.563-4.672-2.705-1.661Zm-9.693-2.158L14.749,1.772,12,.075l-7.569,4.675,2.734,1.679ZM0,9.66v2.35l12,7.412,12-7.412v-2.35l-12,7.412L0,9.66Zm0,4.497v2.35l12,7.412,12-7.412v-2.35l-12,7.412L0,14.156Z"/>
</svg>
