<?xml version="1.0" encoding="UTF-8"?>
<svg xmlns="http://www.w3.org/2000/svg" id="Layer_1" data-name="Layer 1" viewBox="0 0 24 24" width="512" height="512"><path d="M21,0H3C1.35,0,0,1.35,0,3V20H6.92l3.75,3.16c.38,.34,.86,.51,1.34,.51,.47,0,.93-.16,1.29-.48l3.85-3.18h6.85V3c0-1.65-1.35-3-3-3Zm-7,12.38c0-.31-.22-.57-.52-.62l-3.28-.55c-1.27-.21-2.19-1.3-2.19-2.59,0-1.45,1.18-2.62,2.62-2.62h.38v-1h2v1c1.65,0,3,1.35,3,3h-2c0-.55-.45-1-1-1h-2.38c-.34,0-.62,.28-.62,.62,0,.31,.22,.57,.52,.62l3.28,.55c1.27,.21,2.19,1.3,2.19,2.59,0,1.45-1.18,2.62-2.62,2.62h-.38v1h-2v-1c-1.65,0-3-1.35-3-3h2c0,.55,.45,1,1,1h2.38c.34,0,.62-.28,.62-.62Z"/></svg>
