<?xml version="1.0" encoding="UTF-8"?>
<svg xmlns="http://www.w3.org/2000/svg" id="Layer_1" data-name="Layer 1" viewBox="0 0 24 24" width="512" height="512"><path d="M14.849,12.747l-5.448-4.264c-.824-.646-1.977-.646-2.801,0L1.151,12.746c-.731,.573-1.151,1.435-1.151,2.363v8.891H16V15.109c0-.929-.42-1.79-1.151-2.362Zm-4.849,6.253H6v-4h4v4Zm13.988,5h-5.988V15.109c0-1.548-.699-2.983-1.919-3.938l-5.446-4.262c-.344-.27-.722-.471-1.113-.621L11.926,1.214c.025-.052,.526-1.214,2.135-1.214h0c.817,0,1.584,.4,2.051,1.071l5.285,9.929h-2.504l3.673,6h-2.288l3.71,7Z"/></svg>
