<?xml version="1.0" encoding="UTF-8"?>
<svg xmlns="http://www.w3.org/2000/svg" id="Layer_1" data-name="Layer 1" viewBox="0 0 24 24">
  <path d="m24,12c0,6.617-5.383,12-12,12-2.971,0-5.817-1.129-8-3.08v3.08h-2v-5c0-1.103.897-2,2-2h5v2h-4.123c1.867,1.893,4.435,3,7.123,3,5.514,0,10-4.486,10-10h2ZM12,2c2.688,0,5.255,1.107,7.122,3h-4.122v2h5c1.103,0,2-.897,2-2V0h-2v3.08c-2.183-1.951-5.03-3.08-8-3.08C5.383,0,0,5.383,0,12h2C2,6.486,6.486,2,12,2Zm5.698,7.872l-1.416.816c.129.418.218.853.218,1.313s-.089.895-.218,1.313l1.416.816-.998,1.733-1.411-.813c-.605.652-1.393,1.125-2.289,1.33v1.621h-2v-1.621c-.896-.205-1.685-.678-2.289-1.33l-1.411.813-.998-1.733,1.416-.816c-.129-.418-.218-.853-.218-1.313s.089-.895.218-1.313l-1.416-.816.998-1.733,1.411.813c.605-.652,1.393-1.125,2.289-1.33v-1.621h2v1.621c.896.205,1.685.678,2.289,1.33l1.411-.813.998,1.733Zm-4.198,2.128c0-.827-.673-1.5-1.5-1.5s-1.5.673-1.5,1.5.673,1.5,1.5,1.5,1.5-.673,1.5-1.5Z"/>
</svg>
