<?xml version="1.0" encoding="UTF-8"?>
<svg xmlns="http://www.w3.org/2000/svg" id="Layer_1" data-name="Layer 1" viewBox="0 0 24 24">
  <path d="m16,16h4v8h-5v-5h-3.344c-.721,1.636-2.527,3-4.656,3v2H2v-12.531l-.608.572L.022,10.584l2.752-2.588.004.004c.57-.632,1.368-1,2.222-1h3v.5c0,1.378-1.121,2.5-2.5,2.5h-1.5v2h1.5c2.481,0,4.5-2.019,4.5-4.5v-.5h1.732l.653,3.301c-.252.529-.385,1.109-.385,1.699,0,2.206,1.794,4,4,4Zm5.488-14c.317-.591.512-1.268.512-2h-2c0,1.103-.753,2-1.679,2h-1.643c-.926,0-1.679-.897-1.679-2h-2c0,.732.195,1.409.512,2h-2.512c0,1.437,1.012,2.707,2.361,3l1.139,5.69c-.307.352-.5.806-.5,1.31,0,1.105.895,2,2,2h3c1.105,0,2-.895,2-2,0-.504-.193-.959-.5-1.31l1.139-5.69c1.349-.293,2.361-1.563,2.361-3h-2.512Z"/>
</svg>
