<?xml version="1.0" encoding="UTF-8"?>
<svg xmlns="http://www.w3.org/2000/svg" id="Layer_1" data-name="Layer 1" viewBox="0 0 24 24">
  <path d="m14.998,13.023l3.489-.396c.535.824,1.46,1.373,2.513,1.373,1.654,0,3-1.346,3-3s-1.346-3-3-3c-1.54,0-2.798,1.171-2.966,2.666l-3.427.389c-.226-.533-.554-1.009-.94-1.429l2.631-3.718c.227.055.46.092.703.092,1.654,0,3-1.346,3-3s-1.346-3-3-3-3,1.346-3,3c0,.683.238,1.305.624,1.81l-2.575,3.64c-.627-.284-1.317-.45-2.049-.45-.725,0-1.409.162-2.032.441l-2.501-3.742c.334-.484.532-1.068.532-1.7,0-1.654-1.346-3-3-3S0,1.346,0,3s1.346,3,3,3c.294,0,.572-.056.841-.135l2.505,3.747c-.828.893-1.345,2.077-1.345,3.387,0,1.13.391,2.163,1.027,3.001l-1.882,2.228c-.353-.146-.739-.229-1.145-.229-1.654,0-3,1.346-3,3s1.346,3,3,3,3-1.346,3-3c0-.518-.144-.998-.376-1.423l1.906-2.256c.732.42,1.568.679,2.47.679,1.102,0,2.113-.37,2.94-.976l3.27,2.893c-.131.337-.21.7-.21,1.083,0,1.654,1.346,3,3,3s3-1.346,3-3-1.346-3-3-3c-.54,0-1.041.155-1.479.406l-3.239-2.865c.441-.741.711-1.595.715-2.517Z"/>
</svg>
