<?xml version="1.0" encoding="UTF-8"?>
<svg xmlns="http://www.w3.org/2000/svg" id="Layer_1" data-name="Layer 1" viewBox="0 0 24 24">
  <path d="m6.274,11.969l-1.617,7.596c-.585-.208-1.134-.493-1.636-.841l-.964,4.245H0l1.302-5.939c-.819-1.146-1.302-2.548-1.302-4.061v-1h2.389L4.675,1.23l1.603,2.748-1.761,7.99h1.757Zm15.158,1.081c1.273-.972,2.569-2.97,2.569-7.081h-2c0,5.819-2.895,5.996-3,6h-4.724s2.075,4,2.075,4h-2.253l-2.075-4h-3.704l-1.701,7.99c.126.007.254.011.382.011h9.173l1.556,3h2.253l-1.556-3h5.574v-2c0-2.033-1.017-3.833-2.569-4.919Zm-13.112-1.081l1.078-5.062,2.626,5.062h2.253L8.603,1.031l-2.329,10.937h2.046Zm-4.388,11h2.046l.641-3.01c-.684-.037-1.343-.173-1.962-.393l-.725,3.404Z"/>
</svg>
