<?xml version="1.0" encoding="UTF-8"?>
<svg xmlns="http://www.w3.org/2000/svg" id="Layer_1" data-name="Layer 1" viewBox="0 0 24 24">
  <path d="m22.535,22.535h0c.944-.944,1.465-2.199,1.465-3.535s-.521-2.592-1.473-3.543l-3.527-3.45-3.535,3.458c-.944.943-1.465,2.199-1.465,3.535s.521,2.592,1.464,3.535,2.2,1.465,3.536,1.465,2.591-.521,3.535-1.465ZM6,0v10h4V0h-4Zm4,22v-10h-4v10h4ZM16,0h-4v10h4V0Zm3,0h-1v10h4V3c0-1.654-1.346-3-3-3ZM4,12H0v10h4v-10Zm0-2V0h-1C1.346,0,0,1.346,0,3v7h4Zm12.147,2h-4.147v7c0-1.871.729-3.629,2.052-4.95l2.095-2.05Z"/>
</svg>
