<?xml version="1.0" encoding="UTF-8"?>
<svg xmlns="http://www.w3.org/2000/svg" id="Layer_1" data-name="Layer 1" viewBox="0 0 24 24">
  <path d="m19.106,10.96c-.844-.472-1.77-.667-2.682-.648.462-.787.744-1.692.744-2.659,0-2.856-5.168-7.653-5.168-7.653,0,0-5.168,4.797-5.168,7.653,0,.967.282,1.872.744,2.659-.912-.019-1.839.176-2.682.648C2.403,12.354.742,19.209.742,19.209c0,0,6.706,2.172,9.197.778.904-.506,1.599-1.252,2.061-2.112.462.86,1.157,1.607,2.061,2.112,2.491,1.394,9.197-.778,9.197-.778,0,0-1.661-6.855-4.152-8.249Zm-7.106,3.04c-.828,0-1.5-.672-1.5-1.5s.672-1.5,1.5-1.5,1.5.672,1.5,1.5-.672,1.5-1.5,1.5Zm6.87-7.995c1.034.135,1.989.405,2.425.54l.886.274-.207.904c-.103.448-.35,1.417-.757,2.383-.355-.36-.731-.667-1.134-.892-.321-.18-.657-.333-1.005-.461.06-.365.089-.732.089-1.101,0-.532-.115-1.087-.297-1.649ZM2.025,7.724l-.208-.904.886-.274c.436-.135,1.392-.405,2.425-.54-.183.562-.298,1.117-.298,1.649,0,.368.03.736.088,1.101-.347.128-.683.281-1.003.461-.403.225-.78.532-1.135.892-.406-.966-.654-1.936-.757-2.383Zm11.891,14.363c-.497.58-.978,1.048-1.236,1.287l-.68.631-.68-.631c-.259-.24-.741-.709-1.239-1.291.295-.097.579-.207.835-.351.385-.215.748-.465,1.084-.746.337.281.7.531,1.085.746.256.143.537.258.831.354Z"/>
</svg>
