<?xml version="1.0" encoding="UTF-8"?>
<svg xmlns="http://www.w3.org/2000/svg" id="Layer_1" data-name="Layer 1" viewBox="0 0 24 24">
  <path d="m13.153,9.154l1.731,1.731-.634,2.365-2.365.634-1.731-1.731.634-2.365,2.365-.634Zm10.847,6.346v2.531h-2v-2.531c0-.798-.166-1.465-.391-2.004h0c-.364,1.13-.985,2.18-1.866,3.062-1.352,1.353-3.738,2.755-6.294,3.616h0c-.261,1.735-1.537,3.827-4.448,3.827v-2c1.263,0,1.889-.605,2.199-1.229h0c-.796.153-1.585.238-2.34.238-1.117,0-2.161-.186-3.053-.614h0c-1.652.989-3.805,1.604-3.805,1.604,0,0,.615-2.152,1.604-3.805h0c-.717-1.496-.755-3.421-.376-5.394h0c-.624.31-1.228.935-1.228,2.199H0c0-2.911,2.092-4.187,3.827-4.448h0c.861-2.557,2.263-4.942,3.616-6.294.881-.882,1.932-1.503,3.062-1.866h0c-.539-.225-1.207-.391-2.004-.391h-2.531V0h2.531c2.638,0,4.291,1.338,4.961,2.017,1.58.086,3.167.613,4.561,1.573-.1-.811.161-1.657.783-2.279,1.073-1.073,3.616-1.877,4.689-.805,1.073,1.073.268,3.616-.805,4.689-.622.622-1.469.883-2.279.783.96,1.394,1.487,2.981,1.573,4.561.68.669,2.017,2.323,2.017,4.961Zm-4.002-4.5c0-.667-.104-1.342-.311-2h-3.86l-.827-.827v-3.859c-.658-.207-1.333-.311-2-.312v3.123l-3.124.837-1.617-1.617c-.394.493-.776,1.068-1.132,1.696l1.624,1.624-.626,2.335h-2.639c-.189.679-.33,1.353-.41,2h4.097l.827.827v4.096c.647-.081,1.321-.221,2-.41v-2.588l2.374-.636,1.584,1.584c.629-.355,1.204-.738,1.696-1.132l-1.578-1.578.848-3.163h3.073Z"/>
</svg>
