<?xml version="1.0" encoding="UTF-8"?>
<svg xmlns="http://www.w3.org/2000/svg" id="Layer_1" data-name="Layer 1" viewBox="0 0 24 24">
  <path d="m16,20.667v3.333h-2v-3.09c.695-.057,1.364-.138,2-.243Zm2-.417v3.75h2v-4.357c-.613.216-1.278.423-2,.607Zm-14-.606v4.356h2v-3.751c-.721-.184-1.387-.39-2-.605Zm5,1.165v3.192h2v-3.027c-.693-.028-1.359-.085-2-.165ZM14.5,2.5c0,1.381,1.119,2.5,2.5,2.5s2.5-1.119,2.5-2.5-1.119-2.5-2.5-2.5-2.5,1.119-2.5,2.5Zm-2.5,2.5c.403,0,.778-.104,1.115-.273-.381-.659-.615-1.412-.615-2.227s.234-1.568.614-2.227c-.337-.169-.711-.273-1.114-.273-1.381,0-2.5,1.119-2.5,2.5s1.119,2.5,2.5,2.5Zm-5,0c.403,0,.778-.104,1.115-.273-.381-.659-.615-1.412-.615-2.227s.234-1.568.614-2.227c-.337-.169-.711-.273-1.114-.273-1.381,0-2.5,1.119-2.5,2.5s1.119,2.5,2.5,2.5Zm17,9h-1.574s-.258.182-.258.182c-.041.028-4.093,2.818-10.168,2.818S1.844,14.209,1.806,14.182l-.259-.182H0v10h2v-7.392c1.815.943,5.357,2.392,10,2.392s8.197-1.459,10-2.403v7.403h2v-10Zm-2-2.123v-2.877c0-1.654-1.346-3-3-3h-4c-1.654,0-3,1.346-3,3v6c5.352,0,8.999-2.442,9.035-2.466l.965-.657Zm-19.028.68s.739.489,2.028,1.029v-4.586c0-1.13.391-2.162,1.026-3h-1.026c-1.654,0-3,1.346-3,3v2.859l.972.698Zm7.028,2.328v-5.885c0-1.13.391-2.162,1.026-3h-1.026c-1.654,0-3,1.346-3,3v5.286c.885.255,1.891.474,3,.599Z"/>
</svg>
