<?xml version="1.0" encoding="UTF-8"?>
<svg xmlns="http://www.w3.org/2000/svg" id="Layer_1" data-name="Layer 1" viewBox="0 0 24 24" width="512" height="512"><path d="M22.351,21.563c.598,.225,1.164,.437,1.649,.437v2c-.848,0-1.646-.299-2.351-.563-.598-.225-1.164-.437-1.649-.437s-1.051,.212-1.649,.437c-.705,.264-1.503,.563-2.351,.563s-1.646-.299-2.351-.563c-.598-.225-1.164-.437-1.649-.437s-1.051,.212-1.649,.437c-.705,.264-1.503,.563-2.351,.563s-1.646-.299-2.351-.563c-.598-.225-1.164-.437-1.649-.437s-1.051,.212-1.649,.437c-.705,.264-1.503,.563-2.351,.563v-2c.485,0,1.051-.212,1.649-.437,.705-.264,1.503-.563,2.351-.563s1.646,.299,2.351,.563c.096,.036,.19,.07,.284,.105l4.043-9.128L.62,8.085l.405-.914C2.323,4.24,4.685,1.991,7.675,.836c2.99-1.154,6.25-1.075,9.182,.223,2.931,1.298,5.181,3.66,6.335,6.65s1.075,6.251-.223,9.182l-.405,.915-10.057-4.455-3.777,8.528c.293-.082,.601-.196,.92-.315,.705-.264,1.503-.563,2.351-.563s1.646,.299,2.351,.563c.598,.225,1.164,.437,1.649,.437s1.051-.212,1.649-.437c.705-.264,1.503-.563,2.351-.563s1.646,.299,2.351,.563Z"/></svg>
