<?xml version="1.0" encoding="UTF-8"?>
<svg xmlns="http://www.w3.org/2000/svg" id="Layer_1" data-name="Layer 1" viewBox="0 0 24 24" width="512" height="512"><path d="M18,11.5c0,.827-.673,1.5-1.5,1.5s-1.5-.673-1.5-1.5,.673-1.5,1.5-1.5,1.5,.673,1.5,1.5Zm-10.5-1.5c-.827,0-1.5,.673-1.5,1.5s.673,1.5,1.5,1.5,1.5-.673,1.5-1.5-.673-1.5-1.5-1.5Zm16.5,2c0,6.617-5.383,12-12,12S0,18.617,0,12,5.383,0,12,0s12,5.383,12,12ZM7.5,15c1.93,0,3.5-1.57,3.5-3.5s-1.57-3.5-3.5-3.5c-.436,0-.849,.09-1.235,.236,.652-.739,1.491-1.339,2.471-1.757l-.783-1.84c-1.674,.713-3.041,1.851-3.953,3.29l1.332,.844c-.805,.642-1.332,1.619-1.332,2.726,0,1.93,1.57,3.5,3.5,3.5Zm7.5,4c0-1.657-1.343-3-3-3s-3,1.343-3,3h6Zm5-7.5c0-1.217-.626-2.288-1.571-2.916l1.18-.78c-.912-1.379-2.251-2.474-3.871-3.164l-.785,1.84c.916,.39,1.707,.944,2.34,1.619-.256-.06-.519-.099-.793-.099-1.93,0-3.5,1.57-3.5,3.5s1.57,3.5,3.5,3.5,3.5-1.57,3.5-3.5Z"/></svg>
