<?xml version="1.0" encoding="UTF-8"?>
<svg xmlns="http://www.w3.org/2000/svg" id="Layer_1" data-name="Layer 1" viewBox="0 0 24 24">
  <path d="m10.595,9.956l.641,3.044h-1.688l.686-3.104c.03-.149.105-.253.176-.296l.017.006c.024.016.121.118.168.349Zm13.405-3.956v15H0V6c0-1.654,1.346-3,3-3h18c1.654,0,3,1.346,3,3Zm-17,2h-3v8h1.6v-3h1.4v-1.6h-1.4v-1.801h1.4v-1.6Zm6.5,7.999l-1.339-6.373c-.135-.668-.523-1.213-1.035-1.459-.232-.112-.476-.168-.718-.168-.282,0-.561.075-.816.225-.471.277-.809.776-.926,1.356l-1.365,6.418h1.584l.309-1.4h2.379l.295,1.4h1.632Zm2.1-7.999h-1.6v8h1.6v-8Zm4.4,6.4h-1.4v-6.4h-1.6v8h3v-1.6Z"/>
</svg>
