<?xml version="1.0" encoding="UTF-8"?>
<svg xmlns="http://www.w3.org/2000/svg" id="Layer_1" data-name="Layer 1" viewBox="0 0 24 24">
  <path d="m17.859,9.779l-5.859,3.348-5.859-3.348,4.859-2.777v-2.925l-1.545,1.545-1.414-1.414,2.659-2.659c.731-.73,1.919-.73,2.65,0l2.66,2.66-1.414,1.414-1.597-1.596v2.976l4.859,2.777Zm-12.859,7.379l-2.631,1.601.516-2.123-1.943-.473L.054,19.817c-.244,1.005.374,2.021,1.378,2.265l3.654.89.473-1.943-2.194-.534,2.526-1.537,5.109,2.919v-7.019l-6-3.428v5.728Zm18.946,2.659l-.889-3.654-1.943.473.516,2.123-2.631-1.601v-5.728l-6,3.428v7.019l5.109-2.919,2.526,1.537-2.194.534.473,1.943,3.654-.89c1.004-.244,1.622-1.26,1.378-2.265Z"/>
</svg>
