<?xml version="1.0" encoding="UTF-8"?>
<svg xmlns="http://www.w3.org/2000/svg" id="Layer_1" data-name="Layer 1" viewBox="0 0 24 24">
  <path d="m21.802,0l2.198,6.5v.5c0,2.206-1.794,4-4,4h-1c-1.193,0-2.267-.525-3-1.357-.733.832-1.807,1.357-3,1.357h-2c-1.2,0-2.266-.542-3-1.382-.734.84-1.8,1.382-3,1.382h-1c-2.206,0-4-1.794-4-4l.024-.717L2.198,0h4.802v5h2V0h6v5h2V0h4.802Zm-6.789,21h-6.023l-.846-1H0v1c0,1.657,1.343,3,3,3h18c1.657,0,3-1.343,3-3v-1h-8.14l-.846,1Zm-5.085-2h4.157l.846-1h7.068v-5.35c-.627.223-1.298.35-2,.35h-1c-1.063,0-2.097-.284-3-.806-.903.522-1.937.806-3,.806h-2c-1.062,0-2.095-.288-3-.818-.905.53-1.938.818-3,.818h-1c-.702,0-1.373-.128-2-.35v5.35h7.082l.846,1Z"/>
</svg>
