<?xml version="1.0" encoding="UTF-8"?>
<svg xmlns="http://www.w3.org/2000/svg" id="Layer_1" data-name="Layer 1" viewBox="0 0 24 24">
  <path d="m18,12c-3.314,0-6,2.686-6,6s2.686,6,6,6,6-2.686,6-6-2.686-6-6-6Zm2.687,6.744l-2.687,2.688v-2.431h-3v-2h3v-2.454l2.687,2.687c.417.417.417,1.093,0,1.51Zm-10.618.256h-1.069v-2h1.069c.087-.699.262-1.369.518-2h-1.587v-2h2.76c1.064-1.327,2.543-2.3,4.24-2.738V3c0-1.654-1.346-3-3-3H3C1.346,0,0,1.346,0,3v21h12.721c-1.429-1.258-2.403-3.014-2.652-5Zm-1.069-14h3v2h-3v-2Zm0,4h3v2h-3v-2Zm-2,10h-3v-2h3v2Zm0-4h-3v-2h3v2Zm0-4h-3v-2h3v2Zm0-4h-3v-2h3v2Z"/>
</svg>
