<?xml version="1.0" encoding="UTF-8"?>
<svg xmlns="http://www.w3.org/2000/svg" id="Layer_1" data-name="Layer 1" viewBox="0 0 24 24" width="512" height="512"><path d="m16.655,13.551l5.604-3.736-1.109-1.664-3.995,2.664-1.816-2.534c-.486-.937-1.295-1.651-2.223-1.992-.683-.31-1.379-.372-2.074-.184-.873.235-1.601.835-2.023,1.701l-2.646,6.35c-.734,1.497-.4,2.787,1.041,3.961l5.047,3.883H4v2h12v-1.801l-4.521-3.478,3.245-7.88,1.932,2.71Zm-3.655-11.083C13,1.087,14.119-.032,15.5-.032s2.5,1.119,2.5,2.5-1.119,2.5-2.5,2.5-2.5-1.119-2.5-2.5Z"/></svg>
