<?xml version="1.0" encoding="UTF-8"?>
<svg xmlns="http://www.w3.org/2000/svg" id="Layer_1" data-name="Layer 1" viewBox="0 0 24 24">
  <path d="m16.463,13.791l1.086,1.086-2.586,2.586-1.086-1.086,2.586-2.586Zm6.808,3.03l-6.221,6.359c-.546.547-1.26.819-1.973.819-.704,0-1.405-.267-1.94-.8L2.452,12.616l.91-7.843,3.714,3.713c-.044.164-.074.334-.074.512,0,1.105.895,2,2,2s2-.895,2-2-.895-2-2-2c-.178,0-.347.031-.511.074l-3.747-3.746,7.67-.876,10.832,10.752c.996.994,1.006,2.617.024,3.619Zm-2.894-1.944l-3.914-3.914-5.414,5.414,3.914,3.914,5.414-5.414ZM4.744,3.326L1.452.035.038,1.449l3.324,3.324,1.382-1.447Z"/>
</svg>
