<?xml version="1.0" encoding="UTF-8"?>
<svg xmlns="http://www.w3.org/2000/svg" id="Layer_1" data-name="Layer 1" viewBox="0 0 24 24">
  <path d="m15.067,19.006l8.837,3.048-.652,1.891-11.251-3.881L.749,23.945l-.652-1.891,8.837-3.048L.097,15.958l.652-1.891,11.251,3.881,11.251-3.881.652,1.891-8.837,3.048ZM5,9c0-2.013,1.167-3.57,2.328-4.768,0,0,.773,2.687,1.48,2.687,2.004,0,1.068-4.466,3.192-6.919,2.211,2.211,7,4.947,7,9,0,3.866-3.134,7-7,7s-7-3.134-7-7Zm5.585,4.414c.781.781,2.048.781,2.829,0s.781-2.048,0-2.829h0l-1.415-1.415-1.415,1.415c-.781.781-.781,2.048,0,2.829Z"/>
</svg>
