<?xml version="1.0" encoding="UTF-8"?>
<svg xmlns="http://www.w3.org/2000/svg" id="Layer_1" data-name="Layer 1" viewBox="0 0 24 24">
  <path d="m9,8v-1.5c0-.828.672-1.5,1.5-1.5h3c.828,0,1.5.672,1.5,1.5v1.5h-6Zm3-4c1.105,0,2-.895,2-2S13.105,0,12,0s-2,.895-2,2,.895,2,2,2Zm12,10v-1.5c0-.828-.672-1.5-1.5-1.5h-3c-.828,0-1.5.672-1.5,1.5v1.5h6Zm-3-4c1.105,0,2-.895,2-2s-.895-2-2-2-2,.895-2,2,.895,2,2,2Zm-15,2v-1.5c0-.828-.672-1.5-1.5-1.5H1.5c-.828,0-1.5.672-1.5,1.5v1.5h6Zm-3-4c1.105,0,2-.895,2-2s-.895-2-2-2-2,.895-2,2,.895,2,2,2Zm21,10c0-1.105-.895-2-2-2h-2.5c-1.105,0-2,.895-2,2v6h6.5v-6Zm-17.5-2v8H0v-8c0-1.105.895-2,2-2h2.5c1.105,0,2,.895,2,2Zm9-4v12h-7v-12c0-1.105.895-2,2-2h3c1.105,0,2,.895,2,2Z"/>
</svg>
