<?xml version="1.0" encoding="UTF-8"?>
<svg xmlns="http://www.w3.org/2000/svg" id="Layer_1" data-name="Layer 1" viewBox="0 0 24 24" width="512" height="512"><path d="M12,0C5.373,0,0,5.373,0,12c0,4.218,2.181,7.921,5.472,10.061-.306-.761-.472-1.6-.472-2.479v-3.58c0-1.654,1.346-3,3-3,.646,0,1.246,.206,1.737,.555l2.226-2.226c.532-.534,1.243-.829,2-.829s1.467,.295,2.001,.831c.206,.205,.375,.438,.507,.688,.111-.013,.224-.02,.338-.02,.756,0,1.467,.295,2.001,.831,.532,.532,.826,1.242,.826,1.998,0,.659-.225,1.284-.637,1.787,.058,.05,.115,.103,.17,.157,.995,.995,1.104,2.541,.261,3.678l-.033-.023c-.349,.439-1.019,1.132-2.297,2.42,4.073-1.919,6.899-6.049,6.899-10.85C24,5.373,18.627,0,12,0Zm-3,10c0-1.054-.679-2-1-2s-1,.946-1,2h-2c0-1.892,1.232-4,3-4s3,2.108,3,4h-2Zm8,0c0-1.054-.679-2-1-2s-1,.946-1,2h-2c0-1.892,1.232-4,3-4s3,2.108,3,4h-2Z"/><path d="M17.824,19.263c-.003,.029-3.426,3.47-3.426,3.47-.845,.845-1.954,1.267-3.064,1.267-1.43,0-2.858-.701-3.722-2.102-.425-.69-.612-1.505-.612-2.316v-3.58c0-.552,.448-1,1-1s1,.448,1,1v1.119l4.377-4.377c.162-.162,.374-.242,.585-.242s.424,.081,.585,.242c.323,.323,.323,.847,0,1.171l-2.961,2.961,1.002,1.002,3.634-3.634c.162-.162,.373-.242,.585-.242s.424,.081,.585,.242c.323,.323,.323,.847,0,1.171l-3.631,3.631,.985,.985,1.84-1.84c.162-.162,.374-.242,.585-.242s.424,.081,.585,.242c.294,.294,.307,.747,.066,1.071Z"/></svg>
