<?xml version="1.0" encoding="UTF-8"?>
<svg xmlns="http://www.w3.org/2000/svg" id="Layer_1" data-name="Layer 1" viewBox="0 0 24 24">
  <path d="m.574,13.871c.533-2.269,1.198-5.09,1.663-7.035-.005-.017-.01-.034,0-.001.008.029.005.019,0,.005.244,2.099,1.513,4.102,3.232,5.161-1.841.012-3.568.707-4.895,1.87ZM7.794,4.283c.858-.535,1.508-1.312,1.879-2.233.679.102,1.313.356,1.862.732-.527,1.319-1.455,2.432-2.683,3.198-1.081.674-2.609,1.02-3.852,1.02-.038,0-.41,0-.69,0,.361,2.264,2.327,3.999,4.69,3.999,1.751,0,3.284-.953,4.108-2.368.049.205.171.72.325,1.368h3.082c-.644-2.726-1.233-5.196-1.313-5.45-.855-2.722-3.348-4.55-6.202-4.55S3.652,1.829,2.798,4.55c-.017.054-.058.211-.117.45h2.088c1.25,0,2.214-.212,3.025-.717Zm15.751,16.513l-3.544-4.246v-2.55h1v-2h-5v2h1v2.55l-3.544,4.245c-.49.587-.594,1.421-.265,2.125.312.666.945,1.08,1.653,1.08h7.311c.708,0,1.342-.414,1.653-1.08.329-.704.226-1.538-.265-2.124Zm-9.544-3.774v-2.806c-.245-.05-.501-.064-.758-.076l-4.333,4.975-4.354-4.955c-2.55.228-4.557,2.346-4.557,4.955v4.885h11.51c-.043-.078-.091-.151-.129-.232-.657-1.405-.444-3.075.541-4.255l2.079-2.49Z"/>
</svg>
