<?xml version="1.0" encoding="UTF-8"?>
<svg xmlns="http://www.w3.org/2000/svg" id="Layer_1" data-name="Layer 1" viewBox="0 0 24 24">
  <path d="m12.6,17.6v1.801h2.4v1.6h-2.4v3h-1.6v-8h4v1.6h-2.4Zm11-1.6h-1.6v8h1.6v-8Zm-3.754,4.538l1.054,3.462h-1.744l-.872-3h-.784v3h-1.6v-8h2.5c1.381,0,2.5,1.119,2.5,2.5,0,.846-.423,1.592-1.067,2.044.024-.014.036-.023.055-.035-.018.012-.018.012-.042.029Zm-.546-2.038c0-.496-.404-.9-.9-.9h-.9v1.8h.9c.496,0,.9-.404.9-.9ZM0,10v14h9v-10h15v-4H0Zm24-2v-3c0-1.654-1.346-3-3-3h-3V0h-2v2h-8V0h-2v2h-3c-1.654,0-3,1.346-3,3v3h24Z"/>
</svg>
