<?xml version="1.0" encoding="UTF-8"?>
<svg xmlns="http://www.w3.org/2000/svg" id="Layer_1" data-name="Layer 1" viewBox="0 0 24 24" width="512" height="512"><path d="M23.96,22.54l-2.79-2.79c.52-.79,.83-1.74,.83-2.75,0-2.76-2.24-5-5-5s-5,2.24-5,5,2.24,5,5,5c1.02,0,1.96-.31,2.75-.83l2.79,2.79,1.41-1.41ZM12.41,5h4.59v5c-1.91,0-3.63,.76-4.89,2h-2.11V7.41l2.41-2.41Zm-.31,17H0V3C0,1.35,1.35,0,3,0H19c1.65,0,3,1.35,3,3V12.11c-.82-.84-1.85-1.47-3-1.81V3h-7.41l-3.59,3.59v7.41h2.68c-.43,.91-.68,1.92-.68,3H5V6.09l3.23-3.09H3V19h7.29c.34,1.15,.97,2.18,1.81,3Z"/></svg>
