<?xml version="1.0" encoding="UTF-8"?>
<svg xmlns="http://www.w3.org/2000/svg" id="Layer_1" data-name="Layer 1" viewBox="0 0 24 24">
  <path d="m19.931,11h-2.931c-1.105,0-2-.895-2-2v-4.406c-1.467-.599-3.145-.785-4.903-.371-3.012.709-5.388,3.199-5.954,6.241-.947,5.093,2.936,9.536,7.857,9.536,4.418,0,8-3.582,8-8,0-.339-.028-.672-.069-1Zm-4.492,4.195l-4.438-2.763v-6.433h2v5.325l3.5,2.175-1.062,1.695ZM24,2v5c0,1.105-.895,2-2,2h-5v-2h3.636c-2.126-3.671-6.318-5.679-10.701-4.791-3.959.802-7.099,4.045-7.784,8.027-1.081,6.289,3.756,11.764,9.848,11.764.388,0,.78-.022,1.167-.067l.23,1.986c-.463.054-.933.081-1.397.081C4.719,24-1.068,17.482.167,9.975.946,5.239,4.598,1.338,9.284.3c5.088-1.127,10.022.999,12.716,5.073v-3.374h2Zm-7.38,18.871l.926,1.773c-.645.337-1.323.615-2.016.828l-.588-1.912c.576-.177,1.141-.408,1.678-.689Zm5.38-8.871h2c0,.728-.066,1.458-.196,2.169l-1.967-.359c.108-.594.163-1.202.163-1.81Zm-2.528,6.646l1.494,1.33c-.483.543-1.019,1.044-1.59,1.489l-1.229-1.578c.476-.37.921-.788,1.324-1.241Zm1.878-3.092l1.869.713c-.257.674-.579,1.333-.957,1.957l-1.711-1.037c.316-.521.585-1.07.799-1.633Z"/>
</svg>
