<?xml version="1.0" encoding="UTF-8"?>
<svg xmlns="http://www.w3.org/2000/svg" id="Layer_1" data-name="Layer 1" viewBox="0 0 24 24">
  <path d="m19.829,7.171c-1.56-1.56-4.098-1.56-5.657,0l-1.414-1.414c2.339-2.34,6.146-2.34,8.485,0l-1.414,1.414Zm4.242-4.242c-1.889-1.889-4.4-2.929-7.071-2.929s-5.182,1.04-7.071,2.929l1.414,1.414c1.511-1.511,3.52-2.343,5.657-2.343s4.146.832,5.657,2.343l1.414-1.414Zm-7.071,7.071l1.414-1.414c-.78-.78-2.048-.78-2.828,0l1.414,1.414Zm3-.171v10.171h-2v4H0V3C0,1.346,1.346,0,3,0h7.362c-.657.438-1.276.944-1.847,1.515l-1.414,1.414,1.071,1.071h-4.172v4h8.171l4,4h1.657l2.171-2.171Zm-14,8.171h-2v2h2v-2Zm0-4h-2v2h2v-2Zm0-4h-2v2h2v-2Zm4,8h-2v2h2v-2Zm0-4h-2v2h2v-2Zm0-4h-2v2h2v-2Zm4,8h-2v2h2v-2Zm0-4h-2v2h2v-2Zm0-4h-2v2h2v-2Z"/>
</svg>
