<?xml version="1.0" encoding="UTF-8"?>
<svg xmlns="http://www.w3.org/2000/svg" id="Layer_1" data-name="Layer 1" viewBox="0 0 24 24">
  <path d="m24,16c0,.802-.405,1.504-1.02,1.921-.321.218-.475.603-.403.986.135.72-.062,1.483-.618,2.042-.454.456-1.048.684-1.642.684-.13,0-.259-.015-.385-.042-.385-.082-.775.074-.998.401-.416.608-1.109,1.008-1.9,1.008s-1.484-.4-1.9-1.008c-.223-.326-.613-.483-.998-.401-.08.017-.16.029-.241.035.459-.729.688-1.586.654-2.456.877-.812,1.386-1.956,1.386-3.17s-.508-2.357-1.386-3.17c.034-.861-.19-1.708-.639-2.432.078.007.155.017.232.032.381.072.764-.082.981-.405.415-.618,1.113-1.025,1.912-1.025s1.497.407,1.912,1.025c.217.323.6.477.981.405.716-.136,1.476.062,2.033.621s.753,1.323.618,2.042c-.072.383.081.768.403.986.615.417,1.02,1.119,1.02,1.921Zm-10.067,0c0-.802-.405-1.504-1.02-1.921-.321-.218-.475-.603-.403-.986.135-.72-.061-1.483-.618-2.042s-1.317-.757-2.033-.621c-.381.072-.764-.082-.981-.405-.415-.618-1.113-1.025-1.912-1.025s-1.497.407-1.912,1.025c-.217.323-.6.477-.981.405-.716-.136-1.476.062-2.033.621s-.753,1.323-.618,2.042c.072.383-.081.768-.403.986-.615.417-1.02,1.119-1.02,1.921s.405,1.504,1.02,1.921c.321.218.475.603.403.986-.135.72.061,1.483.618,2.042.454.456,1.048.684,1.642.684.13,0,.259-.015.385-.042.385-.082.775.074.998.401.416.608,1.109,1.008,1.9,1.008s1.484-.4,1.9-1.008c.223-.326.613-.483.998-.401.126.027.255.042.385.042.594,0,1.188-.228,1.642-.684.556-.559.753-1.323.618-2.042-.072-.383.081-.768.403-.986.615-.417,1.02-1.119,1.02-1.921Zm-3.803-7.608c.65-.018,1.288.104,1.871.357.586-.254,1.225-.377,1.868-.357.809-.881,1.951-1.392,3.164-1.392.669,0,1.317.156,1.899.444-.139-.565-.485-1.047-.953-1.365-.321-.218-.475-.603-.403-.986.135-.72-.062-1.483-.618-2.042s-1.317-.757-2.033-.621c-.381.072-.764-.082-.981-.405-.415-.618-1.113-1.025-1.912-1.025s-1.497.407-1.912,1.025c-.217.323-.6.477-.981.405-.716-.136-1.476.062-2.033.621-.556.559-.753,1.323-.618,2.042.072.383-.081.768-.403.986-.457.31-.799.778-.944,1.328.562-.264,1.183-.407,1.824-.407,1.212,0,2.354.511,3.164,1.392Z"/>
</svg>
