<?xml version="1.0" encoding="UTF-8"?>
<svg xmlns="http://www.w3.org/2000/svg" id="Layer_1" data-name="Layer 1" viewBox="0 0 24 24">
  <path d="m3,22h5v2H3c-1.654,0-3-1.346-3-3v-5h2v5c0,.551.448,1,1,1Zm19-1c0,.551-.448,1-1,1h-5v2h5c1.654,0,3-1.346,3-3v-5h-2v5ZM21,0h-5v2h5c.552,0,1,.449,1,1v5h2V3c0-1.654-1.346-3-3-3ZM2,3c0-.551.448-1,1-1h5V0H3C1.346,0,0,1.346,0,3v5h2V3Zm10,16c-3.866,0-7-3.134-7-7s3.134-7,7-7,7,3.134,7,7-3.134,7-7,7Zm-2.5-7c.828,0,1.5-.672,1.5-1.5s-.672-1.5-1.5-1.5-1.5.672-1.5,1.5.672,1.5,1.5,1.5Zm6.055,2.832l-1.109-1.664c-.013.008-1.28.832-2.445.832-.971,0-2.096-.602-2.447-.833l-1.107,1.666c.18.12,1.803,1.168,3.555,1.168s3.375-1.048,3.555-1.168Zm.445-4.332c0-.828-.672-1.5-1.5-1.5s-1.5.672-1.5,1.5.672,1.5,1.5,1.5,1.5-.672,1.5-1.5Z"/>
</svg>
