<?xml version="1.0" encoding="UTF-8"?>
<svg xmlns="http://www.w3.org/2000/svg" id="Layer_1" data-name="Layer 1" viewBox="0 0 24 24">
  <path d="m8,18.007c-.386,0-.765-.002-1.128-.003l-3.874-.005c-1.653,0-2.998,1.347-2.998,3s1.344,3,2.997,3h5.003v-5.993Z"/>
  <path d="m12.415,10.118c-.924-.465-1.723-.866-2.281-1.211-.024-.015-.055-.032-.08-.047l-4.226,4.226c.3.153.598.302.888.446.31.153.612.304.901.452.384.196.933.467,1.563.777.315.155.693.341,1.1.544l4.151-4.151c-.691-.367-1.375-.713-2.017-1.035Z"/>
  <path d="m4.008,12.078l4.256-4.256c-.943-.54-1.897-1.104-2.232-1.455-.062-.065-.053-.136-.034-.183.016-.04.059-.108.159-.113.692-.032,1.517-.071,1.844-.071h2V0h-2.5C.541,0,0,4.593,0,6c0,2.967,1.861,4.758,4.008,6.078Z"/>
  <path d="m16.075,12.075l.132.132-4.051,4.051c1.362.714,2.601,1.423,2.793,1.743-.222.014-2.487.014-4.949.01v5.988h4.267c6.077,0,6.733-4.195,6.733-5.998,0-2.431-2.308-4.364-4.925-5.926Z"/>
  <path d="m19.5,0h-7.5v6h3.131c.633,1.76,2.409,3,4.369,3h2c1.378,0,2.5-1.121,2.5-2.5v-2c0-2.481-2.019-4.5-4.5-4.5Zm.5,6.5c-.828,0-1.5-.672-1.5-1.5s.672-1.5,1.5-1.5,1.5.672,1.5,1.5-.672,1.5-1.5,1.5Z"/>
</svg>
