<?xml version="1.0" encoding="UTF-8"?>
<svg xmlns="http://www.w3.org/2000/svg" id="Layer_1" data-name="Layer 1" viewBox="0 0 24 24" width="512" height="512"><path d="M21,0H3C1.346,0,0,1.346,0,3V24H24V3c0-1.654-1.346-3-3-3ZM10.295,15.291l-1.414,1.414-3.299-3.299c-.376-.375-.583-.875-.583-1.406s.207-1.031,.583-1.407l3.299-3.298,1.414,1.414-3.299,3.298,3.299,3.283Zm8.123-1.884l-3.299,3.298-1.414-1.414,3.299-3.299-3.299-3.283,1.414-1.414,3.299,3.298c.376,.375,.583,.875,.583,1.406s-.207,1.031-.583,1.407Z"/></svg>
