<?xml version="1.0" encoding="UTF-8"?>
<svg xmlns="http://www.w3.org/2000/svg" id="Layer_1" data-name="Layer 1" viewBox="0 0 24 24" width="512" height="512"><path d="M16.579,11.461c.26,.27,.421,.635,.421,1.039,0,.828-.672,1.5-1.5,1.5s-1.5-.672-1.5-1.5c0-.224,.052-.434,.14-.624-.689,.074-1.397,.124-2.14,.124s-1.451-.05-2.14-.124c.088,.19,.14,.401,.14,.624,0,.828-.672,1.5-1.5,1.5s-1.5-.672-1.5-1.5c0-.403,.161-.768,.42-1.037-1.733-.407-3.248-.997-4.504-1.625-.582,1.269-.916,2.675-.916,4.163,0,5.523,4.477,10,10,10s10-4.477,10-10c0-1.491-.335-2.901-.92-4.172-1.253,.631-2.767,1.224-4.501,1.633Zm-4.579,9.539c-2.778-.003-4.487-2.101-4.999-4,0-.001,2.501,1,5,1s5-1.001,5-1c-.512,1.899-2.222,3.997-5.001,4Z"/><path d="M23.936,5.501l-1.408-1.42c-.02,.019-1.027,.992-2.833,1.964-.372-.926-1.089-2.697-1.417-3.447-.714-1.626-2.108-2.598-3.729-2.598-.893,0-1.855,.397-2.556,1.024-.712-.627-1.69-1.024-2.597-1.024-1.154,0-2.729,.451-3.672,2.599-.329,.752-1.05,2.534-1.421,3.457-1.832-.976-2.859-1.958-2.879-1.978l-.699,.715L.021,5.505c.187,.184,4.653,4.495,11.979,4.495s11.751-4.315,11.936-4.499Z"/></svg>
