<?xml version="1.0" encoding="UTF-8"?>
<svg xmlns="http://www.w3.org/2000/svg" id="Layer_1" data-name="Layer 1" viewBox="0 0 24 24">
  <path d="m2,18h8v2H0v-11c0-1.302.839-2.402,2-2.816v11.816Zm10,2h3v-2h-3v2Zm8.792-4.985l-1.414,1.414,1.571,1.571h-3.948v2h3.948l-1.571,1.571,1.414,1.414,2.659-2.659c.731-.731.731-1.92,0-2.651l-2.659-2.659Zm-6.792-9.015c-.551,0-1,.449-1,1s.449,1,1,1,1-.449,1-1-.449-1-1-1Zm10-3v11H4V3c0-1.654,1.346-3,3-3h14c1.654,0,3,1.346,3,3Zm-15,7.5c0-.828-.672-1.5-1.5-1.5s-1.5.672-1.5,1.5.672,1.5,1.5,1.5,1.5-.672,1.5-1.5Zm0-7c0-.828-.672-1.5-1.5-1.5s-1.5.672-1.5,1.5.672,1.5,1.5,1.5,1.5-.672,1.5-1.5Zm8,3.5c0-1.654-1.346-3-3-3s-3,1.346-3,3,1.346,3,3,3,3-1.346,3-3Zm5,3.5c0-.828-.672-1.5-1.5-1.5s-1.5.672-1.5,1.5.672,1.5,1.5,1.5,1.5-.672,1.5-1.5Zm0-7c0-.828-.672-1.5-1.5-1.5s-1.5.672-1.5,1.5.672,1.5,1.5,1.5,1.5-.672,1.5-1.5Z"/>
</svg>
