<?xml version="1.0" encoding="UTF-8"?>
<svg xmlns="http://www.w3.org/2000/svg" id="Layer_1" data-name="Layer 1" viewBox="0 0 24 24">
  <path d="m.524,5.256c-.31-.273-.524-.753-.524-1.256s.214-.983.588-1.318L3.009.078l1.463,1.363-1.452,1.559h17.964l-1.458-1.562,1.463-1.363,2.487,2.669c.31.272.524.753.524,1.255s-.214.983-.588,1.318l-2.5,2.683-1.462-1.365,1.528-1.636H3.018l1.502,1.606-1.463,1.364L.524,5.256Zm19.476,9.744v3H4v-3c0-1.105-.895-2-2-2H0v9h2v2h2v-2h15.956v2h2v-2h2.044v-9h-2c-1.105,0-2,.895-2,2Zm-2,1v-1c0-1.459.789-2.723,1.956-3.421-.223-2.162-2.087-3.579-3.956-3.579h-8c-2.061,0-3.743,1.573-3.957,3.578,1.167.699,1.957,1.963,1.957,3.422v1h12Z"/>
</svg>
