<?xml version="1.0" encoding="UTF-8"?>
<svg xmlns="http://www.w3.org/2000/svg" id="Layer_1" data-name="Layer 1" viewBox="0 0 24 24" width="512" height="512"><path d="m17.014,16.879c-.239-.647-.647-1.226-1.184-1.669.729-.869,1.169-1.989,1.169-3.209,0-2.757-2.243-5-5-5s-5,2.243-5,5c0,1.224.443,2.347,1.176,3.217-.529.446-.931,1.029-1.165,1.687-1.243-1.264-2.011-2.996-2.011-4.905,0-3.859,3.14-7,7-7s7,3.141,7,7c0,1.895-.758,3.617-1.986,4.879ZM12,0C5.383,0,0,5.383,0,12c0,5.133,3.24,9.522,7.781,11.234l-.542-2.442c-3.118-1.695-5.239-5.001-5.239-8.792C2,6.486,6.486,2,12,2s10,4.486,10,10c0,3.777-2.105,7.071-5.203,8.772l-.515,2.438c4.508-1.728,7.717-6.1,7.717-11.209C24,5.383,18.617,0,12,0Zm3.227,18.535l-1.155,5.465h-4.072l-1.197-5.389c-.184-.975.365-1.908,1.271-2.203.832-.271,1.48-.408,1.927-.408.451,0,1.104.139,1.94.413.895.291,1.449,1.204,1.286,2.122Zm-3.227-4.535c1.105,0,2-.895,2-2s-.895-2-2-2-2,.895-2,2,.895,2,2,2Z"/></svg>
