<?xml version="1.0" encoding="UTF-8"?>
<svg xmlns="http://www.w3.org/2000/svg" id="Layer_1" data-name="Layer 1" viewBox="0 0 24 24" width="512" height="512"><path d="m23,9h1v-2h-1c-2.098,0-3.898,1.299-4.639,3.135-.793-.565-1.765-1.123-2.897-1.528l1.071-1.607c1.913-.019,3.465-1.582,3.465-3.5,0-1.93-1.57-3.5-3.5-3.5s-3.5,1.57-3.5,3.5c0,1.202.609,2.264,1.535,2.895l-1.135,1.703c-.449-.063-.916-.098-1.4-.098s-.948.035-1.396.097l-1.122-1.714c.916-.632,1.518-1.688,1.518-2.883,0-1.93-1.57-3.5-3.5-3.5s-3.5,1.57-3.5,3.5,1.568,3.498,3.496,3.5l1.049,1.603c-1.136.405-2.112.965-2.907,1.531-.741-1.836-2.541-3.135-4.639-3.135H0v2h1c1.501,0,2.748,1.108,2.966,2.548-.462.462-.722.794-.759.842l-.469.61.469.61c.059.076.685.875,1.793,1.771v2.12c0,.827-.673,1.5-1.5,1.5s-1.5-.673-1.5-1.5v-.5H0v.5c0,1.93,1.57,3.5,3.5,3.5s3.5-1.57,3.5-3.5v-.789c.603.322,1.271.613,2,.837v1.453c0,1.654-1.346,3-3,3v2c2.757,0,5-2.243,5-5v-1.05c.325.032.658.05,1,.05s.675-.017,1-.05v1.05c0,2.757,2.243,5,5,5v-2c-1.654,0-3-1.346-3-3v-1.453c.729-.223,1.397-.514,2-.837v.789c0,1.93,1.57,3.5,3.5,3.5s3.5-1.57,3.5-3.5v-.5h-2v.5c0,.827-.673,1.5-1.5,1.5s-1.5-.673-1.5-1.5v-2.12c1.108-.896,1.734-1.695,1.793-1.771l.469-.61-.469-.61c-.037-.048-.297-.38-.759-.842.218-1.441,1.465-2.548,2.966-2.548Zm-6.5-7c.827,0,1.5.673,1.5,1.5s-.673,1.5-1.5,1.5-1.5-.673-1.5-1.5.673-1.5,1.5-1.5Zm-10.5,1.5c0-.827.673-1.5,1.5-1.5s1.5.673,1.5,1.5-.673,1.5-1.5,1.5-1.5-.673-1.5-1.5Z"/></svg>
