<?xml version="1.0" encoding="UTF-8"?>
<svg xmlns="http://www.w3.org/2000/svg" id="Layer_1" data-name="Layer 1" viewBox="0 0 24 24" width="512" height="512"><path d="m23.014,13.954c0-1.654-1.346-3-3-3h-1v-3H1.014l-.004,13.047c0,1.654,1.346,3,3,3h12c1.654,0,3-1.346,3-3l.004-1.046h4v-6.001Zm-2,4.001h-2v-5.001h1c.551,0,1,.449,1,1v4.001ZM8.76,3.417l2.829-2.829c.779-.779,2.048-.78,2.828,0l2.829,2.83c.378.377.586.879.586,1.414,0,.428-.139.832-.387,1.172h-8.883c-.568-.782-.506-1.882.198-2.586Zm-5.757,2.586s0,0,0,0V2.002C3.002.899,3.899.002,5.002.002h4c.107,0,.209.015.312.031l-1.969,1.969c-1.082,1.082-1.395,2.63-.976,4h-3.367Z"/></svg>
