<?xml version="1.0" encoding="UTF-8"?>
<svg xmlns="http://www.w3.org/2000/svg" id="Layer_1" data-name="Layer 1" viewBox="0 0 24 24" width="512" height="512"><path d="m24,12c0,6.617-5.383,12-12,12S0,18.617,0,12,5.383,0,12,0c1.681,0,3.281.35,4.734.977-.555.437-1.007.993-1.308,1.64-1.071-.392-2.221-.618-3.426-.618C6.486,2,2,6.486,2,12s4.486,10,10,10,10-4.486,10-10c0-1.205-.225-2.356-.618-3.426.648-.301,1.203-.753,1.64-1.308.627,1.454.977,3.053.977,4.734Zm-14-4c0-1.105-.895-2-2-2s-2,.895-2,2,.895,2,2,2,2-.895,2-2Zm9.5-1c1.381,0,2.5-1.119,2.5-2.5s-1.119-2.5-2.5-2.5-2.5,1.119-2.5,2.5,1.119,2.5,2.5,2.5Zm-6,5c0-.828-.672-1.5-1.5-1.5s-1.5.672-1.5,1.5.672,1.5,1.5,1.5,1.5-.672,1.5-1.5Zm-2.741-6.883c.532.509.915,1.163,1.103,1.897.047-.001.091-.014.138-.014,2.757,0,5,2.243,5,5s-2.243,5-5,5-5-2.243-5-5c0-.047.013-.091.014-.138-.735-.188-1.388-.571-1.897-1.103-.073.403-.117.817-.117,1.241,0,3.859,3.141,7,7,7s7-3.141,7-7-3.141-7-7-7c-.424,0-.837.044-1.241.117Z"/></svg>
