<?xml version="1.0" encoding="UTF-8"?>
<svg xmlns="http://www.w3.org/2000/svg" id="Layer_1" data-name="Layer 1" viewBox="0 0 24 24">
  <path d="m12,2.5c0-1.381,1.119-2.5,2.5-2.5s2.5,1.119,2.5,2.5-1.119,2.5-2.5,2.5-2.5-1.119-2.5-2.5ZM3.5,10c1.381,0,2.5-1.119,2.5-2.5s-1.119-2.5-2.5-2.5-2.5,1.119-2.5,2.5,1.119,2.5,2.5,2.5Zm20.533,2.141v2.267l-13.825,9.593h-3.267l.058-.04v-3.96H2.987l-.033,2.531-.463,1.469H.393l.607-1.924v-8.076c0-1.24.745-2.336,1.898-2.791l.175-.052,4.96-1.007,3.467-3.188.004.004c.548-.591,1.325-.967,2.192-.967h5.304V0h1l4,2.5-3,1.875v3.625h-5v5h3v2.633l5.033-3.492Zm-11.033,7.656l4.03-2.796h-.03v-2h-4v4.796Zm-2,1.388v-10.953l-2,1.769-3,.622v5.378h3v4.572l2-1.388Z"/>
</svg>
