<?xml version="1.0" encoding="UTF-8"?>
<svg xmlns="http://www.w3.org/2000/svg" id="Layer_1" data-name="Layer 1" viewBox="0 0 24 24">
  <path d="m12,13c0,1.657-2.686,3-6,3S0,14.657,0,13s2.686-3,6-3,6,1.343,6,3Zm0,5.5v2c0,1.995-2.579,3.5-6,3.5s-6-1.505-6-3.5v-2c0,1.971,2.5,3.5,6,3.5s6-1.529,6-3.5Zm0-4v2c0,1.995-2.579,3.5-6,3.5s-6-1.505-6-3.5v-2c0,1.971,2.5,3.5,6,3.5s6-1.529,6-3.5Zm-1-8.5c-1.509,0-2.825.84-3.506,2.076,3.676.383,6.267,2.179,6.49,4.585.632-.708,1.016-1.64,1.016-2.661,0-2.206-1.794-4-4-4Zm13-1v-2c0-1.654-1.346-3-3-3H3C1.363,0,.029,1.318.001,2.948c0,.017-.001.034-.001.052v6.586c1.301-.902,3.159-1.474,5.338-1.571.821-2.336,3.049-4.015,5.662-4.015,3.309,0,6,2.691,6,6,0,2.216-1.208,4.156-3,5.195v4.805h6v2h2v-2h2v-5h-3v-2h3v-6h-3v-2h3Z"/>
</svg>
