<?xml version="1.0" encoding="UTF-8"?>
<svg xmlns="http://www.w3.org/2000/svg" id="Layer_1" data-name="Layer 1" viewBox="0 0 24 24">
  <path d="m15.782,23.398c-.75.781-1.992.805-2.773.055-.041-.04-1.042-1.412-1.22-1.664l-1.327,1.307c-.579.58-1.356.901-2.183.901s-1.604-.322-2.188-.907l-1.448-1.448c.938-.661,1.77-1.249,1.788-1.267.751-.781.827-1.905-.184-2.896.045.039-.041-.043,0,0-.818-.709-2.057-.621-2.766.197-.107.127-.6.837-1.156,1.647l-1.417-1.417c-1.207-1.207-1.207-3.17,0-4.376l1.099-1.082c-.463-.335-1.426-1.039-1.459-1.073-.75-.781-.726-2.022.055-2.773.906-.906,2.186-.744,2.896.074.209.247.707.972.967,1.352l2.089-2.057,3.527,3.527c-.424.305-1.499,1.09-1.534,1.127-.75.781-.662,2.087.119,2.837.818.709,2.122.68,2.831-.139.219-.26.757-1.045,1.004-1.405l3.613,3.613-1.922,1.892c.274.188,1.224.834,1.515,1.079.818.709.97,2.034.074,2.896Zm7.541-10.896c-.229-.193-.868-.635-1.262-.906l1.199-1.199c1.17-1.169,1.17-3.073,0-4.243l-1.527-1.528c.495-.339,1.357-.932,1.59-1.129.818-.709.907-1.948.197-2.766-.805-.941-2.115-.935-2.896-.184-.034.033-.863,1.177-1.252,1.719l-1.43-1.43c-1.171-1.169-3.074-1.168-4.243,0l-.799.799c.919.629,1.782,1.226,1.923,1.345.818.709.907,1.948.197,2.766.043-.041-.039.045,0,0-.991,1.011-2.115.935-2.896.184-.021-.02-.724-1.017-1.459-2.06l-2.692,2.692,9.566,9.566h0s-.006-.006-.006-.006l2.065-2.064c.349.482.993,1.363,1.026,1.394.781.75,1.888.763,2.896-.184.709-.818.621-2.057-.197-2.766Z"/>
</svg>
