<?xml version="1.0" encoding="UTF-8"?>
<svg xmlns="http://www.w3.org/2000/svg" id="Layer_1" data-name="Layer 1" viewBox="0 0 24 24">
  <path d="m20.67,5.887c.301-.765.414-1.608.265-2.459-.295-1.684-1.674-3.067-3.354-3.362-1.239-.217-2.495.119-3.442.925-1.171.997-3.054,2.185-5.368,2.185h-.107C4.125,3.176.329,6.604.021,10.98c-.172,2.447.719,4.84,2.445,6.566.85.85,1.865,1.488,2.965,1.904l.569,4.551h2.191l-.499-4.035c.235.02.47.035.707.035.198,0,.397-.007.597-.021.487-.035.961-.116,1.422-.227l.531,4.249h2.168l-.707-5c2.733-1.436,4.59-4.268,4.59-7.482v-2.887c.005-.036.046-.098.083-.132.495-.01.964-.127,1.404-.312,4.075,3.201,4.513,8.813,4.513,8.813h1c0-5.556-2.192-9.459-3.33-11.113Zm-3.17.113c-.828,0-1.5-.672-1.5-1.5s.672-1.5,1.5-1.5,1.5.672,1.5,1.5-.672,1.5-1.5,1.5Z"/>
</svg>
