<?xml version="1.0" encoding="UTF-8"?>
<svg xmlns="http://www.w3.org/2000/svg" id="Layer_1" data-name="Layer 1" viewBox="0 0 24 24">
  <path d="m20.359,11.48l-3.573,3.548-.879-.879,6.573-6.548c.586-.585.586-1.536,0-2.121-.586-.586-1.535-.586-2.121,0l-6.573,6.548-.879-.879,7.573-7.548c.586-.585.586-1.536,0-2.121-.586-.586-1.535-.586-2.121,0l-7.573,7.548-.879-.879,5.573-5.548c.586-.585.586-1.536,0-2.121-.586-.586-1.535-.586-2.121,0L4,9.813v-2.853c0-1.105-.895-2-2-2S0,5.855,0,6.959v8.746c0,2.16.841,4.191,2.369,5.719,1.69,1.69,3.911,2.535,6.131,2.535s4.44-.845,6.131-2.535l7.848-7.823c.586-.586.586-1.535,0-2.121s-1.536-.586-2.121,0Zm-12.109,8.32s-3.5-2.431-3.5-4.41c0-1.044.784-1.89,1.75-1.89s1.75.674,1.75,1.718c0-1.044.784-1.718,1.75-1.718s1.75.846,1.75,1.89c0,1.979-3.5,4.41-3.5,4.41Z"/>
</svg>
