<?xml version="1.0" encoding="UTF-8"?>
<svg xmlns="http://www.w3.org/2000/svg" id="Layer_1" data-name="Layer 1" viewBox="0 0 24 24">
  <path d="m7,19h14v1.5c0,1.93-1.57,3.5-3.5,3.5H6.24c.48-.716.76-1.576.76-2.5v-2.5Zm11.015-9.143l3.261,2.521.75-.523-1.326-4.029,3.3-1.909v-.917h-4.326l-1.176-4.5h-.97l-1.177,4.5h-4.35v.923l3.322,1.848-1.303,4.076.722.543,3.275-2.532Zm-7.433.143h-6.582v-2h6.062c-.041-.328-.062-.661-.062-1s.021-.672.062-1h-6.062v-2h6.582C11.271,2.298,12.529.887,14.12.003c-.04-.002-.08-.003-.12-.003H3C1.343,0,0,1.343,0,3v18.357c0,1.308.941,2.5,2.242,2.63,1.496.15,2.758-1.021,2.758-2.487v-4.5h12v-2.062c-2.92-.364-5.351-2.302-6.418-4.938Zm-1.582,4h-5v-2h5v2Z"/>
</svg>
