<?xml version="1.0" encoding="UTF-8"?>
<svg xmlns="http://www.w3.org/2000/svg" id="Layer_1" data-name="Layer 1" viewBox="0 0 24 24" width="512" height="512"><path d="M22,14v-1c0-2.21-1.79-4-4-4s-4,1.79-4,4v1h-2v7c0,1.65,1.35,3,3,3h6c1.65,0,3-1.35,3-3v-7h-2Zm-3,6h-2v-2h2v2Zm1-6h-4v-1c0-1.1,.9-2,2-2s2,.9,2,2v1ZM.07,13v2c1.6,0,2.99-.68,4.15-1.76,1.14,1.07,2.44,1.76,3.78,1.76,4.14,0,6-3.51,6-6,0-1.65-1.35-3-3-3s-3,1.35-3,3c0,1.16,.61,2.56,1.58,3.71-.45,.18-.97,.29-1.58,.29-.81,0-1.67-.49-2.47-1.27,1.58-2.24,2.47-5.25,2.47-7.73C8,1.79,6.21,0,4,0S0,1.79,0,4s1.15,5.41,2.89,7.75c-.82,.77-1.77,1.25-2.83,1.25Zm10.93-5c.55,0,1,.45,1,1,0,.65-.24,1.64-.85,2.47-.75-.87-1.15-1.86-1.15-2.47,0-.55,.45-1,1-1ZM4,2c1.1,0,2,.9,2,2,0,1.89-.66,4.28-1.8,6.12-1.27-1.87-2.2-4.28-2.2-6.12,0-1.1,.9-2,2-2Zm12.49,5.2c-.31-.8-.72-1.53-1.25-2.15l1.51-1.31c.81,.94,1.41,2.04,1.8,3.28-.19-.02-.37-.03-.56-.03-.52,0-1.02,.07-1.51,.2ZM0,17H10v2H0v-2Z"/></svg>
