<?xml version="1.0" encoding="UTF-8"?>
<svg xmlns="http://www.w3.org/2000/svg" id="Layer_1" data-name="Layer 1" viewBox="0 0 24 24">
  <path d="m9.5,2.5c0-1.381,1.119-2.5,2.5-2.5s2.5,1.119,2.5,2.5-1.119,2.5-2.5,2.5-2.5-1.119-2.5-2.5Zm-.8,9.067c-1.017-.923-2.668-.721-3.407.533-.48.815-.331,1.858.272,2.586l3.243,3.275-1.404,1.404-3.437-3.472c-1.329-1.604-1.275-3.977.125-5.519.147-.162.907-.778.907-.778v-3.954c0-1.308-.941-2.499-2.242-2.63-1.496-.15-2.758,1.021-2.758,2.487v12.39c0,.998.373,1.961,1.047,2.698l3.117,3.412h9.836v-6.292c0-.846-.357-1.652-.983-2.221l-4.317-3.92Zm9.735,3.12l-2.487,2.532c-.122-1.225-.669-2.378-1.587-3.212l-.874-.794,1.813-1.646c1.017-.923,2.668-.721,3.407.533.48.815.331,1.858-.272,2.586Zm5.565-9.187v12.39c0,.998-.373,1.961-1.047,2.698l-3.117,3.412h-3.836v-4.019l4.033-4.088c1.329-1.604,1.275-3.977-.125-5.519-.147-.162-.907-.778-.907-.778v-4.096c0-1.381,1.119-2.5,2.5-2.5s2.5,1.119,2.5,2.5Zm-13.956,4.587l1.956,1.775,1.957-1.776c.583-.53,1.29-.879,2.043-1.021v-.565c0-1.378-1.121-2.5-2.5-2.5h-3c-1.379,0-2.5,1.122-2.5,2.5v.566c.753.143,1.461.492,2.044,1.022Z"/>
</svg>
