<?xml version="1.0" encoding="UTF-8"?>
<svg xmlns="http://www.w3.org/2000/svg" id="Layer_1" data-name="Layer 1" viewBox="0 0 24 24">
  <path d="m13.5,17c0,.828-.672,1.5-1.5,1.5s-1.5-.672-1.5-1.5.672-1.5,1.5-1.5,1.5.672,1.5,1.5Zm10.5-3.763v1.473h-1c-2.823,0-2.994,2.288-3,2.79,0,4.442-1.869,6.5-6,6.5h-4c-4.131,0-6-2.052-6-6.5-.006-.496-.177-2.79-3-2.79H0v-1.473c.602-1.205,2.103-2.684,4-3.237v-6c0-1.105.895-2,2-2s2,.895,2,2v6h2V2c0-1.105.895-2,2-2s2,.895,2,2v8h2v-6c0-1.105.895-2,2-2s2,.895,2,2v6c1.897.553,3.398,2.033,4,3.237Zm-7.666,3.763c-.371-.777-1.664-3-4.334-3s-3.963,2.224-4.334,3c.369.775,1.662,3,4.334,3s3.963-2.223,4.334-3Z"/>
</svg>
