<?xml version="1.0" encoding="UTF-8"?>
<svg xmlns="http://www.w3.org/2000/svg" id="Layer_1" data-name="Layer 1" viewBox="0 0 24 24">
  <path d="m6.451,7.814c-.266-.18-.451-.469-.451-.814,0-.552.448-1,1-1h1c.552,0,1,.448,1,1,0,.345-.186.634-.451.814.235,1.563,1.574,2.77,3.201,2.77,1.545,0,2.836-1.086,3.164-2.533.008-.043.019-.085.026-.128.025-.138.035-.28.043-.424.005-.083.017-.164.017-.249v-.833c0-1.289-.386-2.488-1.043-3.495.603-.194,1.043-.754,1.043-1.421,0-.828-.672-1.5-1.5-1.5-.668,0-1.227.439-1.421,1.043-1.007-.657-2.206-1.043-3.496-1.043h-2.166c-1.289,0-2.489.386-3.496,1.043-.194-.603-.754-1.043-1.421-1.043C.672,0,0,.672,0,1.5c0,.668.44,1.227,1.043,1.421-.657,1.007-1.043,2.206-1.043,3.495v.833c0,.256.024.505.069.747.307,1.475,1.616,2.587,3.181,2.587,1.628,0,2.967-1.206,3.201-2.77Zm5.049-3.814c.828,0,1.5.672,1.5,1.5s-.672,1.5-1.5,1.5-1.5-.672-1.5-1.5.672-1.5,1.5-1.5Zm-9.5,1.5c0-.828.672-1.5,1.5-1.5s1.5.672,1.5,1.5-.672,1.5-1.5,1.5-1.5-.672-1.5-1.5Zm22,8v1c0,4.101-2.604,7.585-6.245,8.915.147-.391.249-.804.264-1.245.041-1.178.171-2.653.812-3.616l-1.664-1.109c-.916,1.374-1.094,3.125-1.146,4.656-.036,1.047-.948,1.898-2.033,1.898h-3.988c-4.716,0-8.579-3.63-8.962-8.247,1.442,1.393,3.541,2.247,5.962,2.247v-2c-3.013,0-5.306-1.581-5.866-3.887.65.291,1.359.47,2.116.47,1.752,0,3.296-.87,4.25-2.193.904,1.253,2.34,2.09,3.977,2.176.3.656.523,1.71.523,3.433v1h2v-1c0-1.158-.105-2.15-.298-3h4.298c1.686,0,3.5-1,3.632-3.756-.525-2.831-1.428-4.138-1.44-4.156l1.612-1.183c.066.089,2.196,3.095,2.196,9.595Z"/>
</svg>
