<?xml version="1.0" encoding="UTF-8"?>
<svg xmlns="http://www.w3.org/2000/svg" id="Layer_1" data-name="Layer 1" viewBox="0 0 24 24">
  <path d="m0,16.592V.073s1.387.582,1.387.582c.056.023,5.645,2.345,10.613,2.345S22.557.679,22.613.655l1.387-.582v22.804s-12.954-12.954-12.954-12.954c-1.206-1.206-3.169-1.206-4.377,0L0,16.592Zm16-8.592c0,1.103.897,2,2,2s2-.897,2-2-.897-2-2-2-2,.897-2,2Zm-6.368,3.338c-.427-.427-1.122-.429-1.549,0L0,19.42v4.605s1.354-.512,1.354-.512c.056-.021,5.659-2.117,10.646-2.117,3.558,0,7.428,1.066,9.375,1.685l-11.743-11.743Z"/>
</svg>
