<?xml version="1.0" encoding="UTF-8"?>
<svg xmlns="http://www.w3.org/2000/svg" id="Layer_1" data-name="Layer 1" viewBox="0 0 24 24">
  <path d="m9,4c0-2.209,3.358-4,7.5-4s7.5,1.791,7.5,4-3.358,4-7.5,4-7.5-1.791-7.5-4Zm7.5,8c4.142,0,7.5-1.791,7.5-4v-2c0,2.209-3.358,4-7.5,4s-7.5-1.791-7.5-4v2c0,2.209,3.358,4,7.5,4Zm-10.5,0c-3.314,0-6,2.686-6,6s2.686,6,6,6,6-2.686,6-6-2.686-6-6-6Zm1,6v3h-2v-3h-2.454l2.687-2.687c.417-.417,1.093-.417,1.51,0l2.688,2.687h-2.431Zm9.5,4.051c-1.202,0-2.338-.151-3.345-.419-.298.593-.666,1.145-1.096,1.643,1.243.488,2.779.777,4.441.777,4.142,0,7.5-1.791,7.5-4v-2c0,2.209-3.358,4-7.5,4Zm0-8c-1.452,0-2.807-.22-3.955-.601.49.695.871,1.471,1.12,2.305.875.191,1.832.296,2.835.296,4.142,0,7.5-1.791,7.5-4v-2c0,2.209-3.358,4-7.5,4Zm0,4c-.878,0-1.72-.081-2.503-.229.002.076.003.152.003.229,0,.596-.066,1.176-.189,1.735.835.171,1.741.265,2.689.265,4.142,0,7.5-1.791,7.5-4v-2c0,2.209-3.358,4-7.5,4Z"/>
</svg>
