<?xml version="1.0" encoding="UTF-8"?>
<svg xmlns="http://www.w3.org/2000/svg" id="Layer_1" data-name="Layer 1" viewBox="0 0 24 24">
  <path d="m3,22h4v2H3c-1.654,0-3-1.346-3-3v-4h2v4c0,.552.449,1,1,1Zm19-1c0,.552-.449,1-1,1h-4v2h4c1.654,0,3-1.346,3-3v-4h-2v4ZM21,0h-4v2h4c.551,0,1,.449,1,1v4h2V3c0-1.654-1.346-3-3-3ZM2,3c0-.551.449-1,1-1h4V0H3C1.346,0,0,1.346,0,3v4h2V3Zm11.793,5.793l-1.793,1.793-1.793-1.793-1.414,1.414,1.793,1.793-1.793,1.793,1.414,1.414,1.793-1.793,1.793,1.793,1.414-1.414-1.793-1.793,1.793-1.793-1.414-1.414Zm4.414,6.414l1.793-1.793,1.793,1.793,1.414-1.414-1.793-1.793,1.793-1.793-1.414-1.414-1.793,1.793-1.793-1.793-1.414,1.414,1.793,1.793-1.793,1.793,1.414,1.414Zm-12.414-6.414l-1.793,1.793-1.793-1.793-1.414,1.414,1.793,1.793-1.793,1.793,1.414,1.414,1.793-1.793,1.793,1.793,1.414-1.414-1.793-1.793,1.793-1.793-1.414-1.414Z"/>
</svg>
