<?xml version="1.0" encoding="UTF-8"?>
<svg xmlns="http://www.w3.org/2000/svg" id="Layer_1" data-name="Layer 1" viewBox="0 0 24 24" width="512" height="512"><path d="m24,17s-2.879,1.269-7,1.599c.9,1.803,1,3.401,1,3.401,0,0-2.856-.185-5-1.974v-6.026h-2v5.999c-2.142,1.813-5,2.001-5,2.001,0,0,.045-1.674,1-3.528-4.158-.312-7-1.472-7-1.472,0,0,2.223-1.708,5.176-2.372C1.577,11.512,0,7,0,7c0,0,4.381.278,8.768,2.489.85-5.148,3.232-9.489,3.232-9.489,0,0,2.434,4.441,3.257,9.665,4.36-2.286,8.743-2.665,8.743-2.665,0,0-1.658,4.582-5.287,7.746,2.99.659,5.287,2.254,5.287,2.254Zm-13,3v4h2v-4h-2Z"/></svg>
