<?xml version="1.0" encoding="UTF-8"?>
<svg xmlns="http://www.w3.org/2000/svg" id="Layer_1" data-name="Layer 1" viewBox="0 0 24 24" width="512" height="512"><path d="M0,13V7c0-1.654,1.346-3,3-3h6V13h-3.285c.178-.587,.285-1.172,.285-1.5,0-.828-.672-1.5-1.5-1.5s-1.5,.672-1.5,1.5c0,.328,.106,.913,.285,1.5H0Zm16.715,2c.178,.587,.285,1.172,.285,1.5,0,.828-.672,1.5-1.5,1.5s-1.5-.672-1.5-1.5c0-.328,.106-.913,.285-1.5h-3.285v9h9V15h-3.285Zm-7.715,5.715c-.587,.178-1.172,.285-1.5,.285-.828,0-1.5-.672-1.5-1.5s.672-1.5,1.5-1.5c.328,0,.913,.106,1.5,.285v-3.285H0v9H9v-3.285ZM24,3c0-1.657-1.343-3-3-3h-6V3.285c.587-.178,1.172-.285,1.5-.285,.828,0,1.5,.672,1.5,1.5s-.672,1.5-1.5,1.5c-.328,0-.913-.106-1.5-.285v3.285h3.285c-.178,.587-.285,1.172-.285,1.5,0,.828,.672,1.5,1.5,1.5s1.5-.672,1.5-1.5c0-.328-.106-.913-.285-1.5h3.285V3Z"/></svg>
