<?xml version="1.0" encoding="UTF-8"?>
<svg xmlns="http://www.w3.org/2000/svg" id="Layer_1" data-name="Layer 1" viewBox="0 0 24 24">
  <path d="m10.807,7.427l-2.477-2.477,4.455-.495.495-4.455,2.885,2.885,2.885-2.885.495,4.455,4.455.495-2.583,2.583c-.683-.344-1.45-.533-2.25-.533h-6.333c-.714,0-1.401.151-2.026.427Zm13.193,10.573v4h-2v2h-4v-2h-4v2h-4v-2h-2v-4c0-.676.068-1.343.189-2h15.622c.121.657.189,1.324.189,2Zm-10.5.991c0-.823-.667-1.491-1.491-1.491h-.019c-.823,0-1.491.667-1.491,1.491v.019c0,.823.667,1.491,1.491,1.491h.019c.823,0,1.491-.667,1.491-1.491v-.019Zm8,0c0-.823-.667-1.491-1.491-1.491h-.019c-.823,0-1.491.667-1.491,1.491v.019c0,.823.667,1.491,1.491,1.491h.019c.823,0,1.491-.667,1.491-1.491v-.019Zm-8.667-9.991h6.333c1.215,0,2.302.725,2.77,1.847l1.218,2.922c.032.076.053.155.083.231h-14.474c.03-.076.052-.155.083-.231l1.218-2.923c.467-1.122,1.554-1.846,2.769-1.846Zm-7.033,7.128l-2.398.499-.407-1.958-1.958.407-.814-3.916c-.138-.662-.207-1.329-.222-1.997l8.043-1.672,1.116,1.116c-.39.423-.711.918-.941,1.471l-2.418,6.051Zm-1.144-3.337c.806-.168,1.324-.957,1.156-1.763l-.004-.018c-.168-.806-.957-1.323-1.763-1.156l-.018.004c-.806.168-1.324.957-1.156,1.763l.004.018c.168.806.957,1.324,1.763,1.156l.018-.004Zm1.558-9.619l4.759-.529.26-2.337c-.581-.279-1.249-.369-1.91-.232L3.122,1.365c-1.185.247-2.107,1.182-2.335,2.371L.189,6.845l.198.195,5.965-1.24-.784-.784.647-1.844Z"/>
</svg>
