<?xml version="1.0" encoding="UTF-8"?>
<svg xmlns="http://www.w3.org/2000/svg" id="Layer_1" data-name="Layer 1" viewBox="0 0 24 24">
  <path d="m21.997,2.003c-2.829-2.829-7.631-2.629-10.704.442-.949.95-1.663,2.111-2.062,3.36-.528,1.647-1.776,2.896-3.425,3.425-1.248.399-2.41,1.112-3.359,2.062-3.073,3.073-3.271,7.875-.442,10.704,1.338,1.338,3.117,1.998,4.945,1.998,2.039,0,4.139-.821,5.759-2.44.949-.95,1.663-2.111,2.062-3.359h0c.528-1.648,1.776-2.897,3.425-3.426,1.248-.399,2.41-1.112,3.359-2.062,3.073-3.073,3.271-7.875.442-10.704ZM7.5,20c-.828,0-1.5-.672-1.5-1.5s.672-1.5,1.5-1.5,1.5.672,1.5,1.5-.672,1.5-1.5,1.5Zm3-3.5c-.828,0-1.5-.672-1.5-1.5s.672-1.5,1.5-1.5,1.5.672,1.5,1.5-.672,1.5-1.5,1.5Zm6-10.5c-.828,0-1.5-.672-1.5-1.5s.672-1.5,1.5-1.5,1.5.672,1.5,1.5-.672,1.5-1.5,1.5Z"/>
</svg>
