<?xml version="1.0" encoding="UTF-8"?>
<svg xmlns="http://www.w3.org/2000/svg" id="Layer_1" data-name="Layer 1" viewBox="0 0 24 24">
  <path d="m21,21.5v2.5H3v-2.5c0-2.481,2.019-4.5,4.5-4.5h9c2.481,0,4.5,2.019,4.5,4.5ZM6.872,4.027c1.529-1.433,3.531-2.141,5.63-2.011,3.924.254,6.999,3.669,6.999,7.774,0,1.77-1.439,3.209-3.209,3.209h-2.406c-.244-.829-1.002-1.439-1.91-1.439-1.105,0-2,.895-2,2s.895,2,2,2c.538,0,1.025-.215,1.384-.561h2.932c2.872,0,5.209-2.337,5.209-5.209C21.5,4.634,17.604.342,12.63.021c-2.664-.173-5.191.732-7.126,2.548-1.787,1.675-2.861,3.996-2.99,6.432h2.003c.123-1.903.948-3.654,2.355-4.973Zm8.228,6.973h1.368c.501,0,.939-.368.997-.866.068-.587.043-1.202-.091-1.831-.444-2.079-2.131-3.756-4.213-4.184-3.537-.727-6.659,1.97-6.659,5.381,0,1.469.579,2.805,1.52,3.792,0,0,0,0,0,0,.11-2.111,1.841-3.793,3.979-3.793,1.258,0,2.366.592,3.099,1.5Z"/>
</svg>
