<?xml version="1.0" encoding="UTF-8"?>
<svg xmlns="http://www.w3.org/2000/svg" id="Layer_1" data-name="Layer 1" viewBox="0 0 24 24" width="512" height="512"><path d="M12,10.5c-.827,0-1.5-.673-1.5-1.5s.673-1.5,1.5-1.5,1.5,.673,1.5,1.5-.673,1.5-1.5,1.5Zm0,2c-1.103,0-2,.897-2,2s.897,2,2,2,2-.897,2-2-.897-2-2-2ZM24,3V24H0V3C0,1.346,1.346,0,3,0H21c1.654,0,3,1.346,3,3Zm-8,11.5c0-1.246-.585-2.347-1.481-3.081,.604-.629,.981-1.479,.981-2.419,0-1.93-1.57-3.5-3.5-3.5s-3.5,1.57-3.5,3.5c0,.939,.377,1.789,.981,2.419-.896,.734-1.481,1.835-1.481,3.081,0,2.206,1.794,4,4,4s4-1.794,4-4Z"/></svg>
