<?xml version="1.0" encoding="UTF-8"?>
<svg xmlns="http://www.w3.org/2000/svg" id="Layer_1" data-name="Layer 1" viewBox="0 0 24 24">
  <path d="m4.674,16.327c-.724-.724-.864-2.161-.374-3.845.505-1.735,1.62-3.527,3.14-5.045,1.675-1.674,3.707-2.871,5.575-3.283,1.442-.315,2.672-.129,3.32.519.725.725.865,2.162.375,3.846-.504,1.735-1.619,3.527-3.139,5.045-1.676,1.674-3.708,2.871-5.575,3.283-.466.102-.906.152-1.311.152-.865,0-1.567-.229-2.012-.672Zm19.326-4.685c0,3.301-1.285,6.404-3.62,8.738-2.409,2.409-5.574,3.614-8.738,3.614s-6.329-1.204-8.738-3.614l-1.266-1.34C-1.423,15.731-.123,9.486,4.682,4.682,9.501-.137,15.77-1.432,19.073,1.665l1.307,1.239c2.335,2.334,3.62,5.438,3.62,8.738ZM3.2,17.799c2.39,2.388,7.747,1.061,11.704-2.895,3.956-3.957,5.282-9.316,2.896-11.704-.808-.807-1.955-1.19-3.272-1.19-2.579,0-5.812,1.466-8.432,4.085-3.956,3.957-5.282,9.316-2.896,11.704Z"/>
</svg>
