<?xml version="1.0" encoding="UTF-8"?>
<svg xmlns="http://www.w3.org/2000/svg" id="Layer_1" data-name="Layer 1" viewBox="0 0 24 24">
  <path d="m23.637,10.55l-4.252-7.962c-.522-.979-1.536-1.587-2.646-1.587H7.282c-1.107,0-2.12.606-2.644,1.582L.365,10.549c-.488.911-.488,1.999,0,2.911l4.271,7.958c.523.976,1.536,1.582,2.644,1.582h9.457c1.11,0,2.124-.608,2.646-1.587l4.252-7.962c.485-.908.485-1.993,0-2.901Zm-11.728,4.87c-.386.387-.896.58-1.407.58s-1.025-.195-1.416-.585l-2.782-2.696,1.392-1.437,2.793,2.707,5.809-5.701,1.404,1.425-5.793,5.707Z"/>
</svg>
