<?xml version="1.0" encoding="UTF-8"?>
<svg xmlns="http://www.w3.org/2000/svg" id="Layer_1" data-name="Layer 1" viewBox="0 0 24 24" width="512" height="512"><path d="M11,16h2v.6c0,.662-.411,1.4-1,1.4s-1-.738-1-1.4v-.6Zm13-4c0,6.627-5.373,12-12,12S0,18.627,0,12C0,8.914,1.175,6.11,3.088,3.984c-.052,.206-.088,.418-.088,.64,0,1.288,.922,2.377,2.192,2.588l3.287,.548c.302,.05,.521,.309,.521,.616,0,.344-.28,.624-.624,.624h-2.376c-.551,0-1-.449-1-1H3c0,1.654,1.346,3,3,3v1h2v-1h.376c1.447,0,2.624-1.177,2.624-2.624,0-1.288-.922-2.377-2.192-2.588l-3.287-.548c-.302-.05-.521-.309-.521-.616,0-.344,.28-.624,.624-.624h2.376c.551,0,1,.449,1,1h2c0-1.654-1.346-3-3-3V.702c1.253-.445,2.594-.702,4-.702s2.747,.257,4,.702v1.298h-.376c-1.447,0-2.624,1.177-2.624,2.624,0,1.288,.922,2.377,2.192,2.588l3.287,.548c.302,.05,.521,.309,.521,.616,0,.344-.28,.624-.624,.624h-2.376c-.551,0-1-.449-1-1h-2c0,1.654,1.346,3,3,3v1h2v-1h.376c1.447,0,2.624-1.177,2.624-2.624,0-1.288-.922-2.377-2.192-2.588l-3.287-.548c-.302-.05-.521-.309-.521-.616,0-.344,.28-.624,.624-.624h2.376c.551,0,1,.449,1,1h2c0-.426-.092-.829-.252-1.197,2.012,2.146,3.252,5.023,3.252,8.197Zm-7,2H7v2h2v.6c0,1.635,1.147,3.4,3,3.4s3-1.765,3-3.4v-.6h2v-2Z"/></svg>
