<?xml version="1.0" encoding="UTF-8"?>
<svg xmlns="http://www.w3.org/2000/svg" id="Layer_1" data-name="Layer 1" viewBox="0 0 24 24" width="512" height="512"><path d="M16,2.5c0-.828,.672-1.5,1.5-1.5s1.5,.672,1.5,1.5-.672,1.5-1.5,1.5-1.5-.672-1.5-1.5Zm-7.181,1.552c.749,.121,1.428,.434,2.024,.861,.094-.29,.157-.593,.157-.914,0-.101-.02-.196-.03-.294,.302,.183,.652,.294,1.03,.294,1.103,0,2-.897,2-2s-.897-2-2-2c-1.034,0-1.876,.791-1.979,1.797-.534-.49-1.24-.797-2.021-.797-1.654,0-3,1.346-3,3,0,.309,.061,.602,.148,.883,1.063-.739,2.374-1.042,3.671-.83Zm12.621,12.362l-1.763,1.763-.879-.879,4.763-4.763c.586-.585,.586-1.536,0-2.121-.586-.586-1.535-.586-2.121,0l-4.763,4.763-.879-.879,5.763-5.763c.586-.585,.586-1.536,0-2.121-.586-.586-1.535-.586-2.121,0l-5.763,5.763-.879-.879,3.763-3.763c.586-.585,.586-1.536,0-2.121-.586-.586-1.535-.586-2.121,0l-4.439,4.439v-1.853c0-1.105-.895-2-2-2s-2,.895-2,2v7.746c0,2.16,.841,4.191,2.369,5.719,1.69,1.69,3.911,2.535,6.131,2.535s4.44-.845,6.131-2.535l2.929-2.93c.586-.586,.586-1.535,0-2.121s-1.536-.586-2.121,0Zm-16.698,3.135c-.081-.073-.741-1.549-.741-3.549V8c0-1.105-.895-2-2-2S0,6.895,0,8v7.746C0,17.907,.841,19.937,2.369,21.465c1.633,1.634,3.762,2.47,5.907,2.525-.464-.334-.91-.698-1.321-1.11-.968-.968-1.713-2.099-2.214-3.33Z"/></svg>
