<?xml version="1.0" encoding="UTF-8"?>
<svg xmlns="http://www.w3.org/2000/svg" id="Layer_1" data-name="Layer 1" viewBox="0 0 24 24">
  <path d="m12,0C5.373,0,0,3.134,0,7s5.373,7,12,7,12-3.134,12-7S18.627,0,12,0Zm3.822,3.264c.406-.374,1.039-.348,1.413.058.374.406.348,1.039-.058,1.413-.406.374-2.148.62-2.148.62,0,0,.387-1.716.793-2.091Zm-3.822-1.264c.552,0,1,.448,1,1s-1,2-1,2c0,0-1-1.448-1-2s.448-1,1-1ZM4,7c0-.552.448-1,1-1s2,1,2,1c0,0-1.448,1-2,1s-1-.448-1-1Zm4.178,3.735c-.406.374-1.039.348-1.413-.058-.374-.406-.348-1.039.058-1.413.406-.374,2.148-.62,2.148-.62,0,0-.387,1.716-.793,2.091Zm-1.355-6c-.406-.374-.432-1.007-.058-1.413.374-.406,1.007-.432,1.413-.058.406.374.793,2.091.793,2.091,0,0-1.742-.245-2.148-.62Zm5.177,7.265c-.552,0-1-.448-1-1s1-2,1-2c0,0,1,1.448,1,2s-.448,1-1,1Zm0-4c-1.657,0-3-.448-3-1s1.343-1,3-1,3,.448,3,1-1.343,1-3,1Zm5.235,2.677c-.374.406-1.007.432-1.413.058-.406-.374-.793-2.091-.793-2.091,0,0,1.742.245,2.148.62.406.374.432,1.007.058,1.413Zm1.765-2.677c-.552,0-2-1-2-1,0,0,1.448-1,2-1s1,.448,1,1-.448,1-1,1Zm5,3.681v.319c0,6.617-5.383,12-12,12S0,18.617,0,12v-.319c2.427,2.604,6.839,4.319,12,4.319s9.573-1.715,12-4.319Z"/>
</svg>
