<?xml version="1.0" encoding="UTF-8"?>
<svg xmlns="http://www.w3.org/2000/svg" id="Layer_1" data-name="Layer 1" viewBox="0 0 24 24">
  <path d="m5.336,20.087l-3.903,3.903L.019,22.576l3.901-3.901,1.416,1.412ZM22.784,7.084c.784-.783,1.216-1.825,1.216-2.934s-.432-2.151-1.216-2.935c-.783-.784-1.825-1.216-2.935-1.216s-2.15.432-2.929,1.21l-.164.162c-.787-.759-1.792-1.372-3.207-1.372-2.288,0-4.149,1.862-4.149,4.15v.095c-.3-.025-.611-.045-.869-.045-2.396,0-4.349,1.934-4.381,4.322-1.807.448-3.15,2.084-3.15,4.027,0,1.617,1.925,4.661,2.92,6.125l9.88-9.879,1.414,1.414-9.878,9.877c1.469.997,4.501,2.913,6.115,2.913,1.943,0,3.579-1.344,4.027-3.15,2.389-.032,4.322-1.985,4.322-4.381,0-.258-.02-.569-.045-.869h.095c2.288,0,4.15-1.861,4.15-4.149,0-1.415-.613-2.42-1.372-3.207l.156-.159Z"/>
</svg>
