<?xml version="1.0" encoding="UTF-8"?>
<svg xmlns="http://www.w3.org/2000/svg" id="Layer_1" data-name="Layer 1" viewBox="0 0 24 24">
  <path d="m20.992,9l.508,7h-1.604l-.319-4.402-.12.264-1.457,3.204-1.457-3.204-.12-.264-.319,4.402h-1.604l.508-7c.043-.705.472-1,.988-1,.342,0,.66.242.841.64l1.164,2.56,1.164-2.56c.181-.398.499-.64.841-.64.516,0,.945.295.988,1Zm-8.059,3.544c.024-.014.036-.023.055-.035-.018.012-.018.012-.042.029l1.054,3.462h-1.744l-.872-3h-.784v3h-1.6v-8h2.5c1.381,0,2.5,1.119,2.5,2.5,0,.846-.423,1.592-1.067,2.044Zm-.533-2.044c0-.496-.404-.9-.9-.9h-.9v1.8h.9c.496,0,.9-.404.9-.9Zm-6.9-.9c.496,0,.9.404.9.9h1.6c0-1.381-1.119-2.5-2.5-2.5s-2.5,1.119-2.5,2.5v3c0,1.381,1.119,2.5,2.5,2.5s2.5-1.119,2.5-2.5h-1.6c0,.496-.404.9-.9.9s-.9-.404-.9-.9v-3c0-.496.404-.9.9-.9Zm6.501-7.593c2.174,0,4.262.703,5.984,1.993h-2.984v2h4.015c1.095,0,1.985-.891,1.985-1.986V0h-2l.008,2.279C16.975.811,14.538.007,12.001.007,8.082.007,4.403,1.928,2.158,5.146l1.641,1.145c1.871-2.683,4.937-4.284,8.202-4.284Zm8.161,15.717c-1.87,2.682-4.937,4.283-8.202,4.283-2.183,0-4.279-.708-6.004-2.007h3.043v-2h-4.014c-1.095,0-1.986.891-1.986,1.985v4.015h2l-.008-2.238c2.024,1.45,4.446,2.245,6.968,2.245,3.918,0,7.598-1.921,9.842-5.139l-1.641-1.145Z"/>
</svg>
