<?xml version="1.0" encoding="UTF-8"?>
<svg xmlns="http://www.w3.org/2000/svg" id="Layer_1" data-name="Layer 1" viewBox="0 0 24 24" width="512" height="512"><path d="M22.5,3c-.828,0-1.5,.672-1.5,1.5v7.5h-2V2.5c0-.828-.672-1.5-1.5-1.5s-1.5,.672-1.5,1.5V12h-2V1.5c0-.828-.672-1.5-1.5-1.5s-1.5,.672-1.5,1.5V12h-2V3.58c0-.747-.511-1.44-1.248-1.56-.94-.153-1.752,.568-1.752,1.479v12.654l-2.605-2.65c-.088-.088-.24-.201-.441-.333-.843-.47-1.954-.284-2.584,.561-.604,.81-.437,1.965,.276,2.68l7.354,7.588H24V4.5c0-.828-.672-1.5-1.5-1.5ZM11.5,22c-.828,0-1.5-.672-1.5-1.5s.672-1.5,1.5-1.5,1.5,.672,1.5,1.5-.672,1.5-1.5,1.5Zm3-5c-.828,0-1.5-.672-1.5-1.5s.672-1.5,1.5-1.5,1.5,.672,1.5,1.5-.672,1.5-1.5,1.5Zm2,5c-.828,0-1.5-.672-1.5-1.5s.672-1.5,1.5-1.5,1.5,.672,1.5,1.5-.672,1.5-1.5,1.5Zm3-5c-.828,0-1.5-.672-1.5-1.5s.672-1.5,1.5-1.5,1.5,.672,1.5,1.5-.672,1.5-1.5,1.5Z"/></svg>
