<?xml version="1.0" encoding="UTF-8"?>
<svg xmlns="http://www.w3.org/2000/svg" id="Layer_1" data-name="Layer 1" viewBox="0 0 24 24">
  <path d="m23.27,4.875c-1.114-1.002-2.68-1.816-4.395-2.301-.407-1.482-1.766-2.574-3.375-2.574-1.493,0-2.771.94-3.273,2.26C2.514,6.921.229,13.83.034,18.833c-.053,1.354.438,2.641,1.384,3.624.943.98,2.263,1.542,3.622,1.542h9.96v-2h-3v-1.5c0-2.485-2.015-4.5-4.5-4.5h-2.077c.235-.693.532-1.36.89-2h1.448c2.165,0,4.078,1.101,5.209,2.772,0,0,.35-1.766.427-2.284l6.054,9.513h3.549v-2h-2.451l-6.392-10.044c3.059-.227,6.949-1.359,9.275-3.993.798-.903.725-2.288-.163-3.087Zm-7.77.125c-.827,0-1.5-.673-1.5-1.5s.673-1.5,1.5-1.5,1.5.673,1.5,1.5-.673,1.5-1.5,1.5Z"/>
</svg>
