<?xml version="1.0" encoding="UTF-8"?>
<svg xmlns="http://www.w3.org/2000/svg" id="Layer_1" data-name="Layer 1" viewBox="0 0 24 24" width="512" height="512"><path d="m23.573,11.359c-.573-.757-1.265-1.372-2.056-1.829-.994-.575-2.179-.93-3.413-1.039.579-1.167.896-2.44.896-3.671,0-.912-.187-1.818-.555-2.695l-.331-.613h-1.34c.148.473.25.966.25,1.487,0,2.761-2.239,5-5,5s-5-2.239-5-5c0-.522.102-1.015.25-1.487h-1.464l-.257.613c-.368.877-.555,1.783-.555,2.695,0,1.251.324,2.537.917,3.714-1.229.079-2.41.418-3.407.996-.791.456-1.482,1.072-2.056,1.829l-.364.592.713,1.236c.281-.304.589-.587.952-.822,2.322-1.495,5.416-.824,6.911,1.497s.824,5.416-1.497,6.911c-.505.325-1.049.529-1.603.655l.683,1.173.657-.083c.942-.12,1.821-.412,2.611-.869.962-.556,1.816-1.332,2.498-2.254.694.93,1.548,1.706,2.497,2.254.791.457,1.669.749,2.611.869l.694.02.646-1.11c-.554-.126-1.098-.33-1.603-.655-2.322-1.495-2.992-4.589-1.497-6.911s4.589-2.992,6.911-1.497c.364.234.672.518.953.822l.75-1.3-.401-.529Zm-11.573,2.641c-1.105,0-2-.895-2-2s.895-2,2-2,2,.895,2,2-.895,2-2,2Zm-1.784-8.761c-.465-.46-.748-1.165-.748-1.87.804-.236,1.652-.369,2.531-.369s1.727.132,2.531.369c0,.705-.282,1.41-.748,1.87-.571-.151-1.166-.239-1.784-.239s-1.213.088-1.784.239Zm10.266,8.845c.07.041.147.104.223.163-.434,1.68-1.339,3.168-2.569,4.319-.064-.028-.139-.054-.193-.085-.544-.315-.936-.815-1.13-1.41.925-.878,1.607-2.004,1.945-3.271.595-.11,1.2-.019,1.725.285Zm-14.609,4.489c-1.231-1.148-2.137-2.633-2.574-4.31.084-.067.167-.134.245-.179.517-.3,1.111-.393,1.697-.29.34,1.279,1.031,2.414,1.968,3.296-.197.585-.586,1.079-1.127,1.391-.057.033-.138.062-.209.092Z"/></svg>
