<?xml version="1.0" encoding="UTF-8"?>
<svg xmlns="http://www.w3.org/2000/svg" id="Layer_1" data-name="Layer 1" viewBox="0 0 24 24" width="512" height="512"><path d="m24,24H0v-1c0-1.654,1.346-3,3-3h18c1.654,0,3,1.346,3,3v1ZM3.718,5.202L1.4,2.982.018,4.426l2.317,2.22,1.383-1.443Zm3.862-2.493L6.367-.008l-1.826.814,1.213,2.717,1.826-.814Zm16.402,1.717l-1.383-1.443-2.317,2.22,1.383,1.443,2.317-2.22Zm-4.523-3.619L17.633-.008l-1.213,2.717,1.826.814,1.213-2.717Zm1.541,12.193c0-4.963-4.037-9-9-9S3,8.037,3,13v5h18v-5Zm-9-2c-1.103,0-2,.897-2,2h-2c0-2.206,1.794-4,4-4v2Z"/></svg>
