<?xml version="1.0" encoding="UTF-8"?>
<svg xmlns="http://www.w3.org/2000/svg" id="Layer_1" data-name="Layer 1" viewBox="0 0 24 24" width="512" height="512"><path d="m24.004,22.59l-1.413,1.416L.003,1.458,1.416.042l11.584,11.563v-6.105c0-.827.673-1.5,1.5-1.5h1c.827,0,1.5.673,1.5,1.5v10.098l2,1.996V1.5c0-.827.673-1.5,1.5-1.5h1c.827,0,1.5.673,1.5,1.5v20.088l1.004,1.002ZM3.5,17h-1c-.827,0-1.5.673-1.5,1.5v5.5h4v-5.5c0-.827-.673-1.5-1.5-1.5Zm3.5,7h4v-8.739l-4-3.993v12.731Zm6,0h4v-2.749l-4-3.993v6.742Z"/></svg>
