<?xml version="1.0" encoding="UTF-8"?>
<svg xmlns="http://www.w3.org/2000/svg" id="Layer_1" data-name="Layer 1" viewBox="0 0 24 24" width="512" height="512"><path d="M8.899,18.967c.132,.013,.262,.033,.397,.033h9.812c.881,0,1.715-.386,2.286-1.058s.816-1.561,.674-2.438c-.232-1.428-1.55-2.504-3.067-2.504H10.841l-.82-3h8.978v-2H9.475l-1.549-5.668C7.52,.784,6.076-.214,4.564,.008c-.844,.124-1.598,.603-2.067,1.313-.469,.71-.615,1.59-.396,2.421l3.334,12.304c.251,.928,.826,1.699,1.577,2.223l-.695,1.389c-.468,.938-.419,2.028,.132,2.919s1.504,1.423,2.552,1.423h12v-2H9c-.503,0-.762-.332-.851-.474-.088-.144-.269-.523-.044-.974l.793-1.586Z"/></svg>
