<?xml version="1.0" encoding="UTF-8"?>
<svg xmlns="http://www.w3.org/2000/svg" id="Layer_1" data-name="Layer 1" viewBox="0 0 24 24">
  <path d="m17,12c-3.309,0-6-2.691-6-6S13.691,0,17,0s6,2.691,6,6-2.691,6-6,6ZM1.722,7.03c-.02-.065-.04-.13-.059-.196-.465,1.945-1.13,4.766-1.663,7.036,1.327-1.163,3.054-1.858,4.895-1.87-1.72-1.06-2.931-2.87-3.174-4.971Zm5.778-2.53c1.038-.519,1.5-1,2.431-2.236.323-.608.725-1.165,1.187-1.668-.827-.375-1.735-.596-2.692-.596C5.571,0,3.079,1.829,2.224,4.55c-.017.054-.058.211-.117.45h2.088c1.25,0,2.45-.073,3.305-.5Zm1.502,1.453c-.189.114-.387.226-.608.336-1.152.576-2.522.689-3.858.704-.035,0-.52.008-.8.008.361,2.264,2.327,3.999,4.69,3.999.716,0,1.392-.166,2.001-.451-.898-1.293-1.427-2.859-1.427-4.549,0-.016.002-.031.002-.047Zm11.725,8.248l-3.71,4.3-3.768-4.295c-1.91.548-3.249,2.262-3.249,4.295v5.5h14v-5.5c0-2.014-1.372-3.757-3.273-4.3Zm-16.611-.163l-.267.026c-2.194.332-3.848,2.239-3.848,4.436v5.5h8v-5.519l-3.884-4.443Z"/>
</svg>
