<?xml version="1.0" encoding="UTF-8"?>
<svg xmlns="http://www.w3.org/2000/svg" id="Layer_1" data-name="Layer 1" viewBox="0 0 24 24">
  <path d="m22.196,13.948c-.159-.131-3.756-3.087-6.674-4.978-.392-3.456-1.433-7.995-1.479-8.195l-.179-.775h-3.729l-.179.775c-.046.2-1.087,4.739-1.479,8.195-2.918,1.891-6.516,4.847-6.674,4.978l-.614.506,1.663,3.336.773-.186c.193-.046,4.196-1.013,7.387-2.116v6.512h-4.022v2h10.045v-2h-4.023v-6.503c3.187,1.1,7.167,2.061,7.36,2.107l.773.186,1.663-3.336-.614-.506Zm-10.196-.948c-.828,0-1.5-.672-1.5-1.5s.672-1.5,1.5-1.5,1.5.672,1.5,1.5-.672,1.5-1.5,1.5Z"/>
</svg>
