<?xml version="1.0" encoding="UTF-8"?>
<svg xmlns="http://www.w3.org/2000/svg" id="Layer_1" data-name="Layer 1" viewBox="0 0 24 24" width="512" height="512"><path d="M15,13.5v-4c0-.83,.67-1.5,1.5-1.5s1.5,.67,1.5,1.5v4c0,.83-.67,1.5-1.5,1.5s-1.5-.67-1.5-1.5Zm3.5,2.87c-.61,.43-1.36,.66-2.16,.63-1.9-.09-3.34-1.77-3.34-3.67v-3.32h0L14.96,1.85c.19-.81-.31-1.61-1.11-1.81-.81-.19-1.61,.31-1.81,1.11l-2.04,8.35L7.96,1.15c-.19-.81-1-1.3-1.81-1.11-.81,.19-1.3,1-1.11,1.81l1.52,6.71c.65,.08,1.52,.37,2.27,1.12,1.26,1.26,1.53,3.22,.67,4.78l-2.85,3.06-1.45-1.38,2.21-2.21c.09-.09,.2-.24,.33-.44,.47-.84,.28-1.95-.56-2.58-.81-.6-1.96-.44-2.68,.28l-2.72,2.71c-1.03,1.03-1.03,2.7,0,3.73l6.39,6.39h13.82v-7.34c-.45,.22-.96,.34-1.5,.34-.74,0-1.43-.23-2-.63Zm2-8.37c-.83,0-1.5,.67-1.5,1.5v4c0,.83,.67,1.5,1.5,1.5s1.5-.67,1.5-1.5v-4c0-.83-.67-1.5-1.5-1.5Z"/></svg>
