<?xml version="1.0" encoding="UTF-8"?>
<svg xmlns="http://www.w3.org/2000/svg" id="Layer_1" data-name="Layer 1" viewBox="0 0 24 24">
  <path d="m17,15H7v-2h10v2Zm-6.012-5.884c.292.259.658.387,1.021.387.354,0,.705-.123.977-.365l1.375-1.138h2.688V2.048c0-1.129-.918-2.048-2.048-2.048h-5.905c-1.129,0-2.047.918-2.047,2.048v5.952h2.592l1.348,1.116Zm10.512-.116c1.381,0,2.5-1.119,2.5-2.5s-1.119-2.5-2.5-2.5-2.5,1.119-2.5,2.5,1.119,2.5,2.5,2.5Zm-19,0c1.381,0,2.5-1.119,2.5-2.5s-1.119-2.5-2.5-2.5S0,5.119,0,6.5s1.119,2.5,2.5,2.5ZM0,24h5v-2H0v2Zm21.5-14c-1.381,0-2.5,1.119-2.5,2.5v5.5h-4v6h2v-4h4c1.657,0,3-1.343,3-3v-4.5c0-1.381-1.119-2.5-2.5-2.5Zm-16.5,2.5c0-1.381-1.119-2.5-2.5-2.5s-2.5,1.119-2.5,2.5v4.5c0,1.657,1.343,3,3,3h4v4h2v-6h-4v-5.5Zm14,11.5h5v-2h-5v2Z"/>
</svg>
