<?xml version="1.0" encoding="UTF-8"?>
<svg xmlns="http://www.w3.org/2000/svg" id="Layer_1" data-name="Layer 1" viewBox="0 0 24 24">
  <path d="m24,9h-2.657l-3.867,3.008c-.257,2.796-2.615,4.992-5.476,4.992s-5.219-2.197-5.476-4.992l-3.867-3.008H0v-2h2v-2h2v2.511l2.804,2.181c.195-.562.481-1.089.848-1.561,1.094,1.151,2.639,1.87,4.348,1.87s3.254-.719,4.348-1.87c.367.472.653.999.848,1.561l2.804-2.181v-2.511h2v2h2v2Zm-12,10c-2.91,0-5.438-1.666-6.681-4.094-.21.67-.319,1.375-.319,2.094,0,3.86,3.14,7,7,7s7-3.14,7-7c0-.713-.11-1.418-.32-2.091-1.243,2.427-3.771,4.091-6.68,4.091Zm0-11c2.209,0,4-1.791,4-4S14.209,0,12,0s-4,1.791-4,4,1.791,4,4,4Z"/>
</svg>
