<?xml version="1.0" encoding="UTF-8"?>
<svg xmlns="http://www.w3.org/2000/svg" id="Layer_1" data-name="Layer 1" viewBox="0 0 24 24">
  <path d="m19,0H5c-1.654,0-3,1.346-3,3v21h20V3c0-1.654-1.346-3-3-3Zm-7.5,3c.828,0,1.5.672,1.5,1.5s-.672,1.5-1.5,1.5-1.5-.672-1.5-1.5.672-1.5,1.5-1.5Zm-6.5,1.5c0-.828.672-1.5,1.5-1.5s1.5.672,1.5,1.5-.672,1.5-1.5,1.5-1.5-.672-1.5-1.5Zm7,16.5c-3.309,0-6-2.691-6-6s2.691-6,6-6,6,2.691,6,6-2.691,6-6,6Zm4-6c0,2.206-1.794,4-4,4-1.859,0-3.411-1.28-3.858-3h2.858v-2h-2.858c.447-1.72,1.999-3,3.858-3,2.206,0,4,1.794,4,4Z"/>
</svg>
