<?xml version="1.0" encoding="UTF-8"?>
<svg xmlns="http://www.w3.org/2000/svg" id="Layer_1" data-name="Layer 1" viewBox="0 0 24 24">
  <path d="m17,10c-3.86,0-7,3.141-7,7s3.14,7,7,7,7-3.141,7-7-3.14-7-7-7Zm4,8h-3v3h-2v-3h-3v-2h3v-3h2v3h3v2Zm-13-1c0-4.971,4.029-9,9-9,1.109,0,2.171.201,3.153.568l-.227-1.27c-.341-1.91-1.997-3.297-3.938-3.297h-.16c.111-.313.172-.649.172-1C16,1.347,14.654,0,13,0h-4C7.346,0,6,1.347,6,3.001c0,.351.061.687.172,1h-.16c-1.94,0-3.597,1.387-3.941,3.319L.102,20.001h6.898c0,2.206,1.794,4,4,4,.11,0,.22-.005.328-.013h0c-2.03-1.65-3.328-4.167-3.328-6.987Zm0-13.999c0-.552.449-1,1-1h4c.551,0,1,.448,1,1s-.449,1-1,1h-4c-.551,0-1-.448-1-1Z"/>
</svg>
