<?xml version="1.0" encoding="UTF-8"?>
<svg xmlns="http://www.w3.org/2000/svg" id="Layer_1" data-name="Layer 1" viewBox="0 0 24 24">
  <path d="m22.384,12.458c1.227-1.226,1.785-2.954,1.573-4.864-.203-1.828-1.097-3.616-2.516-5.035-2.988-2.989-7.429-3.412-9.899-.943-.914.914-1.462,2.121-1.585,3.493-.08.886-.635,1.757-1.524,2.388-1.962,1.394-2.843,3.829-2.243,6.202.169.667.462,1.291.852,1.846L.062,22.523l1.414,1.414,6.979-6.979c.555.39,1.179.683,1.846.852.495.125.993.186,1.483.186,1.86,0,3.615-.875,4.718-2.429.631-.889,1.502-1.444,2.389-1.523,1.373-.124,2.58-.673,3.492-1.586Zm1.616,8.042c0,1.93-1.57,3.5-3.5,3.5s-3.5-1.57-3.5-3.5,1.57-3.5,3.5-3.5,3.5,1.57,3.5,3.5Z"/>
</svg>
