<?xml version="1.0" encoding="UTF-8"?>
<svg xmlns="http://www.w3.org/2000/svg" id="Layer_1" data-name="Layer 1" viewBox="0 0 24 24" width="512" height="512"><path d="m13.698.209c-1.115-.279-2.281-.279-3.396,0l-6.302,1.791v3l2,1v1s2,1,6,1,6-1,6-1v-1l2-1v-3L13.698.209Zm-1.698,5.791l-3.015-1.809,1.029-1.715,1.985,1.191,1.985-1.191,1.029,1.715-3.015,1.809Zm0,4c-2.93,0-4.93-.494-5.998-.854.078,3.241,2.738,5.854,5.998,5.854s5.92-2.613,5.998-5.854c-1.068.36-3.068.854-5.998.854Zm-1,14H3v-3c0-2.757,2.243-5,5-5h3v8Zm10-3v3h-8v-8h3c2.757,0,5,2.243,5,5Z"/></svg>
