<?xml version="1.0" encoding="UTF-8"?>
<svg xmlns="http://www.w3.org/2000/svg" id="Layer_1" data-name="Layer 1" viewBox="0 0 24 24">
  <path d="m20,22h2v2h-6v-6c0-1.103.897-2,2-2s2,.897,2,2v4Zm4-16.5c0,1.105-.895,2-2,2-.126,0-.249-.015-.368-.037-.343.893-.907,1.677-1.632,2.276v4.817c-.591-.344-1.268-.556-2-.556-2.206,0-4,1.794-4,4v6h-7c-3.86,0-7-3.14-7-7V6C0,2.411,2.411,0,6,0v2c-2.467,0-4,1.533-4,4v11c0,1.664.825,3.13,2.079,4.039.395-4.209,2.533-10.201,8.502-11.687-.526-.535-.939-1.177-1.212-1.889-.12.022-.242.037-.368.037-1.105,0-2-.895-2-2s.895-2,2-2c.126,0,.249.015.368.037.793-2.065,2.791-3.537,5.132-3.537s4.339,1.472,5.132,3.537c.12-.022.242-.037.368-.037,1.105,0,2,.895,2,2Z"/>
</svg>
