<?xml version="1.0" encoding="UTF-8"?>
<svg xmlns="http://www.w3.org/2000/svg" id="Layer_1" data-name="Layer 1" viewBox="0 0 24 24">
  <path d="m15.024,6.5c0,.276-.224.5-.5.5h-.5v-1h.5c.276,0,.5.224.5.5Zm-.5-2.5h-.5v1h.5c.276,0,.5-.224.5-.5s-.224-.5-.5-.5Zm-1.524,8.107c0-.996-.681-1.92-1.664-2.08-1.253-.204-2.336.758-2.336,1.973v8.817c-1.076-.886-2.111-1.752-2.145-1.784-.922-.861-2.373-.813-3.235.109-.863.923-.819,2.372.098,3.23l1.821,1.628h16.462v-4l-9-3.538v-4.355ZM24,3v8h-9.126c-.444-1.725-2.01-3-3.874-3s-3.43,1.275-3.874,3H0V3C0,1.346,1.346,0,3,0h18c1.654,0,3,1.346,3,3ZM6.813,5.045c-.545-.202-1.042-.42-1.055-.42-.118-.08-.114-.202-.108-.25.01-.066.057-.226.3-.299.545-.162,1.048.231,1.069.248l.618-.728c-.037-.032-.894-.841-1.986-.512-.556.168-.949.606-1.027,1.144-.072.506.147.992.644,1.309,0,0,.562.251,1.185.481.132.049.557.229.506.515-.038.212-.299.432-.671.432-.388,0-.761-.156-.998-.418l-.767.696c.437.482,1.08.758,1.765.758.846,0,1.558-.541,1.691-1.286.1-.562-.154-1.295-1.167-1.669Zm5.187-2.045h-1v3.5c0,.276-.224.5-.5.5s-.5-.224-.5-.5v-3.5h-1v3.5c0,.827.673,1.5,1.5,1.5s1.5-.673,1.5-1.5v-3.5Zm3.597,2.524c.257-.269.427-.622.427-1.024,0-.828-.672-1.5-1.5-1.5h-1.5v5h1.5c.828,0,1.5-.672,1.5-1.5,0-.402-.161-.764-.427-.976Zm3.215-.478c-.545-.202-1.042-.42-1.055-.42-.118-.08-.114-.202-.108-.25.01-.066.057-.226.3-.299.545-.162,1.048.231,1.069.248l.618-.728c-.037-.032-.894-.841-1.986-.512-.556.168-.949.606-1.027,1.144-.072.506.147.992.644,1.309,0,0,.562.251,1.185.481.132.049.557.229.506.515-.038.212-.299.432-.671.432-.388,0-.761-.156-.998-.418l-.767.696c.437.482,1.08.758,1.765.758.846,0,1.558-.541,1.691-1.286.1-.562-.154-1.295-1.167-1.669Z"/>
</svg>
