<?xml version="1.0" encoding="UTF-8"?>
<svg xmlns="http://www.w3.org/2000/svg" id="Layer_1" data-name="Layer 1" viewBox="0 0 24 24">
  <path d="m15.489,16.916c-.681,1.235-1.981,2.084-3.489,2.084-2.06,0-3.741-1.571-3.957-3.574.274-.193.708-.426,1.229-.426.839,0,1.828.583,2.136.807.167.122,1.675,1.193,3.319,1.193.271,0,.522-.035.762-.084Zm-6.217-3.916c1.645,0,3.152,1.071,3.319,1.193.308.224,1.297.807,2.136.807.521,0,.956-.232,1.229-.426-.216-2.003-1.897-3.574-3.957-3.574-1.508,0-2.808.848-3.489,2.084.24-.049.491-.084.762-.084ZM22,3v21H2V3c0-1.654,1.346-3,3-3h14c1.654,0,3,1.346,3,3Zm-12,1.5c0,.828.672,1.5,1.5,1.5s1.5-.672,1.5-1.5-.672-1.5-1.5-1.5-1.5.672-1.5,1.5Zm-3.5,1.5c.828,0,1.5-.672,1.5-1.5s-.672-1.5-1.5-1.5-1.5.672-1.5,1.5.672,1.5,1.5,1.5Zm11.5,9c0-3.309-2.691-6-6-6s-6,2.691-6,6,2.691,6,6,6,6-2.691,6-6Z"/>
</svg>
