<?xml version="1.0" encoding="UTF-8"?>
<svg xmlns="http://www.w3.org/2000/svg" id="Layer_1" data-name="Layer 1" viewBox="0 0 24 24" width="512" height="512"><path d="m23.999,5.136l-1.553,1.031c-.028.019-2.784,1.833-4.946,1.833h-.5v-2h-2v2h-3v-2h-2v2h-3v-2h-2v2.217c-2.177.422-4.279,1.315-4.394,1.364l-.606.26v5.277l.553.276c.131.065,3.248,1.605,6.447,1.605h10.5c2.162,0,4.918,1.814,4.946,1.833l1.554,1.031V5.136Zm-11,7.364c0,.828-.672,1.5-1.5,1.5s-1.5-.672-1.5-1.5.672-1.5,1.5-1.5,1.5.672,1.5,1.5Zm-5,0c0,.828-.672,1.5-1.5,1.5s-1.5-.672-1.5-1.5.672-1.5,1.5-1.5,1.5.672,1.5,1.5Zm8.5-1.5c.828,0,1.5.672,1.5,1.5s-.672,1.5-1.5,1.5-1.5-.672-1.5-1.5.672-1.5,1.5-1.5Z"/></svg>
