<?xml version="1.0" encoding="UTF-8"?>
<svg xmlns="http://www.w3.org/2000/svg" id="Layer_1" data-name="Layer 1" viewBox="0 0 24 24" width="512" height="512"><path d="M8.207,21.293L.732,13.818c-.473-.473-.732-1.101-.732-1.768s.26-1.296,.732-1.768L8.257,2.757l1.414,1.414L2.146,11.697c-.127,.127-.146,.276-.146,.354s.019,.227,.147,.354l7.474,7.475-1.414,1.414Zm15.061-7.475c.472-.473,.732-1.101,.732-1.768s-.26-1.296-.732-1.768L15.743,2.757l-1.414,1.414,7.525,7.526c.127,.127,.146,.276,.146,.353s-.019,.227-.146,.354l-7.475,7.475,1.414,1.414,7.475-7.475Z"/></svg>
