<?xml version="1.0" encoding="UTF-8"?>
<svg xmlns="http://www.w3.org/2000/svg" id="Layer_1" data-name="Layer 1" viewBox="0 0 24 24">
  <path d="m18,15c-6.462.5-5.538,4-10.154,4-.923,0-1.846-.5-1.846-.5v-8.5c6.462,0,5.538-4,10.154-4,.923,0,1.846.5,1.846.5v8.5Zm-14-7h2c.767,0,1.378-.065,1.899-.174-.274-1.086-1.138-1.956-2.28-2.205-1.792-.391-3.941-1.003-5.579-1.673v.069c1.186,2.942,2.985,5.015,2.985,5.015,0,0-1.492,2.034-2.985,2.981v.07s1.576,1.068,3.959,1.655v-5.738Zm20,4.935v-.07s-1.593-1.073-4-1.659v5.645l-1.846.143c-.809.063-1.452.177-2.001.324.326.994,1.161,1.775,2.239,2.009,1.802.391,3.961,1.003,5.607,1.673v-.07c-1.192-2.942-3-5.015-3-5.015,0,0,1.5-2.034,3-2.981Z"/>
</svg>
