<?xml version="1.0" encoding="UTF-8"?>
<svg xmlns="http://www.w3.org/2000/svg" id="Layer_1" data-name="Layer 1" viewBox="0 0 24 24">
  <path d="m18.293,19.707l1.414-1.414-3.586-3.585c-.723-.723-1.121-1.685-1.121-2.708s.398-1.984,1.121-2.707l3.586-3.586-1.414-1.414-3.586,3.586c-1.446,1.447-3.968,1.446-5.415,0l-3.585-3.586-1.414,1.414,3.585,3.586c.723.724,1.122,1.685,1.122,2.707s-.398,1.984-1.122,2.708l-3.585,3.585,1.414,1.414,3.585-3.585c1.447-1.446,3.967-1.446,5.415,0l3.586,3.585Zm-4.233-14.135c-.169-1.465.286-2.989,1.407-4.11,1.949-1.949,5.122-1.949,7.071,0,1.949,1.949,1.949,5.122,0,7.071-1.231,1.231-2.948,1.68-4.538,1.357,1.226-1.047,2.558-2.205,3.124-2.771,1.17-1.17,1.17-3.073,0-4.243-1.17-1.17-3.073-1.17-4.243,0-.575.575-1.762,1.7-2.821,2.696ZM1.462,8.533C-.487,6.584-.487,3.411,1.462,1.462,3.411-.487,6.584-.487,8.533,1.462c1.231,1.231,1.68,2.948,1.357,4.538-1.047-1.226-2.205-2.558-2.771-3.124-1.17-1.17-3.073-1.17-4.243,0-1.17,1.17-1.17,3.073,0,4.243.575.575,1.7,1.762,2.696,2.821-1.465.169-2.989-.286-4.11-1.407Zm21.076,6.934c1.949,1.949,1.949,5.122,0,7.071-1.949,1.949-5.122,1.949-7.071,0-1.121-1.121-1.576-2.645-1.407-4.11,1.06.996,2.247,2.121,2.821,2.696,1.17,1.17,3.073,1.17,4.243,0,1.17-1.17,1.17-3.073,0-4.243-.566-.566-1.898-1.724-3.124-2.771,1.59-.323,3.308.126,4.538,1.357Zm-12.648,2.533c.323,1.59-.126,3.308-1.357,4.538-1.949,1.949-5.122,1.949-7.071,0-1.949-1.949-1.949-5.122,0-7.071,1.121-1.121,2.645-1.576,4.11-1.407-.996,1.06-2.121,2.247-2.696,2.821-1.17,1.17-1.17,3.073,0,4.243,1.17,1.17,3.073,1.17,4.243,0,.566-.566,1.724-1.898,2.771-3.124Z"/>
</svg>
