<?xml version="1.0" encoding="UTF-8"?>
<svg xmlns="http://www.w3.org/2000/svg" id="Layer_1" data-name="Layer 1" viewBox="0 0 24 24" width="512" height="512"><path d="M4,20H22v4H4c-1.1,0-2-.9-2-2s.9-2,2-2ZM22,2V18H8V0h12c1.1,0,2,.9,2,2Zm-3,7c0-1.65-1.35-3-3-3h-1c-.55,0-1-.45-1-1s.45-1,1-1h2V2h-2c-1.65,0-3,1.35-3,3,0,.54,.15,1.03,.4,1.47-.84,.53-1.4,1.46-1.4,2.53,0,1.65,1.35,3,3,3h1c.55,0,1,.45,1,1s-.45,1-1,1h-2v2h2c1.65,0,3-1.35,3-3,0-.54-.15-1.03-.4-1.47,.84-.53,1.4-1.46,1.4-2.53ZM6,18V0h-1c-1.66,0-3,1.34-3,3v15.77c.55-.49,1.26-.77,2-.77h2Zm11-9c0-.55-.45-1-1-1h-2c-.55,0-1,.45-1,1s.45,1,1,1h2c.55,0,1-.45,1-1Z"/></svg>
