<?xml version="1.0" encoding="UTF-8"?>
<svg xmlns="http://www.w3.org/2000/svg" id="Layer_1" data-name="Layer 1" viewBox="0 0 24 24">
  <path d="m23.999,11.998v.004h0c0,.69-.172,1.369-.501,1.962-.348.627-.816,1.134-1.396,1.508-.407.263-.613.734-.514,1.174.156.684.133,1.389-.068,2.096-.358,1.244-1.313,2.246-2.521,2.685,0-.015,0-.808,0-.808.01-1.235.021-2.636-1.009-3.674-.622-.627-1.461-.944-2.493-.944-.185,0-.373.017-.562.049,1.252-.909,2.066-2.383,2.066-4.049,0-2.761-2.239-5-5-5s-5,2.239-5,5c0,1.666.815,3.141,2.067,4.049-.191-.032-.38-.049-.567-.049-1.032,0-1.871.317-2.493.944-.632.638-.872,1.412-.961,2.201-.006.005-.007.01-.002.015-.054.491-.05.986-.047,1.458,0,0,0,.791,0,.806-1.206-.439-2.16-1.441-2.516-2.682-.203-.706-.226-1.412-.07-2.099.1-.439-.106-.91-.513-1.172-.579-.374-1.049-.882-1.396-1.508C.174,13.371,0,12.692,0,12s.174-1.372.502-1.964c.348-.628.818-1.135,1.397-1.508.405-.263.612-.733.512-1.172-.156-.688-.133-1.395.069-2.099.382-1.331,1.447-2.396,2.778-2.776.704-.203,1.41-.225,2.098-.068.436.097.909-.108,1.171-.515.374-.58.881-1.049,1.508-1.396,1.21-.67,2.716-.672,3.927,0,.628.348,1.135.818,1.508,1.397.263.405.737.613,1.174.513.686-.156,1.391-.134,2.096.069,1.33.381,2.395,1.444,2.777,2.775.202.708.225,1.414.068,2.101-.099.438.108.909.515,1.172.579.372,1.049.88,1.396,1.509.328.59.5,1.267.501,1.956,0,.001,0,.003,0,.004Zm-8.503,6.002c-1.03,0-2.519,1.16-3.498,2.037-.979-.877-2.468-2.037-3.498-2.037-1.657,0-1.5,1.343-1.5,3s-.157,3,1.5,3c1.03,0,2.519-1.16,3.498-2.037.979.877,2.468,2.037,3.498,2.037,1.657,0,1.5-1.343,1.5-3s.157-3-1.5-3Z"/>
</svg>
