<?xml version="1.0" encoding="UTF-8"?>
<svg xmlns="http://www.w3.org/2000/svg" id="Layer_1" data-name="Layer 1" viewBox="0 0 24 24">
  <path d="m8,12c-3.309,0-6-2.691-6-6S4.691,0,8,0s6,2.691,6,6-2.691,6-6,6Zm15.169,4.111l-4.745-4.764-6.442.852-.5,6.266,4.683,4.701c.535.532,1.244.825,1.998.825.004,0,.008,0,.012,0,.759-.003,1.47-.302,2.003-.842l3.005-3.044c1.092-1.105,1.084-2.898-.014-3.993Zm-7.169,1.389c-.828,0-1.5-.672-1.5-1.5s.672-1.5,1.5-1.5,1.5.672,1.5,1.5-.672,1.5-1.5,1.5Zm-6.584,1.724l.417-5.224h-5.332c-2.481,0-4.5,2.019-4.5,4.5v5.5h14.173l-4.758-4.776Z"/>
</svg>
