<?xml version="1.0" encoding="UTF-8"?>
<svg xmlns="http://www.w3.org/2000/svg" id="Layer_1" data-name="Layer 1" viewBox="0 0 24 24" width="512" height="512"><path d="m21,0H3C1.346,0,0,1.346,0,3v21h24V3c0-1.654-1.346-3-3-3Zm-5.275,17.768c-1.081.841-2.408,1.283-3.753,1.283-.576,0-1.155-.082-1.72-.247-2.503-.734-4.251-3.123-4.251-5.808v-1.857c0-1.66.691-3.281,1.896-4.447,1.18-1.142,2.727-1.732,4.317-1.689,1.938.063,3.741,1.056,4.824,2.655l-1.656,1.122c-.725-1.071-1.934-1.735-3.233-1.778-1.052-.037-2.074.365-2.861,1.127-.817.792-1.287,1.889-1.287,3.01v1.857c0,1.804,1.158,3.403,2.815,3.889,1.287.378,2.628.123,3.682-.696.732-.57,1.223-1.338,1.415-2.189h-3.912v-2h5.964l.036.963c.069,1.875-.76,3.626-2.275,4.805Z"/></svg>
