<?xml version="1.0" encoding="UTF-8"?>
<svg xmlns="http://www.w3.org/2000/svg" id="Layer_1" data-name="Layer 1" viewBox="0 0 24 24">
  <path d="m4.5,11c-1.176,0-2.277-.319-3.23-.868L.065,8.928l1.414-1.414,1.391,1.391,1.043-1.043-1.354-1.387,1.432-1.396,1.337,1.37,1.086-1.086-1.354-1.387,1.432-1.396,1.337,1.37,1.077-1.077-1.391-1.391L8.928.065l1.205,1.205c.549.953.868,2.054.868,3.23,0,3.584-2.916,6.5-6.5,6.5Zm18.033,12.947l-2.952-2.952c-.95.654-2.061.994-3.18.994-1.289,0-2.579-.438-3.618-1.325-3.558-3.035-6.44-5.605-8.621-7.682.113.004.224.017.338.017,4.687,0,8.5-3.813,8.5-8.5,0-.114-.013-.225-.017-.338,2.077,2.181,4.646,5.063,7.681,8.621,1.657,1.941,1.743,4.758.335,6.801l2.948,2.948-1.414,1.414Zm-6.308-9.136l-2.353-2.353-1.414,1.414,2.353,2.353,1.414-1.414Z"/>
</svg>
