<?xml version="1.0" encoding="UTF-8"?>
<svg xmlns="http://www.w3.org/2000/svg" id="Layer_1" data-name="Layer 1" viewBox="0 0 24 24">
  <path d="m21,24H3v-3.5c0-2.481,2.019-4.5,4.5-4.5h9c2.481,0,4.5,2.019,4.5,4.5v3.5ZM22.296.748c-.088.122-1.623,2.162-4.987,3.371-.635-1.618-1.888-4.119-2.88-4.119-.533,0-.865.312-1.085.52-.251.236-.51.48-1.345.48s-1.094-.244-1.345-.48c-.22-.207-.552-.52-1.085-.52-1.001,0-2.239,2.477-2.879,4.118C3.337,2.91,1.812.872,1.724.751L.096,1.911c.147.208,3.704,5.089,11.904,5.089S23.774,2.121,23.922,1.914l-1.625-1.166Zm-10.297,8.252c-2.312,0-4.304-.357-5.994-.895.057,3.26,2.721,5.895,5.995,5.895s5.93-2.628,5.994-5.881c-1.687.529-3.675.881-5.994.881Z"/>
</svg>
