<?xml version="1.0" encoding="UTF-8"?>
<svg xmlns="http://www.w3.org/2000/svg" id="Layer_1" data-name="Layer 1" viewBox="0 0 24 24" width="512" height="512"><path d="m12,11.001h-4v-4.001h4c1.103,0,2,.897,2,2s-.897,2-2,2ZM24,3v21H0V3C0,1.346,1.346,0,3,0h18c1.654,0,3,1.346,3,3Zm-6,11.971c0-1.062-.41-2.06-1.155-2.808-.433-.435-.95-.756-1.514-.95.422-.634.669-1.395.669-2.212,0-2.206-1.794-4-4-4h-4c-1.103,0-2,.897-2,2v10c0,1.103.897,2,2,2h6.044c2.181,0,3.956-1.773,3.956-4.029Zm-3.952-1.97h-6.048v3.999h6.044c1.078,0,1.956-.876,1.956-1.954,0-.605-.204-1.101-.573-1.472-.368-.37-.857-.573-1.379-.573Z"/></svg>
