<?xml version="1.0" encoding="UTF-8"?>
<svg xmlns="http://www.w3.org/2000/svg" id="Layer_1" data-name="Layer 1" viewBox="0 0 24 24" width="512" height="512"><path d="m9.5,2.5c0-1.381,1.119-2.5,2.5-2.5s2.5,1.119,2.5,2.5-1.119,2.5-2.5,2.5-2.5-1.119-2.5-2.5Zm5.5,19.5h5v2H4v-2h5v-12.522l-3.178,4.591-1.645-1.139,3.903-5.639c.562-.81,1.483-1.292,2.467-1.292h2.904c.983,0,1.905.482,2.466,1.291l3.904,5.64-1.645,1.139-3.178-4.591v12.521Zm-4,0h2v-6h-2v6ZM21.667,2.333l-1.167-2.333-1.167,2.333-2.333,1.167,2.333,1.167,1.167,2.333,1.167-2.333,2.333-1.167-2.333-1.167Zm-15.167,3.167l-2-1-1-2-1,2-2,1,2,1,1,2,1-2,2-1Z"/></svg>
