<?xml version="1.0" encoding="UTF-8"?>
<svg xmlns="http://www.w3.org/2000/svg" id="Layer_1" data-name="Layer 1" viewBox="0 0 24 24">
  <path d="m22.922,1.726c-.686-.572-1.579-.808-2.516-.636l-4.122,1.003c-1.903.346-3.284,2.001-3.284,3.936v14.802l-1,.182-1-.182V6.029c0-1.935-1.381-3.589-3.227-3.923L3.536,1.078c-.881-.162-1.774.077-2.458.648-.686.572-1.078,1.411-1.078,2.303v16.834l12,2.182,12-2.182V4.029c0-.892-.393-1.731-1.078-2.303ZM5.887,13.647c-.459.474-1.22.471-1.674-.007l-2.037-2.152,1.387-1.441,1.496,1.581,2.543-2.631,1.398,1.43-3.113,3.221Zm16.027-.253l-1.414,1.414-1.793-1.793-1.793,1.793-1.414-1.414,1.793-1.793-1.793-1.793,1.414-1.414,1.793,1.793,1.793-1.793,1.414,1.414-1.793,1.793,1.793,1.793Z"/>
</svg>
