<?xml version="1.0" encoding="UTF-8"?>
<svg xmlns="http://www.w3.org/2000/svg" id="Layer_1" data-name="Layer 1" viewBox="0 0 24 24">
  <path d="m10.236,9.706l.638,3.295h-1.261l.624-3.295Zm8.465-.106c-.386,0-.7,0-.7,0v4.802s.314,0,.7,0,.7-.314.7-.7v-3.4c0-.386-.314-.7-.7-.7Zm-13.601,0h-.5v1.8h.5c.496,0,.9-.404.9-.9s-.404-.9-.9-.9ZM0,6h24v12H0V6Zm7.6,4.5c0-1.381-1.119-2.5-2.5-2.5h-2.1v8h1.6v-3h.5c1.381,0,2.5-1.119,2.5-2.5Zm5.4,5.5l-1.397-6.807c-.12-.668-.589-1.192-1.346-1.192s-1.281.587-1.385,1.167l-1.372,6.833h1.469l.275-1.474h2.006l.262,1.474h1.488Zm2.4-8h-1.6v8h1.6v-8Zm5.6,2.3c0-1.269-1.031-2.3-2.3-2.3h-2.3v8h2.3c1.269,0,2.3-1.031,2.3-2.3v-3.4Zm-.064-6.3C18.69,1.503,15.444,0,12,0S5.31,1.503,3.064,4h17.873ZM3.064,20c2.247,2.497,5.493,4,8.936,4s6.69-1.503,8.936-4H3.064Z"/>
</svg>
