<?xml version="1.0" encoding="UTF-8"?>
<svg xmlns="http://www.w3.org/2000/svg" id="Layer_1" data-name="Layer 1" viewBox="0 0 24 24">
  <path d="m14,5.5V1.5c0-.828.672-1.5,1.5-1.5s1.5.672,1.5,1.5v4c0,.828-.672,1.5-1.5,1.5s-1.5-.672-1.5-1.5Zm5.5-4.5c-.828,0-1.5.672-1.5,1.5v3c0,.828.672,1.5,1.5,1.5s1.5-.672,1.5-1.5v-3c0-.828-.672-1.5-1.5-1.5Zm-8,6c.828,0,1.5-.672,1.5-1.5V1.5c0-.828-.672-1.5-1.5-1.5s-1.5.672-1.5,1.5v4c0,.828.672,1.5,1.5,1.5Zm6,1.374c-.609.425-1.358.663-2.163.626-.678-.031-1.294-.273-1.81-.649-.572.408-1.273.649-2.028.649-.659,0-1.276-.183-1.803-.501-.062.154-.431.883-.882,1.333l-2.25,2.137-1.357-1.429h.001s-.021-.021-.021-.021l2.41-2.342c.043-.059.088-.126.136-.199.47-.843.284-1.954-.561-2.584-.81-.604-1.965-.437-2.68.276l-2.497,2.455c-1.325,1.303-1.33,3.438-.01,4.746l5.013,4.969v6.162h12v-5.234l.868-1.52c.74-1.295,1.132-2.77,1.132-4.262v-4.319c-.455.217-.964.338-1.5.338-.743,0-1.433-.233-2-.63Zm-8.5-3.999v-1.875c0-.828-.672-1.5-1.5-1.5s-1.5.672-1.5,1.5v.526c.838-.006,1.672.244,2.369.763.235.175.445.372.631.586Z"/>
</svg>
