<?xml version="1.0" encoding="UTF-8"?>
<svg xmlns="http://www.w3.org/2000/svg" id="Layer_1" data-name="Layer 1" viewBox="0 0 24 24" width="512" height="512"><path d="M15,13.5v-4c0-.828,.672-1.5,1.5-1.5s1.5,.672,1.5,1.5v4c0,.828-.672,1.5-1.5,1.5s-1.5-.672-1.5-1.5Zm5.5-5.5c-.828,0-1.5,.672-1.5,1.5v4c0,.828,.672,1.5,1.5,1.5s1.5-.672,1.5-1.5v-4c0-.828-.672-1.5-1.5-1.5Zm-13.5-1v2.037c.836-.005,1.672,.233,2.369,.753,.238,.178,.443,.383,.631,.601V4H2l2,1.5-2,1.5H7Zm5.5,8c.828,0,1.5-.672,1.5-1.5v-4c0-.828-.672-1.5-1.5-1.5s-1.5,.672-1.5,1.5v4c0,.828,.672,1.5,1.5,1.5Zm6,1.37c-.609,.425-1.358,.663-2.163,.626-.68-.031-1.297-.274-1.814-.651-.573,.409-1.268,.655-2.024,.655-1.086,0-2.053-.501-2.695-1.28l-2.171,2.181-1.446-1.382,2.213-2.1c.088-.088,.201-.24,.333-.441,.47-.843,.284-1.954-.561-2.584-.81-.604-1.965-.437-2.68,.276l-2.497,2.455c-1.325,1.303-1.33,3.438-.01,4.746l5.177,5.131h13.836v-7.338c-.455,.217-.964,.338-1.5,.338-.743,0-1.433-.233-2-.63ZM10,1.5c0-.828-.672-1.5-1.5-1.5s-1.5,.672-1.5,1.5v.5h3v-.5Z"/></svg>
