<?xml version="1.0" encoding="UTF-8"?>
<svg xmlns="http://www.w3.org/2000/svg" id="Layer_1" data-name="Layer 1" viewBox="0 0 24 24">
  <path d="m23.999,16.237c.073,3.075-2.265,5.671-5.211,5.763h-1.788v2h-2v-2h-2v2h-2v-2c2.981,0,5.5-2.376,5.5-5.188,0-2.62-1.236-5.045-2.327-7.185-.384-.752-.746-1.463-1.008-2.099-.416-1.014-1.165-2.818-1.165-3.978V0h4v3.109c0,1.116.442,2.182,1.245,3.001.369.376.862.804,1.385,1.257,2.266,1.963,5.369,4.651,5.369,8.87Zm-16.499.575c0,1.728,1.603,3.188,3.5,3.188s3.5-1.46,3.5-3.188c0-2.14-1.12-4.337-2.109-6.276-.402-.789-.782-1.534-1.075-2.246-.118-.288-.225-.614-.317-.961-.093.351-.197.677-.313.96-.293.713-.673,1.458-1.075,2.247-.989,1.939-2.109,4.137-2.109,6.276Zm1.5,7.188v-2.374c-2.026-.773-3.5-2.664-3.5-4.814,0-2.62,1.236-5.045,2.327-7.185.384-.752.746-1.463,1.008-2.1.411-.999,1.165-2.903,1.165-4.094V0h-2v3.109c0,1.116-.442,2.182-1.245,3.001-.369.376-.862.804-1.385,1.257C3.104,9.33,0,12.019,0,16.214c-.073,3.099,2.265,5.694,5.211,5.786h1.788v2h2Z"/>
</svg>
