<?xml version="1.0" encoding="UTF-8"?>
<svg xmlns="http://www.w3.org/2000/svg" id="Layer_1" data-name="Layer 1" viewBox="0 0 24 24">
  <path d="m24,21c0,1.657-1.343,3-3,3s-3-1.343-3-3,1.343-3,3-3,3,1.343,3,3Zm-4.5-13.682v-2.318c0-2.757-2.243-5-5-5h-2.509c-2.487,0-4.617,1.859-4.954,4.325l-2.41,17.679-4.631.019.008,2,6.369-.026,2.646-19.401c.201-1.479,1.479-2.595,2.972-2.595h2.509c1.654,0,3,1.346,3,3v2h-4.5v17h4.023c-.633-.838-1.023-1.869-1.023-3,0-2.761,2.239-5,5-5,1.131,0,2.162.39,3,1.023v-3.523c0-2.886-1.892-5.336-4.5-6.182Z"/>
</svg>
