<?xml version="1.0" encoding="UTF-8"?>
<svg xmlns="http://www.w3.org/2000/svg" id="Layer_1" data-name="Layer 1" viewBox="0 0 24 24">
  <path d="m19,11.994l3.535-3.458c1.95-1.95,1.95-5.122,0-7.071-.944-.944-2.2-1.464-3.535-1.464s-2.591.52-3.536,1.464c-1.949,1.95-1.949,5.122.008,7.079l3.528,3.45Zm-10,8.006v1h-2.5l-1.911,2.421c-.195.357-.569.579-.975.579h-1.113l1.167-3H1.65l-1.546-1.833c-.297-.52.078-1.167.677-1.167.207,0,.405.082.551.228l1.11.772h1.241l-1.184-3h1.096c.407,0,.781.222.975.579l1.929,2.421h1.25c.802,0,1.25.448,1.25,1Zm15-3c0,2.206-1.794,4-4,4h-9v-1c0-.354-.061-.69-.172-1h9.172c1.103,0,2-.897,2-2s-.897-2-2-2h-11c-2.206,0-4-1.794-4-4s1.794-4,4-4h3.299c.208.702.529,1.378.961,2h-4.26c-1.103,0-2,.897-2,2s.897,2,2,2h11c2.206,0,4,1.794,4,4Z"/>
</svg>
