<?xml version="1.0" encoding="UTF-8"?>
<svg xmlns="http://www.w3.org/2000/svg" id="Layer_1" data-name="Layer 1" viewBox="0 0 24 24">
  <path d="m23.983,17.183c-.102-1.131-.683-2.19-1.594-2.906-2.75-2.162-3.855-4.382-4.925-6.532-.709-1.425-1.382-2.777-2.464-3.971V0c-1.905,0-3.5,1.332-3.902,3.116C4.198,3.921,0,8.894,0,16.5v7.5h15.068l-.079-.15c-1.332-2.414-2.112-4.494-2.151-4.598l-.838-2.252,9.846,4.549c.247-.281.616-.7,1.117-1.264.75-.845,1.122-1.976,1.021-3.102Zm-9.483-4.183c-.828,0-1.5-.672-1.5-1.5s.672-1.5,1.5-1.5,1.5.672,1.5,1.5-.672,1.5-1.5,1.5Z"/>
</svg>
