<?xml version="1.0" encoding="UTF-8"?>
<svg xmlns="http://www.w3.org/2000/svg" id="Layer_1" data-name="Layer 1" viewBox="0 0 24 24">
  <path d="m16,20.063c-1.096.521-2.366.937-4,.937s-2.904-.416-4-.937v-2.398c1.26.721,2.364,1.335,4,1.335s2.74-.614,4-1.335v2.398Zm5-4.063v2h3v-2h-3ZM3,4H0v2h3v-2Zm9,3c-1.636,0-2.74-.614-4-1.335v2.398c1.096.521,2.366.937,4,.937s2.904-.416,4-.937v-2.398c-1.26.721-2.364,1.335-4,1.335Zm9-3v2h3v-2h-3ZM3,16H0v2h3v-2Zm6.5-3.549c-.529-.234-1.037-.52-1.574-.828-1.329-.761-2.836-1.623-4.926-1.623H0v2h3c1.292,0,2.239.541,3.436,1.227.898.514,1.871,1.069,3.064,1.419v-2.194Zm11.5-2.451c-2.09,0-3.597.862-4.926,1.623-.537.308-1.045.594-1.574.828v2.194c1.193-.35,2.166-.905,3.064-1.419,1.197-.686,2.144-1.227,3.436-1.227h3v-2h-3Zm-10,11.939v2.061h2v-2.061c-.32.035-.649.061-1,.061s-.68-.026-1-.061Zm1-11.939c-.351,0-.68-.026-1-.061v7.936c.313.072.637.126,1,.126s.687-.054,1-.126v-7.936c-.32.035-.649.061-1,.061ZM11,0v5.874c.313.072.637.126,1,.126s.687-.054,1-.126V0h-2Zm-5,0h-2v9.066c.735.089,1.393.274,2,.5V0Zm0,14.128c-.019-.011-.042-.022-.061-.033-.752-.43-1.338-.749-1.939-.93v10.835h2v-9.872Zm12,0v9.872h2v-10.835c-.602.181-1.188.5-1.939.93-.019.011-.042.023-.061.034Zm0-14.128v9.566c.607-.226,1.265-.411,2-.5V0h-2Z"/>
</svg>
