<?xml version="1.0" encoding="UTF-8"?>
<svg xmlns="http://www.w3.org/2000/svg" id="Layer_1" data-name="Layer 1" viewBox="0 0 24 24">
  <path d="m23.583,12.059c-.42-.767-1.103-1.319-1.921-1.553-.739-.211-3.008-.505-5.026-.505h-2.659s6.049-4.306,6.049-4.306v-2.123l1.781-2.226-1.562-1.249-2.219,2.774v1.792l-4.11,2.925c.36-.433.585-.982.585-1.589,0-1.009-.601-1.873-1.461-2.268l-1.039-3.732-1.039,3.732c-.86.395-1.461,1.259-1.461,2.268,0,.6.22,1.143.572,1.574l-4.072-2.909v-1.793L3.781.098l-1.562,1.249,1.781,2.226v2.122l6.029,4.306h-2.661s-.004,0-.004,0c-2.018,0-4.287.294-5.026.505-.818.234-1.501.785-1.921,1.553C-.004,12.826-.111,13.717.114,14.569c.224.852.755,1.561,1.493,1.998.486.288,1.024.434,1.568.434.282,0,.567-.039.846-.119,1.281-.366,5.648-3.927,6.979-5.129l-6,7.05v1.717l-2.125,1.7,1.25,1.562,2.875-2.3v-1.938l4-4.667v5.124h2v-5.124l4,4.667v1.938l2.875,2.3,1.25-1.562-2.125-1.7v-1.717l-6-7.049c1.331,1.203,5.697,4.762,6.978,5.128.28.08.564.119.846.119.544,0,1.082-.147,1.568-.434.738-.437,1.269-1.146,1.493-1.998.225-.852.118-1.743-.302-2.51Z"/>
</svg>
