<?xml version="1.0" encoding="UTF-8"?>
<svg xmlns="http://www.w3.org/2000/svg" id="Layer_1" data-name="Layer 1" viewBox="0 0 24 24" width="512" height="512"><path d="m23,9h1v-4c0-1.654-1.346-3-3-3H7c-1.654,0-3,1.346-3,3v12c0,1.654,1.346,3,3,3h14c1.654,0,3-1.346,3-3v-4h-1c-1.103,0-2-.897-2-2s.897-2,2-2Zm-6,3h-2l-1.911,2.421c-.195.357-.569.579-.975.579h-1.113l1.359-3h-2.709l-1.546-1.833c-.297-.52.078-1.167.677-1.167.207,0,.405.082.551.228l.924.772h2.12l-1.376-3h1.096c.407,0,.781.222.975.579l1.929,2.421h.75c.802,0,1.25.448,1.25,1v1Zm2,12H7c-3.86,0-7-3.141-7-7v-9h2v9c0,2.757,2.243,5,5,5h12v2Z"/></svg>
