<?xml version="1.0" encoding="UTF-8"?>
<svg xmlns="http://www.w3.org/2000/svg" id="Layer_1" data-name="Layer 1" viewBox="0 0 24 24">
  <path d="m10.586,19.295l-4.658,4.658-3.935-3.935,4.673-4.643,3.919,3.919Zm.039-10.44l.008-.007c-.677-.562-1.522-1.497-2.445-2.421-.663-.663-.807-2.07-.168-2.812,1.191-1.187,2.38-1.615,3.981-1.615s2.902.43,4.094,1.616c.639.742.387,2.172-.131,2.697-1.019,1.03-1.82,1.985-2.497,2.546l3.791,3.767.689-.689c1.373-1.373,2.032-3.173,2.055-4.937.022-1.743-.716-3.439-2.13-4.737-.831-.763-2.716-2.263-5.87-2.263h0s-.005,0,0,0c-3.14.008-5.078,1.502-5.908,2.263-1.414,1.298-2.152,2.993-2.13,4.737.022,1.764.681,3.563,2.055,4.937l.689.689,11.366,11.328,3.917-3.806-11.364-11.292Z"/>
</svg>
