<?xml version="1.0" encoding="UTF-8"?>
<svg xmlns="http://www.w3.org/2000/svg" id="Layer_1" data-name="Layer 1" viewBox="0 0 24 24">
  <path d="m21,0H3C1.346,0,0,1.346,0,3v21h24V3c0-1.654-1.346-3-3-3ZM5.5,4c.828,0,1.5.672,1.5,1.5s-.672,1.5-1.5,1.5-1.5-.672-1.5-1.5.672-1.5,1.5-1.5Zm2.5,16H3v-1.5c0-.828.672-1.5,1.5-1.5h2c.828,0,1.5.672,1.5,1.5v1.5Zm-4-5.5c0-.828.672-1.5,1.5-1.5s1.5.672,1.5,1.5-.672,1.5-1.5,1.5-1.5-.672-1.5-1.5Zm4-3.5H3v-1.5c0-.828.672-1.5,1.5-1.5h2c.828,0,1.5.672,1.5,1.5v1.5Zm5,7h-3v-2h3v2Zm0-9h-3v-2h3v2Zm5.5,10c-1.381,0-2.5-1.119-2.5-2.5s1.119-2.5,2.5-2.5,2.5,1.119,2.5,2.5-1.119,2.5-2.5,2.5Zm.317-14.251l.617,1.899h1.997l.196.602-1.616,1.174.617,1.899-.512.372-1.616-1.174-1.616,1.174-.512-.372.617-1.899-1.616-1.174.196-.602h1.997l.617-1.899h.633Z"/>
</svg>
