<?xml version="1.0" encoding="UTF-8"?>
<svg xmlns="http://www.w3.org/2000/svg" id="Layer_1" data-name="Layer 1" viewBox="0 0 24 24">
  <path d="m23.338,12.345l-10.674,11.655H3c-1.654,0-3-1.346-3-3v-7c0-1.654,1.346-3,3-3h4v-1c-1.654,0-3-1.346-3-3h2c0,.552.449,1,1,1h2.376c.344,0,.624-.28.624-.624,0-.307-.219-.565-.522-.616l-3.285-.547c-1.271-.212-2.193-1.301-2.193-2.589,0-1.447,1.177-2.624,2.624-2.624h.376V0h2v1c1.654,0,3,1.346,3,3h-2c0-.552-.449-1-1-1h-2.376c-.344,0-.624.28-.624.624,0,.307.219.565.522.616l3.285.547c1.271.212,2.193,1.301,2.193,2.589,0,1.447-1.177,2.624-2.624,2.624h-.376v1h2.787c1.22,0,2.213.993,2.213,2.213,0,1.094-.816,2.036-1.9,2.191l-4.241.606.283,1.979,4.241-.606c2.062-.294,3.617-2.087,3.617-4.17,0-.219-.032-.429-.065-.638l3.541-3.737c.455-.5,1.097-.803,1.794-.835.692-.034,1.363.209,1.878.678,1.052.958,1.138,2.602.189,3.665Zm-6.858-5.799l1.414,1.414,2.49-2.49c.397-.397.616-.925.616-1.487s-.219-1.09-.616-1.486L17.936.049l-1.414,1.414,1.536,1.537h-4.058v2h4.026l-1.547,1.546Z"/>
</svg>
