<?xml version="1.0" encoding="UTF-8"?>
<svg xmlns="http://www.w3.org/2000/svg" id="Layer_1" data-name="Layer 1" viewBox="0 0 24 24" width="512" height="512"><path d="M14.423,7.945l.823-.788-1.383-1.445-3.442,3.295,1.414,1.414,1.133-1.084,7.211,7.127-1.279,1.022,5.057,5.057-1.414,1.414L.043,1.457,1.457,.043,3.703,2.289l1.01-.764c.687-.344,1.456-.525,2.227-.525,1.28,0,2.471,.461,3.39,1.298l.617,.593-3.36,3.28,1.414,1.414L14.646,2.073c1.51-1.173,3.618-1.393,5.308-.548l3.046,1.523,1-.049v13h-1.364L14.423,7.945ZM0,16H3.077l8.923,7,3.725-2.976L0,4.299v11.701Z"/></svg>
