<?xml version="1.0" encoding="UTF-8"?>
<svg xmlns="http://www.w3.org/2000/svg" id="Layer_1" data-name="Layer 1" viewBox="0 0 24 24">
  <path d="m17.992,16.007v5.716c0,1.269-1.031,2.3-2.3,2.3s-2.3-1.031-2.3-2.3v-5.716h1.6v5.716c0,.386.314.7.7.7s.7-.314.7-.7v-5.716h1.6Zm4.408,0v4.063l-1.8-4.054v-.009h-1.6v8h1.6v-4.054l1.8,4.054h1.6v-8h-1.6Zm-13.635,5.858c.373.406.925.645,1.497.645.604,0,1.031-.404,1.096-.795.088-.55-.602-.873-.817-.959-.915-.371-1.751-.78-1.753-.78h0c-.692-.484-1.027-1.231-.921-2.049.111-.845.674-1.534,1.471-1.796,1.324-.437,2.462.317,2.863.686l-.86,1.113c-.219-.166-.881-.602-1.611-.367-.412.136-.517.447-.515.577.005.442.335.57.433.615.282.128.806.368,1.366.595,1.461.591,1.828,1.745,1.685,2.627-.191,1.175-1.215,2.028-2.436,2.028-.965,0-1.873-.413-2.506-1.136l1.009-1.006Zm15.235-13.866v-3c0-1.654-1.346-3-3-3h-3V0h-2v2h-8V0h-2v2h-3c-1.654,0-3,1.346-3,3v3h24ZM0,10v14h6.086l-1.068-1.22,1.854-1.85c-.782-.887-1.145-2.048-.987-3.26.214-1.619,1.298-2.935,2.83-3.438.437-.144.867-.205,1.286-.218v-.014h14v-4H0Z"/>
</svg>
