<?xml version="1.0" encoding="UTF-8"?>
<svg xmlns="http://www.w3.org/2000/svg" id="Layer_1" data-name="Layer 1" viewBox="0 0 24 24" width="512" height="512"><path d="M23.415,21.415c-.39,.39-.902,.585-1.414,.585s-1.027-.192-1.414-.585c-.978-.991-1.587-3.578-1.587-3.665,0-.414,.336-.75,.75-.75,.577,0,2.849,.876,3.665,1.587,.78,.78,.78,2.048,0,2.828Zm-4.86,.63c-1.885,1.233-4.134,1.955-6.554,1.955C5.373,24,0,18.627,0,12S5.373,0,12,0s12,5.373,12,12c0,1.458-.274,2.848-.75,4.14-.533-.274-1.111-.527-1.667-.724-1.393-.627-3.15-1.416-3.15-1.416h-3.433v4h2.027c.116,.744,.628,2.667,1.527,4.045ZM8,14h-2v4h2v-4Zm.5-3c.828,0,1.5-.672,1.5-1.5s-.672-1.5-1.5-1.5-1.5,.672-1.5,1.5,.672,1.5,1.5,1.5Zm2.5,3h-2v4h2v-4Zm3,0h-2v4h2v-4Zm1.5-3c.828,0,1.5-.672,1.5-1.5s-.672-1.5-1.5-1.5-1.5,.672-1.5,1.5,.672,1.5,1.5,1.5Z"/></svg>
