<?xml version="1.0" encoding="UTF-8"?>
<svg xmlns="http://www.w3.org/2000/svg" id="Layer_1" data-name="Layer 1" viewBox="0 0 24 24">
  <path d="m16.5,6c0-.461-.09-.897-.219-1.317l1.416-.817-1-1.732-1.41.814c-.604-.65-1.392-1.122-2.286-1.327V0h-2v1.621c-.895.204-1.682.677-2.286,1.327l-1.41-.814-1,1.732,1.416.817c-.129.419-.219.855-.219,1.317s.09.897.219,1.317l-1.416.817,1,1.732,1.41-.814c.604.65,1.392,1.122,2.286,1.327v1.621h2v-1.621c.895-.204,1.682-.677,2.286-1.327l1.41.814,1-1.732-1.416-.817c.129-.419.219-.855.219-1.317Zm-4.5,1.5c-.827,0-1.5-.673-1.5-1.5s.673-1.5,1.5-1.5,1.5.673,1.5,1.5-.673,1.5-1.5,1.5Zm12,11.5v1c0,1.657-1.343,3-3,3H3c-1.657,0-3-1.343-3-3v-1h8.145l.846,1h6.023l.846-1h8.14Zm-14.918-2H2V5h2.069c-.041.328-.069.661-.069,1,0,4.418,3.582,8,8,8s8-3.582,8-8c0-.339-.028-.672-.069-1h2.069v12h-7.068l-.846,1h-4.157l-.846-1Z"/>
</svg>
