<?xml version="1.0" encoding="UTF-8"?>
<svg xmlns="http://www.w3.org/2000/svg" id="Layer_1" data-name="Layer 1" viewBox="0 0 24 24" width="512" height="512"><path d="m14.618,18.86l.92,3.667-1.939.486-.767-3.058c-.274.029-.552.044-.831.044-.368,0-.728-.034-1.083-.082l-.777,3.096-1.939-.486.783-3.122c-.68-.278-1.31-.649-1.881-1.093l-1.279,1.279c.111.282.177.588.177.909,0,1.381-1.119,2.5-2.5,2.5s-2.5-1.119-2.5-2.5,1.119-2.5,2.5-2.5c.322,0,.627.066.909.177l1.279-1.279c-.473-.609-.859-1.286-1.143-2.016l-3.191.8-.486-1.939,3.192-.8c-.037-.31-.061-.623-.061-.942,0-.308.022-.613.057-.915l-3.189-.8.487-1.939,3.667.92,3.867,3.867c-.524.234-.89.757-.89,1.368,0,.828.672,1.5,1.5,1.5.611,0,1.134-.366,1.368-.89l3.75,3.75Zm9.339,3.683l-1.414,1.414L.043,1.457,1.457.043l1.131,1.131c.897-.351,1.955-.167,2.679.558s.909,1.782.558,2.679l1.299,1.299c.574-.445,1.197-.811,1.861-1.081l-.785-3.129,1.939-.486.78,3.109c.352-.047.706-.08,1.067-.08.284,0,.564.016.84.045l.772-3.075,1.939.486-.767,3.055c.759.284,1.462.679,2.092,1.168l1.314-1.314c-.111-.282-.177-.588-.177-.909,0-1.381,1.119-2.5,2.5-2.5s2.5,1.119,2.5,2.5-1.119,2.5-2.5,2.5c-.322,0-.627-.066-.909-.177l-1.315,1.315c.46.592.837,1.249,1.117,1.957l2.99-.75.486,1.939-2.983.748c.039.321.066.645.066.976s-.027.66-.067.985l2.984.748-.486,1.939-2.988-.75c-.273.692-.647,1.343-1.109,1.939l1.303,1.303c.897-.351,1.955-.167,2.679.558s.909,1.782.558,2.679l1.131,1.131Zm-7.957-13.043c0-.828-.672-1.5-1.5-1.5s-1.5.672-1.5,1.5.672,1.5,1.5,1.5,1.5-.672,1.5-1.5Z"/></svg>
