<?xml version="1.0" encoding="UTF-8"?>
<svg xmlns="http://www.w3.org/2000/svg" id="Layer_1" data-name="Layer 1" viewBox="0 0 24 24" width="512" height="512"><path d="m10,2H0V0h10v2Zm-6,9h2v-5h4v-2H0v2h4v5Zm13-2V2.715l5-.715v4c-1.105,0-2,.895-2,2s.895,2,2,2,2-.895,2-2V2c0-.58-.251-1.131-.689-1.511-.438-.381-1.021-.546-1.594-.47l-5,.715c-.979.14-1.717.991-1.717,1.98v4.285c-1.105,0-2,.895-2,2s.895,2,2,2,2-.895,2-2Zm5,11c-1.105,0-2,.895-2,2s.895,2,2,2,2-.895,2-2-.895-2-2-2Zm-4-5c0-1.105-.895-2-2-2s-2,.895-2,2,.895,2,2,2,2-.895,2-2Zm4.487-1.947l-8.014,9.617,1.536,1.281,8.014-9.617-1.536-1.281Zm-10.139,5.491c-.161.23-.857,1.2-1.86,2.258l1.787,2.003-1.492,1.332-1.752-1.964c-1.205.992-2.61,1.798-4.001,1.798-2.393,0-4-1.406-4-3.5,0-1.18,1.405-2.98,2.482-4.185-.286-.385-.511-.831-.511-1.285,0-1.103.897-2,2-2s2,.897,2,2c0,.462-.232.916-.525,1.305l2.674,2.997c.616-.657,1.161-1.335,1.561-1.905l1.638,1.147Zm-4.654,2.132l-2.74-2.998c-1.054,1.198-1.887,2.393-1.925,2.802,0,1.344,1.399,1.49,2,1.49.79,0,1.741-.54,2.665-1.295Z"/></svg>
