<?xml version="1.0" encoding="UTF-8"?>
<svg xmlns="http://www.w3.org/2000/svg" id="Layer_1" data-name="Layer 1" viewBox="0 0 24 24">
  <path d="m24,2v5h-2v-3.586l-4.293,4.293-1.414-1.414,4.293-4.293h-3.586V0h5c1.103,0,2,.897,2,2Zm-2.761,7c.485,1.241.761,2.587.761,4,0,6.075-4.925,11-11,11S0,19.075,0,13,4.925,2,11,2c1.413,0,2.759.276,4,.761v1.996l-1.535,1.535,4.242,4.242,1.535-1.535h1.996Zm-12.239,2c0-.552.448-1,1-1h2c.552,0,1,.448,1,1h2c0-1.654-1.346-3-3-3v-1h-2v1c-1.654,0-3,1.346-3,3,0,1.359.974,2.51,2.315,2.733l3.04.506c.374.062.645.382.645.761,0,.552-.448,1-1,1h-2c-.552,0-1-.448-1-1h-2c0,1.654,1.346,3,3,3v1h2v-1c1.654,0,3-1.346,3-3,0-1.359-.974-2.51-2.315-2.733l-3.04-.506c-.374-.062-.645-.382-.645-.761Z"/>
</svg>
