<?xml version="1.0" encoding="UTF-8"?>
<svg xmlns="http://www.w3.org/2000/svg" id="Layer_1" data-name="Layer 1" viewBox="0 0 24 24">
  <path d="m8,12c-3.309,0-6-2.691-6-6S4.691,0,8,0s6,2.691,6,6-2.691,6-6,6Zm14.5,6c0-.46-.089-.895-.218-1.313l1.416-.816-.998-1.733-1.411.813c-.605-.652-1.393-1.125-2.289-1.33v-1.621h-2v1.621c-.896.205-1.685.678-2.289,1.33l-1.411-.813-.998,1.733,1.416.816c-.129.418-.218.853-.218,1.313s.089.895.218,1.313l-1.416.816.998,1.733,1.411-.813c.605.652,1.393,1.125,2.289,1.33v1.621h2v-1.621c.896-.205,1.685-.678,2.289-1.33l1.411.813.998-1.733-1.416-.816c.129-.418.218-.853.218-1.313Zm-4.5,1.5c-.827,0-1.5-.673-1.5-1.5s.673-1.5,1.5-1.5,1.5.673,1.5,1.5-.673,1.5-1.5,1.5Zm-8-1.5c0-1.459.397-2.822,1.079-4h-6.579c-2.481,0-4.5,2.019-4.5,4.5v5.5h12.721c-1.665-1.466-2.721-3.607-2.721-6Z"/>
</svg>
