<?xml version="1.0" encoding="UTF-8"?>
<svg xmlns="http://www.w3.org/2000/svg" id="Layer_1" data-name="Layer 1" viewBox="0 0 24 24">
  <path d="m17,9c0-.85-.565-1.864-.979-2.47-.729.073-2.178.318-3.486,1.146l-.535.339-.535-.339c-1.32-.835-2.759-1.078-3.485-1.148-.414.604-.98,1.621-.98,2.472,0,1.829.794,3.329.802,3.345l.183.34-.457,1.836,2.846,2.479h.625v-2l-1-1v-1h4v1l-1,1v2h.625l2.846-2.479-.459-1.836.187-.343c.006-.013.801-1.513.801-3.342Zm-7.75,2c-.69,0-1.25-.56-1.25-1.25s.56-1.25,1.25-1.25,1.25.56,1.25,1.25-.56,1.25-1.25,1.25Zm5.5,0c-.69,0-1.25-.56-1.25-1.25s.56-1.25,1.25-1.25,1.25.56,1.25,1.25-.56,1.25-1.25,1.25Zm9.25-4.5S20.5,0,14,0l-2,1-2-1C3.5,0,0,6.5,0,6.5l1.466-.242c-.749,1.618-1.466,3.806-1.466,6.242v3.5l1.486-1.365c.712,2.729,1.32,4.449,1.514,4.865l1.344,2.952,1.138-2.092c2.619,1.811,6.374,3.604,6.518,3.64.144-.036,3.898-1.829,6.518-3.64l1.138,2.092,1.344-2.952c.193-.416.802-2.137,1.514-4.865l1.486,1.365v-3.5c0-2.437-.718-4.624-1.466-6.242l1.466.242Zm-5.292,8.724l-4.334,3.776h-4.749l-4.334-3.776.574-2.295c-.3-.666-.865-2.159-.865-3.929,0-1.996,1.553-3.925,1.73-4.139l.298-.359.467-.002c.091.012,2.316.002,4.504,1.175,2.188-1.173,4.41-1.159,4.504-1.175l.467.002.298.359c.177.214,1.73,2.143,1.73,4.139,0,1.77-.565,3.263-.865,3.929l.574,2.295Z"/>
</svg>
