<?xml version="1.0" encoding="UTF-8"?>
<svg xmlns="http://www.w3.org/2000/svg" id="Layer_1" data-name="Layer 1" viewBox="0 0 24 24">
  <path d="m21.942,20c.034.162.058.328.058.5,0,1.381-1.119,2.5-2.5,2.5s-2.5-1.119-2.5-2.5c0-.172.024-.338.058-.5h4.885Zm-18.885,0c-.034.162-.058.328-.058.5,0,1.381,1.119,2.5,2.5,2.5s2.5-1.119,2.5-2.5c0-.172-.024-.338-.058-.5H3.058ZM12,1H3C1.346,1,0,2.346,0,4v5.64c.07-.386.253-.756.551-1.054l3.518-3.518,1.414,1.414-2.518,2.518h8.035v2H2.965l2.518,2.518-1.414,1.414-3.518-3.518c-.298-.298-.481-.668-.551-1.054v7.64h15V4c0-1.654-1.346-3-3-3Zm7,4h-2v6h7v-1c0-2.757-2.243-5-5-5Zm-2,13h7v-5h-7v5Z"/>
</svg>
