<?xml version="1.0" encoding="UTF-8"?>
<svg xmlns="http://www.w3.org/2000/svg" id="Layer_1" data-name="Layer 1" viewBox="0 0 24 24" width="512" height="512"><path d="M8.5,8.997c-.935,0-1.814-.364-2.475-1.025-1.364-1.364-1.364-3.586,0-4.95L8.5,.602l2.467,2.412c1.373,1.372,1.373,3.593,.008,4.958h0c-.661,.661-1.54,1.025-2.475,1.025Zm14.652-.316c-.515-.469-1.186-.712-1.878-.678-.697,.032-1.339,.334-1.794,.835l-3.541,3.737c.032,.21,.065,.42,.065,.638,0,2.083-1.555,3.876-3.617,4.17l-4.241,.606-.283-1.979,4.241-.606c1.084-.155,1.9-1.097,1.9-2.191,0-1.22-.993-2.213-2.213-2.213H3.003C1.349,11,.003,12.346,.003,14v7c0,1.654,1.346,3,3,3H12.667l10.674-11.655c.948-1.062,.862-2.707-.189-3.665Z"/></svg>
