<?xml version="1.0" encoding="UTF-8"?>
<svg xmlns="http://www.w3.org/2000/svg" id="Layer_1" data-name="Layer 1" viewBox="0 0 24 24" width="512" height="512"><path d="M16.95,20.42c-.25-1.42-.62-3.05-1.17-4.71-1.18,.62-2.55,1.68-3.97,3.11-1.42,1.42-2.49,2.79-3.11,3.97,1.66,.54,3.29,.91,4.71,1.17,.18,.03,.35,.05,.53,.05,.8,0,1.58-.32,2.16-.89,.7-.7,1.02-1.71,.84-2.69ZM6.79,13.79c1.51-1.51,3.64-3.38,5.81-4.43-.41-.54-.86-1.06-1.34-1.55-.69-.69-1.94-1.29-4.05-.29-1.46,.69-2.87,1.95-3.8,2.88C.08,13.72-.86,16.59,.82,18.26c.48,.48,1,.93,1.55,1.34,1.05-2.17,2.91-4.3,4.43-5.81Zm10.16,6.62c-.25-1.42-.62-3.05-1.17-4.71-1.18,.62-2.55,1.68-3.97,3.11-1.42,1.42-2.49,2.79-3.11,3.97,1.66,.54,3.29,.91,4.71,1.17,.18,.03,.35,.05,.53,.05,.8,0,1.58-.32,2.16-.89,.7-.7,1.02-1.71,.84-2.69ZM6.79,13.79c1.51-1.51,3.64-3.38,5.81-4.43-.41-.54-.86-1.06-1.34-1.55-.69-.69-1.94-1.29-4.05-.29-1.46,.69-2.87,1.95-3.8,2.88C.08,13.72-.86,16.59,.82,18.26c.48,.48,1,.93,1.55,1.34,1.05-2.17,2.91-4.3,4.43-5.81Zm9.68-1.79c.86,1.86,1.48,3.77,1.92,5.55,.21-.18,.41-.38,.57-.62,.86-1.24,1.78-2.72,2.59-4.35-1.32-.38-3.05-.58-5.05-.58,0,0-.02,0-.02,0Zm-3.06-4.81c.77,.88,1.44,1.83,2.03,2.83,.37-.01,.73-.02,1.06-.02,1.64,0,3.94,.13,5.88,.74,.34-.82,.63-1.67,.87-2.54-1.48-.72-3.83-1.2-6.75-1.2-1.1,0-2.14,.07-3.09,.19ZM16.44,0c-4.73,0-7.44,1.38-7.44,3.78,0,.41,.02,.82,.05,1.23,.99-.04,1.79,.21,2.41,.52,1.7-.35,3.51-.45,4.98-.45,2.15,0,5.05,.21,7.24,1.12,.13-.8,.2-1.61,.2-2.42,0-2.4-2.71-3.78-7.44-3.78Zm-2.72,11.05c.53,.89,.98,1.83,1.37,2.77-1.79,.88-3.53,2.42-4.69,3.58s-2.7,2.9-3.58,4.69c-.94-.39-1.88-.84-2.77-1.37,.71-1.59,2.16-3.52,4.16-5.52,2-2,3.92-3.45,5.52-4.16Z"/></svg>
