<?xml version="1.0" encoding="UTF-8"?>
<svg xmlns="http://www.w3.org/2000/svg" id="Layer_1" data-name="Layer 1" viewBox="0 0 24 24">
  <path d="m11,4c-3.86,0-7,3.141-7,7s3.14,7,7,7,7-3.141,7-7-3.14-7-7-7Zm0,12c-2.757,0-5-2.243-5-5s2.243-5,5-5,5,2.243,5,5-2.243,5-5,5Zm2-5c0,1.105-.895,2-2,2s-2-.895-2-2,.895-2,2-2,2,.895,2,2Zm10.987,5.135l-1.461,7.865h-3l-1.461-7.865c-.099-.594.359-1.135.961-1.135h.975v-4c0-4.963-4.038-9-9-9S2,6.037,2,11s4.038,9,9,9c2.031,0,3.901-.684,5.409-1.824l.399,2.148c-1.688,1.055-3.675,1.676-5.808,1.676C4.935,22,0,17.065,0,11S4.935,0,11,0s11,4.935,11,11v4h1.025c.602,0,1.06.541.961,1.135Z"/>
</svg>
