<?xml version="1.0" encoding="UTF-8"?>
<svg xmlns="http://www.w3.org/2000/svg" id="Layer_1" data-name="Layer 1" viewBox="0 0 24 24" width="512" height="512"><path d="M19.071,2.936C17.182,1.047,14.671,.006,12,.006S6.818,1.046,4.929,2.936c-1.889,1.889-2.929,4.4-2.929,7.071s1.04,5.183,2.937,7.079l7.063,6.908,7.071-6.916c1.889-1.889,2.929-4.4,2.929-7.071s-1.04-5.182-2.929-7.071Zm-6.071,14.064h-2v-2h2v2Zm.929-5.495c-.469,.258-.929,1.126-.929,1.752v.743h-2v-.743c0-1.19,.734-2.827,1.963-3.504,.762-.42,1.157-1.254,1.004-2.125-.138-.787-.81-1.458-1.597-1.596-.605-.107-1.195,.047-1.655,.435-.455,.381-.715,.94-.715,1.533h-2c0-1.185,.521-2.302,1.429-3.064,.908-.762,2.106-1.077,3.287-.873,1.613,.283,2.938,1.607,3.221,3.22,.298,1.698-.509,3.395-2.008,4.222Z"/></svg>
