<?xml version="1.0" encoding="UTF-8"?>
<svg xmlns="http://www.w3.org/2000/svg" id="Layer_1" data-name="Layer 1" viewBox="0 0 24 24">
  <path d="m23.121,18.879l-7.68-7.681-1.411,1.398-5.01-5.01V3.422L3.129.025.044,3.109l3.398,5.891h4.164l5.003,5.003-1.431,1.417,7.7,7.701c.567.566,1.32.879,2.122.879s1.555-.312,2.121-.879c1.17-1.17,1.17-3.072,0-4.242Zm-14.768-3.455l1.424-1.424-2.009-2.009L.879,18.879c-1.17,1.17-1.17,3.072,0,4.242.567.566,1.32.879,2.122.879s1.555-.312,2.121-.879l5.465-5.465-2.233-2.233Zm14.766-11.366c.558,1.077.841,2.235.841,3.442,0,2.549-1.281,4.803-3.231,6.158l-5.281-5.281-1.412,1.397-3.017-3.017V2.355c1.368-1.446,3.297-2.355,5.44-2.355,1.181,0,2.318.272,3.381.811l.319.162-3.574,3.614c-.781.781-.781,2.047,0,2.828.781.781,2.047.781,2.828,0l3.573-3.612.132.256Z"/>
</svg>
