<?xml version="1.0" encoding="UTF-8"?>
<svg xmlns="http://www.w3.org/2000/svg" id="Layer_1" data-name="Layer 1" viewBox="0 0 24 24" width="512" height="512"><path d="M12,0C5.383,0,0,5.383,0,12s5.383,12,12,12,12-5.383,12-12S18.617,0,12,0Zm-2,11.5c0,.828-.672,1.5-1.5,1.5s-1.5-.672-1.5-1.5,.672-1.5,1.5-1.5,1.5,.672,1.5,1.5Zm-4.155-2.355l-1.689-1.07c.912-1.439,2.278-2.577,3.952-3.291l.785,1.84c-1.3,.554-2.354,1.426-3.048,2.521Zm6.155,8.855c-2.499,0-5,1.001-5,1,.512-1.899,2.221-3.997,4.999-4,2.778,.003,4.488,2.101,5.001,4,0,.001-2.501-1-5-1Zm3.5-5c-.828,0-1.5-.672-1.5-1.5s.672-1.5,1.5-1.5,1.5,.672,1.5,1.5-.672,1.5-1.5,1.5Zm2.596-3.949c-.695-1.051-1.729-1.89-2.988-2.428l.785-1.84c1.621,.692,2.96,1.786,3.871,3.165l-1.668,1.103Z"/></svg>
