<?xml version="1.0" encoding="UTF-8"?>
<svg xmlns="http://www.w3.org/2000/svg" id="Layer_1" data-name="Layer 1" viewBox="0 0 24 24">
  <path d="m10.451,10c1.517-.89,2.549-2.38,2.549-4,0-2-2.047-2.961-3.5-2.992-1.212-.025-3.5-.008-3.5,1.992,0,.842.906,1.5,2,1.5,1,0,2.067-.398,2.451-1.5.144.589-.451,3.027-3.451,3.027s-3.976-1.991-4-3.527c-.024-1.627,1.023-3.326,3.011-3.942,3.371-1.493,8.988.205,8.988,4.442,0,3-2.309,4.798-4.549,5h0Zm12.887,2.345l-10.674,11.655H3c-1.654,0-3-1.346-3-3v-7c0-1.654,1.346-3,3-3h8.787c1.22,0,2.213.993,2.213,2.213,0,1.094-.816,2.036-1.9,2.191l-4.241.606.283,1.979,4.241-.606c2.062-.294,3.617-2.087,3.617-4.17,0-.219-.032-.429-.065-.638l3.541-3.737c.455-.5,1.097-.803,1.794-.835.692-.034,1.363.209,1.878.678,1.052.958,1.138,2.602.189,3.665Z"/>
</svg>
