<?xml version="1.0" encoding="UTF-8"?>
<svg xmlns="http://www.w3.org/2000/svg" id="Layer_1" data-name="Layer 1" viewBox="0 0 24 24">
  <path d="m21,3H3c-1.654,0-3,1.346-3,3v13h6.923l3.749,3.157c.382.339.861.507,1.337.507.468,0,.931-.163,1.292-.484l3.848-3.18h6.852V6c0-1.654-1.346-3-3-3Zm-13.333,7.509l-1.832,1.061.737,2.239-.421.291-1.811-1.401-1.82,1.407-.4-.302.724-2.265-1.844-1.026v-.513h2.416l.654-2.501h.54l.653,2.501h2.403v.509Zm7.667,0l-1.832,1.061.737,2.239-.421.291-1.811-1.401-1.82,1.407-.4-.302.724-2.265-1.844-1.026v-.513h2.416l.654-2.501h.54l.653,2.501h2.403v.509Zm7.667,0l-1.832,1.061.737,2.239-.421.291-1.811-1.401-1.82,1.407-.4-.302.724-2.265-1.844-1.026v-.513h2.416l.654-2.501h.54l.653,2.501h2.403v.509Z"/>
</svg>
