<?xml version="1.0" encoding="UTF-8"?>
<svg xmlns="http://www.w3.org/2000/svg" id="Layer_1" data-name="Layer 1" viewBox="0 0 24 24">
  <path d="m1.029,22.864c.633.723,1.541,1.136,2.506,1.136,1.221,0,2.245-.853,2.436-2.028.143-.882-.224-2.036-1.685-2.627-.56-.228-1.084-.467-1.366-.595-.099-.045-.428-.173-.433-.615-.002-.131.103-.441.515-.577.73-.236,1.392.2,1.611.367l.86-1.113c-.401-.369-1.539-1.123-2.863-.686-.796.263-1.359.951-1.471,1.796-.106.818.23,1.565.921,2.049h0s.838.409,1.753.78c.214.086.905.409.817.959-.065.391-.492.795-1.096.795-.572,0-1.124-.24-1.497-.645l-1.009,1.006Zm8.471-6.864c-1.269,0-2.3,1.031-2.3,2.3v3.4c0,1.269,1.031,2.3,2.3,2.3s2.3-1.031,2.3-2.3v-3.4c0-1.269-1.031-2.3-2.3-2.3Zm.7,5.7c0,.386-.314.7-.7.7s-.7-.314-.7-.7v-3.4c0-.386.314-.7.7-.7s.7.314.7.7v3.4Zm10.1-5.7h-2.3v8h2.3c1.269,0,2.3-1.031,2.3-2.3v-3.4c0-1.269-1.031-2.3-2.3-2.3Zm.7,5.7c0,.386-.314.7-.7.7s-.7,0-.7,0v-4.802s.314,0,.7,0,.7.314.7.7v3.4Zm-4,2.3h-4v-8h1.6v6.401s1.295,0,2.4,0v1.599ZM0,15.634v-5.596c0-.929.42-1.79,1.151-2.362L10.151.633c1.088-.852,2.609-.852,3.697,0l9,7.043c.731.572,1.151,1.434,1.151,2.362v6.109c-.746-1.277-2.117-2.147-3.7-2.147,0,0-15.565.008-16.8-.009-.486-.007-.995.063-1.515.234-.81.266-1.488.764-1.985,1.409Z"/>
</svg>
