<?xml version="1.0" encoding="UTF-8"?>
<svg xmlns="http://www.w3.org/2000/svg" id="Layer_1" data-name="Layer 1" viewBox="0 0 24 24">
  <path d="m12,5c-3.714,0-10-.527-10-2.5S8.286,0,12,0s10,.527,10,2.5-6.286,2.5-10,2.5Zm0,5c5.938,0,9.707-1.413,10-2.147v-2.452c-1.936,1.06-5.27,1.598-10,1.598s-8.064-.539-10-1.598v2.543c.267.672,4.045,2.056,10,2.056Zm0,9c5.938,0,9.707-1.413,10-2.147v-6.588c-2.477,1.237-6.764,1.735-10,1.735-2.835,0-7.394-.397-10-1.67v6.615c.267.672,4.045,2.056,10,2.056Zm0,2c-2.835,0-7.394-.397-10-1.67v1.17c0,2.763,6.286,3.5,10,3.5,3.459,0,10-.742,10-3.55v-1.185c-2.477,1.237-6.764,1.735-10,1.735Z"/>
</svg>
