<?xml version="1.0" encoding="UTF-8"?>
<svg xmlns="http://www.w3.org/2000/svg" id="Layer_1" data-name="Layer 1" viewBox="0 0 24 24">
  <path d="m17.073,13.363l6.927,6.927v3.71s-3.71,0-3.71,0l-6.927-6.927,3.71-3.71ZM.768,4.478l6.108,6.108,3.71-3.71L4.478.768c-1.024-1.024-2.685-1.024-3.71,0-1.024,1.024-1.024,2.685,0,3.71Zm8.766,9.988c-1.955-1.955-5.124-1.955-7.079,0-1.955,1.955-2.455,9.534-2.455,9.534,0,0,7.579-.5,9.534-2.455,1.955-1.955,1.955-5.124,0-7.079ZM23.232.768c-1.024-1.024-2.685-1.024-3.71,0l-10.793,10.793c.806.341,1.563.834,2.219,1.49h0c.656.657,1.149,1.413,1.49,2.22l10.792-10.792c1.024-1.024,1.024-2.685,0-3.71Z"/>
</svg>
