<?xml version="1.0" encoding="UTF-8"?>
<svg xmlns="http://www.w3.org/2000/svg" id="Layer_1" data-name="Layer 1" viewBox="0 0 24 24" width="512" height="512"><path d="m15,5v2s-6,0-6,0v-2h6Zm0,11c0,1.654-1.346,3-3,3s-3-1.346-3-3,1.346-3,3-3,3,1.346,3,3Zm-1.5,0c0-.828-.672-1.5-1.5-1.5s-1.5.672-1.5,1.5.672,1.5,1.5,1.5,1.5-.672,1.5-1.5Zm7.5-13v21H3V3c0-1.654,1.346-3,3-3h12c1.654,0,3,1.346,3,3Zm-4,13c0-2.757-2.243-5-5-5s-5,2.243-5,5,2.243,5,5,5,5-2.243,5-5Zm0-11c0-1.103-.897-2-2-2h-6c-1.103,0-2,.897-2,2v2c0,1.103.897,2,2,2h6c1.103,0,2-.897,2-2v-2Z"/></svg>
