<?xml version="1.0" encoding="UTF-8"?>
<svg xmlns="http://www.w3.org/2000/svg" id="Layer_1" data-name="Layer 1" viewBox="0 0 24 24">
  <path d="m18,20h2v.943c-2.123,1.9-4.926,3.057-8,3.057C5.839,24,.764,19.357.079,13.38c.346.155.675.352.982.59.822.638,1.865.99,2.938.991,1.074,0,2.119-.353,2.94-.991.399-.309.816-.538,1.269-.692.533,1.582,2.029,2.721,3.791,2.721,1.47,0,2.754-.793,3.449-1.974.317.085.551.374.551.717v3.256c0,1.105.895,2,2,2ZM12.511.011C5.911-.263.431,4.796.025,11.233c.813.237,1.576.626,2.262,1.157.955.74,2.451.765,3.402.02.73-.571,1.518-.961,2.384-1.175.357-1.843,1.979-3.235,3.927-3.235,2.209,0,4,1.791,4,4,1.105,0,2,.895,2,2v4h2v-5.002c.02-.56.459-.998,1-.998.551,0,1,.448,1,1v8h2v-8.628C24,5.879,18.999.28,12.511.011Z"/>
</svg>
