<?xml version="1.0" encoding="UTF-8"?>
<svg xmlns="http://www.w3.org/2000/svg" id="Layer_1" data-name="Layer 1" viewBox="0 0 24 24" width="512" height="512"><path d="M22,13c0-2.206-1.794-4-4-4s-4,1.794-4,4v1h-2v7c0,1.654,1.346,3,3,3h6c1.654,0,3-1.346,3-3v-7h-2v-1Zm-6,0c0-1.103,.897-2,2-2s2,.897,2,2v1h-4v-1Zm3,7h-2v-2h2v2Zm5-13v1c0,.821-.266,1.571-.695,2.204-1.007-1.903-3.006-3.204-5.305-3.204-2.967,0-5.431,2.167-5.91,5h-1.09c-1.2,0-2.266-.542-3-1.382-.734,.84-1.8,1.382-3,1.382h-1c-.347,0-.678-.058-1-.142v5.142h7v4c0,1.13,.391,2.162,1.026,3H4c-1.654,0-3-1.346-3-3V10.618c-.615-.703-1-1.612-1-2.618l.024-1.217L2.198,0H7V5h2V0h6V5h2V0h4.802l2.198,7Z"/></svg>
