<?xml version="1.0" encoding="UTF-8"?>
<svg xmlns="http://www.w3.org/2000/svg" id="Layer_1" data-name="Layer 1" viewBox="0 0 24 24">
  <path d="m13.696,6.578l-1.695-1.181-1.696,1.185-.795-.55.62-1.938-1.605-1.118.242-.982h2.13l.522-1.995h1.173l.521,1.995h2.119l.244.974-1.607,1.123.638,1.937-.81.549Zm9.335,3.451l-.638-1.937,1.607-1.123-.244-.974h-2.119l-.521-1.995h-1.173l-.522,1.995h-2.13l-.242.982,1.605,1.118-.62,1.938.795.55,1.696-1.185,1.695,1.181.81-.549Zm-17.049,0l-.638-1.937,1.607-1.123-.244-.974h-2.119l-.521-1.995h-1.173l-.522,1.995H.242l-.242.982,1.605,1.118-.62,1.938.795.55,1.696-1.185,1.695,1.181.81-.549Zm7.018,3.97c0-.551-.449-1-1-1h-1v2h1c.551,0,1-.449,1-1Zm0,3h-2v2h2c.551,0,1-.448,1-1s-.449-1-1-1Zm9.97-4.591c.01.197.03.391.03.591,0,6.075-4.925,11-11,11S1,19.075,1,13c0-.199.019-.394.03-.591.743.375,1.581.591,2.47.591,2.839,0,5.175-2.152,5.468-4.913.87.576,1.911.913,3.032.913s2.163-.337,3.032-.913c.293,2.761,2.629,4.913,5.468,4.913.889,0,1.727-.216,2.47-.591Zm-6.97,5.591c0-1.061-.553-1.994-1.386-2.528.246-.435.386-.937.386-1.472,0-1.654-1.346-3-3-3h-3v10h4c1.654,0,3-1.346,3-3Z"/>
</svg>
