<?xml version="1.0" encoding="UTF-8"?>
<svg xmlns="http://www.w3.org/2000/svg" id="Layer_1" data-name="Layer 1" viewBox="0 0 24 24" width="512" height="512"><path d="M23.909,10.583c-.104,.345-.297,.668-.587,.924l-.512,.451-1.277-1.451-1.5,1.322,1.277,1.45-1.646,1.45-1.263-1.434-1.5,1.322,1.262,1.433-1.793,1.718-.025-.036-.013,.014c-.02-.018-2.005-1.748-4.336-1.748s-4.316,1.73-4.336,1.748l-1.33-1.493c.103-.092,2.559-2.254,5.666-2.254,.741,0,1.44,.128,2.084,.316l6.598-5.81c.83-.73,2.093-.65,2.823,.179,.015,.017,.024,.036,.038,.054C22.117,3.698,17.495,0,12,0,5.373,0,0,5.373,0,12s5.373,12,12,12,12-5.373,12-12c0-.48-.036-.951-.091-1.417Zm-8.413-2.583c.828,0,1.5,.672,1.5,1.5s-.672,1.5-1.5,1.5-1.5-.672-1.5-1.5,.672-1.5,1.5-1.5Zm-7,0c.828,0,1.5,.672,1.5,1.5s-.672,1.5-1.5,1.5-1.5-.672-1.5-1.5,.672-1.5,1.5-1.5Z"/></svg>
