<?xml version="1.0" encoding="UTF-8"?>
<svg xmlns="http://www.w3.org/2000/svg" id="Layer_1" data-name="Layer 1" viewBox="0 0 24 24">
  <path d="m1,24h22v-14H1v14Zm9-11c.782,0,1.477.27,2,.727.523-.457,1.218-.727,2-.727,1.654,0,3,1.417,3,3.16,0,2.729-4.002,5.386-4.458,5.681l-.542.349-.542-.349c-.457-.294-4.458-2.952-4.458-5.681,0-1.743,1.346-3.16,3-3.16Zm-1,3.16c0-.64.449-1.16,1-1.16.498,0,1,.309,1,1h2c0-.691.502-1,1-1,.551,0,1,.521,1,1.16,0,1.04-1.611,2.617-3,3.626-1.389-1.01-3-2.586-3-3.626ZM24,3v5H0V3C0,1.343,1.343,0,3,0h18c1.657,0,3,1.343,3,3Z"/>
</svg>
