<?xml version="1.0" encoding="UTF-8"?>
<svg xmlns="http://www.w3.org/2000/svg" id="Layer_1" data-name="Layer 1" viewBox="0 0 24 24" width="512" height="512"><path d="M11,16.6v-.6h2v.6c0,.662-.411,1.4-1,1.4s-1-.738-1-1.4Zm4.5-8.6c-.827,0-1.5,.673-1.5,1.5s.673,1.5,1.5,1.5,1.5-.673,1.5-1.5-.673-1.5-1.5-1.5Zm8.5,4c0,6.617-5.383,12-12,12S0,18.617,0,12,5.383,0,12,0s12,5.383,12,12Zm-15.314-1.017l1.406-1.422c-.792-.784-1.913-1.265-3.073-1.265-1.044,0-2.12,.39-3.019,1.297l1.422,1.406c1.19-1.202,2.604-.669,3.264-.017Zm8.314,3.017H7v2h2v.6c0,1.636,1.147,3.4,3,3.4s3-1.765,3-3.4v-.6h2v-2Zm2-4.5c0-1.93-1.57-3.5-3.5-3.5s-3.5,1.57-3.5,3.5,1.57,3.5,3.5,3.5,3.5-1.57,3.5-3.5Z"/></svg>
