<?xml version="1.0" encoding="UTF-8"?>
<svg xmlns="http://www.w3.org/2000/svg" id="Layer_1" data-name="Layer 1" viewBox="0 0 24 24">
  <path d="m5.5,10.489l-3.889,4.122c-1.039,1.039-1.611,2.42-1.611,3.889s.572,2.851,1.611,3.889c1.039,1.039,2.42,1.611,3.889,1.611s2.85-.572,3.889-1.611c2.145-2.145,2.145-5.634.02-7.758l-3.909-4.142Zm17.028-1.033l-3.528-3.45-3.535,3.458c-1.95,1.95-1.95,5.122,0,7.071.944.944,2.2,1.464,3.535,1.464s2.591-.52,3.536-1.464c1.949-1.95,1.949-5.122-.008-7.079ZM10,.405l-2.828,2.767c-.756.755-1.172,1.76-1.172,2.828s.416,2.073,1.171,2.828c.755.756,1.76,1.172,2.829,1.172s2.073-.416,2.829-1.172c1.56-1.56,1.56-4.097-.008-5.664L10,.405Z"/>
</svg>
