<?xml version="1.0" encoding="UTF-8"?>
<svg xmlns="http://www.w3.org/2000/svg" id="Layer_1" data-name="Layer 1" viewBox="0 0 24 24" width="512" height="512"><path d="M12,0C5.383,0,0,5.383,0,12s5.383,12,12,12,12-5.383,12-12S18.617,0,12,0Zm1,9h3.5c.828,0,1.5,.672,1.5,1.5s-.672,1.5-1.5,1.5c-.652,0-1.202-.419-1.408-1h-2.092v-2Zm-8,2v-2h3.5c.828,0,1.5,.672,1.5,1.5s-.672,1.5-1.5,1.5c-.652,0-1.202-.419-1.408-1h-2.092Zm9,7h-6v-2h6c2.138,0,3.114-1.472,3.155-1.535l1.695,1.061c-.062,.101-1.57,2.474-4.85,2.474Z"/></svg>
