<?xml version="1.0" encoding="UTF-8"?>
<svg xmlns="http://www.w3.org/2000/svg" id="Layer_1" data-name="Layer 1" viewBox="0 0 24 24">
  <path d="m2.005,20h12.673l-3.592-3.956c-.047-.052-.092-.105-.136-.158-.17.642-.753,1.114-1.45,1.114-.83,0-1.5-.67-1.5-1.5s.67-1.5,1.5-1.5c.21,0,.41.043.591.121-.11-.5-.129-1.022-.049-1.543.191-1.26.937-2.356,2.044-3.008.885-.521,1.923-.674,2.914-.479v-5.091H2.005l-.005.024v-1.024c0-.55.45-1,1-1h5V0H3C1.34,0,0,1.34,0,3v18c0,1.66,1.34,3,3,3h5v-2H3c-.55,0-1-.45-1-1v-1.007l.005.007Zm7.495-13c.83,0,1.5.67,1.5,1.5s-.67,1.5-1.5,1.5-1.5-.67-1.5-1.5.67-1.5,1.5-1.5Zm-7.495.999c.352,0,.713.045,1.08.141,1.33.36,2.42,1.43,2.77,2.77.711,2.661-1.292,5.075-3.85,5.081l-.005.012v-2.004c1.105,0,2-.895,2-2s-.895-2-2-2v-2.016l.005.015Zm21.995,1.252v10.75h-5.292c-.846,0-1.652-.357-2.221-.983l-3.92-4.317c-.923-1.017-.721-2.668.533-3.407.815-.48,1.858-.331,2.586.272l3.275,3.243,1.404-1.404-3.365-3.331v-4.073h1.89c.998,0,1.961.373,2.698,1.047l2.412,2.203Z"/>
</svg>
