<?xml version="1.0" encoding="UTF-8"?>
<svg xmlns="http://www.w3.org/2000/svg" id="Layer_1" data-name="Layer 1" viewBox="0 0 24 24">
  <path d="m5.491,7.504L0,1.359,1.491.026l5.492,6.146c.655.734,1.017,1.681,1.017,2.666v7.169l1.498-1.508,1.414,1.414-2.506,2.506c-.388.387-.897.581-1.406.581s-1.018-.193-1.405-.58l-2.507-2.507,1.414-1.414,1.498,1.498v-7.159c0-.493-.181-.966-.509-1.333Zm16.509,13.496c0,.551-.448,1-1,1H3c-.552,0-1-.449-1-1v-9H0v9c0,1.654,1.346,3,3,3h18c1.654,0,3-1.346,3-3v-9h-2v9Zm-5-2c.509,0,1.019-.193,1.406-.581l2.506-2.506-1.414-1.414-1.498,1.508v-7.169c0-.493.181-.966.509-1.333l5.492-6.146L22.509.026l-5.492,6.146c-.655.734-1.017,1.68-1.017,2.665v7.159l-1.498-1.498-1.414,1.414,2.507,2.507c.388.386.896.58,1.405.58Z"/>
</svg>
