<?xml version="1.0" encoding="UTF-8"?>
<svg xmlns="http://www.w3.org/2000/svg" id="Layer_1" data-name="Layer 1" viewBox="0 0 24 24">
  <path d="m16.414,15l-2.482,2.482c.044.165.068.339.068.518,0,1.105-.895,2-2,2s-2-.895-2-2,.895-2,2-2c.179,0,.353.024.518.068l2.482-2.482v-2.586l3-3v4h4l-3,3h-2.586Zm-.441,3.27c-.142,2.078-1.859,3.73-3.973,3.73-2.206,0-4-1.794-4-4,0-2.114,1.652-3.831,3.73-3.973l1.818-1.818c-.495-.132-1.012-.21-1.548-.21-3.309,0-6,2.691-6,6s2.691,6,6,6,6-2.691,6-6c0-.536-.077-1.053-.21-1.548l-1.818,1.817Zm8.064-10.27l-.037-3.004h0c-.002-1.653-1.347-2.996-3-2.996h-3V0h-2v2h-8V0h-2v2h-3c-1.654,0-3,1.346-3,3v3h15.172l2-2h2.828v2h4.037ZM4,18c0-4.411,3.589-8,8-8H0v14h6.715c-1.664-1.467-2.715-3.613-2.715-6Zm20.077,5.996l-.028-11.216-4.124,4.124c.049.358.075.724.075,1.096,0,2.387-1.051,4.533-2.715,6l6.792-.004Z"/>
</svg>
