<?xml version="1.0" encoding="UTF-8"?>
<svg xmlns="http://www.w3.org/2000/svg" id="Layer_1" data-name="Layer 1" viewBox="0 0 24 24" width="512" height="512"><path d="m8.897,16.088c.805-.268,1.504-.712,2.103-1.257v2.724c0,2.587-1.648,4.875-4.103,5.692h0,0s-1.633.544-1.633.544c-.41.137-.836.207-1.263.208h-.006c-1.049,0-2.078-.428-2.826-1.176-.755-.753-1.17-1.757-1.17-2.827,0-1.402.16-2.805.475-4.169l1.835-7.952c.527-2.282,2.53-3.876,4.872-3.876h3.818v6.396c0,1.725-1.1,3.25-2.735,3.795l-2.581.86.633,1.897,2.581-.86Zm14.628-.26l-1.835-7.953c-.527-2.282-2.53-3.875-4.872-3.875h-3.818v6.396c0,1.725,1.1,3.25,2.735,3.795l2.581.86-.633,1.897-2.581-.86c-.805-.268-1.504-.712-2.103-1.257v2.724c0,2.587,1.648,4.875,4.103,5.692h0,0s1.633.544,1.633.544c.412.138.872.234,1.269.208,1.049,0,2.078-.428,2.826-1.176.755-.753,1.17-1.757,1.17-2.827,0-1.402-.16-2.805-.475-4.169ZM13,0h-2v4h2V0Z"/></svg>
