<?xml version="1.0" encoding="UTF-8"?>
<svg xmlns="http://www.w3.org/2000/svg" id="Layer_1" data-name="Layer 1" viewBox="0 0 24 24">
  <path d="m20,10c0-3.009-1.67-5.635-4.132-7.001,1.268-.705,2.326-1.745,3.053-2.999h-2.639c-1.027,1.221-2.564,2-4.281,2s-3.254-.779-4.281-2h-2.639c.727,1.254,1.785,2.294,3.053,2.999-2.462,1.366-4.132,3.992-4.132,7.001,0,4.073,3.059,7.444,7,7.938v2.062h-2v2h2v2h2v-2h2v-2h-2v-2.062c3.941-.494,7-3.865,7-7.938Zm-14,0c0-3.309,2.691-6,6-6s6,2.691,6,6-2.691,6-6,6-6-2.691-6-6Z"/>
</svg>
