<?xml version="1.0" encoding="UTF-8"?>
<svg xmlns="http://www.w3.org/2000/svg" id="Layer_1" data-name="Layer 1" viewBox="0 0 24 24">
  <path d="m1.5,3.5c0-1.381,1.119-2.5,2.5-2.5s2.5,1.119,2.5,2.5-1.119,2.5-2.5,2.5-2.5-1.119-2.5-2.5Zm10.791,4.601l1.401-.798c-.125-.412-.192-.85-.192-1.302s.068-.89.192-1.302l-1.401-.798.99-1.738,1.403.799c.607-.662,1.41-1.142,2.315-1.348V0h2v1.612c.906.206,1.708.686,2.315,1.348l1.403-.799.99,1.738-1.401.798c.125.412.192.85.192,1.302s-.068.89-.192,1.302l1.401.798-.99,1.738-1.403-.799c-.607.662-1.41,1.142-2.315,1.348v1.612h-2v-1.612c-.906-.206-1.708-.686-2.315-1.348l-1.403.799-.99-1.738Zm4.209-2.101c0,.827.673,1.5,1.5,1.5s1.5-.673,1.5-1.5-.673-1.5-1.5-1.5-1.5.673-1.5,1.5ZM3,17v3l-.998,4H-.067l1.099-4.383-.018-2.617h-.014v-7c0-1.654,1.346-3,3-3h4.586l2.207-2.207,1.414,1.414-2.793,2.793h-3.414v6h5v3.727l-2,1.388v-3.114H3Zm3.908,7h3.267l13.825-9.593v-2.267L6.908,24Z"/>
</svg>
