<?xml version="1.0" encoding="UTF-8"?>
<svg xmlns="http://www.w3.org/2000/svg" id="Layer_1" data-name="Layer 1" viewBox="0 0 24 24">
  <path d="m21.5,4.5c-1.381,0-2.5,1.119-2.5,2.5,0,.142.019.279.042.415l-2.91,2.116c-.62-.807-1.369-1.507-2.222-2.065l1.369-2.489c.074.007.146.022.222.022,1.381,0,2.5-1.119,2.5-2.5s-1.119-2.5-2.5-2.5-2.5,1.119-2.5,2.5c0,.573.201,1.095.525,1.516l-1.404,2.553c-.974-.362-2.022-.569-3.121-.569C4.037,6,0,10.038,0,15s4.037,9,9,9,9-4.037,9-9c0-1.34-.302-2.608-.83-3.751l2.966-2.157c.393.256.86.408,1.364.408,1.381,0,2.5-1.119,2.5-2.5s-1.119-2.5-2.5-2.5Zm-12.496,17.5c-3.8-1.344-6.548-4.915-6.665-9.141.484-1.501,1.459-2.783,2.738-3.652-.494,1.059-.753,2.191-.753,3.372,0,4.162,3.779,8.139,8.354,8.366-1.07.664-2.326,1.055-3.674,1.055Zm6.586-4.662c-.249.7-.605,1.347-1.051,1.925-5.159-.384-8.215-3.027-8.215-7.185,0-1.323.284-2.62.819-3.82.593-.164,1.214-.258,1.858-.258.138,0,.364-.008.5,0-.769,1.2-1.161,2.888-1.161,4.305,1.562-.793,2.85-2.055,3.701-3.601.615.298,1.178.682,1.677,1.138-1.125,1.961-2.848,3.526-4.9,4.456.344.686.846,1.221,1.441,1.634,1.951-.956,3.975-2.924,4.753-4.504.419.702.719,1.48.871,2.312-.815,1.195-1.98,2.308-3.336,3.193.934.24,2.2.369,3.045.404Zm-7.251-5.034c0,.079-.003-.077,0,0h0Z"/>
</svg>
