<?xml version="1.0" encoding="UTF-8"?>
<svg xmlns="http://www.w3.org/2000/svg" id="Layer_1" data-name="Layer 1" viewBox="0 0 24 24">
  <path d="m18.5,16c-2.206,0-4-1.794-4-4s1.794-4,4-4,4,1.794,4,4-1.794,4-4,4Zm-6.5-8c-2.206,0-4-1.794-4-4S9.794,0,12,0s4,1.794,4,4-1.794,4-4,4Zm-6.5,8c-2.206,0-4-1.794-4-4s1.794-4,4-4,4,1.794,4,4-1.794,4-4,4Zm5.5,8v-3c0-1.629-1.3-2.947-2.918-2.992l-2.582,2.992-2.621-2.988c-1.6.065-2.879,1.372-2.879,2.988v3m24,0v-3c0-1.629-1.3-2.947-2.918-2.992l-2.582,2.992-2.621-2.988c-1.6.065-2.879,1.372-2.879,2.988v3"/>
</svg>
