<?xml version="1.0" encoding="UTF-8"?>
<svg xmlns="http://www.w3.org/2000/svg" id="Layer_1" data-name="Layer 1" viewBox="0 0 24 24">
  <path d="m15.599,6.717c.253-.519.401-1.099.401-1.717h1.5c.828,0,1.5.672,1.5,1.5v3.919c-.644-.278-1.338-.416-2.034-.41v-.842c-.096-1-.606-1.874-1.367-2.45Zm-8.568,3.286v-.815c.091-1.009.603-1.891,1.369-2.471-.253-.519-.401-1.099-.401-1.717h-1.5c-.828,0-1.5.672-1.5,1.5v3.912c.005,0,.01-.001.016-.002.64-.275,1.328-.411,2.016-.407Zm3.299,1.272l1.67,1.536,1.64-1.51c.416-.372.876-.663,1.36-.874v-.928c0-.828-.672-1.5-1.5-1.5h-3c-.828,0-1.5.672-1.5,1.5v.919c.474.207.924.492,1.33.855Zm-2.33-7.275c1.105,0,2-.895,2-2S9.105,0,8,0s-2,.895-2,2,.895,2,2,2Zm4,3c1.105,0,2-.895,2-2s-.895-2-2-2-2,.895-2,2,.895,2,2,2Zm4-3c1.105,0,2-.895,2-2S17.105,0,16,0s-2,.895-2,2,.895,2,2,2Zm2.707,9.101c-.739-1.254-2.39-1.457-3.407-.533l-1.813,1.646.874.794c.918.834,1.465,1.987,1.587,3.212l2.487-2.532c.603-.728.752-1.772.272-2.586Zm5.293-6.601v12.39c0,.998-.373,1.961-1.047,2.698l-2.203,2.412h-4.75v-3.019l4.033-4.088c.689-.832,1.005-1.871.956-2.893h.011v-7.5c0-.828.672-1.5,1.5-1.5s1.5.672,1.5,1.5Zm-10,12.208v5.292H3.25l-2.203-2.412c-.673-.737-1.047-1.699-1.047-2.698V6.5c0-.828.672-1.5,1.5-1.5s1.5.672,1.5,1.5v7.5h.011c-.05,1.022.267,2.061.956,2.893l3.437,3.472,1.404-1.404-3.243-3.275c-.603-.728-.752-1.772-.272-2.586.739-1.254,2.39-1.457,3.407-.533l4.317,3.92c.626.569.983,1.375.983,2.221Z"/>
</svg>
