<?xml version="1.0" encoding="UTF-8"?>
<svg xmlns="http://www.w3.org/2000/svg" id="Layer_1" data-name="Layer 1" viewBox="0 0 24 24">
  <path d="m23.121,6.151L17.849.878c-.567-.566-1.321-.878-2.121-.878h-7.455c-.8,0-1.554.312-2.122.879L.879,6.151c-.566.567-.879,1.32-.879,2.121v7.456c0,.801.312,1.554.879,2.121l5.272,5.273c.567.566,1.321.878,2.121.878h7.455c.8,0,1.554-.312,2.122-.879l5.271-5.272c.566-.567.879-1.32.879-2.121v-7.456c0-.801-.313-1.554-.879-2.121Zm-12.121-.151h2v7h-2v-7Zm1,12c-.828,0-1.5-.672-1.5-1.5s.672-1.5,1.5-1.5,1.5.672,1.5,1.5-.672,1.5-1.5,1.5Z"/>
</svg>
