<?xml version="1.0" encoding="UTF-8"?>
<svg xmlns="http://www.w3.org/2000/svg" id="Layer_1" data-name="Layer 1" viewBox="0 0 24 24">
  <path d="m14,.168v.332c0,1.105-.895,2-2,2s-2-.895-2-2V.168C4.332,1.123,0,6.064,0,12s4.332,10.877,10,11.832v-.332c0-1.105.895-2,2-2s2,.895,2,2v.332c5.668-.955,10-5.897,10-11.832S19.668,1.123,14,.168Zm-5.87,4.832h7.74c.915.507,1.719,1.189,2.37,2H5.76c.651-.811,1.454-1.493,2.37-2Zm7.74,14h-7.74c-.915-.507-1.719-1.189-2.37-2h12.479c-.651.811-1.454,1.493-2.37,2Zm3.543-4H4.587c-.256-.631-.431-1.301-.518-2h15.862c-.087.699-.262,1.369-.518,2Zm-15.344-4c.087-.699.262-1.369.518-2h14.826c.256.631.431,1.301.518,2H4.069Z"/>
</svg>
