<?xml version="1.0" encoding="UTF-8"?>
<svg xmlns="http://www.w3.org/2000/svg" id="Layer_1" data-name="Layer 1" viewBox="0 0 24 24">
  <path d="m7.062,24l-5.416-5.588c-.713-.715-.88-1.87-.276-2.68.63-.845,1.741-1.031,2.584-.561.201.131.353.245.441.333l2.605,2.65V5.5c0-.911.812-1.632,1.752-1.479.737.12,1.248.813,1.248,1.56v6.92l12,3v8.5H7.062ZM8.5,0C4.916,0,2,2.916,2,6.5c0,2.295,1.199,4.312,3,5.468v-2.675c-.616-.77-1-1.733-1-2.794,0-2.481,2.019-4.5,4.5-4.5s4.5,2.019,4.5,4.5c0,1.061-.384,2.024-1,2.794v2.675c1.801-1.157,3-3.173,3-5.468,0-3.584-2.916-6.5-6.5-6.5Z"/>
</svg>
