<?xml version="1.0" encoding="UTF-8"?>
<svg xmlns="http://www.w3.org/2000/svg" id="Layer_1" data-name="Layer 1" viewBox="0 0 24 24">
  <path d="m8.757,16h5v1.6h-1.751v6.4h-1.6v-6.4h-1.649v-1.6Zm11.743,8h3.5v-1.6h-1.9v-1.551h1.9v-1.6h-1.9v-1.65h1.9v-1.6h-3.5v8Zm-2.761-2.27c0,.386-.314.7-.7.7s-.7-.314-.7-.7v-5.73h-1.6v5.73c0,1.269,1.031,2.3,2.3,2.3s2.3-1.031,2.3-2.3v-5.73h-1.6v5.73Zm3.261-19.73h-3V0h-2v2h-8V0h-2v2h-3c-1.657,0-3,1.343-3,3v3h24v-3c0-1.657-1.343-3-3-3ZM0,24h8.406v-4.4h-1.649v-5.6h17.243v-4H0v14Z"/>
</svg>
