<?xml version="1.0" encoding="UTF-8"?>
<svg xmlns="http://www.w3.org/2000/svg" id="Layer_1" data-name="Layer 1" viewBox="0 0 24 24">
  <path d="m23.957,7.593c-.203-1.827-1.096-3.615-2.516-5.034C20.022,1.14,18.234.247,16.407.043c-1.908-.213-3.638.347-4.865,1.572-.914.913-1.462,2.121-1.585,3.493-.08.887-.635,1.757-1.524,2.389-1.962,1.394-2.843,3.829-2.243,6.202.169.667.462,1.291.852,1.846L.062,22.523l1.414,1.414,6.979-6.979c.555.39,1.179.683,1.846.852.495.125.993.186,1.483.186,1.86,0,3.615-.875,4.718-2.429.631-.889,1.501-1.444,2.389-1.523,1.372-.124,2.579-.673,3.492-1.586,1.227-1.226,1.785-2.954,1.573-4.865Z"/>
</svg>
