<?xml version="1.0" encoding="UTF-8"?>
<svg xmlns="http://www.w3.org/2000/svg" id="Layer_1" data-name="Layer 1" viewBox="0 0 24 24">
  <path d="m20.75,17.5c-.641,0-1.239.186-1.742.508l-4.429-3.659c.268-.472.422-1.018.422-1.599,0-1.411-.904-2.615-2.164-3.063l.332-3.319c1.11-.328,1.975-1.234,2.244-2.368h2.175c.34,1.432,1.629,2.5,3.162,2.5,1.792,0,3.25-1.458,3.25-3.25s-1.458-3.25-3.25-3.25c-1.349,0-2.509.827-3,2h-2.5c-.491-1.173-1.651-2-3-2-1.792,0-3.25,1.458-3.25,3.25,0,1.411.904,2.615,2.164,3.063l-.332,3.319c-1.11.328-1.975,1.234-2.244,2.368h-2.245c-.423-1.304-1.649-2.25-3.092-2.25-1.792,0-3.25,1.458-3.25,3.25s1.458,3.25,3.25,3.25c1.443,0,2.67-.946,3.092-2.25h2.408c.491,1.173,1.651,2,3,2,.477,0,.93-.103,1.339-.289l4.643,3.835c-.149.372-.231.779-.231,1.204,0,1.792,1.458,3.25,3.25,3.25s3.25-1.458,3.25-3.25-1.458-3.25-3.25-3.25Zm-14.75,3c0,.828-.672,1.5-1.5,1.5s-1.5-.672-1.5-1.5.672-1.5,1.5-1.5,1.5.672,1.5,1.5Zm18-9c0,.828-.672,1.5-1.5,1.5s-1.5-.672-1.5-1.5.672-1.5,1.5-1.5,1.5.672,1.5,1.5Zm-11,11c0,.828-.672,1.5-1.5,1.5s-1.5-.672-1.5-1.5.672-1.5,1.5-1.5,1.5.672,1.5,1.5ZM0,1.5C0,.672.672,0,1.5,0s1.5.672,1.5,1.5-.672,1.5-1.5,1.5-1.5-.672-1.5-1.5Zm4,4c0-.828.672-1.5,1.5-1.5s1.5.672,1.5,1.5-.672,1.5-1.5,1.5-1.5-.672-1.5-1.5Z"/>
</svg>
