<?xml version="1.0" encoding="UTF-8"?>
<svg xmlns="http://www.w3.org/2000/svg" id="Layer_1" data-name="Layer 1" viewBox="0 0 24 24">
  <path d="m21,21.5v2.5H3v-2.5c0-2.395,1.885-4.34,4.247-4.474l2.753,4.474,2-3,2,3,2.753-4.474c2.362.134,4.247,2.08,4.247,4.474ZM6.872,4.027c1.529-1.433,3.531-2.141,5.63-2.011,3.924.254,6.999,3.669,6.999,7.774,0,1.77-1.439,3.209-3.209,3.209h-2.406c-.244-.829-1.002-1.439-1.91-1.439-1.105,0-2,.895-2,2s.895,2,2,2c.538,0,1.025-.215,1.384-.561h2.932c2.872,0,5.209-2.337,5.209-5.209C21.5,4.634,17.604.342,12.63.021c-2.664-.173-5.191.732-7.126,2.548-1.787,1.675-2.861,3.996-2.99,6.432h2.003c.123-1.903.948-3.654,2.355-4.973Zm8.237,6.984c.023-.005.053-.011.053-.011h1.306c.501,0,.939-.368.997-.866.068-.587.043-1.202-.091-1.831-.444-2.079-2.131-3.756-4.213-4.184-3.537-.727-6.659,1.97-6.659,5.381,0,1.469.579,2.805,1.52,3.792,0,0,0,0,0-.001.111-2.11,1.841-3.791,3.979-3.791,1.263,0,2.375.597,3.108,1.511Z"/>
</svg>
