<?xml version="1.0" encoding="UTF-8"?>
<svg xmlns="http://www.w3.org/2000/svg" id="Layer_1" data-name="Layer 1" viewBox="0 0 24 24">
  <path d="m16,18c-1.012,5.232-5.09,5.952-7,5.996v.004h-2v-.004c-1.91-.044-5.988-.765-7-5.996,4.001,0,5.997,1.669,7,3.241v-4.827c-1.721-.447-3-2-3-3.858,0-2.094,1.652-4.064,2.26-4.719.264,1.404.74,3.164,2.74,5.164-.5-2.5-1-4.5-.845-5.964.526.035,1.041.238,1.423.629.404.412,2.422,2.585,2.422,4.891,0,1.858-1.279,3.411-3,3.858v4.827c1.003-1.572,2.999-3.241,7-3.241Zm5.319-12.75c.273-.359.681-1.019.681-1.788,0-1.402-1.846-3.462-1.846-3.462,0,0-3.154,1.538-3.154,3.5,0,.788.436,2.034,1,2.5-.466-.564-1.712-1-2.5-1-1.962,0-3.5,3.154-3.5,3.154,0,0,2.06,1.846,3.462,1.846.77,0,1.43-.407,1.788-.681,0,2.681,2.75,2.681,2.75,2.681v-2.308c0-.923-.712-2.336-1-2.692.357.288,1.769,1,2.692,1h2.308s0-2.75-2.681-2.75Zm-6.819-1.25c.828,0,1.5-.672,1.5-1.5s-.672-1.5-1.5-1.5-1.5.672-1.5,1.5.672,1.5,1.5,1.5Z"/>
</svg>
