<?xml version="1.0" encoding="UTF-8"?>
<svg xmlns="http://www.w3.org/2000/svg" id="Layer_1" data-name="Layer 1" viewBox="0 0 24 24">
  <path d="m24,7.616h0l-3.826,2.335,1.438,4.245h0s0,0,0,0l-5.612-1.969v-6.228h-5.047l-1.204-3.557h0,0s3.836,1.392,3.836,1.392l1.392-3.836,2.335,3.826,4.245-1.438h0s0,0,0,0l-1.392,3.836,3.836,1.392h0Zm-15.727,3.646c.974-.979.969-2.562-.01-3.536s-2.562-.969-3.536.01c-.974.979-.969,2.562.01,3.536.979.974,2.562.969,3.536-.01Zm7.81,9.068l5.599,1.618-.556,1.922-5.054-1.462-5.373,1.492c-.237.054-.475.08-.707.08-1.205,0-2.295-.702-2.77-1.828l-3.056-7.153H0v-6h2v4h3.434l6.566-.875v-4.125h2v5.876l-3.762.501,2.102,5.08,3.335-3.457h5.325v2h-4.475l-2.91,3.017,2.469-.686Z"/>
</svg>
