<?xml version="1.0" encoding="UTF-8"?>
<svg xmlns="http://www.w3.org/2000/svg" id="Layer_1" data-name="Layer 1" viewBox="0 0 24 24">
  <path d="m15.888,1.611c-1.039-1.039-2.419-1.611-3.888-1.611s-2.851.572-3.888,1.611c-1.04,1.038-1.612,2.419-1.612,3.889s.576,2.854,1.649,3.926l3.851,3.572,3.888-3.609c1.04-1.038,1.612-2.419,1.612-3.889s-.572-2.851-1.612-3.889Zm-3.888,5.395c-.828,0-1.5-.672-1.5-1.5s.672-1.5,1.5-1.5,1.5.672,1.5,1.5-.672,1.5-1.5,1.5ZM1.74,11.632l.502-3.109c.199-1.232,1.118-2.171,2.287-2.438.139,1.787.911,3.463,2.26,4.807l5.212,4.835,5.301-4.923c1.279-1.277,2.033-2.935,2.17-4.719,1.169.267,2.088,1.206,2.287,2.438l.841,5.243-12.214,5.552L1.74,11.632Zm21.187,4.18l1.073,6.688v1.5h-8.346l-3.634-3.23,10.907-4.958Zm-10.284,8.188H0l.013-1.659,1.35-8.369,11.281,10.028Z"/>
</svg>
