<?xml version="1.0" encoding="UTF-8"?>
<svg xmlns="http://www.w3.org/2000/svg" id="Layer_1" data-name="Layer 1" viewBox="0 0 24 24" width="512" height="512"><path d="M16,8c-.552,0-1,.448-1,1v2c0,.552,.448,1,1,1h5c.552,0,1-.448,1-1v-2c0-.552-.448-1-1-1h-5Zm2,3c-.552,0-1-.448-1-1s.448-1,1-1,1,.448,1,1-.448,1-1,1ZM3,6c-.611,0-1.179,.186-1.654,.501C3.344,2.645,7.365,0,12,0s8.656,2.645,10.654,6.501c-.475-.315-1.043-.501-1.654-.501h-5c-1.302,0-2.402,.839-2.816,2h-2.369c-.414-1.161-1.514-2-2.816-2H3Zm20.966,5.334c-.169,1.496-1.426,2.666-2.966,2.666h-5c-1.654,0-3-1.346-3-3v-1h-2v1c0,1.654-1.346,3-3,3H3C1.46,14,.202,12.83,.034,11.334c-.012,.222-.034,.441-.034,.666,0,6.617,5.383,12,12,12s12-5.383,12-12c0-.225-.021-.444-.034-.666Zm-11.966,7.666c-3.107,0-5.563-2.162-5.666-2.254l1.33-1.493c.02,.017,2.005,1.747,4.336,1.747s4.316-1.73,4.336-1.747l1.33,1.493c-.103,.092-2.559,2.254-5.666,2.254Zm-4-11H3c-.552,0-1,.448-1,1v2c0,.552,.448,1,1,1h5c.552,0,1-.448,1-1v-2c0-.552-.448-1-1-1Zm-2,3c-.552,0-1-.448-1-1s.448-1,1-1,1,.448,1,1-.448,1-1,1Z"/></svg>
