<?xml version="1.0" encoding="UTF-8"?>
<svg xmlns="http://www.w3.org/2000/svg" id="Layer_1" data-name="Layer 1" viewBox="0 0 24 24">
  <path d="m20,9h-2v-1c0-3.309-2.691-6-6-6s-6,2.691-6,6v1h-2v-1C4,3.589,7.589,0,12,0s8,3.589,8,8v1Zm-4-1c0-2.206-1.794-4-4-4s-4,1.794-4,4v1h2v-1c0-1.103.897-2,2-2s2,.897,2,2v1h2v-1Zm8-3.951v16.834l-12,2.182L0,20.883V4.049c0-.892.393-1.731,1.078-2.303.684-.571,1.577-.81,2.458-.648l1.021.248c-1.584,1.77-2.557,4.098-2.557,6.655v3h9v9.85l1,.182,1-.182v-9.85h9v-3c0-2.557-.973-4.886-2.558-6.656l.964-.235c.937-.171,1.83.064,2.516.636.686.572,1.078,1.411,1.078,2.303ZM8,15.292l-1.774-.518-.518-1.774h-.404l-.525,1.773-1.778.519v.404l1.777.526.526,1.777h.404l.519-1.778,1.773-.525v-.404Zm13,1l-1.774-.518-.518-1.774h-.404l-.525,1.773-1.778.519v.404l1.777.526.526,1.777h.404l.519-1.778,1.773-.525v-.404Z"/>
</svg>
