<?xml version="1.0" encoding="UTF-8"?>
<svg xmlns="http://www.w3.org/2000/svg" id="Layer_1" data-name="Layer 1" viewBox="0 0 24 24">
  <path d="m23.532,14.151c.517.771.611,1.745.256,2.605-1.12,2.705-4.076,5.48-7.552,7.243H7.764c-3.476-1.763-6.432-4.539-7.552-7.243H.212c-.355-.861-.261-1.834.256-2.606.481-.721,1.271-1.151,2.111-1.151h18.842c.84,0,1.63.43,2.111,1.151Zm-3.38-9.147l.008-.005s-1.182-2.921-1.982-3.722-4.177-1.278-4.177-1.278c0,0,.431,3.33,1.232,4.13.487.487,1.138.742,1.787.87l.006.004h-3.37s.005-.004.005-.004c0,0-1.182-2.921-1.982-3.722S7.5,0,7.5,0c0,0,.431,3.33,1.232,4.13.487.487,1.138.742,1.787.87l.004.003h-3.253c-.864-.648-1.99-1.37-2.712-1.37C3.249,3.633,0,6.002,0,6.002c0,0,3.249,2.369,4.557,2.369.722,0,1.848-.722,2.712-1.369h3.235c-.646.129-1.293.384-1.777.869-.802.802-1.226,4.129-1.226,4.129,0,0,3.328-.425,4.129-1.226.787-.787,1.987-3.665,2.031-3.77h3.337c-.644.13-1.288.385-1.771.868-.802.802-1.226,4.129-1.226,4.129,0,0,3.328-.425,4.129-1.226.784-.784,1.979-3.646,2.03-3.769h3.841s0-1.999,0-1.999h-3.848Z"/>
</svg>
