<?xml version="1.0" encoding="UTF-8"?>
<svg xmlns="http://www.w3.org/2000/svg" id="Layer_1" data-name="Layer 1" viewBox="0 0 24 24" width="512" height="512"><path d="M12.35,13h1.41c2.56,0,5.01-.8,7.08-2.31l1.7-1.24c-.91-2.05-1.8-3.88-2.73-5.03C17.36,1.16,13.5-.45,9.45,.11,6.36,.53,3.68,2.28,1.96,4.75L12.35,13ZM3,24v-4.71c0-.46-.16-.91-.46-1.26C.67,15.78-.22,12.92,.05,9.98c.11-1.22,.43-2.39,.92-3.47L11.15,14.6l3.13,9.4H3ZM23.91,12.59l.09,.19v6.21c0,2.76-2.24,5-5,5h-2.61l-3-9h.37c2.99,0,5.85-.93,8.26-2.7l1.34-.98c.19,.43,.37,.85,.56,1.27Z"/></svg>
