<?xml version="1.0" encoding="UTF-8"?>
<svg xmlns="http://www.w3.org/2000/svg" id="Layer_1" data-name="Layer 1" viewBox="0 0 24 24">
  <path d="m21.698,6.54l-4.269-4.269,1.329-1.327c1.133-1.133,2.947-1.262,4.129-.296.663.542,1.067,1.341,1.11,2.191.042.851-.279,1.684-.881,2.286l-1.417,1.415Zm-6.877,6.868l9.136,9.136-1.414,1.414L.043,1.457,1.457.043l6.108,6.108,3.339-3.339c1.169-1.171,3.072-1.17,4.243,0l5.136,5.14-5.461,5.455Zm-4.277-4.277l4.056-4.036-.867-.867c-.39-.39-1.025-.389-1.415,0l-3.339,3.339,1.565,1.565Zm-7.387,7.35c-.849.848-1.194,3.055-1.322,4.235L.043,22.507l1.414,1.414,1.836-1.836c1.198-.135,3.326-.484,4.155-1.313l4.536-4.531-4.283-4.283-4.545,4.522Z"/>
</svg>
