<?xml version="1.0" encoding="UTF-8"?>
<svg xmlns="http://www.w3.org/2000/svg" id="Layer_1" data-name="Layer 1" viewBox="0 0 24 24">
  <path d="m16.015,20c-.005.105-.015.209-.015.315v3.685h-8v-3.851c0-.05-.007-.099-.008-.149h8.024Zm-10.147-4.417c-2.149-2.001-3.167-4.83-2.793-7.761C3.59,3.782,6.904.517,10.956.059c2.568-.289,5.13.522,7.038,2.227,1.91,1.707,3.006,4.154,3.006,6.714,0,2.59-1.118,5.055-3.068,6.763-.675.592-1.185,1.364-1.513,2.237H7.563c-.358-.877-.926-1.702-1.695-2.417Zm1.85-5.27l-1.416.816.998,1.733,1.411-.813c.605.652,1.393,1.125,2.289,1.33v1.621h2v-1.621c.896-.205,1.685-.678,2.289-1.33l1.411.813.998-1.733-1.416-.816c.129-.418.218-.853.218-1.313s-.089-.895-.218-1.313l1.416-.816-.998-1.733-1.411.813c-.605-.652-1.393-1.125-2.289-1.33v-1.621h-2v1.621c-.896.205-1.685.678-2.289,1.33l-1.411-.813-.998,1.733,1.416.816c-.129.418-.218.853-.218,1.313s.089.895.218,1.313Zm4.282,1.187c1.379,0,2.5-1.122,2.5-2.5s-1.121-2.5-2.5-2.5-2.5,1.122-2.5,2.5,1.121,2.5,2.5,2.5Z"/>
</svg>
