<?xml version="1.0" encoding="UTF-8"?>
<svg xmlns="http://www.w3.org/2000/svg" id="Layer_1" data-name="Layer 1" viewBox="0 0 24 24" width="512" height="512"><path d="m15.5,2.5c0-1.381,1.119-2.5,2.5-2.5s2.5,1.119,2.5,2.5-1.119,2.5-2.5,2.5-2.5-1.119-2.5-2.5Zm6.065,8.5l-2.135-3.547c-.539-.896-1.524-1.453-2.57-1.453h-7.478l-2.276,4.553,1.789.895,1.724-3.447h1.836l-1.753,4.273c-.553,1.349-.06,2.894,1.172,3.674l4.117,2.604v5.449h2v-6.551l-2.672-1.69,2.821-6.573,2.295,3.813h3.565v-2h-2.435Zm-11.741,5.801l-.494,1.199h-5.331v-2h1.874c.099-1.519.126-2.96.126-4,0-3.608-.292-12-3-12S0,8.392,0,12s.292,12,3,12c1.237,0,1.966-1.754,2.396-4h5.273l.8-1.942-.665-.421c-.374-.236-.691-.526-.98-.837Z"/></svg>
