<?xml version="1.0" encoding="UTF-8"?>
<svg xmlns="http://www.w3.org/2000/svg" id="Layer_1" data-name="Layer 1" viewBox="0 0 24 24" width="512" height="512"><path d="M17.43,11.35c.97-.99,1.57-2.35,1.57-3.85,0-2.86-2.2-5.22-5-5.47V0h-2V2h-2V0h-2V2h-1c-1.65,0-3,1.35-3,3v14c0,1.65,1.35,3,3,3h1v2h2v-2h2v2h2v-2h1.5c3.03,0,5.5-2.47,5.5-5.5,0-2.36-1.49-4.37-3.57-5.15ZM6,5c0-.55,.45-1,1-1h6.5c1.93,0,3.5,1.57,3.5,3.5s-1.57,3.5-3.5,3.5H6V5Zm9.5,15H7c-.55,0-1-.45-1-1v-6H15.5c1.93,0,3.5,1.57,3.5,3.5s-1.57,3.5-3.5,3.5Z"/></svg>
