<?xml version="1.0" encoding="UTF-8"?>
<svg xmlns="http://www.w3.org/2000/svg" id="Layer_1" data-name="Layer 1" viewBox="0 0 24 24">
  <path d="m7.171,9.432c-.504-.452-1.092-.813-1.738-1.055.45-.509.921-1.012,1.413-1.504C12.882.838,19.874-1.626,22.765,1.263c1.485,1.484,1.636,4.026.424,7.157-.052.135-.108.271-.165.407-.388-.682-.879-1.298-1.454-1.825.64-1.983.568-3.538-.22-4.325-.435-.435-1.103-.651-1.947-.651-.862,0-1.907.226-3.076.678-2.613,1.011-5.478,2.994-8.068,5.584-.376.376-.739.759-1.089,1.145Zm5.123,9.305c-1.558,1.143-3.131,2.037-4.623,2.614-2.313.896-4.145.904-5.022.026-.533-.533-.738-1.418-.617-2.549-.69-.191-1.326-.513-1.879-.938-.391,2.093-.027,3.792,1.082,4.901.819.818,1.966,1.208,3.328,1.208,2.707,0,6.261-1.538,9.758-4.295-.729-.221-1.41-.549-2.027-.968ZM4.5,1c-.828,0-1.5.672-1.5,1.5s.672,1.5,1.5,1.5,1.5-.672,1.5-1.5-.672-1.5-1.5-1.5Zm2.5,12.5c0-1.93-1.57-3.5-3.5-3.5s-3.5,1.57-3.5,3.5,1.57,3.5,3.5,3.5,3.5-1.57,3.5-3.5Zm10.5,7.5c-.828,0-1.5.672-1.5,1.5s.672,1.5,1.5,1.5,1.5-.672,1.5-1.5-.672-1.5-1.5-1.5Zm5-3c-.828,0-1.5.672-1.5,1.5s.672,1.5,1.5,1.5,1.5-.672,1.5-1.5-.672-1.5-1.5-1.5Zm-11.325-4.123c.613,2.368,2.768,4.123,5.325,4.123s4.712-1.755,5.325-4.123c-1.297.53-3.218,1.123-5.325,1.123s-4.028-.592-5.325-1.123Zm12.301-2.568c-.034-.018-.716-.382-1.793-.651-.759-2.129-2.795-3.658-5.182-3.658s-4.423,1.529-5.182,3.658c-1.078.269-1.759.633-1.793.651l-.524.298v1.162l.486.291c.057.035.687.407,1.688.817-.114-.44-.175-.902-.175-1.377,0-.294.023-.582.068-.863.972.475,3.101,1.363,5.432,1.363s4.46-.888,5.432-1.363c.045.281.068.57.068.863,0,.475-.061.937-.175,1.377,1.001-.409,1.631-.782,1.688-.817l.486-.305v-1.162l-.524-.284Z"/>
</svg>
