<?xml version="1.0" encoding="UTF-8"?>
<svg xmlns="http://www.w3.org/2000/svg" id="Layer_1" data-name="Layer 1" viewBox="0 0 24 24">
  <path d="m21,3v2h-2v4H5V3c0-1.654,1.346-3,3-3h8c1.654,0,3,1.346,3,3h2Zm-1.463,8H4.463c-.812.64-1.293,1.442-1.412,2.17.512,1.631,5.296,1.83,8.949,1.83s8.437-.199,8.949-1.83c-.119-.728-.6-1.53-1.412-2.17Zm-15.883,5.092c.988,1.96,3.111,3.767,6.466,4.266-1.12,2.143-3.12,1.138-3.12,3.643h10c0-2.505-2-1.5-3.12-3.643,3.356-.498,5.478-2.306,6.466-4.266-2.148.801-5.302.908-8.346.908s-6.198-.107-8.346-.908Z"/>
</svg>
