<?xml version="1.0" encoding="UTF-8"?>
<svg xmlns="http://www.w3.org/2000/svg" id="Layer_1" data-name="Layer 1" viewBox="0 0 24 24">
  <path d="m17.61,22l.805,2H5.584l.805-2h11.221Zm6.39-14.651v16.651h-3.5l-.805-2h2.305v-2h-9v-4.5l2.125-1.699-1.249-1.562-2.875,2.301v5.461H2v2h2.305l-.805,2H0V7.349c0-1.186.691-2.282,1.761-2.793L10.666.302c.849-.404,1.821-.404,2.668,0l8.905,4.254c1.07.511,1.761,1.606,1.761,2.793Zm-2,.651v-.651c0-.413-.25-.811-.623-.988l-.714-.341H3.337l-.714.341c-.373.178-.623.575-.623.988v.651l3,.02v2h2v-2h4v2h2v-2h4v2h2v-2l3-.02Z"/>
</svg>
