<?xml version="1.0" encoding="UTF-8"?>
<svg xmlns="http://www.w3.org/2000/svg" id="Layer_1" data-name="Layer 1" viewBox="0 0 24 24">
  <path d="m.043,5.543l2.043-2.043L.043,1.457,1.457.043l2.043,2.043L5.543.043l1.414,1.414-2.043,2.043,2.043,2.043-1.414,1.414-2.043-2.043-2.043,2.043L.043,5.543Zm9.414,5.414l2.043-2.043,2.043,2.043,1.414-1.414-2.043-2.043,2.043-2.043-1.414-1.414-2.043,2.043-2.043-2.043-1.414,1.414,2.043,2.043-2.043,2.043,1.414,1.414Zm10.086,6.086l-2.043,2.043-2.043-2.043-1.414,1.414,2.043,2.043-2.043,2.043,1.414,1.414,2.043-2.043,2.043,2.043,1.414-1.414-2.043-2.043,2.043-2.043-1.414-1.414Zm4.447-13.879l-2.584-2.582c-.775-.774-2.037-.774-2.812,0l-2.584,2.582,1.414,1.415,1.576-1.584v9.006c0,.551-.448,1-1,1l-12.992-.004c-1.651,0-2.997,1.344-3,2.993l-.005,2.194c-1.163.413-2.003,1.514-2.003,2.817,0,1.654,1.346,3,3,3s3-1.346,3-3c0-1.301-.837-2.4-1.997-2.815l.005-2.19c0-.551.449-.999,1-.999l12.992.004c1.654,0,3-1.346,3-3V3.004l1.576,1.575,1.414-1.415Z"/>
</svg>
