<?xml version="1.0" encoding="UTF-8"?>
<svg xmlns="http://www.w3.org/2000/svg" id="Layer_1" data-name="Layer 1" viewBox="0 0 24 24">
  <path d="m20.905,3.095c-.458-2.105-2.482-3.095-3.905-3.095-1.178,0-2,.78-2,1.898v4.976l-1.437-1.437-1.415,1.414,1.793,1.793-1.269,1.269-2.543-2.543-1.414,1.414,2.543,2.543-1.4,1.4-3.293-3.293-1.414,1.414,3.293,3.293-1.08,1.08c-1.374-1.155-3.004-2.015-4.808-2.426l-.815-.186-.327.769c-.965,2.271-1.415,5.328-1.415,9.622v1h1c4.294,0,7.352-.45,9.622-1.416l.769-.327-.186-.814c-.41-1.804-1.27-3.434-2.426-4.808l1.08-1.08,3.293,3.293,1.414-1.414-3.293-3.293,1.4-1.4,2.543,2.543,1.414-1.414-2.543-2.543,1.269-1.269,1.793,1.793,1.414-1.414-1.437-1.438h4.976c1.118,0,1.898-.822,1.898-2,0-1.423-.989-3.447-3.095-3.905ZM4.5,21c-.828,0-1.5-.672-1.5-1.5s.672-1.5,1.5-1.5,1.5.672,1.5,1.5-.672,1.5-1.5,1.5Z"/>
</svg>
