<?xml version="1.0" encoding="UTF-8"?>
<svg xmlns="http://www.w3.org/2000/svg" id="Layer_1" data-name="Layer 1" viewBox="0 0 24 24">
  <path d="m2,2.5c0-1.381,1.119-2.5,2.5-2.5s2.5,1.119,2.5,2.5-1.119,2.5-2.5,2.5-2.5-1.119-2.5-2.5Zm13,3.5v2h-7v6H0v-5c0-1.654,1.346-3,3-3h12ZM21,0h-12.76c.479.715.76,1.575.76,2.5,0,.526-.092,1.031-.258,1.5h8.258v6h-7v4h8v-2h4v2h2V3c0-1.657-1.343-3-3-3ZM3.5,20c1.105,0,2-.895,2-2s-.895-2-2-2-2,.895-2,2,.895,2,2,2Zm8.5,0c1.105,0,2-.895,2-2s-.895-2-2-2-2,.895-2,2,.895,2,2,2Zm8.5,0c1.105,0,2-.895,2-2s-.895-2-2-2-2,.895-2,2,.895,2,2,2Zm-13.5,3c0-1.103-.897-2-2-2h-3c-1.103,0-2,.897-2,2v1h7v-1Zm17,0c0-1.103-.897-2-2-2h-3c-1.103,0-2,.897-2,2v1h7v-1Zm-8.5,0c0-1.103-.897-2-2-2h-3c-1.103,0-2,.897-2,2v1h7v-1Z"/>
</svg>
