<?xml version="1.0" encoding="UTF-8"?>
<svg xmlns="http://www.w3.org/2000/svg" id="Layer_1" data-name="Layer 1" viewBox="0 0 24 24" width="512" height="512"><path d="M20,0H5c-1.657,0-3,1.343-3,3v15.765c.549-.494,1.262-.766,2-.765H22V2c0-1.105-.895-2-2-2ZM6.09,11h2.935c.052,1.153,.215,3.018,.7,4.537-1.88-.778-3.287-2.475-3.635-4.537Zm2.935-2h-2.935c.348-2.062,1.755-3.759,3.635-4.537-.485,1.519-.648,3.384-.7,4.537Zm2.975,6.829c-.37-.599-.87-2.265-.977-4.829h1.954c-.107,2.564-.607,4.23-.977,4.829Zm-.977-6.829c.107-2.564,.607-4.23,.977-4.829,.37,.599,.87,2.265,.977,4.829h-1.954Zm3.252,6.537c.485-1.519,.648-3.384,.7-4.537h2.935c-.348,2.062-1.755,3.759-3.635,4.537Zm.7-6.537c-.052-1.153-.215-3.018-.7-4.537,1.88,.778,3.287,2.475,3.635,4.537h-2.935ZM4,20H22v4H4c-1.105,0-2-.895-2-2s.895-2,2-2Z"/></svg>
