<?xml version="1.0" encoding="UTF-8"?>
<svg xmlns="http://www.w3.org/2000/svg" id="Layer_1" data-name="Layer 1" viewBox="0 0 24 24">
  <path d="m20.003,3.058C17.465.785,14.053-.298,10.638.075,5.126.684.684,5.126.075,10.639c-.67,6.064,3.155,11.765,8.897,13.257.27.07.542.104.813.104.701,0,1.386-.231,1.958-.674.798-.617,1.256-1.549,1.256-2.557v-2.77c2.206,0,4-1.794,4-4v-2h1v-2h-3v-4h-2v4h-2v-4h-2v4h-3v2h1v2c0,2.206,1.794,4,4,4v2.77c0,.384-.175.738-.479.974-.301.232-.681.311-1.045.217-4.709-1.225-7.965-6.101-7.412-11.103C2.57,6.269,6.269,2.57,10.857,2.063c2.891-.316,5.665.562,7.812,2.484,2.117,1.896,3.331,4.612,3.331,7.452,0,4.469-2.948,8.261-7,9.539v2.066c5.167-1.337,9-6.026,9-11.605,0-3.408-1.457-6.667-3.997-8.942Z"/>
</svg>
