<?xml version="1.0" encoding="UTF-8"?>
<svg xmlns="http://www.w3.org/2000/svg" id="Layer_1" data-name="Layer 1" viewBox="0 0 24 24" width="512" height="512"><path d="m18.698,12h2.302c0,1-.135,3.393-.253,3.997-.227,1.161-1.259,2.003-2.455,2.003h-1.245c.8-1.689,1.345-3.678,1.651-6Zm-6.698-6.698v-2.302c-3,0-7.048,1.081-8.378,1.775-1,.522-1.622,1.544-1.622,2.666v2.473c2.241-2.517,5.49-4.017,10-4.612Zm12,1.555c0,.685-.341,1.143-1.026,1.143h-5.99c-.165,7.694-2.268,12.197-7.148,14.369,0,0-.825.397-1.875.696-2.19.639-4.824.934-7.961.934,0-3.133.295-5.765.932-7.953.237-.649.477-1.458.696-1.877,2.171-4.884,6.675-6.989,14.372-7.154V1.026c0-.685.458-1.026,1.143-1.026,1.143,0,3.429.888,3.429,3.429,2.541,0,3.429,2.286,3.429,3.429ZM7.624,19.21l-2.834-2.835-1.414,1.414,2.834,2.835,1.414-1.414Zm3.583-2.417l-4-4-1.414,1.414,4,4,1.414-1.414Zm2.417-3.583l-2.834-2.835-1.414,1.414,2.834,2.835,1.414-1.414Z"/></svg>
