<?xml version="1.0" encoding="UTF-8"?>
<svg xmlns="http://www.w3.org/2000/svg" id="Layer_1" data-name="Layer 1" viewBox="0 0 24 24" width="512" height="512"><path d="M20.13,17.67l1.78,.92c-1.73,3.34-5.13,5.41-8.89,5.41h-1c-5.51,0-10-4.49-10-10v-4C2.02,4.49,6.51,0,12.02,0h1c3.82,0,7.26,2.13,8.96,5.55l-1.79,.89c-1.36-2.74-4.11-4.45-7.17-4.45h-1c-4.41,0-8,3.59-8,8v4c0,3.71,2.55,6.83,5.98,7.73V11h2v1.54c1.06-.95,2.46-1.54,4-1.54h2v2h-2c-2.21,0-4,1.79-4,4v5s.01,0,.02,0h1c3.01,0,5.73-1.66,7.11-4.33Z"/></svg>
