<?xml version="1.0" encoding="UTF-8"?>
<svg xmlns="http://www.w3.org/2000/svg" id="Layer_1" data-name="Layer 1" viewBox="0 0 24 24" width="512" height="512"><path d="m14.346,13.974c.651.639,1.017,1.503,1.004,2.371-.02,1.308-.563,2.879-1.614,4.671-.361.615-1.01.982-1.735.982h0c-.726,0-1.374-.368-1.735-.983-1.071-1.824-1.614-3.421-1.614-4.745,0-1.371.86-2.572,2.191-3.061,1.234-.453,2.575-.145,3.504.766Zm9.375-.593c-.262-.841-.891-1.567-1.724-1.99-.821-.417-1.74-.506-2.584-.25-.382.115-.742.3-1.071.55-1.154.876-1.616,2.307-1.176,3.646.423,1.288,1.468,2.682,3.104,4.142.379.338.87.518,1.37.518.214,0,.429-.033.638-.101.693-.223,1.199-.772,1.354-1.468.459-2.065.489-3.763.088-5.047Zm-18.063-1.689c-.329-.25-.689-.435-1.07-.55-.848-.257-1.764-.168-2.585.25-.833.423-1.462,1.148-1.724,1.99-.401,1.284-.371,2.982.088,5.048.155.696.661,1.245,1.354,1.468.209.067.424.101.638.101.5,0,.991-.18,1.371-.518,1.636-1.46,2.681-2.854,3.104-4.142.439-1.338-.022-2.77-1.176-3.645Zm-1.256-2.618c.256.038.512.077.762.153.395.119.767.3,1.126.508l1.281-3.398c1.069.313,2.221.538,3.429.622v4.16c.67-.142,1.345-.143,2-.004v-4.156c1.207-.084,2.36-.309,3.429-.622l1.281,3.398c.359-.208.731-.389,1.126-.508.25-.076.506-.114.762-.153l-1.282-3.402c3.122-1.283,5.204-3.049,5.338-3.165l-1.306-1.515c-.047.04-4.732,4.008-10.348,4.008S1.699,1.032,1.652.992L.347,2.507c.134.116,2.215,1.882,5.338,3.165l-1.282,3.402Z"/></svg>
