<?xml version="1.0" encoding="UTF-8"?>
<svg xmlns="http://www.w3.org/2000/svg" id="Layer_1" data-name="Layer 1" viewBox="0 0 24 24">
  <path d="m24,10.737C24,5.524,20.048,1.29,14.619.247c1.457,2.26,3.121,3.876,3.376,9.439.599-.372,1.317-.687,2.005-.687,1.063,0,1.702.911,1.954,1.362l-6.283,6.147c-.302-.203-.644-.353-1.01-.435l1.519-5.613C16.179,6.611,13.415,1.951,12.05,0c-.017,0-.033,0-.05,0s-.033,0-.05,0c-1.366,1.95-4.104,6.713-4.104,10.564l1.499,5.509c-.369.082-.712.232-1.016.437l-6.283-6.147c.251-.451.89-1.362,1.954-1.362.688,0,1.406.315,2.005.686.103-3.525,1.914-7.104,3.376-9.439C3.952,1.29,0,5.524,0,10.737v.421l7.128,6.974c-.083.275-.128.566-.128.868v2c0,1.654,1.346,3,3,3h4c1.654,0,3-1.346,3-3v-2c0-.302-.045-.593-.128-.868l7.128-6.974v-.421Zm-12-1.737c.792,0,1.623.417,2.267.857l-1.677,6.143h-1.158l-1.516-6.264c.614-.393,1.365-.736,2.084-.736Z"/>
</svg>
