<?xml version="1.0" encoding="UTF-8"?>
<svg xmlns="http://www.w3.org/2000/svg" id="Layer_1" data-name="Layer 1" viewBox="0 0 24 24">
  <path d="m24,2.498v7.502h-6.854l-2.435,1.696c-.301.202-.643.302-.983.302-.279,0-.558-.068-.812-.204-.565-.302-.916-.888-.916-1.529V2.498C12,1.119,13.121-.002,14.5-.002h7c1.379,0,2.5,1.122,2.5,2.5Zm-8,12.502h2v5h-2v4H2v-4H0v-5h2v-1c0-1.657,1.343-3,3-3h3v-2h2v2c.217,1.081.977,2.025,1.973,2.558.539.288,1.146.44,1.755.44.746,0,1.525-.259,2.181-.699.054.226.091.458.091.701v1Zm-8,2.5c0-.828-.672-1.5-1.5-1.5s-1.5.672-1.5,1.5.672,1.5,1.5,1.5,1.5-.672,1.5-1.5Zm5,0c0-.828-.672-1.5-1.5-1.5s-1.5.672-1.5,1.5.672,1.5,1.5,1.5,1.5-.672,1.5-1.5Z"/>
</svg>
