<?xml version="1.0" encoding="UTF-8"?>
<svg xmlns="http://www.w3.org/2000/svg" id="Layer_1" data-name="Layer 1" viewBox="0 0 24 24">
  <path d="m15.837,19.474l2.163,1.492v3.035h-4v-4h-6v4h-4v-5.354c-.1-.329-.202-.63-.301-.919-.29-.854-.564-1.675-.661-2.806-.567,1.051-1.039,2.646-1.039,5.079H0c0-6.522,3.095-8.375,4.146-8.817.63-.64,1.482-1.044,2.437-1.142.22,1.419.968,3.372,3.216,5.058l3.2,2.4v-.605c.828.928,1.776,1.82,2.837,2.579Zm7.163-13.474l-1.121-.985c-.292-.009-.573-.015-.831-.015-1.709,0-3.048,1.297-3.048,2.952,0,1.681,1.367,3.048,3.048,3.048h.952c1.105,0,2-.895,2-2v-2l-1-1Zm-7,1.952c0-2.777,2.361-4.951,5.192-4.951-1.036-1.794-2.971-3.001-5.192-3.001-2.972,0-6.5,1.5-8,5h3c-1.582.85-2.5,2.5-2.5,4,0,1.232.5,3,2.5,4.5v-3.5c.297,1.04,2.5,5.346,6,7.846,0,0,1.845-2.419,3.147-4.937-2.354-.427-4.147-2.482-4.147-4.957Z"/>
</svg>
