<?xml version="1.0" encoding="UTF-8"?>
<svg xmlns="http://www.w3.org/2000/svg" id="Layer_1" data-name="Layer 1" viewBox="0 0 24 24">
  <path d="m23.387,19.039c-.492-.947-2.407-4.039-6.387-4.039s-5.896,3.092-6.388,4.04l-.239.46.239.461c.492.947,2.406,4.039,6.388,4.039s5.896-3.092,6.387-4.039l.24-.461-.24-.461Zm-6.387,2.461c-1.105,0-2-.895-2-2s.895-2,2-2,2,.895,2,2-.895,2-2,2Zm-8.163-.617l-.717-1.384.717-1.381c.621-1.199,3.049-5.118,8.163-5.118,3.492,0,5.732,1.83,7,3.372V3c0-1.654-1.346-3-3-3H3C1.346,0,0,1.346,0,3v19h9.521c-.322-.457-.547-.853-.684-1.117Zm1.163-15.883h9v2h-9v-2Zm0,5h9v2h-9v-2Zm-3.5,7.5c-.828,0-1.5-.672-1.5-1.5s.672-1.5,1.5-1.5,1.5.672,1.5,1.5-.672,1.5-1.5,1.5Zm0-5c-.828,0-1.5-.672-1.5-1.5s.672-1.5,1.5-1.5,1.5.672,1.5,1.5-.672,1.5-1.5,1.5Zm0-5c-.828,0-1.5-.672-1.5-1.5s.672-1.5,1.5-1.5,1.5.672,1.5,1.5-.672,1.5-1.5,1.5Z"/>
</svg>
