<?xml version="1.0" encoding="UTF-8"?>
<svg xmlns="http://www.w3.org/2000/svg" id="Layer_1" data-name="Layer 1" viewBox="0 0 24 24">
  <path d="m10.586,5.414l-2.577-2.577,1.414-1.414,1.577,1.577V0h2v3l1.597-1.596,1.414,1.414-2.597,2.596c-.39.39-.902.585-1.414.585s-1.024-.195-1.414-.585Zm13.414,4.586v-2.091c0-1.098-.6-2.108-1.563-2.634l-3.918-2.137-3.69,3.69c-.75.75-1.767,1.172-2.828,1.172s-2.078-.421-2.828-1.171l-3.69-3.69-3.918,2.137c-.964.526-1.563,1.536-1.563,2.634v2.091h3v12H0v2h9v-.434c-.782-.35-1.462-.889-1.974-1.566h-2.026v-12h6v2c-1.654,0-3,1.346-3,3,0,1.36.974,2.51,2.315,2.733l3.042.507c.373.062.644.382.644.76,0,.551-.448,1-1,1h-2c-.551,0-1-.449-1-1h-2c0,1.654,1.346,3,3,3v2h2v-2c1.654,0,3-1.346,3-3,0-1.36-.974-2.51-2.315-2.733l-3.041-.507c-.373-.062-.644-.382-.644-.76,0-.551.449-1,1-1h2c.552,0,1,.449,1,1h2c0-1.654-1.346-3-3-3v-2h6v12h-2.026c-.512.677-1.192,1.216-1.974,1.566v.434h9v-2h-3v-12h3Z"/>
</svg>
