<?xml version="1.0" encoding="UTF-8"?>
<svg xmlns="http://www.w3.org/2000/svg" id="Layer_1" data-name="Layer 1" viewBox="0 0 24 24" width="512" height="512"><path d="m18,17V3c0-1.654-1.346-3-3-3H3C1.346,0,0,1.346,0,3v14.854c0,.793.435,1.519,1.134,1.894.318.171.667.255,1.015.255.416,0,.831-.121,1.191-.36l3.963-2.643h10.697Zm-8-3h-2v-2h2v2ZM7.072,3.701c.681-.572,1.577-.814,2.463-.653,1.209.211,2.204,1.205,2.417,2.417.223,1.272-.382,2.543-1.506,3.164-.447.246-.447.486-.447.871v.5h-2v-1c0-1.308,1.038-1.879,1.481-2.123.29-.159.595-.535.502-1.066-.069-.392-.402-.725-.793-.793-.306-.056-.602.022-.832.216-.228.19-.358.47-.358.767h-2c0-.889.391-1.727,1.072-2.299Zm16.928,3.299v14.854c0,.793-.435,1.519-1.134,1.894-.318.171-.667.255-1.015.256-.416,0-.831-.121-1.19-.36l-3.964-2.644H6v-.727l1.908-1.273h12.092V4h1c1.654,0,3,1.346,3,3Z"/></svg>
