<?xml version="1.0" encoding="UTF-8"?>
<svg xmlns="http://www.w3.org/2000/svg" id="Layer_1" data-name="Layer 1" viewBox="0 0 24 24">
  <path d="m5.1,13.6c.496,0,.9.404.9.9s-.404.9-.9.9h-.5v-1.8h.5m5.136.106l.638,3.295h-1.262l.624-3.295M17,.586v4.414h4.414L17,.586Zm-2,6.414V0H5c-1.657,0-3,1.343-3,3v21h20V7h-7Zm1.4,5h2.3c1.269,0,2.3,1.031,2.3,2.3v3.4c0,1.269-1.031,2.3-2.3,2.3h-2.3v-8Zm-2.6,0h1.6v8h-1.6v-8Zm-3.544,0c.757,0,1.226.524,1.346,1.192l1.397,6.807h-1.488l-.262-1.474h-2.006l-.275,1.474h-1.469l1.372-6.833c.103-.58.628-1.167,1.385-1.167Zm-5.657,4.999v3h-1.6v-8h2.1c1.381,0,2.5,1.119,2.5,2.5s-1.119,2.5-2.5,2.5h-.5Zm14.801.7c0,.386-.314.7-.7.7s-.7,0-.7,0v-4.802s.314,0,.7,0,.7.314.7.7v3.4Z"/>
</svg>
