<?xml version="1.0" encoding="UTF-8"?>
<svg xmlns="http://www.w3.org/2000/svg" id="Layer_1" data-name="Layer 1" viewBox="0 0 24 24">
  <path d="m5,6.5l-1.667.833-.833,1.667-.833-1.667-1.667-.833,1.667-.833.833-1.667.833,1.667,1.667.833Zm15.5,17.499h3.5v-3.499l-2.333,1.167-1.166,2.332Zm3.5-19.5v16.001l-2.333-1.167-1.167-2.333-1.167,2.333-2.333,1.167,2.333,1.167,1.166,2.332h-12.5L.646,16.411c-.713-.715-.88-1.87-.276-2.68.63-.845,1.741-1.031,2.584-.561.201.131.353.245.441.333l2.605,2.65V3.499c0-.911.812-1.632,1.752-1.479.737.12,1.248.813,1.248,1.56v8.42h2V1.499C11,.671,11.672,0,12.5,0s1.5.672,1.5,1.5v10.5h2V2.499c0-.828.672-1.5,1.5-1.5s1.5.672,1.5,1.5v9.5h2v-7.5c0-.828.672-1.5,1.5-1.5s1.5.672,1.5,1.5Zm-6.5,12.001l-2-1-1-2-1,2-2,1,2,1,1,2,1-2,2-1Z"/>
</svg>
