<?xml version="1.0" encoding="UTF-8"?>
<svg xmlns="http://www.w3.org/2000/svg" id="Layer_1" data-name="Layer 1" viewBox="0 0 24 24">
  <path d="m24.137,4.25l-2.925,1.463-1.462,2.927-1.462-2.927-2.925-1.463,2.925-1.463,1.462-2.927,1.462,2.927,2.925,1.463Zm-14.747,2.915l-1.929,6.835h4.077l-1.929-6.835c-.029-.114-.191-.114-.219,0Zm10.61,3.335c-3.59,0-6.5-2.91-6.5-6.5,0-1.51.52-2.896,1.384-4H3C1.346,0,0,1.346,0,3v21h24v-14.884c-1.104.864-2.49,1.384-4,1.384Zm-7.05,8.5l-.847-3h-5.206l-.847,3h-2.05l3.439-12.362c.141-.608.541-1.12,1.098-1.405.568-.292,1.22-.31,1.839-.05.587.246,1.037.817,1.204,1.535l3.42,12.283h-2.05Zm6.05,0h-2v-7h2v7ZM26.5,0h.5-.5Z"/>
</svg>
