<?xml version="1.0" encoding="UTF-8"?>
<svg xmlns="http://www.w3.org/2000/svg" id="Layer_1" data-name="Layer 1" viewBox="0 0 24 24">
  <path d="m18,12c-3.314,0-6,2.686-6,6s2.686,6,6,6,6-2.686,6-6-2.686-6-6-6Zm.619,8.414c-.378.378-.88.586-1.414.586h-.002c-.534,0-1.036-.209-1.413-.587l-2.012-2.012,1.414-1.414,2.013,2.013,3.615-3.615,1.414,1.414-3.615,3.615ZM5.5,7c-1.93,0-3.5-1.57-3.5-3.5S3.57,0,5.5,0s3.5,1.57,3.5,3.5-1.57,3.5-3.5,3.5Zm9,0c-1.93,0-3.5-1.57-3.5-3.5s1.57-3.5,3.5-3.5,3.5,1.57,3.5,3.5-1.57,3.5-3.5,3.5Zm-10,4.5c0-1.328.474-2.548,1.261-3.5h-2.761c-1.654,0-3,1.346-3,3v3h5.121c-.394-.762-.621-1.612-.621-2.5Zm2,0c0-1.93,1.57-3.5,3.5-3.5,1.892,0,3.438,1.509,3.498,3.386-1.281.874-2.295,2.11-2.894,3.561-.196.034-.398.052-.603.052-1.93,0-3.5-1.57-3.5-3.5Zm4.571,10.5h-7.071v-3c0-1.654,1.346-3,3-3h3.252c-.164.639-.252,1.309-.252,2,0,1.457.39,2.823,1.071,4Z"/>
</svg>
