<?xml version="1.0" encoding="UTF-8"?>
<svg xmlns="http://www.w3.org/2000/svg" id="Layer_1" data-name="Layer 1" viewBox="0 0 24 24" width="512" height="512"><path d="m3.34,19.643l3.963-2.643h10.697V3c0-1.654-1.346-3-3-3H3C1.346,0,0,1.346,0,3v14.854c0,.793.435,1.519,1.134,1.894.318.171.667.255,1.015.255.416,0,.831-.121,1.191-.36ZM24,7v14.854c0,.793-.435,1.519-1.134,1.894-.318.171-.667.255-1.015.256-.416,0-.831-.121-1.19-.36l-3.964-2.644H6v-.727l1.908-1.273h12.092V4h1c1.654,0,3,1.346,3,3Z"/></svg>
