<?xml version="1.0" encoding="UTF-8"?>
<svg xmlns="http://www.w3.org/2000/svg" id="Layer_1" data-name="Layer 1" viewBox="0 0 24 24">
  <path d="m23.986,4.447c-.036-.717-.317-1.425-.864-1.972-1.172-1.172-4.596-2.475-4.596-2.475,0,0,.82,1.53,1.11,3.231-1.701-.29-3.231-1.11-3.231-1.11,0,0,1.303,3.425,2.475,4.596.845.845,2.065,1.071,3.121.697v2.585c0,.552-.449,1-1,1h-1.26c-.585-1.974-2.173-3.219-4.74-3.73v-1.27h-2v1.026c-.323-.017-.655-.026-1-.026s-.677.009-1,.026v-1.026h-2v1.27c-2.567.511-4.155,1.757-4.74,3.73h-1.26c-.551,0-1-.448-1-1v-2.585c1.056.373,2.277.148,3.121-.697,1.172-1.172,2.475-4.596,2.475-4.596,0,0-1.53.82-3.231,1.11.29-1.701,1.11-3.231,1.11-3.231,0,0-3.425,1.303-4.596,2.475C.331,3.023.05,3.73.014,4.447h-.014v5.553c0,1.654,1.346,3,3,3h1.007c.025.841.409,1.917.925,3h-1.846l-2.293,2.293,1.414,1.414,1.707-1.707h2.094c.537.906,1.058,1.688,1.397,2.18l-2.373,2.373,1.414,1.414,2.967-2.967h5.172l2.967,2.967,1.414-1.414-2.355-2.355c.356-.47.922-1.258,1.496-2.198h1.979l1.707,1.707,1.414-1.414-2.293-2.293h-1.734c.462-1.017.794-2.065.814-3h1.006c1.654,0,3-1.346,3-3v-5.553h-.014Z"/>
</svg>
