<?xml version="1.0" encoding="UTF-8"?>
<svg xmlns="http://www.w3.org/2000/svg" id="Layer_1" data-name="Layer 1" viewBox="0 0 24 24" width="512" height="512"><path d="M13,21V5h-2V21l-4.5-4.5-1.41,1.41,5.5,5.5c.39,.39,.9,.58,1.41,.58s1.02-.19,1.41-.58l5.5-5.5-1.41-1.41-4.5,4.5Zm.47-19.5c0,.83-.67,1.5-1.5,1.5s-1.5-.67-1.5-1.5,.67-1.5,1.5-1.5,1.5,.67,1.5,1.5Zm3.5-1.5c-.83,0-1.5,.67-1.5,1.5s.67,1.5,1.5,1.5,1.5-.67,1.5-1.5-.67-1.5-1.5-1.5Zm5,0c-.83,0-1.5,.67-1.5,1.5s.67,1.5,1.5,1.5,1.5-.67,1.5-1.5-.67-1.5-1.5-1.5ZM6.97,0c-.83,0-1.5,.67-1.5,1.5s.67,1.5,1.5,1.5,1.5-.67,1.5-1.5-.67-1.5-1.5-1.5ZM1.97,0C1.15,0,.47,.67,.47,1.5s.67,1.5,1.5,1.5,1.5-.67,1.5-1.5S2.8,0,1.97,0Z"/></svg>
