<?xml version="1.0" encoding="UTF-8"?>
<svg xmlns="http://www.w3.org/2000/svg" id="Layer_1" data-name="Layer 1" viewBox="0 0 24 24">
  <path d="m17.15,15.736l6.807,6.807-1.414,1.414L.043,1.457,1.457.043l8.957,8.957h.597L7.973,0h2.812c1.099,0,2.107.599,2.634,1.563l4.142,7.437h3.305c1.516,0,2.835,1.076,3.067,2.503.143.878-.103,1.768-.674,2.439-.571.672-1.404,1.058-2.286,1.058h-3.412l-.41.736Zm-9.178,8.264h2.812c1.099,0,2.107-.599,2.63-1.556l1.722-3.093-4.183-4.183-2.982,8.832ZM1.787,6H0l2.213,6.001L.016,18h2.369c1.009,0,1.944-.502,2.503-1.347l1.085-1.653h4.814L1.787,6Z"/>
</svg>
