<?xml version="1.0" encoding="UTF-8"?>
<svg xmlns="http://www.w3.org/2000/svg" id="Layer_1" data-name="Layer 1" viewBox="0 0 24 24">
  <path d="m4.5,14h-2v-1.5c0-1.379,1.122-2.5,2.5-2.5h14c1.378,0,2.5,1.121,2.5,2.5v1.5h-2v-1.5c0-.275-.224-.5-.5-.5h-6v2h-2v-2h-6c-.276,0-.5.225-.5.5v1.5Zm11-7c0-1.103-.897-2-2-2h-3c-1.103,0-2,.897-2,2v1h7v-1Zm-3.5-3c1.105,0,2-.895,2-2s-.895-2-2-2-2,.895-2,2,.895,2,2,2Zm6.5,14c0,1.105.895,2,2,2s2-.895,2-2-.895-2-2-2-2,.895-2,2Zm3.5,3h-3c-1.103,0-2,.897-2,2v1h7v-1c0-1.103-.897-2-2-2Zm-17,0h-3c-1.103,0-2,.897-2,2v1h7v-1c0-1.103-.897-2-2-2Zm5-3c0,1.105.895,2,2,2s2-.895,2-2-.895-2-2-2-2,.895-2,2Zm3.5,3h-3c-1.103,0-2,.897-2,2v1h7v-1c0-1.103-.897-2-2-2Zm-10-1c1.105,0,2-.895,2-2s-.895-2-2-2-2,.895-2,2,.895,2,2,2Z"/>
</svg>
