<?xml version="1.0" encoding="UTF-8"?>
<svg xmlns="http://www.w3.org/2000/svg" id="Layer_1" data-name="Layer 1" viewBox="0 0 24 24">
  <path d="m14,9.5c0,1.103-.897,2-2,2s-2-.897-2-2,.897-2,2-2,2,.897,2,2Zm7.168-1.283c-.239-.431-.557-.761-.918-.995-.644-.416-.987-1.181-.817-1.928.097-.429.091-.897-.048-1.381-.246-.859-.946-1.559-1.805-1.805-.484-.139-.952-.145-1.38-.048-.748.17-1.513-.172-1.929-.817-.233-.361-.564-.679-.994-.918-.782-.433-1.771-.433-2.553,0-.431.239-.761.557-.994.918-.416.644-1.181.987-1.929.817-.428-.097-.896-.091-1.38.048-.859.246-1.559.946-1.805,1.805-.139.484-.145.953-.048,1.381.17.748-.173,1.513-.817,1.928-.362.233-.679.564-.918.995-.219.394-.325.842-.323,1.289-.002.447.105.894.323,1.289.239.431.557.761.918.995.644.416.987,1.181.817,1.928-.097.429-.091.897.048,1.382.246.859.946,1.559,1.805,1.805.484.139.952.145,1.38.048.748-.17,1.513.172,1.929.817.233.361.563.679.994.918.782.433,1.772.433,2.553,0,.431-.239.761-.557.994-.918.416-.644,1.181-.987,1.929-.817.428.097.896.091,1.38-.048.859-.246,1.559-.946,1.805-1.805.139-.484.145-.953.048-1.382-.17-.748.173-1.513.817-1.928.362-.233.679-.564.918-.995.219-.394.325-.842.323-1.289.002-.447-.105-.894-.323-1.289Zm-9.179,5.285c-2.206,0-4-1.794-4-4s1.794-4,4-4,4,1.794,4,4-1.794,4-4,4Zm-3.888,5.43c-.726.142-1.496.106-2.231-.105-1.423-.408-2.579-1.497-3.081-2.88l-2.435,2.435c-.193.194-.316.451-.346.725-.073.667.409,1.269,1.076,1.342l2.221.246.245,2.212c.028.284.155.542.349.736.127.127.282.226.457.287.444.159.941.044,1.263-.286l3.571-3.571c-.428-.319-.793-.7-1.09-1.14Zm15.892.174c-.03-.273-.153-.531-.346-.725l-2.435-2.435c-.502,1.383-1.659,2.473-3.081,2.88-.736.21-1.504.246-2.231.105-.296.44-.662.821-1.09,1.14l3.571,3.571c.323.33.82.445,1.263.286.175-.061.33-.16.457-.287.194-.194.321-.453.349-.736l.245-2.212,2.221-.246c.667-.074,1.149-.675,1.076-1.342Z"/>
</svg>
