<?xml version="1.0" encoding="UTF-8"?>
<svg xmlns="http://www.w3.org/2000/svg" id="Layer_1" data-name="Layer 1" viewBox="0 0 24 24">
  <path d="m8,10H0v-5h8l2.5,2.5-2.5,2.5ZM0,19v5h20l2.5-2.5-2.5-2.5H0Zm16.5-4.5l-2.5-2.5H0v5h14l2.5-2.5Zm5.782-7.188l1.417.816-.999,1.732-1.41-.813c-.605.652-1.393,1.126-2.289,1.331v1.621h-2v-1.621c-.896-.205-1.685-.678-2.289-1.331l-1.41.813-.999-1.732,1.417-.816c-.129-.418-.218-.853-.218-1.312s.089-.895.218-1.312l-1.417-.816.999-1.732,1.41.813c.605-.652,1.393-1.126,2.289-1.331V0h2v1.621c.896.205,1.685.678,2.289,1.331l1.41-.813.999,1.732-1.417.816c.129.418.218.853.218,1.312s-.089.895-.218,1.312Zm-2.782-1.312c0-.827-.673-1.5-1.5-1.5s-1.5.673-1.5,1.5.673,1.5,1.5,1.5,1.5-.673,1.5-1.5Z"/>
</svg>
