<?xml version="1.0" encoding="UTF-8"?>
<svg xmlns="http://www.w3.org/2000/svg" id="Layer_1" data-name="Layer 1" viewBox="0 0 24 24">
  <path d="m12.4,10.5v3c0,.496-.404.9-.9.9s-.9-.404-.9-.9v-3c0-.496.404-.9.9-.9s.9.404.9.9Zm11.6,1.5c0,6.627-5.373,12-12,12S0,18.627,0,12,5.373,0,12,0s12,5.373,12,12Zm-9-2.769c0,.69.56,1.25,1.25,1.25s1.25-.56,1.25-1.25-.56-1.25-1.25-1.25-1.25.56-1.25,1.25Zm-9.729,5.17c.691-.631,2.708-1.843,2.708-3.9h.021c0-1.381-1.119-2.5-2.5-2.5-1.369,0-2.478,1.102-2.497,2.467h-.003v.533h1.6v-.5c0-.496.404-.9.9-.9s.9.404.9.9h-.01c0,1.904-3.39,2.692-3.39,4.5v1h5v-1.6h-2.729Zm8.729-3.9c0-1.381-1.119-2.5-2.5-2.5s-2.5,1.119-2.5,2.5v3c0,1.381,1.119,2.5,2.5,2.5s2.5-1.119,2.5-2.5v-3Zm2.778,5.481l5.222-8h-1.911l-5.222,8h1.911Zm5.222-1.25c0-.69-.56-1.25-1.25-1.25s-1.25.56-1.25,1.25.56,1.25,1.25,1.25,1.25-.56,1.25-1.25Z"/>
</svg>
