<?xml version="1.0" encoding="UTF-8"?>
<svg xmlns="http://www.w3.org/2000/svg" id="Layer_1" data-name="Layer 1" viewBox="0 0 24 24">
  <path d="m12.5,7.5c1.93,0,3.5,1.57,3.5,3.5s-1.57,3.5-3.5,3.5-3.5-1.57-3.5-3.5,1.57-3.5,3.5-3.5Zm11,10.086l-3.293-3.293-1.414,1.414,2.293,2.293H6.949c-.221-1.527-1.423-2.728-2.949-2.949V6.949c1.527-.221,2.728-1.423,2.949-2.949h10.101c.245,1.692,1.691,3,3.449,3,1.93,0,3.5-1.57,3.5-3.5s-1.57-3.5-3.5-3.5c-1.391,0-2.585.822-3.149,2H6.649c-.564-1.178-1.758-2-3.149-2C1.57,0,0,1.57,0,3.5c0,1.391.822,2.585,2,3.149v8.702c-1.178.564-2,1.758-2,3.149,0,1.93,1.57,3.5,3.5,3.5,1.391,0,2.585-.822,3.149-2h14.437l-2.293,2.293,1.414,1.414,3.293-3.293c.78-.78.78-2.048,0-2.828Z"/>
</svg>
