<?xml version="1.0" encoding="UTF-8"?>
<svg xmlns="http://www.w3.org/2000/svg" id="Layer_1" data-name="Layer 1" viewBox="0 0 24 24">
  <path d="m24,10v3h-2v-3c0-2.206-1.794-4-4-4H2.994l2.302,2.291-1.414,1.414L.583,6.406c-.775-.775-.775-2.037,0-2.812L3.881.295l1.414,1.414-2.291,2.291h14.995c3.309,0,6,2.691,6,6Zm-14.887,14h5.775l-2.887-4.371-2.887,4.371Zm2.887-17.759L2.366,20.188c-.474.778-.491,1.716-.045,2.509.451.804,1.312,1.303,2.247,1.303h2.148l5.284-8,5.285,8h2.148c.935,0,1.795-.499,2.246-1.302.445-.793.43-1.731-.076-2.558L12,6.241Z"/>
</svg>
