<?xml version="1.0" encoding="UTF-8"?>
<svg xmlns="http://www.w3.org/2000/svg" id="Layer_1" data-name="Layer 1" viewBox="0 0 24 24" width="512" height="512"><path d="M2.523,6.736l-.448-.413L3.534,.994l1.045,.428c.974,.398,2.182,.603,3.403,.584,1.555-.028,2.081-.404,3.375-1.489L12-.022l.643,.539c1.289,1.081,1.813,1.456,3.375,1.483,1.297,0,2.479-.2,3.403-.578l1.045-.428,1.459,5.33-.448,.413c-.286,.264-.671,.69-.977,1.268l-17-.003c-.306-.576-.69-1.002-.976-1.265Zm17.477,3.268l-16.001-.003c0,.764-.435,1.632-.894,2.552-.543,1.087-1.105,2.211-1.105,3.447,0,4.662,4.685,6.142,7.483,7.026,.701,.222,1.308,.413,1.67,.594l.847,.422,.848-.423c.361-.181,.968-.372,1.669-.594,2.799-.884,7.483-2.364,7.483-7.026,0-1.236-.563-2.36-1.105-3.447-.459-.918-.893-1.785-.894-2.549Z"/></svg>
