<?xml version="1.0" encoding="UTF-8"?>
<svg xmlns="http://www.w3.org/2000/svg" id="Layer_1" data-name="Layer 1" viewBox="0 0 24 24">
  <path d="m21,13h-6c-1.654,0-3,1.346-3,3v8h12v-8c0-1.654-1.346-3-3-3Zm-1,5h-4v-2h4v2ZM12.829,2c-.413-1.164-1.525-2-2.829-2h-2c-1.304,0-2.416.836-2.829,2H0v19c0,1.657,1.343,3,3,3h7v-8c0-2.761,2.239-5,5-5h3V2h-5.171ZM3.924,6.676l1.241,1.192,2.533-2.48,1.399,1.429-2.759,2.702c-.32.32-.744.481-1.168.481-.427,0-.855-.162-1.181-.488l-1.45-1.393,1.386-1.442Zm0,6.112l1.241,1.192,2.533-2.48,1.399,1.429-2.759,2.702c-.32.32-.744.481-1.168.481-.427,0-.855-.162-1.181-.488l-1.45-1.393,1.386-1.442Zm11.076-3.788h-5.5l2.042-2h3.458v2Z"/>
</svg>
