<?xml version="1.0" encoding="UTF-8"?>
<svg xmlns="http://www.w3.org/2000/svg" id="Layer_1" data-name="Layer 1" viewBox="0 0 24 24">
  <path d="m24,11v4h-2v-2h-4.176l-5.858,4.236-5.793-4.236H2v2H0v-4h6.174l4.808-3.516.008-.633c-1.439-.435-2.49-1.773-2.49-3.351,0-1.93,1.57-3.5,3.5-3.5s3.5,1.57,3.5,3.5c0,1.586-1.061,2.929-2.51,3.357l-.008.641,4.842,3.502h6.176Zm-1.457,6.043l-2.043,2.043-2.043-2.043-1.414,1.414,2.043,2.043-2.043,2.043,1.414,1.414,2.043-2.043,2.043,2.043,1.414-1.414-2.043-2.043,2.043-2.043-1.414-1.414ZM3.419,21.086l-1.923-1.924-1.414,1.414,3.337,3.338,5.057-5.058-1.414-1.414-3.643,3.644Z"/>
</svg>
