<?xml version="1.0" encoding="UTF-8"?>
<svg xmlns="http://www.w3.org/2000/svg" id="Layer_1" data-name="Layer 1" viewBox="0 0 24 24" width="512" height="512"><path d="m5.986,9.4c-.038,0-.071.026-.079.063l-.811,3.437h1.757l-.787-3.437c-.009-.037-.041-.063-.079-.063Z"/><path d="m11,4H3C1.343,4,0,5.343,0,7v13h11V4Zm-3.827,10.3h-2.409l-.401,1.7h-1.437l1.616-6.853c.201-.866,1.137-1.406,2.056-1.021.439.184.734.606.842,1.07l1.559,6.804h-1.437l-.389-1.7Z"/><path d="m21,4h-8v16h11V7c0-1.654-1.346-3-3-3Zm1,6.253h-.932c-.121,1.275-.617,2.731-1.607,3.866.663.403,1.49.665,2.539.665v1.253c-1.456,0-2.595-.418-3.488-1.053-.896.64-2.049,1.053-3.512,1.053v-1.253c1.049,0,1.881-.258,2.545-.661-.554-.636-.957-1.372-1.223-2.123h1.336c.204.468.487.92.847,1.325.818-.92,1.192-2.108,1.303-3.071h-4.808v-1.253h2.873v-1h1.253v1h2.873v1.253Z"/></svg>
