<?xml version="1.0" encoding="UTF-8"?>
<svg xmlns="http://www.w3.org/2000/svg" id="Layer_1" data-name="Layer 1" viewBox="0 0 24 24">
  <path d="m22.587,6.664c-1.788-.857-2.965-2.171-3.398-3.906l-.188-.758V0c-1.429,0-2.619,1.001-2.921,2.338-3.163,1.041-4.079,4.291-4.079,6.162v.5h-4.006c-1.254,0-2.362.593-3.096,1.5h-.062l-.155.052c-2.136.717-4.682,2.765-4.682,8.448h2c0-2.792.68-4.73,2.003-5.812.046,1.593.644,3.32,1.133,4.72.146.417.284.812.396,1.172l-.681,4.92h4.148l.617-5h4.383s0,5,0,5h4v-5.395l.385-1.811c.417-1.46.615-2.416.615-3.896v-2.899l5-.5v-.584c0-.956-.555-1.839-1.413-2.252Z"/>
</svg>
