<?xml version="1.0" encoding="UTF-8"?>
<svg xmlns="http://www.w3.org/2000/svg" id="Layer_1" data-name="Layer 1" viewBox="0 0 24 24">
  <path d="m19,19h4.414l-4.414,4.414v-4.414ZM24,3v14h-7v7H0V3C0,1.346,1.346,0,3,0h18c1.654,0,3,1.346,3,3ZM7.5,5h-1.25v4.068c-.001.449-.359.751-.75.751-.408-.007-.75-.34-.75-.735,0-.03.005-.084.005-.084h-1.255v.084c0,1.09.896,1.977,2,1.984h0c1.109.001,2-.889,2-1.984v-4.084Zm4.512,6l-1.252-6h-1.25l-1.511,6h1.252l.826-3.282.684,3.282h1.252Zm2.748,0l1.252-6h-1.252l-.684,3.282-.826-3.282h-1.252l1.511,6h1.25Zm5.239.033l-1.252-6h-1.25l-1.511,6h1.252l.826-3.282.684,3.282h1.252Z"/>
</svg>
