<?xml version="1.0" encoding="UTF-8"?>
<svg xmlns="http://www.w3.org/2000/svg" id="Layer_1" data-name="Layer 1" viewBox="0 0 24 24">
  <path d="m24,18.664v.336c0,1.104-.895,2-2,2s-2-.896-2-2v-.336l.854-2.42-1.854-.348v6.105h3v2h-8v-2h3v-6.48l-1.752-.328.861,2.406v.575h-.013c-.114,1.027-.984,1.826-2.042,1.826-1.135,0-2.054-.92-2.054-2.054v-.333l1.5-4.782,3.5.649v-1.48h2v1.851l3.5.649,1.5,4.164Zm-15-6.664c3.309,0,6-2.691,6-6S12.309,0,9,0,3,2.691,3,6s2.691,6,6,6Zm1,5.945v-.64l1.037-3.306h-6.037c-2.761,0-5,2.239-5,5v5h12v-2.579c-1.191-.707-2-1.993-2-3.476Z"/>
</svg>
