<?xml version="1.0" encoding="UTF-8"?>
<svg xmlns="http://www.w3.org/2000/svg" id="Layer_1" data-name="Layer 1" viewBox="0 0 24 24" width="512" height="512"><path d="M18.07,15h1.93v-2.19l-.07-.18c-1.1-2.74-2.26-5.54-3.4-6.94C14.42,2.88,10.95,1.52,7.47,2.16c-.98,.18-1.93,.55-2.81,1.09L1.46,.04,.04,1.46,22.54,23.96l1.41-1.41-6.08-6.08,.19-1.47Zm1.93,1c.55,0,1,.45,1,1s-.45,1-1,1-1-.45-1-1,.45-1,1-1Zm4,3c0,.55-.45,1-1,1s-1-.45-1-1,.45-1,1-1,1,.45,1,1Zm-2-4c0-.55,.45-1,1-1s1,.45,1,1-.45,1-1,1-1-.45-1-1ZM1.7,6l13.88,13.88c-.25,.07-.52,.12-.79,.12h-1.79v2H3v-3.81c0-.47-.18-.94-.5-1.31C-.49,13.35-.75,9.38,1.7,6Z"/></svg>
