<?xml version="1.0" encoding="UTF-8"?>
<svg xmlns="http://www.w3.org/2000/svg" id="Layer_1" data-name="Layer 1" viewBox="0 0 24 24">
  <path d="m21.932,2.068C20.427.562,18.332-.167,16.04.03c-2.231.186-4.395,1.223-6.091,2.919s-2.733,3.859-2.919,6.091c-.161,1.931.327,3.719,1.383,5.135l-2.921,2.921c-.735-.226-1.568-.049-2.148.531l-2.716,2.716c-.836.836-.836,2.195,0,3.03.836.836,2.195.836,3.03,0l2.716-2.716c.58-.58.757-1.413.531-2.148l2.921-2.921c1.238.924,2.761,1.413,4.417,1.413.237,0,.476-.01.718-.03,2.231-.186,4.395-1.223,6.091-2.919,1.696-1.696,2.733-3.859,2.919-6.091.191-2.294-.532-4.387-2.038-5.893Zm.068,18.432l1.5,3.5h-6l1.5-3.5v-1c0-.828.672-1.5,1.5-1.5s1.5.672,1.5,1.5v1Z"/>
</svg>
