<?xml version="1.0" encoding="UTF-8"?>
<svg xmlns="http://www.w3.org/2000/svg" id="Layer_1" data-name="Layer 1" viewBox="0 0 24 24" width="512" height="512"><path d="M18,15.75c0,2.16-.84,4.19-2.37,5.72-1.69,1.69-3.91,2.54-6.13,2.54s-4.44-.84-6.13-2.54L.44,18.54c-.59-.59-.59-1.54,0-2.12s1.54-.59,2.12,0l1.76,1.76,.88-.88L.44,12.54c-.59-.59-.59-1.54,0-2.12,.59-.59,1.54-.59,2.12,0l4.76,4.76,.88-.88L2.44,8.54c-.59-.59-.59-1.54,0-2.12,.59-.59,1.54-.59,2.12,0l5.76,5.76,.88-.88-3.76-3.76c-.59-.59-.59-1.54,0-2.12,.59-.59,1.54-.59,2.12,0l4.44,4.44v-1.85c0-1.1,.9-2,2-2s2,.9,2,2v7.75Zm4-9.75c-1.1,0-2,.9-2,2v8c0,2-.66,3.48-.74,3.55-.5,1.23-1.25,2.36-2.21,3.33-.41,.41-.86,.78-1.32,1.11,2.15-.05,4.27-.89,5.91-2.52,1.53-1.53,2.37-3.56,2.37-5.72v-7.75c0-1.1-.9-2-2-2ZM13.71,1.71l-1.41-1.41-2.29,2.29,1.41,1.41,2.29-2.29Zm-7.75,.84L3.71,.29l-1.41,1.41,2.25,2.25,1.41-1.41ZM9,0h-2V3h2V0Z"/></svg>
