<?xml version="1.0" encoding="UTF-8"?>
<svg xmlns="http://www.w3.org/2000/svg" id="Layer_1" data-name="Layer 1" viewBox="0 0 24 24">
  <path d="m17.989,4.341l-1.709-1.041L18.266.04l1.709,1.041-1.985,3.26Zm5.983,2.028l-.822-1.822-3.331,1.504.822,1.822,3.331-1.504ZM7.725,3.3L5.739.04l-1.709,1.041,1.985,3.26,1.709-1.041Zm-3.54,2.751l-3.33-1.504L.032,6.369l3.33,1.504.822-1.822Zm3.815,14.949v3h8v-2.937c0-.022.006-.042.006-.063h-8.006Zm-1.244-2.968c.308.268.548.604.747.968h3.497v-5.184c-1.161-.414-2-1.514-2-2.816h2c0,.552.448,1,1,1s1-.448,1-1h2c0,1.302-.839,2.402-2,2.816v5.184h3.522c.204-.377.447-.725.76-1.001,1.728-1.518,2.718-3.704,2.718-5.999,0-2.161-.849-4.187-2.39-5.703s-3.596-2.338-5.746-2.296c-4.184.069-7.709,3.526-7.858,7.705-.088,2.428.914,4.733,2.75,6.326Z"/>
</svg>
