<?xml version="1.0" encoding="UTF-8"?>
<svg xmlns="http://www.w3.org/2000/svg" id="Layer_1" data-name="Layer 1" viewBox="0 0 24 24" width="512" height="512"><path d="M14,12c0,1.1-.9,2-2,2s-2-.9-2-2,.9-2,2-2,2,.9,2,2Zm6,12H4V4H20V24Zm-11-3.5c0-.83-.67-1.5-1.5-1.5s-1.5,.67-1.5,1.5,.67,1.5,1.5,1.5,1.5-.67,1.5-1.5Zm6.86-7.42c.8-3.04-1.91-5.75-4.94-4.94-1.34,.35-2.41,1.44-2.77,2.77-.8,3.04,1.91,5.75,4.94,4.94,1.34-.35,2.41-1.44,2.77-2.77Zm2.14,7.42c0-.83-.67-1.5-1.5-1.5s-1.5,.67-1.5,1.5,.67,1.5,1.5,1.5,1.5-.67,1.5-1.5ZM24,3c0-1.66-1.34-3-3-3H3C1.34,0,0,1.34,0,3v6H2V3c0-.55,.45-1,1-1H21c.55,0,1,.45,1,1v6h2V3Z"/></svg>
