<?xml version="1.0" encoding="UTF-8"?>
<svg xmlns="http://www.w3.org/2000/svg" id="Layer_1" data-name="Layer 1" viewBox="0 0 24 24">
  <path d="m0,9.5c0-.39.1-.753.284-1.089.517.358,1.104.675,1.752.952-.022.048-.036.095-.036.137,0,.407,1.016,1.111,3,1.668v2.066c-2.894-.714-5-1.938-5-3.735Zm5,8.735v-2.066c-1.984-.558-3-1.261-3-1.668,0-.042.014-.089.036-.137-.648-.277-1.235-.594-1.752-.952-.184.337-.284.7-.284,1.089,0,1.797,2.106,3.021,5,3.735Zm16.964-3.872c.022.048.036.095.036.137,0,.748-3.402,2.5-10,2.5-.344,0-.674-.007-1-.017v2.001c.334.009.668.015,1,.015,5.779,0,12-1.408,12-4.5,0-.39-.1-.753-.284-1.089-.517.358-1.104.675-1.752.952Zm0,5c.022.048.036.095.036.137,0,.748-3.402,2.5-10,2.5s-10-1.752-10-2.5c0-.042.014-.089.036-.137-.648-.277-1.235-.594-1.752-.952-.184.337-.284.7-.284,1.089,0,3.092,6.221,4.5,12,4.5s12-1.408,12-4.5c0-.39-.1-.753-.284-1.089-.517.358-1.104.675-1.752.952ZM0,4.5C0,1.408,6.221,0,12,0s12,1.408,12,4.5c0,3.24-6.634,4.141-8.666,4.339-.761.075-1.334.714-1.334,1.488v4.672h-2v-4.516c0-.827-.673-1.5-1.5-1.5s-1.5.673-1.5,1.5v9.516h-2v-10.124c0-.706-.502-1.322-1.193-1.465C2.062,7.637,0,6.248,0,4.5Zm21.964,4.863c.022.048.036.095.036.137,0,.577-2.038,1.751-6,2.257v2.01c4.324-.512,8-1.891,8-4.267,0-.39-.1-.753-.284-1.089-.517.358-1.104.675-1.752.952Z"/>
</svg>
