<?xml version="1.0" encoding="UTF-8"?>
<svg xmlns="http://www.w3.org/2000/svg" id="Layer_1" data-name="Layer 1" viewBox="0 0 24 24">
  <path d="m10.455,12c-.591-.52-2.154-2.09-2.417-4.354-.048-.412.084-.827.363-1.139.287-.322.7-.507,1.131-.507h4.936c.432,0,.844.185,1.131.507.278.312.411.728.363,1.139-.259,2.212-1.721,3.739-2.421,4.354,1.137.991,2.451,2.617,2.451,4.841l.059,1.159h-8.003l-.055-1.109c0-2.274,1.319-3.901,2.461-4.891ZM6.598,3.593l-1.087-1.688c-.962.62-1.83,1.372-2.58,2.238l1.517,1.315c.624-.719,1.346-1.347,2.15-1.865Zm5.402-1.593V0c-1.15,0-2.288.163-3.381.483l.565,1.926c.894-.262,1.837-.409,2.816-.409ZM2.91,7.85l-1.828-.836c-.477,1.042-.8,2.146-.961,3.28l1.992.284c.137-.96.408-1.876.797-2.728Zm-.797,5.573l-1.992.284c.162,1.135.485,2.239.962,3.281l1.828-.836c-.39-.852-.661-1.768-.798-2.729ZM20.92,4h2.08v-2h-4c-1.103,0-2,.897-2,2v4h2v-3.123c1.893,1.867,3,4.435,3,7.123,0,5.514-4.486,10-10,10-2.994,0-5.806-1.326-7.715-3.637l-1.542,1.273c2.29,2.773,5.664,4.363,9.257,4.363,6.617,0,12-5.383,12-12,0-2.971-1.129-5.817-3.08-8Z"/>
</svg>
