<?xml version="1.0" encoding="UTF-8"?>
<svg xmlns="http://www.w3.org/2000/svg" id="Layer_1" data-name="Layer 1" viewBox="0 0 24 24" width="512" height="512"><path d="m22.853,2.275c-.805-.195-1.616.299-1.811,1.104l-1.796,7.063c-.096.376-.462.618-.846.557h0c-.437-.069-.72-.499-.611-.927l2.09-8.219c.195-.805-.299-1.616-1.104-1.811-.805-.195-1.616.299-1.811,1.104l-2.413,9.493c-.054.212-.268.36-.486.36-.216,0-.452-.144-.509-.352L10.967,1.146c-.196-.805-1.007-1.299-1.812-1.103-.805.196-1.299,1.007-1.103,1.812l2.23,8.208c.121.442-.184.887-.64.933h0c-.359.036-.693-.192-.788-.541l-1.896-6.98c-.196-.805-1.007-1.299-1.812-1.103-.805.196-1.299,1.007-1.103,1.812l2.957,12.315-3.605-2.996c-.088-.088-.24-.201-.441-.333-.843-.47-1.954-.284-2.584.561-.604.81-.437,1.965.276,2.68l7.354,7.588h13.5l.436-11,2.022-8.913c.195-.805-.299-1.616-1.104-1.811Z"/></svg>
