<?xml version="1.0" encoding="UTF-8"?>
<svg xmlns="http://www.w3.org/2000/svg" id="Layer_1" data-name="Layer 1" viewBox="0 0 24 24" width="512" height="512"><path d="M6.01,2.5c0-1.38,1.12-2.5,2.5-2.5s2.5,1.12,2.5,2.5-1.12,2.5-2.5,2.5-2.5-1.12-2.5-2.5ZM23.97,23.04l-1.76,.94-4.99-9.32-3.96-2.97-2.12-3.24c-.04-.06-.08-.11-.13-.16v7.87l1.76,1.14,2.9,5.75-1.79,.9-2.66-5.27-5.22-3.39v-6.35L1.86,15.53,.16,14.47,4.62,7.4c.55-.88,1.5-1.4,2.54-1.4h3.14c1.02,0,1.96,.51,2.51,1.36l1.93,2.95,4.04,3.03,5.19,9.71ZM5.96,17.64l-1.09,6.36h2.04l.85-5.17s-1.75-1.15-1.8-1.19Z"/></svg>
