<?xml version="1.0" encoding="UTF-8"?>
<svg xmlns="http://www.w3.org/2000/svg" id="Layer_1" data-name="Layer 1" viewBox="0 0 24 24">
  <path d="m0,9h6v15H0v-15Zm10.58,3.966l10.796.034c1.61-1.221,2.624-2.925,2.624-4.419,0-3.824-3.985-5.181-6.329-6.478,0,0-.671-.298-.671-2.104h-2c0,1.849-.723,2.134-.723,2.134-2.351,1.288-6.277,2.653-6.277,6.448,0,1.479.996,3.168,2.58,4.385ZM3,0S0,2.5,0,5v2h6v-2C6,2.5,3,0,3,0Zm5,24h4v-4.5c0-.828.672-1.5,1.5-1.5s1.5.672,1.5,1.5v4.5h2v-4.5c0-.828.672-1.5,1.5-1.5s1.5.672,1.5,1.5v4.5h4v-9H8v9Z"/>
</svg>
