<?xml version="1.0" encoding="UTF-8"?>
<svg xmlns="http://www.w3.org/2000/svg" id="Layer_1" data-name="Layer 1" viewBox="0 0 24 24">
  <path d="m12.5,1.5c0-.828.672-1.5,1.5-1.5s1.5.672,1.5,1.5v.262c.716-.48,1.575-.762,2.5-.762s1.784.282,2.5.762v-.262c0-.828.672-1.5,1.5-1.5s1.5.672,1.5,1.5-.672,1.5-1.5,1.5h-.262c.48.716.762,1.575.762,2.5v.757c.944.708,1.5,1.808,1.5,2.993,0,1.433-.816,2.665-2,3.296v-1.046c0-.552-.448-1-1-1s-1,.448-1,1v1.5h-4v-1.5c0-.552-.448-1-1-1s-1,.448-1,1v1.046c-1.184-.631-2-1.864-2-3.296,0-1.185.556-2.284,1.5-2.993v-.757c0-.925.282-1.784.762-2.5h-.262c-.828,0-1.5-.672-1.5-1.5Zm3,13.5c-3.038,0-5.5-2.462-5.5-5.5,0-1.862.928-3.505,2.344-4.5h-3.344C4.589,5,1,8.589,1,13c0,.87.148,1.721.418,2.526L0,18.034l1.741.983.771-1.364c.421.587.913,1.126,1.487,1.586v4.76h5v-3h5v3h5v-4.08c1.782-1.034,3.08-2.722,3.659-4.661l.302-.845c-.741.372-1.575.587-2.461.587h-5Z"/>
</svg>
