<?xml version="1.0" encoding="UTF-8"?>
<svg xmlns="http://www.w3.org/2000/svg" id="Layer_1" data-name="Layer 1" viewBox="0 0 24 24">
  <path d="m10.2,14.351v3.4c0,.386-.314.7-.7.7s-.7-.314-.7-.7v-3.4c0-.386.314-.7.7-.7s.7.314.7.7Zm1.8-11.351c.828,0,1.5-.672,1.5-1.5s-.672-1.5-1.5-1.5-1.5.672-1.5,1.5.672,1.5,1.5,1.5Zm7.8,10.651c-.386,0-.7,0-.7,0v4.802s.314,0,.7,0,.7-.314.7-.7v-3.4c0-.386-.314-.7-.7-.7Zm4.2-.651v9H0v-9c0-1.657,1.343-3,3-3h1l5.018-6.69c.355.583.87,1.051,1.491,1.345l-4.009,5.345h11l-4.009-5.345c.62-.294,1.136-.762,1.491-1.345l5.018,6.69h1c1.657,0,3,1.343,3,3Zm-19.185,2.336c-.56-.227-1.084-.467-1.366-.595-.099-.045-.428-.173-.433-.615-.002-.131.103-.441.515-.577.73-.236,1.392.2,1.611.367l.86-1.113c-.401-.369-1.539-1.123-2.863-.686-.796.263-1.359.951-1.471,1.796-.106.818.23,1.565.921,2.049.003,0,.838.409,1.753.78.214.086.905.409.817.959-.065.391-.492.795-1.096.795-.572,0-1.124-.24-1.497-.646l-1.009,1.006c.633.723,1.541,1.136,2.506,1.136,1.221,0,2.245-.853,2.436-2.028.143-.882-.224-2.036-1.685-2.627Zm6.985-1.036c0-1.269-1.031-2.3-2.3-2.3s-2.3,1.031-2.3,2.3v3.4c0,1.269,1.031,2.3,2.3,2.3s2.3-1.031,2.3-2.3v-3.4Zm4.671,4.084h-1.9v-6.4h-1.6v8h3.5v-1.6Zm5.629-4.084c0-1.269-1.031-2.3-2.3-2.3h-2.3v8h2.3c1.269,0,2.3-1.031,2.3-2.3v-3.4Z"/>
</svg>
