<?xml version="1.0" encoding="UTF-8"?>
<svg xmlns="http://www.w3.org/2000/svg" id="Layer_1" data-name="Layer 1" viewBox="0 0 24 24" width="512" height="512"><path d="m17.944,15c-.513,0-1.025-.195-1.416-.586l-2.371-2.285,1.393-1.436,2.381,2.295,4.666-4.559,1.402,1.426-4.65,4.564c-.386.386-.896.58-1.406.58Zm-1.317,1.779c-1.592,2.535-4.412,4.221-7.627,4.221C4.029,21,0,16.971,0,12S4.029,3,9,3c4.311,0,7.914,3.032,8.794,7.08l-2.292-2.209-4.178,4.307,3.79,3.65c.434.434.95.755,1.513.951Zm-6.627-1.779h-2v2h2v-2Zm0-8h-2v6h2v-6Z"/></svg>
