<?xml version="1.0" encoding="UTF-8"?>
<svg xmlns="http://www.w3.org/2000/svg" id="Layer_1" data-name="Layer 1" viewBox="0 0 24 24">
  <path d="m11,11c0-1.654-1.346-3-3-3H3c-1.654,0-3,1.346-3,3v2h11v-2Zm-5.5-4c1.93,0,3.5-1.57,3.5-3.5S7.43,0,5.5,0s-3.5,1.57-3.5,3.5,1.57,3.5,3.5,3.5Zm18.5,14v3h-13v-3c0-1.654,1.346-3,3-3h7c1.654,0,3,1.346,3,3Zm-6.5-4c2.481,0,4.5-2.019,4.5-4.5s-2.019-4.5-4.5-4.5-4.5,2.019-4.5,4.5,2.019,4.5,4.5,4.5Zm-9.081,1.594c.774.775.774,2.037,0,2.812l-2.507,2.507-1.414-1.414,1.498-1.498h-2.997c-1.654,0-3-1.346-3-3v-3h2v3c0,.552.449,1,1,1h3.006l-1.508-1.498,1.414-1.414,2.506,2.506Z"/>
</svg>
