<?xml version="1.0" encoding="UTF-8"?>
<svg xmlns="http://www.w3.org/2000/svg" id="Layer_1" data-name="Layer 1" viewBox="0 0 24 24" width="512" height="512"><path d="M21,0H3C1.35,0,0,1.35,0,3V20H6.92l3.75,3.16c.38,.34,.86,.51,1.34,.51s.93-.16,1.29-.49l3.85-3.18h6.85V3c0-1.65-1.35-3-3-3Zm-5.5,6c.83,0,1.5,.67,1.5,1.5s-.67,1.5-1.5,1.5-1.5-.67-1.5-1.5,.67-1.5,1.5-1.5Zm-7,0c.83,0,1.5,.67,1.5,1.5s-.67,1.5-1.5,1.5-1.5-.67-1.5-1.5,.67-1.5,1.5-1.5Zm3.5,9c-3.11,0-5.56-2.16-5.67-2.25l1.33-1.49s2,1.75,4.33,1.75,4.32-1.73,4.34-1.75l1.33,1.49c-.1,.09-2.56,2.25-5.67,2.25Z"/></svg>
