<?xml version="1.0" encoding="UTF-8"?>
<svg xmlns="http://www.w3.org/2000/svg" id="Layer_1" data-name="Layer 1" viewBox="0 0 24 24">
  <path d="m18,0c-3.314,0-6,2.686-6,6s2.686,6,6,6,6-2.686,6-6S21.314,0,18,0Zm.619,8.414c-.378.378-.88.586-1.414.586h-.002c-.534,0-1.036-.209-1.413-.587l-2.012-2.012,1.414-1.414,2.013,2.013,3.615-3.615,1.414,1.414-3.615,3.615ZM3,1.5v3.5H0V1.5C0,.672.672,0,1.5,0s1.5.672,1.5,1.5Zm17,15.5h-10v4.5c0,1.466-1.261,2.637-2.758,2.487-1.301-.13-2.242-1.322-2.242-2.63V1.5c0-.536-.122-1.045-.338-1.5h8.053c-1.664,1.467-2.715,3.613-2.715,6,0,4.411,3.589,8,8,8,.69,0,1.361-.088,2-.253v3.253Zm-8,2h12v1.5c0,1.93-1.57,3.5-3.5,3.5h-9.26c.48-.716.76-1.576.76-2.5v-2.5Z"/>
</svg>
