<?xml version="1.0" encoding="UTF-8"?>
<svg xmlns="http://www.w3.org/2000/svg" id="Layer_1" data-name="Layer 1" viewBox="0 0 24 24">
  <path d="m21.033,12c0-.537-.051-1.081-.153-1.625l3.052-1.756-2.991-5.201-3.05,1.754c-.841-.721-1.81-1.279-2.857-1.649V0h-6v3.522c-1.047.37-2.016.929-2.857,1.649l-3.051-1.754L.135,8.619l3.052,1.755c-.102.544-.153,1.088-.153,1.626s.051,1.082.153,1.626L.135,15.381l2.99,5.201,3.051-1.754c.841.721,1.81,1.279,2.857,1.649v3.522h6v-3.522c1.047-.37,2.016-.929,2.857-1.649l3.05,1.754,2.991-5.201-3.052-1.756c.102-.544.153-1.088.153-1.625ZM7,7h2v3.163c-.319-.096-.65-.163-1-.163s-.681.067-1,.163v-3.163Zm2,8.223v1.777h-2v-1.777c-.595-.346-1-.984-1-1.723,0-1.105.895-2,2-2s2,.895,2,2c0,.738-.405,1.376-1,1.723Zm6-8.223h2v3.163c-.319-.096-.65-.163-1-.163s-.681.067-1,.163v-3.163Zm2,8.223v1.777h-2v-1.777c-.595-.346-1-.984-1-1.723,0-1.105.895-2,2-2s2,.895,2,2c0,.738-.405,1.376-1,1.723Zm-4,1.777h-2v-3.163c.319.096.65.163,1,.163s.681-.067,1-.163v3.163Zm-1-4.5c-1.105,0-2-.895-2-2,0-.738.405-1.376,1-1.723v-1.777h2v1.777c.595.346,1,.984,1,1.723,0,1.105-.895,2-2,2Z"/>
</svg>
