<?xml version="1.0" encoding="UTF-8"?>
<svg xmlns="http://www.w3.org/2000/svg" id="Layer_1" data-name="Layer 1" viewBox="0 0 24 24" width="512" height="512"><path d="M24,15.5c0-2.721-1.683-5.054-4.061-6.021-.08,.692-.247,1.355-.484,1.987,1.5,.731,2.545,2.256,2.545,4.034,0,1.351-.601,2.609-1.626,3.46l-5.152-5.152c1.675-1.176,2.778-3.111,2.778-5.308,0-3.584-2.916-6.5-6.5-6.5H6.5c-.879,0-1.75,.19-2.553,.533L1.457,.043,.043,1.457,22.543,23.957l1.414-1.414-2.167-2.167c1.395-1.226,2.21-2.987,2.21-4.876ZM6.5,4h5c2.481,0,4.5,2.019,4.5,4.5,0,1.637-.899,3.074-2.216,3.869l-1.404-1.404c.959-.164,1.47-.952,1.592-1.965h-1.471c-.631,0-1.236,.102-1.813,.273L5.523,4.109c.317-.07,.643-.109,.977-.109Zm-1.955,8.534c-.236,.631-.404,1.295-.484,1.987C1.683,13.554,0,11.221,0,8.5c0-1.204,.33-2.349,.921-3.337l1.48,1.48c-.258,.572-.401,1.202-.401,1.857,0,1.778,1.045,3.304,2.545,4.034Zm11.213,7.466l1.983,1.983c-.081,.003-.16,.017-.24,.017h-5c-3.584,0-6.5-2.916-6.5-6.5,0-1.476,.507-2.827,1.34-3.918l1.429,1.429c-.479,.718-.769,1.57-.769,2.489,0,2.481,2.019,4.5,4.5,4.5h3.258Z"/></svg>
