<?xml version="1.0" encoding="UTF-8"?>
<svg xmlns="http://www.w3.org/2000/svg" id="Layer_1" data-name="Layer 1" viewBox="0 0 24 24">
  <path d="m18.829,17.415c1.554-2.15,3.171-5.111,3.171-8.149,0-3.224-1.844-6.377-3.391-8.455-.526-.707-1.407-.981-2.241-.708-.831.275-1.368,1.021-1.368,1.897v11.585l-3.302-3.302c.19-.399.302-.834.302-1.284V0h-2v8.586l-2-2V0h-2v4.586l-2-2V0h-2v.586L1.457.043.043,1.457l22.5,22.5,1.414-1.414-5.128-5.128Zm-3.829,1.828l2,2v2.757h-2v-4.757ZM5.757,10l2.243,2.243v11.757h-2v-12h-1c-1.654,0-3-1.346-3-3v-2.757l2,2v.757c0,.551.449,1,1,1h.757Z"/>
</svg>
