<?xml version="1.0" encoding="UTF-8"?>
<svg xmlns="http://www.w3.org/2000/svg" id="Layer_1" data-name="Layer 1" viewBox="0 0 24 24" width="512" height="512"><polygon points="12 4.93 16.93 2.46 12 0 7.07 2.46 12 4.93"/><polygon points="5 17.48 0 14.99 0 21.11 5 23.98 5 17.48"/><polygon points="19 23.98 24 21.11 24 14.99 19 17.48 19 23.98"/><g><polygon points="11 12.09 11 6.59 6 4.1 6 9.52 11 12.09"/><polygon points="4.89 11.2 .88 13.21 6 15.73 9.89 13.77 4.89 11.2"/></g><g><polygon points="18 9.52 18 4.1 13 6.59 13 12.08 18 9.52"/><polygon points="19.11 11.2 14.1 13.77 18 15.73 23.12 13.21 19.11 11.2"/></g><g><polygon points="11 15.48 7 17.43 7 23.93 11 21.68 11 15.48"/><polygon points="13 15.47 13 21.67 17 23.91 17 17.41 13 15.47"/></g></svg>
