<?xml version="1.0" encoding="UTF-8"?>
<svg xmlns="http://www.w3.org/2000/svg" id="Layer_1" data-name="Layer 1" viewBox="0 0 24 24" width="512" height="512"><path d="M13.414,15.586l3.5,3.5-1.414,1.414-2.5-2.5v6h-2v-6l-2.5,2.5-1.414-1.414,3.5-3.5c.779-.779,2.049-.779,2.828,0Zm-2.414-3.586c0-.552-.448-1-1-1s-1,.448-1,1,.448,1,1,1,1-.448,1-1Zm-5-1c-.552,0-1,.448-1,1s.448,1,1,1,1-.448,1-1-.448-1-1-1Zm-4,0c-.552,0-1,.448-1,1s.448,1,1,1,1-.448,1-1-.448-1-1-1Zm13,1c0-.552-.448-1-1-1s-1,.448-1,1,.448,1,1,1,1-.448,1-1Zm7-1c-.552,0-1,.448-1,1s.448,1,1,1,1-.448,1-1-.448-1-1-1ZM13,6V0h-2V6l-2.5-2.5-1.414,1.414,3.5,3.5c.39,.39,.902,.585,1.414,.585s1.024-.195,1.414-.585l3.5-3.5-1.414-1.414-2.5,2.5Zm5,5c-.552,0-1,.448-1,1s.448,1,1,1,1-.448,1-1-.448-1-1-1Z"/></svg>
