<?xml version="1.0" encoding="UTF-8"?>
<svg xmlns="http://www.w3.org/2000/svg" id="Layer_1" data-name="Layer 1" viewBox="0 0 24 24" width="512" height="512"><path d="M10.421,19.092l-3.421,2.799v-5.598l3.421,2.799Zm1.579-1.292l3.421-2.799h-6.842l3.421,2.799Zm5,4.091v-5.598l-3.421,2.799,3.421,2.799ZM12,6c-.551,0-1,.449-1,1s.449,1,1,1,1-.449,1-1-.449-1-1-1Zm12,4.429v13.57h-5v-7.998c0-1.654-1.346-3-3-3H8c-1.654,0-3,1.346-3,3v7.998H0V10.429c0-.595,.174-1.17,.504-1.665L3.838,3.763c.323-.485,.777-.863,1.314-1.093L10.818,.242c.751-.322,1.612-.322,2.363,0l5.667,2.429c.537,.23,.991,.608,1.314,1.094l3.334,5.001c.33,.494,.504,1.069,.504,1.664Zm-9-3.429c0-1.654-1.346-3-3-3s-3,1.346-3,3,1.346,3,3,3,3-1.346,3-3Zm1.419,17l-4.419-3.616-4.419,3.616h8.839Z"/></svg>
