<?xml version="1.0" encoding="UTF-8"?>
<svg xmlns="http://www.w3.org/2000/svg" id="Layer_1" data-name="Layer 1" viewBox="0 0 24 24">
  <path d="m18,0H6c-1.654,0-3,1.346-3,3v21h18V3c0-1.654-1.346-3-3-3Zm-4,15c-.547,0-1.042-.221-1.403-.576.296.994.729,1.903,1.403,2.576h-4c.674-.674,1.107-1.583,1.403-2.576-.361.356-.856.576-1.403.576-1.105,0-2-.895-2-2s.895-2,2-2c.101,0,.197.015.293.03-.182-.302-.293-.651-.293-1.03,0-1.105.895-2,2-2s2,.895,2,2c0,.378-.111.728-.293,1.03.097-.014.193-.03.293-.03,1.105,0,2,.895,2,2s-.895,2-2,2Z"/>
</svg>
