<?xml version="1.0" encoding="UTF-8"?>
<svg xmlns="http://www.w3.org/2000/svg" id="Layer_1" data-name="Layer 1" viewBox="0 0 24 24" width="512" height="512"><path d="m12,16.242v7.77l-7.356-6.013h-2.644c-1.103,0-2-.897-2-2v-8c0-1.026.776-1.873,1.771-1.987l10.229,10.229Zm2,2.758v2h1c.543,0,1.082-.049,1.612-.145l-1.855-1.855h-.757Zm6.521.107l3.436,3.436-1.414,1.414L.043,1.457,1.457.043l4.717,4.717L12,.037v10.549l4.175,4.175c1.093-.464,1.825-1.543,1.825-2.761,0-1.654-1.346-3-3-3h-1v-2h1c2.757,0,5,2.243,5,5,0,1.759-.915,3.345-2.346,4.24l1.439,1.439c1.809-1.308,2.907-3.424,2.907-5.679,0-3.86-3.141-7-7-7h-1v-2h1c4.963,0,9,4.038,9,9,0,2.79-1.308,5.415-3.479,7.107Z"/></svg>
