<?xml version="1.0" encoding="UTF-8"?>
<svg xmlns="http://www.w3.org/2000/svg" id="Layer_1" data-name="Layer 1" viewBox="0 0 24 24">
  <path d="m14,2c0,1.105-.895,2-2,2s-2-.895-2-2,.895-2,2-2,2,.895,2,2Zm6.5,13c-1.105,0-2,.895-2,2s.895,2,2,2,2-.895,2-2-.895-2-2-2Zm-19,2c0,1.105.895,2,2,2s2-.895,2-2-.895-2-2-2-2,.895-2,2Zm0-3.444c.591-.344,1.268-.556,2-.556,1.088,0,2.074.439,2.795,1.146l1.638-1.024,1.015.544.047,1.151-1.679,1.049c.108.362.183.737.183,1.133,0,1.412-.739,2.648-1.846,3.36l5.346,3.066v-10.846L1.5,7.152v6.405Zm11.5-.976v10.838l5.296-3.085c-1.081-.717-1.796-1.942-1.796-3.333,0-.396.076-.772.183-1.133l-1.679-1.049.047-1.151,1.015-.544,1.638,1.024c.722-.707,1.707-1.146,2.795-1.146.732,0,1.409.212,2,.556v-6.405l-9.5,5.428Zm2.976-10.339c-.107,1.749-1.336,3.187-2.976,3.616v2.341l-1,.571-1-.571v-2.341c-1.634-.427-2.86-1.857-2.974-3.598l-5.52,3.165,9.494,5.425,9.497-5.427-5.521-3.181Z"/>
</svg>
