<?xml version="1.0" encoding="UTF-8"?>
<svg xmlns="http://www.w3.org/2000/svg" id="Layer_1" data-name="Layer 1" viewBox="0 0 24 24" width="512" height="512"><path d="m21,0H3C1.346,0,0,1.346,0,3v8h24V3c0-1.654-1.346-3-3-3Zm-3,9v-2.5c0-.828.673-1.5,1.5-1.5s1.5.672,1.5,1.5v2.5h-3Zm-5,0v-3.5c0-.828.673-1.5,1.5-1.5s1.5.672,1.5,1.5v3.5h-3Zm-10,0v-2.5c0-.828.673-1.5,1.5-1.5s1.5.672,1.5,1.5v2.5h-3Zm5,0v-3.5c0-.828.673-1.5,1.5-1.5s1.5.672,1.5,1.5v3.5h-3Zm16,12v-8H0v8c0,1.654,1.346,3,3,3h18c1.654,0,3-1.346,3-3Zm-3-6v2.5c0,.828-.673,1.5-1.5,1.5s-1.5-.672-1.5-1.5v-2.5h3Zm-5,0v2.5c0,.828-.673,1.5-1.5,1.5s-1.5-.672-1.5-1.5v-2.5h3Zm-10,0v2.5c0,.828-.673,1.5-1.5,1.5s-1.5-.672-1.5-1.5v-2.5s3,0,3,0Zm5,0v2.5c0,.828-.673,1.5-1.5,1.5s-1.5-.672-1.5-1.5v-2.5s3,0,3,0Z"/></svg>
