<?xml version="1.0" encoding="UTF-8"?>
<svg xmlns="http://www.w3.org/2000/svg" id="Layer_1" data-name="Layer 1" viewBox="0 0 24 24" width="512" height="512"><path d="m5.868,15.583c.77.715,1.345,1.539,1.703,2.417h8.839c.328-.875.845-1.644,1.521-2.236,1.95-1.71,3.068-4.175,3.068-6.764,0-2.56-1.096-5.007-3.006-6.713C16.086.582,13.517-.227,10.956.059,6.904.517,3.59,3.781,3.075,7.821c-.374,2.933.644,5.761,2.793,7.762Zm7.132-.583h-2v-2h2v2Zm-2.928-10.299c.681-.572,1.578-.814,2.464-.653,1.21.211,2.205,1.206,2.417,2.418.224,1.271-.381,2.542-1.506,3.163-.188.103-.447.563-.447.876v.495h-2v-.495c0-1.033.637-2.163,1.481-2.628.289-.16.595-.535.502-1.065-.069-.393-.402-.726-.793-.794-.31-.058-.603.021-.832.216-.228.19-.358.47-.358.767h-2c0-.889.391-1.727,1.072-2.299Zm5.935,15.299c-.005.105-.007.21-.007.315v3.685h-8v-3.851c0-.05,0-.1-.002-.149h8.009Z"/></svg>
