<?xml version="1.0" encoding="UTF-8"?>
<svg xmlns="http://www.w3.org/2000/svg" id="Layer_1" data-name="Layer 1" viewBox="0 0 24 24" width="512" height="512"><path d="M11,13.5v-4c0-.828,.672-1.5,1.5-1.5s1.5,.672,1.5,1.5v4c0,.828-.672,1.5-1.5,1.5s-1.5-.672-1.5-1.5Zm5.5,1.5c.828,0,1.5-.672,1.5-1.5v-4c0-.828-.672-1.5-1.5-1.5s-1.5,.672-1.5,1.5v4c0,.828,.672,1.5,1.5,1.5ZM23,2.5c0-.828-.672-1.5-1.5-1.5s-1.5,.672-1.5,1.5V13.321c0,1.901-1.439,3.588-3.337,3.675-.805,.037-1.554-.201-2.163-.626-.567,.397-1.257,.63-2,.63-1.933,0-3.5-1.567-3.5-3.5V1.58c0-.747-.511-1.44-1.248-1.56-.94-.153-1.752,.568-1.752,1.479v14.654l-2.605-2.65c-.088-.088-.24-.201-.441-.333-.843-.47-1.954-.284-2.584,.561-.604,.81-.437,1.965,.276,2.68l7.354,7.588h15V2.5Z"/></svg>
