<?xml version="1.0" encoding="UTF-8"?>
<svg xmlns="http://www.w3.org/2000/svg" id="Layer_1" data-name="Layer 1" viewBox="0 0 24 24">
  <path d="m5.109,2.191c1.338-.943,2.873-1.624,4.535-1.956.221.372.356.801.356,1.265,0,1.379-1.122,2.5-2.5,2.5-1.137,0-2.088-.768-2.391-1.809Zm18.891,9.809v1H0v-1c0-3.302,1.341-6.297,3.507-8.469.745,1.458,2.246,2.469,3.993,2.469,2.481,0,4.5-2.019,4.5-4.5,0-.523-.107-1.019-.272-1.486.091-.002.18-.014.272-.014,6.617,0,12,5.383,12,12Zm-11-3c0-1.105-.895-2-2-2s-2,.895-2,2,.895,2,2,2,2-.895,2-2Zm6-2.5c0-.828-.672-1.5-1.5-1.5s-1.5.672-1.5,1.5.672,1.5,1.5,1.5,1.5-.672,1.5-1.5ZM7.55,15c-.348,2.11-.55,4.232-.55,5,0,2.43,1.962,4,5,4s5-1.57,5-4c0-.768-.202-2.89-.55-5H7.55Z"/>
</svg>
