<?xml version="1.0" encoding="UTF-8"?>
<svg xmlns="http://www.w3.org/2000/svg" id="Layer_1" data-name="Layer 1" viewBox="0 0 24 24" width="512" height="512"><path d="m22.176.919c-1.16-.87-2.624-1.137-4.015-.736l-8.876,2.569c-.42.122-.859.206-1.301.25-1.012.098-2.84.394-3.714,1.268s-1.168,2.7-1.268,3.711c-.044.443-.127.881-.249,1.302L.184,18.159c-.403,1.393-.135,2.857.737,4.017s2.203,1.824,3.653,1.824h6.412c.18,0,4.468-.049,8.717-4.298s4.298-8.537,4.298-8.718v-6.412c0-1.45-.665-2.782-1.824-3.654Zm-3.459,1.188c.239-.069.481-.104.721-.104.547,0,1.082.177,1.535.517.652.489,1.025,1.238,1.025,2.052v4.996l-6.524-6.524,3.243-.938ZM2.521,20.973c-.489-.652-.64-1.474-.414-2.257l.939-3.243,6.524,6.524h-4.996c-.814,0-1.562-.373-2.052-1.025Zm12.596-12.021l-6.164,6.165-1.416-1.416,6.164-6.165,1.416,1.416Zm1.416,1.417l1.416,1.416-6.164,6.164-1.416-1.416,6.164-6.164Z"/></svg>
