<?xml version="1.0" encoding="UTF-8"?>
<svg xmlns="http://www.w3.org/2000/svg" id="Layer_1" data-name="Layer 1" viewBox="0 0 24 24">
  <path d="m14.5,5.5c0,1.381-1.119,2.5-2.5,2.5s-2.5-1.119-2.5-2.5,1.119-2.5,2.5-2.5,2.5,1.119,2.5,2.5ZM4.039,24h15.927l-6.31-14.302c-.007.008-.014.017-.021.024-1.054.366-2.202.367-3.257.005l-6.34,14.273ZM20.5,6c-2.168,0-4.045,1.145-5.317,2.203l4.763,10.797h2.054v-2h2v-1c0-3.007-.341-10-3.5-10Zm-17,0C.341,6,0,12.993,0,16v1h2v2h2.071l4.783-10.767c-1.273-1.066-3.165-2.233-5.353-2.233ZM12,0c-2.851,0-5,1.29-5,3,0,.722.4,1.36,1.057,1.867.116-.7.415-1.337.843-1.867,0,0,.599-1,3.099-1s3.099,1,3.099,1c.428.53.727,1.167.843,1.867.657-.507,1.057-1.145,1.057-1.867,0-1.71-2.149-3-5-3Z"/>
</svg>
