<?xml version="1.0" encoding="UTF-8"?>
<svg xmlns="http://www.w3.org/2000/svg" id="Layer_1" data-name="Layer 1" viewBox="0 0 24 24" width="512" height="512"><path d="M12,0C5.38,0,0,5.38,0,12s5.38,12,12,12,12-5.38,12-12S18.62,0,12,0Zm0,22c-5.51,0-10-4.49-10-10,0-2.4,.85-4.6,2.26-6.32l14.06,14.06c-1.72,1.41-3.93,2.26-6.32,2.26Zm7.74-3.68l-.74-.74v-1.59c0-1.1-.9-2-2-2,0-.3-.02-.64-.07-1h2.07v-2h-2.41c-.07-.34-.15-.68-.23-1h.64c1.1,0,2-.9,2-2v-2h-2v2h-1.2c-.11-.36-.2-.62-.23-.69-.61-1.4-2-2.31-3.52-2.31s-2.82,.85-3.46,2.18l-2.92-2.92c1.72-1.41,3.93-2.26,6.32-2.26,5.51,0,10,4.49,10,10,0,2.4-.85,4.6-2.26,6.32Zm-12.74-.32h-2v-2c0-1.1,.9-2,2-2,0-.26,.03-.6,.07-1h-2.07v-2h1.76l7.46,7.46c-.68,.34-1.44,.54-2.22,.54-2.05,0-3.8-1.24-4.58-3h-.42v2Z"/></svg>
