<?xml version="1.0" encoding="UTF-8"?>
<svg xmlns="http://www.w3.org/2000/svg" id="Layer_1" data-name="Layer 1" viewBox="0 0 24 24">
  <path d="m14.5,10c.828,0,1.5.672,1.5,1.5s-.672,1.5-1.5,1.5-1.5-.672-1.5-1.5.672-1.5,1.5-1.5Zm6,0c-.828,0-1.5.672-1.5,1.5s.672,1.5,1.5,1.5,1.5-.672,1.5-1.5-.672-1.5-1.5-1.5Zm-7.418-2.661c.164.962.993,1.661,1.971,1.661h6.682l2.197-7h-9.744l-.059-.341c-.166-.961-.995-1.659-1.971-1.659h-2.158v2h2.158l.924,5.339Zm10.918,12.661v-8.5c0,1.93-1.57,3.5-3.5,3.5-1.28,0-2.39-.698-3-1.726-.61,1.028-1.72,1.726-3,1.726-1.93,0-3.5-1.57-3.5-3.5,0-.836.307-1.594.797-2.196-.336-.475-.583-1.021-.687-1.629l-.636-3.675h-2.475v-2H3c-1.654,0-3,1.346-3,3v15h11v2h-5v2h12v-2h-5v-2h11Z"/>
</svg>
