<?xml version="1.0" encoding="UTF-8"?>
<svg xmlns="http://www.w3.org/2000/svg" id="Layer_1" data-name="Layer 1" viewBox="0 0 24 24">
  <path d="m23.454,5.598l-2.66-2.66-1.414,1.414,1.647,1.648h-3.027v-3.019l2-2v-.98H4v6.98l2,2v3.019h-3.027l1.647-1.648-1.414-1.414-2.66,2.66c-.729.73-.729,1.919,0,2.65l2.659,2.659,1.414-1.414-1.494-1.494h2.873v2.865l-2,2v2.135c0,1.654,1.346,3,3,3h10c1.654,0,3-1.346,3-3v-8.135l-2-2v-2.865h2.873l-1.494,1.494,1.414,1.414,2.659-2.659c.729-.731.729-1.92,0-2.65Zm-9.531,15.402h-4v-2h4v2Zm-.797-6.2h-.326v1.2h-1.6v-1.2h-.2c-1.201,0-2.189-.925-2.291-2.1h1.62c.086.289.354.5.671.5h2.126c.316,0,.574-.257.574-.574,0-.272-.194-.509-.462-.563l-2.791-.559c-1.013-.203-1.747-1.099-1.747-2.131,0-1.199.975-2.173,2.173-2.173h.327v-1.2h1.6v1.2h.2c1.201,0,2.189.925,2.291,2.1h-1.62c-.086-.289-.354-.5-.671-.5h-2.127c-.316,0-.573.257-.573.574,0,.272.194.509.461.562l2.792.559c1.013.202,1.747,1.099,1.747,2.131,0,1.199-.975,2.173-2.174,2.173Z"/>
</svg>
