<?xml version="1.0" encoding="UTF-8"?>
<svg xmlns="http://www.w3.org/2000/svg" id="Layer_1" data-name="Layer 1" viewBox="0 0 24 24">
  <path d="m23.993,11.098l-1.035-1.711-12.601,7.629c-1.315.018-4.485.129-5.639.764-.775.427-1.339,1.13-1.586,1.98-.247.851-.147,1.746.279,2.522s1.13,1.339,1.979,1.586c.307.089.619.133.93.133.551,0,1.096-.139,1.592-.412,1.198-.658,2.84-3.629,3.488-4.868l12.593-7.624ZM6.761,0c-1.826,2.693-.967,7-3.261,7-1,0-1-3-1-3-1.078,1.112-2.5,3.41-2.5,5.5,0,3.59,2.91,6.5,6.5,6.5s6.5-2.91,6.5-6.5c0-4.106-4.208-7.136-6.239-9.5Zm1.178,13.414c-.781.781-2.048.781-2.829,0-.781-.782-.781-2.048,0-2.829l1.415-1.415,1.414,1.415c.781.782.781,2.048,0,2.829Z"/>
</svg>
