<?xml version="1.0" encoding="UTF-8"?>
<svg xmlns="http://www.w3.org/2000/svg" id="Layer_1" data-name="Layer 1" viewBox="0 0 24 24" width="512" height="512"><path d="m14,6c0-1.657,1.343-3,3-3s3,1.343,3,3-1.343,3-3,3-3-1.343-3-3Zm-1.025,3.233C12.735,5.469,10.569,0,0,0v2c6.936,0,10.616,2.435,10.966,7.232-2.857.891-10.966,4.042-10.966,10.768,0,2.206,1.794,4,4,4s4-1.794,4-4c0-4.922,2.788-7.752,3.997-8.748,1.197.996,4.003,3.85,4.003,8.748,0,2.206,1.794,4,4,4s4-1.794,4-4c0-6.945-8.437-9.994-11.025-10.767Zm-4.975-2.233c0-1.657-1.343-3-3-3s-3,1.343-3,3,1.343,3,3,3,3-1.343,3-3Z"/></svg>
