<?xml version="1.0" encoding="UTF-8"?>
<svg xmlns="http://www.w3.org/2000/svg" id="Layer_1" data-name="Layer 1" viewBox="0 0 24 24">
  <path d="m14,15.171l1,1V1.353c-1.473-.855-3.178-1.353-5-1.353C4.486,0,0,4.486,0,10s4.486,10,10,10c.109,0,.213-.018.321-.022l-.564-.564,4.243-4.243ZM3,10c0-3.86,3.14-7,7-7v2c-2.757,0-5,2.243-5,5,0,2.708,2.168,4.908,4.857,4.986l-1.748,1.748c-2.943-.828-5.109-3.529-5.109-6.733Zm20.375,9.428l-3.993,3.993c-.386.385-.895.579-1.404.579-.513,0-1.026-.195-1.417-.586l-4-4,1.414-1.414,3.002,3.002L17-.002l2,.002-.023,21.017,2.998-3.018,1.4,1.429Z"/>
</svg>
