<?xml version="1.0" encoding="UTF-8"?>
<svg xmlns="http://www.w3.org/2000/svg" id="Layer_1" data-name="Layer 1" viewBox="0 0 24 24">
  <path d="m20.987,12.138c-.135-4.515-2.741-6.138-4.987-6.138-1.012,0-2.099.329-3,1.102v-.602C13,1.702,10.307,0,8,0,5.754,0,3.148,1.623,3.013,6.138c-1.727.443-3.013,1.999-3.013,3.862,0,2.833,2.956,5.87,3.293,6.207l.707.707.707-.707c.337-.337,3.293-3.375,3.293-6.207,0-1.854-1.274-3.402-2.988-3.854.13-3.829,2.305-4.146,2.988-4.146.704,0,3,.325,3,4.5v17.5h2v-11.5c0-4.175,2.296-4.5,3-4.5.683,0,2.857.317,2.988,4.146-1.714.452-2.988,2-2.988,3.854,0,2.833,2.956,5.87,3.293,6.207l.707.707.707-.707c.337-.337,3.293-3.375,3.293-6.207,0-1.863-1.286-3.419-3.013-3.862Z"/>
</svg>
