<?xml version="1.0" encoding="UTF-8"?>
<svg xmlns="http://www.w3.org/2000/svg" id="Layer_1" data-name="Layer 1" viewBox="0 0 24 24" width="512" height="512"><path d="m21.5,19c-.321,0-.626.066-.909.177l-1.566-1.566c.538-.672.981-1.422,1.311-2.231l2.894.812.54-1.926-2.898-.814c.077-.474.128-.957.128-1.453s-.051-.979-.128-1.453l2.898-.814-.54-1.926-2.894.812c-.329-.809-.773-1.559-1.311-2.231l1.566-1.566c.282.111.588.177.909.177,1.378,0,2.5-1.121,2.5-2.5s-1.122-2.5-2.5-2.5-2.5,1.121-2.5,2.5c0,.321.066.626.177.909l-1.566,1.566c-.672-.538-1.422-.981-2.231-1.31l.813-2.894-1.926-.541-.814,2.899c-.474-.077-.957-.128-1.453-.128s-.979.051-1.453.128l-.814-2.899-1.926.541.813,2.894c-.809.329-1.559.773-2.231,1.31l-1.566-1.566c.111-.282.177-.587.177-.909,0-1.379-1.122-2.5-2.5-2.5S0,1.121,0,2.5s1.122,2.5,2.5,2.5c.321,0,.626-.066.909-.177l1.566,1.566c-.538.672-.981,1.422-1.311,2.231l-2.894-.812-.54,1.926,2.898.814c-.077.474-.128.957-.128,1.453s.051.979.128,1.453l-2.898.814.54,1.926,2.894-.812c.329.809.773,1.559,1.311,2.231l-1.566,1.566c-.282-.111-.588-.177-.909-.177-1.378,0-2.5,1.121-2.5,2.5s1.122,2.5,2.5,2.5,2.5-1.121,2.5-2.5c0-.321-.066-.626-.177-.909l1.566-1.566c.672.538,1.422.981,2.231,1.31l-.813,2.894,1.926.541.814-2.899c.474.077.957.128,1.453.128s.979-.051,1.453-.128l.814,2.899,1.926-.541-.813-2.894c.809-.329,1.559-.773,2.231-1.31l1.566,1.566c-.111.282-.177.587-.177.909,0,1.379,1.122,2.5,2.5,2.5s2.5-1.121,2.5-2.5-1.122-2.5-2.5-2.5Zm-14.036-5.5c-.828,0-1.5-.672-1.5-1.5,0-.828.672-1.5,1.5-1.5.828,0,1.5.672,1.5,1.5,0,.828-.672,1.5-1.5,1.5Zm6.036,3.036c0,.828-.672,1.5-1.5,1.5-.828,0-1.5-.672-1.5-1.5,0-.828.672-1.5,1.5-1.5.828,0,1.5.672,1.5,1.5Zm-1.5-7.571c-.828,0-1.5-.672-1.5-1.5s.672-1.5,1.5-1.5,1.5.672,1.5,1.5-.672,1.5-1.5,1.5Zm4.535,4.536c-.828,0-1.5-.672-1.5-1.5,0-.828.672-1.5,1.5-1.5s1.5.672,1.5,1.5c0,.828-.672,1.5-1.5,1.5Z"/></svg>
