<?xml version="1.0" encoding="UTF-8"?>
<svg xmlns="http://www.w3.org/2000/svg" id="Layer_1" data-name="Layer 1" viewBox="0 0 24 24">
  <path d="m13,4h-2V0h2v4ZM17,0h-2v4h2V0Zm-8,0h-2v4h2V0Zm8.852,17.467l3.267,6.534h-2.236l-1-2h-7.932c.019-.166.05-.329.05-.5,0-.529-.108-1.029-.276-1.5h7.157l-1-2h-7.764l-.861,1.722c.459.453.743,1.082.743,1.778,0,1.381-1.119,2.5-2.5,2.5s-2.5-1.119-2.5-2.5c0-1.341,1.055-2.435,2.38-2.497l.768-1.537C2.384,15.358,0,11.35,0,7v-1h24v1c0,4.351-2.384,8.359-6.148,10.467Z"/>
</svg>
