<?xml version="1.0" encoding="UTF-8"?>
<svg xmlns="http://www.w3.org/2000/svg" id="Layer_1" data-name="Layer 1" viewBox="0 0 24 24" width="512" height="512"><path d="m13.65,7.55c.962-.963,1.43-1.942,1.39-2.911-.062-1.507-1.316-2.607-1.329-2.618l1.292-1.527c.079.067,1.935,1.664,2.035,4.062.064,1.551-.6,3.034-1.974,4.408l-1.414-1.414Zm7.034,2.453c-1.125-.039-2.215.432-3.205,1.421l1.414,1.414c.574-.574,1.129-.88,1.695-.837.87.028,1.532.774,1.538.782l1.521-1.298c-.122-.145-1.241-1.411-2.964-1.482Zm1.816-7.003c.828,0,1.5-.672,1.5-1.5s-.672-1.5-1.5-1.5-1.5.672-1.5,1.5.672,1.5,1.5,1.5Zm-2,5c.828,0,1.5-.672,1.5-1.5s-.672-1.5-1.5-1.5-1.5.672-1.5,1.5.672,1.5,1.5,1.5Zm-11-4c.828,0,1.5-.672,1.5-1.5s-.672-1.5-1.5-1.5-1.5.672-1.5,1.5.672,1.5,1.5,1.5Zm12,13c-.828,0-1.5.672-1.5,1.5s.672,1.5,1.5,1.5,1.5-.672,1.5-1.5-.672-1.5-1.5-1.5ZM2.5,5c.828,0,1.5-.672,1.5-1.5s-.672-1.5-1.5-1.5-1.5.672-1.5,1.5.672,1.5,1.5,1.5Zm14,16c-.828,0-1.5.672-1.5,1.5s.672,1.5,1.5,1.5,1.5-.672,1.5-1.5-.672-1.5-1.5-1.5ZM5.853,9.802l8.345,8.345,4.739-1.97L7.823,5.063l-1.97,4.738ZM-.084,24.084l12.285-5.107-7.178-7.178L-.084,24.084Z"/></svg>
