<?xml version="1.0" encoding="UTF-8"?>
<svg xmlns="http://www.w3.org/2000/svg" id="Layer_1" data-name="Layer 1" viewBox="0 0 24 24" width="512" height="512"><path d="m23.876,11.518c-2.227-4.049-5.105-6.849-6.894-8.017-1.216-.793-2.844-.622-3.875.408l-1.107,1.107-1.107-1.108c-1.032-1.031-2.661-1.201-3.875-.407C5.143,4.726,2.286,7.667.129,11.478l-.129.27v.529l.132.23c.175.306,4.374,7.492,11.868,7.492s11.692-7.176,11.868-7.482l.132-.252v-.523l-.124-.225Zm-11.876,2.482c-4.518,0-9.549-2-9.549-2,0,0,5.03-2,9.549-2s9.544,1.998,9.549,2c0,0-5.03,2-9.549,2Z"/></svg>
