<?xml version="1.0" encoding="UTF-8"?>
<svg xmlns="http://www.w3.org/2000/svg" id="Layer_1" data-name="Layer 1" viewBox="0 0 24 24">
  <path d="m19,19h4.414l-4.414,4.414v-4.414ZM24,3v14h-7v7H0V3C0,1.346,1.346,0,3,0h18c1.654,0,3,1.346,3,3ZM6.409,6.66c.012-.079.069-.273.362-.361.657-.196,1.265.279,1.29.299l.476.399.805-.957-.479-.402c-.045-.038-1.135-.934-2.452-.537-.671.202-1.146.731-1.239,1.38-.087.61.178,1.197.777,1.579,0,0,.678.303,1.43.58.159.059.672.276.61.621-.046.256-.361.521-.81.521-.468,0-.918-.188-1.204-.504l-.42-.463-.926.84.42.462c.527.581,1.304.914,2.13.914,1.021,0,1.88-.653,2.04-1.552.121-.678-.186-1.562-1.408-2.014-.658-.243-1.257-.506-1.272-.506-.143-.097-.138-.243-.13-.302Zm7.589-1.626h-1.252l-.684,3.282-.826-3.282h-1.252l1.511,6h1.25l1.252-6Zm5.002,2.967h-2v1.302h.682c-.109.273-.38.474-.696.479-.402-.007-.725-.333-.724-.736,0-.138-.007-1.929-.008-2.024-.001-.403.322-.729.724-.736.408.007.75.338.75.733v.015s1.25,0,1.25,0v-.015c0-1.094-.902-1.985-2.012-1.985-1.086,0-1.967.881-1.967,1.967l.008,2.066c0,1.086.881,1.967,1.967,1.967,1.109,0,2.026-.891,2.026-1.985v-1.048Z"/>
</svg>
