<?xml version="1.0" encoding="UTF-8"?>
<svg xmlns="http://www.w3.org/2000/svg" id="Layer_1" data-name="Layer 1" viewBox="0 0 24 24">
  <path d="m14.121,12.879c.566.566.879,1.319.879,2.121s-.313,1.555-.879,2.121c-1.134,1.133-3.11,1.135-4.242,0-.566-.566-.879-1.319-.879-2.121s.312-1.555.871-2.113l2.129-2.083,2.121,2.075Zm7.879,1.121c0,2.671-1.041,5.183-2.93,7.071s-4.399,2.929-7.07,2.929-5.182-1.04-7.071-2.929c-3.899-3.899-3.899-10.243,0-14.143L12,.014l7.062,6.907c1.897,1.896,2.938,4.408,2.938,7.079Zm-5,1c0-1.336-.521-2.592-1.473-3.543l-3.527-3.45-3.535,3.458c-.944.943-1.465,2.199-1.465,3.535s.521,2.592,1.464,3.535,2.2,1.465,3.536,1.465,2.591-.521,3.535-1.465,1.465-2.199,1.465-3.535Z"/>
</svg>
