<?xml version="1.0" encoding="UTF-8"?>
<svg xmlns="http://www.w3.org/2000/svg" id="Layer_1" data-name="Layer 1" viewBox="0 0 24 24" width="512" height="512"><path d="M5.72,14l.95-3.09,.97,.97,.65,2.12h-2.57Zm5.89,4h-2.09l-.61-2h-3.8l-.61,2H2.39l2.67-8.69L.36,4.6c-.22,.42-.36,.89-.36,1.4v15H16.76l-6.11-6.11,.95,3.11Zm10.81,3h1.59V6c0-1.65-1.35-3-3-3H4.41L1.41,0,0,1.41,5.73,7.14l.05-.17c.19-.61,.67-1,1.22-1s1.03,.39,1.22,.99l1.18,3.83,3.6,3.6V6h4c2.21,0,4,1.79,4,4v4c0,2.21-1.79,4-4,4h-.41l6.01,6.01,1.41-1.41-1.59-1.59Zm-3.41-7v-4c0-1.1-.9-2-2-2h-2v8h2c1.1,0,2-.9,2-2Z"/></svg>
