<?xml version="1.0" encoding="UTF-8"?>
<svg xmlns="http://www.w3.org/2000/svg" id="Layer_1" data-name="Layer 1" viewBox="0 0 24 24">
  <path d="m10.622,20.995c-1.652,0-3.284-.516-4.633-1.57l4.425-4.425h8.867c-.814,1.24-1.726,2.389-2.732,3.439-1.617,1.688-3.787,2.556-5.927,2.556Zm1.792-7.995h8.055c.512-.957.973-1.958,1.38-3h-6.435l-3,3ZM22.811.083c-2.731.299-11.044,1.209-17.545,7.729-1.539,1.543-2.362,3.68-2.257,5.861.077,1.602.625,3.093,1.573,4.331l10.004-10.004h7.964c.666-2.136,1.125-4.419,1.365-6.823l.123-1.228-1.227.134ZM1.483,23.932l4.506-4.507c-.053-.041-.105-.083-.157-.126-.472-.39-.89-.824-1.25-1.295L.069,22.518l1.414,1.414Z"/>
</svg>
