<?xml version="1.0" encoding="UTF-8"?>
<svg xmlns="http://www.w3.org/2000/svg" id="Layer_1" data-name="Layer 1" viewBox="0 0 24 24">
  <path d="m10,10c0,.379.271.698.644.761l3.041.506c1.342.224,2.315,1.374,2.315,2.733,0,1.654-1.346,3-3,3v2h-2v-2c-1.654,0-3-1.346-3-3h2c0,.552.449,1,1,1h2c.552,0,1-.448,1-1,0-.379-.271-.698-.645-.761l-3.04-.506c-1.342-.224-2.315-1.374-2.315-2.733,0-1.654,1.346-3,3-3v-2h2v2c1.654,0,3,1.346,3,3h-2c0-.552-.448-1-1-1h-2c-.551,0-1,.448-1,1Zm7-1h4.991c1.107,0,2.009-.901,2.009-2.009V2h-2l-.006,3.344C19.805,2.034,16.103,0,12,0,5.383,0,0,5.383,0,12s5.383,12,12,12,12-5.383,12-12h-2c0,5.514-4.486,10-10,10S2,17.514,2,12,6.486,2,12,2c3.64,0,6.901,1.921,8.666,5h-3.666v2Z"/>
</svg>
