<?xml version="1.0" encoding="UTF-8"?>
<svg xmlns="http://www.w3.org/2000/svg" id="Layer_1" data-name="Layer 1" viewBox="0 0 24 24">
  <path d="m19.427,6.513c-.486-3.67-3.627-6.513-7.427-6.513-3.652,0-6.699,2.625-7.362,6.087-2.349.41-4.138,2.447-4.138,4.913,0,2.05,1.234,3.812,3,4.584v.431l1.5,1.5-1.5,1.5,1.5,1.5-1.5,1.5,2.001,2,1.999-2v-6.431c1.766-.772,3-2.533,3-4.584,0-2.355-1.634-4.317-3.826-4.847.603-2.382,2.759-4.153,5.326-4.153,2.745,0,5.021,2.025,5.429,4.657l-4.429,4.429v12.914h11v-12.914l-4.573-4.573Zm-13.927,4.487c-.828,0-1.5-.672-1.5-1.5s.672-1.5,1.5-1.5,1.5.672,1.5,1.5-.672,1.5-1.5,1.5Z"/>
</svg>
