<?xml version="1.0" encoding="UTF-8"?>
<svg xmlns="http://www.w3.org/2000/svg" id="Layer_1" data-name="Layer 1" viewBox="0 0 24 24">
  <path d="m4.96,14.589c.425-.807.605-1.882.494-2.949-.209-1.995-1.349-3.335-2.836-3.335-.084,0-.169.004-.251.013-.111.012-.214.045-.321.071-.024-.129-.04-.26-.046-.39-.057-1.258.5-2.5.5-2.5,0,0-2.65,1.352-2.5,3.5.023.337.092.695.262,1.069-.23.615-.312,1.352-.23,2.138.222,2.12,1.514,3.78,2.942,3.78l.192-.01c.724-.076,1.361-.568,1.794-1.388Z"/>
  <path d="m8.514,10.922c.071,0,.143-.003.212-.011.796-.083,1.497-.625,1.972-1.526.469-.889.667-2.071.544-3.244-.229-2.194-1.483-3.669-3.119-3.669-.041,0-.081.005-.122.006-.049-1.251.5-2.479.5-2.479,0,0-2.65,1.352-2.5,3.5.001.021.006.042.007.063-.052.069-.113.128-.16.203-.489.772-.691,1.837-.569,2.998.243,2.332,1.665,4.158,3.236,4.158Z"/>
  <path d="m15.42,10.899c.068.006.134.01.202.01,1.571,0,2.993-1.827,3.236-4.158.121-1.16-.081-2.224-.569-2.998-.102-.161-.22-.302-.343-.435-.007-2.041-2.498-3.318-2.498-3.318,0,0,.549,1.228.5,2.479-1.59.04-2.827,1.488-3.053,3.65-.123,1.174.076,2.356.544,3.244.475.901,1.175,1.443,1.981,1.527Z"/>
  <path d="m12,13c-4.038,0-8,3.887-8,7.847,0,1.438.553,3.153,3.188,3.153.74,0,1.434-.226,2.167-.464.811-.264,1.649-.536,2.645-.536s1.834.272,2.645.536c.734.238,1.427.464,2.167.464,2.634,0,3.188-1.715,3.188-3.153,0-3.96-3.962-7.847-8-7.847Z"/>
  <path d="m24,9c.15-2.148-2.5-3.5-2.5-3.5,0,0,.557,1.242.5,2.5-.006.135-.023.269-.049.403-.102-.025-.202-.058-.309-.069-1.613-.18-2.866,1.211-3.085,3.315-.111,1.065.068,2.138.494,2.944.432.818,1.067,1.309,1.777,1.383l.204.012c1.425,0,2.715-1.658,2.936-3.773.083-.787,0-1.525-.232-2.141.172-.376.24-.735.264-1.073Z"/>
</svg>
