<?xml version="1.0" encoding="UTF-8"?>
<svg xmlns="http://www.w3.org/2000/svg" id="Layer_1" data-name="Layer 1" viewBox="0 0 24 24">
  <path d="m1.5,21c.828,0,1.5.672,1.5,1.5s-.672,1.5-1.5,1.5-1.5-.672-1.5-1.5.672-1.5,1.5-1.5Zm-.5-5v2c2.757,0,5,2.243,5,5h2c0-3.859-3.141-7-7-7Zm0-5v2c5.514,0,10,4.486,10,10h2c0-6.617-5.383-12-12-12Zm23-2.817v9.817h-9.939c-1.421-3.699-4.362-6.64-8.061-8.061v-1.756c0-1.238.56-2.387,1.535-3.15L13.151.638c1.088-.854,2.609-.854,3.697,0l5.616,4.396c.976.763,1.535,1.911,1.535,3.149Zm-7,.817h-4v4h4v-4Z"/>
</svg>
