<?xml version="1.0" encoding="UTF-8"?>
<svg xmlns="http://www.w3.org/2000/svg" id="Layer_1" data-name="Layer 1" viewBox="0 0 24 24">
  <path d="m23.565,10.47c.276.55.435,1.151.435,1.762v11.769H0v-11.769c.001-.6.156-1.193.425-1.738l8.039,8.042c.944.944,2.2,1.465,3.536,1.465s2.591-.521,3.537-1.467l8.027-8.063Zm-2.565-3.47c0,1.105-.895,2-2,2h-3.6l-2.925,2.418c-.271.241-.678.241-.949,0l-2.87-2.418h-3.655c-1.105,0-2-.895-2-2V2c0-1.105.895-2,2-2h14c1.105,0,2,.895,2,2v5Zm-10.386-2.5l-1.03,1.03,1.414,1.414,1.03-1.03,1.03,1.03,1.414-1.414-1.03-1.03,1.03-1.03-1.414-1.414-1.03,1.03-1.03-1.03-1.414,1.414,1.03,1.03Zm-5.558,0l-1.03,1.03,1.414,1.414,1.03-1.03,1.03,1.03,1.414-1.414-1.03-1.03,1.03-1.03-1.414-1.414-1.03,1.03-1.03-1.03-1.414,1.414,1.03,1.03Zm13.944,0l1.03-1.03-1.414-1.414-1.03,1.03-1.03-1.03-1.414,1.414,1.03,1.03-1.03,1.03,1.414,1.414,1.03-1.03,1.03,1.03,1.414-1.414-1.03-1.03Zm0,6.5h-2.881l-2.37,1.959c-.48.428-1.101.645-1.73.645-.646,0-1.302-.229-1.823-.692l-2.271-1.912h-2.925c-.551,0-1.077-.112-1.555-.315l6.434,6.436c1.134,1.133,3.109,1.133,4.243,0l6.395-6.424c-.468.193-.979.303-1.516.303Z"/>
</svg>
