<?xml version="1.0" encoding="UTF-8"?>
<svg xmlns="http://www.w3.org/2000/svg" id="Layer_1" data-name="Layer 1" viewBox="0 0 24 24" width="512" height="512"><path d="m15,3h-7c-.552,0-1-.448-1-1V0h-2v2c0,1.654,1.346,3,3,3h1v9c0,1.959-2.598,2.838-3.138,3h-.862c-1.654,0-3,1.346-3,3v4h2v-4c0-.552.448-1,1-1h.715c.272.166.541.331.797.494,2.012,1.275,3.911,2.479,8.487,2.505h.04c1.835,0,3.568-.72,4.886-2.029,1.338-1.331,2.075-3.096,2.075-4.97v-5c0-3.859-3.141-7-7-7Zm5,10.501c-.348-.209-1.008-.501-2-.501-.815,0-1.341.201-1.949.434-.693.266-1.479.566-2.664.566-.931,0-1.739-.189-2.387-.415v-2.161c.479.241,1.333.576,2.387.576.815,0,1.341-.201,1.949-.434.693-.266,1.479-.566,2.664-.566.8,0,1.459.139,2,.322v2.179Z"/></svg>
