<?xml version="1.0" encoding="UTF-8"?>
<svg xmlns="http://www.w3.org/2000/svg" id="Layer_1" data-name="Layer 1" viewBox="0 0 24 24">
  <path d="m6.5,22v2H0v-2c0-1.105.895-2,2-2h2.5c1.105,0,2,.895,2,2Zm15.5-2h-2.5c-1.105,0-2,.895-2,2v2h6.5v-2c0-1.105-.895-2-2-2Zm-8.5,0h-3c-1.105,0-2,.895-2,2v2h7v-2c0-1.105-.895-2-2-2Zm7.269-1c1.381,0,2.5-1.119,2.5-2.5s-1.119-2.5-2.5-2.5-2.5,1.119-2.5,2.5,1.119,2.5,2.5,2.5Zm-8.769,0c1.381,0,2.5-1.119,2.5-2.5s-1.119-2.5-2.5-2.5-2.5,1.119-2.5,2.5,1.119,2.5,2.5,2.5Zm-8.769,0c1.381,0,2.5-1.119,2.5-2.5s-1.119-2.5-2.5-2.5-2.5,1.119-2.5,2.5,1.119,2.5,2.5,2.5Zm0-7c2.143,0,3.934,1.508,4.385,3.517.451-2.009,2.242-3.517,4.385-3.517s3.934,1.508,4.385,3.517c.451-2.009,2.242-3.517,4.385-3.517,1.269,0,2.412.533,3.231,1.381V3c0-1.654-1.346-3-3-3H3C1.346,0,0,1.346,0,3v10.381c.819-.848,1.962-1.381,3.231-1.381Z"/>
</svg>
