<?xml version="1.0" encoding="UTF-8"?>
<svg xmlns="http://www.w3.org/2000/svg" id="Layer_1" data-name="Layer 1" viewBox="0 0 24 24">
  <path d="m18,6c-3.309,0-6,2.691-6,6s2.691,6,6,6,6-2.691,6-6-2.691-6-6-6Zm1.079,8.441l-2.079-2.019v-3.423h2v2.577l1.472,1.43-1.393,1.435Zm-6.455,4.559h-7.241c.734-1.9,2.378-3.372,3.632-4.274,1.248.896,2.884,2.363,3.609,4.274Zm5.307.997c.032.33.069.658.069,1.003v3H0v-3c0-4.006,2.24-7.013,4.442-9C2.24,10.013,0,7.006,0,3,0,1.346,1.346,0,3,0h12c1.654,0,3,1.346,3,3,0,.345-.037.673-.069,1.003-4.379.038-7.931,3.608-7.931,7.997,0,.348.03.689.073,1.026-.179-.126-.352-.246-.513-.35l-.548-.358-.547.359c-1.763,1.156-4.806,3.625-5.373,7.165l-.186,1.158h12.185l-.182-1.155c-.028-.175-.066-.345-.105-.515.959.42,2.015.657,3.125.666Z"/>
</svg>
