<?xml version="1.0" encoding="UTF-8"?>
<svg xmlns="http://www.w3.org/2000/svg" id="Layer_1" data-name="Layer 1" viewBox="0 0 24 24" width="512" height="512"><path d="m12,0C6.486,0,2,4.486,2,10c0,7.461,9.074,13.363,9.46,13.611l.54.346.54-.346c.386-.248,9.46-6.15,9.46-13.611C22,4.486,17.514,0,12,0Zm-1.02,12.98s-2.728.248-3.968-.992-.992-3.968-.992-3.968c0,0,2.728-.248,3.968.992s.992,3.968.992,3.968Zm6.008-.992c-1.24,1.24-3.968.992-3.968.992,0,0-.248-2.728.992-3.968s3.968-.992,3.968-.992c0,0,.248,2.728-.992,3.968Z"/></svg>
