<?xml version="1.0" encoding="UTF-8"?>
<svg xmlns="http://www.w3.org/2000/svg" id="Layer_1" data-name="Layer 1" viewBox="0 0 24 24">
  <path d="m16,17v-6h7.934c-.147-1.759-.657-3.473-1.541-5.001C19.455.92,13.047-1.519,7.186,1.004,3.731,2.491,1.131,5.595.306,9.266c-.906,4.033.236,8.08,2.968,10.971.449.475.937.896,1.444,1.286l6.492-6.492c.782-.782,2.05-.781,2.831.002l1.961,1.967Zm-8.93-3.281l3.93-2.403v-5.315h2v6.437l-4.887,2.989-1.043-1.707Zm16.93,1.281v4h-2v-2.604l-6.125,6.124-3.25-3.25-4.648,4.648-1.414-1.414,6.063-6.062,3.25,3.25,4.693-4.692h-2.568v-2h4c1.103,0,2,.897,2,2Z"/>
</svg>
