<?xml version="1.0" encoding="UTF-8"?>
<svg xmlns="http://www.w3.org/2000/svg" id="Layer_1" data-name="Layer 1" viewBox="0 0 24 24">
  <path d="m9,12c3.309,0,6-2.691,6-6S12.309,0,9,0,3,2.691,3,6s2.691,6,6,6Zm14.81,10.92c-.312.666-.945,1.08-1.653,1.08h-7.311c-.708,0-1.342-.414-1.653-1.08-.329-.704-.226-1.538.265-2.125l3.544-4.245v-2.55h-1v-2h5v2h-1v2.55l3.544,4.246c.49.586.594,1.42.265,2.124Zm-12.3,1.08H0v-5c0-2.61,2.006-4.728,4.557-4.955l4.354,4.955,4.333-4.975c.256.013.513.027.758.076v2.921l-2.079,2.49c-.985,1.18-1.198,2.85-.541,4.255.038.081.086.155.129.232Z"/>
</svg>
