<?xml version="1.0" encoding="UTF-8"?>
<svg xmlns="http://www.w3.org/2000/svg" id="Layer_1" data-name="Layer 1" viewBox="0 0 24 24">
  <path d="m19,10c-2.761,0-5,2.239-5,5,0,.572.116,1.112.293,1.624l-.315.304v2.072h-2v2h-1.978v3h2.604s4.412-4.413,4.412-4.413c.609.264,1.278.413,1.983.413,2.761,0,5-2.239,5-5s-2.239-5-5-5Zm1,2.5c.828,0,1.5.672,1.5,1.5s-.672,1.5-1.5,1.5-1.5-.672-1.5-1.5.672-1.5,1.5-1.5ZM3,6C3,2.691,5.691,0,9,0s6,2.691,6,6-2.691,6-6,6-6-2.691-6-6Zm5,18H0v-5c0-2.757,2.243-5,5-5h7.08c-.047.328-.08.66-.08,1,0,.328-.021,2-.021,2h-2v2h-1.979v5Z"/>
</svg>
