<?xml version="1.0" encoding="UTF-8"?>
<svg xmlns="http://www.w3.org/2000/svg" id="Layer_1" data-name="Layer 1" viewBox="0 0 24 24" width="512" height="512"><path d="M22,14v-1c0-2.206-1.794-4-4-4s-4,1.794-4,4v1h-2v7c0,1.654,1.346,3,3,3h6c1.654,0,3-1.346,3-3v-7h-2Zm-6-1c0-1.103,.897-2,2-2s2,.897,2,2v1h-4v-1Zm3,7h-2v-2h2v2Zm-7.959,4.019H4c-1.654,0-3-1.346-3-3v-7.833c.884,.514,1.907,.813,3,.813h1c1.062,0,2.095-.288,3-.818,.617,.361,1.296,.6,2,.722v7.096c0,1.139,.398,2.178,1.041,3.019ZM0,8l.024-1.217L2.198,.019H7V5h2V.019h6V5h2V.019h4.802l2.198,6.981v1c0,.831-.255,1.602-.69,2.242-1.002-1.92-2.998-3.242-5.31-3.242-2.968,0-5.439,2.166-5.917,5h-1.083c-1.2,0-2.266-.542-3-1.382-.734,.84-1.8,1.382-3,1.382h-1c-2.206,0-4-1.794-4-4Z"/></svg>
