<?xml version="1.0" encoding="UTF-8"?>
<svg xmlns="http://www.w3.org/2000/svg" id="Layer_1" data-name="Layer 1" viewBox="0 0 24 24">
  <path d="m22.389,1.611c-1.038-1.039-2.419-1.611-3.889-1.611s-2.851.572-3.889,1.611c-1.039,1.038-1.611,2.419-1.611,3.889s.576,2.854,1.649,3.926l3.851,3.572,3.889-3.609c1.039-1.038,1.611-2.419,1.611-3.889s-.572-2.851-1.611-3.889Zm-3.889,5.395c-.828,0-1.5-.672-1.5-1.5s.672-1.5,1.5-1.5,1.5.672,1.5,1.5-.672,1.5-1.5,1.5ZM13.198.196c-1.417,1.416-2.198,3.3-2.198,5.304s.794,3.901,2.289,5.392l5.211,4.835,5.302-4.923c.07-.07.131-.146.198-.218v7.415h-9.086l-6.914-5.914V0h5.414c-.071.066-.147.127-.216.196ZM0,15.333V3C0,1.346,1.346,0,3,0h3v11.681L0,15.333Zm9.5,8.667H0v-6.198l6.812-4.076,6.368,5.368-3.679,4.906Zm14.5-4v4h-12l3-4h9Z"/>
</svg>
