<?xml version="1.0" encoding="UTF-8"?>
<svg xmlns="http://www.w3.org/2000/svg" id="Layer_1" data-name="Layer 1" viewBox="0 0 24 24">
  <path d="m15.667,1.667l.833-1.667.833,1.667,1.667.833-1.667.833-.833,1.667-.833-1.667-1.667-.833,1.667-.833Zm3.333,3.833l1.667.833.833,1.667.833-1.667,1.667-.833-1.667-.833-.833-1.667-.833,1.667-1.667.833Zm-1,6l1.667.833.833,1.667.833-1.667,1.667-.833-1.667-.833-.833-1.667-.833,1.667-1.667.833ZM12,2.5c0-1.381-1.119-2.5-2.5-2.5h-3c-1.381,0-2.5,1.119-2.5,2.5v3.5h8v-3.5Zm4,10v11.5H0v-11.5c0-2.481,2.019-4.5,4.5-4.5h7c2.481,0,4.5,2.019,4.5,4.5Zm-4,3.5c0-2.206-1.794-4-4-4s-4,1.794-4,4,1.794,4,4,4,4-1.794,4-4Zm-2,0c0,1.103-.897,2-2,2s-2-.897-2-2,.897-2,2-2,2,.897,2,2Z"/>
</svg>
