<?xml version="1.0" encoding="UTF-8"?>
<svg xmlns="http://www.w3.org/2000/svg" id="Layer_1" data-name="Layer 1" viewBox="0 0 24 24">
  <path d="m19.333,4c-1.45,0-2.796.795-3.666,1.986-.593-.812-1.41-1.432-2.328-1.747.351-1.469.894-2.618,1.227-3.229L12.81.053c-.415.762-1.117,2.242-1.513,4.138-1.896.527-3.297,2.247-3.297,4.309,0,1.892,1.043,6.245,2.616,9.5h-2.222c-1.596-3.661-2.394-7.93-2.394-9.5,0-1.393.444-2.681,1.193-3.74-.726-.479-1.592-.76-2.526-.76C2.093,4,0,6.093,0,8.667c0,2.917,2.813,15.239,8.438,15.329.036.003.062.004.062.004,1.421,0,2.675-.675,3.5-1.706.825,1.032,2.079,1.706,3.5,1.706,0,0,.024-.001.06-.004,5.725-.086,8.44-12.306,8.44-15.33,0-2.573-2.094-4.667-4.667-4.667Z"/>
</svg>
