<?xml version="1.0" encoding="UTF-8"?>
<svg xmlns="http://www.w3.org/2000/svg" id="Layer_1" data-name="Layer 1" viewBox="0 0 24 24" width="512" height="512"><path d="m23.546,11.642c.395-.946.456-1.965.175-2.946h0c-.352-1.228-1.216-2.25-2.372-2.805-.194-.093-.333-.265-.353-.438-.144-1.243-.772-2.336-1.771-3.079-.984-.732-2.196-1.021-3.416-.815-.187.029-.417-.062-.598-.243C14.366.47,13.244.005,12.054.005s-2.311.466-3.157,1.312c-.182.181-.411.272-.598.243-1.216-.208-2.43.083-3.416.815-.998.742-1.627,1.835-1.771,3.078-.02.173-.159.345-.353.438-1.155.555-2.02,1.577-2.372,2.805-.28.981-.22,2,.175,2.947.1.238.1.491,0,.73-.395.946-.456,1.966-.175,2.947.352,1.228,1.216,2.25,2.372,2.805.194.094.333.265.353.438.144,1.243.772,2.336,1.771,3.078.983.731,2.198,1.023,3.416.815.187-.028.415.062.597.242.846.846,1.968,1.312,3.158,1.312s2.312-.466,3.158-1.311c.181-.183.412-.282.599-.242,1.215.205,2.43-.085,3.416-.816.998-.742,1.627-1.835,1.771-3.078.02-.173.159-.344.353-.438,1.155-.555,2.02-1.577,2.372-2.806.28-.98.22-2-.175-2.947-.1-.238-.1-.491,0-.73Zm-16.992,2.363c-.828,0-1.5-.672-1.5-1.5s.672-1.5,1.5-1.5,1.5.672,1.5,1.5-.672,1.5-1.5,1.5Zm4-9c.828,0,1.5.672,1.5,1.5s-.672,1.5-1.5,1.5-1.5-.672-1.5-1.5.672-1.5,1.5-1.5Zm0,14c-.828,0-1.5-.672-1.5-1.5s.672-1.5,1.5-1.5,1.5.672,1.5,1.5-.672,1.5-1.5,1.5Zm2-6c-.828,0-1.5-.672-1.5-1.5s.672-1.5,1.5-1.5,1.5.672,1.5,1.5-.672,1.5-1.5,1.5Zm5,2c-.828,0-1.5-.672-1.5-1.5s.672-1.5,1.5-1.5,1.5.672,1.5,1.5-.672,1.5-1.5,1.5Z"/></svg>
