<?xml version="1.0" encoding="UTF-8"?>
<svg xmlns="http://www.w3.org/2000/svg" id="Layer_1" data-name="Layer 1" viewBox="0 0 24 24">
  <path d="m24,5v3H0v-3c0-1.654,1.346-3,3-3h3V0h2v2h8V0h2v2h3c1.654,0,3,1.346,3,3Zm-5,9h2c.552,0,1,.448,1,1h2c0-1.654-1.346-3-3-3v-2h-2v2c-1.654,0-3,1.346-3,3,0,1.359.974,2.51,2.315,2.733l3.04.506c.374.062.645.382.645.761,0,.552-.448,1-1,1h-2c-.552,0-1-.448-1-1h-2c0,1.654,1.346,3,3,3v2h2v-2c1.654,0,3-1.346,3-3,0-1.359-.974-2.51-2.315-2.733l-3.04-.506c-.374-.062-.645-.382-.645-.761,0-.552.448-1,1-1Zm-5,5v-4c0-2.045,1.237-3.802,3-4.576v-.424H0v14h17v-.424c-1.763-.774-3-2.531-3-4.576Z"/>
</svg>
