<?xml version="1.0" encoding="UTF-8"?>
<svg xmlns="http://www.w3.org/2000/svg" id="Layer_1" data-name="Layer 1" viewBox="0 0 24 24" width="512" height="512"><path d="M7,14c-2.21,0-4-1.79-4-4s1.79-4,4-4,4,1.79,4,4-1.79,4-4,4Zm7,10H0v-5c0-1.65,1.35-3,3-3H11c1.65,0,3,1.35,3,3v5ZM21,0H8c-1.65,0-3,1.35-3,3v1.35c.63-.22,1.3-.35,2-.35,2.74,0,5.05,1.84,5.77,4.35l2.23,2.23,3.59-3.59h-2.59v-2h4c1.1,0,2,.9,2,2v4h-2v-2.59l-5,5-2.15-2.15c-.23,1.06-.74,2.01-1.44,2.78,2.23,.18,4.05,1.81,4.49,3.96h8.1V3c0-1.65-1.35-3-3-3Z"/></svg>
