<?xml version="1.0" encoding="UTF-8"?>
<svg xmlns="http://www.w3.org/2000/svg" id="Layer_1" data-name="Layer 1" viewBox="0 0 24 24" width="512" height="512"><path d="M24,20c0,2.206-1.794,4-4,4H7.854l2.045-2h10.102c1.103,0,2-.897,2-2s-.897-2-2-2h-5c-2.206,0-4-1.794-4-4,0-1.927,1.37-3.539,3.187-3.916l1.959,1.916h-1.146c-1.103,0-2,.897-2,2s.897,2,2,2h5c2.206,0,4,1.794,4,4Zm-1.465-11.464l-3.535,3.458-3.528-3.45c-1.957-1.958-1.957-5.129-.008-7.079,.945-.944,2.201-1.464,3.536-1.464s2.591,.52,3.535,1.464c1.95,1.95,1.95,5.122,0,7.071Zm-14,4.929c1.95,1.95,1.95,5.122,0,7.071l-3.535,3.458-3.528-3.45c-1.957-1.958-1.957-5.129-.008-7.079,.945-.944,2.201-1.464,3.536-1.464s2.591,.52,3.535,1.464Z"/></svg>
