<?xml version="1.0" encoding="UTF-8"?>
<svg xmlns="http://www.w3.org/2000/svg" id="Layer_1" data-name="Layer 1" viewBox="0 0 24 24">
  <path d="m4.636,13.705l.638,3.295h-1.261l.624-3.295ZM24,3v4H0V3C0,1.346,1.346,0,3,0h18c1.654,0,3,1.346,3,3Zm-19,.5c0-.828-.672-1.5-1.5-1.5s-1.5.672-1.5,1.5.672,1.5,1.5,1.5,1.5-.672,1.5-1.5Zm4,0c0-.828-.672-1.5-1.5-1.5s-1.5.672-1.5,1.5.672,1.5,1.5,1.5,1.5-.672,1.5-1.5Zm1.2,10.1c-.386,0-.7,0-.7,0v4.802s.314,0,.7,0,.7-.314.7-.7v-3.4c0-.386-.314-.7-.7-.7Zm11.3-2.049v-1.551h-2v1.551c-1.416.24-2.5,1.466-2.5,2.949,0,1.322.793,2.494,2.021,2.986l2.214.885c.464.186.764.629.764,1.129,0,.551-.449,1-1,1h-1c-.551,0-1-.449-1-1v-.5h-2v.5c0,1.483,1.084,2.71,2.5,2.949v1.551h2v-1.551c1.416-.24,2.5-1.466,2.5-2.949,0-1.322-.793-2.494-2.021-2.986l-2.214-.885c-.464-.186-.764-.629-.764-1.129,0-.551.449-1,1-1h1c.551,0,1,.449,1,1v.5h2v-.5c0-1.483-1.084-2.71-2.5-2.949Zm-6.5,2.949v5c0,.915.265,1.762.696,2.5H0v-13h17.5v1.196c-1.487.867-2.5,2.462-2.5,4.304Zm-7.6,5.499l-1.397-6.807c-.12-.668-.589-1.192-1.346-1.192s-1.281.587-1.385,1.167l-1.372,6.833h1.469l.275-1.474h2.006l.262,1.474h1.488Zm5.1-5.699c0-1.269-1.031-2.3-2.3-2.3h-2.3v8h2.3c1.269,0,2.3-1.031,2.3-2.3v-3.4Z"/>
</svg>
