<?xml version="1.0" encoding="UTF-8"?>
<svg xmlns="http://www.w3.org/2000/svg" id="Layer_1" data-name="Layer 1" viewBox="0 0 24 24" width="512" height="512"><path d="M12,0C5.383,0,0,5.383,0,12s5.383,12,12,12,12-5.383,12-12S18.617,0,12,0ZM5.844,9.145l-1.689-1.07c.912-1.438,2.279-2.576,3.953-3.29l.784,1.84c-1.282,.546-2.364,1.441-3.048,2.521Zm1.156,2.355c0-.828,.672-1.5,1.5-1.5s1.5,.672,1.5,1.5-.672,1.5-1.5,1.5-1.5-.672-1.5-1.5Zm1,7.5c0-2.209,1.791-4,4-4s4,1.791,4,4H8Zm7.5-6c-.828,0-1.5-.672-1.5-1.5s.672-1.5,1.5-1.5,1.5,.672,1.5,1.5-.672,1.5-1.5,1.5Zm2.596-3.948c-.695-1.052-1.729-1.892-2.988-2.428l.784-1.84c1.621,.69,2.959,1.785,3.872,3.164l-1.668,1.104Z"/></svg>
