<?xml version="1.0" encoding="UTF-8"?>
<svg xmlns="http://www.w3.org/2000/svg" id="Layer_1" data-name="Layer 1" viewBox="0 0 24 24" width="512" height="512"><path d="m19,16c0,1.103-.896,2-2,2s-2-.897-2-2,.896-2,2-2,2,.897,2,2Zm5-13.5v21.5h-14V2.5c0-1.378,1.121-2.5,2.5-2.5h9c1.379,0,2.5,1.122,2.5,2.5Zm-9,4.5c0,1.105.895,2,2,2s2-.895,2-2-.895-2-2-2-2,.895-2,2Zm6,9c0-2.206-1.794-4-4-4s-4,1.794-4,4,1.794,4,4,4,4-1.794,4-4Zm-13,3.873c-.32.083-.655.127-1,.127-2.206,0-4-1.794-4-4s1.794-4,4-4c.345,0,.68.044,1,.127v-3.395c-.294.17-.636.268-1,.268-1.105,0-2-.895-2-2s.895-2,2-2c.364,0,.706.098,1,.268v-2.768c0-.924.28-1.784.76-2.5H2.5C1.121,0,0,1.122,0,2.5v21.5h8v-4.127Zm0-5.604c-.294-.171-.636-.269-1-.269-1.104,0-2,.897-2,2s.896,2,2,2c.364,0,.706-.098,1-.269v-3.462Z"/></svg>
