<?xml version="1.0" encoding="UTF-8"?>
<svg xmlns="http://www.w3.org/2000/svg" id="Layer_1" data-name="Layer 1" viewBox="0 0 24 24">
  <path d="m23,5.5c0-.768-.355-1.447-.901-1.906.252-.369.401-.814.401-1.294,0-1.269-1.031-2.3-2.3-2.3h-2.2v8h2.5c1.379,0,2.5-1.121,2.5-2.5Zm-3.4-3.9h.6c.386,0,.7.314.7.7s-.314.7-.7.7h-.6v-1.4Zm0,3h.9c.496,0,.9.404.9.9s-.404.9-.9.9h-.9v-1.8ZM3.194,9.6h2.379l.295,1.4h1.632l-1.339-6.373c-.135-.668-.523-1.213-1.035-1.459-.232-.112-.476-.168-.718-.168-.282,0-.561.075-.816.225-.471.277-.809.776-.926,1.356l-1.365,6.418h1.584l.309-1.4Zm1.04-4.703c.03-.149.105-.253.176-.296l.017.006c.024.016.121.118.168.349l.641,3.044h-1.688l.686-3.104Zm19.766,4.267L0,13.735v2.029l10.709-2.04-2.663,8.476-.046,1.8h8v-1.5l-2.868-9.238,10.868-2.07v-2.029Z"/>
</svg>
