<?xml version="1.0" encoding="UTF-8"?>
<svg xmlns="http://www.w3.org/2000/svg" id="Layer_1" data-name="Layer 1" viewBox="0 0 24 24" width="512" height="512"><path d="m18.829,2.415C16.815.616,14.112-.245,11.403.062,7.174.537,3.68,3.938,3.095,8.149c-.226,1.623.03,3.246.541,4.767.364,1.084.364,2.084.417,4.408.049,2.161.639,4.205,2.385,5.506,1.038.773,2.304,1.163,3.569,1.163,1.159,0,2.318-.327,3.302-.986.891-.595,1.604-1.405,2.062-2.34.796-1.626,1.633-2.714,2.631-3.425,2.504-1.78,3.999-4.674,3.999-7.742,0-2.701-1.156-5.284-3.171-7.085Zm-2.829,7.085c0-1.93-1.57-3.5-3.5-3.5-1.761,0-3.222,1.306-3.465,3,1.639.02,2.965,1.358,2.965,3,0,1.654-1.346,3-3,3v-2c.552,0,1-.449,1-1s-.448-1-1-1h-2v-1.5c0-3.033,2.468-5.5,5.5-5.5s5.5,2.467,5.5,5.5h-2Z"/></svg>
