<?xml version="1.0" encoding="UTF-8"?>
<svg xmlns="http://www.w3.org/2000/svg" id="Layer_1" data-name="Layer 1" viewBox="0 0 24 24">
  <path d="m15,15h-6v-1c0-1.37,1.073-2.348,2.112-3.293.971-.885,1.888-1.72,1.888-2.707,0-.552-.449-1-1-1s-1,.448-1,1h-2c0-1.654,1.346-3,3-3s3,1.346,3,3c0,1.871-1.409,3.154-2.542,4.186-.299.272-.603.55-.855.814h3.397v2Zm9-.714s-1.244-.688-3.121-1.008c1.011-.131,2.176-.567,2.673-1.81.962-2.408.077-5.619.077-5.619,0,0-1.306.49-2.641,1.75.689-1.063,1.374-2.62.703-3.969-1.151-2.316-4.191-3.63-4.191-3.63,0,0-1.385,3.857.642,7.863.815,4.896-.643,7.945-2.047,9.661-1.263,1.544-2.821,2.423-4.095,2.735-1.274-.313-2.831-1.192-4.095-2.735-1.404-1.717-2.862-4.765-2.047-9.661,2.027-4.006.642-7.863.642-7.863,0,0-3.04,1.314-4.191,3.63-.671,1.35.015,2.906.703,3.969-1.335-1.26-2.641-1.75-2.641-1.75,0,0-.885,3.211.077,5.619.496,1.243,1.661,1.679,2.673,1.81-1.877.32-3.121,1.008-3.121,1.008,0,0,1.802,2.761,4.192,3.527.095.031.188.06.279.088-1.577.945-2.471,1.974-2.471,1.974,0,0,1.984,2.062,4.928,2.078-.618,1.013-.883,1.763-.883,1.763,0,0,3.426.774,5.955-.253,2.529,1.027,5.955.253,5.955.253,0,0-.265-.75-.883-1.763,2.943-.016,4.928-2.078,4.928-2.078,0,0-.894-1.029-2.471-1.974.091-.028.183-.057.279-.088,2.39-.766,4.192-3.527,4.192-3.527Z"/>
</svg>
