<?xml version="1.0" encoding="UTF-8"?>
<svg xmlns="http://www.w3.org/2000/svg" id="Layer_1" data-name="Layer 1" viewBox="0 0 24 24">
  <path d="m10.5,2.5c0-.828.672-1.5,1.5-1.5s1.5.672,1.5,1.5-.672,1.5-1.5,1.5-1.5-.672-1.5-1.5ZM3,13c0-.828-.672-1.5-1.5-1.5S0,12.172,0,13s.672,1.5,1.5,1.5,1.5-.672,1.5-1.5Zm21,0c0-.828-.672-1.5-1.5-1.5s-1.5.672-1.5,1.5.672,1.5,1.5,1.5,1.5-.672,1.5-1.5ZM6,5.5c0-.828-.672-1.5-1.5-1.5s-1.5.672-1.5,1.5c0,.828.672,1.5,1.5,1.5s1.5-.672,1.5-1.5Zm15,15c0-.828-.672-1.5-1.5-1.5s-1.5.672-1.5,1.5c0,.828.672,1.5,1.5,1.5s1.5-.672,1.5-1.5Zm-16.5-1.5c-.828,0-1.5.672-1.5,1.5,0,.828.672,1.5,1.5,1.5s1.5-.672,1.5-1.5c0-.828-.672-1.5-1.5-1.5Zm15-15c-.828,0-1.5.672-1.5,1.5,0,.828.672,1.5,1.5,1.5s1.5-.672,1.5-1.5c0-.828-.672-1.5-1.5-1.5Zm-8.207,9.707l1.414-1.414,4.897,4.897c.876-1.169,1.396-2.62,1.396-4.19,0-3.86-3.141-7-7-7s-7,3.14-7,7,3.14,7,7,7c1.57,0,3.021-.52,4.19-1.396l-4.897-4.897Z"/>
</svg>
