<?xml version="1.0" encoding="UTF-8"?>
<svg xmlns="http://www.w3.org/2000/svg" id="Layer_1" data-name="Layer 1" viewBox="0 0 24 24" width="512" height="512"><path d="M18,2.5c0-1.38,1.12-2.5,2.5-2.5s2.5,1.12,2.5,2.5-1.12,2.5-2.5,2.5-2.5-1.12-2.5-2.5Zm4.7,13.45c-.37-.59-1-.95-1.7-.95h-5.06l2.76-5.97c.41-.88,.34-1.9-.18-2.72-.52-.82-1.42-1.31-2.39-1.31h-5.3l-1.48,3.03c-4.11,.33-7.34,3.78-7.34,7.97,0,4.42,3.58,8,8,8,3.36,0,6.24-2.07,7.42-5.01h-3.68c-1.63,0-3.13-.81-4.01-2.19-.68-1.07-.9-2.33-.64-3.53l2.98-6.27h2l-2.83,6.1c-.4,.85-.33,1.84,.18,2.63s1.37,1.27,2.32,1.27h7.27l-2.89,5.54,1.77,.92,2.9-5.57c.31-.62,.28-1.35-.09-1.95Z"/></svg>
