<?xml version="1.0" encoding="UTF-8"?>
<svg xmlns="http://www.w3.org/2000/svg" id="Layer_1" data-name="Layer 1" viewBox="0 0 24 24" width="512" height="512"><path d="m8.414,17h4.758l6,6h-4.758l-6-6Zm-2.726.102c-2.732.412-5.121,1.957-5.236,2.032l-.452.354v1.083l.455.295c.134.087,3.314,2.133,6.517,2.133h4.615l-5.898-5.898Zm10.312-.102l6,6h2v-6h-8Zm4-4.18c0-1.397-.744-2.711-1.942-3.43l-1.602-.961c-.898-.54-1.457-1.525-1.457-2.573v-2.856h-2v2.856c0,1.746.93,3.389,2.427,4.288l1.602.961c.599.359.971,1.016.971,1.715v2.18h2v-2.18Zm4-1.555c0-1.746-.93-3.389-2.427-4.287l-2.087-1.252c-.299-.18-.485-.508-.485-.857V1h-2v3.868c0,1.048.558,2.034,1.457,2.572l2.087,1.252c.898.539,1.457,1.524,1.457,2.572v1.735h2v-1.735Z"/></svg>
