<?xml version="1.0" encoding="UTF-8"?>
<svg xmlns="http://www.w3.org/2000/svg" id="Layer_1" data-name="Layer 1" viewBox="0 0 24 24" width="512" height="512"><path d="M12,12h-2v-2h2c.55,0,1,.45,1,1s-.45,1-1,1Zm8.5-4c-1.93,0-3.5,1.57-3.5,3.5v2c0,1.93,1.57,3.5,3.5,3.5s3.5-1.57,3.5-3.5v8.5H0v-5H2v-3h2c1.65,0,3-1.35,3-3s-1.35-3-3-3H0v-3c0-1.65,1.35-3,3-3H21c1.65,0,3,1.35,3,3v6.5c0-1.93-1.57-3.5-3.5-3.5Zm-4.5,9l-2.11-3.69c.77-.63,1.23-1.62,1.08-2.72-.2-1.51-1.59-2.59-3.12-2.59h-1.85c-1.1,0-2,.9-2,2v7h2v-3h2s.06,0,.08,0l1.72,3.01h2.19ZM5,11c0-.55-.45-1-1-1H2v2h2c.55,0,1-.45,1-1Zm14,.5v2c0,.83,.67,1.5,1.5,1.5s1.5-.67,1.5-1.5v-2c0-.83-.67-1.5-1.5-1.5s-1.5,.67-1.5,1.5Z"/></svg>
