<?xml version="1.0" encoding="UTF-8"?>
<svg xmlns="http://www.w3.org/2000/svg" id="Layer_1" data-name="Layer 1" viewBox="0 0 24 24">
  <path d="m6.5,11H.5v-2h6v2Zm0,2H.5v2h6v-2Zm8.5-4h-6v2h6v-2Zm0,4h-6v2h6v-2Zm8.5-4h-6v2h6v-2Zm0,4h-6v2h6v-2Zm-17,4H.5v2h6v-2Zm8.5,0h-6v2h6v-2Zm8.5,0h-6v2h6v-2Zm-17,4H.5v2h6v-2Zm8.5,0h-6v2h6v-2Zm8.5,0h-6v2h6v-2ZM15.5,3.5c0-1.93-1.57-3.5-3.5-3.5s-3.5,1.57-3.5,3.5,1.57,3.5,3.5,3.5,3.5-1.57,3.5-3.5Zm-8.5,0c0-1.93-1.57-3.5-3.5-3.5S0,1.57,0,3.5s1.57,3.5,3.5,3.5,3.5-1.57,3.5-3.5Zm17,0c0-1.93-1.57-3.5-3.5-3.5s-3.5,1.57-3.5,3.5,1.57,3.5,3.5,3.5,3.5-1.57,3.5-3.5Z"/>
</svg>
