<?xml version="1.0" encoding="UTF-8"?>
<svg xmlns="http://www.w3.org/2000/svg" id="Layer_1" data-name="Layer 1" viewBox="0 0 24 24">
  <path d="m1,12c0,1.103.897,2,2,2s2-.897,2-2h2c0,1.103.897,2,2,2s2-.897,2-2h2c0,1.103.897,2,2,2s2-.897,2-2h2c0,1.103.897,2,2,2s2-.897,2-2h1V3c0-1.654-1.346-3-3-3H3C1.346,0,0,1.346,0,3v9h1ZM9.878,3.882l2.122-2.382,2.16,2.424c1.131,1.128,1.131,3.03-.039,4.2-.566.566-1.32.879-2.121.879s-1.555-.312-2.122-.879c-1.169-1.17-1.169-3.072,0-4.242Zm14.122,10.736v9.382H0v-9.382c.734.84,1.8,1.382,3,1.382s2.266-.542,3-1.382c.734.84,1.8,1.382,3,1.382s2.266-.542,3-1.382c.734.84,1.8,1.382,3,1.382s2.266-.542,3-1.382c.734.84,1.799,1.382,3,1.382s2.266-.542,3-1.382Zm-12.707-7.908c-.39-.39-.39-1.024.039-1.455l.669-.75.707.791c.39.39.39,1.024,0,1.414-.378.377-1.037.377-1.414,0Z"/>
</svg>
