<?xml version="1.0" encoding="UTF-8"?>
<svg xmlns="http://www.w3.org/2000/svg" id="Layer_1" data-name="Layer 1" viewBox="0 0 24 24">
  <path d="m21,3.5c0-.828.672-1.5,1.5-1.5s1.5.672,1.5,1.5-.672,1.5-1.5,1.5-1.5-.672-1.5-1.5ZM4.536,11.909c.597-.628.964-1.477.964-2.409,0-1.93-1.57-3.5-3.5-3.5H0v2h2c.827,0,1.5.673,1.5,1.5s-.673,1.5-1.5,1.5h-1v2h1c1.103,0,2,.897,2,2s-.897,2-2,2H0v2h2c2.206,0,4-1.794,4-4,0-1.244-.571-2.357-1.464-3.091Zm10.464,3.091c0,2.206-1.794,4-4,4s-4-1.794-4-4v-4.5c0-2.481,2.019-4.5,4.5-4.5h2.5v2h-2.5c-1.378,0-2.5,1.121-2.5,2.5v1.037c.589-.341,1.272-.537,2-.537,2.206,0,4,1.794,4,4Zm-2,0c0-1.103-.897-2-2-2s-2,.897-2,2,.897,2,2,2,2-.897,2-2Zm11-5v5c0,2.206-1.794,4-4,4s-4-1.794-4-4v-5c0-2.206,1.794-4,4-4s4,1.794,4,4Zm-2,0c0-1.103-.897-2-2-2s-2,.897-2,2v5c0,1.103.897,2,2,2s2-.897,2-2v-5Z"/>
</svg>
