<?xml version="1.0" encoding="UTF-8"?>
<svg xmlns="http://www.w3.org/2000/svg" id="Layer_1" data-name="Layer 1" viewBox="0 0 24 24">
  <path d="m23.494,21.955c-.712,1.281-2.014,2.047-3.48,2.047H3.986c-1.466,0-2.768-.766-3.48-2.047-.712-1.282-.676-2.79.098-4.036L8.704,4.883c.551-.887,1.36-1.494,2.296-1.748V0h2v3.136c.939.255,1.746.861,2.296,1.745h0s0,0,0,0l.539.868-1.177,1.895-1.061-1.707h0c-.374-.602-.943-.935-1.604-.938-.648.004-1.218.337-1.592.938L2.303,18.975c-.385.62-.403,1.371-.049,2.009s1.002,1.019,1.732,1.019h16.027c.73,0,1.377-.381,1.732-1.019s.336-1.389-.048-2.008h0s0,0,0,0l-3.506-5.644,1.177-1.895,4.028,6.483h0c.774,1.246.811,2.754.098,4.036Zm-9.922-8.77l6.25-10.06,1.699,1.055-6.302,10.144c.481.6.781,1.35.781,2.176,0,1.93-1.57,3.5-3.5,3.5s-3.5-1.57-3.5-3.5,1.57-3.5,3.5-3.5c.376,0,.732.075,1.072.185Z"/>
</svg>
