<?xml version="1.0" encoding="UTF-8"?>
<svg xmlns="http://www.w3.org/2000/svg" id="Layer_1" data-name="Layer 1" viewBox="0 0 24 24">
  <path d="m24,6c0,3.309-2.691,6-6,6s-6-2.691-6-6S14.691,0,18,0s6,2.691,6,6Zm-8-2c0,1.105.895,2,2,2s2-.895,2-2-.895-2-2-2-2,.895-2,2Zm5,4.5c0-.828-.672-1.5-1.5-1.5h-3c-.828,0-1.5.672-1.5,1.5v.143c.733.832,1.806,1.357,3,1.357s2.267-.525,3-1.357v-.143Zm-10.18,7.735l-2.135,2.133c-.843.842-2.213.842-3.056,0-.842-.843-.842-2.213,0-3.056l2.135-2.133-3.505-3.505-2.178,2.177c-2.775,2.774-2.775,7.29,0,10.064,1.344,1.345,3.132,2.085,5.033,2.085s3.688-.74,5.033-2.085l2.178-2.177-3.504-3.504Zm4.919,2.091l1.761-1.76-3.504-3.504-1.762,1.76,3.504,3.504Zm-6.56-6.56l1.761-1.76-3.505-3.504-1.761,1.76,3.504,3.504Z"/>
</svg>
