<?xml version="1.0" encoding="UTF-8"?>
<svg xmlns="http://www.w3.org/2000/svg" id="Layer_1" data-name="Layer 1" viewBox="0 0 24 24">
  <path d="m24,10.006v7.494c0,3.767-5.047,6.5-12,6.5S0,21.267,0,17.5v-7.494c2.408,2.433,6.785,3.994,12,3.994s9.592-1.56,12-3.994Zm0-4.006c0,3.365-5.271,6-12,6S0,9.365,0,6,5.271,0,12,0s12,2.635,12,6Zm-5.293-.509c-1.141-.682-3.442-1.491-6.707-1.491s-5.566.809-6.708,1.491c-.39.233-.39.785,0,1.019,1.141.682,3.443,1.491,6.708,1.491s5.566-.809,6.707-1.491c.39-.233.39-.785,0-1.019Z"/>
</svg>
