<?xml version="1.0" encoding="UTF-8"?>
<svg xmlns="http://www.w3.org/2000/svg" id="Layer_1" data-name="Layer 1" viewBox="0 0 24 24">
  <path d="m16.5,21l-.402-.976.914-.648c.316-.204.598-.441.856-.697l.132.321h4V3c0-1.654-1.346-3-3-3H6.002c-1.654,0-3,1.346-3,3l-.002,21h8.022v-4.975l2.832-2.306-1.667-3.615-1.087,1.895h-5.102v-2h3.943l1.729-2.977c.57-.65,1.393-1.023,2.257-1.023h4.709l1.885,4.081-1.815.838-1.349-2.919h-1.989l1.432,3.106c.562,1.368.092,2.888-1.099,3.677l-2.683,2.191v4.025h8.978v-3h-5.5Zm-5-13c-1.381,0-2.5-1.119-2.5-2.5s1.119-2.5,2.5-2.5,2.5,1.119,2.5,2.5-1.119,2.5-2.5,2.5Z"/>
</svg>
