<?xml version="1.0" encoding="UTF-8"?>
<svg xmlns="http://www.w3.org/2000/svg" id="Layer_1" data-name="Layer 1" viewBox="0 0 24 24">
  <path d="m22.231,4.5c0,.276-.224.5-.5.5h-.5v-1h.5c.276,0,.5.224.5.5Zm1.769-1.5v8h-8.891l-4.844-1.762c-1.33-.482-2.839-.202-3.895.711l-.416.416c-.172.199-.322.412-.449.634H0V3C0,1.343,1.343,0,3,0h18c1.657,0,3,1.343,3,3ZM3.271,5.045c-.545-.202-1.042-.42-1.055-.42-.118-.08-.114-.202-.108-.25.01-.066.057-.226.3-.299.545-.162,1.048.231,1.069.248l.618-.728c-.037-.032-.894-.841-1.986-.512-.556.168-.949.606-1.027,1.144-.072.506.147.992.644,1.309,0,0,.562.251,1.185.481.132.049.557.229.506.515-.038.212-.299.432-.671.432-.388,0-.761-.156-.998-.418l-.767.696c.437.482,1.08.758,1.765.758.846,0,1.558-.541,1.691-1.286.1-.562-.154-1.295-1.167-1.669Zm2.96-2.045h-1v5h1V3Zm4,2h-1.5v1h.5v.5c0,.276-.224.5-.5.5s-.5-.224-.5-.5v-2c0-.276.224-.5.5-.5h1.408c-.207-.581-.756-1-1.408-1-.828,0-1.5.672-1.5,1.5v2c0,.828.672,1.5,1.5,1.5s1.5-.672,1.5-1.5v-1.5Zm4-.5c0-.828-.672-1.5-1.5-1.5-.176,0-.343.036-.5.092v-.092h-1v5h1v-3.5c0-.276.224-.5.5-.5s.5.224.5.5v3.5h1v-3.5Zm5-1.5h-1v3.5c0,.276-.224.5-.5.5s-.5-.224-.5-.5v-3.5h-1v3.5c0,.828.672,1.5,1.5,1.5s1.5-.672,1.5-1.5v-3.5Zm4,1.5c0-.828-.672-1.5-1.5-1.5h-1.5v5h1v-2h.5c.828,0,1.5-.672,1.5-1.5Zm-7.534,13.779l4.241,4.241-1.414,1.414-4.241-4.241-3.621,3.621-3.541-9.737c-.257-.709-.086-1.48.446-2.012.526-.527,1.313-.702,2.014-.447l9.736,3.541-3.621,3.621Z"/>
</svg>
