<?xml version="1.0" encoding="UTF-8"?>
<svg xmlns="http://www.w3.org/2000/svg" id="Layer_1" data-name="Layer 1" viewBox="0 0 24 24">
  <path d="m16.5,0c1.381,0,2.5,1.119,2.5,2.5s-1.119,2.5-2.5,2.5-2.5-1.119-2.5-2.5S15.119,0,16.5,0Zm7.5,9.972v5.028h-2v-3.972l-2-1.38v3.759c0,.978-.479,1.897-1.28,2.458l-4.743,3.168.023,4.962-2,.01-.028-6.038,3.028-2.022v-3.872l-3.813,2.534-1.092-1.676,3.166-2.063,1.239-2.868c.367-1.178,1.596-2,2.5-2,1.5,0,2.452.865,2.452.865l4.548,3.107Zm-6.339,8.854l2.074,5.174h2.162l-2.559-6.356c-.054.038-1.677,1.182-1.677,1.182Zm-4.182-13.013c-.365.443-.666.938-.851,1.476l-.964,2.232-3.664,2.389v1.472l2.35,3.618H0V7.46c0-.973.439-1.875,1.206-2.475L7.043.417c.802-.627,1.947-.545,2.913.21l2.077,1.541c-.008.111-.033.217-.033.331,0,1.315.577,2.489,1.48,3.313Zm-7.48,4.187h-3v3h3v-3Z"/>
</svg>
