<?xml version="1.0" encoding="UTF-8"?>
<svg xmlns="http://www.w3.org/2000/svg" id="Layer_1" data-name="Layer 1" viewBox="0 0 24 24" width="512" height="512"><path d="M24,0h-2.04s-2.65,14-2.65,14h-4.33L12,2.86l-2.98,11.14H4.68L2.03,0H0L2.65,14H0v2H3.03l1.12,5.93c.26,1.17,1.14,2.07,2.38,2.07s2.06-.79,2.39-1.86l1.64-6.14h2.89l1.67,6.22c.25,.99,1.12,1.78,2.36,1.78s2.12-.9,2.38-2.07l1.12-5.93h3.03v-2h-2.65L24,0ZM6.99,21.58c-.14,.42-.32,.42-.47,.42-.26,0-.38-.29-.42-.48l-1.05-5.52h3.43l-1.49,5.58Zm4.1-7.58l.91-3.41,.91,3.41h-1.82Zm6.8,7.52c-.04,.19-.16,.48-.42,.48-.24,0-.38-.09-.43-.29l-1.53-5.71h3.42l-1.04,5.52Z"/></svg>
