<?xml version="1.0" encoding="UTF-8"?>
<svg xmlns="http://www.w3.org/2000/svg" id="Layer_1" data-name="Layer 1" viewBox="0 0 24 24" width="512" height="512"><path d="M3.34,19.64l3.96-2.64h10.7V3c0-1.65-1.35-3-3-3H3C1.35,0,0,1.35,0,3v14.85c0,.79,.43,1.52,1.13,1.89,.32,.17,.67,.25,1.01,.25,.42,0,.83-.12,1.19-.36Zm7.14-9.88l-3.28-.55c-1.27-.21-2.19-1.3-2.19-2.59,0-1.45,1.18-2.62,2.62-2.62h.38v-1h2v1c1.65,0,3,1.35,3,3h-2c0-.55-.45-1-1-1h-2.38c-.34,0-.62,.28-.62,.62,0,.31,.22,.57,.52,.62l3.28,.55c1.27,.21,2.19,1.3,2.19,2.59,0,1.45-1.18,2.62-2.62,2.62h-.38v1h-2v-1c-1.65,0-3-1.35-3-3h2c0,.55,.45,1,1,1h2.38c.34,0,.62-.28,.62-.62,0-.31-.22-.57-.52-.62Zm13.52-2.76v14.85c0,.79-.43,1.52-1.13,1.89-.32,.17-.67,.25-1.01,.26-.42,0-.83-.12-1.19-.36l-3.96-2.64H6v-.73l1.91-1.27h12.09V4h1c1.65,0,3,1.35,3,3Z"/></svg>
