<?xml version="1.0" encoding="UTF-8"?>
<svg xmlns="http://www.w3.org/2000/svg" id="Layer_1" data-name="Layer 1" viewBox="0 0 24 24">
  <path d="m21,0H3C1.346,0,0,1.346,0,3v21h24V3c0-1.654-1.346-3-3-3Zm-9,20c-3.022,0-5.64-1.697-7-4.177v3.177h-2v-4c0-1.103.897-2,2-2h4v2h-2.169c1.039,1.787,2.957,3,5.169,3,2.967,0,5.431-2.167,5.91-5h2.021c-.495,3.94-3.859,7-7.931,7Zm9-11c0,1.103-.897,2-2,2h-4v-2h2.185c-1.037-1.791-2.97-3-5.185-3-2.967,0-5.431,2.167-5.91,5h-2.021c.495-3.94,3.859-7,7.931-7,3.015,0,5.639,1.679,7,4.15v-3.15h2v4Z"/>
</svg>
