<?xml version="1.0" encoding="UTF-8"?>
<svg xmlns="http://www.w3.org/2000/svg" id="Layer_1" data-name="Layer 1" viewBox="0 0 24 24">
  <path d="m13,17.124l2.931-1.692,2.277,1.306,1.485-1.453-2.693-1.545v-3.428l1.889-1.083,4.378,1.187.523-1.93-3.812-1.033,1.034-3.812-1.931-.523-1.187,4.378-1.794,1.029-3.1-1.79v-2.075l3.207-3.207L14.793.036l-2.793,2.793L9.207.036l-1.414,1.414,3.207,3.207v2.075l-3.1,1.79-1.794-1.029-1.187-4.378-1.931.523,1.034,3.812L.21,8.485l.523,1.93,4.378-1.187,1.889,1.083v3.429l-2.693,1.544,1.485,1.453,2.277-1.306,2.93,1.692v2.27l-3.207,3.207,1.414,1.414,2.793-2.793,2.793,2.793,1.414-1.414-3.207-3.207v-2.27Zm10.113,1.747l-2.113-2.068-2.121,2.076c-1.17,1.17-1.17,3.072,0,4.242.566.566,1.32.879,2.121.879s1.555-.312,2.121-.879c1.17-1.17,1.17-3.072-.008-4.25Zm-20.113-2.068l-2.121,2.076c-1.17,1.17-1.17,3.072,0,4.242.566.566,1.32.879,2.121.879s1.555-.312,2.121-.879c1.17-1.17,1.17-3.072-.008-4.25l-2.113-2.068Z"/>
</svg>
