<?xml version="1.0" encoding="UTF-8"?>
<svg xmlns="http://www.w3.org/2000/svg" id="Layer_1" data-name="Layer 1" viewBox="0 0 24 24">
  <path d="m12,12.709c-1.037,1.175-1.796,2.656-2,4.291v7h-2v-7h-2v7h-2v-7h-2v-8c0-1.654,1.346-3,3-3h4c1.637,0,2.971,1.318,2.999,2.948,0,.017.001.034.001.052v3.709Zm-5-7.709c1.381,0,2.5-1.119,2.5-2.5s-1.119-2.5-2.5-2.5-2.5,1.119-2.5,2.5,1.119,2.5,2.5,2.5Zm11,7c-3.314,0-6,2.686-6,6s2.686,6,6,6,6-2.686,6-6-2.686-6-6-6Zm1,11h-2v-2h2v2Zm.447-3.42c-.459.252-.459.365-.459.42h-2c0-1.35,1.124-1.969,1.493-2.172.289-.16.595-.535.502-1.065-.069-.393-.402-.726-.793-.794-.311-.057-.603.021-.832.216-.228.19-.358.47-.358.767h-2c0-.889.391-1.727,1.072-2.299.681-.572,1.579-.814,2.464-.653,1.21.211,2.205,1.206,2.417,2.418.224,1.271-.381,2.542-1.506,3.163Z"/>
</svg>
