<?xml version="1.0" encoding="UTF-8"?>
<svg xmlns="http://www.w3.org/2000/svg" id="Layer_1" data-name="Layer 1" viewBox="0 0 24 24">
  <path d="m22.596,6.909c-1.702.967-3.583,1.092-4.365,1.092-.166,0-2.23,0-2.23,0,0-3.029-.626-5.777-1.81-7.948l-1.756.958c.421.721.775,1.795.776,1.798.271.8.508,1.76.649,2.893-.796-1.185-1.632-2.268-2.565-3.321-4.207,1.181-7.104,4.988-7.104,9.572,0,1.711-.625,3.114-1.809,4.056-1.349,1.074-1.569,1.327-1.691,1.511-.452.68-.69,1.472-.69,2.291,0,2.284,1.858,4.143,4.143,4.143,6.416,0,19.851-.004,19.851-11.84,0-2.112-.52-3.724-1.399-5.204Zm-7.096,12.591c-.828,0-1.5-.672-1.5-1.5s.672-1.5,1.5-1.5,1.5.672,1.5,1.5-.672,1.5-1.5,1.5Zm3-3.5c-.828,0-1.5-.672-1.5-1.5s.672-1.5,1.5-1.5,1.5.672,1.5,1.5-.672,1.5-1.5,1.5Zm-.496-10.004s-.158-2.861,1.51-4.529S23.992.008,23.992.008c0,0,.209,2.81-1.459,4.478-1.668,1.668-4.529,1.51-4.529,1.51Z"/>
</svg>
