<?xml version="1.0" encoding="UTF-8"?>
<svg xmlns="http://www.w3.org/2000/svg" id="Layer_1" data-name="Layer 1" viewBox="0 0 24 24">
  <path d="m19.095,6.486l-12.606,12.607c-.592-.462-1.124-.995-1.585-1.588l12.607-12.607c.592.462,1.124.995,1.584,1.588ZM3.832,15.749L15.758,3.823c-1.144-.529-2.417-.828-3.759-.828-4.403,0-8.07,3.179-8.843,7.362L.499,7.996s-.499,1.5-.499,4,.499,4,.499,4l2.657-2.361c.137.741.369,1.449.676,2.115Zm19.668-7.754l-2.657,2.362c-.137-.741-.369-1.449-.676-2.115l-11.925,11.925c1.144.529,2.415.827,3.757.827,4.403,0,8.07-3.18,8.843-7.362l2.658,2.362s.5-1.5.5-4-.5-4-.5-4Z"/>
</svg>
