<?xml version="1.0" encoding="UTF-8"?>
<svg xmlns="http://www.w3.org/2000/svg" id="Layer_1" data-name="Layer 1" viewBox="0 0 24 24">
  <path d="m12,10c1.103,0,2,.897,2,2s-.897,2-2,2-2-.897-2-2,.897-2,2-2Zm12-1.395v11.395H3.052l1.571,1.571-1.414,1.414-2.659-2.659c-.731-.731-.731-1.92,0-2.651l2.659-2.659,1.414,1.414-1.571,1.571h2.829l1.571-1.571-4.243-4.243-3.208,3.209V7c0-1.657,1.343-3,3-3h17.948l-1.571-1.571,1.414-1.414,2.659,2.659c.731.731.731,1.92,0,2.651l-2.659,2.659-1.414-1.414,1.571-1.571h-2.829l-1.571,1.571,4.243,4.243,3.208-3.209Zm-7,5.895c0,.828.672,1.5,1.5,1.5s1.5-.672,1.5-1.5-.672-1.5-1.5-1.5-1.5.672-1.5,1.5Zm-5-6.5c-2.206,0-4,1.794-4,4s1.794,4,4,4,4-1.794,4-4-1.794-4-4-4Zm-5,1.5c0-.828-.672-1.5-1.5-1.5s-1.5.672-1.5,1.5.672,1.5,1.5,1.5,1.5-.672,1.5-1.5Z"/>
</svg>
