<?xml version="1.0" encoding="UTF-8"?>
<svg xmlns="http://www.w3.org/2000/svg" id="Layer_1" data-name="Layer 1" viewBox="0 0 24 24" width="512" height="512"><path d="M18,12c-3.31,0-6,2.69-6,6s2.69,6,6,6,6-2.69,6-6-2.69-6-6-6Zm2.41,7.41l-2.17,2.17-1.41-1.41,1.17-1.17h-3v-2h3l-1.09-1.09,1.41-1.41,2.09,2.09c.78,.78,.78,2.05,0,2.83ZM14,5H7V0h7V5Zm-3.41,16H0V3C0,1.35,1.35,0,3,0h2V7h11V0h.01l4.99,4.99v5.6c-.93-.38-1.94-.59-3-.59-1.73,0-3.33,.56-4.64,1.49-.63-.9-1.68-1.49-2.86-1.49-1.93,0-3.5,1.57-3.5,3.5,0,1.78,1.35,3.24,3.08,3.46-.04,.34-.08,.69-.08,1.04,0,1.06,.21,2.07,.59,3Zm1.27-8.12c-.53,.63-.96,1.34-1.27,2.12-.03,0-.06,0-.09,0-.83,0-1.5-.67-1.5-1.5s.67-1.5,1.5-1.5c.6,0,1.12,.36,1.36,.88Z"/></svg>
