<?xml version="1.0" encoding="UTF-8"?>
<svg xmlns="http://www.w3.org/2000/svg" id="Layer_1" data-name="Layer 1" viewBox="0 0 24 24">
  <path d="m22.396,23l-.319-4.402-.12.264-1.457,3.204-1.457-3.204-.12-.264-.319,4.402h-1.604l.508-7c.043-.705.472-1,.988-1,.342,0,.66.242.841.64l1.164,2.56,1.164-2.56c.181-.398.499-.64.841-.64.516,0,.945.295.988,1l.508,7h-1.604Zm-7.45-3.462l1.054,3.462h-1.744l-.872-3h-.784v3h-1.6v-8h2.5c1.381,0,2.5,1.119,2.5,2.5,0,.846-.423,1.592-1.067,2.044.024-.014.036-.023.055-.035-.018.012-.018.012-.042.029Zm-.546-2.038c0-.496-.404-.9-.9-.9h-.9v1.8h.9c.496,0,.9-.404.9-.9Zm-6.9,3.9c-.496,0-.9-.404-.9-.9v-3c0-.496.404-.9.9-.9s.9.404.9.9h1.6c0-1.381-1.119-2.5-2.5-2.5s-2.5,1.119-2.5,2.5v3c0,1.381,1.119,2.5,2.5,2.5s2.5-1.119,2.5-2.5h-1.6c0,.496-.404.9-.9.9Zm-.5-8.4h17v-3H0v13h3v-6c0-2.209,1.791-4,4-4Zm17-5H0v-4C0,2.346,1.346,1,3,1h18c1.654,0,3,1.346,3,3v4ZM5,4.5c0-.828-.672-1.5-1.5-1.5s-1.5.672-1.5,1.5.672,1.5,1.5,1.5,1.5-.672,1.5-1.5Zm4,0c0-.828-.672-1.5-1.5-1.5s-1.5.672-1.5,1.5.672,1.5,1.5,1.5,1.5-.672,1.5-1.5Z"/>
</svg>
