<?xml version="1.0" encoding="UTF-8"?>
<svg xmlns="http://www.w3.org/2000/svg" id="Layer_1" data-name="Layer 1" viewBox="0 0 24 24">
  <path d="m22,0h-4v2h2.586l-5.115,5.115c-.981-.699-2.177-1.115-3.471-1.115s-2.49.416-3.471,1.115l-1.524-1.524,1.465-1.465-1.414-1.414-1.465,1.465-2.177-2.177h2.586V0H2C.897,0,0,.897,0,2v4h2v-2.586l2.177,2.177-1.621,1.621,1.414,1.414,1.621-1.621,1.524,1.524c-.699.981-1.115,2.177-1.115,3.471,0,2.967,2.167,5.431,5,5.91v2.09h-2v2h2v2h2v-2h2v-2h-2v-2.09c2.833-.478,5-2.942,5-5.91,0-1.294-.416-2.49-1.115-3.471l5.115-5.115v2.586h2V2c0-1.103-.897-2-2-2Z"/>
</svg>
