<?xml version="1.0" encoding="UTF-8"?>
<svg xmlns="http://www.w3.org/2000/svg" id="Layer_1" data-name="Layer 1" viewBox="0 0 24 24" width="512" height="512"><path d="m12,16.5c-1.379,0-2.5-1.122-2.5-2.5s1.121-2.5,2.5-2.5,2.5,1.122,2.5,2.5-1.121,2.5-2.5,2.5ZM13,0h-2v4h2V0Zm10.525,15.829l-1.835-7.953c-.527-2.282-2.53-3.875-4.872-3.875h-3.818v2h-2v-2h-3.818c-2.342,0-4.345,1.594-4.872,3.876L.475,15.828c-.314,1.364-.475,2.767-.475,4.169,0,1.07.415,2.074,1.17,2.827.748.748,1.777,1.176,2.826,1.176h.006c.427,0,.853-.07,1.263-.208l1.633-.544h0s0,0,0,0c2.196-.732,3.737-2.642,4.039-4.889-.475-.116-.92-.305-1.322-.559l-.622.622c.001.026.008.051.008.078,0,.828-.672,1.5-1.5,1.5s-1.5-.672-1.5-1.5.672-1.5,1.5-1.5c.027,0,.052.006.078.008l.622-.622c-.266-.421-.465-.887-.579-1.386h-1.621v-2h1.621c.114-.5.313-.965.579-1.386l-.622-.622c-.026.001-.051.008-.078.008-.828,0-1.5-.672-1.5-1.5s.672-1.5,1.5-1.5,1.5.672,1.5,1.5c0,.027-.006.052-.008.078l.622.622c.421-.266.887-.465,1.386-.579v-1.621h2v1.621c.5.114.965.313,1.386.579l.622-.622c-.001-.026-.008-.051-.008-.078,0-.828.672-1.5,1.5-1.5s1.5.672,1.5,1.5-.672,1.5-1.5,1.5c-.027,0-.052-.006-.078-.008l-.622.622c.266.421.465.887.579,1.386h1.621v2h-1.621c-.114.5-.313.965-.579,1.386l.622.622c.026-.001.051-.008.078-.008.828,0,1.5.672,1.5,1.5s-.672,1.5-1.5,1.5-1.5-.672-1.5-1.5c0-.027.006-.052.008-.078l-.622-.622c-.403.254-.847.443-1.322.559.302,2.247,1.843,4.157,4.039,4.889h0,0s1.633.544,1.633.544c.412.138.872.234,1.269.208,1.049,0,2.078-.428,2.826-1.176.755-.753,1.17-1.757,1.17-2.827,0-1.402-.16-2.805-.475-4.169Z"/></svg>
