<?xml version="1.0" encoding="UTF-8"?>
<svg xmlns="http://www.w3.org/2000/svg" id="Layer_1" data-name="Layer 1" viewBox="0 0 24 24">
  <path d="m12,12.043h3.59l7.667-7.667c.479-.48.744-1.117.744-1.795s-.264-1.316-.744-1.795c-.99-.99-2.6-.99-3.59,0l-7.668,7.667v3.59Zm9.43-3.012l-5.012,5.012h-6.418v-5.043H3c-1.654,0-3,1.346-3,3v11h24v-11c0-1.508-1.119-2.759-2.57-2.969Zm-15.93,8.969c-.828,0-1.5-.672-1.5-1.5s.672-1.5,1.5-1.5,1.5.672,1.5,1.5-.672,1.5-1.5,1.5Zm5,0c-.828,0-1.5-.672-1.5-1.5s.672-1.5,1.5-1.5,1.5.672,1.5,1.5-.672,1.5-1.5,1.5Z"/>
</svg>
