<?xml version="1.0" encoding="UTF-8"?>
<svg xmlns="http://www.w3.org/2000/svg" id="Layer_1" data-name="Layer 1" viewBox="0 0 24 24">
  <path d="m5.075,5.607c-.042-.343-.08-.8.002-1.302.254-1.573,1.515-2.897,3.065-3.219.27-.057.557-.085.85-.085h.008c.293,0,.58.029.85.085,1.55.322,2.811,1.646,3.065,3.219.082.502.044.959.002,1.302-.192,1.561.175,2.577.662,3.393H4.413c.487-.816.854-1.832.662-3.393Zm17.938,14.712c-.521-.792-1.013-1.539-1.013-3.043l.002-.26c.003-.428.008-.914-.076-1.431-.359-2.217-2.069-4.013-4.255-4.467-.758-.157-1.585-.157-2.341,0-2.187.455-3.896,2.25-4.256,4.467-.083.517-.079,1.001-.075,1.429v.263c.001,1.504-.49,2.251-1.011,3.043-.463.704-.987,1.5-.987,2.681v1h15v-1c0-1.181-.524-1.978-.987-2.681Zm-14.014-3.295c-.004-.475-.01-1.075.101-1.759.27-1.665,1.099-3.156,2.287-4.265H1.469l-.422.796c-.685,1.289-1.046,2.743-1.046,4.204,0,3.054,1.595,7.027,1.609,7.061l.379.939h5.012v-1c0-1.779.792-2.983,1.316-3.78.456-.692.684-1.039.684-1.944v-.252Z"/>
</svg>
