<?xml version="1.0" encoding="UTF-8"?>
<svg xmlns="http://www.w3.org/2000/svg" id="Layer_1" data-name="Layer 1" viewBox="0 0 24 24">
  <path d="m0,8v-3c0-1.654,1.346-3,3-3h3V0h2v2h8V0h2v2h3c1.654,0,3,1.346,3,3v3H0Zm19.5,8.5c0,4.142-3.358,7.5-7.5,7.5s-7.5-3.358-7.5-7.5,3.358-7.5,7.5-7.5,7.5,3.358,7.5,7.5Zm-9.5-1.876c0-.344.28-.624.624-.624h2.376c.552,0,1,.449,1,1h2c0-1.654-1.346-3-3-3v-1h-2v1h-.376c-1.447,0-2.624,1.177-2.624,2.624,0,1.288.922,2.377,2.192,2.588l3.286.548c.302.05.521.309.521.616,0,.344-.28.624-.624.624h-2.376c-.551,0-1-.449-1-1h-2c0,1.654,1.346,3,3,3v1h2v-1h.376c1.447,0,2.624-1.177,2.624-2.624,0-1.288-.923-2.377-2.193-2.588l-3.286-.548c-.302-.05-.521-.309-.521-.616Zm-7.5,1.876c0-2.518.986-4.8,2.585-6.5H0v14h6.184c-2.238-1.738-3.684-4.447-3.684-7.5Zm16.415-6.5c1.599,1.7,2.585,3.982,2.585,6.5,0,3.053-1.446,5.762-3.684,7.5h6.184v-14h-5.085Z"/>
</svg>
