<?xml version="1.0" encoding="UTF-8"?>
<svg xmlns="http://www.w3.org/2000/svg" id="Layer_1" data-name="Layer 1" viewBox="0 0 24 24">
  <path d="m12.126,21.68c-.052-.042-.095-.07-.15-.116-.678-.718-1.752-1.977-2.688-3.586h1.571l-.684-2h-1.873c-.493-1.234-.825-2.587-.825-4s.334-2.765.829-4h7.334c.294.736.54,1.508.683,2.317l2.103.72c-.091-1.062-.329-2.078-.653-3.036h3.363c.491,1.119.775,2.345.822,3.632.005.123.008.532.006.615l1.966.673c.023-.305.047-.609.047-.919h0C23.978,5.361,18.594-.022,11.978-.022S-.022,5.361-.022,11.978s5.383,12,12,12h0c.31,0,.616-.016.921-.039l-.773-2.259Zm-2.838-15.702c.933-1.603,2.013-2.868,2.69-3.586.676.716,1.75,1.985,2.681,3.586h-5.371Zm10.67,0h-3.019c-.723-1.451-1.591-2.689-2.36-3.645,2.177.588,4.057,1.891,5.379,3.645Zm-10.593-3.642c-.768.953-1.631,2.198-2.353,3.642h-3.017c1.32-1.751,3.197-3.053,5.369-3.642ZM2.818,7.978h3.36c-.422,1.245-.7,2.587-.7,4s.278,2.755.7,4h-3.36c-.538-1.226-.841-2.578-.841-4s.303-2.774.841-4Zm1.178,10h3.017c.728,1.457,1.599,2.689,2.371,3.647-2.181-.587-4.064-1.891-5.388-3.647Zm20.026-2.935l-6.108,2.874-2.874,6.106-4.67-13.651,13.652,4.671Z"/>
</svg>
