<?xml version="1.0" encoding="UTF-8"?>
<svg xmlns="http://www.w3.org/2000/svg" id="Layer_1" data-name="Layer 1" viewBox="0 0 24 24">
  <path d="m16.029,14c-.634,1.458-1.897,3.996-4.034,6.903-1.981-2.771-3.35-5.389-4.072-6.903h8.106Zm2.048.3c-.622,1.523-2.086,4.642-4.829,8.264.384.482.787.961,1.207,1.436h6.546v-5.5c0-1.925-1.22-3.558-2.923-4.2Zm-12.214.019c-1.672.657-2.863,2.278-2.863,4.181v5.5h8.835c-3.208-3.972-5.202-7.994-5.972-9.681Zm16.515-5.386s-2.093.34-3.312-.518c-.534-.376-.893-.979-1.136-1.541-.424,2.898-2.913,5.126-5.929,5.126-3.314,0-6-2.686-6-6S8.686,0,12,0c2.78,0,5.112,1.894,5.793,4.459.235-.642.63-1.422,1.273-1.874,1.219-.859,3.312-.518,3.312-.518,0,0-.346,2.057-1.565,2.916-.42.296-.943.443-1.449.517.506.074,1.029.222,1.449.517,1.219.859,1.565,2.916,1.565,2.916Zm-6.878-3.434c0-.828-.672-1.5-1.5-1.5h-4c-.828,0-1.5.672-1.5,1.5s.672,1.5,1.5,1.5h4c.828,0,1.5-.672,1.5-1.5Z"/>
</svg>
