<?xml version="1.0" encoding="UTF-8"?>
<svg xmlns="http://www.w3.org/2000/svg" id="Layer_1" data-name="Layer 1" viewBox="0 0 24 24">
  <path d="m22,14c1.103,0,2-.897,2-2v-2h-2v2h-1.71c-.636-1.211-1.903-2-3.29-2-1.545,0-2.947.975-3.51,2.49l-1.041,3.51h-2.449v2h2c0,.712.154,1.386.424,2h-.424c-1.103,0-2,.897-2,2v2h2v-2h2v-.026c.838.635,1.87,1.026,3,1.026,1.116,0,2.136-.38,2.969-1h2.031v2h2v-2c0-1.103-.897-2-2-2h-.424c.269-.614.424-1.288.424-2h2v-2h-2.461l-.588-2h1.05Zm-10-6h2v-2h-2.461l-.588-2h1.049c1.103,0,2-.897,2-2V0h-2v2h-1.71c-.637-1.21-1.903-2-3.29-2-1.37,0-2.625.769-3.284,2h-1.716V0H0v2c0,1.103.897,2,2,2h1.043l-.594,2H0v2h2c0,.712.154,1.386.424,2h-.424c-1.103,0-2,.897-2,2v2h2v-2h2v-.026c.838.635,1.87,1.026,3,1.026,2.757,0,5-2.243,5-5Z"/>
</svg>
