<?xml version="1.0" encoding="UTF-8"?>
<svg xmlns="http://www.w3.org/2000/svg" id="Layer_1" data-name="Layer 1" viewBox="0 0 24 24">
  <path d="m17.994,2.286C16.086.581,13.524-.229,10.956.059,6.904.517,3.59,3.782,3.075,7.822c-.374,2.931.644,5.76,2.793,7.761.769.715,1.336,1.54,1.695,2.417h8.856c.328-.873.838-1.645,1.513-2.237,1.95-1.708,3.068-4.173,3.068-6.763,0-2.56-1.096-5.007-3.006-6.714Zm-1.994,6.085c-.598-.137-1.368-.271-1.6-.271-.773,0-1.4.627-1.4,1.4,0,.773.627,1.4,1.4,1.4.232,0,1.002-.134,1.6-.271v2.371h-7v-2.151c-.401.095-.767.151-1,.151-.828,0-1.5-.672-1.5-1.5,0-.828.672-1.5,1.5-1.5.233,0,.599.056,1,.151v-2.151h2.171c-.091-.391-.145-.746-.145-.974,0-.828.672-1.5,1.5-1.5.828,0,1.5.672,1.5,1.5,0,.228-.054.583-.146.974h2.12v2.371Zm-8.008,11.629h8.024c-.005.105-.015.209-.015.315v3.685h-8v-3.851c0-.05-.007-.099-.008-.149Z"/>
</svg>
