<?xml version="1.0" encoding="UTF-8"?>
<svg xmlns="http://www.w3.org/2000/svg" id="Layer_1" data-name="Layer 1" viewBox="0 0 24 24">
  <path d="m21.719,3.811c.868-.893,1.82-2.251,1.82-3.926h-2c0,.997-.615,1.87-1.208,2.486-.86-.671-1.872-1.153-2.979-1.36-2.832-.533-5.668.667-7.233,3.049-.41.624-.997,1.011-1.609,1.061-2.248.184-4.363,1.163-5.958,2.758C.766,9.664-.118,11.979.061,14.397c.17,2.282,1.269,4.545,3.094,6.37,2.066,2.067,4.556,3.112,6.969,3.112,2.151,0,4.242-.83,5.919-2.508,1.595-1.595,2.574-3.711,2.758-5.957.05-.612.437-1.199,1.061-1.609,2.382-1.565,3.579-4.404,3.049-7.233-.19-1.014-.609-1.95-1.193-2.761Zm-10.219,16.189c-.828,0-1.5-.672-1.5-1.5s.672-1.5,1.5-1.5,1.5.672,1.5,1.5-.672,1.5-1.5,1.5Zm3-4c-.828,0-1.5-.672-1.5-1.5s.672-1.5,1.5-1.5,1.5.672,1.5,1.5-.672,1.5-1.5,1.5Z"/>
</svg>
