<?xml version="1.0" encoding="UTF-8"?>
<svg xmlns="http://www.w3.org/2000/svg" id="Layer_1" data-name="Layer 1" viewBox="0 0 24 24">
  <path d="m7.609,22.309l-1.644,1.644-3.935-3.935,1.597-1.587,3.983,3.877Zm-.906-6.934l-1.657,1.647,3.978,3.873,1.599-1.599-3.92-3.92Zm3.959-6.52l-4.149-4.368s.444-.995,1.083-1.737l4.404,4.654,4.462-4.615c.639.742,1.026,1.699,1.026,1.699,0,0-3.354,3.662-4.113,4.322l3.887,3.784-.006.033.689-.689c1.374-1.374,3.055-3.437,3.055-3.437,0,0-.82-4.269-3-7C16.974.769,15.14.008,12,0c-3.14.008-4.974.769-6,1.5-2.18,2.731-3,7-3,7,0,0,1.681,2.063,3.055,3.437l.689.689,8.287,8.26,3.909-3.805-8.277-8.225h-.002Zm9.698,9.635l-3.911,3.807,1.662,1.656,3.917-3.806-1.668-1.657Z"/>
</svg>
