<?xml version="1.0" encoding="UTF-8"?>
<svg xmlns="http://www.w3.org/2000/svg" id="Layer_1" data-name="Layer 1" viewBox="0 0 24 24">
  <path d="m11.998,4l-.002-4h12v4s-11.999,0-11.999,0Zm0,2l.002,4.113-3.606,3.953c-2.109,2.636-1.796,6.469.696,8.544,1.077.896,2.439,1.39,3.837,1.39,1.835,0,3.544-.821,4.663-2.222l4.212-4.861c1.418-1.637,2.198-3.731,2.197-5.897v-5.021h-12.001Zm-5.166,6.816l.084-.099,3.083-3.38-.002-3.338h-4.997l.002,4.113-3.606,3.953c-2.109,2.636-1.796,6.469.696,8.544,1.077.896,2.439,1.39,3.837,1.39.507,0,1.006-.084,1.495-.209-2.961-2.83-3.263-7.636-.592-10.974Zm3.165-8.816V0h-4.999l.002,4h4.997Z"/>
</svg>
