<?xml version="1.0" encoding="UTF-8"?>
<svg xmlns="http://www.w3.org/2000/svg" id="Layer_1" data-name="Layer 1" viewBox="0 0 24 24">
  <path d="m0,8.75C0,5.689,2.404,3.179,5.424,3.009c1.125-1.847,3.15-3.009,5.326-3.009,1.444,0,2.81.488,3.919,1.39.573-.256,1.194-.39,1.831-.39,1.942,0,3.647,1.274,4.252,3.071,1.847.353,3.248,1.98,3.248,3.929,0,.976-.365,1.859-.947,2.554h0c-1.264-.97-2.84-1.554-4.553-1.554-.436,0-.87.039-1.298.115-1.278-.732-2.713-1.115-4.202-1.115-1.93,0-3.952.794-5.471,2h-1.529l-2.505,4.038c-2.053-.879-3.495-2.918-3.495-5.288Zm18.5,2.25c-.564,0-1.12.088-1.66.263-1.113-.818-2.455-1.263-3.84-1.263-1.522,0-2.92.53-4.029,1.409l6.469,11.091c.491-.201.966-.444,1.399-.763.54.175,1.096.263,1.66.263,3.033,0,5.5-2.468,5.5-5.5s-2.467-5.5-5.5-5.5Zm-11.5,1l7,12H0l7-12Zm1,9h-2v2h2v-2Zm0-5h-2v4h2v-4Z"/>
</svg>
