<?xml version="1.0" encoding="UTF-8"?>
<svg xmlns="http://www.w3.org/2000/svg" id="Layer_1" data-name="Layer 1" viewBox="0 0 24 24">
  <path d="m24,19v5H0v-5h7c2.778,0,4.242,1.334,4.944,2.748.702-1.414,2.166-2.748,4.944-2.748h7.111Zm-1.774-16.226l-.518-1.774h-.404l-.525,1.773-1.778.519v.404l1.777.526.526,1.777h.404l.519-1.778,1.773-.525v-.404l-1.774-.518ZM2.707,4h-.404l-.525,1.773-1.778.519v.404l1.777.526.526,1.777h.404l.519-1.778,1.773-.525v-.404l-1.774-.518-.518-1.774Zm9,8h-.404l-.525,1.773-1.778.519v.404l1.777.526.526,1.777h.404l.519-1.778,1.773-.525v-.404l-1.774-.518-.518-1.774Zm4.718-6.61l.01-.762-3.371-1.062.313-3.162-.62-.446-2.104,2.927-3.617-1.393-.472.657,2.472,2.985-2.116,2.944.624.449,2.866-1.349,2.124,2.864.718-.224-.076-2.164,9.525,6.35,1.109-1.664-9.486-6.325,2.1-.625Z"/>
</svg>
