<?xml version="1.0" encoding="UTF-8"?>
<svg xmlns="http://www.w3.org/2000/svg" id="Layer_1" data-name="Layer 1" viewBox="0 0 24 24">
  <path d="m24,16.327c0,3.485-6,7.673-6,7.673,0,0-6-4.188-6-7.673,0-1.838,1.343-3.327,3-3.327s3,1.2,3,3.6c0-2.4,1.343-3.6,3-3.6s3,1.49,3,3.327Zm-5-13.327v8.458c-.33.15-.704.323-1,.551-.602-.464-1.293-.75-2-.895v-1.114h-8v2h4.105c-.942.717-1.631,1.773-1.929,3h-2.176v2h2.082c.34,2.578,2.514,5.052,4.363,6.713-.01.137-.002.245.05.287H0V3C0,1.346,1.346,0,3,0h13c1.654,0,3,1.346,3,3Zm-13,13c0-.828-.672-1.5-1.5-1.5s-1.5.672-1.5,1.5.672,1.5,1.5,1.5,1.5-.672,1.5-1.5Zm0-5c0-.828-.672-1.5-1.5-1.5s-1.5.672-1.5,1.5.672,1.5,1.5,1.5,1.5-.672,1.5-1.5Zm0-5c0-.828-.672-1.5-1.5-1.5s-1.5.672-1.5,1.5.672,1.5,1.5,1.5,1.5-.672,1.5-1.5Zm10-1h-8v2h8v-2Z"/>
</svg>
