<?xml version="1.0" encoding="UTF-8"?>
<svg xmlns="http://www.w3.org/2000/svg" id="Layer_1" data-name="Layer 1" viewBox="0 0 24 24">
  <path d="m22.442,9.499s0,0,0,0c.01,0,.005,0,0,0Zm1.558-1.499c0-.828-.672-1.5-1.5-1.5-.317,0-.611.099-.854.267-.633-.636-1.367-1.341-2.186-1.88.943-.825,1.54-2.038,1.54-3.387v-.5h-2v.5c0,1.379-1.122,2.5-2.5,2.5s-2.5-1.121-2.5-2.5V0h-2v1.5c0,.924.28,1.784.76,2.5h-1.26c-1.378,0-2.5-1.121-2.5-2.5V0h-2v1.5c0,2.481,2.019,4.5,4.5,4.5h2.074c-.464.942-.574,1.988-.574,2.586v1.414h-7.106c-1.273,0-2.437.595-3.21,1.51l-.004-.004L.003,14.547l2.09,1.806c.133.392.773,1.872.906,2.296v5.352h4v-5h6v5h4v-5.115c.627-.746,2-2.695,2-5.485v-2.027l1.6-.219c.914-.115,1.638-.791,1.842-1.655-.005,0-.01,0,0,0,.828,0,1.558-.67,1.558-1.499Z"/>
</svg>
