<?xml version="1.0" encoding="UTF-8"?>
<svg xmlns="http://www.w3.org/2000/svg" id="Layer_1" data-name="Layer 1" viewBox="0 0 24 24" width="512" height="512"><path d="M7,11.245v7.755h2v-5h.755l8.327,8.327c-1.786,1.056-3.861,1.673-6.081,1.673C5.383,24,0,18.617,0,12c0-2.221,.617-4.295,1.673-6.081m22.327,6.081c0,3.669-1.659,6.953-4.261,9.156L2.844,4.261C5.047,1.659,8.331,0,12,0c6.617,0,12,5.383,12,12Zm-8-2.5c0,1.378-1.121,2.5-2.5,2.5h-.086l1.691,1.691c1.688-.649,2.895-2.277,2.895-4.191,0-2.481-2.019-4.5-4.5-4.5h-3.5c-.977,0-1.837,.476-2.385,1.201l1.455,1.455c.141-.381,.501-.656,.93-.656h3.5c1.379,0,2.5,1.122,2.5,2.5Z"/></svg>
