<?xml version="1.0" encoding="UTF-8"?>
<svg xmlns="http://www.w3.org/2000/svg" id="Layer_1" data-name="Layer 1" viewBox="0 0 24 24">
  <path d="m24,14.5c0,5.529-2.583,7.5-5,7.5h0s-.004,0-.005,0c-2.995,0-3.995-3.5-3.995-5,.762.906,2,3,3.993,3,.002,0,.005,0,.007,0h0c1.851,0,3-2.108,3-5.5,0-3.572-1.546-5.5-3-5.5-1.148,0-1.584.651-2.316,1.899-.524.894-1.119,1.907-2.218,2.485-.923.486-1.794.59-3.001.611.954,1.062,1.536,2.467,1.536,4.004,0,3.309-2.691,6-6,6h-1.5c-3.111-.219-5.577-2.834-5.577-6v-.634c1.167,2.286,3.288,4.634,5.996,4.634h1.081c2.206,0,4-1.794,4-4s-1.794-4-4-4h-1v-2h1.036c1.654,0,3-1.346,3-3s-1.346-3-3-3c-1.47,0-3.297,1.448-3.877,2.006l-1.39-1.438c.271-.263,2.726-2.567,5.267-2.567,2.757,0,5,2.243,5,5,0,1.131-.392,2.164-1.028,3.002,1.231,0,1.888-.052,2.526-.387.594-.312.997-1,1.425-1.729.755-1.286,1.694-2.887,4.041-2.887,2.484,0,5,2.576,5,7.5ZM15,6c1.315,0,2.517-.461,3.575-1.372l-1.381-1.727c-.607.488-1.74,1.099-3.194,1.099-.493,0-2.5,0-3.5-1,1,2,2.805,3,4.5,3Zm-.5-3c.828,0,1.5-.672,1.5-1.5s-.672-1.5-1.5-1.5-1.5.672-1.5,1.5.672,1.5,1.5,1.5Z"/>
</svg>
