<?xml version="1.0" encoding="UTF-8"?>
<svg xmlns="http://www.w3.org/2000/svg" id="Layer_1" data-name="Layer 1" viewBox="0 0 24 24">
  <path d="m2,19.49v-5.37c-.914-.734-1.5-1.859-1.5-3.12,0-2.206,1.794-4,4-4s4,1.794,4,4c0,1.261-.586,2.386-1.5,3.12v5.37l-2.5-2.5-2.5,2.5ZM19,.586v4.414h4.414L19,.586Zm-2,6.414V0H7c-1.657,0-3,1.343-3,3v2.021c.165-.014.332-.021.5-.021,3.308,0,6,2.691,6,6,0,.341-.029.675-.084,1h8.584v2h-9.305c-.2.345-.433.667-.695.964v1.036h10v2h-10v3h-3.318l-1.682-1.682v4.682h20V7h-7Z"/>
</svg>
