<?xml version="1.0" encoding="UTF-8"?>
<svg xmlns="http://www.w3.org/2000/svg" id="Layer_1" data-name="Layer 1" viewBox="0 0 24 24">
  <path d="m24,6h-2.988l.031,7.948-.338.3c-.491.436-1.302,1.095-2.342,1.74l1.638,3.276v2.736h-2v-2.264l-1.402-2.804c-1.351.612-2.917,1.069-4.598,1.069s-3.247-.458-4.597-1.07l-1.403,2.805v2.264h-2v-2.736l1.638-3.277c-1.019-.632-1.815-1.275-2.299-1.701l-.339-.299v-7.987H0v-2h3v-1h2v1h3v2h-3v4.373c.301-.22.615-.421.934-.611l3.238,3.238h5.828l3.174-3.174c.292.178.578.367.854.57l-.017-4.396h-3.012v-2h3.004l-.004-.996,2-.008.004,1.004h2.996v2Zm-14,5h4.172l2.108-2.108c-1.355-.529-2.804-.82-4.28-.82-1.432,0-2.837.274-4.156.772l2.156,2.156Z"/>
</svg>
