<?xml version="1.0" encoding="UTF-8"?>
<svg xmlns="http://www.w3.org/2000/svg" id="Layer_1" data-name="Layer 1" viewBox="0 0 24 24" width="512" height="512"><path d="m12,0C5.383,0,0,5.383,0,12s5.383,12,12,12h12v-12C24,5.383,18.617,0,12,0Zm3.5,8c.828,0,1.5.672,1.5,1.5s-.672,1.5-1.5,1.5-1.5-.672-1.5-1.5.672-1.5,1.5-1.5Zm-7,0c.828,0,1.5.672,1.5,1.5s-.672,1.5-1.5,1.5-1.5-.672-1.5-1.5.672-1.5,1.5-1.5Zm3.5,9c-3.107,0-5.563-2.162-5.666-2.254l1.332-1.491c.018.016,2.003,1.746,4.334,1.746s4.316-1.73,4.336-1.748l1.33,1.493c-.103.092-2.559,2.254-5.666,2.254Z"/></svg>
