<?xml version="1.0" encoding="UTF-8"?>
<svg xmlns="http://www.w3.org/2000/svg" id="Layer_1" data-name="Layer 1" viewBox="0 0 24 24" width="512" height="512"><path d="M2.534,6.777l13.384,13.384-3.918,3.833-7.063-6.908c-2.782-2.782-3.608-6.792-2.403-10.308Zm21.423,15.766l-1.414,1.414L.043,1.457,1.457,.043l3.197,3.197c.093-.101,.177-.208,.275-.306C6.817,1.047,9.327,.007,11.997,.007h.004C14.672,.007,17.183,1.047,19.071,2.936c1.889,1.889,2.929,4.399,2.929,7.071s-1.04,5.182-2.929,7.07l-.293,.287,5.179,5.179ZM15.536,6.464c-1.953-1.953-5.118-1.953-7.071,0-.1,.1-.173,.216-.263,.323l1.414,1.414c.083-.11,.163-.222,.263-.323,1.172-1.172,3.071-1.172,4.243,0s1.172,3.071,0,4.243c-.1,.1-.212,.18-.323,.263l1.414,1.414c.107-.09,.222-.163,.323-.263,1.953-1.953,1.953-5.118,0-7.071Z"/></svg>
