<?xml version="1.0" encoding="UTF-8"?>
<svg xmlns="http://www.w3.org/2000/svg" id="Layer_1" data-name="Layer 1" viewBox="0 0 24 24">
  <path d="m20.36,24.011l-1.72-1.021,2.963-4.991h-4.122c-.517,0-.987-.263-1.259-.701-.272-.439-.296-.979-.066-1.441l3.484-5.866,1.719,1.021-2.964,4.989h4.124c.509,0,.976.254,1.249.684.273.429.308.96.093,1.421l-3.501,5.906Zm-4.206-.752c-1.295.479-2.695.742-4.154.742C5.383,24,0,18.617,0,12S5.383,0,12,0c5.995,0,10.978,4.419,11.861,10.171l-4.861-2.889v-.282h-2v3.519l-2.634,4.445c-.542,1.088-.483,2.354.157,3.388.64,1.031,1.746,1.646,2.959,1.646h.609l-1.936,3.26ZM7,7h-2v4h2v-4Zm4,0h-2v4h2v-4Zm2,4h2v-4h-2v4Z"/>
</svg>
