<?xml version="1.0" encoding="UTF-8"?>
<svg xmlns="http://www.w3.org/2000/svg" id="Layer_1" data-name="Layer 1" viewBox="0 0 24 24" width="512" height="512"><path d="M10,13c0,.552-.448,1-1,1s-1-.448-1-1,.448-1,1-1,1,.448,1,1Zm7-1c-.552,0-1,.448-1,1s.448,1,1,1,1-.448,1-1-.448-1-1-1Zm7,0c0,6.617-5.383,12-12,12S0,18.617,0,12,5.383,0,12,0s12,5.383,12,12ZM4.629,7.477l.74,1.857c1.583-.631,2.953-1.766,3.963-3.279l-1.664-1.109c-.772,1.158-1.852,2.058-3.039,2.531Zm3.371,7.523c1.654,0,3-1.346,3-3s-1.346-3-3-3c-.304,0-.592,.059-.869,.144,.512,.239,.869,.755,.869,1.356,0,.828-.672,1.5-1.5,1.5-.602,0-1.117-.357-1.356-.869-.085,.277-.144,.565-.144,.869,0,1.654,1.346,3,3,3Zm7.598,3.198c-.066-.049-1.632-1.198-3.598-1.198s-3.531,1.149-3.598,1.198l1.191,1.606c.011-.008,1.117-.805,2.406-.805s2.396,.797,2.402,.802l1.195-1.604Zm3.402-6.198c0-1.654-1.346-3-3-3-.304,0-.592,.059-.869,.144,.512,.239,.869,.755,.869,1.356,0,.828-.672,1.5-1.5,1.5-.602,0-1.117-.357-1.356-.869-.085,.277-.144,.565-.144,.869,0,1.654,1.346,3,3,3s3-1.346,3-3Zm.371-4.523c-1.188-.474-2.267-1.373-3.039-2.531l-1.664,1.109c1.01,1.514,2.38,2.648,3.963,3.279l.74-1.857Z"/></svg>
