<?xml version="1.0" encoding="UTF-8"?>
<svg xmlns="http://www.w3.org/2000/svg" id="Layer_1" data-name="Layer 1" viewBox="0 0 24 24">
  <path d="m11.975,11.814l.318.607c.53,1.013.984,1.863,1.374,2.579h-3.382c.389-.716.843-1.567,1.373-2.58l.317-.606Zm-5.592-3.484c-2.71,1.602-4.88,3.745-5.625,4.669-1.263,1.565-1.019,3.859.547,5.122,1.565,1.263,3.859,1.019,5.122-.547.623-.772,2.111-3.506,3.459-6.081-1.486-.675-2.86-1.732-3.503-3.163Zm5.617,15.67c1.117,0,1.942-1.257,2.565-3h-5.13c.624,1.743,1.448,3,2.565,3Zm11.192-11.001c-.746-.924-2.916-3.067-5.625-4.669-.643,1.431-2.016,2.489-3.503,3.163,1.348,2.575,2.836,5.309,3.459,6.081,1.263,1.565,3.557,1.81,5.122.547,1.565-1.263,1.81-3.557.547-5.122Zm-14.027,4.001c-.224.384-.409.691-.565.939.076.358.158.713.244,1.061h6.312c.081-.329.158-.664.231-1.002-.163-.257-.361-.582-.602-.998h-5.62ZM14.46,2.943c.026-.144.04-.291.04-.443,0-1.378-1.122-2.5-2.5-2.5s-2.5,1.122-2.5,2.5c0,.148.013.293.038.434.115.492.58,1.066,2.462,1.066,1.871,0,2.342-.568,2.46-1.057Zm-2.46,3.057c-1.775,0-2.866-.451-3.528-1.065-.3.492-.472,1.046-.472,1.621,0,2.31,3.358,3.4,3.741,3.517l.259.079.259-.079c.383-.117,3.741-1.207,3.741-3.517,0-.575-.173-1.129-.472-1.621-.662.615-1.752,1.065-3.528,1.065Z"/>
</svg>
