<?xml version="1.0" encoding="UTF-8"?>
<svg xmlns="http://www.w3.org/2000/svg" id="Layer_1" data-name="Layer 1" viewBox="0 0 24 24">
  <path d="m12,20.512c0,1.923-1.57,3.488-3.5,3.488H3.5c-1.93,0-3.5-1.565-3.5-3.488,0-2.66,1.966-5.816,4.518-6.743-.756-.747-1.518-1.753-1.518-2.769h6c0,1.016-.762,2.021-1.518,2.769,2.552.927,4.518,4.083,4.518,6.743ZM21,0h-11.76c.48.716.76,1.576.76,2.5v1.5h14v-1c0-1.657-1.343-3-3-3Zm-13,2.5C8,1.034,6.739-.137,5.242.013c-1.301.13-2.242,1.322-2.242,2.63v6.357h8v2c0,.781-.228,1.515-.576,2.181,2.173,1.78,3.576,4.691,3.576,7.331,0,1.324-.472,2.539-1.257,3.488h4.257c2.209,0,4-1.791,4-4V6h-13v-3.5Z"/>
</svg>
