<?xml version="1.0" encoding="UTF-8"?>
<svg xmlns="http://www.w3.org/2000/svg" id="Layer_1" data-name="Layer 1" viewBox="0 0 24 24" width="512" height="512"><path d="m16,7v-2h-2.226c-.104-.325-.239-.64-.422-.937l1.484-1.484-1.414-1.414-1.484,1.484c-.294-.182-.609-.318-.937-.424V0h-2v2.067c-.552.088-1.073.281-1.548.569l-1.516-1.517-1.414,1.414,1.42,1.42-1.988,1.988-1.42-1.42-1.414,1.414,1.516,1.516c-.289.475-.482.996-.569,1.548H0v2h2.225c.105.328.242.643.424.937l-1.483,1.484,1.414,1.414,1.483-1.484c.297.183.613.318.938.422v2.226h2v-2.067c.868-.138,1.703-.53,2.37-1.197l2.676-2.676.815.815,1.414-1.414-.912-.912c.292-.483.482-1.007.569-1.549h2.067Zm-6.5,1c-.828,0-1.5-.672-1.5-1.5s.671-1.5,1.5-1.5,1.5.671,1.5,1.5-.671,1.5-1.5,1.5Zm14.5,7v-2h-2.226c-.104-.325-.239-.64-.422-.937l1.484-1.484-1.414-1.414-1.484,1.484c-.294-.182-.609-.318-.937-.424v-2.225h-2v2.067c-.893.142-1.719.547-2.37,1.198l-2.677,2.677-.832-.832-1.414,1.414.929.929c-.289.475-.482.996-.569,1.548h-2.066v2h2.225c.105.328.242.643.424.937l-1.483,1.484,1.414,1.414,1.483-1.484c.297.183.613.318.938.422v2.226h2v-2.067c.541-.086,1.066-.276,1.548-.569l1.521,1.521,1.414-1.414-1.424-1.424,1.987-1.987,1.424,1.424,1.414-1.414-1.52-1.52c.292-.483.482-1.007.569-1.549h2.067Zm-9.5,4c-.828,0-1.5-.672-1.5-1.5s.672-1.5,1.5-1.5,1.5.672,1.5,1.5-.672,1.5-1.5,1.5Z"/></svg>
