<?xml version="1.0" encoding="UTF-8"?>
<svg xmlns="http://www.w3.org/2000/svg" id="Layer_1" data-name="Layer 1" viewBox="0 0 24 24">
  <path d="m21.621,24h-10.137l.015-.022v-4.116c0-1.061.421-2.078,1.172-2.828l3.253-3.287c.817-.817,2.127-1.011,3.069-.342,1.097.78,1.299,2.272.525,3.306l-2.901,2.908,1.347,1.417,3.035-3.035-.015-2h1c.738,0,1.422-.215,2.016-.565v6.186l-2.379,2.379m.363-24h-6c-1.105,0-2,.895-2,2v10.863l.518-.524c1.555-1.553,3.927-1.789,5.649-.564.782.556,1.331,1.334,1.613,2.226h.219c1.105,0,2-.895,2-2V2c0-1.105-.895-2-2-2ZM0,24V3C0,1.346,1.346,0,3,0h9.541c-.344.591-.556,1.268-.556,2v2h-7.984v4h7.984v6.885l-.727.734c-.679.679-1.171,1.493-1.46,2.381h-1.798v2h1.5v4H0Zm8-12h2v-2h-2v2Zm0,4h2v-2h-2v2Zm-2,2h-2v2h2v-2Zm0-4h-2v2h2v-2Zm0-4h-2v2h2v-2Z"/>
</svg>
