<?xml version="1.0" encoding="UTF-8"?>
<svg xmlns="http://www.w3.org/2000/svg" id="Layer_1" data-name="Layer 1" viewBox="0 0 24 24">
  <path d="m24,18.5c0,1.93-1.57,3.5-3.5,3.5s-3.5-1.57-3.5-3.5,1.57-3.5,3.5-3.5,3.5,1.57,3.5,3.5Zm-3.5-7.5c-.268,0-.534.018-.797.049l-1.677-4.312c.289.163.619.263.974.263h1V3h-1c-.886,0-1.629.58-1.891,1.378l-.925-2.378h-5.184v2h3.816l2.943,7.567c-.932.399-1.783.996-2.484,1.775l-2.24,2.658h-1.158l-3.2-8h-4.677c-2.206,0-4,1.794-4,4v6h2.04c-.023.165-.04.331-.04.5,0,1.93,1.57,3.5,3.5,3.5s3.5-1.57,3.5-3.5c0-.169-.016-.335-.04-.5h5.005l2.818-3.345c.947-1.052,2.302-1.655,3.717-1.655h3.5v-2h-3.5Z"/>
</svg>
