<?xml version="1.0" encoding="UTF-8"?>
<svg xmlns="http://www.w3.org/2000/svg" id="Layer_1" data-name="Layer 1" viewBox="0 0 24 24">
  <path d="m13,22h5v2H6v-2h5v-3.072c-1.454-.156-2.814-.627-3.999-1.365,1.552-1.491,3.73-4.326,4.999-6.13,1.268,1.805,3.446,4.639,4.999,6.13-1.185.737-2.545,1.209-3.999,1.365v3.072ZM7.948.92c-3.215,1.524-5.448,4.792-5.448,8.58,0,.476.047.939.114,1.396,1.883-.762,5.551-1.734,7.883-2.107-.92-2.142-2.226-5.818-2.549-7.869ZM14.122.247c-.683-.157-1.392-.247-2.122-.247s-1.438.091-2.122.247c.074,1.238,1.189,4.636,2.122,6.964.933-2.327,2.048-5.724,2.122-6.964ZM3.121,12.849c.501,1.324,1.284,2.507,2.284,3.474,1.202-1.069,3.166-3.55,4.503-5.394-2.281.456-5.485,1.338-6.787,1.92ZM16.052.92c-.324,2.052-1.63,5.727-2.549,7.869,2.332.373,6.001,1.345,7.883,2.107.068-.457.114-.921.114-1.396,0-3.788-2.234-7.055-5.448-8.58Zm2.543,15.403c1-.967,1.783-2.15,2.284-3.474-1.302-.582-4.506-1.465-6.787-1.92,1.337,1.844,3.301,4.325,4.503,5.394Z"/>
</svg>
