<?xml version="1.0" encoding="UTF-8"?>
<svg xmlns="http://www.w3.org/2000/svg" id="Layer_1" data-name="Layer 1" viewBox="0 0 24 24">
  <path d="m24,22.586l-2.792-2.792c.524-.791.833-1.736.833-2.753,0-2.757-2.243-5-5-5s-5,2.243-5,5,2.243,5,5,5c1.017,0,1.962-.309,2.753-.833l2.792,2.792,1.414-1.414ZM21,0H3C1.346,0,0,1.346,0,3v4h24V3c0-1.654-1.346-3-3-3ZM3.5,5c-.828,0-1.5-.672-1.5-1.5s.672-1.5,1.5-1.5,1.5.672,1.5,1.5-.672,1.5-1.5,1.5Zm4,0c-.828,0-1.5-.672-1.5-1.5s.672-1.5,1.5-1.5,1.5.672,1.5,1.5-.672,1.5-1.5,1.5ZM0,9h24v8c0-3.866-3.134-7-7-7s-7,3.134-7,7c0,1.96.808,3.729,2.106,5H0v-13Z"/>
</svg>
