<?xml version="1.0" encoding="UTF-8"?>
<svg xmlns="http://www.w3.org/2000/svg" id="Layer_1" data-name="Layer 1" viewBox="0 0 24 24">
  <path d="m22.922.681c-.686-.572-1.579-.808-2.516-.636l-4.122.866c-1.903.346-3.284,2.001-3.284,3.936v16.939l-1,.182-1-.182V4.846c0-1.935-1.381-3.589-3.227-3.923L3.536.032c-.881-.162-1.774.077-2.458.648C.393,1.252,0,2.092,0,2.984v18.834l12,2.182,12-2.182V2.984c0-.892-.393-1.731-1.078-2.303ZM7,18.915l-5-1.144v-2.033l5,1.144v2.033Zm2-3.636l-7-1.508v-2.033l7,1.508v2.033Zm0-4l-7-1.508v-2.033l7,1.508v2.033Zm0-4l-7-1.508v-2.033l7,1.508v2.033Zm11,10.579l-5,1.421v-2.033l5-1.421v2.033Zm2-4.364l-7,1.784v-2.033l7-1.784v2.033Zm0-4l-7,1.784v-2.033l7-1.784v2.033Zm0-4l-7,1.784v-2.033l7-1.784v2.033Z"/>
</svg>
