<?xml version="1.0" encoding="UTF-8"?>
<svg xmlns="http://www.w3.org/2000/svg" id="Layer_1" data-name="Layer 1" viewBox="0 0 24 24">
  <path d="m21.929,11.162c-.315-4.307-2.99-4.662-3.846-4.662-1.974,0-4.083,1.451-4.083,5.522v1.103c-.642-.433-1.371-.626-2.083-.626-.781,0-3.07.303-3.707,3.619-1.27.349-2.21,1.502-2.21,2.881,0,2.022,2.059,4.14,2.293,4.374l.707.707.707-.707c.234-.234,2.293-2.352,2.293-4.374,0-1.222-.736-2.271-1.787-2.739.226-.981.715-1.761,1.704-1.761,1.343,0,2.083,1.251,2.083,3.522v5.978h2v-11.978c0-2.271.74-3.522,2.083-3.522,1.294,0,1.731,1.333,1.842,2.708-1.123.434-1.925,1.518-1.925,2.792,0,2.022,2.059,4.14,2.293,4.374l.707.707.707-.707c.234-.234,2.293-2.352,2.293-4.374,0-1.328-.873-2.444-2.071-2.838Zm-17.102,1.408l-3.119,1.816-1.006-1.729,3.126-1.82c-.096-.271-.174-.549-.227-.838H-.027v-2h3.623c.054-.292.132-.574.229-.847l-3.127-1.82,1.006-1.729,3.124,1.818c.18-.21.376-.406.585-.586l-1.811-3.115,1.729-1.006,1.811,3.113c.269-.097.546-.176.832-.23V0h2v3.596c.292.052.574.129.849.226l1.807-3.106,1.729,1.006-1.799,3.094c.518.441.959.971,1.284,1.574-.872.972-1.508,2.337-1.74,4.119-.062-.002-.123-.009-.185-.009-1.916,0-4.053.991-5.146,3.525-.754-.335-1.414-.838-1.944-1.455Z"/>
</svg>
