<?xml version="1.0" encoding="UTF-8"?>
<svg xmlns="http://www.w3.org/2000/svg" id="Layer_1" data-name="Layer 1" viewBox="0 0 24 24" width="512" height="512"><path d="m22.46,16.083c.272.48.44,1.026.44,1.617,0,1.823-1.477,3.3-3.3,3.3s-3.3-1.477-3.3-3.3c0-.317.052-.619.136-.909l-4.436-1.274-4.436,1.274c.084.289.136.592.136.909,0,1.823-1.477,3.3-3.3,3.3s-3.3-1.477-3.3-3.3c0-.591.168-1.138.44-1.617-.923-.585-1.54-1.609-1.54-2.783,0-1.823,1.477-3.3,3.3-3.3,1.536,0,2.815,1.054,3.183,2.474l4.065-1.229,1.44,3.351,1.138-3.333,4.377,1.257c.352-1.444,1.645-2.52,3.197-2.52,1.823,0,3.3,1.477,3.3,3.3,0,1.174-.617,2.198-1.54,2.783ZM13,2h-2v4h2V2Zm5.866,2.036l-1.732-1-2,3.464,1.732,1,2-3.464Zm-10,2.464l-2-3.464-1.732,1,2,3.464,1.732-1Z"/></svg>
