<?xml version="1.0" encoding="UTF-8"?>
<svg xmlns="http://www.w3.org/2000/svg" id="Layer_1" data-name="Layer 1" viewBox="0 0 24 24">
  <path d="m9.5,2.5c0-1.381,1.119-2.5,2.5-2.5s2.5,1.119,2.5,2.5-1.119,2.5-2.5,2.5-2.5-1.119-2.5-2.5Zm-5,12.1h-.9v1.8h.9c.496,0,.9-.404.9-.9s-.404-.9-.9-.9Zm16-4.6h-.029l-4.72-5.014c-.566.853-1.416,1.502-2.414,1.812l3.013,3.202H7.649l3.013-3.202c-.999-.31-1.848-.959-2.414-1.812l-4.72,5.014h-.029c-1.93,0-3.5,1.57-3.5,3.5v10.5h24v-10.5c0-1.93-1.57-3.5-3.5-3.5Zm-14.512,7.509c-.018.012-.018.012-.042.029l1.054,3.462h-1.744l-.872-3h-.784v3h-1.6v-8h2.5c1.381,0,2.5,1.119,2.5,2.5,0,.846-.423,1.592-1.067,2.044.024-.014.036-.023.055-.035Zm5.012-2.909h-1.4v1.6h1.4v1.6h-1.4v1.6h1.4v1.6h-3v-8h3v1.6Zm6,6.4h-1.6l-1.8-4.054v4.054h-1.6v-8h1.6v.009l1.8,4.054v-4.063h1.6v8Zm5-6.4h-1.2v6.4h-1.6v-6.4h-1.2v-1.6h4v1.6Z"/>
</svg>
