<?xml version="1.0" encoding="UTF-8"?>
<svg xmlns="http://www.w3.org/2000/svg" id="Layer_1" data-name="Layer 1" viewBox="0 0 24 24">
  <path d="m16,13v6.5c0,.275.225.5.5.5h1.684c.413-1.163,1.512-2,2.816-2,1.657,0,3,1.343,3,3s-1.343,3-3,3c-1.304,0-2.403-.837-2.816-2h-1.684c-1.379,0-2.5-1.121-2.5-2.5v-6.5h-2v-2h2v-6.5c0-1.379,1.121-2.5,2.5-2.5h1.684c.413-1.163,1.512-2,2.816-2,1.657,0,3,1.343,3,3s-1.343,3-3,3c-1.304,0-2.403-.837-2.816-2h-1.684c-.275,0-.5.225-.5.5v6.5h2.184c.413-1.163,1.512-2,2.816-2,1.657,0,3,1.343,3,3s-1.343,3-3,3c-1.304,0-2.403-.837-2.816-2h-2.184Zm-4.302-3.129l-1.416.816c.129.418.218.853.218,1.313s-.089.895-.218,1.313l1.416.816-.998,1.732-1.411-.813c-.605.652-1.393,1.126-2.29,1.331v1.621h-2v-1.621c-.896-.205-1.685-.679-2.29-1.331l-1.411.813-.998-1.732,1.416-.816c-.129-.418-.218-.853-.218-1.313s.089-.895.218-1.313l-1.416-.816.998-1.732,1.411.813c.605-.652,1.393-1.126,2.29-1.331v-1.621h2v1.621c.896.205,1.685.679,2.29,1.331l1.411-.813.998,1.732Zm-4.198,2.129c0-.827-.673-1.5-1.5-1.5s-1.5.673-1.5,1.5.673,1.5,1.5,1.5,1.5-.673,1.5-1.5Z"/>
</svg>
