<?xml version="1.0" encoding="UTF-8"?>
<svg xmlns="http://www.w3.org/2000/svg" id="Layer_1" data-name="Layer 1" viewBox="0 0 24 24">
  <path d="m17,0c-3.859,0-7,3.141-7,7s3.141,7,7,7,7-3.141,7-7S20.859,0,17,0Zm4,7c0,2.205-1.795,4-4,4s-4-1.795-4-4V3l2.028,1.521c.582-.331,1.255-.521,1.972-.521s1.39.19,1.972.521l2.028-1.521v4ZM4.5,2.5l1-2,1,2,2,1-2,1-1,2-1-2-2-1,2-1Zm19.5,19.5v2h-6v-1c0-3.309-2.691-6-6-6v2c2.206,0,4,1.794,4,4v1H6.558c-3.224,0-6.558-2.058-6.558-5.5,0-2.135.945-3.659,1.778-5.004.655-1.057,1.222-1.969,1.222-2.996,0-1.299-.363-2.5-3-2.5v-2c4.351,0,5,2.819,5,4.5,0,1.597-.773,2.844-1.521,4.051-.761,1.226-1.479,2.384-1.479,3.949,0,1.791,1.467,2.851,2.997,3.279.006-1.132.277-6.355,4.555-9.726,1.619,2.382,4.351,3.947,7.448,3.947,1.85,0,3.57-.559,5-1.516v7.516h2Z"/>
</svg>
