<?xml version="1.0" encoding="UTF-8"?>
<svg xmlns="http://www.w3.org/2000/svg" id="Layer_1" data-name="Layer 1" viewBox="0 0 24 24" width="512" height="512"><path d="M16,8.01c0-1.93-.76-3.68-1.97-4.94,.24-.04,.48-.06,.72-.06h.69c-.14-.94-.49-1.67-.66-1.99L16.53,.06c.14,.26,.32,.62,.48,1.06,.05-.07,.11-.13,.18-.2C18.24-.13,20,0,20,0c0,0,.13,1.76-.92,2.81-.08,.08-.17,.16-.26,.23,2.35,.3,4.18,2.41,4.18,4.96,0,.7-.14,1.37-.39,1.99h-6.89c.18-.64,.28-1.31,.28-1.99Zm-2.4,1.99c.26-.62,.4-1.3,.4-1.99,0-2.55-1.83-4.66-4.18-4.96,.09-.07,.18-.14,.26-.23C11.13,1.77,11,0,11,0c0,0-1.76-.13-2.81,.92-.06,.06-.12,.13-.18,.2-.16-.44-.34-.8-.48-1.06l-1.76,.96c.17,.32,.53,1.05,.66,1.99h-.69C3.13,3.01,1,5.25,1,8.01c0,.69,.14,1.37,.4,1.99H13.6ZM0,21c0,1.65,1.35,3,3,3H21c1.65,0,3-1.35,3-3v-2H0v2ZM24,12H0v5H24v-5Z"/></svg>
