<?xml version="1.0" encoding="UTF-8"?>
<svg xmlns="http://www.w3.org/2000/svg" id="Layer_1" data-name="Layer 1" viewBox="0 0 24 24">
  <path d="m3.778,6l.299-1.695c.338-1.915,1.995-3.305,3.939-3.305h7.966c1.944,0,3.601,1.39,3.938,3.305l.299,1.695h-4.221c-.768,0-1.469.29-2,.766-.531-.476-1.232-.766-2-.766h-1c-.768,0-1.469.29-2,.766-.531-.476-1.232-.766-2-.766h-3.222Zm12.222,2c-.552,0-1,.448-1,1v3h-2v-3c0-.552-.449-1-1-1h-1c-.551,0-1,.448-1,1v5h-2v-5c0-.552-.449-1-1-1h-3.574l-1.412,8h19.972l-1.411-8h-4.574Zm8,10v2h-1c0,1.654-1.346,3-3,3H4c-1.654,0-3-1.346-3-3H0v-2h24Z"/>
</svg>
