<?xml version="1.0" encoding="UTF-8"?>
<svg xmlns="http://www.w3.org/2000/svg" id="Layer_1" data-name="Layer 1" viewBox="0 0 24 24">
  <path d="m9.493,19.383c.084.046.169.09.255.131l-4.129,4.129c-.323.33-.82.445-1.263.286-.175-.061-.33-.16-.457-.287-.194-.194-.321-.453-.349-.736l-.245-2.212-2.221-.246c-.667-.074-1.149-.675-1.076-1.342.03-.273.153-.531.346-.725l2.899-2.899c.642,1.263,1.796,2.236,3.176,2.632.568.163,1.141.232,1.71.205.383.421.836.777,1.354,1.065Zm4.022-1.75c-.47.261-.998.392-1.526.392s-1.056-.131-1.526-.392c-.485-.269-.879-.634-1.168-1.083-.156-.242-.433-.366-.689-.307-.532.122-1.08.103-1.626-.053-1.035-.297-1.862-1.123-2.158-2.158-.157-.546-.175-1.093-.053-1.627.058-.256-.065-.532-.307-.688-.451-.291-.815-.685-1.084-1.17-.257-.463-.391-.996-.389-1.54-.003-.536.132-1.069.389-1.533.268-.484.633-.878,1.083-1.169.242-.156.366-.433.308-.689-.121-.533-.103-1.081.054-1.627.296-1.034,1.123-1.861,2.158-2.158.546-.157,1.092-.175,1.625-.053.259.058.534-.066.69-.307.29-.449.683-.813,1.168-1.083.942-.522,2.112-.522,3.053,0,.486.269.879.634,1.169,1.083.156.241.432.364.689.307.534-.122,1.08-.103,1.626.053,1.034.296,1.861,1.123,2.158,2.158.157.545.175,1.092.054,1.626-.058.257.065.533.306.689.45.291.815.684,1.083,1.169.257.464.392.996.389,1.541.003.536-.132,1.069-.389,1.533-.268.485-.633.878-1.082,1.169-.242.156-.366.433-.308.689.121.535.103,1.082-.054,1.627-.297,1.035-1.124,1.861-2.158,2.158-.545.155-1.091.175-1.625.053-.258-.059-.533.065-.69.307-.29.449-.683.813-1.169,1.082Zm2.152-6.634c0-.959-.453-1.813-1.155-2.363.308-.471.488-1.033.488-1.637,0-1.654-1.346-3-3-3h-2.5v2h2.5c.551,0,1,.448,1,1s-.449,1-1,1h-1v2h1.667c.551,0,1,.448,1,1s-.449,1-1,1h-3.167v2h3.167c1.655,0,3-1.346,3-3Zm8.326,8.106c-.03-.273-.153-.531-.346-.725l-2.914-2.914c-.64,1.27-1.798,2.25-3.184,2.647-.57.162-1.143.228-1.709.205-.384.421-.837.777-1.354,1.064-.079.044-.159.085-.24.124l4.136,4.136c.323.33.82.445,1.263.286.175-.061.33-.16.457-.287.194-.194.321-.453.349-.736l.245-2.212,2.221-.246c.667-.074,1.149-.675,1.076-1.342Z"/>
</svg>
