<?xml version="1.0" encoding="UTF-8"?>
<svg xmlns="http://www.w3.org/2000/svg" id="Layer_1" data-name="Layer 1" viewBox="0 0 24 24">
  <path d="m22.4,15h1.6v8h-1.6v-2h-1.601c-.993,0-1.8-.807-1.8-1.8v-4.2h1.6v4.2c0,.11.09.2.2.2h1.601v-4.4Zm-12,4.4h-1.601c-.11,0-.2-.09-.2-.2v-4.2h-1.6v4.2c0,.993.807,1.8,1.8,1.8h1.601v2h1.6v-8h-1.6v4.4Zm7.6-1.9v3c0,1.378-1.122,2.5-2.5,2.5s-2.5-1.122-2.5-2.5v-3c0-1.378,1.122-2.5,2.5-2.5s2.5,1.122,2.5,2.5Zm-1.6,0c0-.496-.404-.9-.9-.9s-.9.404-.9.9v3c0,.496.404.9.9.9s.9-.404.9-.9v-3Zm7.6-13.5v4H0v-4C0,2.346,1.346,1,3,1h18c1.654,0,3,1.346,3,3Zm-19,.5c0-.828-.672-1.5-1.5-1.5s-1.5.672-1.5,1.5.672,1.5,1.5,1.5,1.5-.672,1.5-1.5Zm4,0c0-.828-.672-1.5-1.5-1.5s-1.5.672-1.5,1.5.672,1.5,1.5,1.5,1.5-.672,1.5-1.5ZM0,23h8.8c-2.095,0-3.8-1.705-3.8-3.8v-6.2h19v-3H0v13Z"/>
</svg>
