<?xml version="1.0" encoding="UTF-8"?>
<svg xmlns="http://www.w3.org/2000/svg" id="Layer_1" data-name="Layer 1" viewBox="0 0 24 24">
  <path d="m13.325,2.773L16.086.012l1.414,1.414-1.574,1.574h8.087v2h-8.152s1.638,1.639,1.638,1.639l-1.414,1.414-2.762-2.762c-.693-.695-.692-1.824,0-2.518Zm-3.325-.666c0-.996-.681-1.92-1.664-2.08-1.253-.204-2.336.758-2.336,1.973v14.899l-2.252-2.292c-.097-.097-.265-.222-.487-.367-.931-.519-2.157-.313-2.853.619-.667.894-.482,2.169.305,2.958l6.037,6.182h15.25v-10.808l-12-3.192V2.107Z"/>
</svg>
