<?xml version="1.0" encoding="UTF-8"?>
<svg xmlns="http://www.w3.org/2000/svg" id="Layer_1" data-name="Layer 1" viewBox="0 0 24 24">
  <path d="m21.449,16.024l-.461,5.238c-.137,1.561-1.422,2.737-2.988,2.737H5.82c-1.55,0-2.863-1.21-2.99-2.754l-.457-5.56c.637,1.365,2.023,2.313,3.627,2.313,1.193,0,2.267-.525,3-1.357.733.832,1.807,1.357,3,1.357s2.267-.525,3-1.357c.733.832,1.807,1.357,3,1.357,1.467,0,2.753-.794,3.449-1.976Zm-9.449-6.024c.827,0,1.5-.673,1.5-1.5,0-.635-.752-1.717-1.5-2.562-.748.845-1.5,1.927-1.5,2.562,0,.827.673,1.5,1.5,1.5ZM2.235,14L1.083,0h21.774l-1.231,14h-1.627c0,1.103-.897,2-2,2s-2-.897-2-2h-2c0,1.103-.897,2-2,2s-2-.897-2-2h-2c0,1.103-.897,2-2,2s-2-.897-2-2h-1.765Zm6.265-5.5c0,1.93,1.57,3.5,3.5,3.5s3.5-1.57,3.5-3.5c0-2-2.347-4.292-2.818-4.731l-.682-.637-.682.637c-.471.439-2.818,2.731-2.818,4.731Z"/>
</svg>
