<?xml version="1.0" encoding="UTF-8"?>
<svg xmlns="http://www.w3.org/2000/svg" id="Layer_1" data-name="Layer 1" viewBox="0 0 24 24" width="512" height="512"><path d="M8,11c-2.21,0-4-1.79-4-4v-3C4,1.79,5.79,0,8,0s4,1.79,4,4v3c0,2.21-1.79,4-4,4Zm0-9c-1.1,0-2,.9-2,2v3c0,1.1,.9,2,2,2s2-.9,2-2v-3c0-1.1-.9-2-2-2Zm8,22c-2.21,0-4-1.79-4-4v-3c0-2.21,1.79-4,4-4s4,1.79,4,4v3c0,2.21-1.79,4-4,4Zm0-9c-1.1,0-2,.9-2,2v3c0,1.1,.9,2,2,2s2-.9,2-2v-3c0-1.1-.9-2-2-2ZM19,0h-1.51l-3.51,3.6,1.43,1.4,1.58-1.63v7.63h2V0ZM9,13h-1.51l-3.51,3.6,1.43,1.4,1.58-1.63v7.63h2V13Z"/></svg>
