<?xml version="1.0" encoding="UTF-8"?>
<svg xmlns="http://www.w3.org/2000/svg" id="Layer_1" data-name="Layer 1" viewBox="0 0 24 24" width="512" height="512"><path d="M23.268,14.874l-4.41,4.41c-.475,.476-1.102,.733-1.76,.733-.117,0-.235-.009-.354-.025-.784-.109-1.455-.569-1.839-1.262l-1.926-3.467,6.268-6.268,3.467,1.926c.691,.384,1.151,1.054,1.261,1.838s-.148,1.555-.708,2.114ZM5.269,9.095l3.467,1.926,6.268-6.268-1.926-3.467c-.384-.692-1.055-1.152-1.839-1.262-.785-.109-1.555,.148-2.114,.708L4.716,5.143c-.56,.56-.818,1.33-.708,2.114s.57,1.454,1.261,1.838Zm13.3-2.259l-.234-1.17-1.17-.234-.005-.005-.003,.003h0l-7.036,7.036,1.414,1.414,7.039-7.039-.005-.005Zm-9.863,7.044l-4.508,4.508c-1.115-.529-2.485-.344-3.405,.576h0c-.567,.567-.879,1.32-.879,2.122s.312,1.555,.879,2.121c.585,.585,1.353,.877,2.121,.877s1.537-.292,2.122-.877c.566-.566,.878-1.32,.878-2.121,0-.454-.11-.888-.3-1.286l4.506-4.506-1.414-1.414Z"/></svg>
