<?xml version="1.0" encoding="UTF-8"?>
<svg xmlns="http://www.w3.org/2000/svg" id="Layer_1" data-name="Layer 1" viewBox="0 0 24 24">
  <path d="m24,5.5v1.5l-3.855,1.446c-.976,1.535-2.691,2.555-4.645,2.555-3.038,0-5.5-2.462-5.5-5.5S12.462,0,15.5,0c2.635,0,4.837,1.853,5.374,4.328l3.126,1.172Zm-10.5,11.5c-1.028,0-2.693.96-3.985,1.891.983.509,2.465,1.109,3.985,1.109.827,0,1.5-.673,1.5-1.5s-.673-1.5-1.5-1.5Zm7.152-6.054c1.148,1.546,2.347,3.74,2.347,5.755,0,4.741-3.815,7.3-7.406,7.3h-6.943c-3.213,0-5.916-1.373-7.417-3.766-1.597-2.548-1.634-5.962-.099-9.133l.71-1.465s1.874,3.364,3.156,3.364c1.033,0,3.093-1.478,4.604-2.869,1.374,1.746,3.506,2.869,5.896,2.869,1.993,0,3.807-.782,5.152-2.054Zm-3.652,7.554c0-1.93-1.57-3.5-3.5-3.5-2.547,0-6.014,2.909-6.4,3.241l-.961.824,1.023.744c.123.09,3.051,2.191,6.338,2.191,1.93,0,3.5-1.57,3.5-3.5Z"/>
</svg>
