<?xml version="1.0" encoding="UTF-8"?>
<svg xmlns="http://www.w3.org/2000/svg" id="Layer_1" data-name="Layer 1" viewBox="0 0 24 24">
  <path d="m22,7h-.062c-.448-3.623-3.327-7-8.438-7-2.005,0-4.136.489-6.013,1.612C5.988.909,3.957.248,1.313.004.394-.081-.451,1.127.273,1.699c1.595,1.262,2.663,2.671,3.381,3.943-1.024,1.888-1.653,4.308-1.653,7.358,0,2.437.613,4.705,1.078,6.075-1.822.904-3.078,2.786-3.078,4.953,4.173,0,5.5-2.776,5.5-2.776,0,0,1.378,2.776,5.5,2.776,0-2.303-1.417-4.287-3.425-5.114.205-1.708.852-3.547,1.748-4.847.809-1.173,1.868-1.904,2.98-2.365.487.851,1.04,2.155,1.697,3.797.987-1.974,1.451-3.4,1.634-4.484.156-.006.317-.016.467-.016h7.899v-2c0-1.103-.897-2-2-2Z"/>
</svg>
