<?xml version="1.0" encoding="UTF-8"?>
<svg xmlns="http://www.w3.org/2000/svg" id="Layer_1" data-name="Layer 1" viewBox="0 0 24 24" width="512" height="512"><path d="M24,0l-5,2.273c-1.973-1.424-4.386-2.273-7-2.273-2.529,0-4.874,.791-6.811,2.131L.5,0,1.625,5.998c-1.027,1.768-1.625,3.814-1.625,6.002,0,6.617,5.383,12,12,12s12-5.383,12-12c0-1.908-.459-3.706-1.255-5.309l1.255-6.691ZM6.602,7.201s2.798,2.106,2.845,2.144h0c.335,.276,.553,.688,.553,1.155,0,.828-.672,1.5-1.5,1.5s-1.5-.672-1.5-1.5c0-.154,.03-.299,.073-.439l-1.674-1.262,1.203-1.598Zm9.732,10.545c-.018-.016-2.003-1.746-4.334-1.746s-4.316,1.73-4.336,1.747l-1.33-1.493c.103-.092,2.559-2.254,5.666-2.254s5.563,2.162,5.666,2.254l-1.332,1.492Zm.593-7.685c.043,.14,.073,.285,.073,.439,0,.828-.672,1.5-1.5,1.5s-1.5-.672-1.5-1.5c0-.467,.218-.879,.553-1.154h0s0,0,0,0c.047-.038,2.845-2.144,2.845-2.144l1.203,1.598-1.674,1.262Z"/></svg>
