<?xml version="1.0" encoding="UTF-8"?>
<svg xmlns="http://www.w3.org/2000/svg" id="Layer_1" data-name="Layer 1" viewBox="0 0 24 24">
  <path d="m22.956,9.479l-3.479-3.479h0L14.52,1.042c-1.344-1.342-3.695-1.341-5.04.001l-4.956,4.956h0l-3.479,3.479c-1.39,1.39-1.39,3.651,0,5.041l3.479,3.479h0l4.957,4.958c.683.682,1.602,1.022,2.52,1.022s1.838-.341,2.521-1.024l4.956-4.956h0l3.479-3.479c1.39-1.39,1.39-3.651,0-5.041Zm-8.856-1.479v8h-1.6v-8h1.6Zm-8.335,8c-.516,0-.945-.295-.988-1l-.508-7h1.604l.319,4.402,1.577-3.468,1.577,3.469.319-4.402h1.604l-.508,7c-.043.705-.472,1-.988,1-.342,0-.66-.242-.841-.64l-1.164-2.56-1.164,2.56c-.181.398-.499.64-.841.64Zm11.835-3h-.5v3h-1.6v-8h2.1c1.381,0,2.5,1.119,2.5,2.5s-1.119,2.5-2.5,2.5Zm.9-2.5c0,.496-.404.9-.9.9h-.5v-1.8h.5c.496,0,.9.404.9.9Z"/>
</svg>
