<?xml version="1.0" encoding="UTF-8"?>
<svg xmlns="http://www.w3.org/2000/svg" id="Layer_1" data-name="Layer 1" viewBox="0 0 24 24" width="512" height="512"><path d="M23.999,1.797c.061,2.092-3.369,4.481-3.369,4.481,0,0-3.569-2.394-3.63-4.486C16.972,.802,17.732,0,18.698,0c.966,0,1.773,.804,1.802,1.795C20.471,.804,21.231,.002,22.197,.002s1.773,.804,1.802,1.794ZM5.197,17.002c-.966,0-1.726,.802-1.697,1.792-.029-.99-.835-1.794-1.802-1.795-.966,0-1.726,.802-1.697,1.792,.061,2.092,3.63,4.486,3.63,4.486,0,0,3.43-2.389,3.369-4.481-.029-.99-.835-1.794-1.802-1.794ZM22.915,7.033c.691,1.515,1.085,3.193,1.085,4.967,0,6.627-5.373,12-12,12-1.762,0-3.43-.389-4.938-1.072,1.037-1.127,1.982-2.596,1.936-4.19-.016-.556-.16-1.08-.391-1.555,.943,.441,2.105,.816,3.393,.816,3.107,0,5.563-2.162,5.666-2.254l-1.33-1.493c-.02,.018-2.005,1.748-4.336,1.748s-4.316-1.73-4.336-1.748l-.96,1.078c-.464-.207-.972-.328-1.505-.328-.623,0-1.22,.152-1.75,.438-.526-.281-1.122-.44-1.749-.441h-.003c-.434,0-.85,.088-1.245,.229-.287-1.029-.452-2.109-.452-3.229C0,5.373,5.373,0,12,0c1.12,0,2.2,.165,3.229,.452-.158,.441-.241,.911-.227,1.398,.084,2.896,3.477,5.393,4.515,6.089l1.135,.761,1.122-.781c.261-.182,.674-.486,1.141-.886Zm-11.915,3.967c0-1.892-1.232-4-3-4s-3,2.108-3,4h2c0-1.054,.68-2,1-2s1,.946,1,2h2Zm8,0c0-1.892-1.232-4-3-4s-3,2.108-3,4h2c0-1.054,.68-2,1-2s1,.946,1,2h2Z"/></svg>
