<?xml version="1.0" encoding="UTF-8"?>
<svg xmlns="http://www.w3.org/2000/svg" id="Layer_1" data-name="Layer 1" viewBox="0 0 24 24">
  <path d="m24,20v1c0,1.657-1.343,3-3,3H3c-1.657,0-3-1.343-3-3v-1h8.145l.846,1h6.023l.846-1h8.14ZM21.952,0h-5.904c-1.129,0-2.048.918-2.048,2.048v4.949h2.592l1.348,1.115c.292.26.659.388,1.021.388.354,0,.705-.123.977-.365l1.375-1.138h2.688V2.048c0-1.129-.918-2.048-2.048-2.048Zm.048,10v8h-7.068l-.846,1h-4.157l-.846-1H2V6h10v4c0,1.105.895,2,2,2s2-.895,2-2h6Zm-16,0c0,1.105.895,2,2,2s2-.895,2-2-.895-2-2-2-2,.895-2,2Zm11,4.5c0-.828-.672-1.5-1.5-1.5h-3c-.828,0-1.5.672-1.5,1.5,0-.828-.672-1.5-1.5-1.5h-3c-.828,0-1.5.672-1.5,1.5v1.5h12v-1.5Z"/>
</svg>
