<?xml version="1.0" encoding="UTF-8"?>
<svg xmlns="http://www.w3.org/2000/svg" id="Layer_1" data-name="Layer 1" viewBox="0 0 24 24">
  <path d="m15.379,10.119c2.368.558,4.328-1.342,4.328-1.342C19.416,2.818,18.082.013,15.571.005h-.014C12.973.005,11.718,2.815,11.035,6.171c-.015.072,1.119,3.188,4.344,3.948Zm8.621,5.455c-.813-2.055-2.38-3.593-4.258-4.422,0,0-1.588,1.463-4.742.93-3.534-.597-4.601-3.794-4.743-3.83-.21-.053-.439-.1-.691-.143-2.125-.359-4.273.132-6.035,1.383l.471,1.504c3.083-.715,4.638-.275,5.991,1.147-.206.594-.506,1.265-.925,1.954-.005-.005-.01-.01-.015-.015-.774,1.272-1.951,2.585-3.781,3.501-2.89,1.245-4.087,3.26-4.137,3.345l-.015.026H0v2h1.068l.216.222c.296.305,1.173.817,3.714.817,0,0,.002,0,.002,0,4.73,0,7.924-1.364,10.086-3.127-.273-3.998-1.693-4.388-2.742-4.666l-.422-.107.935-1.826c2.106.56,4.006,1.872,4.25,6.841l1.392.386c1.075-2.168,1.433-4.545.859-6.59,1.068.178,2.199.604,3.423,1.442l1.219-.775Z"/>
</svg>
