<?xml version="1.0" encoding="UTF-8"?>
<svg xmlns="http://www.w3.org/2000/svg" id="Layer_1" data-name="Layer 1" viewBox="0 0 24 24">
  <path d="m11.5,10.75c-.62,0-1.125-.505-1.125-1.125s.505-1.125,1.125-1.125,1.125.505,1.125,1.125-.505,1.125-1.125,1.125Zm12.5,1.25c0,6.617-5.383,12-12,12S0,18.617,0,12,5.383,0,12,0s12,5.383,12,12ZM6,7h-1.488l-2.516,2.777,1.482,1.342.521-.575v6.456h2V7Zm8.875,7.125c0-.958-.405-1.819-1.049-2.434.491-.552.799-1.271.799-2.066,0-1.723-1.402-3.125-3.125-3.125s-3.125,1.402-3.125,3.125c0,.795.308,1.514.799,2.066-.643.615-1.049,1.476-1.049,2.434,0,1.861,1.514,3.375,3.375,3.375s3.375-1.514,3.375-3.375Zm7.125-1.125v-2h-2v-2h-2v2h-2v2h2v2h2v-2h2Zm-10.5-.25c-.758,0-1.375.617-1.375,1.375s.617,1.375,1.375,1.375,1.375-.617,1.375-1.375-.617-1.375-1.375-1.375Z"/>
</svg>
