<?xml version="1.0" encoding="UTF-8"?>
<svg xmlns="http://www.w3.org/2000/svg" id="Layer_1" data-name="Layer 1" viewBox="0 0 24 24" width="512" height="512"><path d="M3,22.5c0,.828-.672,1.5-1.5,1.5s-1.5-.672-1.5-1.5,.672-1.5,1.5-1.5,1.5,.672,1.5,1.5Zm3-5.5c-1.105,0-2,.895-2,2s.895,2,2,2,2-.895,2-2-.895-2-2-2Zm9.845-1.42c.699,.279,1.422,.42,2.155,.42,3.309,0,6-2.691,6-6,0-2.733-1.823-5.069-4.416-5.772-.938-2.518-3.356-4.228-6.084-4.228-1.879,0-3.652,.819-4.88,2.223-.524-.147-1.067-.223-1.62-.223C3.691,2,1,4.691,1,8c0,3.242,2.585,5.892,5.802,5.997,1.062,1.845,3.032,3.003,5.198,3.003,1.426,0,2.767-.499,3.845-1.42Z"/></svg>
