<?xml version="1.0" encoding="UTF-8"?>
<svg xmlns="http://www.w3.org/2000/svg" id="Layer_1" data-name="Layer 1" viewBox="0 0 24 24">
  <path d="m20.5,3.516L3.586,20.484c2.258,2.268,5.262,3.516,8.457,3.516s6.198-1.248,8.457-3.516c4.658-4.679,4.658-12.29,0-16.968Zm-7.293,15.691l-1.414-1.414,6-6,1.414,1.414-6,6Zm-3.654-7.707c-.874-1.387-.708-3.241.5-4.449s3.054-1.373,4.44-.506l-4.939,4.955Zm-5.553,1.008s.353,1.39,1.678,3.044l-3.126,3.136c-.455-.325-.875-.665-1.235-1.026-1.589-1.597-1.737-4.099-.446-5.864-.578-1.436-.264-3.125.859-4.253.227-.227.479-.423.756-.587.013-1.173.477-2.309,1.31-3.144.831-.835,1.963-1.302,3.133-1.315.163-.277.357-.531.583-.757,1.129-1.132,2.818-1.448,4.251-.863.785-.579,1.696-.876,2.653-.876h0c1.203,0,2.335.471,3.185,1.325.361.362.699.783,1.023,1.24l-2.657,2.666c-.946-.769-2.153-1.231-3.467-1.231-3.038,0-5.5,2.462-5.5,5.5,0,.874.204,1.7.567,2.434-1.992-.048-3.567.574-3.567.574Z"/>
</svg>
