<?xml version="1.0" encoding="UTF-8"?>
<svg xmlns="http://www.w3.org/2000/svg" id="Layer_1" data-name="Layer 1" viewBox="0 0 24 24" width="512" height="512"><path d="M12,13c-4.01,0-7,1.58-7,3s2.99,3,7,3,7-1.58,7-3-2.99-3-7-3Zm0,4c-.83,0-1.5-.45-1.5-1s.67-1,1.5-1,1.5,.45,1.5,1-.67,1-1.5,1Zm9-9H3c-1.65,0-3,1.35-3,3v13H24V11c0-1.65-1.35-3-3-3Zm-9,13c-5.13,0-9-2.15-9-5s3.87-5,9-5,9,2.15,9,5-3.87,5-9,5ZM0,3.03v-.03C0,1.35,1.35,0,3,0H21c1.65,0,3,1.35,3,3v.03c-.84-.63-1.87-1.03-3-1.03H3c-1.13,0-2.16,.39-3,1.03ZM0,7.03v-.03c0-1.65,1.35-3,3-3H21c1.65,0,3,1.35,3,3v.03c-.84-.63-1.87-1.03-3-1.03H3c-1.13,0-2.16,.39-3,1.03Z"/></svg>
