<?xml version="1.0" encoding="UTF-8"?>
<svg xmlns="http://www.w3.org/2000/svg" id="Layer_1" data-name="Layer 1" viewBox="0 0 24 24" width="512" height="512"><path d="m0,12v-5h10v5H0Zm10-7V0H0v5h10Zm0,9v5c0,2.761-2.239,5-5,5S0,21.761,0,19v-5h10Zm-3.5,5c0-.828-.672-1.5-1.5-1.5s-1.5.672-1.5,1.5.672,1.5,1.5,1.5,1.5-.672,1.5-1.5Zm3.5-14V0H0v5h10Zm0,9v5c0,2.761-2.239,5-5,5S0,21.761,0,19v-5h10Zm-3.5,5c0-.828-.672-1.5-1.5-1.5s-1.5.672-1.5,1.5.672,1.5,1.5,1.5,1.5-.672,1.5-1.5Zm5.5,0c0,.024,0,.048,0,.072l9.971-9.971-7.071-7.071-2.899,2.899v14.071Zm-2.101,5h14.101v-10h-4.1l-10.001,10Z"/></svg>
