<?xml version="1.0" encoding="UTF-8"?>
<svg xmlns="http://www.w3.org/2000/svg" id="Layer_1" data-name="Layer 1" viewBox="0 0 24 24">
  <path d="m20,7.082v.019c-.033-.007-.03-.013,0-.019Zm-15-.082c-2.757,0-5,2.243-5,5V3C0,1.346,1.346,0,3,0h14c1.654,0,3,1.346,3,3v4H5Zm8-2h4v-2h-4v2Zm-10,0h8v-2H3v2Zm21,7v10h-7.862l-1.837,1.519c-.361.322-.824.484-1.292.484-.476,0-.955-.168-1.337-.507l-1.775-1.495H2v-10c0-1.654,1.346-3,3-3h16c1.654,0,3,1.346,3,3Zm-15,3h-2.163l-.588-2.251h-.486l-.588,2.251h-2.175v.462l1.66.924-.652,2.039.36.272,1.638-1.266,1.63,1.261.378-.262-.663-2.015,1.648-.955v-.458Zm7,0h-2.163l-.588-2.251h-.486l-.588,2.251h-2.175v.462l1.66.924-.652,2.039.36.272,1.638-1.266,1.63,1.261.378-.262-.663-2.015,1.648-.955v-.458Zm7,0h-2.163l-.588-2.251h-.486l-.588,2.251h-2.175v.462l1.66.924-.652,2.039.36.272,1.638-1.266,1.63,1.261.378-.262-.663-2.015,1.648-.955v-.458Z"/>
</svg>
