<?xml version="1.0" encoding="UTF-8"?>
<svg xmlns="http://www.w3.org/2000/svg" id="Layer_1" data-name="Layer 1" viewBox="0 0 24 24">
  <path d="m12.55,11.453c.874.874,2.08.598,3.145-.029,1.222-.718,2.905-1.65,3.942-1.604,1.056.046,2.034.513,2.971,1.45,1.856,1.857,1.856,4.867,0,6.724l-1.454,1.454c-4.587,4.587-13.939,6.513-18.525,1.926C-1.959,16.786-.043,7.433,4.544,2.845l1.454-1.454c1.857-1.857,4.867-1.857,6.723,0,.937.937,1.403,1.915,1.449,2.972.045,1.037-.886,2.721-1.604,3.943-.626,1.065-.89,2.274-.017,3.147Z"/>
</svg>
