<?xml version="1.0" encoding="UTF-8"?>
<svg xmlns="http://www.w3.org/2000/svg" id="Layer_1" data-name="Layer 1" viewBox="0 0 24 24">
  <path d="m7.78,19.45c.293.304.293.796,0,1.1l-2.78,2.95v-2.5h-2c-1.654,0-3-1.346-3-3v-4c0-1.654,1.346-3,3-3h4v2H3c-.551,0-1,.448-1,1v4c0,.552.449,1,1,1h2v-2.5l2.78,2.95Zm1.22-4.45h6v-6h-6v6Zm0-8h6V1h-6v6Zm0,16h6v-6h-6v6ZM22.5,7c0-.461-.07-.905-.199-1.324l1.397-.805-.998-1.733-1.4.806c-.606-.654-1.402-1.128-2.301-1.333v-1.612h-2v4.5h1c.828,0,1.5.672,1.5,1.5s-.672,1.5-1.5,1.5h-1v4.5h2v-1.612c.898-.205,1.695-.679,2.301-1.333l1.4.806.998-1.733-1.397-.805c.129-.419.199-.863.199-1.324Z"/>
</svg>
