<?xml version="1.0" encoding="UTF-8"?>
<svg xmlns="http://www.w3.org/2000/svg" id="Layer_1" data-name="Layer 1" viewBox="0 0 24 24">
  <path d="m4,20h18v4H4c-1.105,0-2-.895-2-2s.895-2,2-2ZM14,7c-.483,0-1,.263-1,1h-2c0-.737-.517-1-1-1-.551,0-1,.546-1,1.218,0,1.085,1.604,2.77,3,3.868,1.396-1.099,3-2.783,3-3.868,0-.672-.449-1.218-1-1.218Zm8-5v16H4c-.738-.001-1.451.271-2,.765V3c0-1.657,1.343-3,3-3h15c1.105,0,2,.895,2,2Zm-5,6.218c0-1.774-1.346-3.218-3-3.218-.782,0-1.477.27-2,.727-.523-.457-1.218-.727-2-.727-1.654,0-3,1.444-3,3.218,0,2.765,3.975,5.619,4.428,5.935l.572.399.572-.399c.453-.316,4.428-3.17,4.428-5.935Z"/>
</svg>
