<?xml version="1.0" encoding="UTF-8"?>
<svg xmlns="http://www.w3.org/2000/svg" id="Layer_1" data-name="Layer 1" viewBox="0 0 24 24">
  <path d="m24,12h-13v-6.2c0-.797.36-1.534.987-2.025L16.268.426c.725-.57,1.74-.571,2.466,0l4.279,3.349c.627.49.987,1.228.987,2.024v6.2Zm-5-6h-3v3h3v-3Zm-5.009,12c1.398,0,2.887-.578,3.874-1.535.733.927,1.855,1.535,3.126,1.535,1.153,0,2.25-.499,3.009-1.368l-1.506-1.316c-.38.436-.928.685-1.503.685-1.103,0-2-.897-2-2h-2c0,1.01-1.486,2-3,2-4.187,0-7-2.813-7-7,0-2.812,1.009-5.5,3.934-7.144l2.075-1.856h-3.509C4.075,0-.009,3.869-.009,9v4c1.257,0,2.479.368,3.537,1.046,2.289,1.466,6.725,3.954,10.463,3.954Zm7,4c-1.103,0-2-.897-2-2h-2c0,1.103-.897,2-2,2s-2-.897-2-2h-2c0,1.103-.897,2-2,2s-2-.897-2-2h-2c0,1.103-.897,2-2,2-.575,0-1.123-.249-1.503-.685L-.018,22.632c.76.869,1.857,1.368,3.009,1.368,1.2,0,2.266-.542,3-1.382.734.84,1.8,1.382,3,1.382s2.266-.542,3-1.382c.734.84,1.8,1.382,3,1.382s2.266-.542,3-1.382c.734.84,1.8,1.382,3,1.382,1.153,0,2.25-.499,3.009-1.368l-1.506-1.316c-.38.436-.928.685-1.503.685Z"/>
</svg>
