<?xml version="1.0" encoding="UTF-8"?>
<svg xmlns="http://www.w3.org/2000/svg" id="Layer_1" data-name="Layer 1" viewBox="0 0 24 24" width="512" height="512"><path d="M24,12.79v2.21h-2.33l-.45,3.39c-.2,1.49-1.47,2.61-2.97,2.61h-2.25v3H3v-4.71c0-.46-.16-.91-.46-1.26C.67,15.78-.22,12.92,.05,9.98,.5,4.95,4.46,.79,9.45,.11c4.03-.56,7.91,1.06,10.35,4.31,1.18,1.46,2.3,4.02,3.48,6.72l.72,1.65Zm-7-2.79h-2.14c-.09-.36-.24-.7-.42-1.02l.99-.99s.05,0,.08,0c.83,0,1.5-.67,1.5-1.5s-.67-1.5-1.5-1.5-1.5,.67-1.5,1.5c0,.03,0,.05,0,.08l-.99,.99c-.32-.19-.66-.33-1.02-.42v-2.14h-2v2.14c-.36,.09-.7,.24-1.02,.42l-.99-.99s0-.05,0-.08c0-.83-.67-1.5-1.5-1.5s-1.5,.67-1.5,1.5,.67,1.5,1.5,1.5c.03,0,.05,0,.08,0l.99,.99c-.19,.32-.33,.66-.42,1.02h-2.14v2h2.14c.09,.36,.24,.7,.42,1.02l-.99,.99s-.05,0-.08,0c-.83,0-1.5,.67-1.5,1.5s.67,1.5,1.5,1.5,1.5-.67,1.5-1.5c0-.03,0-.05,0-.08l.99-.99c.32,.19,.66,.33,1.02,.42v2.14h2v-2.14c.36-.09,.7-.24,1.02-.42l.99,.99s0,.05,0,.08c0,.83,.67,1.5,1.5,1.5s1.5-.67,1.5-1.5-.67-1.5-1.5-1.5c-.03,0-.05,0-.08,0l-.99-.99c.19-.32,.33-.66,.42-1.02h2.14v-2Zm-6,3c1.1,0,2-.9,2-2s-.9-2-2-2-2,.9-2,2,.9,2,2,2Z"/></svg>
