<?xml version="1.0" encoding="UTF-8"?>
<svg xmlns="http://www.w3.org/2000/svg" id="Layer_1" data-name="Layer 1" viewBox="0 0 24 24">
  <path d="m24,8c0-2.375-1.971-8-5.078-8-3.062,0-4.922,5.557-4.922,8,0,2.414,1.721,4.434,4,4.899v11.101h2v-11.101c2.279-.465,4-2.484,4-4.899Zm-8,6.323c-2.391-1.14-4-3.585-4-6.323,0-1.283.423-3.438,1.327-5.421-1.042-.368-2.159-.579-3.327-.579C4.477,2,0,6.477,0,12s4.477,10,10,10c2.254,0,4.327-.755,6-2.014v-5.663Zm-5-1.909l-3.293,3.293-1.414-1.414,2.707-2.707v-4.586h2v5.414Z"/>
</svg>
