<?xml version="1.0" encoding="UTF-8"?>
<svg xmlns="http://www.w3.org/2000/svg" id="Layer_1" data-name="Layer 1" viewBox="0 0 24 24">
  <path d="m24,0h-2c0,1.654-1.346,3-3,3H5c-1.654,0-3-1.346-3-3H0c0,2.609,2.009,4.758,4.562,4.981l-2.337,6.196c-.664,1.895.19,4.001,1.986,4.899l1.928.683,1.552,7.241h8.617l1.552-7.241,1.811-.633.117-.05c1.796-.898,2.65-3.005,1.979-4.922l-2.328-6.174c2.552-.223,4.562-2.371,4.562-4.981Zm-15.5,12c-.828,0-1.5-.672-1.5-1.5s.672-1.5,1.5-1.5,1.5.672,1.5,1.5-.672,1.5-1.5,1.5Zm7,0c-.828,0-1.5-.672-1.5-1.5s.672-1.5,1.5-1.5,1.5.672,1.5,1.5-.672,1.5-1.5,1.5Z"/>
</svg>
