<?xml version="1.0" encoding="UTF-8"?>
<svg xmlns="http://www.w3.org/2000/svg" id="Layer_1" data-name="Layer 1" viewBox="0 0 24 24" width="512" height="512"><path d="M11,3V11H0V3C0,1.35,1.35,0,3,0h5c1.65,0,3,1.35,3,3Zm10,10h-5c-1.65,0-3,1.35-3,3v8h11v-8c0-1.65-1.35-3-3-3Zm-4.12-3.29l1.41-1.41-2.29-2.29h3c1.1,0,2,.9,2,2v3h2v-3c0-2.21-1.79-4-4-4h-3l2.29-2.29-1.41-1.41-3.29,3.29c-.78,.78-.78,2.05,0,2.83l3.29,3.29ZM7.12,14.29l-1.41,1.41,2.29,2.29h-3c-1.1,0-2-.9-2-2v-3H1v3c0,2.21,1.79,4,4,4h3l-2.29,2.29,1.41,1.41,3.29-3.29c.78-.78,.78-2.05,0-2.83l-3.29-3.29Z"/></svg>
