<?xml version="1.0" encoding="UTF-8"?>
<svg xmlns="http://www.w3.org/2000/svg" id="Layer_1" data-name="Layer 1" viewBox="0 0 24 24" width="512" height="512"><path d="M22.12,2.9c-1.2-1.25-2.8-1.9-4.66-1.9h0c-2.25,.05-4.36,1.33-5.46,3.29-1.11-1.96-3.21-3.25-5.48-3.29-1.84,0-3.44,.66-4.64,1.91C.61,4.22-.07,6.09,0,8.01c0,6.63,10.25,14.13,11.42,14.96l.58,.41,.58-.41c.47-.33,11.42-8.16,11.42-14.89,.07-1.98-.61-3.87-1.88-5.18ZM13,20.16V8c0-1.62,.75-2.73,.75-2.73,.76-1.37,2.19-2.23,3.73-2.27,1.28,0,2.38,.45,3.19,1.29,.89,.93,1.37,2.28,1.32,3.76,0,3.76-4.92,8.89-9,12.11Z"/></svg>
