<?xml version="1.0" encoding="UTF-8"?>
<svg xmlns="http://www.w3.org/2000/svg" id="Layer_1" data-name="Layer 1" viewBox="0 0 24 24" width="512" height="512"><path d="m15.988,11.054v1.893c0,.766-.199,1.475-.548,2.08l-1.733-1.733-1.414,1.414,1.742,1.742c-.593.351-1.287.551-2.035.551-2.212,0-4.012-1.818-4.012-4.054v-1.893c0-2.235,1.8-4.054,4.012-4.054,2.236,0,3.988,1.781,3.988,4.054ZM24,3v21H0V3C0,1.346,1.346,0,3,0h18c1.654,0,3,1.346,3,3Zm-5.293,15.293l-1.833-1.833c.701-.991,1.115-2.204,1.115-3.513v-1.893c0-3.338-2.687-6.054-5.988-6.054s-6.012,2.716-6.012,6.054v1.893c0,3.338,2.697,6.054,6.012,6.054,1.291,0,2.487-.415,3.466-1.12l1.827,1.827,1.414-1.414Z"/></svg>
