<?xml version="1.0" encoding="UTF-8"?>
<svg xmlns="http://www.w3.org/2000/svg" id="Layer_1" data-name="Layer 1" viewBox="0 0 24 24">
  <path d="m8,12h1.071l1.939,1.939c.586.586,1.536.586,2.121,0l1.939-1.939h.929c1.105,0,2-.895,2-2V2c0-1.105-.895-2-2-2h-8c-1.105,0-2,.895-2,2v8c0,1.105.895,2,2,2Zm3-10h2v2h-2v-2Zm0,3h2v5h-2v-5Zm13-.951v16.834l-12,2.182L0,20.883V4.049c0-.892.393-1.731,1.078-2.303.684-.571,1.577-.81,2.458-.648l.542.131c-.049.25-.078.507-.078.772v8c0,2.206,1.794,4,4,4h.243l1.354,1.354c.406.405.891.675,1.403.839v4.656l1,.182,1-.182v-4.614c.565-.155,1.103-.439,1.546-.882l1.354-1.354h.101c2.206,0,4-1.794,4-4V2c0-.265-.029-.523-.078-.773l.484-.118c.937-.171,1.83.064,2.516.636.686.572,1.078,1.411,1.078,2.303Z"/>
</svg>
