<?xml version="1.0" encoding="UTF-8"?>
<svg xmlns="http://www.w3.org/2000/svg" id="Layer_1" data-name="Layer 1" viewBox="0 0 24 24">
  <path d="m6.049,14H1.046c-.03-.329-.046-.663-.046-1,0-4.689,2.934-8.692,7.066-10.275.134.726.464,1.385.934,1.917v.258c-1.435,1.956-3,4.836-3,8.1,0,.338.018.671.049,1Zm3.203-4.807l-1.414,1.414,2.852,2.853c.361.36.836.54,1.311.54s.949-.18,1.312-.541l2.851-2.852-1.414-1.414-1.748,1.749V3.732c.598-.346,1-.992,1-1.732,0-1.105-.895-2-2-2s-2,.895-2,2c0,.74.402,1.386,1,1.732v7.21l-1.748-1.749Zm-2.826,6.807H1.414c1.272,4.497,5.332,7.822,10.195,7.992l-.276-.247c-.179-.161-3.674-3.337-4.907-7.745Zm6.241,7.745l-.276.247c4.863-.17,8.923-3.495,10.195-7.992h-5.012c-1.233,4.408-4.727,7.584-4.907,7.745Zm-4.145-7.745c.852,2.518,2.54,4.574,3.478,5.582.939-1.008,2.627-3.064,3.478-5.582h-6.956ZM15.934,2.725c-.134.726-.464,1.385-.934,1.917v.258c1.435,1.956,3,4.836,3,8.1,0,.338-.018.671-.049,1h5.003c.03-.329.046-.663.046-1,0-4.689-2.934-8.692-7.066-10.275Z"/>
</svg>
