<?xml version="1.0" encoding="UTF-8"?>
<svg xmlns="http://www.w3.org/2000/svg" id="Layer_1" data-name="Layer 1" viewBox="0 0 24 24" width="512" height="512"><path d="M21.94,20.52c.03-.17,.06-.34,.06-.52v-4.16c-1.02,.75-2.25,1.16-3.54,1.16h-.04l-2.78-2.78c.66,.49,1.48,.78,2.37,.78h.46c1.18,0,2.29-.52,3.05-1.41s1.09-2.08,.89-3.24l-1.56-9.34h-3.85V6h-1.98V1h-6.02V6h-1.59l-.39-.39V1H3.15l-.11,.63L1.46,.04,.04,1.46l2.6,2.6L13.33,14.75l1.52,1.52,6.04,6.04,1.65,1.65,1.41-1.41-2.02-2.02Z"/><path d="M12,17c-1.06,0-2.1-.28-3-.81-.9,.52-1.94,.81-3,.81h-.46c-1.29,0-2.52-.42-3.54-1.16v4.16c0,1.65,1.35,3,3,3h13.76l-6.05-6.05c-.23,.03-.47,.05-.71,.05Z"/><path d="M5.54,15h.46c1.19,0,2.27-.53,3-1.36v-.4L2.24,6.48l-.64,3.86c-.19,1.16,.13,2.34,.89,3.24s1.87,1.41,3.05,1.41Z"/></svg>
