<?xml version="1.0" encoding="UTF-8"?>
<svg xmlns="http://www.w3.org/2000/svg" id="Layer_1" data-name="Layer 1" viewBox="0 0 24 24">
  <path d="m23.451,18.674c.731.731.731,1.92,0,2.651l-2.659,2.659-1.414-1.414,1.571-1.571h-2.948v-2h2.948l-1.571-1.571,1.414-1.414,2.659,2.659ZM3.208,7.985l1.414-1.414-1.571-1.571h2.948v-2h-2.948l1.571-1.571L3.208.015.549,2.674c-.731.731-.731,1.92,0,2.651l2.659,2.659Zm13.997-1.235c0-.524-.426-.95-.95-.95h-1.908v1.9h1.908c.523,0,.95-.426.95-.95Zm.187,3.5c0-.524-.426-.95-.95-.95h-2.095v1.9h2.095c.524,0,.95-.426.95-.95Zm-10.393-1.75C7,3.813,10.813,0,15.5,0s8.5,3.813,8.5,8.5-3.813,8.5-8.5,8.5-8.5-3.813-8.5-8.5Zm5.748,4.3h1.952v1.2h1.6v-1.2h.143c1.406,0,2.55-1.144,2.55-2.55,0-.727-.306-1.384-.795-1.849.379-.445.608-1.022.608-1.651,0-1.391-1.12-2.521-2.505-2.545v-1.205h-1.6v1.2h-1.952v8.6Zm-7.748-4.3c0-.115.014-.227.017-.341C2.068,9.416,0,12.341,0,15.75c0,4.556,3.694,8.25,8.25,8.25,3.409,0,6.334-2.068,7.591-5.017-.114.004-.226.017-.341.017-5.799,0-10.5-4.701-10.5-10.5Z"/>
</svg>
