<?xml version="1.0" encoding="UTF-8"?>
<svg xmlns="http://www.w3.org/2000/svg" id="Layer_1" data-name="Layer 1" viewBox="0 0 24 24" width="512" height="512"><path d="m9,21v3H0v-5c0-2.749,2.232-4.986,4.979-4.998v4.275c-.595.346-1,.984-1,1.723,0,1.105.895,2,2,2s2-.895,2-2c0-.738-.405-1.376-1-1.723v-4.277h4.021v4.184c-1.161.414-2,1.514-2,2.816Zm5-7h-1v4.184c1.161.414,2,1.514,2,2.816v3h4v-5c0-2.757-2.243-5-5-5Zm-2,6c-.552,0-1,.448-1,1v3h2v-3c0-.552-.448-1-1-1Zm12-15c0-2.757-2.243-5-5-5s-5,2.243-5,5v5h5c2.757,0,5-2.243,5-5Zm-12,0c0-1.279.35-2.474.952-3.507-1.056-.927-2.436-1.493-3.952-1.493C5.686,0,3,2.686,3,6s2.686,6,6,6c1.094,0,2.117-.298,3-.809v-6.191Z"/></svg>
