<?xml version="1.0" encoding="UTF-8"?>
<svg xmlns="http://www.w3.org/2000/svg" id="Layer_1" data-name="Layer 1" viewBox="0 0 24 24">
  <path d="m13.393,11.979l10.564,10.564-1.414,1.414L.043,1.457,1.457.043l10.521,10.521.742-.742c-.527-.872-1.764-3.03-1.764-4.117,0-1.381,2.5-4.705,2.5-4.705,0,0,2.5,3.324,2.5,4.705,0,.37-.075.725-.187,1.068l1.188-1.188c0-1.21.137-2.892.838-3.593,1.151-1.151,6.161-1.992,6.161-1.992,0,0-.841,5.01-1.992,6.161-.701.701-2.384.838-3.593.838l-1.188,1.188c.342-.112.698-.187,1.068-.187,1.381,0,4.705,2.5,4.705,2.5,0,0-3.324,2.5-4.705,2.5-1.087,0-3.245-1.236-4.117-1.764l-.742.742Zm-7.436-1.273c0,1.087,1.236,3.245,1.764,4.117l-1.951,1.951c.112-.342.187-.698.187-1.068,0-1.381-2.5-4.705-2.5-4.705,0,0-2.5,3.324-2.5,4.705,0,1.087,1.236,3.245,1.764,4.117l-2.721,2.721,1.414,1.414,2.721-2.721c.872.528,3.03,1.764,4.117,1.764,1.381,0,4.705-2.5,4.705-2.5,0,0-3.324-2.5-4.705-2.5-.37,0-.725.075-1.068.187l1.951-1.951c.872.528,3.03,1.764,4.117,1.764.128,0,.277-.027.434-.066l-7.663-7.663c-.039.157-.066.306-.066.434Z"/>
</svg>
