<?xml version="1.0" encoding="UTF-8"?>
<svg xmlns="http://www.w3.org/2000/svg" id="Layer_1" data-name="Layer 1" viewBox="0 0 24 24" width="512" height="512"><path d="m12.059,9.419l2.586,2.586-2.586,2.586-2.586-2.586,2.586-2.586Zm11.993,2.581c0,6.617-5.383,12-12,12S.051,18.617.051,12,5.434,0,12.051,0s12,5.383,12,12Zm-6.578.005l2.293-2.293-1.414-1.414-2.293,2.293-2.586-2.586,2.293-2.293-1.414-1.414-2.293,2.293-2.293-2.293-1.414,1.414,2.293,2.293-2.586,2.586-2.293-2.293-1.414,1.414,2.293,2.293-2.293,2.293,1.414,1.414,2.293-2.293,2.586,2.586-2.293,2.293,1.414,1.414,2.293-2.293,2.293,2.293,1.414-1.414-2.293-2.293,2.586-2.586,2.293,2.293,1.414-1.414-2.293-2.293Z"/></svg>
