<?xml version="1.0" encoding="UTF-8"?>
<svg xmlns="http://www.w3.org/2000/svg" id="Layer_1" data-name="Layer 1" viewBox="0 0 24 24">
  <path d="m14.828,13.414l-3,3,2.379,2.379-1.414,1.414-.852-.852-1.439,1.439c-.804.803-1.858,1.204-2.913,1.204s-2.109-.401-2.912-1.204l-.028-.028-3.185,3.185L.05,22.536l3.185-3.185-.028-.028c-1.605-1.605-1.605-4.219,0-5.825l1.439-1.439-.852-.852,1.414-1.414,2.379,2.379,3-3,1.414,1.414-3,3,1.414,1.414,3-3,1.414,1.414Zm5.938-8.766l3.191-3.191L22.543.043l-3.191,3.191-.028-.028c-1.605-1.605-4.218-1.605-5.825,0l-1.439,1.439-.852-.852-1.414,1.414,9,9,1.414-1.414-.852-.852,1.439-1.439c1.605-1.606,1.605-4.22,0-5.825l-.028-.028Z"/>
</svg>
