<?xml version="1.0" encoding="UTF-8"?>
<svg xmlns="http://www.w3.org/2000/svg" id="Layer_1" data-name="Layer 1" viewBox="0 0 24 24">
  <path d="m7.5,10H2.5c-1.378,0-2.5,1.122-2.5,2.5v11.5h10v-11.5c0-1.378-1.122-2.5-2.5-2.5Zm-3.5,12h-2v-2h2v2Zm0-4h-2v-2h2v2Zm4,4h-2v-2h2v2Zm0-4h-2v-2h2v2Zm0-4H2v-2h6v2ZM21,0h-11.76c.48.716.76,1.576.76,2.5v1.5h14v-1c0-1.657-1.343-3-3-3Zm-13,2.5C8,1.034,6.739-.137,5.242.013c-1.301.13-2.242,1.322-2.242,2.63v5.357h5c2.209,0,4,1.791,4,4v12h5c2.209,0,4-1.791,4-4V6h-13v-3.5Z"/>
</svg>
