<?xml version="1.0" encoding="UTF-8"?>
<svg xmlns="http://www.w3.org/2000/svg" id="Layer_1" data-name="Layer 1" viewBox="0 0 24 24" width="512" height="512"><path d="m9.007,11.323l5.233,5.247-2.507,2.523c-2.182,2.191-5.519,3.757-9.02,3.896-.209.008-2.713.011-2.713.011,0-1.695.672-3.32,1.869-4.52l7.138-7.157Zm10.258-.379c-.683.695-1.046,1.616-1.024,2.593.02.843.327,1.629.872,2.248l.324.326-1.393,1.435c-.114-.106-7.83-7.85-7.83-7.85l7.605-7.631c1.366-1.372,3.753-1.373,5.121,0,1.409,1.414,1.409,3.716,0,5.13l-3.676,3.748Zm.735-4.444c.828,0,1.5-.672,1.5-1.5s-.672-1.5-1.5-1.5-1.5.672-1.5,1.5.672,1.5,1.5,1.5Z"/></svg>
