<?xml version="1.0" encoding="UTF-8"?>
<svg xmlns="http://www.w3.org/2000/svg" id="Layer_1" data-name="Layer 1" viewBox="0 0 24 24">
  <path d="m.038,17.071c-.182-3.674,1.69-8.13,5.297-11.736C7.938,2.731,11.057.933,14.113.272,15.127.053,16.098-.034,17.01.006c.312.165.595.372.838.615,2.535,2.536.732,8.622-3.936,13.291-4.668,4.667-10.753,6.472-13.291,3.936-.228-.228-.424-.489-.583-.776ZM21.952,2.048c-.454-.454-.965-.834-1.526-1.139,1.668,3.737-.293,9.61-5.1,14.418-2.611,2.612-5.672,4.484-8.616,5.272-1.013.271-1.977.405-2.874.405-1.076,0-2.056-.193-2.914-.572.299.557.673,1.068,1.126,1.521,1.352,1.352,3.213,2.051,5.381,2.051.782,0,1.605-.091,2.458-.276,3.057-.661,6.175-2.458,8.778-5.062,5.487-5.488,6.962-12.942,3.287-16.617Z"/>
</svg>
