<?xml version="1.0" encoding="UTF-8"?>
<svg xmlns="http://www.w3.org/2000/svg" id="Layer_1" data-name="Layer 1" viewBox="0 0 24 24">
  <path d="m18,18h2v3.5c0,1.379-1.122,2.5-2.5,2.5h-7.5c-1.654,0-3-1.346-3-3v-9h10v9.5c0,.275.224.5.5.5s.5-.225.5-.5v-3.5ZM7.781,9.375l-2.239-2.798c.285-.459.458-.996.458-1.577,0-1.657-1.343-3-3-3S0,3.343,0,5s1.343,3,3,3c.344,0,.67-.07.978-.177l2.241,2.802,1.562-1.25Zm3.219-3.559v4.184h2v-4.184c1.163-.413,2-1.512,2-2.816,0-1.657-1.343-3-3-3s-3,1.343-3,3c0,1.304.837,2.403,2,2.816Zm10-3.816c-1.657,0-3,1.343-3,3,0,.581.172,1.118.458,1.577l-2.239,2.798,1.562,1.25,2.241-2.802c.308.107.633.177.978.177,1.657,0,3-1.343,3-3s-1.343-3-3-3Z"/>
</svg>
