<?xml version="1.0" encoding="UTF-8"?>
<svg xmlns="http://www.w3.org/2000/svg" id="Layer_1" data-name="Layer 1" viewBox="0 0 24 24">
  <path d="m21,0H3C1.346,0,0,1.346,0,3v4h24V3c0-1.654-1.346-3-3-3ZM3.5,5c-.828,0-1.5-.672-1.5-1.5s.672-1.5,1.5-1.5,1.5.672,1.5,1.5-.672,1.5-1.5,1.5Zm4,0c-.828,0-1.5-.672-1.5-1.5s.672-1.5,1.5-1.5,1.5.672,1.5,1.5-.672,1.5-1.5,1.5Zm5.737,5.359l5.763,3.641v8h-2v-6.736l-3.763,2.378c-.757.478-1.717.478-2.473,0l-5.763-3.641,5.763-3.641c.757-.478,1.717-.478,2.473,0Zm1.068,8.974l1.695-1.071v4.284s-1.143,1.455-4,1.455-4-1.455-4-1.455v-4.284l1.696,1.072c.7.441,1.502.662,2.304.662s1.604-.221,2.305-.663ZM3,15.102l3,1.896v5.002H0v-13h9.169l-6.169,3.898v2.204Zm21-6.102v13h-3v-9.103l-6.169-3.897h9.169Z"/>
</svg>
