<?xml version="1.0" encoding="UTF-8"?>
<svg xmlns="http://www.w3.org/2000/svg" id="Layer_1" data-name="Layer 1" viewBox="0 0 24 24">
  <path d="m12,0C5.373,0,0,5.373,0,12s5.373,12,12,12,12-5.373,12-12S18.627,0,12,0Zm4.25,7.981c.69,0,1.25.56,1.25,1.25s-.56,1.25-1.25,1.25-1.25-.56-1.25-1.25.56-1.25,1.25-1.25Zm-8.25,6.42v1.6H3v-1c0-1.808,3.39-2.596,3.39-4.5h.01c0-.496-.404-.9-.9-.9s-.9.404-.9.9v.5h-1.6v-.533h.003c.018-1.365,1.127-2.467,2.497-2.467,1.381,0,2.5,1.119,2.5,2.5h-.021c0,2.058-2.018,3.269-2.708,3.9h2.729Zm3.5,1.6h-2.5v-1.6h2.5c.496,0,.9-.404.9-.9s-.404-.9-.9-.9h-2.5v-4.6h4.5v1.6h-2.9v1.4h.9c1.381,0,2.5,1.119,2.5,2.5s-1.119,2.5-2.5,2.5Zm3.367-.019l5.222-8h1.911l-5.222,8h-1.911Zm5.883,0c-.69,0-1.25-.56-1.25-1.25s.56-1.25,1.25-1.25,1.25.56,1.25,1.25-.56,1.25-1.25,1.25Z"/>
</svg>
