<?xml version="1.0" encoding="UTF-8"?>
<svg xmlns="http://www.w3.org/2000/svg" id="Layer_1" data-name="Layer 1" viewBox="0 0 24 24">
  <path d="m22,12h2c0,6.617-5.383,12-12,12-4.055,0-7.794-2.058-9.995-5.368l-.005,2.368H0v-3.991c0-1.107.901-2.009,2.008-2.009h3.992v2h-2.637c1.776,3.06,5.052,5,8.637,5,5.514,0,10-4.486,10-10Zm0-9l-.005,2.353C19.806,2.04,16.106,0,12,0,5.383,0,0,5.383,0,12h2C2,6.486,6.486,2,12,2c3.64,0,6.9,1.921,8.666,5h-2.666v2h3.991c1.107,0,2.009-.901,2.009-2.009v-3.991h-2Zm-5,14H7v-7.5c0-1.379,1.122-2.5,2.5-2.5h5c1.379,0,2.5,1.121,2.5,2.5v7.5Zm-3.5-8h-3v2h3v-2Z"/>
</svg>
