<?xml version="1.0" encoding="UTF-8"?>
<svg xmlns="http://www.w3.org/2000/svg" id="Layer_1" data-name="Layer 1" viewBox="0 0 24 24">
  <path d="m10.615,4.727c-.337.169-.712.273-1.115.273-1.381,0-2.5-1.119-2.5-2.5s1.119-2.5,2.5-2.5c.402,0,.777.104,1.114.273-.38.659-.614,1.413-.614,2.227s.234,1.568.615,2.227Zm8.885.273c1.381,0,2.5-1.119,2.5-2.5s-1.119-2.5-2.5-2.5-2.5,1.119-2.5,2.5,1.119,2.5,2.5,2.5Zm-4.5-2.5c0-.814.234-1.568.614-2.227-.337-.169-.711-.273-1.114-.273-1.381,0-2.5,1.119-2.5,2.5s1.119,2.5,2.5,2.5c.403,0,.778-.104,1.115-.273-.381-.659-.615-1.412-.615-2.227Zm-10,0c0-.814.234-1.568.614-2.227-.337-.169-.711-.273-1.114-.273-1.381,0-2.5,1.119-2.5,2.5s1.119,2.5,2.5,2.5c.403,0,.778-.104,1.115-.273-.381-.659-.615-1.412-.615-2.227Zm16,3.5h-3c-1.654,0-3,1.346-3,3v8h2v7h2v-7h1v7h2v-7h2v-8c0-1.654-1.346-3-3-3Zm-11,3v7h1v7h2v-15c.026-.795.538-1.513,1.026-2h-1.026c-1.654,0-3,1.346-3,3Zm-10,0v5h1v5h2v-11c.026-.795.487-1.513,1.026-2h-1.026c-1.654,0-3,1.346-3,3Zm5,0v6h1v6h2v-13c.026-.718.513-1.513,1.026-2h-1.026c-1.654,0-3,1.346-3,3Z"/>
</svg>
