<?xml version="1.0" encoding="UTF-8"?>
<svg xmlns="http://www.w3.org/2000/svg" id="Layer_1" data-name="Layer 1" viewBox="0 0 24 24">
  <path d="m18.802,12.819c.266-.521.266-1.118,0-1.639l-.002-.003c-.454-.882-2.939-4.178-6.8-4.178s-6.346,3.296-6.798,4.175c-.269.518-.269,1.134-.002,1.647.454.883,2.938,4.178,6.8,4.178s6.346-3.296,6.802-4.181Zm-6.802,1.181c-1.105,0-2-.895-2-2s.895-2,2-2,2,.895,2,2-.895,2-2,2ZM3.578,4.992L.048,1.462,1.462.048l3.544,3.544-.006-2.592h2v4c0,1.097-.892,1.988-1.988,1.988l-4.009.012-.006-2,2.581-.008Zm13.433.019l-.012-4.009,2-.006.008,2.581L22.538.048l1.414,1.414-3.544,3.544,2.592-.006v2h-4c-1.097,0-1.988-.892-1.988-1.988Zm-10.012,13.988v4h-2v-2.586l-3.538,3.538L.048,22.538l3.538-3.538H.997l.006-2,4.012.012c1.094,0,1.985.892,1.985,1.988Zm13.414,0l3.538,3.538-1.414,1.414-3.538-3.538v2.589l-2-.006.012-4.012c0-1.094.892-1.985,1.988-1.985h4v2h-2.586Z"/>
</svg>
