<?xml version="1.0" encoding="UTF-8"?>
<svg xmlns="http://www.w3.org/2000/svg" id="Layer_1" data-name="Layer 1" viewBox="0 0 24 24" width="512" height="512"><path d="M23.272,13.942c-.571,.672-1.404,1.058-2.286,1.058h-5.486l-.88,4h1.379v-2h2v6h-2v-2h-1.821l-.146,.662c-.301,1.363-1.533,2.338-2.929,2.338h-1.104v-3h-2v-2h2v-4H4.346l-1.081,1.646c-.556,.848-1.224,1.354-2.239,1.354H0V6H1.014c1.01,0,1.676,.502,2.232,1.344l1.097,1.656h5.657V5h-2V3h2V0h1.115c1.408,0,2.613,.982,2.918,2.369l.139,.631h1.828V1h2V7h-2v-2h-1.386l.886,4.013,5.377-.013c1.519,0,2.837,1.076,3.069,2.504,.143,.878-.103,1.768-.674,2.438Z"/></svg>
