<?xml version="1.0" encoding="UTF-8"?>
<svg xmlns="http://www.w3.org/2000/svg" id="Layer_1" data-name="Layer 1" viewBox="0 0 24 24">
  <path d="m20.499,14.864l-.766,6.487c-.179,1.51-1.459,2.648-2.979,2.648H7.323c-1.52,0-2.801-1.139-2.979-2.648l-.634-5.371c1.227-.825,3.387-1.981,4.79-1.981.808,0,1.987.472,3.128.929,1.317.526,2.679,1.071,3.872,1.071,1.866,0,3.642-.551,4.999-1.136Zm-5.954-9.864l.376-3h5.117V0h-6.883l-.627,5H1.038v2h1.611l.802,6.793c1.396-.836,3.371-1.793,5.049-1.793,1.192,0,2.554.545,3.872,1.071,1.141.457,2.321.929,3.128.929,2.095,0,4.17-.89,5.273-1.456l.654-5.544h1.611v-2h-8.493Z"/>
</svg>
