<?xml version="1.0" encoding="UTF-8"?>
<svg xmlns="http://www.w3.org/2000/svg" id="Layer_1" data-name="Layer 1" viewBox="0 0 24 24" width="512" height="512"><path d="m12.258,21.328c-.787-1.075-1.258-2.396-1.258-3.828,0-3.584,2.916-6.5,6.5-6.5,1.432,0,2.752.471,3.828,1.258l-9.069,9.069Zm1.414,1.414c1.075.787,2.396,1.258,3.828,1.258,3.584,0,6.5-2.916,6.5-6.5,0-1.432-.471-2.752-1.258-3.828l-9.069,9.069ZM22,3c0-1.654-1.346-3-3-3H3C1.346,0,0,1.346,0,3v2h22v-2Zm-13,14.5c0-4.694,3.806-8.5,8.5-8.5.87,0,1.709.132,2.5.375v-2.375H2v3h4v2H2v2h4v2H2v2h4v2H2v1c0,1.654,1.346,3,3,3h7.028c-1.85-1.559-3.028-3.891-3.028-6.5Z"/></svg>
