<?xml version="1.0" encoding="UTF-8"?>
<svg xmlns="http://www.w3.org/2000/svg" id="Layer_1" data-name="Layer 1" viewBox="0 0 24 24" width="512" height="512"><path d="M6,4.5c0,1.381-1.119,2.5-2.5,2.5S1,5.881,1,4.5C1,2.462,3.5,0,3.5,0,3.5,0,6,2.513,6,4.5Zm18,7.5c0,6.617-5.383,12-12,12S0,18.617,0,12c0-1.406,.255-2.75,.702-4.004H.702c.771,.618,1.736,1.004,2.798,1.004,2.481,0,4.5-2.019,4.5-4.5,0-1.172-.492-2.352-1.089-3.352,0,0,0,0,0,0,1.547-.729,3.268-1.148,5.089-1.148,6.617,0,12,5.383,12,12Zm-18,1h4v-2H6v2Zm9.598,4.198c-.066-.049-1.632-1.198-3.598-1.198s-3.531,1.149-3.598,1.198l1.191,1.606c.011-.008,1.117-.805,2.406-.805s2.396,.797,2.402,.802l1.195-1.604Zm2.402-6.198h-4v2h4v-2Z"/></svg>
