<?xml version="1.0" encoding="UTF-8"?>
<svg xmlns="http://www.w3.org/2000/svg" id="Layer_1" data-name="Layer 1" viewBox="0 0 24 24">
  <path d="m19.447,6.912c-1.731-1.595-3.973-2.643-6.449-2.867L15,0h7.867l-3.42,6.912Zm1.553,8.088c0,4.963-4.038,9-9,9S3,19.963,3,15,7.038,6,12,6s9,4.037,9,9Zm-9.072,2c.131-.09.269-.181.408-.273,1.124-.742,2.664-1.76,2.664-3.727,0-1.654-1.346-3-3-3s-3,1.346-3,3h2c0-.552.448-1,1-1s1,.448,1,1c0,.831-.667,1.332-1.767,2.059-1.047.691-2.233,1.476-2.233,2.941v1h6v-2h-3.072Zm-.932-12.954l-1.996-4.046H1.028l3.446,6.985c1.74-1.635,4.01-2.71,6.522-2.939Z"/>
</svg>
