<?xml version="1.0" encoding="UTF-8"?>
<svg xmlns="http://www.w3.org/2000/svg" id="Layer_1" data-name="Layer 1" viewBox="0 0 24 24">
  <path d="m20.05,15.05c.061-.431.047-.86-.049-1.283-.064-.284.072-.591.34-.764.498-.321.902-.758,1.202-1.298.285-.515.434-1.106.431-1.7.003-.604-.146-1.195-.431-1.71h0c-.299-.54-.704-.977-1.202-1.298-.268-.173-.405-.479-.34-.765.134-.593.114-1.199-.059-1.804-.33-1.148-1.247-2.065-2.396-2.396-.606-.172-1.212-.191-1.803-.058-.287.059-.591-.073-.764-.341-.321-.498-.757-.902-1.297-1.202-1.044-.578-2.343-.579-3.388,0-.538.299-.974.703-1.295,1.201-.173.268-.476.405-.765.34-.59-.132-1.197-.113-1.804.06-1.148.329-2.066,1.247-2.394,2.394-.174.606-.194,1.214-.06,1.806.064.284-.072.591-.34.764-.499.322-.903.758-1.203,1.298-.285.515-.434,1.106-.431,1.7-.003.604.146,1.195.432,1.711.299.539.704.975,1.202,1.296.268.174.405.48.34.765-.098.429-.111.866-.047,1.304l-3.929,3.929h5v5l4.794-4.794c.16.127.316.259.501.362.522.289,1.108.434,1.693.434s1.172-.145,1.695-.435c.19-.105.35-.239.513-.37l4.804,4.804v-5h5l-3.95-3.95ZM12,5c1.381,0,2.5,1.119,2.5,2.5s-1.119,2.5-2.5,2.5-2.5-1.119-2.5-2.5,1.119-2.5,2.5-2.5Zm-.011,10.695c-.899-1.065-2.212-1.685-3.616-1.685-.124,0-.248.006-.373.016v-1.526c0-.828.672-1.5,1.5-1.5h5c.828,0,1.5.672,1.5,1.5v.851c-.011.181-.01.362,0,.544v.131c-.132-.011-.265-.017-.397-.017-1.404,0-2.715.62-3.614,1.685Z"/>
</svg>
