<?xml version="1.0" encoding="UTF-8"?>
<svg xmlns="http://www.w3.org/2000/svg" id="Layer_1" data-name="Layer 1" viewBox="0 0 24 24" width="512" height="512"><path d="m9.5,2.5c0-1.381,1.119-2.5,2.5-2.5s2.5,1.119,2.5,2.5-1.119,2.5-2.5,2.5-2.5-1.119-2.5-2.5Zm11.667-.167l-1.167-2.333-1.167,2.333-2.333,1.167,2.333,1.167,1.167,2.333,1.167-2.333,2.333-1.167-2.333-1.167Zm-14.667,14.167l-2-1-1-2-1,2-2,1,2,1,1,2,1-2,2-1Zm-2.5,7.5h16v-2H4v2Zm12-5v-2h-8v2h8Zm1-7H7v2h10v-2Zm-.874-4.707c-.56-.81-1.482-1.293-2.467-1.293h-3.318c-.984,0-1.906.483-2.467,1.292l-1.874,2.708h12l-1.874-2.707Z"/></svg>
