<?xml version="1.0" encoding="UTF-8"?>
<svg xmlns="http://www.w3.org/2000/svg" id="Layer_1" data-name="Layer 1" viewBox="0 0 24 24">
  <path d="m8,12c-3.309,0-6-2.691-6-6S4.691,0,8,0s6,2.691,6,6-2.691,6-6,6Zm10.456,11.974l-.604-.302c-1.139-.569-4.853-2.704-4.853-6.272v-3.426c0-1.08.688-2.033,1.714-2.373l3.786-1.255,3.786,1.255c1.025.34,1.714,1.293,1.714,2.373v3.426c0,4.03-3.764,5.858-4.917,6.322l-.627.252Zm-7.456-6.574v-3.399h-6c-2.757,0-5,2.243-5,5v5h14.652c-1.731-1.351-3.652-3.539-3.652-6.601Z"/>
</svg>
