<?xml version="1.0" encoding="UTF-8"?>
<svg xmlns="http://www.w3.org/2000/svg" id="Layer_1" data-name="Layer 1" viewBox="0 0 24 24" width="512" height="512"><path d="M5,8.7V1.5C5,.59,5.81-.13,6.75,.02c.74,.12,1.25,.81,1.25,1.56v7.32c-.54-.26-1.13-.4-1.75-.4-.43,0-.85,.07-1.25,.2Zm12,4.8v-4c0-.83-.67-1.5-1.5-1.5h0c-.83,0-1.5,.67-1.5,1.5v4c0,.83,.67,1.5,1.5,1.5h0c.83,0,1.5-.67,1.5-1.5Zm-4,0v-4c0-.83-.67-1.5-1.5-1.5h0c-.83,0-1.5,.67-1.5,1.5v4c0,.83,.67,1.5,1.5,1.5h0c.83,0,1.5-.67,1.5-1.5ZM20.5,1c-.83,0-1.5,.67-1.5,1.5V13.5c0,1.93-1.57,3.5-3.5,3.5-.74,0-1.43-.23-2-.63-.57,.4-1.26,.63-2,.63-1.12,0-2.11-.52-2.75-1.34l-1.85,1.85-1.45-1.38,2.21-2.21c.09-.09,.2-.24,.33-.44,.42-.76,.31-1.74-.33-2.39-.78-.78-2.05-.78-2.83,0l-3.25,3.24c-.78,.78-.78,2.05,0,2.83l6.84,6.84h13.57V2.5c0-.83-.67-1.5-1.5-1.5Z"/></svg>
