<?xml version="1.0" encoding="UTF-8"?>
<svg xmlns="http://www.w3.org/2000/svg" id="Layer_1" data-name="Layer 1" viewBox="0 0 24 24">
  <path d="m10,18c0-2.543,1.46-4.345,2.559-5.479l1.474-1.521h-1.032v-4h2v3.037c.294-.226,2-1.938,2-1.938v-1.099h2v1.172s1.244,1.181,1.751,1.62c1.023.888,2.22,1.928,3.212,3.149.024-.31.037-.624.037-.941C24,5.383,18.617,0,12,0S0,5.383,0,12s5.383,12,12,12c.232,0,.463-.007.692-.02-1.65-1.466-2.692-3.604-2.692-5.98Zm-3-7h-2v-4h2v4Zm2-4h2v4h-2v-4Zm9,3c-1.821,2.103-1.455,6-2.718,6-.606,0-1.287-2.087-1.287-2.087-.995,1.027-1.995,2.361-1.995,4.087,0,3.314,2.686,6,6,6s6-2.686,6-6c0-3.474-4.105-6.105-6-8Zm1.414,11.414c-.781.781-2.048.781-2.829,0-.781-.782-.781-2.048,0-2.829l1.415-1.415,1.415,1.415h0c.781.782.781,2.048,0,2.829Z"/>
</svg>
