<?xml version="1.0" encoding="UTF-8"?>
<svg xmlns="http://www.w3.org/2000/svg" id="Layer_1" data-name="Layer 1" viewBox="0 0 24 24" width="512" height="512"><path d="m11.001,14h-4.001v-4h4v4Zm3.187-2.474l-1.187,1.187v1.287c0,.497-.184.952-.485,1.302l1.672,1.672c.035.034.092.035.127,0l2.66-2.661v-.126l-2.66-2.661c-.034-.032-.091-.035-.127,0ZM23.99,1l-1.931,19.299c-.153,1.54-1.437,2.701-2.985,2.701H4.804c-1.559,0-2.843-1.17-2.987-2.721L.018,1h23.973Zm-4.99,13.25c0-.558-.218-1.083-.612-1.477l-2.66-2.662c-.745-.744-1.913-.8-2.731-.182-.038-1.07-.918-1.929-1.996-1.929h-4c-1.103,0-2,.897-2,2v4c0,1.103.897,2,2,2h3.385l2.388,2.389c.407.407.942.61,1.478.61s1.07-.204,1.478-.611l2.66-2.661c.395-.395.612-.919.612-1.478Z"/></svg>
