<?xml version="1.0" encoding="UTF-8"?>
<svg xmlns="http://www.w3.org/2000/svg" id="Layer_1" data-name="Layer 1" viewBox="0 0 24 24" width="512" height="512"><rect x="8" y="22" width="8" height="2"/><path d="m7.991,8.082c.009,2.124,1.803,3.918,4.009,3.918,2.193,0,3.98-1.774,4-3.964l-7.899-.036c-.068,0-.097.045-.109.082Z"/><path d="m20.124,11h1.876v-5h-1.876C19.053,2.53,15.817,0,12,0S4.947,2.53,3.876,6h-1.876v5h1.876c.666,2.159,2.171,3.952,4.132,5h-2.009c-2.206,0-4,1.794-4,4v4h4v-2c0-1.103.897-2,2-2h8c1.103,0,2,.897,2,2v2h4v-4c0-2.206-1.794-4-4-4h-2.009c1.961-1.048,3.466-2.841,4.132-5Zm-8.124,3c-3.309,0-6-2.691-6-6,0-.946.862-2,2.101-2h7.899c1.235,0,2,1.038,2,2,0,3.309-2.691,6-6,6Z"/></svg>
