<?xml version="1.0" encoding="UTF-8"?>
<svg xmlns="http://www.w3.org/2000/svg" id="Layer_1" data-name="Layer 1" viewBox="0 0 24 24">
  <path d="m5.5,6h-1.652l.767-1.464C4.711,4.351,7.055-.01,12.325-.01c2.457,0,4.454,1.943,4.639,4.394-1.634-.779-3.36-.884-4.964-.884v2c1.691,0,3.258.107,4.663.995-.687,1.757-2.368,3.005-4.337,3.005-1.675,0-2.938-1.053-4.053-1.982-.937-.781-1.822-1.518-2.772-1.518Zm11.163.495c.79.499,1.529,1.241,2.209,2.356l1.707-1.041c-1.074-1.762-2.315-2.806-3.615-3.425.009.121.036.237.036.361,0,.619-.125,1.207-.337,1.75Zm5.673,4.957l-.898-1.372-.808,1.428c-.519.916-1.545,1.494-2.631,2.105-1.218.686-2.598,1.463-3.391,2.864-.62,1.097-.773,2.368-.431,3.579.144.509.385.97.678,1.393,1.808-.752,2.877-2.167,3.29-3.533l1.914.578c-.476,1.579-1.651,3.321-3.605,4.414.728.399,1.516.59,2.296.59,1.669,0,3.291-.869,4.162-2.409,2.63-4.647-.444-9.436-.577-9.637Zm-7.48,9.997c-.805.335-1.741.551-2.856.551v2c1.787,0,3.265-.426,4.455-1.092-.004-.002-.008-.004-.012-.006-.65-.359-1.177-.864-1.586-1.453Zm-5.856-.436c-.009-.633.113-1.286.242-1.978.241-1.295.515-2.763-.152-4.231-.533-1.176-1.489-2.067-2.69-2.511-.648-.239-1.324-.319-1.992-.267-.205.559-.318,1.087-.318,1.56,0,.039.029,1.12,1.617,2.708l-1.414,1.414c-2.255-2.254-2.213-3.994-2.201-4.185,0-.234.018-.467.049-.7-1.912,1.288-2.684,3.821-1.696,5.997,2.252,4.961,7.793,5.174,8.027,5.181l1.669.047-.746-1.494c-.259-.518-.388-1.021-.395-1.54Zm-4.592-8.987c.284-.775.752-1.612,1.392-2.463l-1.598-1.202c-.847,1.126-1.836,2.767-2.061,4.461.202-.136.406-.272.633-.378.523-.244,1.076-.375,1.634-.418Z"/>
</svg>
