<?xml version="1.0" encoding="UTF-8"?>
<svg xmlns="http://www.w3.org/2000/svg" id="Layer_1" data-name="Layer 1" viewBox="0 0 24 24">
  <path d="m3,19.5c0,.828-.672,1.5-1.5,1.5s-1.5-.672-1.5-1.5.672-1.5,1.5-1.5,1.5.672,1.5,1.5Zm3.5,1.5c-.828,0-1.5.672-1.5,1.5s.672,1.5,1.5,1.5,1.5-.672,1.5-1.5-.672-1.5-1.5-1.5Zm11,0c-.828,0-1.5.672-1.5,1.5s.672,1.5,1.5,1.5,1.5-.672,1.5-1.5-.672-1.5-1.5-1.5Zm-5.5-3c-.828,0-1.5.672-1.5,1.5s.672,1.5,1.5,1.5,1.5-.672,1.5-1.5-.672-1.5-1.5-1.5Zm10.5,0c-.828,0-1.5.672-1.5,1.5s.672,1.5,1.5,1.5,1.5-.672,1.5-1.5-.672-1.5-1.5-1.5Zm-6.965-7.465c.944-.943,1.465-2.199,1.465-3.535s-.521-2.592-1.473-3.543L12,.007l-3.535,3.458c-.944.943-1.465,2.199-1.465,3.535s.521,2.591,1.465,3.535h0c.944.944,2.2,1.465,3.535,1.465s2.592-.521,3.535-1.465Zm3.175-1.535c-.327,1.103-.924,2.114-1.761,2.95-1.319,1.321-3.077,2.05-4.948,2.05s-3.627-.729-4.949-2.051c-.836-.836-1.433-1.847-1.76-2.949H0v7c.69,0,1.326-.23,1.833-.616.673-.512,1.661-.512,2.334,0,.507.386,1.143.616,1.833.616s1.326-.23,1.833-.616c.673-.512,1.661-.512,2.334,0,.507.386,1.143.616,1.833.616s1.326-.23,1.833-.616c.673-.512,1.661-.512,2.334,0,.507.386,1.143.616,1.833.616s1.326-.23,1.833-.616c.673-.512,1.661-.512,2.334,0,.507.386,1.143.616,1.833.616v-7h-5.29Z"/>
</svg>
