<?xml version="1.0" encoding="UTF-8"?>
<svg xmlns="http://www.w3.org/2000/svg" id="Layer_1" data-name="Layer 1" viewBox="0 0 24 24">
  <path d="m24,4.295l-2.096-.898c-.23-1.371-.941-2.428-2.027-2.972-.954-.478-2.037-.557-3.054-.22-1.014.337-1.835,1.049-2.299,1.975l-1.296,2.495c-3.248-1.255-5.531-3.302-5.556-3.325L6.213.027s-.236,1.453-.236,2.327c1.338,1.286,3.619,3.031,6.364,4.026h0l-.841,1.619C6,6.5,2.272.011,2.272.011c0,0-.259,3.331-.272,4.489-.035,3.109.535,9.053,6,12.5l-8,.618c0,2.423,1.242,5.362,4.729,6.344l.362.102,5.909-3.334s1.5,1.269,4.25,1.269c3.722,0,6.75-3.028,6.75-6.75,0-1.643-.007-5.924-.011-8.593l2.011-.862v-1.5Z"/>
</svg>
