<?xml version="1.0" encoding="UTF-8"?>
<svg xmlns="http://www.w3.org/2000/svg" id="Layer_1" data-name="Layer 1" viewBox="0 0 24 24" width="512" height="512"><path d="m7,14h10v4h2V4c0-1.103.897-2,2-2h1V0h-1c-2.206,0-4,1.794-4,4v2H7v-2c0-1.103.897-2,2-2h1V0h-1c-2.206,0-4,1.794-4,4v14h2v-4Zm0-6h10v4H7v-4Zm17.01,14.631c-.76.87-1.856,1.369-3.01,1.369-1.194,0-2.267-.525-3-1.357-.733.832-1.806,1.357-3,1.357s-2.267-.525-3-1.357c-.733.832-1.806,1.357-3,1.357s-2.267-.525-3-1.357c-.733.832-1.806,1.357-3,1.357-1.153,0-2.25-.499-3.01-1.369l1.508-1.314c.379.435.927.684,1.502.684,1.103,0,2-.897,2-2h2c0,1.103.897,2,2,2s2-.897,2-2h2c0,1.103.897,2,2,2s2-.897,2-2h2c0,1.103.897,2,2,2,.575,0,1.123-.249,1.502-.684l1.508,1.314Z"/></svg>
