<?xml version="1.0" encoding="UTF-8"?>
<svg xmlns="http://www.w3.org/2000/svg" id="Layer_1" data-name="Layer 1" viewBox="0 0 24 24" width="512" height="512"><path d="m16,8.727v6.086l-3,.86v-6.256c0-.463.312-.877.757-1.006l1.316-.381c.221-.064.453-.021.637.117.185.138.29.35.29.58Zm-5.757-.316l-1.316-.381c-.223-.064-.453-.021-.637.117-.185.138-.29.35-.29.58v6.086l3,.86v-6.256c0-.463-.312-.877-.757-1.006Zm13.757,3.589c0,6.617-5.383,12-12,12S0,18.617,0,12,5.383,0,12,0s12,5.383,12,12Zm-6-3.273c0-.865-.396-1.659-1.088-2.179-.691-.52-1.563-.679-2.396-.439l-1.316.381c-.456.132-.863.367-1.2.674-.337-.307-.744-.542-1.2-.674l-1.316-.381c-.833-.239-1.704-.081-2.396.439-.691.52-1.088,1.313-1.088,2.179v7.594l6,1.72,6-1.72v-7.594Z"/></svg>
