<?xml version="1.0" encoding="UTF-8"?>
<svg xmlns="http://www.w3.org/2000/svg" id="Layer_1" data-name="Layer 1" viewBox="0 0 24 24" width="512" height="512"><path d="M15.42,5l-1.43-1.39,3.51-3.6h1.51V11h-2V3.37l-1.58,1.63ZM7.49,13l-3.51,3.6,1.43,1.39,1.58-1.63v7.63h2V13h-1.51Zm16.47,9.54l-1.41,1.41L.04,1.46,1.46,.04l2.75,2.75c.52-1.61,2.01-2.79,3.79-2.79,2.21,0,4,1.79,4,4v3c0,.96-.37,1.88-.99,2.6l3.64,3.64c.43-.15,.88-.24,1.35-.24,2.21,0,4,1.79,4,4v1.59l3.96,3.96ZM6,4.59l3.6,3.6c.25-.34,.4-.76,.4-1.19v-3c0-1.1-.9-2-2-2s-2,.9-2,2v.59Zm10,17.41c-1.1,0-2-.9-2-2v-1.76l-1.93-1.93c-.04,.23-.07,.45-.07,.68v3c0,2.21,1.79,4,4,4,1.04,0,1.98-.41,2.69-1.06l-1.41-1.41c-.35,.29-.79,.48-1.28,.48Z"/></svg>
