<?xml version="1.0" encoding="UTF-8"?>
<svg xmlns="http://www.w3.org/2000/svg" id="Layer_1" data-name="Layer 1" viewBox="0 0 24 24">
  <path d="m5,0C2.243,0,0,2.243,0,5s2.243,5,5,5,5-2.243,5-5S7.757,0,5,0Zm1.216,7.63l-2.216-2.216v-3.414h2v2.586l1.63,1.63-1.414,1.414Zm8.784-3.63v14H0v-8.106c1.271,1.298,3.04,2.106,5,2.106,3.866,0,7-3.134,7-7,0-1.488-.468-2.866-1.26-4h1.26c1.654,0,3,1.346,3,3Zm6.942,16c.034.162.058.328.058.5,0,1.381-1.119,2.5-2.5,2.5s-2.5-1.119-2.5-2.5c0-.172.024-.338.058-.5h4.885Zm-14,0c.034.162.058.328.058.5,0,1.381-1.119,2.5-2.5,2.5s-2.5-1.119-2.5-2.5c0-.172.024-.338.058-.5h4.885Zm9.058-7h7v5h-7v-5Zm7-3v1h-7v-6h2c2.757,0,5,2.243,5,5Z"/>
</svg>
