<?xml version="1.0" encoding="UTF-8"?>
<svg xmlns="http://www.w3.org/2000/svg" id="Layer_1" data-name="Layer 1" viewBox="0 0 24 24">
  <path d="m12.5,9c1.657,0,3,1.343,3,3s-1.343,3-3,3h-5s1-6,5-6Zm4.666,1.246l6.126-6.126c.943-.942.945-2.47.003-3.413-.941-.942-2.467-.943-3.409-.002-.032.032-.063.065-.093.099l-5.859,6.431c1.491.45,2.686,1.564,3.232,3.011Zm-4.666,6.754h-7.361l.388-2.329c.43-2.581,2.121-6.769,5.777-7.536l4.663-5.135H3c-1.654,0-3,1.346-3,3v15h11v2h-4.5v2h11v-2h-4.5v-2h11V6.24l-6.583,6.583c-.396,2.364-2.442,4.177-4.917,4.177Z"/>
</svg>
