<?xml version="1.0" encoding="UTF-8"?>
<svg xmlns="http://www.w3.org/2000/svg" id="Layer_1" data-name="Layer 1" viewBox="0 0 24 24" width="512" height="512"><path d="M21,0H3C1.35,0,0,1.35,0,3V24H24V3c0-1.65-1.35-3-3-3ZM12.57,17.82l-.57,.4-.57-.4c-.56-.39-5.43-3.86-5.43-7.12,0-2.04,1.57-3.7,3.5-3.7,1,0,1.87,.37,2.5,.99,.63-.62,1.5-.99,2.5-.99,1.93,0,3.5,1.66,3.5,3.7,0,3.26-4.87,6.74-5.43,7.12Zm3.43-7.12c0,1.5-2.26,3.73-4,5.06-1.74-1.33-4-3.56-4-5.06,0-.94,.67-1.7,1.5-1.7,.75,0,1.5,.45,1.5,1.45v.55h2v-.55c0-1,.75-1.45,1.5-1.45,.83,0,1.5,.76,1.5,1.7Z"/></svg>
