<?xml version="1.0" encoding="UTF-8"?>
<svg xmlns="http://www.w3.org/2000/svg" id="Layer_1" data-name="Layer 1" viewBox="0 0 24 24" width="512" height="512"><path d="M10.29,12.29l1.41,1.41L1.41,24.01,0,22.59,10.29,12.29Zm9.54-6.72L24.01,1.41,22.59,0l-3.95,3.95c-1.43-1.57-3.41-2.64-5.61-2.88-2.56-.29-5.13,.53-7.03,2.23-1.91,1.71-3,4.15-3,6.71h2c0-1.99,.85-3.89,2.34-5.22,1.51-1.35,3.45-1.96,5.48-1.73,3.17,.36,5.74,2.91,6.13,6.06,.25,2.05-.36,4.01-1.71,5.54-.75,.85-1.24,2.16-1.24,3.36,0,2.21-1.79,4-4,4v2c3.31,0,6-2.69,6-6,0-.7,.31-1.55,.73-2.03,1.71-1.93,2.52-4.52,2.2-7.11-.14-1.18-.53-2.29-1.09-3.29Zm-4.09,7.73c.81-.91,1.25-2.09,1.25-3.31,0-2.76-2.24-5-5-5s-5,2.24-5,5h2c0-1.65,1.35-3,3-3s3,1.35,3,3c0,.73-.27,1.44-.75,1.98l1.5,1.32Z"/></svg>
