<?xml version="1.0" encoding="UTF-8"?>
<svg xmlns="http://www.w3.org/2000/svg" id="Layer_1" data-name="Layer 1" viewBox="0 0 24 24">
  <path d="m17.5,1c-2.317,0-4.349,1.222-5.5,3.052-1.151-1.83-3.183-3.052-5.5-3.052C2.916,1,0,3.916,0,7.5c0,6.983,11.306,15.233,11.42,15.314l.579.412.58-.411c3.951-2.798,11.421-9.6,11.421-15.316,0-3.584-2.916-6.5-6.5-6.5Zm-4.053,7.005c.514.061.882.647.802,1.526-.239,2.124-2.025,1.854-1.862-.222.081-.879.546-1.365,1.06-1.304Zm-2.905,0c.515-.061.98.425,1.061,1.304.164,2.074-1.622,2.347-1.861.222-.081-.878.284-1.464.8-1.526Zm-3.031,3.54c-.08-.878.288-1.464.802-1.526.514-.061.98.425,1.06,1.304.162,2.074-1.623,2.346-1.862.222Zm6.321,4.454c-.272-.012-.541-.059-.8-.139-.67-.211-1.397-.211-2.068,0-1.099.363-2.007.006-1.966-.978.002-1.455,1.487-2.883,3-2.883s2.998,1.428,2.998,2.883c0,.51-.202,1.117-1.166,1.117Zm.679-4.677c.081-.879.546-1.365,1.06-1.304s.882.647.801,1.526c-.239,2.124-2.025,1.854-1.862-.222Z"/>
</svg>
