<?xml version="1.0" encoding="UTF-8"?>
<svg xmlns="http://www.w3.org/2000/svg" id="Layer_1" data-name="Layer 1" viewBox="0 0 24 24">
  <path d="m12.001,19.629l2.887,4.371h-5.775l2.887-4.371Zm0-13.388L2.368,20.188c-.474.778-.491,1.716-.045,2.509.451.804,1.312,1.303,2.247,1.303h2.148l5.284-8,5.285,8h2.148c.935,0,1.795-.499,2.246-1.302.445-.793.43-1.731-.076-2.558L12.001,6.241ZM20.12.295l-1.414,1.414,2.302,2.291H3.003l2.291-2.291L3.88.295.58,3.594c-.773.775-.773,2.037,0,2.812l3.299,3.298,1.414-1.414-2.302-2.291h18.005l-2.291,2.291,1.414,1.414,3.3-3.299c.773-.775.773-2.037,0-2.812l-3.299-3.298Z"/>
</svg>
