<?xml version="1.0" encoding="UTF-8"?>
<svg xmlns="http://www.w3.org/2000/svg" id="Layer_1" data-name="Layer 1" viewBox="0 0 24 24">
  <path d="m12,10h4v14H0V3C0,1.346,1.346,0,3,0h2v10h-1v2h3v-2h2v2h3v-2Zm-5,8h-3v2h3v-2Zm0-4h-3v2h3v-2Zm5,4h-3v2h3v-2Zm0-4h-3v2h3v-2ZM21.5,1.6c.496,0,.9.404.9.9v3c0,.496-.404.9-.9.9s-.9-.404-.9-.9v-3c0-.496.404-.9.9-.9m0-1.6c-1.381,0-2.5,1.119-2.5,2.5v3c0,1.381,1.119,2.5,2.5,2.5s2.5-1.119,2.5-2.5v-3c0-1.381-1.119-2.5-2.5-2.5h0Zm-6,3.5v1.5h.9v.5c0,.496-.404.9-.9.9s-.9-.404-.9-.9v-3c0-.496.404-.9.9-.9.307,0,.565.164.728.4h1.722c-.232-1.141-1.24-2-2.45-2-1.381,0-2.5,1.119-2.5,2.5v3c0,1.381,1.119,2.5,2.5,2.5s2.5-1.119,2.5-2.5v-2h-2.5ZM10.4,0v4.063L8.6.009v-.009h-1.6v8h1.6V3.946l1.8,4.054h1.6V0h-1.6Z"/>
</svg>
