<?xml version="1.0" encoding="UTF-8"?>
<svg xmlns="http://www.w3.org/2000/svg" id="Layer_1" data-name="Layer 1" viewBox="0 0 24 24" width="512" height="512"><path d="M14,10.16c0,1.05-1.61,2.71-3,3.8-1.39-1.09-3-2.75-3-3.8,0-.64,.45-1.16,1-1.16,.5,0,1,.31,1,1h2c0-.69,.5-1,1-1,.55,0,1,.52,1,1.16Zm10,2.63v2.21h-2.33l-.45,3.39c-.2,1.49-1.47,2.61-2.97,2.61h-2.25v3H3v-4.71c0-.46-.16-.91-.46-1.26C.67,15.78-.22,12.92,.05,9.98,.5,4.95,4.46,.79,9.45,.11c4.04-.56,7.91,1.06,10.35,4.31,1.18,1.46,2.3,4.02,3.48,6.72l.72,1.65Zm-8-2.63c0-1.74-1.35-3.16-3-3.16-.78,0-1.48,.27-2,.73-.52-.46-1.22-.73-2-.73-1.65,0-3,1.42-3,3.16,0,2.65,3.69,5.35,4.43,5.86l.57,.4,.57-.4c.74-.51,4.43-3.21,4.43-5.86Z"/></svg>
