<?xml version="1.0" encoding="UTF-8"?>
<svg xmlns="http://www.w3.org/2000/svg" id="Layer_1" data-name="Layer 1" viewBox="0 0 24 24">
  <path d="m8.295,22.126l-.972,1.748C2.669,21.288,0,16.96,0,12,0,5.383,5.383,0,12,0c1.646,0,3.215.333,4.645.936l-1.554,1.554c-.974-.317-2.013-.49-3.091-.49C6.486,2,2,6.486,2,12c0,4.213,2.294,7.903,6.295,10.126Zm3.703-10.126h3.59l7.667-7.667c.479-.48.744-1.117.744-1.795s-.264-1.316-.744-1.795c-.99-.99-2.6-.99-3.59,0l-7.668,7.667v3.59Zm9.511-3.092c.318.974.49,2.014.49,3.092,0,3.203-2.606,5.81-5.81,5.81s-5.81-2.606-5.81-5.81h-2c0,4.307,3.503,7.81,7.81,7.81s7.81-3.503,7.81-7.81c0-1.647-.334-3.217-.936-4.646l-1.554,1.554Z"/>
</svg>
