<?xml version="1.0" encoding="UTF-8"?>
<svg xmlns="http://www.w3.org/2000/svg" id="Layer_1" data-name="Layer 1" viewBox="0 0 24 24">
  <path d="m5,14h5.76c-.392.585-.651,1.266-.732,2l-.028,8H0v-5c0-2.761,2.239-5,5-5Zm14,7h-2v-1h-5v4h12v-4h-5v1Zm2.5-7h-.5v-.5c0-.827-.673-1.5-1.5-1.5h-3c-.827,0-1.5.673-1.5,1.5v.5h-.5c-1.378,0-2.5,1.122-2.5,2.5v1.5h12v-1.5c0-1.378-1.122-2.5-2.5-2.5Zm-16.031-1.999c-1.841.012-3.568.707-4.895,1.87.533-2.27,1.198-5.091,1.663-7.036.019.066.038.131.059.196.243,2.101,1.454,3.91,3.174,4.971Zm7.639-3.368c.079.335.355,1.494.643,2.709.641-.815,1.634-1.341,2.749-1.341h.015c-.644-2.726-1.233-5.196-1.313-5.45-.855-2.722-3.348-4.55-6.202-4.55S3.652,1.829,2.798,4.55c-.017.054-.058.211-.117.45h2.088c1.25,0,2.214-.212,3.025-.717.858-.535,1.508-1.312,1.879-2.233.679.102,1.313.356,1.862.732-.527,1.319-1.455,2.432-2.683,3.198-1.081.674-2.609,1.02-3.852,1.02-.038,0-.41,0-.69,0,.361,2.264,2.327,3.999,4.69,3.999,1.751,0,3.284-.953,4.108-2.368Z"/>
</svg>
