<?xml version="1.0" encoding="UTF-8"?>
<svg xmlns="http://www.w3.org/2000/svg" id="Layer_1" data-name="Layer 1" viewBox="0 0 24 24">
  <path d="m14.231,5.065c-1.893.884-4.264,1.935-8.231,1.935v-2c3.648,0,5.728-.973,7.562-1.83.116-.054.231-.108.346-.161-2.083-.498-4.945-1.009-7.908-1.009V0c5.911,0,11.258,1.852,11.804,2.047.209-.031.423-.047.641-.047,3.333,0,5.556,3.375,5.556,5.625,0,2.485-3.101,3.375-5.556,3.375s-4.444-2.015-4.444-4.5c0-.502.081-.984.231-1.435Zm6.769,7.677c-.782.169-1.638.258-2.556.258-2.723,0-5.058-1.713-6-4.127-7.408,2.366-9.004,8.84-9.347,11.456-.315-.208-.692-.329-1.098-.329-1.105,0-2,.895-2,2s.895,2,2,2h13v-3c0-2.206-1.794-4-4-4v-2c3.309,0,6,2.691,6,6v3h7v-2h-3v-9.258Z"/>
</svg>
