<?xml version="1.0" encoding="UTF-8"?>
<svg xmlns="http://www.w3.org/2000/svg" id="Layer_1" data-name="Layer 1" viewBox="0 0 24 24">
  <path d="m24,19v5H0v-5h7c2.778,0,4.242,1.334,4.944,2.748.702-1.414,2.166-2.748,4.944-2.748h7.111ZM2.03,5.243c.101.403-.012.888-.143,1.45-.235,1.008-.527,2.263.219,3.754.46.921,1.075,1.478,1.618,1.969.769.697,1.277,1.157,1.277,2.583v2h2c2.281,0,3.862.715,4.944,1.6,1.083-.885,2.663-1.6,4.944-1.6h2.111v-2c0-1.427.508-1.887,1.277-2.583.542-.491,1.157-1.048,1.618-1.969.746-1.492.454-2.746.219-3.754-.131-.562-.244-1.047-.143-1.45.192-.77.572-1.258.974-1.774.495-.636,1.056-1.357,1.056-2.469V0H0v1c0,1.112.561,1.833,1.056,2.469.402.516.781,1.004.974,1.774Zm11.97-.95l1.778-.519.525-1.773h.404l.518,1.774,1.774.518v.404l-1.773.525-.519,1.778h-.404l-.526-1.777-1.777-.526v-.404Zm-1.697,5.708h.404l.518,1.774,1.774.518v.404l-1.773.525-.519,1.778h-.404l-.526-1.777-1.777-.526v-.404l1.778-.519.525-1.773Zm-7.303-3.708l1.778-.519.525-1.773h.404l.518,1.774,1.774.518v.404l-1.773.525-.519,1.778h-.404l-.526-1.777-1.777-.526v-.404Z"/>
</svg>
