<?xml version="1.0" encoding="UTF-8"?>
<svg xmlns="http://www.w3.org/2000/svg" id="Layer_1" data-name="Layer 1" viewBox="0 0 24 24" width="512" height="512"><path d="M8,13c1.654,0,3-1.346,3-3s-1.346-3-3-3-3,1.346-3,3,1.346,3,3,3Zm0-4c.552,0,1,.448,1,1s-.448,1-1,1-1-.448-1-1,.448-1,1-1Zm4,8c-1.094,0-3-.85-3-1.337,0-.279,.276-.72,.577-.942,.978-.328,1.819-.94,2.423-1.752,.669,.898,1.627,1.558,2.74,1.85,.136,.187,.26,.52,.261,.837-.095,.478-2.029,1.344-3.001,1.344ZM.395,9C1.732,3.833,6.42,0,12,0s10.268,3.833,11.605,9h-2.706c-.465-2.279-2.484-4-4.899-4-1.641,0-3.088,.806-4,2.031-.912-1.225-2.359-2.031-4-2.031-2.414,0-4.434,1.721-4.899,4H.395Zm18.605,1c0-1.654-1.346-3-3-3s-3,1.346-3,3,1.346,3,3,3,3-1.346,3-3Zm-3,1c-.552,0-1-.448-1-1s.448-1,1-1,1,.448,1,1-.448,1-1,1Zm7.949,0c.027,.331,.051,.662,.051,1,0,6.617-5.383,12-12,12S0,18.617,0,12c0-.338,.023-.669,.051-1H3.101c.406,1.994,2.006,3.55,4.016,3.911-.072,.243-.117,.495-.117,.752,0,.188,.032,.365,.077,.537l-1.419,1.041,1.184,1.613,1.455-1.067c.312,.219,.659,.407,1.017,.565l-.635,1.853,1.893,.648,.661-1.928c.293,.048,.558,.075,.768,.075,.191,0,.458-.031,.764-.088l.665,1.94,1.893-.648-.648-1.891c.349-.156,.689-.338,.998-.55l1.487,1.091,1.184-1.613-1.423-1.044c.047-.171,.081-.346,.081-.534,0-.255-.031-.509-.085-.756,1.995-.372,3.58-1.924,3.984-3.907h3.05Z"/></svg>
