<?xml version="1.0" encoding="UTF-8"?>
<svg xmlns="http://www.w3.org/2000/svg" id="Layer_1" data-name="Layer 1" viewBox="0 0 24 24" width="512" height="512"><path d="M12,0C5.383,0,0,5.383,0,12s5.383,12,12,12,12-5.383,12-12S18.617,0,12,0ZM5.897,8.636c.497,.303,1.134,.424,1.706,.332,.663-.111,1.196-.491,1.585-1.13l1.708,1.041c-.685,1.124-1.737,1.855-2.963,2.061-.237,.04-.479,.06-.721,.06-.824,0-1.653-.227-2.356-.655l1.041-1.708Zm6.096,8.364c-3,0-6,1.001-6,1,.615-2.28,2.671-4.996,6.007-5,3.336,.004,5.385,2.72,6,5,0,.001-3.007-1-6.007-1Zm4.809-6c-.241,0-.48-.02-.717-.059-1.218-.204-2.264-.932-2.944-2.048l1.708-1.041c.385,.631,.912,1.007,1.567,1.117,.564,.096,1.194-.027,1.686-.328l1.041,1.708c-.699,.426-1.523,.651-2.341,.651Z"/></svg>
