<?xml version="1.0" encoding="UTF-8"?>
<svg xmlns="http://www.w3.org/2000/svg" id="Layer_1" data-name="Layer 1" viewBox="0 0 24 24" width="512" height="512"><path d="m10.172,13c.413,1.164,1.524,2,2.828,2,1.654,0,3-1.346,3-3,0-1.304-.836-2.415-2-2.828v-3.344c1.164-.413,2-1.524,2-2.828,0-1.654-1.346-3-3-3-1.304,0-2.415.836-2.828,2h-4.344c-.413-1.164-1.524-2-2.828-2C1.346,0,0,1.346,0,3c0,1.304.836,2.415,2,2.828v3.344c-1.164.413-2,1.524-2,2.828,0,1.654,1.346,3,3,3,1.304,0,2.415-.836,2.828-2h4.344Zm-6.172-3.828v-3.344c.851-.302,1.526-.977,1.828-1.828h4.344c.302.851.977,1.526,1.828,1.828v3.344c-.851.302-1.526.977-1.828,1.828h-4.344c-.302-.851-.977-1.526-1.828-1.828Zm18,9v-3.344c1.343-.476,2.249-1.883,1.939-3.441-.234-1.172-1.203-2.122-2.379-2.336-1.899-.346-3.56,1.111-3.56,2.949,0,1.304.836,2.415,2,2.828v3.344c-.851.302-1.526.977-1.828,1.828h-4.344c-.302-.851-.977-1.526-1.828-1.828v-1.672s-2,0-2,0v1.672c-1.343.476-2.249,1.883-1.939,3.441.23,1.154,1.172,2.096,2.326,2.326,1.559.311,2.965-.596,3.441-1.939h4.344c.476,1.343,1.883,2.249,3.441,1.939,1.154-.23,2.096-1.172,2.326-2.326.311-1.559-.596-2.965-1.939-3.441Z"/></svg>
