<?xml version="1.0" encoding="UTF-8"?>
<svg xmlns="http://www.w3.org/2000/svg" id="Layer_1" data-name="Layer 1" viewBox="0 0 24 24">
  <path d="m24,12v3h-6.349c.741-2.066.284-4.372-1.188-6h4.537c1.657,0,3,1.343,3,3Zm-12,5c.238,0,.47-.021.697-.061l-4.636-4.636c-.04.226-.061.459-.061.697,0,2.209,1.791,4,4,4Zm4-4c0-2.209-1.791-4-4-4-.474,0-.929.083-1.352.234l-2.129-2.129c.903-.733,1.48-1.852,1.48-3.106,0-2.209-1.791-4-4-4-1.254,0-2.372.577-3.106,1.48L1.457.043.043,1.457l22.5,22.5,1.414-1.414-8.191-8.191c.152-.422.234-.877.234-1.352Zm2-5c2.209,0,4-1.791,4-4s-1.791-4-4-4-4,1.791-4,4,1.791,4,4,4Zm-9,10c-1.657,0-3,1.343-3,3v3h12v-1.757l-4.243-4.243h-4.757Zm-3-5c0-.796.159-1.576.459-2.298l-1.702-1.702h-1.757c-1.657,0-3,1.343-3,3v3h6.349c-.23-.642-.348-1.318-.349-2Z"/>
</svg>
