<?xml version="1.0" encoding="UTF-8"?>
<svg xmlns="http://www.w3.org/2000/svg" id="Layer_1" data-name="Layer 1" viewBox="0 0 24 24" width="512" height="512"><path d="m18,12c-3.314,0-6,2.686-6,6s2.686,6,6,6,6-2.686,6-6-2.686-6-6-6Zm.535,8.518c-.308.309-.727.482-1.173.482s-.864-.174-1.179-.489l-1.845-1.788,1.393-1.436,1.63,1.58,3.228-3.175,1.402,1.426-3.456,3.399Zm-8.535-2.518c0-2.39,1.048-4.534,2.709-6H4v-2h10v1.071c1.177-.681,2.543-1.071,4-1.071V3c0-1.654-1.346-3-3-3H3C1.346,0,0,1.346,0,3v21h12.709c-1.661-1.466-2.709-3.61-2.709-6ZM4,5h10v2H4v-2Zm4,12h-4v-2h4v2Z"/></svg>
