<?xml version="1.0" encoding="UTF-8"?>
<svg xmlns="http://www.w3.org/2000/svg" id="Layer_1" data-name="Layer 1" viewBox="0 0 24 24" width="512" height="512"><path d="M16.542,4.789c-.446-1.478-1.37-2.403-2.824-2.83L14.281,.041c2.123,.622,3.528,2.025,4.176,4.17l-1.915,.578ZM4.781,20.963c-1.454-.425-2.377-1.351-2.823-2.829L.042,18.712c.648,2.146,2.053,3.549,4.177,4.171l.562-1.92Zm-1.22-8.523l3.573,3.548,.879-.879L1.439,8.561c-.586-.585-.586-1.536,0-2.121,.586-.586,1.535-.586,2.121,0l6.573,6.548,.879-.879L3.439,4.561c-.586-.585-.586-1.536,0-2.121,.586-.586,1.535-.586,2.121,0l7.573,7.548,.879-.879L8.439,3.561c-.586-.585-.586-1.536,0-2.121,.586-.586,1.535-.586,2.121,0l8.439,8.414v-2.853c0-1.105,.895-2,2-2s2,.895,2,2V15.746c0,2.16-.841,4.191-2.369,5.719-1.69,1.69-3.911,2.535-6.131,2.535s-4.44-.845-6.131-2.535L1.439,14.561c-.586-.586-.586-1.535,0-2.121s1.536-.586,2.121,0Z"/></svg>
