<?xml version="1.0" encoding="UTF-8"?>
<svg xmlns="http://www.w3.org/2000/svg" id="Layer_1" data-name="Layer 1" viewBox="0 0 24 24">
  <path d="m24,0h-2c0,1.103-.897,2-2,2H4.399C2.382,2,.675,3.509.429,5.511l-.429,2.489h11.75c2.032,0,3.74-1.522,3.973-3.542l.168-.458h2.089c-.205,3.696-2.628,9.671-6.971,14.042-1.355,1.373-1.34,3.594.033,4.95.681.672,1.57,1.007,2.458,1.007.904,0,1.808-.347,2.492-1.039,5.705-5.781,5.578-17.362,5.518-19.259,1.459-.597,2.491-2.028,2.491-3.7Zm-10.5,22c-.828,0-1.5-.672-1.5-1.5s.672-1.5,1.5-1.5,1.5.672,1.5,1.5-.672,1.5-1.5,1.5Z"/>
</svg>
