<?xml version="1.0" encoding="UTF-8"?>
<svg xmlns="http://www.w3.org/2000/svg" id="Layer_1" data-name="Layer 1" viewBox="0 0 24 24">
  <path d="m14.4,10.518v3c0,.496-.404.9-.9.9s-.9-.404-.9-.9v-3c0-.496.404-.9.9-.9s.9.404.9.9Zm9.133-1.803c.297,1.045.467,2.145.467,3.285,0,.723-.075,1.428-.198,2.116-.219-.362-.599-.616-1.052-.616-.69,0-1.25.56-1.25,1.25s.56,1.25,1.25,1.25c.231,0,.436-.08.622-.189-1.594,4.757-6.078,8.189-11.372,8.189C5.373,24,0,18.627,0,12S5.373,0,12,0c5.223,0,9.654,3.342,11.303,8h-1.214l-5.222,8h1.911l4.756-7.285Zm-6.533.535c0,.69.56,1.25,1.25,1.25s1.25-.56,1.25-1.25-.56-1.25-1.25-1.25-1.25.56-1.25,1.25Zm-13-1.25h-1.226L.334,10.519l1.149,1.113.917-.946v5.332h1.6v-8.018Zm6,2.518c0-1.381-1.119-2.5-2.5-2.5s-2.5,1.119-2.5,2.5v3c0,1.381,1.119,2.5,2.5,2.5s2.5-1.119,2.5-2.5v-3Zm6,0c0-1.381-1.119-2.5-2.5-2.5s-2.5,1.119-2.5,2.5v3c0,1.381,1.119,2.5,2.5,2.5s2.5-1.119,2.5-2.5v-3Zm-8.5-.9c-.496,0-.9.404-.9.9v3c0,.496.404.9.9.9s.9-.404.9-.9v-3c0-.496-.404-.9-.9-.9Z"/>
</svg>
