<?xml version="1.0" encoding="UTF-8"?>
<svg xmlns="http://www.w3.org/2000/svg" id="Layer_1" data-name="Layer 1" viewBox="0 0 24 24">
  <path d="m15.207,18.707l-1.793,1.793,1.793,1.793-1.414,1.414-1.793-1.793-1.793,1.793-1.414-1.414,1.793-1.793-1.793-1.793,1.414-1.414,1.793,1.793,1.793-1.793,1.414,1.414Zm8,0l-1.414-1.414-1.793,1.793-1.793-1.793-1.414,1.414,1.793,1.793-1.793,1.793,1.414,1.414,1.793-1.793,1.793,1.793,1.414-1.414-1.793-1.793,1.793-1.793Zm-17.414-1.414l-1.793,1.793-1.793-1.793-1.414,1.414,1.793,1.793-1.793,1.793,1.414,1.414,1.793-1.793,1.793,1.793,1.414-1.414-1.793-1.793,1.793-1.793-1.414-1.414Zm.207-5.293v-7h2v-1c0-2.206,1.794-4,4-4s4,1.794,4,4v1h2v7c0,1.654-1.346,3-3,3h-6c-1.654,0-3-1.346-3-3Zm7-3h-2v2h2v-2Zm-3-4h4v-1c0-1.103-.897-2-2-2s-2,.897-2,2v1Z"/>
</svg>
