<?xml version="1.0" encoding="UTF-8"?>
<svg xmlns="http://www.w3.org/2000/svg" id="Layer_1" data-name="Layer 1" viewBox="0 0 24 24" width="512" height="512"><path d="M10.73,10.3l1.84,1.06,1-1.73-1.84-1.06c.17-.5,.28-1.02,.28-1.57s-.11-1.07-.28-1.57l1.84-1.06-1-1.73-1.84,1.06c-.71-.8-1.65-1.38-2.73-1.6V0h-2V2.1c-1.08,.22-2.02,.8-2.73,1.6l-1.84-1.06-1,1.73,1.84,1.06c-.17,.5-.28,1.02-.28,1.57s.11,1.07,.28,1.57l-1.84,1.06,1,1.73,1.84-1.06c.71,.8,1.65,1.38,2.73,1.6v2.1h2v-2.1c1.08-.22,2.02-.8,2.73-1.6Zm-5.23-3.3c0-.83,.67-1.5,1.5-1.5s1.5,.67,1.5,1.5-.67,1.5-1.5,1.5-1.5-.67-1.5-1.5Zm16.5,10c0-.55-.11-1.07-.28-1.57l1.84-1.06-1-1.73-1.84,1.06c-.71-.8-1.65-1.38-2.73-1.6v-2.1h-2v2.1c-1.08,.22-2.02,.8-2.73,1.6l-1.84-1.06-1,1.73,1.84,1.06c-.17,.5-.28,1.02-.28,1.57s.11,1.07,.28,1.57l-1.84,1.06,1,1.73,1.84-1.06c.71,.8,1.65,1.38,2.73,1.6v2.1h2v-2.1c1.08-.22,2.02-.8,2.73-1.6l1.84,1.06,1-1.73-1.84-1.06c.17-.5,.28-1.02,.28-1.57Zm-5,1.5c-.83,0-1.5-.67-1.5-1.5s.67-1.5,1.5-1.5,1.5,.67,1.5,1.5-.67,1.5-1.5,1.5Z"/></svg>
