<?xml version="1.0" encoding="UTF-8"?>
<svg xmlns="http://www.w3.org/2000/svg" id="Layer_1" data-name="Layer 1" viewBox="0 0 24 24" width="512" height="512"><path d="M14.129,.183C6.022-1.21-.933,5.54,.103,13.592c.617,4.793,4.205,8.8,8.881,10.017,2.508,.653,4.891,.446,7.016-.306v-6.236c-.556,.256-1.241,.504-2,.683v3.25c0,.552-.448,1-1,1h0c-.552,0-1-.448-1-1v-3c-3.107,0-5.563-2.162-5.666-2.254l1.33-1.493c.02,.017,2.005,1.747,4.336,1.747,2.384,0,4.391-1.435,4.411-1.449l1.586-1.149,.002,8.98c4.143-2.4,6.726-7.193,5.819-12.498C22.979,4.979,19.033,1.026,14.129,.183ZM6.845,11.535l-1.689-1.07c.912-1.438,2.279-2.576,3.953-3.29l.784,1.84c-1.282,.546-2.364,1.441-3.048,2.521Zm10.311,0c-.684-1.079-1.766-1.975-3.048-2.521l.784-1.84c1.674,.714,3.042,1.852,3.953,3.29l-1.689,1.07Z"/></svg>
