<?xml version="1.0" encoding="UTF-8"?>
<svg xmlns="http://www.w3.org/2000/svg" id="Layer_1" data-name="Layer 1" viewBox="0 0 24 24" width="512" height="512"><path d="m24,20.998v3.002l-24,.002v-3.002c0-1.654,1.346-3,3-3h18c1.654,0,3,1.344,3,2.998Zm-4.114-11.133c-2.223-.508-3.886-2.488-3.886-4.865,0-.4.06-.784.149-1.157.351-.843.797-1.528,1.351-1.343.584.194.885.382,1.178.622-.417.515-.678,1.163-.678,1.878,0,1.657,1.343,3,3,3s3-1.343,3-3-1.343-3-3-3c-.18,0-.353.023-.524.053-1.187-1.032-2.951-2.053-5.333-2.053C11.116,0,4.323,4.395,2.297,16h19.337c-.408-2.334-1.016-4.361-1.747-6.135Z"/></svg>
