<?xml version="1.0" encoding="UTF-8"?>
<svg xmlns="http://www.w3.org/2000/svg" id="Layer_1" data-name="Layer 1" viewBox="0 0 24 24">
  <path d="m18.736,5.139c-.337-.604-.737-1.166-1.188-1.685l2.689-3.114,1.514,1.308-3.015,3.491Zm-.994,11.188c1.411-1.724,2.258-3.926,2.258-6.327,0-1.765-.461-3.421-1.264-4.861l-7.188,8.323-3.486-3.486-4.245,5.094c-.446-.543-.816-1.147-1.108-1.795l5.218-6.262,3.514,3.514,6.108-7.072c-1.833-2.112-4.532-3.454-7.548-3.454C4.477,0,0,4.477,0,10s4.477,10,10,10c2.401,0,4.604-.848,6.327-2.258l6.22,6.22,1.414-1.414-6.22-6.22Z"/>
</svg>
