<?xml version="1.0" encoding="UTF-8"?>
<svg xmlns="http://www.w3.org/2000/svg" id="Layer_1" data-name="Layer 1" viewBox="0 0 24 24">
  <path d="m23.121,6.151L17.849.879c-.567-.567-1.32-.879-2.121-.879h-7.456c-.801,0-1.554.312-2.121.879L.879,6.151c-.567.567-.879,1.32-.879,2.121v7.456c0,.801.312,1.554.879,2.121l5.272,5.272c.567.567,1.32.879,2.121.879h7.456c.801,0,1.554-.312,2.121-.879l5.272-5.272c.567-.567.879-1.32.879-2.121v-7.456c0-.801-.312-1.554-.879-2.121Zm-6.121,6.849h-4v4h-2v-4h-4v-2h4v-4h2v4h4v2Z"/>
</svg>
