<?xml version="1.0" encoding="UTF-8"?>
<svg xmlns="http://www.w3.org/2000/svg" id="Layer_1" data-name="Layer 1" viewBox="0 0 24 24">
  <path d="m3.594,8.417L.295,5.119l1.414-1.414,2.291,2.291V0h2v6.006l2.291-2.302,1.414,1.414-3.298,3.299c-.388.388-.897.582-1.406.582s-1.019-.194-1.406-.582Zm15.406.582c.509,0,1.019-.194,1.406-.582l3.298-3.299-1.414-1.414-2.291,2.302V0h-2v5.995l-2.291-2.291-1.414,1.414,3.298,3.299c.388.388.897.582,1.406.582Zm-9.887,15.001h5.775l-2.887-4.371-2.887,4.371Zm2.887-17.759L2.366,20.188c-.474.778-.491,1.716-.045,2.509.451.804,1.312,1.303,2.247,1.303h2.148l5.284-8,5.285,8h2.148c.935,0,1.795-.499,2.246-1.302.445-.793.43-1.731-.076-2.558L12,6.241Z"/>
</svg>
