<?xml version="1.0" encoding="UTF-8"?>
<svg xmlns="http://www.w3.org/2000/svg" id="Layer_1" data-name="Layer 1" viewBox="0 0 24 24">
  <path d="m18,12c-3.308,0-6,2.692-6,6s2.692,6,6,6,6-2.692,6-6-2.692-6-6-6Zm2.772,7.425l-1.714,3.429-1.789-.893,1.48-2.962h-2.134c-.509,0-.993-.244-1.297-.652-.303-.409-.396-.943-.249-1.43l2.051-3.81,1.76.95-1.605,2.942h2.121c.592,0,1.133.324,1.412.845.269.499.253,1.098-.035,1.581Zm-8.776-6.701c-1.239,1.409-1.997,3.252-1.997,5.276h-3l-1.705,2.5-.588-.413C1.76,18.016,0,14.637,0,11.048,0,4.956,4.956,0,11.048,0s11.048,4.956,11.048,11.048c0,.029-.005.057-.005.086-1.198-.715-2.594-1.134-4.091-1.134-2.024,0-3.867.757-5.276,1.997.171-.294.276-.632.276-.997,0-.738-.405-1.376-1-1.723V3h-2v6.277c-.595.346-1,.984-1,1.723,0,1.105.895,2,2,2,.365,0,.702-.105.997-.276Z"/>
</svg>
