<?xml version="1.0" encoding="UTF-8"?>
<svg xmlns="http://www.w3.org/2000/svg" id="Layer_1" data-name="Layer 1" viewBox="0 0 24 24">
  <path d="m16,12c0-2.206-1.794-4-4-4s-4,1.794-4,4,1.794,4,4,4,4-1.794,4-4Zm-7,10c0,1.105-.895,2-2,2s-2-.895-2-2,.895-2,2-2,2,.895,2,2Zm12-8c0,5.514-4.486,10-10,10-.182,0-.359-.021-.54-.027.334-.584.54-1.251.54-1.973,4.411,0,8-3.589,8-8,0-1.174-.424-2.241-1.105-3.096-.281-1.52-1.135-2.835-2.329-3.721,3.107.714,5.434,3.496,5.434,6.817ZM3.697,19.747c-.382.559-.609,1.225-.665,1.939-1.119-.706-2.136-1.558-3.032-2.524v-3.286c.959,1.528,2.208,2.857,3.697,3.871ZM15,2c0-1.105.895-2,2-2s2,.895,2,2-.895,2-2,2-2-.895-2-2ZM3,10C3,4.486,7.486,0,13,0c.182,0,.359.021.54.027-.334.584-.54,1.251-.54,1.973-4.411,0-8,3.589-8,8,0,1.174.424,2.241,1.105,3.096.281,1.52,1.135,2.835,2.329,3.721-3.107-.714-5.434-3.496-5.434-6.817Zm21-5.162v3.286c-.959-1.528-2.208-2.857-3.697-3.871.382-.559.609-1.225.665-1.939,1.119.706,2.136,1.558,3.032,2.524Z"/>
</svg>
