<?xml version="1.0" encoding="UTF-8"?>
<svg xmlns="http://www.w3.org/2000/svg" id="Layer_1" data-name="Layer 1" viewBox="0 0 24 24">
  <path d="m24,8.916v.738l-5,.5v2.745c0,1.48-.198,2.435-.615,3.895l-.385,1.811v5.396h-4v-5h-4.5l-.694,5h-3.954l.681-4.92c-.112-.36-.251-.755-.396-1.173-.489-1.4-1.087-3.126-1.133-4.72-1.323,1.082-2.003,3.02-2.003,5.812H0c0-5.683,2.546-7.73,4.682-8.448l.155-.052h.062c.734-.907,1.842-1.5,3.096-1.5h4.006v-.5c0-1.871.916-5.121,4.079-6.162.302-1.337,1.493-2.338,2.921-2.338v1.654L23.633.052c.201.336.166.277.367.613l-4.177,3.443c.594.994,1.548,1.973,2.764,2.556.858.413,1.413,1.296,1.413,2.252Z"/>
</svg>
