<?xml version="1.0" encoding="UTF-8"?>
<svg xmlns="http://www.w3.org/2000/svg" id="Layer_1" data-name="Layer 1" viewBox="0 0 24 24">
  <path d="m16.949,2.05c-1.321-1.322-3.079-2.05-4.949-2.05s-3.627.728-4.95,2.05c-2.729,2.729-2.729,7.17.008,9.907l4.942,4.833,4.949-4.841c1.322-1.322,2.051-3.08,2.051-4.95s-.729-3.627-2.051-4.95Zm-4.949,7.94c-1.657,0-3-1.343-3-3s1.343-3,3-3,3,1.343,3,3-1.343,3-3,3ZM.767,18.001l6.351.01-.751,5.989H0l.015-1.671.753-4.328Zm6.708-2.838l-.106.848-6.254-.01,1.044-6.002h1.356c.443,1.257,1.168,2.411,2.145,3.388l1.816,1.776Zm16.525,7.336v1.5h-6.367l-.749-5.973,6.345.01.771,4.463Zm-9.132-4.476l.75,5.976h-7.235l.751-5.985,1.259.002,1.608,1.572,1.602-1.567,1.266.002Zm8.016-1.987l-6.251-.01-.108-.864,1.839-1.799c.966-.966,1.685-2.113,2.126-3.364h1.351l1.043,6.036Z"/>
</svg>
