<?xml version="1.0" encoding="UTF-8"?>
<svg xmlns="http://www.w3.org/2000/svg" id="Layer_1" data-name="Layer 1" viewBox="0 0 24 24" width="512" height="512"><path d="M24,15.5c0,3.584-2.916,6.5-6.5,6.5h-5c-3.584,0-6.5-2.916-6.5-6.5s2.916-6.5,6.5-6.5h1.471c-.137,1.14-.764,2-1.971,2-2.236,.26-4,2.196-4,4.5,0,2.481,2.019,4.5,4.5,4.5h5c2.481,0,4.5-2.019,4.5-4.5,0-1.778-1.045-3.304-2.545-4.034,.236-.631,.404-1.295,.484-1.987,2.378,.967,4.061,3.3,4.061,6.021ZM2,8.5c0-2.481,2.019-4.5,4.5-4.5h5c2.481,0,4.5,2.019,4.5,4.5,0,2.304-1.764,4.24-4,4.5-1.207,0-1.834,.86-1.971,2h1.471c3.584,0,6.5-2.916,6.5-6.5s-2.916-6.5-6.5-6.5H6.5C2.916,2,0,4.916,0,8.5c0,2.721,1.683,5.054,4.061,6.021,.08-.692,.247-1.355,.484-1.987-1.5-.731-2.545-2.256-2.545-4.034Z"/></svg>
