<?xml version="1.0" encoding="UTF-8"?>
<svg xmlns="http://www.w3.org/2000/svg" id="Layer_1" data-name="Layer 1" viewBox="0 0 24 24">
  <path d="m6.5,0C2.91,0,0,2.91,0,6.5s2.91,6.5,6.5,6.5,6.5-2.91,6.5-6.5S10.09,0,6.5,0Zm-1.479,5.24l3.286.548c1.271.211,2.193,1.3,2.193,2.588,0,1.447-1.177,2.624-2.624,2.624h-.376v1h-2v-1c-1.654,0-3-1.346-3-3h2c0,.551.449,1,1,1h2.376c.344,0,.624-.28.624-.624,0-.307-.22-.565-.521-.616l-3.286-.548c-1.27-.211-2.192-1.3-2.192-2.588,0-1.447,1.177-2.624,2.624-2.624h.376v-1h2v1c1.654,0,3,1.346,3,3h-2c0-.551-.448-1-1-1h-2.376c-.344,0-.624.28-.624.624,0,.307.219.565.521.616Zm3.398,13.354c.774.775.774,2.037,0,2.812l-2.507,2.507-1.414-1.414,1.498-1.498h-2.997c-1.654,0-3-1.346-3-3v-4h2v4c0,.552.449,1,1,1h3.006l-1.508-1.498,1.414-1.414,2.506,2.506Zm15.581-12.594v4h-2v-4c0-.552-.449-1-1-1h-3.006l1.508,1.498-1.414,1.414-2.506-2.506c-.774-.775-.774-2.037,0-2.812L18.087.088l1.414,1.414-1.498,1.498h2.997c1.654,0,3,1.346,3,3Zm-5,12.227l4.996-2.81v5.728l-4.996,2.855v-5.773Zm-7.004-2.814l5.004,2.814v5.777l-5.004-2.859v-5.732Zm11.365-1.934l-5.361,3.015-5.365-3.018,5.361-3.064,5.365,3.066Z"/>
</svg>
