<?xml version="1.0" encoding="UTF-8"?>
<svg xmlns="http://www.w3.org/2000/svg" id="Layer_1" data-name="Layer 1" viewBox="0 0 24 24" width="512" height="512"><path d="m17,4H7c-1.654,0-3,1.346-3,3v10c0,1.654,1.346,3,3,3h10c1.654,0,3-1.346,3-3V7c0-1.654-1.346-3-3-3Zm-5,12.2s-4-2.778-4-5.04c0-1.193.895-2.16,2-2.16s2,.807,2,2c0-1.193.895-2,2-2s2,.967,2,2.16c0,2.262-4,5.04-4,5.04ZM6,2.101V0h12v2.101c-.323-.066-.658-.101-1-.101H7c-.342,0-.677.035-1,.101Zm1,19.899h10c.342,0,.677-.035,1-.101v2.101H6v-2.101c.323.066.658.101,1,.101Z"/></svg>
