<?xml version="1.0" encoding="UTF-8"?>
<svg xmlns="http://www.w3.org/2000/svg" id="Layer_1" data-name="Layer 1" viewBox="0 0 24 24">
  <path d="m21.5,9.5c-1.025,0-1.903.618-2.289,1.5h-3.353c-.176-.677-.515-1.286-.987-1.774.45-.734,1.144-1.867,1.747-2.853.954.131,1.94-.295,2.475-1.169.721-1.177.351-2.717-.826-3.438s-2.717-.351-3.438.827c-.535.874-.467,1.946.084,2.736-.607.991-1.304,2.13-1.753,2.863-.37-.113-.754-.192-1.16-.192s-.79.079-1.16.192c-.449-.733-1.147-1.872-1.753-2.863.551-.79.619-1.862.084-2.736-.721-1.177-2.26-1.548-3.438-.827s-1.548,2.26-.826,3.438c.535.874,1.521,1.3,2.475,1.169.604.986,1.298,2.119,1.747,2.853-.472.488-.811,1.098-.987,1.774h-3.353c-.386-.882-1.264-1.5-2.289-1.5-1.381,0-2.5,1.119-2.5,2.5s1.119,2.5,2.5,2.5c1.025,0,1.903-.618,2.289-1.5h3.353c.176.677.515,1.286.987,1.774l-1.747,2.853c-.954-.132-1.94.295-2.475,1.169-.721,1.177-.351,2.717.826,3.438s2.717.351,3.438-.826c.535-.874.467-1.945-.084-2.735l1.754-2.863c.369.113.753.192,1.159.192s.79-.079,1.159-.192l1.754,2.863c-.551.79-.619,1.862-.084,2.735.721,1.177,2.26,1.547,3.438.826s1.548-2.26.826-3.438c-.535-.874-1.521-1.3-2.475-1.169l-1.747-2.853c.472-.488.811-1.098.987-1.774h3.353c.386.882,1.264,1.5,2.289,1.5,1.381,0,2.5-1.119,2.5-2.5s-1.119-2.5-2.5-2.5Z"/>
</svg>
