<?xml version="1.0" encoding="UTF-8"?>
<svg xmlns="http://www.w3.org/2000/svg" id="Layer_1" data-name="Layer 1" viewBox="0 0 24 24" width="512" height="512"><path d="M17.42,13.41l-2.91,2.91-1.41-1.41,1.9-1.9h-6l1.91,1.9-1.41,1.41-2.91-2.91c-.77-.78-.77-2.04,0-2.81l2.92-2.92,1.41,1.41-1.91,1.91h6l-1.92-1.91,1.41-1.41,2.92,2.92c.77,.78,.77,2.04,0,2.81ZM5,5c1.38,0,2.5-1.12,2.5-2.5S6.38,0,5,0,2.5,1.12,2.5,2.5s1.12,2.5,2.5,2.5Zm.17,4.17l2.95-2.95c-.35-.14-.73-.22-1.13-.22H3c-1.66,0-3,1.34-3,3v8H2v7h2v-7h2v7h2v-6.35l-2.83-2.83c-1.56-1.56-1.56-4.09,0-5.65Zm13.83-4.17c1.38,0,2.5-1.12,2.5-2.5s-1.12-2.5-2.5-2.5-2.5,1.12-2.5,2.5,1.12,2.5,2.5,2.5Zm2,1h-4c-.4,0-.78,.08-1.13,.22l2.95,2.95c1.56,1.56,1.56,4.09,0,5.65l-2.83,2.83v6.35h2v-7h2v7h2v-7h2V9c0-1.66-1.34-3-3-3Z"/></svg>
