<?xml version="1.0" encoding="UTF-8"?>
<svg xmlns="http://www.w3.org/2000/svg" id="Layer_1" data-name="Layer 1" viewBox="0 0 24 24">
  <path d="m10,10c0,.378.271.698.644.76l3.041.507c1.342.223,2.315,1.373,2.315,2.733,0,1.654-1.346,3-3,3v2h-2v-2c-1.654,0-3-1.346-3-3h2c0,.551.448,1,1,1h2c.552,0,1-.449,1-1,0-.378-.271-.698-.644-.76l-3.041-.507c-1.342-.223-2.315-1.373-2.315-2.733,0-1.654,1.346-3,3-3v-2h2v2c1.654,0,3,1.346,3,3h-2c0-.551-.448-1-1-1h-2c-.552,0-1,.449-1,1Zm7.519-2.105l2.188-2.188c.392.188.83.293,1.293.293,1.654,0,3-1.346,3-3s-1.346-3-3-3-3,1.346-3,3c0,.463.105.901.293,1.293l-1.986,1.986c.506.451.921.995,1.212,1.616ZM6,3c0-1.654-1.346-3-3-3S0,1.346,0,3s1.346,3,3,3c.463,0,.901-.105,1.293-.293l2.188,2.188c.291-.621.706-1.165,1.212-1.616l-1.986-1.986c.188-.392.293-.83.293-1.293Zm15,15c-.463,0-.901.105-1.293.293l-2.188-2.188c-.291.621-.706,1.165-1.212,1.616l1.986,1.986c-.188.392-.293.83-.293,1.293,0,1.654,1.346,3,3,3s3-1.346,3-3-1.346-3-3-3Zm-14.519-1.895l-2.188,2.188c-.392-.188-.83-.293-1.293-.293-1.654,0-3,1.346-3,3s1.346,3,3,3,3-1.346,3-3c0-.463-.105-.901-.293-1.293l1.986-1.986c-.506-.451-.921-.995-1.212-1.616Z"/>
</svg>
