<?xml version="1.0" encoding="UTF-8"?>
<svg xmlns="http://www.w3.org/2000/svg" id="Layer_1" data-name="Layer 1" viewBox="0 0 24 24">
  <path d="m20,22.5v1.5H4v-1.5c0-2.481,2.019-4.5,4.5-4.5h.181l3.334,4,3.333-4h.152c2.481,0,4.5,2.019,4.5,4.5ZM13.722.391c-1.047-.521-2.399-.521-3.446,0L2.057,4.5l8.219,4.109c.524.262,1.124.393,1.724.393s1.2-.131,1.724-.393l6.276-3.137v6.529h2v-7.5L13.722.391Zm4.278,8.316l-3.382,1.691c-.788.395-1.694.604-2.618.604s-1.827-.208-2.617-.604l-3.383-1.691v1.293c0,3.309,2.691,6,6,6s6-2.691,6-6v-1.293Z"/>
</svg>
