<?xml version="1.0" encoding="UTF-8"?>
<svg xmlns="http://www.w3.org/2000/svg" id="Layer_1" data-name="Layer 1" viewBox="0 0 24 24">
  <path d="m19.414,5h-4.414V.586l4.414,4.414Zm3.148,18.976l-3.089-3.089c-.981.698-2.177,1.113-3.473,1.113-3.314,0-6-2.686-6-6s2.686-6,6-6,6,2.686,6,6c0,1.296-.415,2.492-1.113,3.473l3.089,3.089-1.414,1.414Zm-5.81-5.537l3.607-3.696-1.398-1.43-3.614,3.703-2.216-2.301-1.387,1.441,2.182,2.268c.766.765,2.079.763,2.823.019l.004-.004Zm-8.163.56h-4.589v-2h4.069c-.041-.328-.069-.661-.069-1s.028-.672.069-1h-4.069v-2h4.589c.295-.726.692-1.398,1.176-2h-5.765v-2h8.136c1.147-.636,2.463-1,3.864-1,1.458,0,2.822.398,4,1.082v-2.082h-7V0H3C1.343,0,0,1.343,0,3v21h16c-3.35,0-6.221-2.072-7.411-5Z"/>
</svg>
