<?xml version="1.0" encoding="UTF-8"?>
<svg xmlns="http://www.w3.org/2000/svg" id="Layer_1" data-name="Layer 1" viewBox="0 0 24 24">
  <path d="m18.748,17.334c1.988-1.826,3.252-4.427,3.252-7.334C22,4.486,17.514,0,12,0c-2.907,0-5.508,1.264-7.334,3.252L1.457.043.043,1.457l22.5,22.5,1.414-1.414-5.209-5.209Zm-6.748-12.334c2.757,0,5,2.243,5,5,0,1.53-.705,2.881-1.794,3.792l-1.407-1.407c.725-.548,1.201-1.409,1.201-2.385,0-1.654-1.346-3-3-3-.977,0-1.837.476-2.385,1.201l-1.407-1.407c.911-1.089,2.262-1.794,3.792-1.794Zm6.861,18.083l.155.917H4.817l.196-1.166c.151-.897.475-1.737.935-2.489,1.779,1.045,3.843,1.655,6.051,1.655,1.697,0,3.304-.37,4.768-1.01l2.093,2.093ZM2,10c0-1.132.198-2.217.546-3.232l4.699,4.699c.487,1.572,1.717,2.801,3.288,3.288l4.699,4.699c-1.015.348-2.1.546-3.232.546-5.514,0-10-4.486-10-10Z"/>
</svg>
