<?xml version="1.0" encoding="UTF-8"?>
<svg xmlns="http://www.w3.org/2000/svg" id="Layer_1" data-name="Layer 1" viewBox="0 0 24 24">
  <path d="m17,0H7C4.243,0,2,2.243,2,5v15c0,2.206,1.794,4,4,4h11c2.757,0,5-2.243,5-5V5c0-2.757-2.243-5-5-5Zm3,11h-3c-.552,0-1-.448-1-1s.448-1,1-1h3v2Zm0-6v2h-3c-1.654,0-3,1.346-3,3s1.346,3,3,3h3v3h-12V2h9c1.654,0,3,1.346,3,3ZM6,2.172v13.828c-.728,0-1.411.196-2,.537V5c0-1.304.836-2.415,2-2.828Zm11,19.828H6c-1.103,0-2-.897-2-2s.897-2,2-2h14v1c0,1.654-1.346,3-3,3Z"/>
</svg>
