<?xml version="1.0" encoding="UTF-8"?>
<svg xmlns="http://www.w3.org/2000/svg" id="Layer_1" data-name="Layer 1" viewBox="0 0 24 24">
  <path d="m21.362,8.072c-.43-.048-.889-.072-1.362-.072-2.804,0-5.114,2.69-5.588,3.282-.565-.188-1.207-.304-1.934-.282-1.381.031-2.585.489-3.561,1.058.165-1.25.136-2.42.106-3.394-.021-.642-.039-1.258.01-1.713l2.29-.729c.415-.132.697-.518.697-.953v-.281l.789-.287c.474-.188.857-.567,1.051-1.039.192-.469.188-.98-.014-1.441-.591-1.349-2.101-2.221-3.846-2.221-1.825,0-3.223,1.187-3.323,1.278C.693,5.88-.004,12.035-.009,16.264c-.002,1.353.555,2.661,1.528,3.592,1.631,1.557,5.162,4.168,10.48,4.168,4.686,0,7.966-1.223,9.893-2.249,1.3-.691,2.107-2.043,2.107-3.526v-7.195c0-1.53-1.134-2.812-2.638-2.98Zm.638,10.176c0,.742-.401,1.417-1.047,1.761-1.726.919-4.68,2.015-8.953,2.015-4.622,0-7.685-2.265-9.1-3.614-.588-.562-.911-1.322-.909-2.143.005-4.129.68-9.384,5.953-13.442.009-.008.967-.824,2.056-.824.986,0,1.662.427,1.943.889l-1.266.46c-.396.144-.658.519-.658.939v.25l-2.143.682c-.299.095-.535.324-.64.619-.279.788-.249,1.761-.214,2.887.052,1.699.124,3.824-.906,5.828-.069.136-.117.284-.117.447,0,.552.448,1,1,1,.32,0,.591-.159.774-.393.02-.025,2.006-2.547,4.748-2.607,1.95,0,3.097,1.484,3.15,1.562.308.454.928.575,1.385.268.458-.308.58-.929.272-1.388-.032-.048-.413-.61-1.129-1.182.745-.848,2.3-2.26,3.799-2.26.399,0,.783.021,1.14.061.49.055.86.481.86.992v7.195Z"/>
</svg>
