<?xml version="1.0" encoding="UTF-8"?>
<svg xmlns="http://www.w3.org/2000/svg" id="Layer_1" data-name="Layer 1" viewBox="0 0 24 24">
  <path d="m22,8.002h-.63c-.535-3.348-2.817-6.114-5.886-7.329C15.118.264,14.592.002,14,.002h-4c-.592,0-1.118.262-1.484.671-3.068,1.216-5.35,3.982-5.885,7.329h-.63c-.553,0-1,.448-1,1s.447,1,1,1h.692l2.153,10.048c.491,2.29,2.547,3.952,4.889,3.952h4.532c2.343,0,4.398-1.662,4.89-3.952l2.153-10.048h.692c.553,0,1-.448,1-1s-.447-1-1-1Zm-4.8,11.628c-.295,1.375-1.529,2.372-2.935,2.372h-4.532c-1.405,0-2.639-.997-2.934-2.372l-1.206-5.628h9.906c.553,0,1-.447,1-1s-.447-1-1-1H5.165l-.429-2h14.527l-2.063,9.628ZM4.651,8.002c.436-2.14,1.789-3.945,3.625-5.001.346.596.984,1.001,1.723,1.001h4c.739,0,1.377-.405,1.723-1.001,1.837,1.056,3.19,2.862,3.626,5.002H4.651Z"/>
</svg>
