<?xml version="1.0" encoding="UTF-8"?>
<svg xmlns="http://www.w3.org/2000/svg" id="Layer_1" data-name="Layer 1" viewBox="0 0 24 24">
  <path d="m9.5,2.5c0-1.381,1.119-2.5,2.5-2.5s2.5,1.119,2.5,2.5-1.119,2.5-2.5,2.5-2.5-1.119-2.5-2.5Zm11.5.5c-1.654,0-3,1.346-3,3v5.184c-.266-.094-.542-.164-.832-.18-.793-.042-1.567.226-2.173.769l-3.009,2.769c-.083-.084-.16-.172-.247-.253l-2.744-2.525c-.597-.534-1.374-.801-2.163-.76-.29.016-.566.086-.832.18v-5.184c0-1.654-1.346-3-3-3S0,4.346,0,6v10.101c0,2.137.832,4.146,2.343,5.657l1.95,1.95c.195.195.451.293.707.293s.512-.098.707-.293c.391-.391.391-1.024,0-1.414l-1.95-1.95c-1.133-1.133-1.757-2.64-1.757-4.243V6c0-.551.448-1,1-1s1,.449,1,1c0,0-.005,8.076,0,8.116.03.655.285,1.309.746,1.857l2.616,2.721c.382.398,1.015.411,1.414.027.397-.383.41-1.016.027-1.414l-2.571-2.67c-.316-.377-.307-.938.022-1.305.177-.198.421-.315.687-.33.263-.018.521.075.71.244l2.733,2.516c1.026.944,1.615,2.286,1.615,3.68v3.559c0,.552.447,1,1,1s1-.448,1-1v-3.559c0-1.152-.294-2.275-.824-3.276l3.163-2.911c.198-.178.455-.271.72-.253.266.015.51.132.687.33.16.178.441.88.067,1.254l-2.533,2.634c-.383.398-.37,1.031.027,1.414.194.187.443.279.693.279.263,0,.524-.103.721-.307l2.578-2.685c.45-.536.686-1.195.701-1.857.002-.023,0-8.065,0-8.065,0-.551.448-1,1-1s1,.449,1,1v10.101c0,1.603-.624,3.109-1.757,4.243l-1.95,1.95c-.391.39-.391,1.023,0,1.414.195.195.451.293.707.293s.512-.098.707-.293l1.95-1.95c1.511-1.511,2.343-3.52,2.343-5.657V6c0-1.654-1.346-3-3-3Zm-10.671,7.274l.864.795c.456.42,1.158.42,1.614,0l.834-.767c.669-.599,1.483-.987,2.338-1.17.005-.008.008-.012.013-.02-.413-1.782-2.043-3.112-3.991-3.112s-3.577,1.329-3.991,3.11c.005.008.007.012.012.019.831.173,1.631.539,2.308,1.144Z"/>
</svg>
