<?xml version="1.0" encoding="UTF-8"?>
<svg xmlns="http://www.w3.org/2000/svg" id="Layer_1" data-name="Layer 1" viewBox="0 0 24 24">
  <path d="m23.707,10.293c.391.391.391,1.023,0,1.414l-6.327,6.327c-1.312,1.312-3.447,1.312-4.76,0l-1.654-1.654c-.532-.532-1.399-.532-1.932,0l-5.62,5.62h2.586c.552,0,1,.448,1,1s-.448,1-1,1H2c-1.103,0-2-.897-2-2v-4c0-.552.448-1,1-1s1,.448,1,1v2.586l5.62-5.62c1.271-1.271,3.488-1.271,4.76,0l1.654,1.654c.516.516,1.416.516,1.932,0l6.327-6.327c.391-.391,1.023-.391,1.414,0Zm-1.707-10.293h-4c-.553,0-1,.448-1,1s.447,1,1,1h2.586l-5.62,5.62c-.533.532-1.398.532-1.932,0l-1.654-1.654c-1.312-1.312-3.447-1.312-4.76,0L.293,12.293c-.391.391-.391,1.023,0,1.414.195.195.451.293.707.293s.512-.098.707-.293l6.327-6.327c.516-.516,1.416-.516,1.932,0l1.654,1.654c1.271,1.271,3.488,1.271,4.76,0l5.62-5.62v2.586c0,.552.447,1,1,1s1-.448,1-1V2c0-1.103-.897-2-2-2Z"/>
</svg>
