<?xml version="1.0" encoding="UTF-8"?>
<svg xmlns="http://www.w3.org/2000/svg" id="Layer_1" data-name="Layer 1" viewBox="0 0 24 24">
  <path d="m7,23c0,.552-.448,1-1,1h-1.15c-1.806,0-3.365-1.167-3.88-2.904-.644-2.167-.97-3.933-.97-5.246,0-1.587.489-2.913.899-3.746.336-.681,1.021-1.104,1.789-1.104h.452c.169-.389.413-.752.684-1.129.711-.986,1.517-2.104,1.25-4.264-.042-.343-.08-.8.002-1.302.254-1.573,1.515-2.897,3.065-3.219.27-.057.557-.085.85-.085h.016c.293,0,.58.029.852.085,1.548.322,2.809,1.646,3.064,3.22.082.501.044.958.002,1.301-.162,1.319.075,2.249.446,2.998.23.464.07,1.018-.386,1.265-.032.017-.064.035-.096.053-.454.255-1.041.096-1.277-.368-.514-1.008-.9-2.342-.672-4.192.039-.312.041-.54.009-.737-.124-.763-.753-1.428-1.499-1.583-.138-.029-.262-.042-.449-.043h-.004s-.312.015-.447.043c-.747.155-1.376.82-1.5,1.582-.032.198-.03.426.009.738.357,2.904-.799,4.546-1.585,5.637h4.524c.552,0,1,.448,1,1s-.448,1-1,1H2.688c-.253.514-.688,1.584-.688,2.85,0,1.104.307,2.722.887,4.677.261.881,1.05,1.473,1.963,1.473h1.15c.552,0,1,.448,1,1Zm16.839-.183c-.31.719-1.016,1.183-1.798,1.183h-11.041c-.783,0-1.488-.464-1.798-1.184s-.162-1.552.377-2.121c1.142-1.208,1.7-2.382,1.549-3.242-.108-.611-.111-1.239-.009-1.865.359-2.216,2.069-4.012,4.255-4.467.754-.157,1.588-.157,2.342,0,2.187.455,3.896,2.25,4.255,4.468.102.625.099,1.253-.01,1.865-.152.873.401,2.078,1.48,3.221.002.001.003.003.005.004.555.589.701,1.419.393,2.138Zm-1.896-.816c-.904-.969-2.31-2.851-1.952-4.892.069-.392.071-.794.005-1.199-.224-1.384-1.329-2.547-2.688-2.83-.241-.05-.49-.075-.763-.075s-.521.024-.763.075c-1.359.283-2.465,1.446-2.689,2.83-.065.405-.063.808.005,1.198.34,1.937-.925,3.756-2.046,4.941l10.892-.048Z"/>
</svg>
