<?xml version="1.0" encoding="UTF-8"?>
<svg xmlns="http://www.w3.org/2000/svg" id="Layer_1" data-name="Layer 1" viewBox="0 0 24 24">
  <path d="m23,12c-.553,0-1,.447-1,1v3h-6.086l-5.914-5.914V2h1c.552,0,1-.447,1-1s-.448-1-1-1h-6C2.243,0,0,2.243,0,5v14c0,2.757,2.243,5,5,5h14c2.757,0,5-2.243,5-5v-6c0-.553-.447-1-1-1ZM5,2h3v7.9l-6,3.199V5c0-1.654,1.346-3,3-3Zm-3,17v-3.633l6.817-3.636,5.362,5.362-3.679,4.906h-5.5c-1.654,0-3-1.346-3-3Zm17,3h-6l3-4h6v1c0,1.654-1.346,3-3,3Zm-2.549-10.811c.564.553,1.307.829,2.049.828.742,0,1.484-.275,2.049-.828l1.84-1.801c1.039-1.038,1.611-2.419,1.611-3.889s-.572-2.851-1.611-3.889c-1.039-1.039-2.42-1.611-3.889-1.611s-2.851.572-3.889,1.611c-1.039,1.038-1.611,2.419-1.611,3.889s.572,2.851,1.619,3.896l1.832,1.793Zm-.426-8.164c.661-.661,1.539-1.025,2.475-1.025s1.813.364,2.475,1.025,1.025,1.54,1.025,2.475-.364,1.813-1.018,2.467l-1.832,1.793c-.359.35-.941.352-1.301,0l-1.824-1.785c-.661-.661-1.025-1.54-1.025-2.475s.364-1.813,1.025-2.475Zm.974,2.469c0-.828.672-1.5,1.5-1.5s1.5.672,1.5,1.5-.672,1.5-1.5,1.5-1.5-.672-1.5-1.5Z"/>
</svg>
