<?xml version="1.0" encoding="UTF-8"?>
<svg xmlns="http://www.w3.org/2000/svg" id="Layer_1" data-name="Layer 1" viewBox="0 0 24 24">
  <path d="m5.5,7c1.93,0,3.5-1.57,3.5-3.5S7.43,0,5.5,0s-3.5,1.57-3.5,3.5,1.57,3.5,3.5,3.5Zm0-5c.827,0,1.5.673,1.5,1.5s-.673,1.5-1.5,1.5-1.5-.673-1.5-1.5.673-1.5,1.5-1.5Zm12,15c2.481,0,4.5-2.019,4.5-4.5s-2.019-4.5-4.5-4.5-4.5,2.019-4.5,4.5,2.019,4.5,4.5,4.5Zm0-7c1.379,0,2.5,1.121,2.5,2.5s-1.121,2.5-2.5,2.5-2.5-1.121-2.5-2.5,1.121-2.5,2.5-2.5Zm-9.067,8.607c.76.762.76,2.023-.013,2.798l-2.199,2.288c-.196.204-.458.307-.721.307-.25,0-.499-.093-.693-.279-.398-.383-.411-1.016-.028-1.414l1.256-1.307h-2.035c-2.206,0-4-1.794-4-4v-1c0-.553.448-1,1-1s1,.447,1,1v1c0,1.103.897,2,2,2h2.029l-1.25-1.307c-.383-.398-.371-1.031.028-1.414.398-.382,1.031-.371,1.414.027l2.212,2.301Zm14.85,5.352c-.095.028-.189.041-.282.041-.433,0-.831-.282-.959-.718-.568-1.933-2.436-3.282-4.541-3.282s-3.973,1.35-4.541,3.282c-.156.529-.71.836-1.242.677-.53-.155-.833-.711-.677-1.241.817-2.777,3.473-4.718,6.459-4.718s5.643,1.94,6.459,4.718c.156.53-.147,1.086-.677,1.241Zm-12.931-11.022c-.116.043-.234.063-.351.063-.405,0-.786-.247-.937-.649-.527-1.406-1.959-2.351-3.563-2.351s-3.037.944-3.563,2.351c-.194.519-.771.777-1.288.586-.517-.194-.779-.771-.585-1.287.818-2.183,3.003-3.649,5.437-3.649s4.618,1.467,5.437,3.649c.194.517-.068,1.093-.585,1.287Z"/>
</svg>
