<?xml version="1.0" encoding="UTF-8"?>
<svg xmlns="http://www.w3.org/2000/svg" id="Layer_1" data-name="Layer 1" viewBox="0 0 24 24">
  <path d="m20.5,15c-1.93,0-3.5,1.57-3.5,3.5s1.57,3.5,3.5,3.5,3.5-1.57,3.5-3.5-1.57-3.5-3.5-3.5Zm2.5-2c.553,0,1-.448,1-1s-.447-1-1-1h-2.5c-.268,0-.534.018-.797.049l-1.676-4.312c.289.163.618.263.974.263.552,0,1-.448,1-1v-2c0-.552-.448-1-1-1-.893,0-1.64.589-1.897,1.397-.639-1.458-2.051-2.397-3.655-2.397h-.448c-.553,0-1,.448-1,1s.447,1,1,1h.448c.817,0,1.566.513,1.864,1.275l2.447,6.292c-.932.399-1.783.996-2.484,1.775l-1.641,1.947c-.381.452-.938.711-1.529.711h-.229l-2.194-5.485c-.61-1.528-2.068-2.515-3.714-2.515h-1.969c-2.206,0-4,1.794-4,4v2c0,1.533.877,2.852,2.146,3.523-.091.315-.146.641-.146.977,0,1.93,1.57,3.5,3.5,3.5s3.5-1.57,3.5-3.5c0-.169-.016-.335-.04-.5h3.145c1.182,0,2.297-.518,3.059-1.422l1.619-1.923c.947-1.052,2.302-1.655,3.717-1.655h2.5Zm-19,3c-1.103,0-2-.897-2-2v-2c0-1.103.897-2,2-2h1.969c.822,0,1.552.493,1.856,1.257l1.897,4.743h-5.723Z"/>
</svg>
