<?xml version="1.0" encoding="UTF-8"?>
<svg xmlns="http://www.w3.org/2000/svg" id="Layer_1" data-name="Layer 1" viewBox="0 0 24 24">
  <path d="m22,18.172v-6.172c0-.552-.448-1-1-1s-1,.448-1,1v6h-4.5c-.265,0-.52.105-.707.293l-.707.707h-4.172l-.707-.707c-.188-.188-.442-.293-.707-.293h-4.5v-7c0-1.654,1.346-3,3-3h4c.552,0,1-.448,1-1s-.448-1-1-1h-4c-2.757,0-5,2.243-5,5v7.172c-1.164.413-2,1.524-2,2.828,0,1.654,1.346,3,3,3h18c1.654,0,3-1.346,3-3,0-1.304-.836-2.415-2-2.828Zm-1,3.828H3c-.551,0-1-.449-1-1s.449-1,1-1h5.086l.707.707c.188.188.442.293.707.293h5c.265,0,.52-.105.707-.293l.707-.707h5.086c.551,0,1,.449,1,1s-.449,1-1,1Zm.048-22h-4.096c-1.628,0-2.952,1.324-2.952,2.952v2.096c0,1.495,1.117,2.734,2.561,2.926l1.379,1.141c.292.26.659.388,1.021.388.354,0,.705-.123.977-.365l1.39-1.151c1.497-.142,2.672-1.406,2.672-2.939v-2.096c0-1.628-1.324-2.952-2.952-2.952Zm.952,5.048c0,.525-.427.952-.952.952h-.096c-.233,0-.458.081-.638.23l-1.362,1.128-1.363-1.128c-.179-.148-.405-.229-.638-.229-.525,0-.952-.427-.952-.952v-2.096c0-.525.427-.952.952-.952h4.096c.525,0,.952.427.952.952v2.096Zm-10.034,11.041c.023.07.034.141.034.21-.002.373-.328.701-.742.701h-4.515c-.491,0-.858-.46-.709-.911.4-1.212,1.577-2.089,2.966-2.089s2.566.878,2.966,2.089Zm-2.966-3.089c-1.105,0-2-.895-2-2s.895-2,2-2,2,.895,2,2-.895,2-2,2Zm3,3.299c0-.069.01-.14.034-.21.4-1.212,1.577-2.089,2.966-2.089s2.566.878,2.966,2.089c.149.451-.218.911-.709.911h-4.515c-.414,0-.74-.327-.742-.701Zm1-5.299c0-1.105.895-2,2-2s2,.895,2,2-.895,2-2,2-2-.895-2-2Z"/>
</svg>
