<?xml version="1.0" encoding="UTF-8"?>
<svg xmlns="http://www.w3.org/2000/svg" id="Layer_1" data-name="Layer 1" viewBox="0 0 24 24">
  <path d="m8,19h-3c-1.654,0-3-1.346-3-3V5c0-1.654,1.346-3,3-3v4c0,1.103.897,2,2,2h7c1.103,0,2-.897,2-2v-3.172l2.711,2.734c.187.188.289.438.289.704v1.734c0,.552.447,1,1,1s1-.448,1-1v-1.734c0-.797-.31-1.548-.87-2.112l-3.236-3.265C16.468.459,15.576.004,14.914.004c-.05-.003-9.914-.004-9.914-.004C2.243,0,0,2.243,0,5v11c0,2.757,2.243,5,5,5h3c.553,0,1-.448,1-1s-.447-1-1-1Zm-1-13V2h7v4h-7Zm3.5,11c-1.93,0-3.5-1.57-3.5-3.5s1.57-3.5,3.5-3.5,3.5,1.57,3.5,3.5c0,.552-.447,1-1,1s-1-.448-1-1c0-.827-.673-1.5-1.5-1.5s-1.5.673-1.5,1.5.673,1.5,1.5,1.5c.553,0,1,.448,1,1s-.447,1-1,1Zm12.621-5.121c-1.17-1.17-3.072-1.17-4.242,0l-6.707,6.707c-.756.755-1.172,1.76-1.172,2.828v1.586c0,.552.447,1,1,1h1.586c1.068,0,2.073-.417,2.828-1.172l6.707-6.707c.566-.567.879-1.32.879-2.122s-.313-1.555-.879-2.121Zm-1.414,2.828l-6.707,6.707c-.378.378-.88.586-1.414.586h-.586v-.586c0-.526.214-1.042.586-1.414l6.707-6.707c.391-.39,1.023-.39,1.414,0,.189.188.293.439.293.707s-.104.518-.293.707Z"/>
</svg>
