<?xml version="1.0" encoding="UTF-8"?>
<svg xmlns="http://www.w3.org/2000/svg" id="Layer_1" data-name="Layer 1" viewBox="0 0 24 24">
  <path d="m19,3H5C2.243,3,0,5.243,0,8v8c0,2.757,2.243,5,5,5h14c2.757,0,5-2.243,5-5v-8c0-2.757-2.243-5-5-5Zm3,13c0,1.654-1.346,3-3,3H5c-1.654,0-3-1.346-3-3v-8c0-1.654,1.346-3,3-3h14c1.654,0,3,1.346,3,3v8Zm-15-7.223v.045c0,.429-.348.777-.777.777h-.623v1.801h.623c.429,0,.777.348.777.777v.045c0,.429-.348.777-.777.777h-.623v2.223c0,.429-.348.777-.777.777s-.822-.348-.822-.777v-6.445c0-.429.348-.777.777-.777h1.445c.429,0,.777.348.777.777Zm13,6.4v.045c0,.429-.348.777-.777.777h-1.445c-.429,0-.777-.348-.777-.777v-6.445c0-.429.393-.777.822-.777s.777.348.777.777v5.623h.623c.429,0,.777.348.777.777Zm-4.4-6.4v6.445c0,.429-.348.777-.777.777s-.823-.348-.823-.777v-6.445c0-.429.393-.777.823-.777s.777.348.777.777Zm-4.474-.61c-.232-.112-.476-.168-.718-.168-.282,0-.561.075-.816.225-.471.277-.809.776-.926,1.356l-1.165,5.479c-.103.484.266.939.76.939.365,0,.68-.254.759-.61l.175-.79h2.379l.165.782c.076.36.437.617.804.617.494,0,.862-.454.761-.937l-1.142-5.435c-.135-.668-.523-1.213-1.035-1.459Zm-1.578,4.832l.686-3.104c.03-.149.105-.253.176-.296l.017.006c.024.016.121.118.168.349l.641,3.044h-1.688Z"/>
</svg>
