<?xml version="1.0" encoding="UTF-8"?>
<svg xmlns="http://www.w3.org/2000/svg" id="Layer_1" data-name="Layer 1" viewBox="0 0 24 24">
  <path d="m9.553,14.397c.675.66,1.561.99,2.447.99s1.772-.33,2.447-.99l2.502-2.448c1.322-1.322,2.051-3.08,2.051-4.95s-.729-3.627-2.051-4.95c-1.321-1.322-3.079-2.05-4.949-2.05s-3.627.728-4.95,2.05c-2.729,2.729-2.729,7.17.008,9.907l2.495,2.44Zm-1.088-10.933c.944-.944,2.2-1.464,3.536-1.464s2.591.52,3.535,1.464,1.465,2.2,1.465,3.536-.521,2.591-1.457,3.528l-2.494,2.44c-.578.564-1.52.564-2.098,0l-2.487-2.432c-.944-.944-1.464-2.2-1.464-3.536s.52-2.591,1.464-3.536Zm.535,3.526c0-1.657,1.343-3,3-3s3,1.343,3,3-1.343,3-3,3-3-1.343-3-3Zm14.945,12.353l-1-6c-.14-.841-.535-1.601-1.144-2.198-.396-.386-1.028-.382-1.414.015-.387.394-.381,1.027.014,1.414.304.297.501.677.571,1.097l.388,2.329H2.639l.388-2.329c.075-.447.301-.86.639-1.161.412-.368.447-1,.079-1.412-.368-.412-1-.447-1.412-.079-.675.604-1.129,1.429-1.278,2.324L.055,19.342c-.194,1.162.131,2.344.893,3.243.761.899,1.874,1.415,3.052,1.415h16c1.178,0,2.29-.516,3.052-1.414.762-.899,1.087-2.081.894-3.243Zm-8.997-1.343l.557,4h-7.011l.556-4h5.898Zm-12.475,3.293c-.38-.45-.543-1.041-.446-1.622l.279-1.671h4.726l-.556,4h-2.476c-.589,0-1.146-.258-1.526-.707Zm19.052,0c-.381.449-.937.707-1.525.707h-2.476l-.557-4h4.727l.279,1.671c.097.581-.066,1.172-.447,1.622Z"/>
</svg>
