<?xml version="1.0" encoding="UTF-8"?>
<svg xmlns="http://www.w3.org/2000/svg" id="Layer_1" data-name="Layer 1" viewBox="0 0 24 24">
  <path d="m23.169,16.111l-3.698-3.712c-.657-.658-1.599-.983-2.518-.856l-3.073.405c-1.1.146-1.962,1.055-2.05,2.16l-.238,2.979c-.069.875.246,1.733.865,2.355l3.708,3.723c.535.532,1.244.825,1.998.825.004,0,.008,0,.012,0,.759-.003,1.47-.302,2.003-.842l3.005-3.044c1.092-1.105,1.084-2.898-.014-3.993Zm-1.409,2.589l-3.005,3.043c-.157.159-.366.247-.588.248h-.003c-.222,0-.43-.087-.584-.24l-3.705-3.72c-.207-.207-.312-.493-.288-.785l.238-2.979c.014-.172.148-.313.319-.336,0,0,3.158-.414,3.201-.414.264,0,.522.106.71.295l3.7,3.714c.324.322.326.85.005,1.175Zm-3.76-2.2c0,.828-.672,1.5-1.5,1.5s-1.5-.672-1.5-1.5.672-1.5,1.5-1.5,1.5.672,1.5,1.5Zm-10-4.5c3.309,0,6-2.691,6-6S11.309,0,8,0,2,2.691,2,6s2.691,6,6,6Zm0-10c2.206,0,4,1.794,4,4s-1.794,4-4,4-4-1.794-4-4,1.794-4,4-4Zm2,13c0,.553-.448,1-1,1-3.86,0-7,3.141-7,7,0,.553-.448,1-1,1s-1-.447-1-1c0-4.963,4.038-9,9-9,.552,0,1,.447,1,1Z"/>
</svg>
