<?xml version="1.0" encoding="UTF-8"?>
<svg xmlns="http://www.w3.org/2000/svg" id="Layer_1" data-name="Layer 1" viewBox="0 0 24 24">
  <path d="m22.242,5.272l-3.515-3.515c-1.133-1.133-2.64-1.757-4.242-1.757h-4.971c-1.602,0-3.109.624-4.243,1.757l-3.515,3.515c-1.133,1.134-1.757,2.641-1.757,4.243v4.971c0,1.602.624,3.109,1.757,4.243l3.515,3.515c1.134,1.133,2.641,1.757,4.243,1.757h4.971c1.603,0,3.109-.624,4.242-1.757l3.515-3.514c1.134-1.133,1.758-2.64,1.758-4.243v-4.971c0-1.603-.624-3.11-1.758-4.243Zm-.242,9.213c0,1.069-.416,2.073-1.172,2.829l-3.515,3.515c-.756.755-1.76,1.171-2.828,1.171h-4.971c-1.068,0-2.073-.416-2.829-1.171l-3.514-3.515c-.756-.756-1.172-1.76-1.172-2.829v-4.971c0-1.068.416-2.073,1.171-2.829l3.515-3.514c.756-.756,1.76-1.172,2.829-1.172h4.971c1.068,0,2.072.416,2.828,1.171l3.515,3.515c.756.755,1.172,1.759,1.172,2.828v4.971Zm-5.561-5.511l-3.043,3.043,3.043,3.043c.391.391.391,1.023,0,1.414-.195.195-.451.293-.707.293s-.512-.098-.707-.293l-3.043-3.043-3.043,3.043c-.195.195-.451.293-.707.293s-.512-.098-.707-.293c-.391-.391-.391-1.023,0-1.414l3.043-3.043-3.043-3.043c-.391-.391-.391-1.023,0-1.414s1.023-.391,1.414,0l3.043,3.043,3.043-3.043c.391-.391,1.023-.391,1.414,0s.391,1.023,0,1.414Z"/>
</svg>
