<?xml version="1.0" encoding="UTF-8"?>
<svg xmlns="http://www.w3.org/2000/svg" id="Layer_1" data-name="Layer 1" viewBox="0 0 24 24">
  <path d="m10,2c0-1.105.895-2,2-2s2,.895,2,2c0,.738-.405,1.376-1,1.723v3.777c0,.553-.447,1-1,1s-1-.447-1-1v-3.777c-.595-.346-1-.984-1-1.723Zm10.5,13c-.351,0-.676.098-.963.257l-3.149-1.845c-.478-.279-1.09-.119-1.369.357-.278.477-.119,1.09.357,1.369l3.126,1.832c0,.01-.003.02-.003.03,0,1.105.895,2,2,2s2-.895,2-2-.895-2-2-2Zm-.016-10.16l-3.612-2.064c-.479-.276-1.091-.108-1.364.372-.274.479-.107,1.09.372,1.364l3.605,2.06-7.484,4.277-7.484-4.277,3.605-2.06c.479-.274.646-.885.372-1.364-.273-.48-.885-.648-1.364-.372l-3.612,2.064c-1.243.711-2.016,2.041-2.016,3.473v4.217c0,.553.447,1,1,1s1-.447,1-1v-4.217c0-.006.002-.011.002-.016l7.498,4.284v8.554l-3.482-1.99c-.479-.277-1.091-.107-1.364.372-.274.479-.107,1.091.372,1.364l3.49,1.994c.612.35,1.298.524,1.984.524s1.372-.175,1.984-.524l3.49-1.994c.479-.273.646-.885.372-1.364s-.885-.649-1.364-.372l-3.482,1.99v-8.554l7.498-4.284c0,.006.002.011.002.016v4.328c0,.553.447,1,1,1s1-.447,1-1v-4.328c0-1.432-.772-2.762-2.016-3.473Zm-11.87,10.289c.478-.278.639-.891.361-1.367-.277-.478-.891-.639-1.367-.361l-3.167,1.845c-.282-.151-.599-.245-.941-.245-1.105,0-2,.895-2,2s.895,2,2,2,2-.895,2-2c0-.018-.005-.036-.005-.054l3.12-1.817Z"/>
</svg>
