<?xml version="1.0" encoding="UTF-8"?>
<svg xmlns="http://www.w3.org/2000/svg" id="Layer_1" data-name="Layer 1" viewBox="0 0 24 24">
  <path d="m12,0C5.383,0,0,5.383,0,12s5.383,12,12,12,12-5.383,12-12S18.617,0,12,0Zm0,22c-5.514,0-10-4.486-10-10S6.486,2,12,2s10,4.486,10,10-4.486,10-10,10Zm5.723-14.385l-10.013,10.089c-.195.197-.453.296-.71.296-.255,0-.51-.097-.704-.29-.393-.39-.395-1.022-.006-1.414l10.013-10.09c.39-.392,1.024-.393,1.414-.005.393.389.395,1.022.006,1.415Zm.984,4.678c.391.391.391,1.023,0,1.414l-5,5c-.195.195-.451.293-.707.293s-.512-.098-.707-.293c-.391-.391-.391-1.023,0-1.414l5-5c.391-.391,1.023-.391,1.414,0Zm-12.707-.293c-.256,0-.512-.098-.707-.293-.391-.391-.391-1.023,0-1.414l5.5-5.5c.391-.391,1.023-.391,1.414,0s.391,1.023,0,1.414l-5.5,5.5c-.195.195-.451.293-.707.293Z"/>
</svg>
