<?xml version="1.0" encoding="UTF-8"?>
<svg xmlns="http://www.w3.org/2000/svg" id="Layer_1" data-name="Layer 1" viewBox="0 0 24 24">
  <path d="m22.79,6.764c-1.511-.65-2.604-1.52-3.266-2.596l4.209-3.474c.349-.33.006-.904-.45-.752l-4.283,1.564v-.633c0-.592-.596-1.04-1.143-.814-.875.361-1.542,1.231-1.771,2.208-3.126.965-4.059,4.315-4.086,6.232,0,.276-.224.5-.5.5h-3.485c-1.269,0-2.402.588-3.14,1.503-.017.003-.042.011-.006.006-2.136.717-4.87,2.809-4.87,8.491,0,.553.448,1,1,1s1-.447,1-1c0-2.796.671-4.748,1.997-5.83.043,1.597.648,3.333,1.139,4.737.146.417.284.812.396,1.173l-.213,1.543c-.118.851.138,1.71.702,2.357.564.648,1.38,1.02,2.24,1.02,1.494,0,2.761-1.118,2.947-2.602l.175-1.398h1.617v1c0,1.654,1.346,3,3,3s3-1.346,3-3v-2.396l.385-1.811c.417-1.46.615-2.415.615-3.895v-2.016s2.237-.28,2.237-.28c1.005-.126,1.763-.984,1.763-1.997,0-.804-.476-1.527-1.21-1.842Zm-3.038,2.134c-.999.125-1.752.978-1.752,1.984v2.016c0,1.25-.166,2.042-.555,3.412l-.423,1.98c-.015.068-.022.139-.022.209v2.5c0,.552-.448,1-1,1s-1-.448-1-1v-2c0-.553-.447-1-1-1h-3.5c-.504,0-.93.376-.992.876l-.284,2.274c-.061.484-.475.85-.962.85-.285,0-.544-.118-.731-.333-.187-.214-.268-.487-.229-.77l.243-1.761c.019-.14.009-.282-.031-.418-.129-.442-.303-.94-.489-1.472-.483-1.384-1.031-2.951-1.03-4.258.001-1.097.908-1.989,2.021-1.989h3.485c1.378,0,2.5-1.122,2.5-2.483.009-.431.175-3.984,3.245-4.463.749,1.984,2.345,3.514,4.744,4.565l-2.237.28Z"/>
</svg>
