<?xml version="1.0" encoding="UTF-8"?>
<svg xmlns="http://www.w3.org/2000/svg" id="Layer_1" data-name="Layer 1" viewBox="0 0 24 24">
  <path d="m23,8V3.967c.562-.082,1-.545,1-1.13,0-.5-.32-.944-.795-1.103L18.368.122c-.239-.08-.497-.08-.735,0l-4.838,1.613c-.475.158-.795.602-.795,1.103,0,.584.438,1.047,1,1.13v4.033c-.552,0-1,.448-1,1s.448,1,1,1h10c.553,0,1-.448,1-1s-.447-1-1-1Zm-2,0h-2v-4h2v4Zm-6-4h2v4h-2v-4Zm-3,12.838c0-.5-.32-.944-.795-1.103l-4.838-1.613c-.239-.08-.497-.08-.735,0l-4.838,1.613c-.475.158-.795.602-.795,1.103,0,.584.438,1.047,1,1.13v4.033c-.552,0-1,.447-1,1s.448,1,1,1h10c.552,0,1-.447,1-1s-.448-1-1-1v-4.033c.562-.082,1-.545,1-1.13Zm-9,1.162h2v4h-2v-4Zm4,4v-4h2v4h-2Zm16.707-.207c.391.391.391,1.023,0,1.414-.195.195-.451.293-.707.293s-.512-.098-.707-.293l-2.207-2.207h-4.086c-1.103,0-2-.897-2-2v-3.54l-6.302-5.401c-.444-.38-.698-.934-.698-1.519v-3.54h-3.586c-.534,0-1.036-.208-1.414-.586L.293,2.707C-.098,2.316-.098,1.684.293,1.293s1.023-.391,1.414,0l1.707,1.707h3.586c1.103,0,2,.897,2,2v3.54l6.301,5.401c.444.381.699.935.699,1.519v3.54h4.086c.526,0,1.042.214,1.414.586l2.207,2.207Z"/>
</svg>
