<?xml version="1.0" encoding="UTF-8"?>
<svg xmlns="http://www.w3.org/2000/svg" id="Layer_1" data-name="Layer 1" viewBox="0 0 24 24">
  <path d="m23.707,22.293l-2.54-2.54c.524-.791.833-1.736.833-2.753,0-2.757-2.243-5-5-5s-5,2.243-5,5,2.243,5,5,5c1.017,0,1.962-.309,2.753-.833l2.54,2.54c.195.195.451.293.707.293s.512-.098.707-.293c.391-.391.391-1.023,0-1.414Zm-9.707-5.293c0-1.654,1.346-3,3-3s3,1.346,3,3-1.346,3-3,3-3-1.346-3-3Zm-2.5-4c0,.828-.672,1.5-1.5,1.5s-1.5-.672-1.5-1.5.672-1.5,1.5-1.5,1.5.672,1.5,1.5Zm-.5-7v3c0,.552-.447,1-1,1s-1-.448-1-1v-3c0-.552.447-1,1-1s1,.448,1,1Zm-1,11c0,.552-.447,1-1,1H3.079c-1.112,0-2.108-.576-2.664-1.541-.556-.966-.552-2.116.008-3.079L7.301,1.531c.558-.959,1.552-1.531,2.661-1.531,1.107,0,2.101.572,2.656,1.529l4.034,6.97c.277.478.113,1.09-.364,1.367-.48.275-1.09.113-1.366-.365l-4.033-6.968c-.393-.676-1.462-.678-1.858.003L2.152,14.385c-.199.342-.201.735-.004,1.077.196.341.536.538.931.538h5.921c.553,0,1,.448,1,1Z"/>
</svg>
