<?xml version="1.0" encoding="UTF-8"?>
<svg xmlns="http://www.w3.org/2000/svg" id="Layer_1" data-name="Layer 1" viewBox="0 0 24 24">
  <path d="m15.998,4.224c-.136-.719-.789-1.224-1.521-1.224h-.939c-.284,0-.514.23-.514.514v3.972c0,.284.23.514.514.514h.946c.77,0,1.445-.565,1.53-1.33.052-.468-.114-.905-.417-1.146.314-.329.498-.784.401-1.299Zm-1.474,2.776h-.5v-1h.5c.276,0,.5.224.5.5s-.224.5-.5.5Zm0-2h-.5v-1h.5c.276,0,.5.224.5.5s-.224.5-.5.5Zm3.126-.625c-.006.049-.01.17.108.25.013,0,.509.218,1.055.42,1.013.374,1.267,1.107,1.167,1.669-.133.745-.844,1.286-1.691,1.286-.447,0-.877-.118-1.242-.333-.298-.176-.339-.591-.083-.823.166-.15.412-.186.605-.072.21.124.461.193.72.193.371,0,.633-.22.671-.432.051-.286-.374-.466-.506-.515-.623-.23-1.185-.481-1.185-.481-.497-.316-.716-.803-.644-1.309.078-.538.471-.976,1.027-1.144.6-.181,1.129-.018,1.49.171.279.146.346.516.142.756-.141.166-.373.22-.573.134-.199-.086-.475-.155-.761-.07-.243.073-.291.234-.3.299Zm-7.651-.875v2.978c0,.261.191.494.45.52.298.029.55-.205.55-.498v-3c0-.276.224-.5.5-.5s.5.224.5.5v3c0,.852-.714,1.541-1.575,1.498-.806-.04-1.425-.735-1.425-1.542v-2.957c0-.276.224-.5.5-.5s.5.224.5.5Zm-3.04,3.032c.051-.286-.374-.466-.506-.515-.623-.23-1.185-.481-1.185-.481-.497-.316-.716-.803-.644-1.309.078-.538.471-.976,1.027-1.144.6-.181,1.129-.018,1.49.171.279.146.346.516.142.756-.141.166-.373.22-.573.134-.199-.086-.475-.155-.761-.07-.243.073-.291.234-.3.299-.006.049-.01.17.108.25.013,0,.509.218,1.055.42,1.013.374,1.267,1.107,1.167,1.669-.133.745-.844,1.286-1.691,1.286-.447,0-.877-.118-1.242-.333-.298-.176-.339-.591-.083-.823.166-.15.412-.186.605-.072.21.124.461.193.72.193.371,0,.633-.22.671-.432Zm17.04-2.032v2c0,2.481-2.019,4.5-4.5,4.5h-2.5c-.553,0-1-.448-1-1s.447-1,1-1h2.5c1.379,0,2.5-1.122,2.5-2.5v-2c0-1.378-1.121-2.5-2.5-2.5H4.5c-1.378,0-2.5,1.122-2.5,2.5v2c0,1.378,1.122,2.5,2.5,2.5h.5c.552,0,1,.448,1,1s-.448,1-1,1h-.5c-2.481,0-4.5-2.019-4.5-4.5v-2C0,2.019,2.019,0,4.5,0h15c2.481,0,4.5,2.019,4.5,4.5Zm-2.002,18.442c.032.551-.389,1.024-.939,1.057-.021,0-.04.001-.06.001-.525,0-.966-.41-.997-.942-.069-1.183-.831-2.217-1.942-2.633l-5.404-2.027c-.39-.146-.649-.52-.649-.937v-5.354c0-.537-.362-1.017-.825-1.093-.306-.048-.596.031-.823.224-.224.19-.353.468-.353.762v8.455c0,.608-.34,1.15-.889,1.415-.549.264-1.185.192-1.66-.186l-1.771-1.415c-.402-.373-1.034-.354-1.41.048-.377.403-.356,1.038.046,1.416l.568.548c.648.624.206,1.72-.694,1.72-.259,0-.508-.1-.694-.28l-.558-.538c-1.196-1.12-1.26-3.022-.13-4.23,1.113-1.192,2.978-1.269,4.188-.186l1.003.799v-7.563c0-.881.385-1.714,1.057-2.286.671-.571,1.559-.818,2.439-.674,1.427.232,2.503,1.551,2.503,3.066v4.662l4.756,1.783c1.851.694,3.12,2.417,3.235,4.39Z"/>
</svg>
