<?xml version="1.0" encoding="UTF-8"?>
<svg xmlns="http://www.w3.org/2000/svg" id="Layer_1" data-name="Layer 1" viewBox="0 0 24 24">
  <path d="m15,16H2V5c0-1.654,1.346-3,3-3h7c.552,0,1-.447,1-1s-.448-1-1-1h-7C2.243,0,0,2.243,0,5v14c0,2.757,2.243,5,5,5h6c2.757,0,5-2.243,5-5v-2c0-.553-.448-1-1-1Zm-1,3c0,1.654-1.346,3-3,3h-6c-1.654,0-3-1.346-3-3v-1h12v1Zm-7.5,1c0-.553.448-1,1-1h1c.552,0,1,.447,1,1s-.448,1-1,1h-1c-.552,0-1-.447-1-1ZM22,4h-12c-1.105,0-2,.895-2,2v6c0,1.105.895,2,2,2h12c1.105,0,2-.895,2-2v-6c0-1.105-.895-2-2-2Zm-11.5,9c-.828,0-1.5-.672-1.5-1.5s.672-1.5,1.5-1.5,1.5.672,1.5,1.5-.672,1.5-1.5,1.5Zm0-5c-.828,0-1.5-.672-1.5-1.5s.672-1.5,1.5-1.5,1.5.672,1.5,1.5-.672,1.5-1.5,1.5Zm5.5,4c-1.657,0-3-1.343-3-3s1.343-3,3-3,3,1.343,3,3-1.343,3-3,3Zm5.5,1c-.828,0-1.5-.672-1.5-1.5s.672-1.5,1.5-1.5,1.5.672,1.5,1.5-.672,1.5-1.5,1.5Zm0-5c-.828,0-1.5-.672-1.5-1.5s.672-1.5,1.5-1.5,1.5.672,1.5,1.5-.672,1.5-1.5,1.5Z"/>
</svg>
