<?xml version="1.0" encoding="UTF-8"?>
<svg xmlns="http://www.w3.org/2000/svg" id="Layer_1" data-name="Layer 1" viewBox="0 0 24 24">
  <path d="m18,0c-3.309,0-6,2.691-6,6s2.691,6,6,6,6-2.691,6-6S21.309,0,18,0Zm2.775,8.87c-.445-1.095-1.514-1.87-2.768-1.87h-.016c-1.254,0-2.325.773-2.769,1.868-.751-.728-1.222-1.742-1.222-2.868,0-2.206,1.794-4,4-4s4,1.794,4,4c0,1.127-.472,2.142-1.225,2.87Zm-1.275-4.37c0,.828-.672,1.5-1.5,1.5s-1.5-.672-1.5-1.5.672-1.5,1.5-1.5,1.5.672,1.5,1.5Zm-3.851,9.735c-.944-.945-2.592-.945-3.535,0l-1.439,1.439s0,0,0,0,0,0,0,0l-1.732,1.733c-.672.673-1.746.75-2.389.168-.344-.31-.54-.733-.552-1.192-.012-.46.161-.894.486-1.219l1.838-1.838s.001,0,.001,0,0-.001,0-.001l1.438-1.438c.975-.975.975-2.561,0-3.535l-.676-.677c-.944-.945-2.592-.945-3.536,0l-3.322,3.322c-2.97,2.97-2.97,7.803,0,10.772,1.485,1.485,3.436,2.228,5.386,2.228s3.901-.742,5.386-2.228l1.882-1.882s0,0,0,0,0,0,0,0l1.438-1.439c.975-.975.975-2.561,0-3.535l-.677-.677Zm-1.768,1.268c.077,0,.226.02.353.146l.677.677c.195.195.195.512,0,.707l-.732.732-1.383-1.383.733-.733c.127-.128.275-.146.353-.146Zm-6.561-6.561c.077,0,.226.019.353.146l.677.677c.195.195.195.512,0,.707l-.732.732-1.383-1.383.733-.733c.127-.128.276-.146.353-.146Zm-3.676,11.413c-2.19-2.19-2.19-5.754,0-7.944l1.176-1.176,1.383,1.383-1.132,1.132c-.707.707-1.097,1.686-1.071,2.685.027,1.014.457,1.946,1.212,2.627,1.448,1.303,3.705,1.197,5.142-.24l1.026-1.026,1.383,1.383-1.176,1.176c-2.19,2.189-5.755,2.189-7.944,0Z"/>
</svg>
