<?xml version="1.0" encoding="UTF-8"?>
<svg xmlns="http://www.w3.org/2000/svg" id="Layer_1" data-name="Layer 1" viewBox="0 0 24 24">
  <path d="m22.5,10h-.5v-1c0-2.757-2.243-5-5-5h-4v-2c0-.553-.448-1-1-1s-1,.447-1,1v2h-4c-2.757,0-5,2.243-5,5v1h-.5c-.827,0-1.5.673-1.5,1.5v3c0,.827.673,1.5,1.5,1.5h.5v1c0,2.757,2.243,5,5,5h10c2.757,0,5-2.243,5-5v-1h.5c.827,0,1.5-.673,1.5-1.5v-3c0-.827-.673-1.5-1.5-1.5Zm-2.5,7c0,1.654-1.346,3-3,3H7c-1.654,0-3-1.346-3-3v-8c0-1.654,1.346-3,3-3h10c1.654,0,3,1.346,3,3v8Zm-10-6.5c0,.828-.672,1.5-1.5,1.5s-1.5-.672-1.5-1.5.672-1.5,1.5-1.5,1.5.672,1.5,1.5Zm5.5,1.5c-.828,0-1.5-.672-1.5-1.5s.672-1.5,1.5-1.5,1.5.672,1.5,1.5-.672,1.5-1.5,1.5Zm-6.5,4c0,.553-.448,1-1,1h-1c-.552,0-1-.447-1-1s.448-1,1-1h1c.552,0,1,.447,1,1Zm5,0c0,.553-.447,1-1,1h-2c-.552,0-1-.447-1-1s.448-1,1-1h2c.553,0,1,.447,1,1Zm4,0c0,.553-.447,1-1,1h-1c-.553,0-1-.447-1-1s.447-1,1-1h1c.553,0,1,.447,1,1Z"/>
</svg>
