<?xml version="1.0" encoding="UTF-8"?>
<svg xmlns="http://www.w3.org/2000/svg" id="Layer_1" data-name="Layer 1" viewBox="0 0 24 24">
  <path d="m23.707.293c-.391-.391-1.023-.391-1.414,0l-3.259,3.259c-1.908-1.592-4.36-2.552-7.034-2.552C5.935,1,1,5.935,1,12c0,2.673.961,5.125,2.552,7.034l-3.259,3.259c-.391.391-.391,1.023,0,1.414.195.195.451.293.707.293s.512-.098.707-.293l3.259-3.259c1.908,1.592,4.36,2.552,7.034,2.552,6.065,0,11-4.935,11-11,0-2.673-.961-5.125-2.552-7.034l3.259-3.259c.391-.391.391-1.023,0-1.414ZM3,12C3,7.038,7.038,3,12,3c2.122,0,4.071.742,5.611,1.975l-12.636,12.636c-1.233-1.54-1.975-3.489-1.975-5.611Zm18,0c0,4.963-4.038,9-9,9-2.122,0-4.071-.742-5.611-1.975l12.636-12.636c1.233,1.54,1.975,3.489,1.975,5.611Z"/>
</svg>
