<?xml version="1.0" encoding="UTF-8"?>
<svg xmlns="http://www.w3.org/2000/svg" id="Layer_1" data-name="Layer 1" viewBox="0 0 24 24">
  <path d="m23.405,8.289L15.712.596C15.318.202,14.764-.023,14.217.002c-.549.016-1.073.259-1.436.667-1.742,1.954-2.782,4.558-2.782,6.965v.873L1.138,17.368C.404,18.102,0,19.078,0,20.115s.404,2.014,1.138,2.747c.757.758,1.752,1.137,2.748,1.137s1.989-.379,2.747-1.136l8.862-8.862h.872c2.407,0,5.011-1.04,6.966-2.781.408-.363.651-.888.667-1.437.016-.557-.2-1.101-.594-1.494ZM5.218,21.449c-.735.734-1.932.731-2.666,0-.356-.356-.552-.829-.552-1.333s.196-.977.552-1.333l8.444-8.443,2.666,2.666-8.444,8.444Zm11.148-9.448h-.881l-3.486-3.486v-.881c0-1.93.851-4.036,2.298-5.624l7.694,7.693.01.023c-1.598,1.424-3.705,2.274-5.635,2.274Zm-5.66,2.707l-1,1c-.195.195-.451.293-.707.293s-.512-.098-.707-.293c-.391-.391-.391-1.023,0-1.414l1-1c.391-.391,1.023-.391,1.414,0s.391,1.023,0,1.414Z"/>
</svg>
