<?xml version="1.0" encoding="UTF-8"?>
<svg xmlns="http://www.w3.org/2000/svg" id="Layer_1" data-name="Layer 1" viewBox="0 0 24 24">
  <path d="m13.143,17.485l1.191-1.985-1.191-1.985c-.284-.474-.131-1.088.343-1.372.474-.285,1.088-.131,1.372.343l.643,1.071.643-1.071c.284-.474.898-.628,1.372-.343.474.284.627.898.343,1.372l-1.191,1.985,1.191,1.985c.284.474.131,1.088-.343,1.372-.161.097-.338.143-.514.143-.34,0-.671-.173-.858-.485l-.643-1.071-.643,1.071c-.188.312-.519.485-.858.485-.175,0-.353-.046-.514-.143-.474-.284-.627-.898-.343-1.372Zm-4.143,1.515c1.654,0,3-1.346,3-3v-3c0-.552-.448-1-1-1s-1,.448-1,1v3c0,.552-.449,1-1,1s-1-.448-1-1v-3c0-.552-.448-1-1-1s-1,.448-1,1v3c0,1.654,1.346,3,3,3ZM4.5,4c-.828,0-1.5.672-1.5,1.5s.672,1.5,1.5,1.5,1.5-.672,1.5-1.5-.672-1.5-1.5-1.5Zm19.5,2v12c0,2.757-2.243,5-5,5H5c-2.757,0-5-2.243-5-5V6C0,3.243,2.243,1,5,1h14c2.757,0,5,2.243,5,5Zm-2,4H2v8c0,1.654,1.346,3,3,3h14c1.654,0,3-1.346,3-3v-8Zm0-4c0-1.654-1.346-3-3-3H5c-1.654,0-3,1.346-3,3v2h20v-2Zm-13.5-2c-.828,0-1.5.672-1.5,1.5s.672,1.5,1.5,1.5,1.5-.672,1.5-1.5-.672-1.5-1.5-1.5Z"/>
</svg>
