<?xml version="1.0" encoding="UTF-8"?>
<svg xmlns="http://www.w3.org/2000/svg" id="Layer_1" data-name="Layer 1" viewBox="0 0 24 24">
  <path d="m14.881,24c-1.105,0-2.144-.499-2.881-1.377-.737.878-1.775,1.377-2.881,1.377-2.271,0-4.119-1.794-4.119-4,0-.369.066-.761.189-1.189-.428.123-.82.189-1.189.189-2.206,0-4-1.848-4-4.119,0-1.105.499-2.144,1.377-2.881-.878-.737-1.377-1.775-1.377-2.881,0-2.271,1.794-4.119,4-4.119.369,0,.761.066,1.189.189-.123-.428-.189-.82-.189-1.189C5,1.794,6.848,0,9.119,0c1.105,0,2.144.499,2.881,1.377.737-.878,1.775-1.377,2.881-1.377,2.271,0,4.119,1.794,4.119,4,0,.369-.066.761-.189,1.189.428-.123.82-.189,1.189-.189,2.206,0,4,1.848,4,4.119,0,1.105-.499,2.144-1.377,2.881.878.737,1.377,1.775,1.377,2.881,0,2.271-1.794,4.119-4,4.119-.369,0-.761-.066-1.189-.189.123.428.189.82.189,1.189,0,2.206-1.848,4-4.119,4Zm-2.881-4.034c.315,0,.611.148.8.4l.658.878c.36.48.879.756,1.422.756,1.023,0,2.119-.804,2.119-2,0-.664-.61-1.953-.904-2.572-.181-.382-.102-.836.197-1.135.298-.299.752-.379,1.135-.197.62.293,1.909.904,2.572.904,1.196,0,2-1.096,2-2.119,0-.543-.275-1.062-.756-1.422l-.878-.658c-.251-.189-.4-.485-.4-.8s.148-.611.4-.8l.878-.658c.48-.36.756-.879.756-1.422,0-1.023-.804-2.119-2-2.119-.664,0-1.953.61-2.572.904-.383.181-.836.102-1.135-.197-.299-.299-.377-.753-.197-1.135.293-.62.904-1.909.904-2.572,0-1.196-1.096-2-2.119-2-.543,0-1.062.276-1.423.757l-.658.877c-.378.503-1.223.503-1.601,0l-.658-.878c-.36-.48-.879-.756-1.422-.756-1.023,0-2.119.804-2.119,2,0,.664.61,1.953.904,2.572.181.382.102.836-.197,1.135-.298.299-.753.378-1.135.197-.62-.293-1.909-.904-2.572-.904-1.196,0-2,1.096-2,2.119,0,.543.276,1.062.757,1.423l.877.658c.251.189.4.485.4.8s-.148.611-.4.8l-.878.658c-.48.36-.756.879-.756,1.422,0,1.023.804,2.119,2,2.119.664,0,1.953-.61,2.572-.904.382-.182.836-.103,1.135.197.299.299.377.753.197,1.135-.293.62-.904,1.909-.904,2.572,0,1.196,1.096,2,2.119,2,.543,0,1.062-.276,1.423-.757l.658-.877c.189-.251.485-.4.8-.4Z"/>
</svg>
