<?xml version="1.0" encoding="UTF-8"?>
<svg xmlns="http://www.w3.org/2000/svg" id="Layer_1" data-name="Layer 1" viewBox="0 0 24 24">
  <path d="m5.938,10.5c.186.32.521.5.867.5.169,0,.341-.043.499-.134l.956-.552c.706.795,1.66,1.365,2.74,1.585v1.101c0,.553.448,1,1,1s1-.447,1-1v-1.101c1.08-.22,2.035-.79,2.74-1.585l.956.552c.158.091.33.134.499.134.346,0,.682-.18.867-.5.276-.479.112-1.09-.366-1.366l-.953-.55c.167-.498.257-1.03.257-1.583s-.091-1.086-.257-1.583l.953-.55c.478-.276.642-.888.366-1.366-.277-.478-.887-.643-1.366-.366l-.956.552c-.706-.795-1.66-1.365-2.74-1.585v-1.101c0-.553-.448-1-1-1s-1,.447-1,1v1.101c-1.08.22-2.035.79-2.74,1.585l-.956-.552c-.479-.276-1.09-.111-1.366.366-.276.479-.112,1.09.366,1.366l.953.55c-.167.498-.257,1.03-.257,1.583s.091,1.086.257,1.583l-.953.55c-.478.276-.642.888-.366,1.366Zm6.062-6.5c1.654,0,3,1.346,3,3s-1.346,3-3,3-3-1.346-3-3,1.346-3,3-3Zm10,13.172v-7.172c0-1.525-.683-2.948-1.875-3.903-.43-.344-1.059-.275-1.406.154-.345.432-.276,1.061.155,1.406.715.573,1.125,1.428,1.125,2.343v7h-4.5c-.265,0-.52.105-.707.293l-.707.707h-4.172l-.707-.707c-.188-.188-.442-.293-.707-.293h-4.5v-7c0-.915.41-1.769,1.125-2.342.431-.345.501-.975.156-1.405-.346-.432-.976-.502-1.406-.155-1.191.954-1.875,2.376-1.875,3.902v7.172c-1.164.413-2,1.524-2,2.828,0,1.654,1.346,3,3,3h18c1.654,0,3-1.346,3-3,0-1.304-.836-2.415-2-2.828Zm-1,3.828H3c-.551,0-1-.448-1-1s.449-1,1-1h5.086l.707.707c.188.188.442.293.707.293h5c.265,0,.52-.105.707-.293l.707-.707h5.086c.551,0,1,.448,1,1s-.449,1-1,1Z"/>
  <path d="m12,8.5c.828,0,1.5-.672,1.5-1.5s-.672-1.5-1.5-1.5-1.5.672-1.5,1.5.672,1.5,1.5,1.5"/>
</svg>
