<?xml version="1.0" encoding="UTF-8"?>
<svg xmlns="http://www.w3.org/2000/svg" id="Layer_1" data-name="Layer 1" viewBox="0 0 24 24">
  <path d="m12,0C5.383,0,0,5.383,0,12s5.383,12,12,12,12-5.383,12-12S18.617,0,12,0Zm8.98,10.196l-.039.195c-.187.932-1.012,1.608-1.961,1.608h-2.137c-.919,0-1.717-.623-1.94-1.515l-.278-1.113c.382-.242.826-.372,1.29-.372h4.085c.301,0,.583.134.773.366.191.232.267.535.208.83ZM12,2c3.728,0,6.98,2.054,8.699,5.086-.227-.054-.461-.086-.7-.086h-4.085c-1.024,0-1.982.364-2.765,1h-2.297c-.783-.636-1.742-1-2.765-1h-4.085c-.239,0-.473.032-.7.086,1.72-3.032,4.972-5.086,8.699-5.086ZM3.228,9.366c.19-.232.472-.366.773-.366h4.085c.464,0,.908.13,1.29.372l-.278,1.113c-.223.892-1.021,1.515-1.94,1.515h-2.137c-.95,0-1.775-.677-1.961-1.608l-.039-.195c-.059-.295.017-.598.208-.83Zm8.772,12.634c-5.295,0-9.629-4.139-9.967-9.35.741.832,1.815,1.35,2.988,1.35h2.137c1.839,0,3.435-1.246,3.88-3.03l.243-.97h1.439l.243.97c.445,1.784,2.041,3.03,3.88,3.03h2.137c1.172,0,2.247-.517,2.988-1.35-.338,5.21-4.672,9.35-9.967,9.35Zm4.894-5.721c.397.384.41,1.017.026,1.414-2.221,2.307-5.005,2.307-5.92,2.307-.552,0-1-.447-1-1s.448-1,1-1c.779,0,2.848,0,4.479-1.693.384-.399,1.016-.41,1.414-.027Z"/>
</svg>
