<?xml version="1.0" encoding="UTF-8"?>
<svg xmlns="http://www.w3.org/2000/svg" id="Layer_1" data-name="Layer 1" viewBox="0 0 24 24">
  <path d="m21.315,13.796l-.608-.342c.08-.485.121-.979.121-1.474,0-.482-.039-.963-.115-1.438l.603-.339c1.442-.811,1.956-2.644,1.145-4.086-.393-.698-1.034-1.202-1.806-1.418-.772-.22-1.583-.12-2.279.273l-.548.308c-.83-.741-1.789-1.321-2.827-1.711v-.57c0-1.654-1.346-3-3-3s-3,1.346-3,3v.461c-1.106.369-2.128.951-3.015,1.716l-.359-.202c-.699-.395-1.509-.491-2.28-.274-.771.216-1.413.72-1.806,1.418-.811,1.442-.297,3.275,1.145,4.086l.323.181c-.094.525-.142,1.06-.142,1.596,0,.549.05,1.095.148,1.631l-.329.185c-1.442.811-1.956,2.644-1.145,4.086.81,1.439,2.642,1.952,4.085,1.145l.387-.218c.88.753,1.894,1.327,2.988,1.691v.5c0,1.654,1.346,3,3,3s3-1.346,3-3v-.608c1.028-.386,1.978-.958,2.801-1.688l.574.323c1.44.81,3.274.296,4.085-1.145.811-1.442.297-3.275-1.145-4.086Zm-.598,3.105c-.269.481-.88.653-1.362.381l-1.223-.688c-.4-.224-.901-.148-1.216.185-.871.92-1.972,1.585-3.186,1.925-.432.121-.73.515-.73.963v1.333c0,.552-.449,1-1,1s-1-.448-1-1v-1.254c0-.464-.319-.866-.77-.974-1.272-.3-2.434-.956-3.359-1.895-.193-.196-.451-.299-.713-.299-.167,0-.336.042-.489.128l-1.023.575c-.481.27-1.093.1-1.362-.381-.131-.232-.163-.503-.091-.76.072-.258.24-.471.472-.602l.98-.551c.401-.226.597-.695.474-1.139-.168-.607-.253-1.236-.253-1.87,0-.623.083-1.242.246-1.84.121-.442-.075-.91-.475-1.135l-.972-.546c-.232-.131-.4-.344-.472-.602-.072-.257-.04-.527.091-.76.131-.233.345-.401.602-.473.256-.074.526-.04.76.092l1,.562c.395.221.889.149,1.206-.174.927-.95,2.096-1.613,3.38-1.918.451-.106.77-.509.77-.973v-1.215c0-.552.449-1,1-1s1,.448,1,1v1.294c0,.448.298.842.73.963,1.223.343,2.332,1.016,3.207,1.947.315.335.818.412,1.219.188l1.2-.675c.232-.131.502-.164.759-.091.257.071.471.239.602.473.131.232.163.503.091.76-.072.258-.24.471-.473.603l-1.239.697c-.394.221-.59.678-.479,1.115.14.556.211,1.13.211,1.707,0,.588-.073,1.173-.218,1.738-.112.438.084.897.479,1.12l1.248.701c.232.131.4.344.472.602.072.257.04.527-.091.76Zm-7.493-10.199c-.547-.937-1.9-.937-2.447,0l-4.181,7.167c-.551.944.13,2.13,1.224,2.13h8.361c1.093,0,1.774-1.186,1.224-2.13l-4.181-7.167Zm-1.224,8.297c-.552,0-1-.448-1-1s.448-1,1-1,1,.448,1,1-.448,1-1,1Zm1-4c0,.552-.448,1-1,1s-1-.448-1-1v-2c0-.552.448-1,1-1s1,.448,1,1v2Z"/>
</svg>
