<?xml version="1.0" encoding="UTF-8"?>
<svg xmlns="http://www.w3.org/2000/svg" id="Layer_1" data-name="Layer 1" viewBox="0 0 24 24">
  <path d="m24,10v3c0,.553-.447,1-1,1s-1-.447-1-1v-3c0-2.206-1.794-4-4-4H2.579l2.153,2.317c.376.405.353,1.038-.052,1.413-.192.179-.437.268-.681.268-.268,0-.536-.107-.732-.319L.842,7.067c-1.129-1.128-1.129-3.006.025-4.16L3.268.322c.376-.405,1.007-.429,1.413-.052.405.375.428,1.008.052,1.413l-2.152,2.317h15.42c3.309,0,6,2.691,6,6Zm-2.399,7.936c.616,1.327.516,2.856-.271,4.09-.789,1.236-2.136,1.975-3.604,1.975H6.278c-1.468,0-2.814-.738-3.603-1.975-.787-1.233-.889-2.763-.271-4.09.022-.048,5.847-8.668,5.873-8.698,1.203-1.392,2.054-2.237,3.724-2.237,1.435,0,2.671.755,3.781,2.31,0,0,5.797,8.578,5.819,8.625Zm-7.124,4.064l-1.974-3.644c-.154-.327-.401-.356-.501-.356s-.348.029-.474.302l-2.001,3.698h4.951Zm5.339-3.154l-5.677-8.395c-.918-1.284-1.626-1.451-2.14-1.451-.692,0-1.025.178-2.173,1.5l-5.64,8.345c-.299.697-.237,1.46.174,2.104.426.667,1.125,1.05,1.917,1.05h.974l2.489-4.597c.391-.845,1.268-1.403,2.26-1.403s1.869.559,2.288,1.458l2.462,4.542h.974c.793,0,1.491-.383,1.917-1.05.411-.645.473-1.407.174-2.104Z"/>
</svg>
