<?xml version="1.0" encoding="UTF-8"?>
<svg xmlns="http://www.w3.org/2000/svg" id="Layer_1" data-name="Layer 1" viewBox="0 0 24 24">
  <path d="m20,9.949v2.051h-1.278c-.642,0-.963.776-.509,1.229l2.278,2.278c.281.281.737.281,1.019,0l2.278-2.278c.454-.454.132-1.229-.509-1.229h-1.278V3.414c0-.526-.213-1.042-.586-1.414l-1.414-1.414c-.378-.378-.88-.586-1.414-.586h-2.086c-1.378,0-2.5,1.121-2.5,2.5v5c0,1.379,1.122,2.5,2.5,2.5h3c.171,0,.338-.018.5-.051Zm-4-2.449V2.5c0-.275.224-.5.5-.5h2.086l1.414,1.414v4.086c0,.275-.224.5-.5.5h-3c-.276,0-.5-.225-.5-.5Zm4.5,9.5c-1.93,0-3.5,1.57-3.5,3.5s1.57,3.5,3.5,3.5,3.5-1.57,3.5-3.5-1.57-3.5-3.5-3.5Zm0,5c-.827,0-1.5-.673-1.5-1.5s.673-1.5,1.5-1.5,1.5.673,1.5,1.5-.673,1.5-1.5,1.5Zm-5.737-10.479l-.914.914-4.026-4.026c.111-.282.177-.587.177-.909V3.414c0-.526-.213-1.042-.586-1.414l-1.414-1.414c-.378-.378-.88-.586-1.414-.586h-2.086c-1.378,0-2.5,1.121-2.5,2.5v5c0,1.379,1.122,2.5,2.5,2.5h3c.321,0,.626-.066.909-.177l4.026,4.026-.914.914c-.456.456-.133,1.237.512,1.237h3.031c.517,0,.935-.419.935-.935v-3.031c0-.646-.781-.969-1.237-.512Zm-7.263-3.521h-3c-.276,0-.5-.225-.5-.5V2.5c0-.275.224-.5.5-.5h2.086l1.414,1.414v4.086c0,.275-.224.5-.5.5Zm5.729,10.212c-.454-.454-1.229-.132-1.229.509v1.278h-2v-2.586c0-.526-.213-1.042-.586-1.414l-1.414-1.414c-.378-.378-.88-.586-1.414-.586h-2.086c-1.378,0-2.5,1.121-2.5,2.5v5c0,1.379,1.122,2.5,2.5,2.5h3c1.207,0,2.217-.86,2.449-2h2.051v1.278c0,.642.776.963,1.229.509l2.278-2.278c.281-.281.281-.737,0-1.018l-2.278-2.278Zm-5.229,3.288c0,.275-.224.5-.5.5h-3c-.276,0-.5-.225-.5-.5v-5c0-.275.224-.5.5-.5h2.086l1.414,1.414v4.086Z"/>
</svg>
