<?xml version="1.0" encoding="UTF-8"?>
<svg xmlns="http://www.w3.org/2000/svg" id="Layer_1" data-name="Layer 1" viewBox="0 0 24 24">
  <path d="m.485,8.088l9.862,5.917c.51.306,1.081.459,1.653.459s1.143-.153,1.653-.459l9.861-5.917c.301-.181.485-.506.485-.857s-.184-.677-.485-.857L13.653.456c-1.02-.612-2.287-.612-3.307,0L.485,6.373c-.301.181-.485.506-.485.857s.184.677.485.857Zm12.139,4.202c-.385.231-.864.231-1.249,0l-3.125-1.875,3.749-2.249,3.748,2.249-3.124,1.874Zm5.068-3.041l-3.748-2.249,3.364-2.018,3.748,2.249-3.364,2.018Zm-6.316-7.078c.385-.23.863-.23,1.248,0l2.74,1.644-3.364,2.019-3.364-2.019,2.74-1.644Zm-4.684,2.811l3.364,2.018-3.748,2.249-3.364-2.018,3.748-2.249ZM.143,11.09c.283-.475.897-.627,1.372-.343l9.861,5.917c.385.23.864.23,1.249,0l9.861-5.917c.474-.284,1.088-.131,1.372.343s.131,1.088-.343,1.372l-9.861,5.917c-.51.306-1.082.459-1.653.459s-1.143-.153-1.653-.459L.485,12.462c-.474-.284-.627-.898-.343-1.372Zm23.715,4.295c.284.474.131,1.088-.343,1.372l-9.861,5.917c-.51.307-1.082.459-1.653.459s-1.144-.152-1.654-.459L.485,16.757c-.474-.284-.627-.898-.343-1.372.283-.474.897-.628,1.372-.343l9.861,5.917c.385.23.864.23,1.248,0l9.862-5.917c.474-.284,1.088-.131,1.372.343Z"/>
</svg>
