<?xml version="1.0" encoding="UTF-8"?>
<svg xmlns="http://www.w3.org/2000/svg" id="Layer_1" data-name="Layer 1" viewBox="0 0 24 24">
  <path d="m22.004,4.498c.001-.865-.525-1.61-1.34-1.898L14.199.319c-1.386-.491-2.915-.492-4.302-.007L3.353,2.602c-.818.287-1.346,1.031-1.346,1.898,0,.866.529,1.61,1.347,1.896l2.646.923v1.681c0,3.309,2.691,6,6,6s6-2.691,6-6v-1.682l2-.698v4.379c0,.553.448,1,1,1s1-.447,1-1c0,0,.004-6.493.004-6.502Zm-6.004,4.502c0,2.206-1.794,4-4,4s-4-1.794-4-4v-.984l1.862.65c.689.24,1.413.36,2.137.36s1.448-.12,2.138-.36l1.863-.65v.984Zm-2.522-2.223c-.954.332-2.004.332-2.958,0l-6.507-2.287,6.544-2.289c.962-.337,2.019-.334,2.976.004l6.464,2.298-6.52,2.274Zm6.847,16.021c.111.541-.236,1.07-.777,1.182-.068.014-.136.021-.203.021-.464,0-.881-.325-.979-.798-.356-1.726-1.426-3.256-2.936-4.196l-2.662,3.154c-.38.455-1.156.455-1.536,0l-2.631-3.156c-1.541.942-2.611,2.472-2.967,4.198-.111.541-.641.885-1.182.777-.541-.112-.889-.641-.777-1.182.467-2.261,1.866-4.261,3.837-5.488.856-.534,1.984-.355,2.625.413l1.863,2.235,1.862-2.235c.64-.769,1.769-.948,2.624-.415,1.974,1.229,3.372,3.23,3.839,5.49Z"/>
</svg>
