<?xml version="1.0" encoding="UTF-8"?>
<svg xmlns="http://www.w3.org/2000/svg" id="Layer_1" data-name="Layer 1" viewBox="0 0 24 24">
  <path d="m12,5c.553,0,1,.447,1,1v5.876c0,.349-.181.671-.479.854l-4.408,2.696c-.162.1-.343.146-.521.146-.337,0-.665-.17-.854-.479-.288-.471-.14-1.086.332-1.375l3.93-2.403v-5.315c0-.553.447-1,1-1Zm10,8h-4c-.553,0-1,.447-1,1s.447,1,1,1h2.568l-4.329,4.328c-.193.193-.534.194-.729,0l-1.104-1.104c-.951-.953-2.608-.953-3.562,0l-4.053,4.07c-.39.392-.388,1.025.003,1.415.195.194.451.291.706.291.257,0,.514-.099.709-.294l4.052-4.07c.193-.193.534-.194.729,0l1.104,1.104c.951.953,2.61.952,3.56,0l4.346-4.345v2.604c0,.553.447,1,1,1s1-.447,1-1v-4c0-1.103-.897-2-2-2Zm-20-1C2,6.486,6.486,2,12,2c4.828,0,8.964,3.44,9.835,8.181.101.543.616.909,1.164.803.543-.1.902-.621.803-1.164C22.757,4.13,17.793,0,12,0,5.383,0,0,5.383,0,12c0,3.316,1.392,6.516,3.818,8.778.192.18.438.269.682.269.268,0,.534-.106.731-.318.377-.403.354-1.036-.05-1.413-2.021-1.886-3.182-4.552-3.182-7.315Z"/>
</svg>
