<?xml version="1.0" encoding="UTF-8"?>
<svg xmlns="http://www.w3.org/2000/svg" id="Layer_1" data-name="Layer 1" viewBox="0 0 24 24">
  <path d="m18,8c2.206,0,4-1.794,4-4s-1.794-4-4-4-4,1.794-4,4,1.794,4,4,4Zm0-6c1.103,0,2,.897,2,2s-.897,2-2,2-2-.897-2-2,.897-2,2-2Zm-.12,20.801c.11.542-.24,1.069-.781,1.179-.067.014-.134.02-.2.02-.466,0-.883-.327-.979-.801-.376-1.854-2.025-3.199-3.92-3.199s-3.543,1.345-3.92,3.199c-.11.541-.637.893-1.179.781-.541-.11-.891-.638-.781-1.179.565-2.782,3.038-4.801,5.88-4.801s5.315,2.019,5.88,4.801Zm.12-13.801c2.842,0,5.315,2.019,5.88,4.801.11.542-.24,1.069-.781,1.179-.067.014-.134.02-.2.02-.466,0-.883-.327-.979-.801-.376-1.854-2.025-3.199-3.92-3.199-.552,0-1-.448-1-1s.448-1,1-1Zm-12.016.902c.099.543-.262,1.064-.805,1.163-1.591.29-2.877,1.549-3.199,3.134-.096.474-.513.801-.979.801-.066,0-.133-.006-.2-.02-.542-.11-.891-.638-.781-1.179.483-2.38,2.412-4.271,4.801-4.705.549-.098,1.064.262,1.163.805Zm17.723,12.391l-7.94-7.94c.153-.428.233-.884.233-1.353,0-1.068-.416-2.073-1.172-2.828-1.085-1.085-2.749-1.391-4.16-.918l-2.148-2.148c.917-.746,1.48-1.879,1.48-3.106,0-2.206-1.794-4-4-4-1.226,0-2.36.563-3.106,1.48L1.707.293C1.316-.098.684-.098.293.293S-.098,1.316.293,1.707l22,22c.195.195.451.293.707.293s.512-.098.707-.293c.391-.391.391-1.023,0-1.414ZM6,2c1.103,0,2,.897,2,2,0,.686-.352,1.313-.909,1.677l-2.768-2.768c.363-.557.991-.909,1.677-.909Zm3.367,13.633c-.665-.665-1.044-1.506-1.141-2.373-.049-.441.482-.7.796-.386l3.104,3.104c.314.314.055.846-.386.796-.867-.097-1.708-.476-2.373-1.141Z"/>
</svg>
