<?xml version="1.0" encoding="UTF-8"?>
<svg xmlns="http://www.w3.org/2000/svg" id="Layer_1" data-name="Layer 1" viewBox="0 0 24 24">
  <path d="m22.204,2.163c-1.143-.953-2.64-1.345-4.099-1.081l-3.822.695c-.912.167-1.706.634-2.283,1.289-.578-.655-1.371-1.123-2.285-1.289l-3.821-.695c-1.461-.264-2.956.128-4.098,1.081-1.142.953-1.796,2.352-1.796,3.839v10.792c0,2.417,1.727,4.486,4.106,4.919l6.284,1.143c.534.097,1.072.146,1.61.146s1.075-.048,1.609-.146l6.285-1.143c2.379-.433,4.105-2.502,4.105-4.919V6.001c0-1.487-.654-2.886-1.796-3.838Zm-11.204,18.766c-.084-.012-.168-.026-.252-.041l-6.284-1.143c-1.428-.26-2.464-1.501-2.464-2.952V6.001c0-.892.393-1.731,1.078-2.303.545-.455,1.223-.697,1.919-.697.179,0,.36.016.54.049l3.821.695c.952.173,1.643,1.001,1.643,1.968v15.216Zm11-4.135c0,1.451-1.036,2.692-2.463,2.952l-6.285,1.143c-.084.015-.168.029-.252.041V5.712c0-.967.69-1.794,1.642-1.968l3.821-.695c.875-.161,1.774.076,2.46.648.685.572,1.077,1.411,1.077,2.303v10.792Zm-1.793-6.586l-1.293,1.293,1.293,1.293c.391.391.391,1.023,0,1.414-.195.195-.451.293-.707.293s-.512-.098-.707-.293l-1.293-1.293-1.293,1.293c-.195.195-.451.293-.707.293s-.512-.098-.707-.293c-.391-.391-.391-1.023,0-1.414l1.293-1.293-1.293-1.293c-.391-.391-.391-1.023,0-1.414s1.023-.391,1.414,0l1.293,1.293,1.293-1.293c.391-.391,1.023-.391,1.414,0s.391,1.023,0,1.414Zm-10.576-.406c.378.387.38,1.004.004,1.394l-2.211,2.193c-.796.823-2.118.817-2.905-.015l-1.131-1.175c-.367-.387-.364-.995.006-1.379.395-.411,1.054-.408,1.445.006l1.138,1.183,2.22-2.202c.391-.405,1.04-.407,1.433-.004Z"/>
</svg>
