<?xml version="1.0" encoding="UTF-8"?>
<svg xmlns="http://www.w3.org/2000/svg" id="Layer_1" data-name="Layer 1" viewBox="0 0 24 24">
  <path d="m23.892,15.043c-.867-1.651-2.51-3.144-4.127-3.865C19.73,3.576,18.397.019,15.571.009h-.013C12.427.009,11.244,4.127,10.667,8.388c-.32-.107-.669-.2-1.101-.273-1.893-.32-3.805.035-5.446,1.001-.358.211-.504.656-.38,1.052l.012.037c.138.44.584.715,1.037.633,2.628-.477,4.033.033,5.286,1.396-.494,1.613-1.669,3.907-4.471,5.31-2.745,1.182-3.813,3.107-3.976,3.428l-.611-.01h-.017C.455,20.961.009,21.398,0,21.944c-.009.553.432,1.008.983,1.017l.614.01c.46,1.027,2.477,1.029,3.402,1.029,0,0,0,0,0,0,4.429,0,7.512-1.196,9.661-2.795.271-.201.414-.542.38-.877,0-.009-.002-.018-.003-.027-.076-.756-.943-1.175-1.549-.718-2.127,1.601-4.961,2.417-8.488,2.418,0,0,0,0,0,0-.764,0-1.229-.049-1.5-.096v-.184c.269-.433,1.114-1.574,2.947-2.365,2.823-1.411,4.312-3.54,5.1-5.354,2.471.432,5.062,1.075,5.517,6.459.033.391.296.725.674.83.438.122.914-.088,1.089-.508.815-1.966,1.043-4.05.531-5.871.922.153,2.146.747,3.181,1.376.307.186.691.198.994.005l.039-.025c.41-.261.546-.795.32-1.225Zm-8.893-2.956c-.606-.038-2.267-.532-2.471-2.466.729-6.25,2.037-7.612,3.031-7.612h.004c.985.004,2.125,2.341,2.198,8.797-.207.386-.885,1.282-2.762,1.282Z"/>
</svg>
