<?xml version="1.0" encoding="UTF-8"?>
<svg xmlns="http://www.w3.org/2000/svg" id="Layer_1" data-name="Layer 1" viewBox="0 0 24 24">
  <path d="m23.311,3.999l-1.407-.603c-.23-1.371-.941-2.428-2.027-2.972-.954-.478-2.037-.557-3.054-.22-1.014.337-1.835,1.049-2.299,1.975l-.968,1.782c-1.755-.63-3.24-1.602-4.338-2.32l-.563-.366c-.545-.345-1.2-.369-1.75-.064-.555.308-.898.905-.894,1.558,0,.077.001.154.003.23-.351-.384-.664-.746-.936-1.059l-.356-.409c-.442-.502-1.128-.669-1.749-.418-.616.247-.996.835-.969,1.499.114,2.835.81,9.302,4.615,13.553l-4.767.233c-.562.04-1.083.316-1.432.758-.337.428-.48.977-.392,1.508.289,1.738,1.688,4.08,4.077,5.112.342.148.707.223,1.077.223.418,0,.842-.095,1.246-.289l4.004-2.128c.487-.26,1.067-.304,1.593-.123.829.285,1.699.541,3.227.541,3.722,0,6.75-3.028,6.75-6.75,0-1.643-.007-5.924-.011-8.593l1.322-.566c.418-.179.689-.59.689-1.045s-.271-.866-.689-1.045Zm-15.29-.751c1.062.695,2.718,1.778,4.571,2.488l-.656,1.208c-1.309-.203-2.542-.906-3.631-1.766-.114-.355-.246-.963-.284-1.929h0Zm7.229,16.752c-1.222,0-1.864-.188-2.576-.433-1.048-.36-2.208-.269-3.183.249l-3.964,2.108c-.198.095-.434.102-.631.016-1.625-.703-2.688-2.345-2.927-3.545l7.053-.345c.354-.018.699-.271.863-.585.229-.436.106-.973-.289-1.267C5.473,13.128,4.378,7.001,4.089,3.851c1.786,2.024,4.726,5.027,8.377,5.149.365.005.731-.189.912-.522l2.919-5.373c.239-.478.649-.833,1.157-1.002.507-.169,1.048-.129,1.525.11.874.438,1.005,1.562,1.005,2.192,0,0,.015,9.081.015,10.845,0,2.619-2.131,4.75-4.75,4.75Z"/>
</svg>
