<?xml version="1.0" encoding="UTF-8"?>
<svg xmlns="http://www.w3.org/2000/svg" id="Layer_1" data-name="Layer 1" viewBox="0 0 24 24">
  <path d="m7.86,13.924c.365-.383.719-.815.993-1.276.431-.727-.14-1.648-.982-1.648h-3.741c-.843,0-1.413.921-.982,1.648.273.461.628.894.993,1.276-2.366,1.086-4.14,4.061-4.14,6.587,0,1.923,1.57,3.488,3.5,3.488h5c1.93,0,3.5-1.565,3.5-3.488,0-2.527-1.775-5.501-4.14-6.587Zm.64,8.076H3.5c-.827,0-1.5-.667-1.5-1.488,0-2.295,2.168-5.012,4-5.012s4,2.717,4,5.012c0,.821-.673,1.488-1.5,1.488ZM21,0H6.499c-1.929,0-3.499,1.571-3.499,3.5v4.5c0,.552.448,1,1,1s1-.448,1-1V3.5c0-.827.673-1.5,1.5-1.5s1.5.673,1.5,1.5c0,1.378,1.122,2.5,2.5,2.5h8.5v13c0,1.654-1.346,3-3,3h-2c-.552,0-1,.448-1,1s.448,1,1,1h2c2.757,0,5-2.243,5-5V6h.5c1.378,0,2.5-1.122,2.5-2.5v-.5c0-1.654-1.346-3-3-3Zm1,3.5c0,.276-.224.5-.5.5h-11c-.276,0-.5-.224-.5-.5,0-.537-.122-1.045-.338-1.5h11.338c.551,0,1,.449,1,1v.5Z"/>
</svg>
