<?xml version="1.0" encoding="UTF-8"?>
<svg xmlns="http://www.w3.org/2000/svg" id="Layer_1" data-name="Layer 1" viewBox="0 0 24 24">
  <path d="m20.5,10h-2c-1.76,0-3.221,1.306-3.464,3h-4.536c-1.76,0-3.221,1.306-3.464,3h-3.536c-1.93,0-3.5,1.57-3.5,3.5v1c0,1.93,1.57,3.5,3.5,3.5h17c1.93,0,3.5-1.57,3.5-3.5v-7c0-1.93-1.57-3.5-3.5-3.5ZM2,20.5v-1c0-.827.673-1.5,1.5-1.5h3.5v4h-3.5c-.827,0-1.5-.673-1.5-1.5Zm7-4c0-.827.673-1.5,1.5-1.5h4.5v7h-6v-5.5Zm13,4c0,.827-.673,1.5-1.5,1.5h-3.5v-8.5c0-.827.673-1.5,1.5-1.5h2c.827,0,1.5.673,1.5,1.5v7ZM16.041,2.857c.096-.262.346-.437.626-.437h2.001l.708-1.987c.097-.261.346-.434.625-.434s.528.173.625.434l.708,1.987h2.001c.28,0,.53.175.626.438.096.263.017.558-.197.739l-1.577,1.285.652,1.987c.089.269-.001.565-.226.738-.225.173-.534.185-.771.031l-1.836-1.196-1.805,1.208c-.112.075-.242.113-.371.113-.141,0-.282-.045-.4-.133-.227-.17-.321-.464-.236-.734l.627-2.011-1.585-1.29c-.213-.181-.291-.476-.194-.738Zm-8,3c.096-.262.346-.437.626-.437h2.001l.708-1.987c.097-.261.346-.434.625-.434s.528.173.625.434l.708,1.987h2.001c.28,0,.53.175.626.438.096.263.017.558-.197.739l-1.577,1.285.652,1.987c.089.269-.001.565-.226.738-.225.173-.534.185-.771.031l-1.836-1.196-1.805,1.208c-.112.075-.242.113-.371.113-.141,0-.282-.045-.4-.133-.227-.17-.321-.464-.236-.734l.627-2.011-1.585-1.29c-.213-.181-.291-.476-.194-.738ZM.041,8.857c.096-.262.346-.437.626-.437h2.001l.708-1.987c.097-.261.346-.434.625-.434s.528.173.625.434l.708,1.987h2.001c.28,0,.53.175.626.438.096.263.017.558-.197.739l-1.577,1.285.652,1.987c.089.269-.001.565-.226.738-.225.173-.534.185-.771.031l-1.836-1.196-1.805,1.208c-.112.075-.242.113-.371.113-.141,0-.282-.045-.4-.133-.227-.17-.321-.464-.236-.734l.627-2.011-1.585-1.29c-.213-.181-.291-.476-.194-.738Z"/>
</svg>
