<?xml version="1.0" encoding="UTF-8"?>
<svg xmlns="http://www.w3.org/2000/svg" id="Layer_1" data-name="Layer 1" viewBox="0 0 24 24">
  <path d="m23.521,14.146c-.668-.408-1.379-.739-2.112-.984-.843-.282-1.409-1.049-1.409-1.91v-.798c2.108-.219,4-1.234,4-3.204,0-1.937-1.904-4.75-4.889-4.75-.037,0-.074,0-.111.001V.725c0-.495-.49-.845-.959-.686-1.186.4-2.041,1.522-2.041,2.843v1.006c-.623.701-1,1.615-1,2.612,0,.617-1.683,1.71-3.035,2.588-2.911,1.89-6.886,4.473-6.963,8.95-1.884-3.391-2.987-7.727-3.002-11.952-.007-1.921,1.337-3.657,3.225-4.013,2.544-.481,4.775,1.467,4.775,3.927,0,.552.448,1,1,1,.533,0,.968-.416.998-.941C11.928,3.071,9.764.432,6.789.051,3.13-.419,0,2.432,0,6c0,7.615,2.983,12.78,4.266,14.647.982,1.43,2.409,2.467,4.034,2.983.002,0,.004.001.006.002.758.24,1.56.367,2.379.367h10.315c.552,0,1-.448,1-1s-.448-1-1-1h-3.003c.629-.836,1.003-1.875,1.003-3,0-2.757-2.243-5-5-5-.552,0-1,.448-1,1,0,.56.46,1.012,1.023,1,.879-.019,1.767.232,2.276.949,1.722,2.425.013,5.052-2.298,5.052h-3.315c-.575,0-1.137-.084-1.672-.242-1.354-.789-2.013-1.963-2.013-3.587,0-3.473,3.216-5.562,6.054-7.405,1.056-.686,2.006-1.303,2.709-1.947.538.733,1.323,1.283,2.237,1.533v.901c0,1.722,1.115,3.252,2.775,3.807.591.197,1.164.464,1.703.794.163.099.343.146.521.146.337,0,.666-.17.854-.479.288-.471.139-1.087-.332-1.375Zm-4.41-5.646c-1.164,0-2.111-.897-2.111-2s.947-2,2.111-2c1.764,0,2.889,1.806,2.889,2.75,0,.862-1.689,1.25-2.889,1.25Z"/>
</svg>
