<?xml version="1.0" encoding="UTF-8"?>
<svg xmlns="http://www.w3.org/2000/svg" id="Layer_1" data-name="Layer 1" viewBox="0 0 24 24">
  <path d="m4,20c.553,0,1,.448,1,1,0,.551.448,1,1,1h7c.552,0,1-.449,1-1v-1c0-.552.447-1,1-1h1.494c1.499,0,2.777-1.121,2.975-2.607l.334-2.524c.065-.497.489-.869.991-.869l1.207.024c-.083-.831-2.459-5.746-3.802-7.407-1.722-2.299-4.346-3.618-7.199-3.618-.553,0-1-.448-1-1C10,.448,10.447,0,11,0c3.489,0,6.696,1.61,8.777,4.389,1.291,1.597,4.223,7.191,4.223,8.611,0,.97-.701,2-2,2h-.33l-.219,1.656c-.328,2.477-2.459,4.344-4.957,4.344h-.494c0,1.654-1.346,3-3,3h-7c-1.654,0-3-1.346-3-3,0-.552.447-1,1-1Zm-1.5-10h3c1.379,0,2.5,1.122,2.5,2.5v3c0,1.378-1.121,2.5-2.5,2.5h-3C1.121,18,0,16.878,0,15.5v-3c0-1.378,1.121-2.5,2.5-2.5Zm-.5,5.5c0,.276.225.5.5.5h3c.275,0,.5-.224.5-.5v-3c0-.276-.225-.5-.5-.5h-3c-.275,0-.5.224-.5.5v3ZM8,2v4c0,1.105-.895,2-2,2H2C.895,8,0,7.105,0,6V2C0,.895.895,0,2,0h4C7.105,0,8,.895,8,2Zm-1.285.11c-.394-.403-1.042-.401-1.433.004l-1.828,1.892-.777-.821c-.392-.414-1.05-.417-1.445-.006-.37.384-.372.992-.006,1.379l.769.813c.787.832,2.109.839,2.905.015l1.82-1.883c.376-.389.374-1.007-.004-1.394Z"/>
</svg>
