<?xml version="1.0" encoding="UTF-8"?>
<svg xmlns="http://www.w3.org/2000/svg" id="Layer_1" data-name="Layer 1" viewBox="0 0 24 24">
  <path d="m23.925,9.367C22.665,3.939,17.649,0,12,0,6,0,1.301,4.088.075,9.368c-.201.864.006,1.766.566,2.471.586.738,1.466,1.161,2.413,1.161h4.872c-.583,2.524-.926,5.585-.926,6.5,0,2.523,2.196,4.5,5,4.5s5-1.977,5-4.5c0-.915-.344-3.976-.926-6.5h4.872c.947,0,1.827-.423,2.413-1.161.561-.705.767-1.606.566-2.472ZM11,2.5c0,1.379-1.122,2.5-2.5,2.5-.925,0-1.739-.504-2.17-1.29,1.362-.897,2.945-1.476,4.621-1.65.026.145.048.29.048.44Zm4,17c0,1.425-1.29,2.5-3,2.5s-3-1.075-3-2.5c0-.872.376-4.093.983-6.5h4.033c.607,2.407.983,5.628.983,6.5Zm6.792-8.905c-.205.258-.513.405-.847.405h-8.232c.175-.295.286-.632.286-1,0-1.105-.895-2-2-2s-2,.895-2,2c0,.368.111.705.286,1H3.055c-.334,0-.643-.147-.847-.405-.105-.132-.269-.409-.184-.774.435-1.875,1.414-3.531,2.741-4.836.813,1.239,2.189,2.016,3.735,2.016,2.481,0,4.5-2.019,4.5-4.5,0-.154-.035-.302-.05-.453,4.331.406,8.046,3.548,9.027,7.772.085.366-.079.644-.184.775Zm-3.792-3.095c0,.828-.672,1.5-1.5,1.5s-1.5-.672-1.5-1.5.672-1.5,1.5-1.5,1.5.672,1.5,1.5Z"/>
</svg>
