<?xml version="1.0" encoding="UTF-8"?>
<svg xmlns="http://www.w3.org/2000/svg" id="Layer_1" data-name="Layer 1" viewBox="0 0 24 24">
  <path d="m14,4v-.5c0-1.93,1.57-3.5,3.5-3.5.556,0,1.095.133,1.585.387.467-.177,1.176-.387,1.915-.387,1.654,0,3,1.346,3,3s-1.346,3-3,3c-.553,0-1-.447-1-1s.447-1,1-1,1-.448,1-1-.448-1-1-1c-.612,0-1.324.291-1.547.403-.343.173-.753.136-1.057-.095-.187-.141-.493-.309-.896-.309-.827,0-1.5.673-1.5,1.5v.5c0,.553-.447,1-1,1s-1-.447-1-1Zm-8,1c.552,0,1-.447,1-1v-.5c0-.827.673-1.5,1.5-1.5.404,0,.71.168.896.309.305.23.717.268,1.057.095.223-.112.936-.403,1.547-.403.552,0,1-.447,1-1s-.448-1-1-1c-.739,0-1.448.21-1.915.387-.491-.254-1.029-.387-1.585-.387-1.93,0-3.5,1.57-3.5,3.5v.5c0,.553.448,1,1,1Zm10.746,15.255c.403.809.361,1.75-.114,2.518-.475.769-1.298,1.228-2.201,1.228H2.548c-.904,0-1.727-.459-2.202-1.228-.475-.769-.517-1.71-.113-2.518l1.162-2.324c1.036-2.071,1.583-4.392,1.583-6.708v-2.223c0-1.103.897-2,2-2h7.021c1.103,0,2,.897,2,2v2.223c0,2.317.548,4.637,1.584,6.708l1.162,2.324ZM4.979,11.223c0,.594-.036,1.187-.099,1.777h7.219c-.063-.591-.099-1.184-.099-1.777v-2.223h-7.021v2.223Zm9.978,9.927l-1.162-2.324c-.607-1.213-1.062-2.501-1.364-3.825h-7.882c-.302,1.324-.757,2.612-1.364,3.825l-1.162,2.324c-.132.265-.026.488.025.571.052.084.205.279.5.279h11.882c.296,0,.448-.195.5-.279.052-.083.158-.307.026-.571Zm7.605-3.219c-1.035-2.072-1.583-4.392-1.583-6.708v-2.223c0-1.103-.897-2-2-2h-2.021c-.553,0-1,.447-1,1s.447,1,1,1h2.021v2.223c0,.593.036,1.187.099,1.777h-2.078c-.553,0-1,.447-1,1s.447,1,1,1h2.41c.302,1.324.757,2.612,1.363,3.825l1.162,2.324c.133.265.026.488-.025.572-.052.083-.204.278-.5.278h-1.41c-.553,0-1,.447-1,1s.447,1,1,1h1.41c.903,0,1.727-.459,2.202-1.228.475-.769.517-1.71.112-2.518l-1.162-2.324Z"/>
</svg>
