<?xml version="1.0" encoding="UTF-8"?>
<svg xmlns="http://www.w3.org/2000/svg" id="Layer_1" data-name="Layer 1" viewBox="0 0 24 24">
  <path d="m17.979,13.024c-1.119-1.116-2.813-1.318-4.14-.607l-4.832-4.832v-3.086c0-1.013-.545-1.956-1.422-2.462L4.604.318C3.673-.22,2.492-.063,1.73.697L.705,1.724C-.056,2.483-.211,3.665.326,4.596l1.719,2.981h0c.506.878,1.45,1.423,2.462,1.423h3.086l4.826,4.826c-.278.508-.426,1.079-.426,1.674,0,.936.365,1.814,1.028,2.476l5.014,5c.658.656,1.554,1.024,2.48,1.024.985,0,2.088-.521,2.718-1.289,1.126-1.372.976-3.475-.341-4.787l-4.913-4.899ZM3.777,6.579l-1.719-2.982c-.086-.148-.061-.337.061-.459l1.025-1.026c.122-.121.311-.147.46-.061l2.98,1.72c.26.15.422.43.422.729v2.5h-2.5c-.3,0-.579-.161-.729-.421Zm17.91,14.863c-.276.337-.666.534-1.097.556-.421.02-.841-.139-1.142-.438l-5.014-5c-.284-.283-.44-.659-.44-1.06s.157-.776.44-1.06c.294-.293.681-.44,1.067-.44s.772.147,1.066.44l4.914,4.899c.596.595.687,1.518.207,2.103Zm-11.25-4.343c.39.392.389,1.024-.002,1.414l-4.477,4.462c-.658.656-1.553,1.024-2.48,1.024-.881,0-2.088-.521-2.718-1.29-1.125-1.371-.976-3.474.342-4.786l5.668-5.655c.39-.39,1.024-.39,1.414.002.39.391.389,1.024-.002,1.414l-5.669,5.655c-.596.595-.688,1.518-.208,2.102.277.338.667.535,1.098.557.426.019.841-.139,1.142-.438l4.478-4.462c.391-.39,1.023-.39,1.415.002Zm-.544-12.465C10.813,2.291,12.917.56,15.384.117c.863-.154,1.73-.157,2.579-.006.666.118,1.203.588,1.402,1.224.229.729,0,1.531-.612,2.145l-2.335,2.242c-.485.485-.564,1.261-.165,1.749.23.281.553.445.911.464.349.017.694-.112.947-.365l2.614-2.521c.486-.486,1.213-.667,1.893-.45.664.209,1.151.762,1.272,1.441.15.848.148,1.717-.006,2.581-.281,1.572-1.1,3.036-2.306,4.123-.191.172-.431.257-.669.257-.273,0-.546-.111-.743-.33-.37-.41-.337-1.043.073-1.413.877-.79,1.472-1.852,1.676-2.988.098-.548.112-1.095.043-1.632l-2.445,2.359c-.635.637-1.53.984-2.448.936-.916-.046-1.776-.481-2.36-1.195-1.042-1.274-.904-3.226.314-4.443l2.334-2.242.009-.009c-.535-.068-1.081-.054-1.625.044-1.788.32-3.313,1.577-3.982,3.279-.201.514-.782.767-1.296.565s-.768-.782-.565-1.296Z"/>
</svg>
