<?xml version="1.0" encoding="UTF-8"?>
<svg xmlns="http://www.w3.org/2000/svg" id="Layer_1" data-name="Layer 1" viewBox="0 0 24 24">
  <path d="m15.956,13.428c-.151.727-.733,1.335-1.454,1.511-.741.181-1.436-.053-1.904-.515.197.66.454,1.284.802,1.825.209.325-.046.752-.432.752h-1.935c-.386,0-.641-.427-.432-.752.348-.541.606-1.165.802-1.825-.469.462-1.163.696-1.904.515-.721-.176-1.303-.784-1.454-1.511-.268-1.292.711-2.428,1.956-2.428.101,0,.197.015.293.03-.182-.302-.293-.651-.293-1.03,0-1.105.895-2,2-2s2,.895,2,2c0,.378-.111.728-.293,1.03.097-.014.193-.03.293-.03,1.244,0,2.223,1.136,1.956,2.428Zm5.044-8.428v14c0,2.757-2.243,5-5,5h-8c-2.757,0-5-2.243-5-5V5C3,2.243,5.243,0,8,0h8c2.757,0,5,2.243,5,5Zm-2,0c0-1.654-1.346-3-3-3h-8c-1.654,0-3,1.346-3,3v14c0,1.654,1.346,3,3,3h8c1.654,0,3-1.346,3-3V5Z"/>
</svg>
