<?xml version="1.0" encoding="UTF-8"?>
<svg xmlns="http://www.w3.org/2000/svg" id="Layer_1" data-name="Layer 1" viewBox="0 0 24 24">
  <path d="m21.159,11.317l-1.526-4.582c-.546-1.636-2.07-2.735-3.795-2.735h-.838c-1.654,0-3,1.346-3,3v10H1c-.552,0-1,.447-1,1s.448,1,1,1h1v.5c0,1.93,1.57,3.5,3.5,3.5s3.5-1.57,3.5-3.5v-.5h6v.5c0,1.93,1.57,3.5,3.5,3.5s3.5-1.57,3.5-3.5v-.5c1.103,0,2-.897,2-2v-1.5c0-1.896-1.178-3.521-2.841-4.183Zm-6.159-5.317h.838c.862,0,1.624.55,1.897,1.368l1.211,3.632h-4.946v-4c0-.552.448-1,1-1Zm-8,13.5c0,.827-.673,1.5-1.5,1.5s-1.5-.673-1.5-1.5v-.5h3v.5Zm13,0c0,.827-.673,1.5-1.5,1.5s-1.5-.673-1.5-1.5v-.5h3v.5Zm2-2.5h-8v-4h5.5c1.379,0,2.5,1.121,2.5,2.5v1.5Z"/>
</svg>
