<?xml version="1.0" encoding="UTF-8"?>
<svg xmlns="http://www.w3.org/2000/svg" id="Layer_1" data-name="Layer 1" viewBox="0 0 24 24">
  <path d="m23.921,20.482c-1.082-2.258-2.921-3.769-2.921-3.769,0,0,1.572-1.382,2.684-2.476.465-.458.365-1.234-.213-1.536-.739-.385-2.026-.837-3.47-1.142v-3.551c0-1.547-1.144-2.829-2.659-2.983-.163-.016-.329-.025-.495-.025-2.802,0-4.114.992-5.384,1.951-.894.675-1.826,1.359-3.462,1.741v-.169c0-1.407-.976-2.618-2.348-2.927-1.245-.28-3.327-.673-4.633-1.128-.647-.226-1.237.458-.94,1.076,1.082,2.258,2.921,3.77,2.921,3.77,0,0-1.571,1.382-2.683,2.476-.465.458-.365,1.234.213,1.536.739.385,2.026.837,3.47,1.142v2.525c0,1.547,1.144,2.829,2.659,2.983.163.016.329.025.495.025,2.849,0,4.173-.929,5.453-1.828.89-.625,1.814-1.258,3.393-1.692v1.023c0,1.407.976,2.618,2.349,2.927,1.245.28,3.326.673,4.632,1.128.647.226,1.237-.458.941-1.077Zm-12.463-3.947c-1.212.851-2.087,1.465-4.304,1.465-.098,0-.196-.005-.293-.016-.482-.049-.861-.485-.861-.993v-6.017c3.703-.188,5.335-1.422,6.668-2.428,1.144-.864,2.047-1.547,4.178-1.547.098,0,.196.005.293.016.482.049.861.485.861.993v6.075c-3.607.391-5.223,1.526-6.542,2.452Z"/>
</svg>
