<?xml version="1.0" encoding="UTF-8"?>
<svg xmlns="http://www.w3.org/2000/svg" id="Layer_1" data-name="Layer 1" viewBox="0 0 24 24">
  <path d="m19,2h-1v-1c0-.552-.447-1-1-1s-1,.448-1,1v1h-8v-1c0-.552-.448-1-1-1s-1,.448-1,1v1h-1C2.243,2,0,4.243,0,7v12c0,1.526.684,2.948,1.875,3.902.185.148.405.22.625.22.293,0,.583-.128.781-.375.345-.431.275-1.061-.156-1.405-.715-.573-1.125-1.427-1.125-2.342v-9h20v3c0,.553.447,1,1,1s1-.447,1-1v-6c0-2.757-2.243-5-5-5ZM2,8v-1c0-1.654,1.346-3,3-3h14c1.654,0,3,1.346,3,3v1H2Zm9.992,9l.445,6.142c.034.463-.333.858-.798.858-.419,0-.768-.324-.798-.742l-.265-3.66-.798,1.756c-.304.668-1.253.668-1.557,0l-.798-1.756-.265,3.66c-.03.418-.379.742-.798.742-.465,0-.831-.394-.798-.858l.445-6.142c.043-.705.472-1,.988-1,.342,0,.66.242.841.64l1.164,2.56,1.164-2.56c.181-.398.499-.64.841-.64.516,0,.945.295.988,1Zm12.008-.2v6.23c0,.535-.434.97-.97.97-.383,0-.731-.226-.886-.576l-1.544-3.478v3.254c0,.442-.358.8-.8.8s-.8-.358-.8-.8v-6.226c0-.537.437-.972.974-.969.381.002.725.227.88.576l1.546,3.482v-3.263c0-.442.358-.8.8-.8s.8.358.8.8Zm-8.3-.8c-1.269,0-2.3,1.031-2.3,2.3v3.4c0,1.269,1.031,2.3,2.3,2.3s2.3-1.031,2.3-2.3v-3.4c0-1.269-1.031-2.3-2.3-2.3Zm.7,5.7c0,.386-.314.7-.7.7s-.7-.314-.7-.7v-3.4c0-.386.314-.7.7-.7s.7.314.7.7v3.4Z"/>
</svg>
