<?xml version="1.0" encoding="UTF-8"?>
<svg xmlns="http://www.w3.org/2000/svg" id="Layer_1" data-name="Layer 1" viewBox="0 0 24 24">
  <path d="m17.002,7.335c-.002-.549-.333-1.034-.845-1.235-.513-.2-1.086-.072-1.462.331l-.868.928c-1.172-.471-2.482-.472-3.654,0l-.868-.928c-.376-.402-.948-.531-1.462-.331-.512.201-.843.686-.845,1.237-.005,2.579.002,4.664.002,4.664,0,2.757,2.243,5,5,5s5-2.243,5-5c0,0,.007-2.089.002-4.665Zm-2.002,4.665c0,1.654-1.346,3-3,3s-3-1.346-3-3c0-.024-.007-1.707-.005-2.974l.224.239c.323.344.841.417,1.246.174.969-.583,2.102-.583,3.07,0,.405.244.923.171,1.246-.174l.224-.239c.002,1.267-.005,2.95-.005,2.974Zm-2,.618c0,.234-.132.448-.342.553l-.382.191c-.174.087-.379.087-.553,0l-.382-.191c-.209-.105-.342-.319-.342-.553,0-.341.277-.618.618-.618h.764c.341,0,.618.277.618.618Zm5.571-10.492L12.312.051c-.203-.067-.426-.067-.629,0l-6.26,2.075c-2.049.68-3.426,2.587-3.426,4.746v5.171c0,6.564,7.005,10.577,9.152,11.65,0,0,.523.307.85.307s.791-.24.791-.24c2.16-.869,9.207-4.283,9.207-11.717v-5.171c0-2.159-1.377-4.066-3.427-4.746Zm1.427,9.917c0,6.18-6.088,9.11-7.953,9.861-1.889-.944-8.047-4.445-8.047-9.861v-5.171c0-1.296.826-2.44,2.055-2.848l5.945-1.971,5.944,1.971c1.229.408,2.056,1.552,2.056,2.848v5.171Z"/>
</svg>
