<?xml version="1.0" encoding="UTF-8"?>
<svg xmlns="http://www.w3.org/2000/svg" id="Layer_1" data-name="Layer 1" viewBox="0 0 24 24">
  <path d="m24,9.684v13.316c0,.553-.447,1-1,1s-1-.447-1-1v-13.316c0-.999-.494-1.928-1.322-2.486l-7-4.724c-1.02-.688-2.336-.688-3.355,0L3.322,7.198c-.828.558-1.322,1.488-1.322,2.486v13.316c0,.553-.447,1-1,1s-1-.447-1-1v-13.316c0-1.665.824-3.214,2.203-4.145L9.203.816c1.699-1.146,3.895-1.147,5.594,0l7,4.723c1.379.931,2.203,2.48,2.203,4.145Zm-9.5-2.184c0-1.381-1.119-2.5-2.5-2.5s-2.5,1.119-2.5,2.5,1.119,2.5,2.5,2.5,2.5-1.119,2.5-2.5Zm2.5,7.5v1c0,1.474-.81,2.75-2,3.444v3.556c0,.553-.447,1-1,1s-1-.447-1-1v-3h-2v3c0,.553-.447,1-1,1s-1-.447-1-1v-3.556c-1.19-.694-2-1.97-2-3.444v-1c0-2.206,1.794-4,4-4h2c2.206,0,4,1.794,4,4Zm-2,0c0-1.103-.897-2-2-2h-2c-1.103,0-2,.897-2,2v1c0,1.103.897,2,2,2h2c1.103,0,2-.897,2-2v-1Z"/>
</svg>
