<?xml version="1.0" encoding="UTF-8"?>
<svg xmlns="http://www.w3.org/2000/svg" id="Layer_1" data-name="Layer 1" viewBox="0 0 24 24">
  <path d="m12,0C5.383,0,0,5.383,0,12s5.383,12,12,12,12-5.383,12-12S18.617,0,12,0Zm0,22c-5.514,0-10-4.486-10-10S6.486,2,12,2s10,4.486,10,10-4.486,10-10,10Zm0-18c-4.411,0-8,3.589-8,8s3.589,8,8,8,8-3.589,8-8-3.589-8-8-8Zm0,14c-3.309,0-6-2.691-6-6s2.691-6,6-6,6,2.691,6,6-2.691,6-6,6Zm4.151-7.523c.099.275.015.588-.206.778l-1.656,1.351.687,2.083c.092.282,0,.595-.237.771-.237.183-.557.191-.809.031l-1.923-1.251-1.892,1.267c-.114.076-.252.114-.389.114v-.008c-.145,0-.298-.046-.42-.137-.237-.175-.336-.488-.244-.771l.656-2.106-1.663-1.351c-.221-.191-.305-.496-.206-.771s.366-.458.656-.458h2.098l.74-1.992c.099-.275.366-.458.656-.458s.557.183.656.458l.74,1.992h2.098c.29,0,.557.183.656.458Z"/>
</svg>
