<?xml version="1.0" encoding="UTF-8"?>
<svg xmlns="http://www.w3.org/2000/svg" id="Layer_1" data-name="Layer 1" viewBox="0 0 24 24">
  <path d="m22,10h-7c-1.103,0-2,.897-2,2v4H2c-1.103,0-2,.897-2,2v1.5c0,2.481,2.019,4.5,4.5,4.5h15c2.481,0,4.5-2.019,4.5-4.5v-7.5c0-1.103-.897-2-2-2Zm-7,2h7v4h-7v-4Zm1,6v4h-8v-4h8Zm-14,1.5v-1.5h4v4h-1.5c-1.378,0-2.5-1.122-2.5-2.5Zm20,0c0,1.378-1.121,2.5-2.5,2.5h-1.5v-4h4v1.5ZM1.397,8.386l4.819,2.81c.439.202.906.301,1.373.301.62,0,1.236-.176,1.779-.524,1.022-.655,1.632-1.794,1.632-3.049v-.924h2.269c.346.597.992,1,1.731,1h5c1.103,0,2-.897,2-2s-.897-2-2-2h-5c-.739,0-1.385.403-1.731,1h-2.269v-.924c0-1.254-.61-2.394-1.632-3.049-.951-.61-2.129-.693-3.238-.178L1.414,3.605c-.872.471-1.414,1.389-1.414,2.395,0,1,.535,1.912,1.397,2.386Zm.996-3.037l4.659-2.727c.193-.089.374-.123.538-.123.308,0,.553.119.699.212.445.286.711.796.711,1.365v3.848c0,.569-.266,1.08-.711,1.365-.224.143-.68.345-1.15.135l-4.746-2.772c-.01-.006-.02-.011-.029-.017-.329-.177-.364-.503-.364-.635s.035-.458.393-.651Z"/>
</svg>
