<?xml version="1.0" encoding="UTF-8"?>
<svg xmlns="http://www.w3.org/2000/svg" id="Layer_1" data-name="Layer 1" viewBox="0 0 24 24">
  <path d="m6.5,1C3.27,1,0,2.202,0,4.5v16c0,2.298,3.27,3.5,6.5,3.5s6.5-1.202,6.5-3.5V4.5c0-2.298-3.27-3.5-6.5-3.5Zm4.5,15.5c0,.436-1.577,1.5-4.5,1.5s-4.5-1.064-4.5-1.5v-1.409c1.226.601,2.867.909,4.5.909s3.274-.308,4.5-.909v1.409Zm0-4c0,.436-1.577,1.5-4.5,1.5s-4.5-1.064-4.5-1.5v-1.409c1.226.601,2.867.909,4.5.909s3.274-.308,4.5-.909v1.409Zm0-4c0,.436-1.577,1.5-4.5,1.5s-4.5-1.064-4.5-1.5v-1.409c1.226.601,2.867.909,4.5.909s3.274-.308,4.5-.909v1.409ZM6.5,3c2.923,0,4.5,1.064,4.5,1.5s-1.577,1.5-4.5,1.5-4.5-1.064-4.5-1.5,1.577-1.5,4.5-1.5Zm0,19c-2.923,0-4.5-1.064-4.5-1.5v-1.409c1.226.601,2.867.909,4.5.909s3.274-.308,4.5-.909v1.409c0,.436-1.577,1.5-4.5,1.5Zm17.207-1.412l-2.535,2.535c-.585.584-1.354.877-2.122.877s-1.536-.292-2.121-.876l-2.636-2.636c-.391-.391-.391-1.023,0-1.414s1.023-.391,1.414,0l2.293,2.293V1c0-.552.447-1,1-1s1,.448,1,1v20.467l2.293-2.293c.391-.391,1.023-.391,1.414,0s.391,1.023,0,1.414Z"/>
</svg>
