<?xml version="1.0" encoding="UTF-8"?>
<svg xmlns="http://www.w3.org/2000/svg" id="Layer_1" data-name="Layer 1" viewBox="0 0 24 24">
  <path d="m23,16v-3.08c0-4.734-3.183-8.918-7.78-10.293-.729-.986-1.901-1.627-3.22-1.627s-2.491.641-3.22,1.627C4.182,4.002,1,8.186,1,12.92v3.08c-.552,0-1,.447-1,1s.448,1,1,1h.475c1.002,1.348,4.293,5,10.525,5s9.522-3.652,10.525-5h.475c.553,0,1-.447,1-1s-.447-1-1-1Zm-2-3.08v3.08h-5V5.069c3.011,1.457,5,4.484,5,7.851ZM12,3c1.103,0,2,.895,2,1.994v11.006h-4V4.994c0-1.1.897-1.994,2-1.994Zm-4,2.069v10.931H3v-3.08c0-3.367,1.988-6.394,5-7.851Zm-3.859,12.931h15.704c-1.389,1.312-3.936,3-7.845,3-3.939,0-6.479-1.687-7.859-3Z"/>
</svg>
