<?xml version="1.0" encoding="UTF-8"?>
<svg xmlns="http://www.w3.org/2000/svg" id="Layer_1" data-name="Layer 1" viewBox="0 0 24 24">
  <path d="m14.998,14.883c0,.51-.202,1.117-1.166,1.117-.272-.012-.541-.059-.8-.139-.67-.211-1.397-.211-2.068,0-1.099.363-2.007.006-1.966-.978.002-1.455,1.487-2.883,3-2.883s2.998,1.428,2.998,2.883Zm.573-4.863c-.514-.061-.98.425-1.06,1.304-.163,2.075,1.623,2.346,1.862.222.08-.878-.287-1.464-.801-1.526Zm-7.258,0c-.514.061-.882.647-.802,1.526.239,2.124,2.024,1.852,1.862-.222-.081-.879-.546-1.365-1.06-1.304Zm3.29-.711c-.082-.879-.546-1.365-1.061-1.304-.516.061-.881.647-.8,1.526.239,2.125,2.025,1.852,1.861-.222Zm2.645.222c.08-.878-.288-1.464-.802-1.526-.514-.061-.98.425-1.06,1.304-.163,2.076,1.623,2.346,1.862.222Zm9.752-1.742c0,4.885-5.546,11.17-9.273,14.203-.82.667-1.824,1.001-2.827,1.001-1.009,0-2.018-.338-2.839-1.013C5.558,19.099,0,12.699,0,7.79,0,4.046,3.033,1,6.762,1c2.048,0,3.948.91,5.238,2.503,1.291-1.593,3.19-2.503,5.238-2.503,3.729,0,6.762,3.046,6.762,6.79Zm-2,0c0-2.641-2.136-4.79-4.762-4.79-1.478,0-2.847.675-3.757,1.854-.715.928-2.247.928-2.963,0-.91-1.178-2.279-1.853-3.756-1.853-2.625,0-4.762,2.148-4.762,4.79,0,3.996,4.872,9.801,8.331,12.646.919.756,2.208.758,3.134.005,4.138-3.366,8.535-8.944,8.535-12.651Z"/>
</svg>
