<?xml version="1.0" encoding="UTF-8"?>
<svg xmlns="http://www.w3.org/2000/svg" id="Layer_1" data-name="Layer 1" viewBox="0 0 24 24">
  <path d="m1,16.5c0-1.381,1.119-2.5,2.5-2.5s2.5,1.119,2.5,2.5-1.119,2.5-2.5,2.5-2.5-1.119-2.5-2.5Zm2.5,3.5c-1.68,0-3.144,1.176-3.479,2.797-.112.541.235,1.07.776,1.182.537.109,1.07-.235,1.182-.776.145-.697.784-1.203,1.521-1.203s1.376.506,1.521,1.203c.098.473.514.797.978.797.067,0,.135-.007.204-.021.541-.112.889-.641.776-1.182-.335-1.621-1.799-2.797-3.479-2.797Zm16.5-6h-9c-1.103,0-2-.897-2-2s.897-2,2-2h1c.552,0,1-.448,1-1s-.448-1-1-1h-1c-2.206,0-4,1.794-4,4s1.794,4,4,4h9c1.103,0,2,.897,2,2s-.897,2-2,2h-10c-.552,0-1,.448-1,1s.448,1,1,1h10c2.206,0,4-1.794,4-4s-1.794-4-4-4Zm-4.497-6.611l-.862,2.765c-.116.371.013.776.325,1.009.162.122.356.183.55.183.178,0,.355-.051.51-.155l2.482-1.661,2.524,1.644c.326.212.751.195,1.06-.042.309-.238.433-.645.311-1.014l-.897-2.732,2.169-1.767c.294-.248.403-.654.271-1.016-.132-.362-.476-.602-.861-.602h-2.751l-.974-2.732c-.133-.359-.476-.597-.859-.597s-.726.238-.859.597l-.974,2.732h-2.751c-.384,0-.728.24-.86.601-.133.361-.026.766.267,1.015l2.179,1.773Z"/>
</svg>
