<?xml version="1.0" encoding="UTF-8"?>
<svg xmlns="http://www.w3.org/2000/svg" id="Layer_1" data-name="Layer 1" viewBox="0 0 24 24">
  <path d="m19.5,0h-6c-1.796,0-3.338,1.065-4.059,2.591-.556-.372-1.223-.591-1.941-.591-1.93,0-3.5,1.57-3.5,3.5,0,.539.133,1.044.351,1.5h-2.351V1c0-.552-.448-1-1-1S0,.448,0,1v22c0,.552.448,1,1,1s1-.448,1-1v-2h20v2c0,.552.448,1,1,1s1-.448,1-1V4.5c0-2.481-2.019-4.5-4.5-4.5Zm-8.5,4.5c0-1.378,1.122-2.5,2.5-2.5h6c1.378,0,2.5,1.122,2.5,2.5v2.5h-11v-2.5Zm-5,1c0-.827.673-1.5,1.5-1.5s1.5.673,1.5,1.5-.673,1.5-1.5,1.5-1.5-.673-1.5-1.5Zm-4,3.5h20v3h-8.5c-1.796,0-3.338,1.065-4.059,2.591-.556-.372-1.223-.591-1.941-.591-1.93,0-3.5,1.57-3.5,3.5,0,.539.133,1.044.351,1.5h-2.351v-10Zm4,8.5c0-.827.673-1.5,1.5-1.5s1.5.673,1.5,1.5-.673,1.5-1.5,1.5-1.5-.673-1.5-1.5Zm5,1.5v-2.5c0-1.378,1.122-2.5,2.5-2.5h8.5v5h-11Z"/>
</svg>
