<?xml version="1.0" encoding="UTF-8"?>
<svg xmlns="http://www.w3.org/2000/svg" id="Layer_1" data-name="Layer 1" viewBox="0 0 24 24">
  <path d="m18.5,5h-3c-1.379,0-2.5,1.122-2.5,2.5v3.5h-1.382l-1.369-2.739c-.697-1.395-2.1-2.261-3.659-2.261-1.979,0-3.59,1.611-3.59,3.604l.054,3.78c.02,1.394.744,2.654,1.938,3.371l2.524,1.518c.299.18.484.509.484.857v3.869c0,.552.447,1,1,1s1-.448,1-1v-3.869c0-1.046-.557-2.031-1.453-2.571l-2.525-1.519c-.596-.359-.958-.989-.968-1.686l-.054-3.766c0-.877.713-1.59,1.59-1.59.14,0,.277.014.41.04v4.96c0,.552.447,1,1,1s1-.448,1-1v-2.765l.829,1.658c.34.683,1.025,1.106,1.789,1.106h6.882c1.379,0,2.5-1.122,2.5-2.5v-3c0-1.378-1.121-2.5-2.5-2.5Zm.5,5.5c0,.276-.225.5-.5.5h-3.5v-3.5c0-.276.225-.5.5-.5h3c.275,0,.5.224.5.5v3ZM4,2.5c0-1.381,1.119-2.5,2.5-2.5s2.5,1.119,2.5,2.5-1.119,2.5-2.5,2.5-2.5-1.119-2.5-2.5Zm2,17.5v3c0,.552-.447,1-1,1s-1-.448-1-1v-3c0-.552.447-1,1-1s1,.448,1,1Z"/>
</svg>
