<?xml version="1.0" encoding="UTF-8"?>
<svg xmlns="http://www.w3.org/2000/svg" id="Layer_1" data-name="Layer 1" viewBox="0 0 24 24">
  <path d="m9,11c0,1.93,1.57,3.5,3.5,3.5s3.5-1.57,3.5-3.5-1.57-3.5-3.5-3.5-3.5,1.57-3.5,3.5Zm5,0c0,.827-.673,1.5-1.5,1.5s-1.5-.673-1.5-1.5.673-1.5,1.5-1.5,1.5.673,1.5,1.5Zm6.731,3.317c-.376-.404-1.01-.424-1.414-.048-.403.377-.425,1.01-.048,1.414l2.164,2.317H6.964c-.22-1.53-1.434-2.744-2.964-2.964V6.964c1.53-.22,2.744-1.434,2.964-2.964h10.072c.243,1.694,1.704,3,3.464,3,1.93,0,3.5-1.57,3.5-3.5s-1.57-3.5-3.5-3.5c-1.393,0-2.599.819-3.162,2H6.662c-.563-1.181-1.769-2-3.162-2C1.57,0,0,1.57,0,3.5c0,1.393.819,2.599,2,3.162v8.677c-1.181.563-2,1.769-2,3.162,0,1.93,1.57,3.5,3.5,3.5,1.393,0,2.599-.819,3.162-2h14.771l-2.163,2.317c-.377.404-.355,1.037.048,1.414.193.18.438.269.683.269.267,0,.534-.106.731-.317l2.39-2.561c.567-.567.879-1.32.879-2.122s-.312-1.555-.855-2.097l-2.414-2.586Zm-.231-12.317c.827,0,1.5.673,1.5,1.5s-.673,1.5-1.5,1.5-1.5-.673-1.5-1.5.673-1.5,1.5-1.5ZM3.5,2c.827,0,1.5.673,1.5,1.5s-.673,1.5-1.5,1.5-1.5-.673-1.5-1.5.673-1.5,1.5-1.5Zm0,18c-.827,0-1.5-.673-1.5-1.5s.673-1.5,1.5-1.5,1.5.673,1.5,1.5-.673,1.5-1.5,1.5Z"/>
</svg>
