<?xml version="1.0" encoding="UTF-8"?>
<svg xmlns="http://www.w3.org/2000/svg" id="Layer_1" data-name="Layer 1" viewBox="0 0 24 24">
  <path d="m16,20c0,.553-.447,1-1,1H3c-1.654,0-3-1.346-3-3,0-1.304.836-2.415,2-2.828v-7.172c0-.552.447-1,1-1s1,.448,1,1v7h4.5c.266,0,.52.105.707.293l.707.707h2.086c.553,0,1,.447,1,1s-.447,1-1,1h-2.5c-.266,0-.52-.105-.707-.293l-.707-.707H3c-.552,0-1,.448-1,1s.448,1,1,1h12c.553,0,1,.447,1,1Zm7.707,2.293c.391.391.391,1.023,0,1.414-.195.195-.451.293-.707.293s-.512-.098-.707-.293L.293,1.707C-.098,1.316-.098.684.293.293S1.316-.098,1.707.293l3.177,3.177c.659-.308,1.383-.47,2.116-.47h10c2.757,0,5,2.243,5,5v7.172c1.164.413,2,1.524,2,2.828,0,1.238-.753,2.302-1.826,2.76l1.533,1.533Zm-3.289-3.289c.027-.002.582-.004.582-.004.552,0,1-.448,1-1s-.448-1-1-1h-2.586l2.004,2.004ZM6.463,5.049l9.951,9.951h3.586v-7c0-1.654-1.346-3-3-3H7c-.181,0-.361.017-.537.049Z"/>
</svg>
