<?xml version="1.0" encoding="UTF-8"?>
<svg xmlns="http://www.w3.org/2000/svg" id="Layer_1" data-name="Layer 1" viewBox="0 0 24 24">
  <path d="m18,15.073c0-1.807.638-3.521,1.795-4.829.444-.5.629-1.16.508-1.81-.117-.632-.513-1.163-1.085-1.457-.633-.326-1.291-.564-1.97-.714,1.178-1.179,1.594-2.792,1.737-3.939.077-.617-.131-1.224-.571-1.664S17.367.012,16.748.089c-1.147.143-2.762.56-3.939,1.737-.257.257-.478.536-.668.826-.627-1.478-1.375-2.253-1.429-2.308-.387-.393-1.012-.395-1.406-.012-.394.383-.402,1.015-.022,1.411.063.066,1.402,1.497,1.67,4.329h-2.453c-1.305,0-2.556.305-3.717.903-.572.295-.968.825-1.086,1.456-.122.65.063,1.311.507,1.811,1.158,1.308,1.795,3.023,1.795,4.83s-.638,3.522-1.795,4.829c-.444.501-.628,1.161-.507,1.811.118.631.514,1.161,1.085,1.456,1.164.601,2.415.904,3.717.904,1.008,0,1.697-.341,2.25-.615.451-.224.776-.385,1.25-.385.556,0,.891.169,1.354.403.526.266,1.181.597,2.146.597,1.302,0,2.553-.304,3.719-.904.571-.296.967-.827,1.084-1.458.121-.648-.063-1.309-.507-1.809-1.158-1.308-1.796-3.022-1.796-4.829Zm-3.777-11.833c.776-.776,1.936-1.062,2.777-1.166v.004c-.104.836-.391,1.995-1.168,2.772-.782.782-1.949,1.066-2.777,1.168.102-.829.386-1.996,1.168-2.778Zm4.079,18.151c-.879.452-1.821.682-2.802.682-.488,0-.805-.16-1.243-.382-.546-.275-1.225-.618-2.257-.618-.941,0-1.604.328-2.138.593-.459.228-.822.407-1.362.407-.981,0-1.923-.229-2.837-.729-.003-.018-.006-.065.039-.116,1.482-1.673,2.298-3.859,2.298-6.155s-.816-4.481-2.299-6.157c-.044-.05-.041-.097-.001-.161.875-.452,1.818-.682,2.8-.682h7c.981,0,1.925.229,2.837.728.003.019.006.065-.039.116-1.481,1.675-2.298,3.861-2.298,6.156s.816,4.481,2.299,6.155c.044.051.041.099.003.163Z"/>
</svg>
