<?xml version="1.0" encoding="UTF-8"?>
<svg xmlns="http://www.w3.org/2000/svg" id="Layer_1" data-name="Layer 1" viewBox="0 0 24 24">
  <path d="m15,2c0-1.105.895-2,2-2s2,.895,2,2-.895,2-2,2-2-.895-2-2Zm-8.501,14.062c.158.092.33.135.5.135.346,0,.682-.179.866-.499.277-.479.113-1.09-.364-1.366-1.543-.893-2.501-2.552-2.501-4.332,0-4.085,3.057-7.503,7.109-7.951.55-.061.945-.555.885-1.104-.061-.548-.551-.939-1.104-.884C6.822.621,3,4.894,3,10c0,2.491,1.341,4.814,3.499,6.062Zm-3.392,3.269c-.491-.376-.96-.791-1.393-1.233-.388-.393-1.02-.4-1.415-.015-.395.387-.4,1.021-.015,1.415.5.51,1.041.988,1.607,1.421.182.139.395.206.606.206.301,0,.599-.135.795-.393.336-.438.252-1.066-.187-1.401Zm3.893.669c-1.105,0-2,.895-2,2s.895,2,2,2,2-.895,2-2-.895-2-2-2ZM23.714,4.502c-.501-.511-1.042-.99-1.606-1.421-.438-.335-1.066-.251-1.401.187-.336.438-.252,1.066.187,1.402.489.374.958.789,1.394,1.233.195.2.455.3.714.3.253,0,.506-.095.7-.286.395-.387.4-1.02.014-1.414Zm-11.714,11.498c-2.206,0-4-1.794-4-4s1.794-4,4-4,4,1.794,4,4-1.794,4-4,4Zm0-2c1.103,0,2-.897,2-2s-.897-2-2-2-2,.897-2,2,.897,2,2,2Zm5.501-6.063c-.48-.278-1.09-.113-1.366.365-.277.478-.113,1.09.364,1.367,1.543.893,2.501,2.552,2.501,4.332,0,4.084-3.057,7.503-7.11,7.951-.549.061-.944.556-.884,1.104.057.511.49.89.993.89,5.175-.469,9.001-4.84,9.001-9.945,0-2.491-1.341-4.814-3.499-6.063Zm-5.502,16.008c-.038.003.036,0,0,0h0Z"/>
</svg>
