<?xml version="1.0" encoding="UTF-8"?>
<svg xmlns="http://www.w3.org/2000/svg" id="Layer_1" data-name="Layer 1" viewBox="0 0 24 24">
  <path d="m21.941,12.493l-8.941-6.502v-1.991h1c.552,0,1-.448,1-1s-.448-1-1-1h-1v-1c0-.552-.448-1-1-1s-1,.448-1,1v1h-1c-.552,0-1,.448-1,1s.448,1,1,1h1v1.991L2.059,12.493c-1.289.938-2.059,2.45-2.059,4.044v3.463c0,2.206,1.794,4,4,4h16c2.206,0,4-1.794,4-4v-3.463c0-1.594-.77-3.106-2.059-4.044Zm-9.941,2.507c-1.654,0-3,1.346-3,3v4h-2v-10.627l5-3.636,5,3.636v10.627h-2v-4c0-1.654-1.346-3-3-3Zm-10,5v-3.463c0-.957.462-1.864,1.236-2.427l1.764-1.283v9.173h-1c-1.103,0-2-.897-2-2Zm9,2v-4c0-.551.449-1,1-1s1,.449,1,1v4h-2Zm11-2c0,1.103-.897,2-2,2h-1v-9.173l1.764,1.283c.774.563,1.236,1.47,1.236,2.427v3.463Z"/>
</svg>
