<?xml version="1.0" encoding="UTF-8"?>
<svg xmlns="http://www.w3.org/2000/svg" id="Layer_1" data-name="Layer 1" viewBox="0 0 24 24">
  <path d="m21.224,17.192l-1.289-12.889c-.245-2.453-2.289-4.302-4.754-4.302h-6.361c-2.465,0-4.509,1.85-4.754,4.302l-1.289,12.889c-1.609.518-2.776,2.029-2.776,3.808,0,1.654,1.346,3,3,3h18c1.654,0,3-1.346,3-3,0-1.779-1.167-3.29-2.776-3.808ZM6.056,4.501c.143-1.426,1.331-2.501,2.764-2.501h6.361c1.433,0,2.621,1.075,2.764,2.501l1.25,12.499H4.806l1.25-12.499Zm14.944,17.499H3c-.551,0-1-.449-1-1,0-1.103.897-2,2-2h16c1.103,0,2,.897,2,2,0,.551-.449,1-1,1ZM7.825,6.9l.2-2c.051-.511.481-.9.995-.9h1.979c.552,0,1,.448,1,1s-.448,1-1,1h-1.075l-.11,1.1c-.052.516-.486.9-.994.9-.033,0-.067-.001-.101-.005-.549-.055-.95-.545-.896-1.095Z"/>
</svg>
