<?xml version="1.0" encoding="UTF-8"?>
<svg xmlns="http://www.w3.org/2000/svg" id="Layer_1" data-name="Layer 1" viewBox="0 0 24 24">
  <path d="m16,10v9c0,2.757-2.243,5-5,5h-6c-2.757,0-5-2.243-5-5L.007,4.872C.007,2.501,1.916.135,3.935.002c.538-.029,1.027.381,1.063.933.036.551-.381,1.027-.933,1.063-.899.059-2.059,1.463-2.059,2.874l-.007,14.128c0,1.654,1.346,3,3,3h6c1.654,0,3-1.346,3-3v-9c0-.553.448-1,1-1s1,.447,1,1Zm-12,1c0,.553.448,1,1,1h1c.552,0,1-.447,1-1s-.448-1-1-1h-1c-.552,0-1,.447-1,1Zm7-1h-1c-.552,0-1,.447-1,1s.448,1,1,1h1c.552,0,1-.447,1-1s-.448-1-1-1Zm-5,4h-1c-.552,0-1,.447-1,1s.448,1,1,1h1c.552,0,1-.447,1-1s-.448-1-1-1Zm5,0h-1c-.552,0-1,.447-1,1s.448,1,1,1h1c.552,0,1-.447,1-1s-.448-1-1-1Zm-5,4h-1c-.552,0-1,.447-1,1s.448,1,1,1h1c.552,0,1-.447,1-1s-.448-1-1-1Zm5,0h-1c-.552,0-1,.447-1,1s.448,1,1,1h1c.552,0,1-.447,1-1s-.448-1-1-1ZM21.5,0c-1.381,0-2.5,1.119-2.5,2.5v3c0,1.381,1.119,2.5,2.5,2.5s2.5-1.119,2.5-2.5v-3c0-1.381-1.119-2.5-2.5-2.5Zm.9,5.5c0,.496-.404.9-.9.9s-.9-.404-.9-.9v-3c0-.496.404-.9.9-.9s.9.404.9.9v3Zm-6.9-1.25h0c0,.414.336.75.75.75h.15v.468c0,.479-.361.898-.838.93-.524.035-.962-.381-.962-.898v-2.971c0-.434.296-.825.722-.911.283-.057.535.025.726.184.147.123.328.198.519.198h.062c.721,0,1.068-.894.528-1.372C16.711.233,16.124-.005,15.481,0c-1.383.01-2.481,1.175-2.481,2.558v2.886c0,1.402,1.147,2.582,2.548,2.556,1.358-.026,2.452-1.135,2.452-2.5v-1.25c0-.414-.336-.75-.75-.75h-1c-.414,0-.75.336-.75.75ZM10.4.8v3.263l-1.545-3.486C8.7.226,8.353,0,7.969,0h0C7.434,0,7,.434,7,.969v6.231c0,.442.358.8.8.8h0c.442,0,.8-.358.8-.8v-3.254l1.544,3.478c.156.35.503.576.886.576h0c.535,0,.97-.434.97-.97V.8C12,.358,11.642,0,11.2,0h0C10.758,0,10.4.358,10.4.8Z"/>
</svg>
