<?xml version="1.0" encoding="UTF-8"?>
<svg xmlns="http://www.w3.org/2000/svg" id="Layer_1" data-name="Layer 1" viewBox="0 0 24 24">
  <path d="m24,7.514v6.438c0,2.232-1.815,4.048-4.048,4.048h-4.952c-.553,0-1-.447-1-1s.447-1,1-1h4.952c1.129,0,2.048-.919,2.048-2.048v-6.438c0-.809-.4-1.562-1.07-2.014l-4.571-3.084c-.824-.557-1.893-.557-2.717,0l-4.571,3.084c-.67.452-1.07,1.205-1.07,2.014v1.486c0,.553-.447,1-1,1s-1-.447-1-1v-1.486c0-1.474.729-2.847,1.951-3.672L12.522.758c1.506-1.016,3.449-1.016,4.955,0l4.571,3.084c1.222.825,1.951,2.198,1.951,3.672Zm-8,5.486c.552,0,1-.448,1-1v-2c0-.552-.448-1-1-1h-2c-.552,0-1,.448-1,1v2c0,.552.448,1,1,1h2ZM1.5,21c-.828,0-1.5.672-1.5,1.5s.672,1.5,1.5,1.5,1.5-.672,1.5-1.5-.672-1.5-1.5-1.5Zm-.5-5c-.553,0-1,.447-1,1s.447,1,1,1c2.757,0,5,2.243,5,5,0,.553.447,1,1,1s1-.447,1-1c0-3.859-3.141-7-7-7Zm0-5c-.553,0-1,.447-1,1s.447,1,1,1c5.514,0,10,4.486,10,10,0,.553.447,1,1,1s1-.447,1-1c0-6.617-5.383-12-12-12Z"/>
</svg>
