<?xml version="1.0" encoding="UTF-8"?>
<svg xmlns="http://www.w3.org/2000/svg" id="Layer_1" data-name="Layer 1" viewBox="0 0 24 24">
  <path d="m20.726,18.629c.283.486.39,1.062.3,1.623l-.197,1.225c-.235,1.462-1.48,2.524-2.962,2.524h-4.867c-.552,0-1-.448-1-1s.448-1,1-1h4.867c.494,0,.909-.354.987-.841l.197-1.224c.017-.106-.002-.209-.054-.3-1.015-1.745-1.069-2.172-1.095-2.377-.14-1.106-.662-1.792-1.747-2.295-.059-.027-1.905-.963-2.604-.963-.798,0-1.256.22-1.261.222-3.025,1.781-5.918,4.108-6.257,8.849-.038.527-.477.929-.997.929-.024,0-.048,0-.072-.002-.551-.04-.966-.518-.926-1.069.409-5.711,4.11-8.589,7.29-10.458.061-.033.292-.152.673-.262v-.209c0-1.256.772-2.495,1.867-2.942.543-.222,1.133.221,1.133.807v2.405c.726.237,1.996.878,1.996.878,1.693.784,2.666,2.083,2.891,3.858h0s.107.364.839,1.622Zm.774-12.629h-.227c-.829,0-1.609-.365-2.14-1.002l-.229-.275c-.912-1.094-2.251-1.722-3.676-1.722h-1.227V.865c0-.586-.59-1.029-1.133-.807-1.095.447-1.867,1.686-1.867,2.942v.706l-2.57,3.998c-.924,1.438-2.497,2.296-4.206,2.296H1c-.552,0-1,.448-1,1s.448,1,1,1h3.224c2.393,0,4.595-1.202,5.889-3.215l2.433-3.785h2.681c.829,0,1.609.365,2.14,1.002l.229.275c.912,1.094,2.251,1.722,3.676,1.722h.227c.276,0,.5.224.5.5v.5c0,1.068-.575,2.064-1.5,2.599-.478.276-.642.888-.365,1.366.186.321.521.5.867.5.17,0,.342-.043.5-.134,1.542-.892,2.5-2.551,2.5-4.331v-.5c0-1.378-1.122-2.5-2.5-2.5Z"/>
</svg>
