<?xml version="1.0" encoding="UTF-8"?>
<svg xmlns="http://www.w3.org/2000/svg" id="Layer_1" data-name="Layer 1" viewBox="0 0 24 24">
  <path d="m17.625,21.782c-.357.145-.735.218-1.125.218H5c-1.654,0-3-1.346-3-3V5c0-1.654,1.346-3,3-3h4.515c.163,0,.325.008.485.023v4.977c0,1.654,1.346,3,3,3h5.813c.309,0,.601-.143.79-.387s.255-.562.179-.861c-.312-1.217-.944-2.329-1.832-3.216l-3.485-3.485c-1.321-1.322-3.079-2.05-4.95-2.05h-4.515C2.243,0,0,2.243,0,5v14c0,2.757,2.243,5,5,5h11.5c.647,0,1.279-.123,1.875-.364.513-.207.759-.791.552-1.302-.207-.512-.795-.758-1.302-.551ZM12,2.659c.38.218.732.488,1.051.806l3.485,3.485c.313.314.583.667.803,1.05h-4.339c-.552,0-1-.448-1-1V2.659Zm-1.024,17.309c.429.125.869-.119.992-.543l.255-.825h2.969l.241.825c.102.349.421.576.768.576.074,0,.149-.011.225-.033.424-.124.667-.568.543-.992l-.422-1.443c-.006-.018-.008-.037-.016-.054l-1.247-4.261c-.212-.728-.848-1.217-1.582-1.217h0c-.734,0-1.37.489-1.583,1.216l-1.685,5.759c-.124.424.119.868.543.992Zm2.772-6.302l.975,3.334h-2.006l1.031-3.334Zm9.136,5.118c.229.377.109.87-.268,1.1-.13.079-.273.117-.415.117-.271,0-.534-.137-.685-.384l-1.267-2.082-1.267,2.082c-.15.248-.414.384-.685.384-.142,0-.285-.038-.415-.117-.377-.23-.497-.722-.268-1.1l1.697-2.789-1.697-2.789c-.229-.377-.109-.87.268-1.1.378-.231.87-.11,1.1.268l1.267,2.082,1.267-2.082c.229-.377.721-.499,1.1-.268.377.23.497.722.268,1.1l-1.697,2.789,1.697,2.789Zm-15.684.416v-5.6h-1.4c-.441,0-.8-.358-.8-.8s.358-.8.8-.8h4.4c.441,0,.8.358.8.8s-.358.8-.8.8h-1.4v5.6c0,.442-.358.8-.8.8s-.8-.358-.8-.8Z"/>
</svg>
