<?xml version="1.0" encoding="UTF-8"?>
<svg xmlns="http://www.w3.org/2000/svg" id="Layer_1" data-name="Layer 1" viewBox="0 0 24 24">
  <path d="m17.281,5.316l-4.666,14c-.14.419-.529.684-.948.684-.104,0-.211-.017-.316-.052-.523-.174-.807-.74-.632-1.265l4.666-14c.175-.523.736-.808,1.265-.632.523.174.807.74.632,1.265Zm-4.252,4.555c.256-1.001-.492-1.884-1.449-1.884l-7.58.013,1.137-1.434c.553-.664.463-1.651-.2-2.204-.664-.553-1.651-.464-2.204.2L.204,8.206c-.133.191-.204.419-.204.651,0,.631.511,1.142,1.142,1.142h4.789l-1.895,5.053c-.437,1.165-1.565,1.947-2.81,1.947h-.228c-.553,0-1,.447-1,1s.447,1,1,1h.228c2.072,0,3.954-1.304,4.683-3.244l1.783-4.756h3.793c.704,0,1.368-.447,1.543-1.129Zm9.971-5.871c-.553,0-1,.447-1,1v14c0,.553.447,1,1,1s1-.447,1-1V5c0-.553-.447-1-1-1Zm-4,0c-.553,0-1,.447-1,1v14c0,.553.447,1,1,1s1-.447,1-1V5c0-.553-.447-1-1-1Z"/>
</svg>
