<?xml version="1.0" encoding="UTF-8"?>
<svg xmlns="http://www.w3.org/2000/svg" id="Layer_1" data-name="Layer 1" viewBox="0 0 24 24">
  <path d="m17,10.5c0,.828-.672,1.5-1.5,1.5s-1.5-.672-1.5-1.5.672-1.5,1.5-1.5,1.5.672,1.5,1.5Zm-8.5-1.5c-.828,0-1.5.672-1.5,1.5s.672,1.5,1.5,1.5,1.5-.672,1.5-1.5-.672-1.5-1.5-1.5ZM23.843,1.249c-.533,2.066-2.309,3.549-4.404,3.732l2.328,6.174c.672,1.917-.183,4.023-1.979,4.922-.038.019-1.928.683-1.928.683l-.875,4.08c-.392,1.831-2.036,3.161-3.91,3.161h-2.15c-1.874,0-3.519-1.33-3.912-3.161l-.874-4.081s-1.89-.663-1.928-.682c-1.796-.898-2.65-3.005-1.986-4.899l2.333-6.187C2.409,4.855.573,3.355.032,1.249-.106.714.216.169.751.031c.536-.138,1.08.186,1.217.72.341,1.324,1.536,2.249,2.906,2.249h1.112c.011,0,.023,0,.034,0h11.96c.012,0,.023,0,.035,0h.985c1.37,0,2.564-.925,2.905-2.249.138-.535.689-.856,1.218-.72.535.138.857.684.72,1.218Zm-3.956,10.588l-2.578-6.837H6.691l-2.587,6.859c-.317.907.087,1.938.951,2.401l1.745.609c.654.229,1.15.791,1.295,1.469l.875,4.081c.196.915,1.019,1.58,1.956,1.58h2.15c.937,0,1.759-.665,1.955-1.58l.875-4.081c.143-.675.64-1.239,1.295-1.468l1.744-.61c.863-.463,1.269-1.494.942-2.424Z"/>
</svg>
