<?xml version="1.0" encoding="UTF-8"?>
<svg xmlns="http://www.w3.org/2000/svg" id="Layer_1" data-name="Layer 1" viewBox="0 0 24 24">
  <path d="m23,8h-3.866l3.228-5.493c.279-.477.12-1.089-.355-1.369-.478-.279-1.089-.121-1.369.355l-3.823,6.507h-2.653l1.804-6.742c.143-.533-.174-1.082-.707-1.224-.531-.142-1.082.174-1.225.708l-1.942,7.258h-4.907L3.362,1.494c-.28-.477-.894-.635-1.369-.356-.477.28-.636.893-.356,1.369l3.228,5.494H1c-.552,0-1,.448-1,1s.448,1,1,1h1v1c0,3.462,1.77,6.517,4.451,8.313-1.438.607-2.451,2.03-2.451,3.687,0,.553.448,1,1,1s1-.447,1-1c0-1.103.897-2,2-2h8c1.103,0,2,.897,2,2,0,.553.447,1,1,1s1-.447,1-1c0-1.657-1.012-3.081-2.451-3.687,2.681-1.796,4.451-4.851,4.451-8.313v-1h1c.553,0,1-.448,1-1s-.447-1-1-1Zm-3,3c0,4.411-3.589,8-8,8s-8-3.589-8-8v-1h16v1Z"/>
</svg>
