<?xml version="1.0" encoding="UTF-8"?>
<svg xmlns="http://www.w3.org/2000/svg" id="Layer_1" data-name="Layer 1" viewBox="0 0 24 24">
  <path d="m22.307.984c-1.076-.859-2.463-1.178-3.799-.872l-7.703,1.684-2.592-1.279C6.828-.167,5.172-.167,3.787.517l-1.559.769C.854,1.965,0,3.339,0,4.87l-.029,16.504c0,1.48.724,2.111,1.155,2.356.228.128.585.27,1.061.27.457,0,1.023-.131,1.688-.529l2.189-1.364,3.096,1.477c1.16.421,2.416.525,3.627.305l7.107-1.261c2.379-.432,4.105-2.501,4.105-4.919V4.502c0-1.377-.617-2.659-1.693-3.518ZM2.831,21.765c-.444.268-.682.248-.72.225-.022-.013-.141-.173-.141-.613l.029-16.504c0-.767.427-1.454,1.114-1.794l1.558-.769c.107-.053.217-.099.328-.138v18.241l-2.169,1.352Zm4.169-1.427V2.172c.112.039.221.085.328.138l2.672,1.319v18.134c-.023-.008-3-1.426-3-1.426Zm15-2.629c0,1.451-1.036,2.692-2.459,2.951,0,0-7.396,1.305-7.541,1.319V3.581l6.943-1.518c.746-.169,1.518.007,2.115.484.599.477.941,1.189.941,1.954v13.206Zm-2-12.468c.118.54-.224,1.073-.763,1.19,0,0-4.168.902-4.238.902-.46,0-.874-.319-.976-.786-.118-.54.224-1.073.763-1.19l4.023-.879c.546-.119,1.073.225,1.19.763Zm0,4c.118.54-.224,1.073-.763,1.19,0,0-4.168.902-4.238.902-.46,0-.874-.319-.976-.786-.118-.54.224-1.073.763-1.19l4.023-.879c.546-.12,1.073.225,1.19.763Zm0,4c.118.54-.224,1.073-.763,1.19,0,0-4.168.902-4.238.902-.46,0-.874-.319-.976-.786-.118-.54.224-1.073.763-1.19l4.023-.879c.546-.117,1.073.225,1.19.763Zm-2.012,4.439c.118.54-.224,1.073-.763,1.19,0,0-2.156.463-2.227.463-.46,0-.874-.319-.976-.786-.118-.54.224-1.073.763-1.19l2.012-.439c.543-.119,1.073.225,1.19.763Z"/>
</svg>
