<?xml version="1.0" encoding="UTF-8"?>
<svg xmlns="http://www.w3.org/2000/svg" id="Layer_1" data-name="Layer 1" viewBox="0 0 24 24">
  <path d="m4.222,4.636c-.391-.391-.391-1.023,0-1.414,4.289-4.289,11.268-4.289,15.557,0,.391.391.391,1.023,0,1.414-.195.195-.451.293-.707.293s-.512-.098-.707-.293c-3.51-3.509-9.219-3.509-12.729,0-.391.391-1.023.391-1.414,0Zm2.829,1.415c-.391.391-.391,1.024,0,1.414.391.391,1.023.391,1.414,0,.944-.944,2.2-1.464,3.535-1.464s2.591.52,3.535,1.464c.195.195.451.293.707.293s.512-.098.707-.293c.391-.39.391-1.023,0-1.414-1.322-1.322-3.079-2.05-4.949-2.05s-3.627.728-4.949,2.05Zm16.949,7.95v6c0,2.206-1.794,4-4,4H4c-2.206,0-4-1.794-4-4v-6c0-2.206,1.794-4,4-4h16c2.206,0,4,1.794,4,4Zm-2,0c0-1.103-.897-2-2-2H4c-1.103,0-2,.897-2,2v6c0,1.103.897,2,2,2h16c1.103,0,2-.897,2-2v-6Zm-17,5v-5c0-.552-.447-1-1-1s-1,.448-1,1v6c0,.552.447,1,1,1h1c.553,0,1-.448,1-1s-.447-1-1-1Zm15-4c.553,0,1-.448,1-1s-.447-1-1-1h-1.5c-.827,0-1.5.673-1.5,1.5v5c0,.827.673,1.5,1.5,1.5h1.5c.553,0,1-.448,1-1s-.447-1-1-1h-1v-1h1c.553,0,1-.448,1-1s-.447-1-1-1h-1v-1h1Zm-12-2c-.553,0-1,.448-1,1v6c0,.552.447,1,1,1s1-.448,1-1v-6c0-.552-.447-1-1-1Zm7.316.051c-.529-.176-1.091.108-1.265.632l-1.052,3.154-1.052-3.154c-.175-.524-.737-.808-1.265-.632-.523.175-.807.741-.632,1.265l2,6c.136.408.518.684.948.684s.812-.275.948-.684l2-6c.175-.524-.108-1.09-.632-1.265Z"/>
</svg>
