<?xml version="1.0" encoding="UTF-8"?>
<svg xmlns="http://www.w3.org/2000/svg" id="Layer_1" data-name="Layer 1" viewBox="0 0 24 24">
  <path d="m13,20c0,.553-.448,1-1,1h-7c-2.757,0-5-2.243-5-5v-8C0,5.243,2.243,3,5,3h7c.552,0,1,.447,1,1s-.448,1-1,1h-7c-1.654,0-3,1.346-3,3v8c0,1.654,1.346,3,3,3h7c.552,0,1,.447,1,1Zm-5-3c.552,0,1-.447,1-1v-7h2c.552,0,1-.447,1-1s-.448-1-1-1h-6c-.552,0-1,.447-1,1s.448,1,1,1h2v7c0,.553.448,1,1,1Zm10,5c-.551,0-1-.448-1-1V3c0-.552.449-1,1-1s1-.447,1-1-.448-1-1-1c-.768,0-1.469.29-2,.766-.531-.476-1.232-.766-2-.766-.552,0-1,.447-1,1s.448,1,1,1,1,.448,1,1v18c0,.552-.449,1-1,1s-1,.447-1,1,.448,1,1,1c.768,0,1.469-.29,2-.766.531.476,1.232.766,2,.766.552,0,1-.447,1-1s-.448-1-1-1Zm2.25-18.843c-.538-.137-1.08.185-1.218.72-.138.534.184,1.08.719,1.218,1.325.341,2.25,1.535,2.25,2.905v8c0,1.37-.925,2.564-2.25,2.905-.535.138-.856.684-.719,1.218.116.451.522.751.968.751.083,0,.167-.01.25-.031,2.208-.569,3.75-2.561,3.75-4.843v-8c0-2.282-1.542-4.273-3.75-4.843Z"/>
</svg>
