<?xml version="1.0" encoding="UTF-8"?>
<svg xmlns="http://www.w3.org/2000/svg" id="Layer_1" data-name="Layer 1" viewBox="0 0 24 24">
  <path d="m22,20c0,2.206-1.794,4-4,4H4.394c-.97,0-1.83-.582-2.191-1.481-.361-.9-.143-1.916.559-2.587l8.293-7.932L2.761,4.068c-.701-.671-.92-1.686-.559-2.586s1.222-1.482,2.191-1.482h13.606c2.206,0,4,1.794,4,4,0,.552-.447,1-1,1s-1-.448-1-1c0-1.103-.897-2-2-2H4.394c-.213,0-.302.142-.336.227-.033.085-.067.249.086.396l9.048,8.654c.197.188.309.45.309.723s-.111.534-.309.723l-9.048,8.654c-.153.146-.119.312-.086.396.034.084.123.227.336.227h13.606c1.103,0,2-.897,2-2,0-.553.447-1,1-1s1,.447,1,1Z"/>
</svg>
