<?xml version="1.0" encoding="UTF-8"?>
<svg xmlns="http://www.w3.org/2000/svg" id="Layer_1" data-name="Layer 1" viewBox="0 0 24 24">
  <path d="m23,24h-5.36c-1.455,0-2.64-1.185-2.64-2.64,0-1.028.598-1.964,1.522-2.385,3.379-1.538,5.478-4.595,5.478-7.976,0-4.962-4.486-9-10-9S2,6.038,2,11c0,3.381,2.099,6.438,5.478,7.976.925.421,1.522,1.357,1.522,2.385,0,1.455-1.184,2.64-2.639,2.64H1c-.552,0-1-.447-1-1s.448-1,1-1h5.361c.353,0,.639-.287.639-.64,0-.246-.138-.468-.351-.564C2.547,18.929,0,15.175,0,11,0,4.935,5.383,0,12,0s12,4.935,12,11c0,4.175-2.548,7.929-6.649,9.796-.213.097-.351.318-.351.564,0,.353.287.64.64.64h5.36c.553,0,1,.447,1,1s-.447,1-1,1Z"/>
</svg>
