<?xml version="1.0" encoding="UTF-8"?>
<svg xmlns="http://www.w3.org/2000/svg" id="Layer_1" data-name="Layer 1" viewBox="0 0 24 24">
  <path d="m18,12c-3.314,0-6,2.686-6,6s2.686,6,6,6,6-2.686,6-6-2.686-6-6-6Zm2.5,7h-5c-.553,0-1-.447-1-1s.447-1,1-1h5c.553,0,1,.447,1,1s-.447,1-1,1Z"/>
  <path d="m13,11c0-.738-.405-1.376-1-1.723v-4.277c0-.552-.448-1-1-1s-1,.448-1,1v4.277c-.595.346-1,.984-1,1.723,0,1.105.895,2,2,2s2-.895,2-2Z"/>
  <path d="m6.71,16.607l-.934.807c-.323.278-.811.267-1.11-.029-2.005-1.986-2.95-4.744-2.591-7.566.513-4.042,3.828-7.305,7.879-7.76,5.1-.567,9.498,3.072,9.999,8.02.057.549.539.952,1.096.894.55-.056.95-.546.895-1.096C21.33,3.831,15.893-.618,9.732.071,4.774.627.719,4.621.091,9.567c-.437,3.445.718,6.812,3.168,9.239.541.536,1.257.807,1.976.807.658,0,1.319-.228,1.849-.686l.933-.807c.418-.361.464-.993.103-1.41-.362-.418-.993-.464-1.41-.103Z"/>
</svg>
