<?xml version="1.0" encoding="UTF-8"?>
<svg xmlns="http://www.w3.org/2000/svg" id="Layer_1" data-name="Layer 1" viewBox="0 0 24 24">
  <path d="m24.001,4c0,.501-.195.972-.55,1.326l-2.224,2.36c-.196.208-.462.314-.728.314-.246,0-.492-.09-.686-.272-.402-.378-.421-1.011-.042-1.414l1.238-1.314h-9.011c-3.86,0-7,3.14-7,7,0,.592.074,1.182.221,1.75.138.535-.184,1.08-.719,1.218-.084.021-.167.032-.25.032-.446,0-.852-.299-.968-.75-.188-.732-.284-1.489-.284-2.25C3,7.038,7.038,3,12,3h9.011l-1.238-1.314c-.379-.402-.36-1.035.042-1.414.402-.377,1.034-.36,1.413.042l2.244,2.382c.334.332.529.803.529,1.304Zm-4.503,5.032c-.535.138-.856.684-.718,1.218.146.566.22,1.155.22,1.75,0,3.86-3.141,7-7,7H2.99l1.238-1.314c.378-.402.36-1.035-.042-1.414-.4-.378-1.034-.36-1.414.042l-2.223,2.36c-.73.73-.73,1.919-.021,2.629l2.244,2.381c.197.209.462.314.728.314.246,0,.493-.09.686-.272.402-.379.421-1.012.042-1.414l-1.239-1.314h9.011c4.963,0,9-4.038,9-9,0-.764-.096-1.521-.284-2.25-.138-.535-.684-.854-1.218-.718Zm-7.498-2.331c-.441,0-.8.359-.8.8v.7h-.327c-.646,0-1.256.287-1.672.786-.414.499-.583,1.156-.463,1.804.159.853.887,1.55,1.812,1.735l2.688.538c.268.054.462.291.462.563,0,.316-.258.574-.574.574h-2.204c-.223,0-.434-.107-.564-.287-.142-.193-.433-.213-.552-.213-.381,0-.628.246-.732.477-.131.291-.086.604.122.84.438.498,1.066.783,1.727.783h.278v.7c0,.441.358.8.8.8s.8-.359.8-.8v-.7h.326c.647,0,1.257-.287,1.673-.787.414-.499.583-1.156.463-1.803-.16-.853-.889-1.551-1.812-1.735l-2.688-.539c-.267-.054-.461-.291-.461-.562,0-.316.257-.574.573-.574h2.204c.223,0,.434.107.564.287.142.193.433.213.552.213.381,0,.628-.246.732-.476.132-.291.086-.605-.121-.841-.438-.497-1.067-.782-1.728-.782h-.277v-.7c0-.441-.358-.8-.8-.8Z"/>
</svg>
