<?xml version="1.0" encoding="UTF-8"?>
<svg xmlns="http://www.w3.org/2000/svg" id="Layer_1" data-name="Layer 1" viewBox="0 0 24 24">
  <path d="m23.358,7.895c-1.194-1.298-5.303-5.354-10.358-5.845v-1.049c0-.552-.448-1-1-1s-1,.448-1,1v1.049C5.945,2.541,1.836,6.596.642,7.895c-.414.45-.642,1.038-.642,1.654,0,1.351,1.1,2.451,2.451,2.451h19.099c1.351,0,2.451-1.1,2.451-2.451,0-.617-.228-1.204-.642-1.655Zm-1.809,2.105H2.451c-.249,0-.451-.202-.451-.451,0-.116.04-.22.114-.3,1.133-1.231,5.193-5.249,9.886-5.249s8.753,4.018,9.886,5.249c.075.081.114.185.114.301,0,.249-.202.451-.451.451Zm-8.12,10.586c.781.781.781,2.047,0,2.828-.391.391-.902.586-1.414.586-.512,0-1.024-.195-1.414-.586-.781-.781-.781-2.047,0-2.828l.803-.9c.326-.365.897-.365,1.223,0l.803.9Zm5.985,0c.781.781.781,2.047,0,2.828-.391.391-.902.586-1.414.586-.512,0-1.024-.195-1.414-.586-.781-.781-.781-2.047,0-2.828l.803-.9c.326-.365.897-.365,1.223,0l.803.9Zm-12,0c.781.781.781,2.047,0,2.828-.391.391-.902.586-1.414.586-.512,0-1.024-.195-1.414-.586-.781-.781-.781-2.047,0-2.828l.803-.9c.326-.365.897-.365,1.223,0l.803.9Zm3.029-3.172c-.391.391-.902.586-1.414.586-.512,0-1.024-.195-1.414-.586-.781-.781-.781-2.047,0-2.828l.803-.9c.326-.365.897-.365,1.223,0l.803.9c.781.781.781,2.047,0,2.828Zm5.985,0c-.391.391-.902.586-1.414.586-.512,0-1.024-.195-1.414-.586-.781-.781-.781-2.047,0-2.828l.803-.9c.326-.365.897-.365,1.223,0l.803.9c.781.781.781,2.047,0,2.828Z"/>
</svg>
