<?xml version="1.0" encoding="UTF-8"?>
<svg xmlns="http://www.w3.org/2000/svg" id="Layer_1" data-name="Layer 1" viewBox="0 0 24 24">
  <path d="m24,5v13c0,.553-.447,1-1,1s-1-.447-1-1V5c0-1.654-1.346-3-3-3H5c-1.654,0-3,1.346-3,3v13c0,.553-.447,1-1,1s-1-.447-1-1V5C0,2.243,2.243,0,5,0h14c2.757,0,5,2.243,5,5Zm-.049,18.308c-.137.424-.529.692-.951.692-.102,0-.206-.016-.308-.049-.646-.209-1.249-.614-1.732-1.138-.776.73-1.852,1.187-2.96,1.187-1.201,0-2.266-.542-3-1.382-.734.84-1.799,1.382-3,1.382s-2.266-.542-3-1.382c-.734.84-1.799,1.382-3,1.382-1.108,0-2.184-.456-2.96-1.187-.483.523-1.087.929-1.732,1.138-.523.172-1.089-.117-1.259-.644-.17-.525.118-1.089.644-1.259.573-.186,1.147-.767,1.365-1.382.141-.399.519-.667.942-.667s.802.267.942.667c.265.747,1.169,1.333,2.058,1.333,1.103,0,2-.897,2-2v-7c0-.266.105-.52.293-.707.132-.133,1.36-1.293,3.707-1.293s3.575,1.16,3.707,1.293c.188.188.293.441.293.707v7c0,1.103.897,2,2,2,.889,0,1.793-.586,2.058-1.333.141-.4.519-.667.942-.667s.802.268.942.667c.218.615.792,1.196,1.365,1.382.525.17.813.733.644,1.259Zm-9.951-3.308v-6.501c-.35-.208-1.014-.499-2-.499s-1.646.289-2,.501v6.499c0,1.103.897,2,2,2s2-.897,2-2Zm4.128-4.469c.122.049.248.071.372.071.396,0,.771-.237.929-.628.379-.947.571-1.948.571-2.975,0-4.411-3.589-8-8-8S4,7.589,4,12c0,.983.177,1.944.526,2.857.197.517.773.773,1.291.576.516-.197.773-.775.576-1.291-.261-.684-.394-1.404-.394-2.143,0-3.309,2.691-6,6-6s6,2.691,6,6c0,.771-.145,1.521-.429,2.23-.205.513.044,1.095.557,1.301Z"/>
</svg>
