<?xml version="1.0" encoding="UTF-8"?>
<svg xmlns="http://www.w3.org/2000/svg" id="Layer_1" data-name="Layer 1" viewBox="0 0 24 24">
  <path d="m23.971,19.057c-.035.529-.475.935-.997.935-.022,0-.044,0-.066-.002-1.958-.129-3.667-1.4-4.354-3.239l-1.401-3.75h-5.045c-1.516,0-2.834-1.076-3.066-2.503-.143-.879.103-1.768.674-2.439.571-.672,1.404-1.057,2.286-1.057h7.563s-.815-1.032-.821-1.04c-1.051-1.211-.973-3.048.209-4.151,1.208-1.13,3.11-1.066,4.23.13l.538.558c.18.186.28.435.28.694,0,.9-1.095,1.342-1.72.694l-.548-.568c-.378-.403-1.013-.424-1.416-.046-.402.375-.421,1.008-.048,1.41.009.01,2.151,2.697,2.151,2.697.239.301.285.711.119,1.057-.167.346-.517.566-.901.566h-9.638c-.294,0-.572.128-.762.353-.193.228-.272.52-.224.823.076.462.556.825,1.093.825h5.739c.417,0,.791.259.937.65l1.644,4.4c.413,1.104,1.438,1.866,2.612,1.943.551.037.969.513.933,1.063Zm-7.971-2.057v2c0,2.757-2.243,5-5,5h-6c-2.757,0-5-2.243-5-5V5C0,2.243,2.243,0,5,0h6c2.282,0,4.273,1.542,4.842,3.75.138.535-.184,1.08-.719,1.218-.534.136-1.08-.184-1.218-.719-.341-1.325-1.536-2.25-2.906-2.25h-6c-1.654,0-3,1.346-3,3v11h13c.552,0,1,.448,1,1Zm-2,1H2v1c0,1.654,1.346,3,3,3h6c1.654,0,3-1.346,3-3v-1Zm-5,3h-2c-.552,0-1-.448-1-1h0c0-.552.448-1,1-1h2c.552,0,1,.448,1,1h0c0,.552-.448,1-1,1Z"/>
</svg>
