<?xml version="1.0" encoding="UTF-8"?>
<svg xmlns="http://www.w3.org/2000/svg" id="Layer_1" data-name="Layer 1" viewBox="0 0 24 24">
  <path d="m12,14c-4.411,0-8,3.589-8,8v1c0,.553.447,1,1,1s1-.447,1-1v-1c0-1.588.625-3.03,1.636-4.105,1.011,1.679,2.403,3.839,3.869,5.72.191.245.485.384.796.384h0c.839,0,1.303-.961.791-1.625-.01-.013-.02-.027-.03-.041,1.419-1.497,2.519-3.114,3.298-4.445,1.014,1.075,1.641,2.519,1.641,4.111v1c0,.553.447,1,1,1s1-.447,1-1v-1c0-4.411-3.589-8-8-8Zm-2.761,2.678c.827-.431,1.765-.678,2.761-.678s1.928.246,2.753.675c-.68,1.187-1.647,2.654-2.896,4.023-1.031-1.458-1.933-2.878-2.618-4.019Zm5.761-11.178c0,.828-.672,1.5-1.5,1.5h-3c-.828,0-1.5-.672-1.5-1.5s.672-1.5,1.5-1.5h3c.828,0,1.5.672,1.5,1.5Zm5.608.517c-.42-.296-.943-.443-1.449-.517.506-.074,1.029-.222,1.449-.517.725-.51,1.141-1.444,1.359-2.117.137-.421-.173-.855-.615-.864-.72-.015-1.761.07-2.491.583-.545.384-.909,1.005-1.152,1.577-.778-2.412-3.042-4.162-5.709-4.162-3.309,0-6,2.691-6,6s2.691,6,6,6c2.897,0,5.321-2.064,5.879-4.798.236.458.552.911.982,1.214.729.514,1.771.598,2.491.583.443-.009.752-.443.615-.864-.219-.674-.635-1.607-1.359-2.117Zm-8.608,3.983c-2.206,0-4-1.794-4-4s1.794-4,4-4,4,1.794,4,4-1.794,4-4,4Z"/>
</svg>
