<?xml version="1.0" encoding="UTF-8"?>
<svg xmlns="http://www.w3.org/2000/svg" id="Layer_1" data-name="Layer 1" viewBox="0 0 24 24">
  <path d="m23.707,22.293l-5.113-5.113c1.502-1.817,2.406-4.145,2.406-6.68C21,4.71,16.29,0,10.5,0S0,4.71,0,10.5s4.71,10.5,10.5,10.5c2.536,0,4.864-.904,6.68-2.406l5.113,5.113c.195.195.451.293.707.293s.512-.098.707-.293c.391-.391.391-1.023,0-1.414ZM2,10.5C2,5.813,5.813,2,10.5,2s8.5,3.813,8.5,8.5-3.813,8.5-8.5,8.5S2,15.187,2,10.5Zm9-.5c0,1.105-.895,2-2,2s-2-.895-2-2,.895-2,2-2,2,.895,2,2Zm3.028-3.283c-1.221-2.048-3.275-3.032-5.492-2.629-2.628.476-4.536,2.792-4.536,5.506v.406c0,3.86,3.14,7,7,7,2.151,0,4.031-1.522,4.372-3.542.01-.06.047-.1.078-.124.956-.738,1.55-1.92,1.55-3.085,0-1.661-1.222-3.112-2.972-3.533Zm.2,5.034c-.443.341-.737.829-.829,1.375-.177,1.051-1.231,1.874-2.399,1.874-2.757,0-5-2.243-5-5v-.406c0-1.747,1.216-3.234,2.893-3.538.214-.039.418-.056.611-.056,1.588,0,2.482,1.195,2.815,1.757.268.451.719.78,1.24.905.694.166,1.441.733,1.441,1.588,0,.55-.303,1.14-.772,1.501Z"/>
</svg>
