<?xml version="1.0" encoding="UTF-8"?>
<svg xmlns="http://www.w3.org/2000/svg" id="Layer_1" data-name="Layer 1" viewBox="0 0 24 24">
  <path d="m22.79,6.764c-1.454-.625-2.52-1.454-3.189-2.475l4.255-3.512c.349-.33.006-.904-.45-.752l-4.407,1.61c.229-3.048-2.572-1.231-2.914.632-2.685.829-3.752,3.416-4.017,5.345-2.524-1.097-3.889-2.686-5.298-4.125-.473-.484-1.181-.623-1.801-.35-.624.274-1.004.892-.968,1.573.059,1.101.173,3.235,1.195,5.436-.116.113-.224.232-.325.357C2.769,11.213-.009,13.301,0,19c0,.552.448,1,1,1s1-.448,1-1c0-2.796.671-4.748,1.997-5.83.067,2.06.945,4.06,1.536,5.91-.204,1.291-.53,2.85.489,3.901,1.578,1.927,4.953.904,5.186-1.583,0,0,.175-1.398.175-1.398h1.617v1c.104,3.956,5.897,3.955,6,0,0,0,0-2.395,0-2.395l.385-1.811c.653-1.947.648-3.892.615-5.912l2.237-.28c1.995-.213,2.409-3.081.553-3.839Zm-3.038,2.134c-.999.125-1.752.978-1.752,1.984v2.016c0,1.25-.166,2.042-.555,3.412,0,0-.445,2.119-.445,2.189v2.5c0,.551-.448,1-1,1s-1-.449-1-1v-2c0-.552-.447-1-1-1h-3.5c-.504,0-.93.375-.992.876l-.284,2.274c-.061.485-.475.85-.962.85-.572.014-1.054-.538-.96-1.103,0,0,.243-1.76.243-1.76-.24-2.233-2.275-4.986-1.265-7.162.547.705,3.509,4.234,4.579,2.54.284-.474.131-1.088-.343-1.372-3.265-1.959-4.163-4.903-4.434-7.491,1.409,1.451,3.468,3.402,6.644,4.31.614.194,1.292-.317,1.275-.961,0,0,0-.483,0-.483.009-.431.175-3.984,3.245-4.463.749,1.984,2.345,3.514,4.744,4.565l-2.237.28Z"/>
  <path d="m4.868,10.509s.003-.004.005-.006c-.017.004-.039.01-.005.006Z"/>
</svg>
