<?xml version="1.0" encoding="UTF-8"?>
<svg xmlns="http://www.w3.org/2000/svg" id="Layer_1" data-name="Layer 1" viewBox="0 0 24 24">
  <path d="m19.819,2.971C17.769.978,15.07-.081,12.199.004h0C6.683.159,2.109,4.774,2.002,10.292c-.059,3.052,1.223,5.956,3.468,7.982l-4.018,4.018c-.391.391-.391,1.023,0,1.414.195.195.451.293.707.293s.512-.098.707-.293l5.303-5.303c.588-.587.756-1.477.418-2.213-.536-1.168-.709-2.468-.501-3.761.468-2.91,2.95-5.186,5.901-5.411,3.269-.247,6.225,1.978,6.876,5.18.095.466.529.801,1.005.801.491,0,.909-.356.987-.84.097-.601.144-1.144.144-1.66,0-2.86-1.13-5.534-3.181-7.529Zm-5.983,2.054c-3.862.294-7.11,3.275-7.724,7.087-.247,1.535-.08,3.081.471,4.474-1.679-1.628-2.627-3.889-2.581-6.255.086-4.467,3.789-8.203,8.253-8.328,2.323-.063,4.51.788,6.17,2.402.892.867,1.568,1.892,2.003,3.015-1.701-1.654-4.074-2.583-6.593-2.395Z"/>
</svg>
