<?xml version="1.0" encoding="UTF-8"?>
<svg xmlns="http://www.w3.org/2000/svg" id="Layer_1" data-name="Layer 1" viewBox="0 0 24 24">
  <path d="m19.949,11.816c2.221-.437,4.051-1.663,4.051-3.816,0-2.402-2.254-5.872-5.804-5.996-.963-.362-5.632-2.004-11.196-2.004-.552,0-1,.447-1,1s.448,1,1,1c2.934,0,5.641.502,7.589.994-.125.062-.25.126-.376.19-1.679.852-3.582,1.816-7.213,1.816-.552,0-1,.447-1,1s.448,1,1,1c2.733,0,4.631-.498,6.122-1.099-.08.354-.122.721-.122,1.099,0,.711.149,1.387.418,2h-5.682c-1.438,0-2.789.449-3.898,1.211-.306-.712-1.014-1.211-1.838-1.211-1.105,0-2,.895-2,2,0,.945.656,1.737,1.538,1.946-.268.599-.443,1.244-.508,1.919-.174,1.83.43,3.654,1.659,5.006,1.229,1.353,2.983,2.129,4.811,2.129.635,0,1.218.292,1.601.801.564.751,1.458,1.199,2.393,1.199h7.507c.552,0,1-.447,1-1s-.448-1-1-1h-3.215l4.14-10.121c.009-.021.016-.042.023-.063Zm2.051-3.816c0,1.468-2.392,2-4,2-1.654,0-3-1.346-3-3s1.346-3,3-3c2.481,0,4,2.59,4,4Zm-11.3,13.6c-.752-1.002-1.949-1.6-3.2-1.6-1.265,0-2.479-.537-3.331-1.474-.863-.95-1.271-2.183-1.147-3.472.216-2.273,2.288-4.055,4.715-4.055h7.264s.002,0,.003,0c.765.575,1.7.935,2.715.992l-3.718,9.088v-.08c0-3.813-2.187-6-6-6-.552,0-1,.447-1,1s.448,1,1,1c2.729,0,4,1.271,4,4v1h-.507c-.313,0-.602-.146-.793-.4Z"/>
</svg>
