<?xml version="1.0" encoding="UTF-8"?>
<svg xmlns="http://www.w3.org/2000/svg" id="Layer_1" data-name="Layer 1" viewBox="0 0 24 24">
  <path d="m14.881,12h.119c2.206,0,4-1.794,4-4V4C19,1.794,17.206,0,15,0h-6C6.795,0,5,1.794,5,4v4c0,2.206,1.794,4,4,4h.154l1.835,1.617c.29.256.652.384,1.014.384.359,0,.717-.126.999-.376l1.879-1.625Zm-4.688-1.75c-.183-.161-.417-.25-.661-.25h-.532c-1.103,0-2-.897-2-2V4c0-1.103.897-2,2-2h6c1.103,0,2,.897,2,2v4c0,1.103-.897,2-2,2h-.492c-.24,0-.472.087-.654.243l-1.852,1.602-1.81-1.595Zm5.041-4.57l-2.532,2.734c-.391.387-.895.578-1.394.578-.484,0-.964-.181-1.332-.54l-1.202-1.264c-.38-.4-.364-1.033.036-1.413.4-.381,1.033-.364,1.414.036l1.095,1.152,2.446-2.644c.375-.406,1.008-.43,1.413-.054.405.375.43,1.008.055,1.413ZM6,14c-2.761,0-5,2.239-5,5s2.239,5,5,5,5-2.239,5-5-2.239-5-5-5Zm2.041,7.778h0c-.232,0-.439-.148-.514-.368l-.254-.743h-2.544l-.254.743c-.075.22-.282.368-.515.368-.372,0-.634-.365-.515-.717l1.354-4.034c.293-.667.693-.804,1.202-.804.509,0,.909.137,1.194.784l1.362,4.055c.118.352-.144.717-.515.717Zm-1.881-4.362l.732,2.139h-1.784l.725-2.121c.023-.047.112-.102.167-.102.057,0,.142.047.16.083Zm12.396,1.028h-1.667v-.556c0-.307.249-.556.556-.556h1.086c.29,0,.549.211.578.499.033.331-.228.612-.553.612Zm1.108,1.723c-.029.288-.287.499-.577.499h-1.643c-.307,0-.555-.249-.555-.556v-.556h2.222c.325,0,.586.281.553.612Zm-1.664-6.167c-2.761,0-5,2.239-5,5s2.239,5,5,5,5-2.239,5-5-2.239-5-5-5Zm1.067,7.778h-1.512c-.982,0-1.778-.796-1.778-1.778v-2c0-.982.796-1.778,1.883-1.778h.848c.911,0,1.689.711,1.713,1.622.008.314-.071.609-.214.863.498.319.817.896.765,1.541-.07.873-.83,1.53-1.705,1.53Z"/>
</svg>
