<?xml version="1.0" encoding="UTF-8"?>
<svg xmlns="http://www.w3.org/2000/svg" id="Layer_1" data-name="Layer 1" viewBox="0 0 24 24">
  <path d="m16.497,7.127s0,0,0,0c.001-.021.001-.01,0,0Zm-8.995-.002h0c-.001-.021,0-.01,0,0Zm16.495,7.821c-.036,1.118-.505,2.156-1.322,2.921-.807.756-1.836,1.131-2.864,1.131-1.119,0-2.234-.444-3.058-1.322-.09-.096-.248-.265-.572-.753-.729,3.86-1.831,7.077-4.182,7.077s-3.453-3.218-4.183-7.079c-.145.223-.267.396-.367.52-.827,1.024-2.041,1.557-3.265,1.557-.924,0-1.854-.303-2.627-.927-1.798-1.451-2.08-4.094-.629-5.892.694-.86,3.308-3.515,6.573-5.055,0,.01,0,.02,0,0,0-1.191.654-2.425,1.652-3.171-.349-1.044-.108-2.243.723-3.074,1.172-1.172,3.071-1.172,4.243,0,.832.832,1.072,2.03.723,3.074.998.747,1.652,1.982,1.652,3.174,0,.021,0,.011,0,0,3.004,1.43,5.427,3.813,6.369,4.818.766.816,1.167,1.882,1.131,3.001Zm-14.622-5c-.408-.287-.782-.616-1.087-.981-2.687,1.287-5.037,3.521-5.804,4.47-.758.939-.61,2.32.329,3.079.94.758,2.32.61,3.079-.329.218-.27.987-1.416,3.482-6.239Zm3.96,10.054h-2.671c.652,1.86,1.19,2,1.336,2s.683-.14,1.336-2Zm.98-4h-4.632c.137.758.275,1.421.412,2h3.808c.137-.579.275-1.242.412-2Zm.163-2c-.452-.832-.995-1.857-1.645-3.123-.273.083-.554.124-.834.124-.286,0-.573-.043-.851-.129-.621,1.2-1.171,2.243-1.651,3.128h4.98Zm.021-7c0-.925-1.092-2-2.5-2s-2.5,1.075-2.5,2c0,.665,1.11,1.491,2.154,1.93.223.094.469.094.692,0,1.044-.439,2.154-1.265,2.154-1.93Zm6.908,6.313c-.668-.712-2.95-3.014-5.698-4.346-.309.368-.688.7-1.1.989,2.64,5.136,3.423,6.158,3.604,6.351.827.881,2.214.926,3.095.1.427-.4.672-.942.691-1.527.019-.584-.191-1.141-.591-1.568Z"/>
</svg>
