<?xml version="1.0" encoding="UTF-8"?>
<svg xmlns="http://www.w3.org/2000/svg" id="Layer_1" data-name="Layer 1" viewBox="0 0 24 24">
  <path d="m21.617,4.996c-.309,0-.586-.171-.724-.447-.479-.958-1.442-1.553-2.513-1.553h-1.382V.766c0-.524-.522-.904-1.015-.726-1.157.416-1.985,1.523-1.985,2.824v1.8l-.964,2.671c-.03.084-.076.158-.125.228L2.581.186c-.449-.321-1.074-.218-1.395.233-.321.449-.217,1.074.233,1.395l8.656,6.183-3.078.002c-1.087,0-2.087.36-2.908.952-.58-.261-2.09-1.115-2.09-2.955,0-.552-.448-1-1-1S-.001,5.443-.001,5.996C-.001,8.483,1.612,9.843,2.705,10.481c-.437.743-.706,1.597-.705,2.519l.002,8.002c0,1.653,1.346,2.998,2.999,2.998s2.999-1.345,2.999-2.999v-2.002l5-.003v2.001c0,1.653,1.345,2.999,3.005,2.999s2.999-1.345,2.999-2.999v-2.766c0-.418.044-.837.131-1.247l1.062-4.994c2.115-.102,3.804-1.855,3.804-3.995v-.5c0-1.834-1.424-2.5-2.382-2.5Zm-14.619,12.004c-.552,0-1,.448-1,1v3.001c0,.551-.448.999-.999.999s-.999-.448-.999-.999l-.002-8.002c0-1.654,1.345-3,2.998-3.001l4.002-.002v7.001l-4.002.003Zm10.004,1.231v2.766c0,.551-.448.999-1.005.999-.551,0-.999-.448-.999-.999v-3.001c0-.265-.105-.52-.293-.708-.188-.187-.442-.292-.707-.292h-.999s0-6.856,0-6.856l4.967,2.709-.791,3.72c-.116.546-.175,1.105-.175,1.663Zm4.997-10.235c0,1.103-.897,2-2,2-.629,0-1.195.342-1.507.861l-3.943-2.151c.148-.212.276-.441.367-.692l1.089-3.018h2.375c.309,0,.586.171.724.447.479.958,1.442,1.553,2.512,1.553.382,0,.382.363.382.5v.5Z"/>
</svg>
