<?xml version="1.0" encoding="UTF-8"?>
<svg xmlns="http://www.w3.org/2000/svg" id="Layer_1" data-name="Layer 1" viewBox="0 0 24 24">
  <path d="m21.932,1.788c-.584-.977-1.571-1.619-2.71-1.759-1.157-.141-2.288.246-3.108,1.066L1.095,16.113c-.821.822-1.21,1.956-1.066,3.111.142,1.138.783,2.125,1.76,2.708,2.339,1.396,4.937,2.077,7.518,2.077,3.796,0,7.555-1.474,10.391-4.311,4.765-4.766,5.685-12.13,2.234-17.91Zm-2.971,15.759l-7.547-7.547h10.57c-.149,2.723-1.174,5.384-3.023,7.547Zm-8.961-6.133l7.547,7.547c-2.163,1.849-4.824,2.873-7.547,3.023v-10.57Zm7.527-8.905c.33-.33.769-.509,1.229-.509.774,0,1.193.37,1.459.814.97,1.625,1.533,3.395,1.719,5.186h-9.897l5.491-5.491ZM2.014,18.977c-.067-.54.114-1.068.496-1.45l5.491-5.491v9.897c-1.791-.186-3.561-.749-5.186-1.72-.444-.265-.736-.716-.8-1.237Z"/>
</svg>
