<?xml version="1.0" encoding="UTF-8"?>
<svg xmlns="http://www.w3.org/2000/svg" id="Layer_1" data-name="Layer 1" viewBox="0 0 24 24">
  <path d="m24,21c0,.552-.447,1-1,1h-12c-.552,0-1,.449-1,1s-.447,1-1,1-1-.448-1-1c0-1.302.839-2.402,2-2.816v-3.184h-6v6c0,.552-.447,1-1,1s-1-.448-1-1v-6.351c-1.178-.564-2-1.758-2-3.149v-4c0-1.93,1.57-3.5,3.5-3.5h4.217l5.759-3.544c.471-.29,1.087-.143,1.376.328.289.47.143,1.086-.327,1.375l-6,3.692c-.158.097-.339.148-.524.148H3.5c-.827,0-1.5.673-1.5,1.5v4c0,.827.673,1.5,1.5,1.5h2.5v-4c0-.552.447-1,1-1s1,.448,1,1v4h2c1.103,0,2,.897,2,2v3h11c.553,0,1,.448,1,1ZM4.5,5c1.381,0,2.5-1.119,2.5-2.5S5.881,0,4.5,0s-2.5,1.119-2.5,2.5,1.119,2.5,2.5,2.5Zm6.648,5.293c.188.307.517.476.853.476.179,0,.359-.048.523-.148l4-2.461c.47-.29.616-.905.327-1.375-.289-.471-.904-.619-1.376-.328l-4,2.461c-.47.29-.616.905-.327,1.375Zm5.428-5.492l1.923.724.699,1.898c.084.251.281.449.533.533.442.148.92-.091,1.068-.533l.707-1.916,1.918-.706c.251-.084.448-.281.533-.533.148-.442-.091-.92-.533-1.068l-1.899-.7-.725-1.924c-.148-.442-.626-.68-1.068-.533-.251.084-.449.281-.533.533l-.717,1.906-1.905.718c-.442.148-.68.626-.533,1.068.084.251.281.449.533.533Z"/>
</svg>
