<?xml version="1.0" encoding="UTF-8"?>
<svg xmlns="http://www.w3.org/2000/svg" id="Layer_1" data-name="Layer 1" viewBox="0 0 24 24">
  <path d="m5.918,11.986c-.545-.091-.912-.607-.821-1.151.566-3.381,3.47-5.835,6.903-5.835.392,0,.783.033,1.166.097.545.092.912.607.82,1.152-.091.544-.599.912-1.152.82-.272-.046-.554-.069-.834-.069-2.452,0-4.526,1.752-4.931,4.165-.082.489-.672.821-1.151.821Zm2.648,7.448l1.25-2.22c.306-.543-.087-1.215-.71-1.215-.289,0-.556.153-.703.402l-1.449,2.465h-.354v-2.067c0-.442-.358-.8-.8-.8s-.8.358-.8.8v6.4c0,.442.358.8.8.8s.8-.358.8-.8v-2.733h.612l1.378,3.057c.131.29.419.476.737.476.583,0,.974-.598.741-1.132l-1.502-3.433Zm-2.648-7.448c-.055,0,.056.009,0,0h0ZM12,0C5.383,0,0,5.383,0,12c0,1.746.367,3.431,1.092,5.007.168.366.53.582.909.582.14,0,.281-.029.417-.092.501-.23.722-.824.49-1.326-.603-1.312-.908-2.716-.908-4.171C2,6.486,6.486,2,12,2s10,4.486,10,10c0,1.426-.293,2.802-.872,4.09-.227.504,0,1.096.502,1.322.508.227,1.098,0,1.322-.502.695-1.548,1.048-3.2,1.048-4.91C24,5.383,18.617,0,12,0Zm2,12c0-.189-.035-.368-.083-.541l3.786-3.749c.393-.388.396-1.021.008-1.414-.39-.392-1.022-.396-1.414-.007l-3.814,3.776c-.155-.039-.315-.065-.483-.065-1.105,0-2,.895-2,2s.895,2,2,2,2-.895,2-2Zm3.8,4h0c-.442,0-.8.358-.8.8v6.4c0,.442.358.8.8.8h0c.442,0,.8-.358.8-.8v-6.4c0-.442-.358-.8-.8-.8Zm-1.701,2.5c0,1.381-1.119,2.5-2.5,2.5h-.5v2.2c0,.442-.358.8-.8.8s-.8-.358-.8-.8v-6.4c0-.442.358-.8.8-.8h1.3c1.381,0,2.5,1.119,2.5,2.5Zm-1.522,0c0-.551-.449-1-1-1h-.555v2h.555c.551,0,1-.449,1-1Z"/>
</svg>
