<?xml version="1.0" encoding="UTF-8"?>
<svg xmlns="http://www.w3.org/2000/svg" id="Layer_1" data-name="Layer 1" viewBox="0 0 24 24">
  <path d="m19,3H5C2.243,3,0,5.243,0,8v8c0,2.757,2.243,5,5,5h2.352c1.062,0,2.056-.57,2.592-1.488l1.189-2.039c.262-.45.693-.499.867-.499s.605.048.867.499l1.19,2.039c.535.918,1.528,1.488,2.591,1.488h2.352c2.757,0,5-2.243,5-5v-8c0-2.757-2.243-5-5-5Zm3,13c0,1.654-1.346,3-3,3h-2.352c-.354,0-.686-.19-.863-.496l-1.189-2.039c-.545-.934-1.515-1.491-2.596-1.491s-2.051.557-2.596,1.491l-1.188,2.039c-.179.306-.51.496-.864.496h-2.352c-1.654,0-3-1.346-3-3v-8c0-1.654,1.346-3,3-3h14c1.654,0,3,1.346,3,3v8Zm-5.5-9c-1.93,0-3.5,1.57-3.5,3.5s1.57,3.5,3.5,3.5,3.5-1.57,3.5-3.5-1.57-3.5-3.5-3.5Zm0,5c-.827,0-1.5-.673-1.5-1.5s.673-1.5,1.5-1.5,1.5.673,1.5,1.5-.673,1.5-1.5,1.5ZM7.5,7c-1.93,0-3.5,1.57-3.5,3.5s1.57,3.5,3.5,3.5,3.5-1.57,3.5-3.5-1.57-3.5-3.5-3.5Zm0,5c-.827,0-1.5-.673-1.5-1.5s.673-1.5,1.5-1.5,1.5.673,1.5,1.5-.673,1.5-1.5,1.5Z"/>
</svg>
