<?xml version="1.0" encoding="UTF-8"?>
<svg xmlns="http://www.w3.org/2000/svg" id="Layer_1" data-name="Layer 1" viewBox="0 0 24 24">
  <path d="m19,6h-2.113c-.285-1.383-1.14-2.61-2.387-3.33-.479-.278-1.089-.113-1.366.364-.276.479-.113,1.09.365,1.366.925.535,1.5,1.531,1.5,2.6v11H4c-1.103,0-2-.897-2-2v-3c0-.553-.448-1-1-1s-1,.447-1,1v3c0,1.881,1.309,3.452,3.061,3.877-.038.204-.061.412-.061.623,0,1.93,1.57,3.5,3.5,3.5s3.5-1.57,3.5-3.5c0-.169-.017-.335-.041-.5h4.082c-.024.165-.041.331-.041.5,0,1.93,1.57,3.5,3.5,3.5s3.5-1.57,3.5-3.5c0-.211-.024-.419-.061-.623,1.752-.425,3.061-1.996,3.061-3.877v-5c0-2.757-2.243-5-5-5Zm3,5v1h-5v-4h2c1.654,0,3,1.346,3,3Zm-14,9.5c0,.827-.673,1.5-1.5,1.5s-1.5-.673-1.5-1.5c0-.189.039-.355.093-.5h2.815c.054.145.093.311.093.5Zm9.5,1.5c-.827,0-1.5-.673-1.5-1.5,0-.189.039-.355.093-.5h2.815c.054.145.093.311.093.5,0,.827-.673,1.5-1.5,1.5Zm2.5-4h-3v-4h5v2c0,1.103-.897,2-2,2ZM3,10h5c1.654,0,3-1.346,3-3V3c0-1.654-1.346-3-3-3H3C1.346,0,0,1.346,0,3v4c0,1.654,1.346,3,3,3Zm-1-7c0-.552.449-1,1-1h5c.551,0,1,.448,1,1v4c0,.552-.449,1-1,1H3c-.551,0-1-.448-1-1V3Zm2,1c0-.553.448-1,1-1h1c.552,0,1,.447,1,1s-.448,1-1,1h-1c-.552,0-1-.447-1-1Z"/>
</svg>
