<?xml version="1.0" encoding="UTF-8"?>
<svg xmlns="http://www.w3.org/2000/svg" id="Layer_1" data-name="Layer 1" viewBox="0 0 24 24">
  <path d="m8.04,11.856c-1.07-1.089-3.01-1.089-4.08,0l-2.202,1.901c-2.339,2.339-2.339,6.146,0,8.485,1.133,1.133,2.64,1.757,4.242,1.757s3.109-.624,4.243-1.757c2.339-2.339,2.339-6.146-.054-8.536l-2.148-1.851Zm.789,8.972c-1.512,1.512-4.146,1.511-5.657,0-1.56-1.56-1.56-4.098-.054-5.606,0,0,2.234-1.927,2.258-1.953.164-.174.386-.27.625-.27s.461.096.625.27c.024.025,2.204,1.902,2.204,1.902,1.56,1.56,1.56,4.098,0,5.657Zm13.532-12.245l-1.947-1.798c-1.054-1.032-2.772-1.032-3.806-.02l-1.996,1.845c-1.039,1.039-1.611,2.42-1.611,3.889s.572,2.851,1.611,3.889c1.039,1.039,2.42,1.611,3.889,1.611s2.85-.572,3.889-1.611c2.145-2.145,2.145-5.634-.028-7.806Zm-1.386,6.391c-1.322,1.322-3.627,1.323-4.95,0-.661-.661-1.025-1.54-1.025-2.475s.364-1.814.997-2.448l1.988-1.837c.14-.137.322-.206.508-.206.192,0,.388.075.542.226l1.939,1.791c1.365,1.365,1.365,3.585,0,4.95ZM12.862,2.207l-1.501-1.652c-.75-.732-1.971-.734-2.764.043l-1.425,1.574c-.756.755-1.172,1.76-1.172,2.828s.416,2.073,1.171,2.828,1.76,1.172,2.829,1.172,2.073-.416,2.829-1.172c1.56-1.56,1.56-4.097.034-5.621Zm-1.448,4.207c-.756.756-2.073.756-2.828,0h0c-.378-.378-.586-.88-.586-1.414s.208-1.036.62-1.449l1.38-1.522,1.415,1.558c.78.78.78,2.048,0,2.828Z"/>
</svg>
