<?xml version="1.0" encoding="UTF-8"?>
<svg xmlns="http://www.w3.org/2000/svg" id="Layer_1" data-name="Layer 1" viewBox="0 0 24 24">
  <path d="m20.5,6h-1.5v-3c.552,0,1-.447,1-1s-.448-1-1-1H1c-.552,0-1,.447-1,1s.448,1,1,1v15c0,2.757,2.243,5,5,5h8c2.757,0,5-2.243,5-5v-1h1.5c1.93,0,3.5-1.57,3.5-3.5v-4c0-1.93-1.57-3.5-3.5-3.5Zm-6.5,15H6c-1.654,0-3-1.346-3-3V3h14v15c0,1.654-1.346,3-3,3Zm8-7.5c0,.827-.673,1.5-1.5,1.5h-1.5v-7h1.5c.827,0,1.5.673,1.5,1.5v4Zm-6.961-7.48v12c0,.553-.448,1-1,1s-1-.447-1-1V6.02c0-.553.448-1,1-1s1,.447,1,1Zm-4,0v12c0,.553-.448,1-1,1s-1-.447-1-1V6.02c0-.553.448-1,1-1s1,.447,1,1Zm-4,0v12c0,.553-.448,1-1,1s-1-.447-1-1V6.02c0-.553.448-1,1-1s1,.447,1,1Z"/>
</svg>
