<?xml version="1.0" encoding="UTF-8"?>
<svg xmlns="http://www.w3.org/2000/svg" id="Layer_1" data-name="Layer 1" viewBox="0 0 24 24">
  <path d="m10,23c0,.553-.448,1-1,1h-4c-2.757,0-5-2.243-5-5V7C0,4.243,2.243,2,5,2h.171c.413-1.164,1.525-2,2.829-2h2c1.304,0,2.416.836,2.829,2h.171c2.757,0,5,2.243,5,5v3c0,.552-.447,1-1,1s-1-.448-1-1v-3c0-1.654-1.346-3-3-3h-1c-.552,0-1-.448-1-1s-.449-1-1-1h-2c-.551,0-1,.449-1,1s-.448,1-1,1h-1c-1.654,0-3,1.346-3,3v12c0,1.654,1.346,3,3,3h4c.552,0,1,.447,1,1Zm-1.207-16.287l-2.227,2.227c-.078.079-.204.082-.286.006l-1.105-1.013c-.407-.373-1.04-.344-1.413.062-.373.407-.346,1.04.062,1.413l1.105,1.013c.424.389.958.582,1.491.582.565,0,1.129-.217,1.56-.648l2.227-2.227c.391-.391.391-1.023,0-1.414s-1.023-.391-1.414,0Zm0,6.08l-2.227,2.227c-.078.079-.204.081-.286.006l-1.105-1.013c-.407-.373-1.04-.345-1.413.062-.373.407-.346,1.04.062,1.413l1.105,1.013c.424.389.958.582,1.491.582.565,0,1.129-.218,1.56-.648l2.227-2.227c.391-.391.391-1.023,0-1.414s-1.023-.391-1.414,0Zm15.207,3.707v4c0,1.93-1.57,3.5-3.5,3.5h-5c-1.93,0-3.5-1.57-3.5-3.5v-4c0-1.93,1.57-3.5,3.5-3.5h5c1.93,0,3.5,1.57,3.5,3.5Zm-2,0c0-.827-.673-1.5-1.5-1.5h-5c-.827,0-1.5.673-1.5,1.5v4c0,.827.673,1.5,1.5,1.5h5c.827,0,1.5-.673,1.5-1.5v-4Zm-3,.5h-2c-.553,0-1,.447-1,1s.447,1,1,1h2c.553,0,1-.447,1-1s-.447-1-1-1Zm-5-7c0-.552-.447-1-1-1h-1.5c-.552,0-1,.448-1,1s.448,1,1,1h1.5c.553,0,1-.448,1-1Z"/>
</svg>
