<?xml version="1.0" encoding="UTF-8"?>
<svg xmlns="http://www.w3.org/2000/svg" id="Layer_1" data-name="Layer 1" viewBox="0 0 24 24">
  <path d="m19.046,11.388s-3.972-1.163-4.046-1.207v-4.365c1.161-.414,2-1.514,2-2.816,0-1.654-1.346-3-3-3H3C1.346,0,0,1.346,0,3c0,1.302.839,2.402,2,2.816v17.184c0,.552.447,1,1,1s1-.448,1-1v-1h2v1c0,.552.447,1,1,1s1-.448,1-1v-1h2v1c0,.552.447,1,1,1s1-.448,1-1v-1h2v1c0,.552.447,1,1,1s1-.448,1-1v-1h2v1c0,.552.447,1,1,1s1-.448,1-1v-1h2v1c0,.552.447,1,1,1s1-.448,1-1v-5.5c0-2.969-2.113-5.546-4.954-6.112ZM3,2h11c.552,0,1,.449,1,1s-.448,1-1,1H3c-.552,0-1-.449-1-1s.448-1,1-1Zm1,18V6h9v4.028h-3c-.553,0-1,.448-1,1s.447,1,1,1h3.864l4.719,1.305c1.98.396,3.417,2.148,3.417,4.167v2.5H4Z"/>
</svg>
