<?xml version="1.0" encoding="UTF-8"?>
<svg xmlns="http://www.w3.org/2000/svg" id="Layer_1" data-name="Layer 1" viewBox="0 0 24 24">
  <path d="m21.5,9h-.5v-.5c0-1.378-1.122-2.5-2.5-2.5h-2.5v-3h3c.552,0,1-.448,1-1s-.448-1-1-1h-8c-.552,0-1,.448-1,1s.448,1,1,1h3v3h-2.563c-.893,0-1.733.394-2.304,1.08l-1.601,1.92h-.032c-1.378,0-2.5,1.122-2.5,2.5v1.5h-3v-3c0-.552-.448-1-1-1s-1,.448-1,1v8c0,.552.448,1,1,1s1-.448,1-1v-3h3v2.171c0,.801.312,1.555.879,2.122l1.828,1.828c.566.567,1.32.879,2.122.879h8.671c1.208,0,2.217-.86,2.45-2h.55c1.378,0,2.5-1.122,2.5-2.5v-6c0-1.378-1.122-2.5-2.5-2.5Zm.5,8.5c0,.276-.224.5-.5.5h-1.5c-.552,0-1,.448-1,1v.5c0,.276-.224.5-.5.5h-8.671c-.267,0-.519-.104-.708-.293l-1.828-1.828c-.189-.189-.293-.44-.293-.708v-5.671c0-.276.224-.5.5-.5h.5c.297,0,.578-.132.768-.36l1.901-2.28c.19-.229.47-.36.768-.36h7.063c.276,0,.5.224.5.5v1.5c0,.552.448,1,1,1h1.5c.276,0,.5.224.5.5v6Z"/>
</svg>
