<?xml version="1.0" encoding="UTF-8"?>
<svg xmlns="http://www.w3.org/2000/svg" id="Layer_1" data-name="Layer 1" viewBox="0 0 24 24">
  <path d="m3.688,24c-.032,0-.063,0-.095,0-1.022-.027-1.963-.462-2.649-1.224-1.269-1.409-1.157-3.784.244-5.185l5.868-5.867c.253-.254.344-.631.241-1.009-.358-1.318-.393-2.676-.102-4.036C7.903,3.364,10.626.735,13.972.137c1.006-.18,2.015-.184,3.002-.007.731.129,1.299.625,1.52,1.325.251.799-.003,1.681-.682,2.359l-2.247,2.217c-.658.658-.758,1.69-.222,2.345.308.378.742.598,1.222.622.472.02.936-.155,1.271-.489l2.58-2.55c.539-.539,1.332-.735,2.07-.501.723.227,1.254.828,1.385,1.567h0c.175.987.172,1.998-.007,3.003-.6,3.347-3.229,6.07-6.544,6.777-1.363.291-2.721.256-4.036-.103-.377-.104-.754-.012-1.008.241l-5.976,5.975c-.69.69-1.637,1.081-2.612,1.081ZM15.61,1.993c-.422,0-.854.035-1.286.112-2.554.457-4.634,2.463-5.174,4.991-.224,1.045-.198,2.086.076,3.093.29,1.062,0,2.191-.756,2.948l-5.868,5.867c-.65.65-.732,1.81-.171,2.433.315.35.747.55,1.215.562.461.019.909-.163,1.241-.494l5.975-5.975c.755-.755,1.885-1.047,2.948-.757,1.004.274,2.045.3,3.093.076,2.528-.539,4.534-2.618,4.992-5.174.138-.772.14-1.547.006-2.301v-.007s-2.655,2.559-2.655,2.559c-.729.729-1.744,1.136-2.781,1.068-1.036-.052-2.009-.545-2.669-1.353-1.179-1.439-1.021-3.649.361-5.03l2.247-2.217c.179-.18.191-.314.184-.341-.315-.039-.643-.062-.976-.062Z"/>
</svg>
