<?xml version="1.0" encoding="UTF-8"?>
<svg xmlns="http://www.w3.org/2000/svg" id="Layer_1" data-name="Layer 1" viewBox="0 0 24 24">
  <path d="m22.242,5.272l-3.515-3.515c-1.133-1.133-2.64-1.757-4.242-1.757h-4.971c-1.603,0-3.109.624-4.242,1.757l-3.515,3.514c-1.134,1.133-1.758,2.64-1.758,4.243v4.971c0,1.603.624,3.11,1.758,4.243l3.515,3.515c1.133,1.133,2.64,1.757,4.242,1.757h4.971c1.603,0,3.109-.624,4.242-1.757l3.515-3.514c1.134-1.133,1.758-2.64,1.758-4.243v-4.971c0-1.603-.624-3.11-1.758-4.243Zm-.242,9.213c0,1.069-.416,2.073-1.172,2.829l-3.515,3.515c-.756.755-1.76,1.171-2.828,1.171h-4.971c-1.068,0-2.072-.416-2.828-1.171l-3.515-3.515c-.756-.755-1.172-1.759-1.172-2.828v-4.971c0-1.069.416-2.073,1.172-2.829l3.515-3.515c.756-.755,1.76-1.171,2.828-1.171h4.971c1.068,0,2.072.416,2.828,1.171l3.515,3.515c.756.755,1.172,1.759,1.172,2.828v4.971Zm-11-.485V6c0-.552.447-1,1-1s1,.448,1,1v8c0,.552-.447,1-1,1s-1-.448-1-1Zm2.5,3.5c0,.828-.672,1.5-1.5,1.5s-1.5-.672-1.5-1.5.672-1.5,1.5-1.5,1.5.672,1.5,1.5Z"/>
</svg>
