<?xml version="1.0" encoding="UTF-8"?>
<svg xmlns="http://www.w3.org/2000/svg" id="Layer_1" data-name="Layer 1" viewBox="0 0 24 24">
  <path d="m19,2c0-1.105.895-2,2-2s2,.895,2,2-.895,2-2,2-2-.895-2-2ZM3,4c1.105,0,2-.895,2-2S4.105,0,3,0,1,.895,1,2s.895,2,2,2Zm20.969,3.121c-.376-1.228-1.518-2.121-2.869-2.121h-1.169c.041.328.069.661.069,1,0,.692-.097,1.36-.262,2h3.603c.454,0,.76-.444.628-.879Zm-19.969-1.121c0-.339.028-.672.069-1h-1.154C1.533,5,.368,5.935.021,7.208c-.11.403.229.792.647.792h3.594c-.165-.64-.262-1.308-.262-2Zm8,0c.828,0,1.5-.672,1.5-1.5s-.672-1.5-1.5-1.5-1.5.672-1.5,1.5.672,1.5,1.5,1.5Zm9.999,16.942c.032.551-.389,1.024-.94,1.057-.02,0-.04.001-.059.001-.526,0-.966-.41-.998-.942-.068-1.183-.831-2.217-1.941-2.633l-4.38-1.477c-.406-.137-.68-.519-.68-.948v-4.893c0-.537-.362-1.017-.825-1.093-.304-.049-.595.03-.823.224-.224.19-.353.468-.353.762v7.455c0,.608-.34,1.15-.889,1.415s-1.184.191-1.66-.186c0,0-1.761-1.405-1.771-1.415-.402-.373-1.034-.354-1.41.048-.377.403-.356,1.038.046,1.416l.568.548c.648.624.206,1.72-.694,1.72-.259,0-.508-.1-.694-.28l-.558-.538c-1.196-1.12-1.26-3.022-.13-4.23,1.103-1.181,2.94-1.26,4.151-.208.008.006,1.04.821,1.04.821v-6.563c0-.567.174-1.106.467-1.576-2.093-.976-3.467-3.072-3.467-5.424,0-3.309,2.691-6,6-6s6,2.691,6,6c0,2.373-1.375,4.464-3.482,5.435.302.488.482,1.062.482,1.672v4.175l3.731,1.258c1.882.706,3.153,2.429,3.268,4.401ZM8,6c0,1.11.46,2.135,1.221,2.872.444-1.097,1.515-1.872,2.771-1.872h.016c1.255,0,2.325.778,2.769,1.875.762-.735,1.223-1.757,1.223-2.875,0-2.206-1.794-4-4-4s-4,1.794-4,4Z"/>
</svg>
