<?xml version="1.0" encoding="UTF-8"?>
<svg xmlns="http://www.w3.org/2000/svg" id="Layer_1" data-name="Layer 1" viewBox="0 0 24 24">
  <path d="m24,20c0,.553-.448,1-1,1h-11c-2.757,0-5-2.243-5-5v-8c0-2.757,2.243-5,5-5h11c.552,0,1,.448,1,1s-.448,1-1,1h-11c-1.654,0-3,1.346-3,3v8c0,1.654,1.346,3,3,3h11c.552,0,1,.447,1,1Zm-10-8c0-.552-.448-1-1-1h-1c-.552,0-1,.448-1,1s.448,1,1,1h1c.552,0,1-.448,1-1Zm4-1h-1c-.552,0-1,.448-1,1s.448,1,1,1h1c.552,0,1-.448,1-1s-.448-1-1-1Zm5,0h-1c-.552,0-1,.448-1,1s.448,1,1,1h1c.552,0,1-.448,1-1s-.448-1-1-1Zm-10-4h-1c-.552,0-1,.448-1,1s.448,1,1,1h1c.552,0,1-.448,1-1s-.448-1-1-1Zm5,0h-1c-.552,0-1,.448-1,1s.448,1,1,1h1c.552,0,1-.448,1-1s-.448-1-1-1Zm5,0h-1c-.552,0-1,.448-1,1s.448,1,1,1h1c.552,0,1-.448,1-1s-.448-1-1-1Zm0,8h-7c-.552,0-1,.447-1,1s.448,1,1,1h7c.552,0,1-.447,1-1s-.448-1-1-1ZM4.707,7.879c-.391-.391-1.023-.391-1.414,0l-2.707,2.707c-.78.78-.78,2.048,0,2.828l2.707,2.707c.195.195.451.293.707.293s.512-.098.707-.293c.391-.391.391-1.023,0-1.414l-2.707-2.707,2.707-2.707c.391-.391.391-1.023,0-1.414Zm6.293,8.121c0,.552.448,1,1,1s1-.448,1-1-.448-1-1-1-1,.448-1,1Z"/>
</svg>
