<?xml version="1.0" encoding="UTF-8"?>
<svg xmlns="http://www.w3.org/2000/svg" id="Layer_1" data-name="Layer 1" viewBox="0 0 24 24">
  <path d="m7,12c3.309,0,6-2.691,6-6h1c.553,0,1-.447,1-1s-.447-1-1-1h-1.35C11.824,1.673,9.607,0,7,0,3.691,0,1,2.691,1,6s2.691,6,6,6Zm0-2c-2.206,0-4-1.794-4-4h8c0,2.206-1.794,4-4,4Zm0-8c1.474,0,2.75.81,3.444,2H3.556c.694-1.19,1.97-2,3.444-2Zm6.601,16.666c.265.747.399,1.532.399,2.334v2c0,.553-.447,1-1,1s-1-.447-1-1v-2c0-.573-.096-1.134-.284-1.666-.185-.521.088-1.092.608-1.276.518-.183,1.092.087,1.276.608ZM23.565,3.364l-3.565,1.885v3.814c0,.893-.394,1.733-1.08,2.305l-4.723,3.937c-.538.448-1.22.695-1.921.695h-5.276c-2.757,0-5,2.243-5,5v2c0,.553-.447,1-1,1s-1-.447-1-1v-2c0-3.859,3.141-7,7-7h5.276c.233,0,.461-.082.64-.231l4.724-3.938c.229-.19.36-.47.36-.768V1c0-.553.447-1,1-1,.6,0,1.195.128,1.751.377l2.813,1.259c.581.399.581,1.329,0,1.729Z"/>
</svg>
