<?xml version="1.0" encoding="UTF-8"?>
<svg xmlns="http://www.w3.org/2000/svg" id="Layer_1" data-name="Layer 1" viewBox="0 0 24 24">
  <path d="m23.383,20.019c-.008-.009-3.383-3.51-3.383-3.51v-2.509c.553,0,1-.447,1-1s-.447-1-1-1h-3c-.553,0-1,.447-1,1s.447,1,1,1v2.51l-3.455,3.594c-.592.719-.712,1.688-.314,2.53.398.843,1.225,1.366,2.156,1.366h6.227c.956,0,1.791-.543,2.179-1.416.388-.874.231-1.856-.409-2.565Zm-1.419,1.753c-.037.086-.134.229-.351.229h-6.227c-.212,0-.309-.138-.348-.22-.038-.082-.083-.244,0-.349l3.462-3.598,3.406,3.534c.136.157.095.32.058.403Zm-8.576-5.352c-.156-.12-.317-.235-.483-.343-.118-.077-.283-.048-.376.063l-2.743,3.479c-.379.48-1.191.48-1.57,0l-2.76-3.499c-.077-.09-.241-.118-.36-.044-.277.183-.543.382-.786.592-1.467,1.271-2.309,3.247-2.309,5.423v.909c0,.553-.447,1-1,1s-1-.447-1-1v-.909c0-2.757,1.094-5.284,3-6.935.311-.27.647-.522,1.002-.755.972-.63,2.261-.432,3.006.458l1.992,2.525,1.975-2.504c.761-.912,2.054-1.111,3.02-.48.213.138.419.284.618.439.437.338.517.966.178,1.402-.337.438-.967.519-1.402.178ZM1.616,14.025c.077.018.154.026.23.026.453,0,.863-.311.973-.771.293-1.242.666-2.814,1.01-4.253,1.043,1.774,2.968,2.971,5.171,2.971,1.056,0,2.093-.278,3.001-.804.479-.276.642-.889.364-1.366-.277-.479-.891-.643-1.366-.364-.604.35-1.295.534-1.999.534-1.862,0-3.417-1.284-3.861-3.009.056.001.112.01.167.01,1.243,0,2.465-.347,3.546-1.021,1.223-.762,2.141-1.873,2.669-3.185.771.537,1.371,1.315,1.676,2.257.043.137.264.991,1.261,5.18.109.46.52.769.972.769.077,0,.154-.009.232-.027.537-.128.869-.667.741-1.204-1.036-4.354-1.24-5.14-1.304-5.332-.857-2.653-3.309-4.437-6.1-4.437S3.758,1.783,2.9,4.437c-.174.537-1.72,7.079-2.028,8.386-.126.537.206,1.076.744,1.203ZM9,2c.223,0,.442.02.657.052-.371.917-1.007,1.697-1.863,2.231-.893.557-1.921.776-2.952.674.618-1.771,2.272-2.957,4.158-2.957Z"/>
</svg>
