<?xml version="1.0" encoding="UTF-8"?>
<svg xmlns="http://www.w3.org/2000/svg" id="Layer_1" data-name="Layer 1" viewBox="0 0 24 24">
  <path d="m23.13,4.153l-3.236-3.265c-.425-.43-1.381-.888-2.131-.888h-8.763c-2.757,0-5,2.243-5,5v10c0,2.757,2.243,5,5,5h10c2.757,0,5-2.243,5-5V6.266c0-.797-.31-1.548-.87-2.112Zm-12.13-2.153h6v4h-6V2Zm11,13c0,1.654-1.346,3-3,3h-10c-1.654,0-3-1.346-3-3V5c0-1.654,1.346-3,3-3v4c0,1.103.897,2,2,2h6c1.103,0,2-.897,2-2v-3.172l2.711,2.734c.187.188.289.438.289.704v8.734Zm-4,8c0,.552-.447,1-1,1h-8C4.037,24,0,19.962,0,15V7c0-.552.447-1,1-1s1,.448,1,1v8c0,3.86,3.141,7,7,7h8c.553,0,1,.448,1,1Zm-4-13c-1.654,0-3,1.346-3,3s1.346,3,3,3,3-1.346,3-3-1.346-3-3-3Zm0,4c-.552,0-1-.449-1-1s.448-1,1-1,1,.449,1,1-.448,1-1,1Z"/>
</svg>
