<?xml version="1.0" encoding="UTF-8"?>
<svg xmlns="http://www.w3.org/2000/svg" id="Layer_1" data-name="Layer 1" viewBox="0 0 24 24">
  <path d="m14.144.638c-1.303-.849-2.984-.848-4.287,0-2.934,1.91-7.856,5.721-7.856,9.782v6.344c0,2.13,1.272,4.03,3.242,4.841l4.972,2.047c.576.237,1.181.355,1.786.355s1.21-.119,1.786-.355l4.972-2.047c1.97-.811,3.242-2.711,3.242-4.841v-6.344c0-4.061-4.923-7.872-7.856-9.782Zm-2.144,14.423l-3.703-1.998c-.183-.099-.297-.29-.297-.498,0-.312.254-.566.565-.566h6.869c.312,0,.565.254.565.566,0,.208-.114.399-.297.498l-3.703,1.998Zm8,1.702c0,1.316-.786,2.49-2.004,2.991l-4.972,2.047c-.008.003-.016.004-.024.007v-5.014l3.652-1.972c.831-.448,1.348-1.313,1.348-2.258,0-1.415-1.15-2.566-2.565-2.566h-6.869c-1.415,0-2.565,1.151-2.565,2.566,0,.944.517,1.81,1.348,2.258l3.652,1.972v5.014c-.008-.003-.016-.004-.024-.007l-4.972-2.047c-1.218-.501-2.004-1.675-2.004-2.991v-6.344c0-3.233,4.859-6.746,6.948-8.106.319-.208.686-.312,1.052-.312s.732.104,1.052.312c2.089,1.36,6.948,4.873,6.948,8.106v6.344Z"/>
</svg>
