<?xml version="1.0" encoding="UTF-8"?>
<svg xmlns="http://www.w3.org/2000/svg" id="Layer_1" data-name="Layer 1" viewBox="0 0 24 24">
  <path d="m20.07,23.99c-.048.007-.096.01-.143.01-.49,0-.918-.359-.989-.858-.419-2.932-2.972-5.142-5.938-5.142h-2v5c0,.553-.448,1-1,1s-1-.447-1-1v-4.653c-2.049.732-3.619,2.552-3.939,4.795-.078.547-.593.927-1.131.849-.547-.078-.927-.585-.848-1.132.559-3.91,3.964-6.858,7.919-6.858h2c3.955,0,7.359,2.948,7.919,6.858.078.547-.302,1.054-.849,1.132ZM4,3c0-1.654,1.346-3,3-3,.64,0,1.407.206,2.095.553.619-.22,1.747-.553,2.905-.553s2.286.333,2.904.553c.688-.347,1.455-.553,2.096-.553,1.654,0,3,1.346,3,3,0,1.294-.772,2.438-2,2.848v3.153c0,3.314-2.686,6-6,6s-6-2.687-6-6v-3.146c-1.176-.415-2.001-1.56-2.001-2.854Zm12,5h-8v1c0,1.125.478,2.203,1.31,2.961.843.768,1.939,1.128,3.086,1.021,2.021-.193,3.604-2.036,3.604-4.196v-.785ZM6,3c0,.432.275.813.684.949.788.262,1.318,1.027,1.317,1.905v.146h7.998v-.146c0-.878.53-1.644,1.318-1.904.408-.136.683-.518.683-.949,0-.552-.448-1-1-1-.345,0-.963.172-1.479.5-.281.18-.636.206-.939.071-.014-.006-1.321-.571-2.582-.571s-2.569.565-2.582.571c-.305.135-.658.108-.939-.071-.516-.328-1.135-.5-1.479-.5-.551,0-1,.448-1,1Zm8.5,17c-.828,0-1.5.672-1.5,1.5s.672,1.5,1.5,1.5,1.5-.672,1.5-1.5-.672-1.5-1.5-1.5Z"/>
</svg>
