<?xml version="1.0" encoding="UTF-8"?>
<svg xmlns="http://www.w3.org/2000/svg" id="Layer_1" data-name="Layer 1" viewBox="0 0 24 24">
  <path d="m23,16c.553,0,1-.447,1-1v-1.375c0-3.092-2.131-5.688-5-6.415v-1.085c0-3.377-2.748-6.125-6.125-6.125-3.029,0-5.573,2.171-6.05,5.163l-2.679,16.837H1c-.553,0-1,.447-1,1s.447,1,1,1h3.146c.989,0,1.819-.709,1.975-1.686l2.679-16.837c.321-2.015,2.035-3.478,4.075-3.478,2.274,0,4.125,1.851,4.125,4.125v.875h-1c-1.654,0-3,1.346-3,3v11c0,1.654,1.346,3,3,3h4.5c1.93,0,3.5-1.57,3.5-3.5s-1.57-3.5-3.5-3.5-3.5,1.57-3.5,3.5c0,.539.133,1.044.351,1.5h-1.351c-.552,0-1-.448-1-1v-11c0-.552.448-1,1-1h1.375c2.55,0,4.625,2.075,4.625,4.625v1.375c0,.553.447,1,1,1Zm-4,4.5c0-.827.673-1.5,1.5-1.5s1.5.673,1.5,1.5-.673,1.5-1.5,1.5-1.5-.673-1.5-1.5Z"/>
</svg>
