<?xml version="1.0" encoding="UTF-8"?>
<svg xmlns="http://www.w3.org/2000/svg" id="Layer_1" data-name="Layer 1" viewBox="0 0 24 24">
  <path d="m20.656,14.856c-1.196-1.143-3.089-1.138-4.281.006l-1.456,1.159c-3.309-1.458-5.589-3.733-6.947-6.932l1.165-1.464c1.146-1.193,1.149-3.086.007-4.282,0,0-1.853-2.407-1.883-2.438-1.207-1.207-3.17-1.206-4.327-.047l-1.15,1.004C.633,3.012,0,4.565,0,6.238c0,7.636,10.126,17.762,17.762,17.762,1.673,0,3.227-.634,4.421-1.834l.911-1.049c1.207-1.207,1.207-3.171,0-4.378-.031-.031-2.438-1.883-2.438-1.883Zm.976,4.897l-.911,1.05c-.77.771-1.821,1.196-2.959,1.196-6.957,0-15.762-9.772-15.762-15.762,0-1.138.425-2.188,1.147-2.913l1.15-1.004c.214-.214.495-.32.775-.32.264,0,.527.094.735.281,0,0,1.842,2.395,1.873,2.425.207.207.321.482.321.774s-.114.567-.321.774c-.027.026-1.635,2.044-1.635,2.044-.22.277-.278.649-.151.979,1.58,4.141,4.544,7.108,8.812,8.821.333.135.714.08.995-.146,0,0,2.018-1.607,2.044-1.635.426-.426,1.121-.428,1.549,0,.03.03,2.423,1.872,2.423,1.872.389.43.375,1.097-.085,1.561Zm-.632-18.754c0-.553.448-1,1-1h1c.552,0,1,.447,1,1s-.448,1-1,1h-1c-.552,0-1-.447-1-1Zm-4,0c0-.553.448-1,1-1h1c.552,0,1,.447,1,1s-.448,1-1,1h-1c-.552,0-1-.447-1-1Zm-4,0c0-.553.448-1,1-1h1c.552,0,1,.447,1,1s-.448,1-1,1h-1c-.552,0-1-.447-1-1Zm-4,0c0-.553.448-1,1-1h1c.552,0,1,.447,1,1s-.448,1-1,1h-1c-.552,0-1-.447-1-1Zm15,4c0,.553-.448,1-1,1h-1c-.552,0-1-.447-1-1s.448-1,1-1h1c.552,0,1,.447,1,1Zm-11,0c0-.553.448-1,1-1h5c.552,0,1,.447,1,1s-.448,1-1,1h-5c-.552,0-1-.447-1-1Z"/>
</svg>
