<?xml version="1.0" encoding="UTF-8"?>
<svg xmlns="http://www.w3.org/2000/svg" id="Layer_1" data-name="Layer 1" viewBox="0 0 24 24">
  <path d="m12.5,6c0-3.314-2.686-6-6-6S.5,2.686.5,6c0,.344.035.678.091,1.006-.372.457-.591.962-.591,1.494v12c0,2.298,3.27,3.5,6.5,3.5s6.5-1.202,6.5-3.5v-12c0-.532-.219-1.038-.591-1.494.055-.328.091-.662.091-1.006Zm-1.5,10.5c0,.436-1.577,1.5-4.5,1.5s-4.5-1.064-4.5-1.5v-1.409c1.226.601,2.867.909,4.5.909s3.274-.308,4.5-.909v1.409ZM3.226,4.066c.152-1.08,1.108-1.866,2.199-1.866h.28v-.4c0-.442.358-.8.8-.8s.8.358.8.8v.4h.274c.711,0,1.348.324,1.77.833.418.504.063,1.266-.592,1.266h-.076c-.227,0-.434-.107-.588-.274-.128-.139-.386-.226-.589-.226h-2.102c-.278,0-.532.186-.587.458-.064.318.146.617.449.678l2.792.559c1.112.222,1.889,1.282,1.725,2.439-.153,1.08-1.108,1.865-2.199,1.865h-.28v.4c0,.442-.358.8-.8.8s-.8-.358-.8-.8v-.4h-.336c-.67,0-1.273-.287-1.694-.745-.476-.518-.113-1.354.591-1.354.227,0,.434.107.588.274.128.139.312.226.515.226h2.239c.278,0,.532-.187.586-.46.063-.318-.146-.615-.451-.677l-2.791-.559c-1.112-.223-1.888-1.281-1.725-2.439Zm3.274,7.934c1.633,0,3.274-.308,4.5-.909v1.409c0,.436-1.577,1.5-4.5,1.5s-4.5-1.064-4.5-1.5v-1.409c1.226.601,2.867.909,4.5.909Zm0,10c-2.923,0-4.5-1.064-4.5-1.5v-1.409c1.226.601,2.867.909,4.5.909s3.274-.308,4.5-.909v1.409c0,.436-1.577,1.5-4.5,1.5Zm17.207-1.412l-2.535,2.535c-.585.584-1.354.877-2.122.877s-1.536-.292-2.121-.876l-2.636-2.636c-.391-.391-.391-1.023,0-1.414s1.023-.391,1.414,0l2.293,2.293V1c0-.552.447-1,1-1s1,.448,1,1v20.467l2.293-2.293c.391-.391,1.023-.391,1.414,0s.391,1.023,0,1.414Z"/>
</svg>
