<?xml version="1.0" encoding="UTF-8"?>
<svg xmlns="http://www.w3.org/2000/svg" id="Layer_1" data-name="Layer 1" viewBox="0 0 24 24">
  <path d="m7,9v5h1c.552,0,1,.448,1,1s-.448,1-1,1h-1.5c-.827,0-1.5-.673-1.5-1.5v-5.5c0-.552.448-1,1-1s1,.448,1,1Zm16,1c.553,0,1-.448,1-1s-.447-1-1-1h-1.5c-.827,0-1.5.673-1.5,1.5v5c0,.827.673,1.5,1.5,1.5h1.5c.553,0,1-.448,1-1s-.447-1-1-1h-1v-1h1c.553,0,1-.448,1-1s-.447-1-1-1h-1v-1h1Zm-13-1v6c0,.552.448,1,1,1s1-.448,1-1v-6c0-.552-.448-1-1-1s-1,.448-1,1ZM1.5,13.5c.828,0,1.5-.672,1.5-1.5s-.672-1.5-1.5-1.5-1.5.672-1.5,1.5.672,1.5,1.5,1.5Zm15.552-4.816l-1.052,3.154-1.052-3.154c-.175-.523-.737-.808-1.265-.632-.523.175-.807.741-.632,1.265l2,6c.136.408.518.684.948.684s.812-.275.948-.684l2-6c.175-.524-.108-1.09-.632-1.265-.527-.175-1.091.109-1.265.632Zm5.286,9.567c-.547.483-1.252.75-1.983.75H5c-1.654,0-3-1.346-3-3,0-.552-.448-1-1-1s-1,.448-1,1c0,2.757,2.243,5,5,5h15.354c1.22,0,2.395-.444,3.308-1.25.414-.365.453-.998.088-1.412-.366-.414-.997-.452-1.412-.087ZM1,9c.552,0,1-.448,1-1,0-1.654,1.346-3,3-3h15.354c.731,0,1.437.266,1.983.75.415.366,1.046.327,1.412-.087.365-.414.326-1.046-.088-1.412-.913-.807-2.088-1.25-3.308-1.25H5C2.243,3,0,5.243,0,8c0,.552.448,1,1,1Z"/>
</svg>
