<?xml version="1.0" encoding="UTF-8"?>
<svg xmlns="http://www.w3.org/2000/svg" id="Layer_1" data-name="Layer 1" viewBox="0 0 24 24">
  <path d="m23.082,15.401c-.354.806-.805,1.571-1.343,2.273-.477.623-.739,1.458-.739,2.354v.971c0,1.654-1.346,3-3,3h-7c-1.654,0-3-1.346-3-3h-.494c-2.499,0-4.63-1.868-4.957-4.345l-.219-1.655h-.33c-1.299,0-2-1.03-2-2,0-1.42,2.932-7.015,4.223-8.611C6.049,1.949,8.856.358,11.901.055c.553-.051,1.039.346,1.094.896.055.549-.346,1.04-.896,1.094-2.488.248-4.784,1.55-6.299,3.573-1.342,1.661-3.718,6.575-3.801,7.407l1.208-.024c.501,0,.926.372.991.869l.334,2.524c.196,1.486,1.475,2.607,2.974,2.607h1.494c.552,0,1,.448,1,1v1c0,.551.449,1,1,1h7c.552,0,1-.449,1-1v-.971c0-1.333.409-2.601,1.151-3.57.44-.575.81-1.201,1.099-1.86.221-.505.809-.738,1.317-.515.506.222.736.812.515,1.317ZM14.135,3.826c.419-1.821,1.866-3.27,3.688-3.69,1.525-.35,3.087-.005,4.288.949,1.201.955,1.89,2.382,1.89,3.915,0,1.662-.827,3.208-2.213,4.137-.493.331-.788.928-.788,1.599v.763c0,.829-.672,1.502-1.499,1.502h-1c-.827,0-1.5-.673-1.5-1.5v-.772c0-.657-.3-1.265-.782-1.587-1.74-1.164-2.558-3.25-2.083-5.314Zm3.194,3.651c.563.376.989.909,1.276,1.522h.791c.288-.614.714-1.147,1.277-1.524.83-.557,1.326-1.482,1.326-2.476,0-.92-.413-1.776-1.135-2.35-.539-.429-1.182-.651-1.858-.651-.242,0-.487.028-.735.085-1.063.246-1.942,1.126-2.188,2.19-.291,1.267.186,2.494,1.245,3.203Z"/>
</svg>
