<?xml version="1.0" encoding="UTF-8"?>
<svg xmlns="http://www.w3.org/2000/svg" id="Layer_1" data-name="Layer 1" viewBox="0 0 24 24">
  <path d="m8.293,4.121c-.391-.391-.391-1.023,0-1.414s1.023-.391,1.414,0l1.293,1.293V1c0-.552.448-1,1-1s1,.448,1,1v3l1.293-1.293c.391-.391,1.023-.391,1.414,0s.391,1.023,0,1.414l-2.293,2.293c-.39.39-.902.585-1.414.585s-1.024-.195-1.414-.585l-2.293-2.293Zm2.707,6.879v1c-1.654,0-3,1.346-3,3,0,1.36.974,2.51,2.315,2.733l3.042.507c.373.062.644.382.644.76,0,.551-.448,1-1,1h-2.268c-.356,0-.688-.192-.867-.5-.277-.478-.889-.642-1.366-.365-.479.277-.642.888-.365,1.366.535.925,1.53,1.499,2.598,1.499h.268v1c0,.552.448,1,1,1s1-.448,1-1v-1c1.654,0,3-1.346,3-3,0-1.36-.974-2.51-2.315-2.733l-3.041-.507c-.373-.062-.644-.382-.644-.76,0-.551.449-1,1-1h2.268c.356,0,.688.192.867.5.274.479.886.641,1.366.365.478-.277.642-.888.364-1.366-.534-.925-1.53-1.5-2.598-1.5h-.268v-1c0-.552-.448-1-1-1s-1,.448-1,1Zm12,11h-2v-12h.292c1.023,0,1.95-.555,2.417-1.448.438-.837.381-1.797-.153-2.566-.448-.645-1.024-1.163-1.668-1.498l-2.641-1.375c-.492-.257-1.095-.065-1.349.425-.255.49-.065,1.094.425,1.349l2.641,1.376c.357.186.686.485.949.864.107.155.115.323.023.499-.095.181-.313.375-.645.375H2.708c-.332,0-.551-.194-.646-.375-.092-.175-.083-.343.023-.498.265-.38.593-.679.95-.865l2.641-1.375c.49-.255.68-.859.425-1.349-.254-.49-.858-.681-1.349-.425l-2.641,1.375c-.643.335-1.22.853-1.668,1.498-.534.769-.591,1.728-.153,2.565.467.894,1.394,1.448,2.418,1.448h.292v12H1c-.552,0-1,.448-1,1s.448,1,1,1h6c.552,0,1-.448,1-1s-.448-1-1-1h-2v-12h14v12h-2c-.553,0-1,.448-1,1s.447,1,1,1h6c.553,0,1-.448,1-1s-.447-1-1-1Z"/>
</svg>
