<?xml version="1.0" encoding="UTF-8"?>
<svg xmlns="http://www.w3.org/2000/svg" id="Layer_1" data-name="Layer 1" viewBox="0 0 24 24">
  <path d="m19.295,10.406l2.113-2.113c.391-.391,1.023-.391,1.414,0s.391,1.023,0,1.414l-2.244,2.244c-.343.343-.799.532-1.284.532h-.01c-.488-.002-.946-.196-1.288-.545l-1.21-1.234c-.387-.395-.381-1.027.014-1.414.395-.388,1.027-.38,1.414.014l1.082,1.103Zm-17.002-.699c.195.195.451.293.707.293s.512-.098.707-.293l.793-.793.793.793c.195.195.451.293.707.293s.512-.098.707-.293c.391-.391.391-1.023,0-1.414l-.793-.793.793-.793c.391-.391.391-1.023,0-1.414s-1.023-.391-1.414,0l-.793.793-.793-.793c-.391-.391-1.023-.391-1.414,0s-.391,1.023,0,1.414l.793.793-.793.793c-.391.391-.391,1.023,0,1.414Zm2.207,7.293C2.26,17,.32,15.234,0,13.036c-.005-.145-.003-.895.55-1.468.25-.259.7-.568,1.424-.568h5.051c.724,0,1.174.309,1.424.568.553.573.555,1.324.55,1.468-.316,2.199-2.256,3.964-4.5,3.964Zm0-2c1.205,0,2.247-.848,2.484-1.996l-4.969-.004c.238,1.15,1.281,2,2.485,2Zm19.5,1.036c-.316,2.199-2.256,3.964-4.5,3.964s-4.18-1.766-4.5-3.964c-.005-.145-.003-.895.55-1.468.25-.259.7-.568,1.424-.568h5.051c.724,0,1.174.309,1.424.568.553.573.555,1.324.55,1.468Zm-2.015-.032l-4.969-.004c.238,1.15,1.281,2,2.485,2s2.247-.848,2.484-1.996Zm-2.984,5.996h-6V5.281l6.757,1.689c.082.021.163.03.244.03.448,0,.855-.303.969-.757.134-.536-.192-1.079-.728-1.213l-7.243-1.811V1c0-.552-.448-1-1-1s-1,.448-1,1v1.719l-6.757-1.689c-.535-.135-1.079.192-1.213.728-.134.536.192,1.079.728,1.213l7.243,1.811v17.219h-6c-.552,0-1,.448-1,1s.448,1,1,1h14c.552,0,1-.448,1-1s-.448-1-1-1Z"/>
</svg>
