<?xml version="1.0" encoding="UTF-8"?>
<svg xmlns="http://www.w3.org/2000/svg" id="Layer_1" data-name="Layer 1" viewBox="0 0 24 24">
  <path d="m3,0C1.346,0,0,1.346,0,3v9.343c0,1.336.521,2.592,1.465,3.536l.828.828c.195.195.451.293.707.293s.512-.098.707-.293l.828-.828c.944-.944,1.465-2.2,1.465-3.536V3c0-1.654-1.346-3-3-3Zm1,12.343c0,.802-.313,1.556-.879,2.122l-.121.121-.121-.121c-.566-.566-.879-1.32-.879-2.122V3c0-.552.448-1,1-1s1,.448,1,1v9.343ZM22.535,3.121l-1.656-1.656c-.944-.944-2.2-1.465-3.536-1.465h-5.343c-2.206,0-4,1.794-4,4v6c0,.553.447,1,1,1s1-.447,1-1v-6c0-1.103.897-2,2-2h5v3c0,1.103.897,2,2,2h3v12c0,.553.447,1,1,1s1-.447,1-1V6.657c0-1.336-.521-2.592-1.465-3.536Zm-3.535-.622c.165.11.321.237.465.38l1.656,1.656c.144.144.27.299.38.465h-2.501v-2.501Zm-2,10.501h-7c-1.654,0-3,1.346-3,3v5c0,1.654,1.346,3,3,3h7c1.654,0,3-1.346,3-3v-5c0-1.654-1.346-3-3-3Zm0,2c.025,0,.047.013.071.014l-2.606,2.606c-.533.533-1.398.533-1.932,0l-2.606-2.606c.025-.002.046-.014.071-.014h7Zm0,7h-7c-.552,0-1-.448-1-1v-4.086l2.12,2.12c.636.636,1.48.986,2.38.986s1.744-.351,2.38-.986l2.12-2.12v4.086c0,.552-.448,1-1,1Z"/>
</svg>
