<?xml version="1.0" encoding="UTF-8"?>
<svg xmlns="http://www.w3.org/2000/svg" id="Layer_1" data-name="Layer 1" viewBox="0 0 24 24">
  <path d="m19,0H5C2.243,0,0,2.243,0,5v14c0,2.757,2.243,5,5,5h14c2.757,0,5-2.243,5-5V5c0-2.757-2.243-5-5-5ZM5,22c-.719,0-1.371-.265-1.888-.688l8.335-4.163c.494-.247.695-.847.448-1.341-.247-.494-.847-.696-1.341-.448l-2.553,1.275v-2.636c0-.552-.448-1-1-1s-1,.448-1,1v3.635l-3.939,1.968c-.04-.195-.061-.396-.061-.602V5c0-1.654,1.346-3,3-3h2.023l2.261,4.377c.518,1.001,1.539,1.623,2.666,1.623h1.471l1.712,2.996c.185.323.522.504.869.504.168,0,.339-.042.495-.132.479-.274.646-.885.372-1.364l-1.145-2.004h2.277c.552,0,1-.448,1-1s-.448-1-1-1h-6.051c-.375,0-.716-.208-.888-.541l-1.786-3.459h9.725c1.654,0,3,1.346,3,3v14c0,.22-.027.432-.072.639l-5.288-4.407c-.424-.354-1.054-.295-1.408.128-.354.424-.296,1.055.128,1.408l5.49,4.575c-.511.405-1.149.657-1.85.657H5Z"/>
</svg>
