<?xml version="1.0" encoding="UTF-8"?>
<svg xmlns="http://www.w3.org/2000/svg" id="Layer_1" data-name="Layer 1" viewBox="0 0 24 24">
  <path d="m23.987,6.137c-.284-1.431-1.273-2.245-2.082-2.683-.168-1.046-.726-1.985-1.587-2.643C19.273.013,17.93-.244,16.632.111c-1.205.327-2.211,1.225-2.694,2.401-.143.347-.239.703-.288,1.055-.19,1.362-.676,2.455-1.496,3.307L.228,21.364c-.351.427-.29,1.057.137,1.408.186.153.411.228.635.228.289,0,.575-.124.772-.364l1.346-1.636h5.764l1.224,2.447c.175.351.528.553.896.553.15,0,.303-.034.446-.105.494-.247.694-.848.447-1.342l-.809-1.617c.854-.095,1.683-.292,2.474-.58l1.546,3.092c.175.351.528.553.896.553.15,0,.303-.034.446-.105.494-.247.694-.848.447-1.342l-1.524-3.048c3.332-1.951,5.63-5.601,5.63-9.676,0,0,.002-2.795.005-2.828h2.253c.455,0,.817-.417.728-.863Zm-10.987,2.851v.574c0,2.873-2.182,5.233-4.935,5.425l4.935-5.999Zm6.551-3.611c-.361.499-.551,1.095-.551,1.723v2.728c0,4.972-4.156,9.172-9.076,9.172h-5.161l1.73-2.102c.397.068.803.102,1.209.102,4.024,0,7.298-3.337,7.298-7.438v-3.408c.302-.696.512-1.468.63-2.313.026-.188.079-.379.158-.571.244-.596.769-1.067,1.369-1.23.701-.191,1.393-.064,1.946.359.544.416.856,1.046.856,1.729,0,.449-.141.88-.407,1.249Z"/>
</svg>
