<?xml version="1.0" encoding="UTF-8"?>
<svg xmlns="http://www.w3.org/2000/svg" id="Layer_1" data-name="Layer 1" viewBox="0 0 24 24">
  <path d="m15,16.5c0-.828.672-1.5,1.5-1.5s1.5.672,1.5,1.5-.672,1.5-1.5,1.5-1.5-.672-1.5-1.5Zm-1.5-5.5c-.828,0-1.5.672-1.5,1.5s.672,1.5,1.5,1.5,1.5-.672,1.5-1.5-.672-1.5-1.5-1.5Zm6.5,1.5c0-.828-.672-1.5-1.5-1.5s-1.5.672-1.5,1.5.672,1.5,1.5,1.5,1.5-.672,1.5-1.5ZM9.283,1.671c-.38-.397-.372-1.028.022-1.412.395-.382,1.021-.378,1.406.012.054.054.796.851,1.422,2.323.192-.295.414-.58.675-.841C13.987.575,15.602.158,16.749.016c.622-.076,1.224.132,1.664.572.44.44.648,1.047.572,1.664-.142,1.147-.559,2.761-1.737,3.94-1.668,1.668-4.229,1.809-5.044,1.809-1.203,0-1.203-.993-1.203-1,0-3.496-1.646-5.255-1.717-5.329Zm3.771,4.274c.829-.101,1.995-.385,2.778-1.168.777-.777,1.063-1.937,1.167-2.772v-.003c-.841.102-2,.389-2.777,1.166-.782.782-1.067,1.948-1.168,2.777Zm8.626-1.037c-.327-.445-.951-.542-1.398-.214-.445.327-.541.953-.214,1.398,1.263,1.722,1.931,3.765,1.931,5.908,0,5.514-4.486,10-10,10S2,17.514,2,12c0-3.559,1.916-6.878,5-8.663.479-.277.642-.888.365-1.366-.277-.479-.89-.643-1.366-.365C2.299,3.747,0,7.729,0,12c0,6.617,5.383,12,12,12s12-5.383,12-12c0-2.572-.802-5.024-2.319-7.092Z"/>
</svg>
