<?xml version="1.0" encoding="UTF-8"?>
<svg xmlns="http://www.w3.org/2000/svg" id="Layer_1" data-name="Layer 1" viewBox="0 0 24 24">
  <path d="m3,8h2c1.654,0,3-1.346,3-3v-2c0-1.654-1.346-3-3-3h-2C1.346,0,0,1.346,0,3v2c0,1.654,1.346,3,3,3Zm-1-5c0-.552.448-1,1-1h2c.552,0,1,.448,1,1v2c0,.552-.448,1-1,1h-2c-.552,0-1-.448-1-1v-2Zm6,12v-2c0-1.654-1.346-3-3-3h-2c-1.654,0-3,1.346-3,3v2c0,1.654,1.346,3,3,3h2c1.654,0,3-1.346,3-3Zm-2,0c0,.552-.448,1-1,1h-2c-.552,0-1-.448-1-1v-2c0-.552.448-1,1-1h2c.552,0,1,.448,1,1v2Zm7-7h2c1.654,0,3-1.346,3-3v-2c0-1.654-1.346-3-3-3h-2c-1.654,0-3,1.346-3,3v2c0,1.654,1.346,3,3,3Zm-1-5c0-.552.448-1,1-1h2c.552,0,1,.448,1,1v2c0,.552-.448,1-1,1h-2c-.552,0-1-.448-1-1v-2Zm1,1.5v-1c0-.276.224-.5.5-.5h1c.276,0,.5.224.5.5v1c0,.276-.224.5-.5.5h-1c-.276,0-.5-.224-.5-.5Zm10.998,18.441c.032.552-.389,1.024-.939,1.057-.021,0-.04.002-.06.002-.525,0-.966-.41-.997-.941-.069-1.185-.831-2.218-1.941-2.634l-4.38-1.478c-.407-.137-.681-.519-.681-.947v-5.893c0-.538-.362-1.018-.825-1.093-.304-.052-.595.029-.822.223-.224.19-.353.469-.353.763v8.454c0,.608-.341,1.15-.889,1.415-.549.264-1.185.193-1.66-.187,0,0-1.761-1.405-1.771-1.414-.402-.373-1.034-.354-1.41.048-.377.403-.356,1.038.046,1.416l.568.548c.648.624.206,1.72-.694,1.72-.259,0-.508-.1-.694-.28l-.558-.538c-1.196-1.12-1.26-3.022-.13-4.23,1.103-1.182,2.942-1.26,4.152-.208.008.006,1.039.82,1.039.82v-7.563c0-.882.386-1.715,1.058-2.286.672-.572,1.56-.815,2.439-.674,1.427.232,2.503,1.552,2.503,3.067v5.175l3.73,1.259c1.882.704,3.152,2.428,3.268,4.4Z"/>
</svg>
