<?xml version="1.0" encoding="UTF-8"?>
<svg xmlns="http://www.w3.org/2000/svg" id="Layer_1" data-name="Layer 1" viewBox="0 0 24 24">
  <path d="m20.293,17.879c-.566-.566-1.32-.879-2.122-.879h-2.757l.793-.793c.391-.391.391-1.023,0-1.414l-1.914-1.914c-.566-.566-1.32-.879-2.122-.879h-2.757l.793-.793c.391-.391.391-1.023,0-1.414l-1.914-1.914c-.566-.566-1.32-.879-2.122-.879h-3.171c-1.654,0-3,1.346-3,3v1c0,.771.301,1.468.78,2-.48.532-.78,1.229-.78,2v1c0,.771.301,1.468.78,2-.48.532-.78,1.229-.78,2v1c0,1.654,1.346,3,3,3h15.171c.801,0,1.555-.312,2.122-.879l1.914-1.914c.391-.391.391-1.023,0-1.414l-1.914-1.914Zm-7.414-3.586l1.207,1.207-1.207,1.207c-.189.188-.44.293-.708.293H3c-.551,0-1-.448-1-1v-1c0-.552.449-1,1-1h9.171c.267,0,.519.104.708.293ZM2,10c0-.552.449-1,1-1h3.171c.267,0,.519.104.708.293l1.207,1.207-1.207,1.207c-.189.188-.44.293-.708.293h-3.171c-.551,0-1-.448-1-1v-1Zm16.879,11.707c-.189.188-.44.293-.708.293H3c-.551,0-1-.448-1-1v-1c0-.552.449-1,1-1h15.171c.267,0,.519.104.708.293l1.207,1.207-1.207,1.207Zm4.451-14.073l-.549-.317c.129-.419.219-.856.219-1.317s-.09-.897-.219-1.317l.549-.317c.478-.276.642-.888.366-1.366-.277-.478-.888-.643-1.366-.366l-.544.314c-.604-.65-1.392-1.122-2.286-1.327v-.621c0-.553-.448-1-1-1s-1,.447-1,1v.621c-.894.204-1.682.677-2.286,1.327l-.544-.314c-.48-.276-1.09-.111-1.366.366-.276.479-.112,1.09.366,1.366l.549.317c-.129.419-.219.856-.219,1.317s.09.897.219,1.317l-.549.317c-.478.276-.642.888-.366,1.366.186.32.521.5.867.5.169,0,.341-.043.499-.134l.544-.314c.604.65,1.392,1.122,2.286,1.327v.621c0,.553.448,1,1,1s1-.447,1-1v-.621c.894-.204,1.682-.677,2.286-1.327l.544.314c.158.091.33.134.499.134.346,0,.682-.18.867-.5.276-.479.112-1.09-.366-1.366Zm-4.83.866c-1.378,0-2.5-1.121-2.5-2.5s1.122-2.5,2.5-2.5,2.5,1.121,2.5,2.5-1.122,2.5-2.5,2.5Z"/>
</svg>
