<?xml version="1.0" encoding="UTF-8"?>
<svg xmlns="http://www.w3.org/2000/svg" id="Layer_1" data-name="Layer 1" viewBox="0 0 24 24">
  <path d="m10.958,15.576c-.156.528-.706.833-1.244.673-.553-.165-1.129-.249-1.714-.249-3.309,0-6,2.691-6,6v1c0,.552-.447,1-1,1s-1-.448-1-1v-1c0-4.411,3.589-8,8-8,.778,0,1.548.112,2.286.332.529.158.83.715.672,1.244Zm13.042-1.14v3.085c0,4.032-3.973,5.942-5.126,6.406-.12.048-.247.072-.373.072-.153,0-.307-.035-.463-.113-1.123-.562-5.038-2.796-5.038-6.365v-3.085c0-1.295.826-2.439,2.055-2.848l3.131-1.038c.203-.067.426-.067.629,0l3.13,1.038c1.229.408,2.056,1.553,2.056,2.848Zm-2,0c0-.432-.275-.813-.686-.949l-2.814-.933-2.815.933c-.409.136-.685.518-.685.949v3.085c0,2.28,2.63,3.888,3.545,4.379,1.031-.454,3.455-1.796,3.455-4.379v-3.085ZM14,6c0,3.309-2.691,6-6,6s-6-2.691-6-6S4.691,0,8,0s6,2.691,6,6Zm-2,0c0-2.206-1.794-4-4-4s-4,1.794-4,4,1.794,4,4,4,4-1.794,4-4Z"/>
</svg>
