<?xml version="1.0" encoding="UTF-8"?>
<svg xmlns="http://www.w3.org/2000/svg" id="Layer_1" data-name="Layer 1" viewBox="0 0 24 24">
  <path d="m20.124,23.992c-.614.046-1.053-.362-1.116-.868-.258-2.067-1.192-4.175-2.271-5.123l-3.976,4.648c-.381.445-1.141.445-1.521,0l-4.02-4.705c-1.035,1.005-1.97,3.112-2.228,5.18-.069.548-.567.936-1.116.868-.548-.068-.937-.568-.868-1.116.245-1.968,1.162-4.818,2.936-6.377.795-.697,1.999-.655,2.744.089l3.313,3.873,3.259-3.815c.8-.804,2.006-.845,2.798-.146,1.773,1.559,2.69,4.409,2.936,6.377.068.548-.318,1.075-.868,1.116ZM4,3.65c0-.976.648-1.834,1.587-2.101L10.302.209c1.115-.279,2.281-.279,3.396,0l4.715,1.34c.939.267,1.587,1.125,1.587,2.101,0,.827-.467,1.584-1.207,1.954l-.793.396v2c0,3.309-2.691,6-6,6s-6-2.691-6-6v-2l-.793-.396c-.74-.37-1.207-1.126-1.207-1.954Zm12,3.965c-.976.206-2.309.385-4,.385s-3.024-.179-4-.385v.385c0,2.206,1.794,4,4,4s4-1.794,4-4v-.385Zm-6-3.55c0,1.331,1.552,2.211,2.001,2.435.447-.18,1.999-.922,1.999-2.435v-1.45c0-.191-.122-.36-.304-.421l-1.696-.562-1.696.562c-.182.06-.304.229-.304.421v1.45Z"/>
</svg>
