<?xml version="1.0" encoding="UTF-8"?>
<svg xmlns="http://www.w3.org/2000/svg" id="Layer_1" data-name="Layer 1" viewBox="0 0 24 24">
  <path d="m24,8.5C24,3.813,20.187,0,15.5,0c-4.188,0-7.726,3.069-8.388,7.124C3.084,7.79,0,11.287,0,15.5c0,4.687,3.813,8.5,8.5,8.5,4.216,0,7.715-3.088,8.378-7.119,4.076-.667,7.122-4.222,7.122-8.381Zm-15.5,13.5c-3.584,0-6.5-2.916-6.5-6.5s2.916-6.5,6.5-6.5,6.5,2.916,6.5,6.5-2.916,6.5-6.5,6.5Zm8.465-7.194c-.337-4.14-3.649-7.445-7.791-7.772.669-2.892,3.268-5.034,6.327-5.034,3.584,0,6.5,2.916,6.5,6.5,0,3.037-2.131,5.631-5.035,6.306Zm2.035-8.806c0,.552-.448,1-1,1h-1v1c0,.552-.448,1-1,1s-1-.448-1-1v-1h-1c-.552,0-1-.448-1-1s.448-1,1-1h1v-1c0-.552.448-1,1-1s1,.448,1,1v1h1c.552,0,1,.448,1,1Zm-7,7c0,.552-.448,1-1,1h-1v1c0,.552-.448,1-1,1s-1-.448-1-1v-1h-1c-.552,0-1-.448-1-1s.448-1,1-1h1v-1c0-.552.448-1,1-1s1,.448,1,1v1h1c.552,0,1,.448,1,1Z"/>
</svg>
