<?xml version="1.0" encoding="UTF-8"?>
<svg xmlns="http://www.w3.org/2000/svg" id="Layer_1" data-name="Layer 1" viewBox="0 0 24 24">
  <path d="m21,23c0,.552-.447,1-1,1s-1-.448-1-1c0-2.206-1.794-4-4-4h-6c-2.206,0-4,1.794-4,4,0,.552-.447,1-1,1s-1-.448-1-1c0-3.309,2.691-6,6-6h6c3.309,0,6,2.691,6,6Zm1-15.5v2c0,.827-.673,1.5-1.5,1.5h-.5c0,2.206-1.794,4-4,4h-8c-2.206,0-4-1.794-4-4h-.5c-.827,0-1.5-.673-1.5-1.5v-2c0-.827.673-1.5,1.5-1.5h.5c0-2.206,1.794-4,4-4h3v-1c0-.552.447-1,1-1s1,.448,1,1v1h3c2.206,0,4,1.794,4,4h.5c.827,0,1.5.673,1.5,1.5Zm-4-1.5c0-1.103-.897-2-2-2h-8c-1.103,0-2,.897-2,2v5c0,1.103.897,2,2,2h8c1.103,0,2-.897,2-2v-5Zm-1.293.543c-.391-.391-1.023-.391-1.414,0l-.543.543-.543-.543c-.391-.391-1.023-.391-1.414,0s-.391,1.023,0,1.414l.543.543-.543.543c-.391.391-.391,1.023,0,1.414.195.195.451.293.707.293s.512-.098.707-.293l.543-.543.543.543c.195.195.451.293.707.293s.512-.098.707-.293c.391-.391.391-1.023,0-1.414l-.543-.543.543-.543c.391-.391.391-1.023,0-1.414Zm-5.5,0c-.391-.391-1.023-.391-1.414,0l-.543.543-.543-.543c-.391-.391-1.023-.391-1.414,0s-.391,1.023,0,1.414l.543.543-.543.543c-.391.391-.391,1.023,0,1.414.195.195.451.293.707.293s.512-.098.707-.293l.543-.543.543.543c.195.195.451.293.707.293s.512-.098.707-.293c.391-.391.391-1.023,0-1.414l-.543-.543.543-.543c.391-.391.391-1.023,0-1.414Z"/>
</svg>
