<?xml version="1.0" encoding="UTF-8"?>
<svg xmlns="http://www.w3.org/2000/svg" id="Layer_1" data-name="Layer 1" viewBox="0 0 24 24">
  <path d="m12,13.998c3.231,0,6-2.912,6-6.027,0-2.819-2.505-5.108-4.334-6.779-.357-.326-.687-.626-.959-.898-.195-.195-.443-.316-.743-.292-.277.01-.538.135-.72.345-.928,1.07-1.263,2.481-1.532,3.615-.018.073-.036.151-.055.23-.05-.349-.281-.65-.615-.785-.374-.153-.81-.062-1.093.23-.586.604-1.949,2.237-1.949,4.334,0,3.115,2.769,6.027,6,6.027Zm.707-2.291c-.124.124-.271.234-.707.264s-.583-.139-.707-.264c-.39-.39-.39-1.024,0-1.414l.707-.707.707.707c.39.39.39,1.024,0,1.414Zm-4.315-5.277c.329.349.774.57,1.344.57,1.311,0,1.636-1.369,1.923-2.577.145-.61.302-1.272.55-1.854,1.554,1.42,3.792,3.464,3.792,5.401,0,1.025-.388,1.961-1.024,2.67-.077-.644-.362-1.268-.855-1.762l-1.414-1.414c-.391-.391-1.023-.391-1.414,0l-1.414,1.414c-.493.493-.778,1.117-.855,1.762-.636-.708-1.024-1.645-1.024-2.67,0-.56.169-1.088.392-1.541Zm13.608,11.742v-1.172c0-2.206-1.794-4-4-4-.553,0-1,.447-1,1s.447,1,1,1c1.103,0,2,.897,2,2v1H4v-1c0-1.103.897-2,2-2,.553,0,1-.447,1-1s-.447-1-1-1c-2.206,0-4,1.794-4,4v1.172c-1.164.413-2,1.524-2,2.828,0,1.654,1.346,3,3,3h18c1.654,0,3-1.346,3-3,0-1.304-.836-2.415-2-2.828Zm-15,3.828H3c-.552,0-1-.448-1-1s.448-1,1-1h4v2Zm4,0h-2v-2h2v2Zm4,0h-2v-2h2v2Zm6,0h-4v-2h4c.552,0,1,.448,1,1s-.448,1-1,1Z"/>
</svg>
