<?xml version="1.0" encoding="UTF-8"?>
<svg xmlns="http://www.w3.org/2000/svg" id="Layer_1" data-name="Layer 1" viewBox="0 0 24 24">
  <path d="m23.398,15.92L15.356,2.883c-.749-1.214-1.938-1.883-3.347-1.883-1.424,0-2.621.669-3.37,1.883L.597,15.92c-.771,1.25-.804,2.764-.088,4.047.71,1.273,2.001,2.033,3.454,2.033h16.07c1.452,0,2.743-.76,3.454-2.033.716-1.284.684-2.797-.088-4.047Zm-1.659,3.072c-.352.631-.99,1.008-1.707,1.008H3.963c-.717,0-1.355-.377-1.707-1.008-.358-.642-.342-1.397.043-2.022l3.974-6.442,8.002,5.455-.508.733c-.376.543.013,1.285.673,1.285h3.761c.735,0,1.214-.774.885-1.432l-1.558-3.116c-.277-.553-1.043-.612-1.4-.107l-.884,1.252-5.26-3.629.388-.999c.065-.182.2-.323.381-.398.177-.073.38-.066.556.021l.161.077c.412.205.726.557.885.991l.048.152c.05.158.153.293.291.384.55.362,1.258-.141,1.097-.779l-.074-.293c-.271-.747-.812-1.353-1.523-1.707l-.377-.188c-.504-.25-1.091-.274-1.612-.064-.521.209-.929.633-1.119,1.162l-.326.805-1.593-1.053,3.175-5.146c.382-.619.943-.933,1.668-.933.72,0,1.258.305,1.645.933l8.042,13.037c.385.625.402,1.381.043,2.022ZM13,6c0,.552-.448,1-1,1s-1-.448-1-1,.448-1,1-1,1,.448,1,1Zm-5.354,7.412l1.312.898-1.146,3.194c-.107.298-.389.497-.706.497h-.041c-.519,0-.881-.515-.706-1.003l1.286-3.585Zm2.354,1.625l1.5,1.09v1.123c0,.414-.336.75-.75.75s-.75-.336-.75-.75v-2.213Z"/>
</svg>
