<?xml version="1.0" encoding="UTF-8"?>
<svg xmlns="http://www.w3.org/2000/svg" id="Layer_1" data-name="Layer 1" viewBox="0 0 24 24">
  <path d="m6.3,13.214c-.395-.387-.401-1.02-.015-1.414.387-.395,1.021-.4,1.414-.015l3.3,3.234V1c0-.552.448-1,1-1s1,.448,1,1v14.009l3.3-3.223c.394-.386,1.027-.381,1.414.015.386.394.38,1.027-.015,1.414l-4.293,4.207c-.385.385-.894.579-1.404.579,0,0-.001,0-.002,0,0,0,0,0,0,0,0,0-.001,0-.002,0-.511-.001-1.022-.196-1.412-.586l-4.286-4.2Zm16.7,2.786h-1.5c-1.378,0-2.5,1.122-2.5,2.5v1c0,1.378-1.122,2.5-2.5,2.5H7.5c-1.378,0-2.5-1.122-2.5-2.5v-1c0-1.378-1.122-2.5-2.5-2.5h-1.5c-.552,0-1,.448-1,1s.448,1,1,1h1.5c.276,0,.5.224.5.5v1c0,2.481,2.019,4.5,4.5,4.5h9c2.481,0,4.5-2.019,4.5-4.5v-1c0-.276.224-.5.5-.5h1.5c.552,0,1-.448,1-1s-.448-1-1-1Z"/>
</svg>
