<?xml version="1.0" encoding="UTF-8"?>
<svg xmlns="http://www.w3.org/2000/svg" id="Layer_1" data-name="Layer 1" viewBox="0 0 24 24">
  <path d="m15.059,13.988c.084.009-.083,0,0,0h0Zm7.207-5.91l-.834.834c.809.982.755,2.437-.163,3.355s-2.373.973-3.355.163l-.835.835c-.473.474-1.077.722-2.019.722-.75-.074-1.42-.477-1.837-1.104l-3.077-4.615-1.68,1.68c-.944.944-1.465,2.2-1.465,3.536v8.515h4c.553,0,1,.447,1,1s-.447,1-1,1H1c-.553,0-1-.447-1-1s.447-1,1-1h4v-8.515c0-1.87.729-3.628,2.051-4.95l2.157-2.157c-.388-1.393-.193-2.877.594-4.08.75-1.146,1.894-1.926,3.219-2.197,1.321-.271,2.672-.007,3.798.743l5.065,3.378c.627.417,1.029,1.086,1.104,1.836.075.75-.188,1.486-.722,2.02Zm-1.269-1.821c-.009-.089-.049-.255-.222-.369l-5.066-3.379c-.504-.336-1.082-.51-1.674-.51-.204,0-.41.021-.614.062-.799.163-1.49.637-1.945,1.333-.646.985-.599,2.368.117,3.441l3.293,4.939c.115.174.281.214.37.223.089.011.261.002.406-.146l5.189-5.188c.147-.147.154-.318.146-.407Z"/>
</svg>
