<?xml version="1.0" encoding="UTF-8"?>
<svg xmlns="http://www.w3.org/2000/svg" id="Layer_1" data-name="Layer 1" viewBox="0 0 24 24">
  <path d="m13,11c0-.738-.405-1.376-1-1.723v-4.277c0-.552-.448-1-1-1s-1,.448-1,1v4.277c-.595.346-1,.984-1,1.723,0,1.105.895,2,2,2s2-.895,2-2Z"/>
  <path d="m18,11.998c-3.314,0-6,2.686-6,6s2.686,6,6,6,6-2.686,6-6-2.686-6-6-6Zm2.731,7.492l-1.824,2.639c-.311.45-.926.566-1.379.26-.462-.311-.58-.941-.262-1.398l1.385-1.991h-2.035c-.509,0-.994-.244-1.297-.652-.303-.409-.396-.944-.249-1.431l1.925-3.01c.305-.465.93-.593,1.393-.284.457.305.583.92.283,1.38l-1.303,1.998h2.029c.592,0,1.133.324,1.413.846s.25,1.151-.077,1.645Z"/>
  <path d="m6.71,16.607l-.934.807c-.323.278-.812.267-1.11-.029-2.005-1.986-2.95-4.744-2.591-7.566.513-4.042,3.828-7.305,7.879-7.76,5.1-.564,9.496,3.073,9.999,8.02.056.549.543.946,1.096.894.549-.056.95-.547.894-1.096C21.329,3.831,15.899-.618,9.732.071,4.774.627.719,4.621.091,9.567c-.437,3.445.718,6.812,3.168,9.239.541.536,1.257.807,1.976.807.658,0,1.319-.228,1.849-.686l.933-.807c.418-.361.464-.993.103-1.41-.362-.418-.993-.464-1.41-.103Z"/>
</svg>
