<?xml version="1.0" encoding="UTF-8"?>
<svg xmlns="http://www.w3.org/2000/svg" id="Layer_1" data-name="Layer 1" viewBox="0 0 24 24">
  <path d="m9.945,24c-2.948,0-5.472-.931-7.243-2.703C.524,19.12-.385,15.805.143,11.964c.474-3.446,2.086-6.834,4.315-9.062l1.333-1.333c1.012-1.012,2.357-1.569,3.788-1.569s2.777.558,3.789,1.569c1.022,1.022,1.567,2.162,1.621,3.387.051,1.169-.742,2.692-1.607,4.164-.452.77-.51,1.332-.17,1.67h0c.333.334.896.273,1.669-.181,1.472-.865,3.009-1.657,4.163-1.607,1.226.053,2.365.598,3.387,1.621,1.012,1.012,1.569,2.357,1.569,3.789s-.558,2.776-1.569,3.788l-1.333,1.333c-2.229,2.229-5.616,3.844-9.061,4.319-.717.099-1.416.148-2.091.148Zm-.366-21.999c-.86,0-1.72.328-2.375.982l-1.333,1.333c-1.931,1.931-3.332,4.891-3.748,7.92-.441,3.207.267,5.922,1.992,7.647,1.724,1.725,4.439,2.432,7.646,1.987,3.028-.418,5.989-1.821,7.921-3.752l1.333-1.333c1.309-1.309,1.309-3.439,0-4.749-.667-.667-1.34-1.005-2.06-1.037-.505-.025-1.521.427-3.063,1.334-1.589.933-3.082.886-4.097-.129h0c-1.02-1.02-1.071-2.514-.14-4.099.906-1.542,1.355-2.572,1.333-3.063-.031-.72-.37-1.394-1.037-2.06-.655-.654-1.515-.982-2.374-.982Z"/>
</svg>
