<?xml version="1.0" encoding="UTF-8"?>
<svg xmlns="http://www.w3.org/2000/svg" id="Layer_1" data-name="Layer 1" viewBox="0 0 24 24">
  <path d="m23.036.964c-1.194-1.194-3.355-1.284-6.089-.254-2.464.929-5.098,2.683-7.228,4.812l-4.197,4.196c-2.13,2.13-3.884,4.765-4.813,7.228-1.03,2.733-.94,4.896.254,6.09.644.644,1.567.967,2.711.967.979,0,2.118-.237,3.378-.713,2.464-.929,5.098-2.683,7.228-4.812l4.197-4.196c2.13-2.13,3.884-4.765,4.813-7.228,1.03-2.733.94-4.896-.254-6.09Zm-1.617,5.384c-.833,2.207-2.42,4.584-4.356,6.52l-4.197,4.196c-1.936,1.936-4.312,3.523-6.519,4.355-1.841.693-3.399.771-3.97.203-.571-.571-.491-2.129.203-3.97.456-1.208,1.143-2.464,1.984-3.674l2.728,2.728c.195.195.451.293.707.293s.512-.098.707-.293c.391-.391.391-1.023,0-1.414l-2.912-2.912c.365-.43.744-.85,1.142-1.248l1.391-1.391,2.965,2.965c.195.195.451.293.707.293s.512-.098.707-.293c.391-.391.391-1.023,0-1.414l-2.965-2.965,1.391-1.391c.398-.398.818-.777,1.248-1.141l2.912,2.912c.195.195.451.293.707.293s.512-.098.707-.293c.391-.391.391-1.023,0-1.414l-2.728-2.728c1.209-.841,2.466-1.529,3.673-1.984,1.023-.386,1.959-.582,2.686-.582.582,0,1.03.126,1.284.379.571.571.491,2.129-.203,3.97Z"/>
</svg>
