<?xml version="1.0" encoding="UTF-8"?>
<svg xmlns="http://www.w3.org/2000/svg" id="Layer_1" data-name="Layer 1" viewBox="0 0 24 24">
  <path d="m9,12c3.309,0,6-2.691,6-6S12.309,0,9,0,3,2.691,3,6s2.691,6,6,6Zm0-10c2.206,0,4,1.794,4,4s-1.794,4-4,4-4-1.794-4-4,1.794-4,4-4Zm14.383,18.019c-.008-.009-.015-.017-.022-.024l-3.36-3.485v-2.509c.553,0,1-.447,1-1s-.447-1-1-1h-3c-.553,0-1,.447-1,1s.447,1,1,1v2.51l-3.455,3.594c-.592.719-.712,1.688-.314,2.53.398.843,1.225,1.366,2.156,1.366h6.227c.956,0,1.791-.543,2.179-1.416.388-.874.231-1.856-.409-2.565Zm-1.419,1.753c-.037.086-.134.229-.351.229h-6.227c-.212,0-.309-.138-.348-.22-.038-.082-.083-.244,0-.349l3.462-3.598,3.406,3.534c.136.157.095.32.058.403Zm-8.576-5.352c-.156-.12-.317-.235-.483-.343-.118-.077-.283-.048-.376.063l-2.743,3.479c-.379.48-1.191.48-1.57,0l-2.76-3.499c-.077-.09-.241-.118-.36-.044-.277.183-.543.382-.786.592-1.467,1.271-2.309,3.247-2.309,5.423v.909c0,.553-.447,1-1,1s-1-.447-1-1v-.909c0-2.757,1.094-5.284,3-6.935.311-.27.647-.522,1.002-.755.972-.63,2.261-.432,3.006.458l1.992,2.525,1.975-2.504c.761-.912,2.054-1.111,3.02-.48.213.138.419.284.618.439.437.338.517.966.178,1.402-.336.438-.966.519-1.402.178Z"/>
</svg>
