<?xml version="1.0" encoding="UTF-8"?>
<svg xmlns="http://www.w3.org/2000/svg" id="Layer_1" data-name="Layer 1" viewBox="0 0 24 24">
  <path d="m21,0h-2c-1.654,0-3,1.346-3,3v8.785c0,2.16-1.583,4.003-3.604,4.196-1.147.106-2.242-.253-3.086-1.021-.833-.757-1.31-1.836-1.31-2.96V3c0-1.654-1.346-3-3-3h-2C1.346,0,0,1.346,0,3v8.637c0,6.698,5.5,12.365,12.002,12.365,3.165,0,6.143-1.216,8.405-3.437,2.316-2.275,3.593-5.316,3.593-8.563V3c0-1.654-1.346-3-3-3ZM2,3c0-.551.449-1,1-1h2c.551,0,1,.449,1,1v2H2v-2Zm20,9.002c0,2.706-1.063,5.24-2.994,7.136-1.931,1.896-4.466,2.928-7.194,2.862-5.41-.099-9.812-4.748-9.812-10.363v-4.637h4v5c0,1.687.716,3.305,1.965,4.44,1.248,1.134,2.928,1.689,4.622,1.532,3.036-.29,5.414-3.007,5.414-6.187v-4.785h4v5.002Zm0-7.002h-4v-2c0-.551.448-1,1-1h2c.552,0,1,.449,1,1v2Z"/>
</svg>
