<?xml version="1.0" encoding="UTF-8"?>
<svg xmlns="http://www.w3.org/2000/svg" id="Layer_1" data-name="Layer 1" viewBox="0 0 24 24">
  <path d="m23.938,17.305l-1.972-11.174c-.422-2.394-2.493-4.131-4.924-4.131H6.958c-3.458,0-4.664,2.655-4.924,4.131L.062,17.305c-.206,1.167.113,2.357.875,3.267.762.908,1.879,1.429,3.064,1.429h.999c.552,0,1-.447,1-1s-.448-1-1-1h-.999c-.593,0-1.151-.261-1.532-.715-.381-.454-.541-1.049-.438-1.633l1.972-11.174c.062-.354.185-.684.355-.979l2.339,12.426c.445,2.361,2.511,4.075,4.914,4.075h8.387c1.186,0,2.303-.521,3.064-1.429.762-.909,1.081-2.1.875-3.267Zm-2.407,1.98c-.381.454-.939.715-1.532.715h-8.387c-1.441,0-2.681-1.028-2.948-2.444l-2.531-13.441c.263-.075.54-.114.824-.114h10.085c1.458,0,2.701,1.042,2.954,2.479l1.972,11.174c.103.584-.056,1.179-.438,1.633Zm-11.531-10.285c-.552,0-1-.448-1-1s.448-1,1-1h7c.552,0,1,.448,1,1s-.448,1-1,1h-7Zm.731,4c-.552,0-1-.448-1-1s.448-1,1-1h7c.552,0,1,.448,1,1s-.448,1-1,1h-7Zm8.769,3c0,.553-.448,1-1,1h-7c-.552,0-1-.447-1-1s.448-1,1-1h7c.552,0,1,.447,1,1Z"/>
</svg>
