<?xml version="1.0" encoding="UTF-8"?>
<svg xmlns="http://www.w3.org/2000/svg" id="Layer_1" data-name="Layer 1" viewBox="0 0 24 24">
  <path d="m23.849,9.68c-.104-.759-1.015-1.087-1.587-.578l-1.418,1.261c-.773-4.182-4.441-7.362-8.843-7.362S3.93,6.179,3.157,10.362l-1.417-1.26c-.573-.509-1.484-.18-1.587.579C.068,10.303,0,11.085,0,12s.067,1.697.152,2.319c.103.759,1.014,1.088,1.587.579l1.418-1.26c.773,4.182,4.441,7.361,8.843,7.361s8.07-3.18,8.843-7.362l1.418,1.261c.572.509,1.483.18,1.587-.578.085-.623.152-1.404.152-2.32s-.067-1.697-.152-2.32Zm-18.849,2.32c0-3.859,3.141-7,7-7,.776,0,1.521.132,2.22.367L5.367,14.22c-.234-.698-.367-1.443-.367-2.219h0s0-.001,0-.001Zm1.329,4.087l9.758-9.758c.61.441,1.145.976,1.586,1.586l-9.758,9.758c-.61-.441-1.145-.976-1.586-1.586Zm5.671,2.914c-.776,0-1.52-.132-2.219-.366l8.852-8.852c.234.698.366,1.443.366,2.219,0,3.859-3.141,7-7,7Z"/>
</svg>
