<?xml version="1.0" encoding="UTF-8"?>
<svg xmlns="http://www.w3.org/2000/svg" id="Layer_1" data-name="Layer 1" viewBox="0 0 24 24">
  <path d="m19,2h-1v-1c0-.552-.447-1-1-1s-1,.448-1,1v1h-8v-1c0-.552-.447-1-1-1s-1,.448-1,1v1h-1C2.243,2,0,4.243,0,7v12c0,2.757,2.243,5,5,5h2c.553,0,1-.447,1-1s-.447-1-1-1h-2c-1.654,0-3-1.346-3-3v-9h20v3c0,.553.447,1,1,1s1-.447,1-1v-6c0-2.757-2.243-5-5-5Zm3,6H2v-1c0-1.654,1.346-3,3-3h14c1.654,0,3,1.346,3,3v1Zm-2.662,8.77v4.931c0,1.348-1.164,2.427-2.539,2.288-1.197-.122-2.06-1.22-2.06-2.422v-4.796c0-.442.358-.8.8-.8s.8.358.8.8v4.931c0,.386.314.7.7.7s.7-.314.7-.7v-4.931c0-.442.358-.8.8-.8s.8.358.8.8Zm-5.581,0c0,.442-.358.8-.8.8h-.951v5.601c0,.442-.358.8-.8.8s-.8-.358-.8-.8v-5.601h-.85c-.442,0-.8-.358-.8-.8s.358-.8.8-.8h3.4c.442,0,.8.358.8.8Zm8.343.8v1.65h1.101c.442,0,.8.358.8.8s-.358.8-.8.8h-1.101v1.551h1.101c.442,0,.8.358.8.8s-.358.8-.8.8h-1.9c-.442,0-.8-.358-.8-.8v-6.4c0-.442.358-.8.8-.8h1.9c.442,0,.8.358.8.8s-.358.8-.8.8h-1.101Z"/>
</svg>
