<?xml version="1.0" encoding="UTF-8"?>
<svg xmlns="http://www.w3.org/2000/svg" id="Layer_1" data-name="Layer 1" viewBox="0 0 24 24">
  <path d="m23,19V5c.552,0,1-.448,1-1s-.448-1-1-1H1c-.552,0-1,.448-1,1s.448,1,1,1v14c-.552,0-1,.448-1,1s.448,1,1,1h22c.552,0,1-.448,1-1s-.448-1-1-1ZM3,5h18v14H3V5Zm15,3v8c0,.552-.448,1-1,1s-1-.448-1-1v-8c0-.552.448-1,1-1s1,.448,1,1Zm-5,0v8c0,.552-.448,1-1,1s-1-.448-1-1v-8c0-.552.448-1,1-1s1,.448,1,1Zm-5,0v8c0,.552-.448,1-1,1s-1-.448-1-1v-8c0-.552.448-1,1-1s1,.448,1,1Z"/>
</svg>
