<?xml version="1.0" encoding="UTF-8"?>
<svg xmlns="http://www.w3.org/2000/svg" id="Layer_1" data-name="Layer 1" viewBox="0 0 24 24">
  <path d="m17,7c.552,0,1,.672,1,1.5s-.448,1.5-1,1.5-1-.672-1-1.5.448-1.5,1-1.5Zm-9.5,0h-1c-.553,0-1,.448-1,1s.447,1,1,1h1c.553,0,1-.448,1-1s-.447-1-1-1Zm16.5,14.346c0,1.463-1.19,2.654-2.653,2.654h-8.347c-2.757,0-5-2.243-5-5v-2h-3c-2.804,0-5-3.733-5-8.5S2.196,0,5,0h12c2.804,0,5,3.733,5,8.5,0,0-.005,8.882-.01,9.065-.028,1.121.042,1.203.269,1.293,1.058.423,1.741,1.399,1.741,2.488ZM17,2c-1.419,0-3,2.669-3,6.5s1.581,6.5,3,6.5,3-2.669,3-6.5-1.581-6.5-3-6.5ZM5,15h8.745c-1.005-1.449-1.657-3.573-1.736-6h-1.008c-.553,0-1-.448-1-1s.447-1,1-1h1.075c.202-2.008.806-3.754,1.67-5H5c-1.225,0-2.571,1.99-2.916,5h.916c.553,0,1,.448,1,1s-.447,1-1,1h-.991c.13,3.561,1.634,6,2.991,6Zm17,6.346c0-.322-.25-.537-.483-.63-1.592-.636-1.554-2.119-1.525-3.202.004-.167.009-2.17.009-2.17-.83,1.044-1.865,1.655-3,1.655h-7v2c0,1.654,1.346,3,3,3h8.347c.36,0,.653-.293.653-.654Z"/>
</svg>
