<?xml version="1.0" encoding="UTF-8"?>
<svg xmlns="http://www.w3.org/2000/svg" id="Layer_1" data-name="Layer 1" viewBox="0 0 24 24">
  <path d="m23.707,22.293l-5.963-5.963c1.412-1.725,2.262-3.927,2.262-6.324C20.006,4.492,15.52.006,10.006.006S.006,4.492.006,10.006s4.486,10,10,10c2.398,0,4.6-.85,6.324-2.262l5.963,5.963c.195.195.451.293.707.293s.512-.098.707-.293c.391-.391.391-1.023,0-1.414ZM2.006,10.006C2.006,5.595,5.595,2.006,10.006,2.006s8,3.589,8,8-3.589,8-8,8S2.006,14.417,2.006,10.006Zm12.764-2.299l-.543.543.543.543c.391.391.391,1.023,0,1.414-.195.195-.451.293-.707.293s-.512-.098-.707-.293l-.543-.543-.543.543c-.195.195-.451.293-.707.293s-.512-.098-.707-.293c-.391-.391-.391-1.023,0-1.414l.543-.543-.543-.543c-.391-.391-.391-1.023,0-1.414s1.023-.391,1.414,0l.543.543.543-.543c.391-.391,1.023-.391,1.414,0s.391,1.023,0,1.414Zm-8.125,2.5c-.195.195-.451.293-.707.293s-.512-.098-.707-.293c-.391-.391-.391-1.023,0-1.414l.543-.543-.543-.543c-.391-.391-.391-1.023,0-1.414s1.023-.391,1.414,0l.543.543.543-.543c.391-.391,1.023-.391,1.414,0s.391,1.023,0,1.414l-.543.543.543.543c.391.391.391,1.023,0,1.414-.195.195-.451.293-.707.293s-.512-.098-.707-.293l-.543-.543-.543.543Zm6.776,3.776c-.165.373-.531.595-.915.595-.136,0-.273-.028-.405-.086-1.489-.661-2.713-.661-4.202,0-.505.223-1.096-.004-1.32-.508-.224-.505.003-1.096.508-1.32,1.983-.88,3.842-.88,5.825,0,.504.224.732.815.508,1.32Z"/>
</svg>
