<?xml version="1.0" encoding="UTF-8"?>
<svg xmlns="http://www.w3.org/2000/svg" id="Layer_1" data-name="Layer 1" viewBox="0 0 24 24">
  <path d="m24,12c0,.553-.447,1-1,1h-1v1c0,.553-.447,1-1,1s-1-.447-1-1v-1h-1c-.553,0-1-.447-1-1s.447-1,1-1h1v-1c0-.553.447-1,1-1s1,.447,1,1v1h1c.553,0,1,.447,1,1Zm-10,3h-2c-.553,0-1,.447-1,1s.447,1,1,1h2c1.654,0,3-1.346,3-3,0-.911-.416-1.718-1.059-2.268.349-.49.559-1.086.559-1.732,0-1.654-1.346-3-3-3h-1.5c-.553,0-1,.447-1,1s.447,1,1,1h1.5c.552,0,1,.448,1,1s-.448,1-1,1h-.5c-.553,0-1,.447-1,1s.447,1,1,1h1c.552,0,1,.448,1,1s-.448,1-1,1Zm-6,2c.553,0,1-.447,1-1v-7.693c0-.542-.326-1.019-.83-1.216-.503-.198-1.066-.068-1.439.334l-1.732,1.901c-.372.408-.343,1.041.065,1.413.41.373,1.042.342,1.413-.065l.523-.575v5.901c0,.553.447,1,1,1Zm13.767.162c-.462-.301-1.082-.171-1.384.292-1.855,2.847-4.989,4.546-8.383,4.546-5.514,0-10-4.486-10-10S6.486,2,12,2c3.394,0,6.527,1.699,8.383,4.546.301.463.923.593,1.384.292.463-.302.594-.921.292-1.384C19.832,2.039,16.072,0,12,0,5.383,0,0,5.383,0,12s5.383,12,12,12c4.071,0,7.832-2.039,10.059-5.454.302-.462.171-1.082-.292-1.384Z"/>
</svg>
