<?xml version="1.0" encoding="UTF-8"?>
<svg xmlns="http://www.w3.org/2000/svg" id="Layer_1" data-name="Layer 1" viewBox="0 0 24 24">
  <path d="m.256,1.668C-.113,1.257-.079.625.332.256.742-.113,1.374-.081,1.744.332l4.474,4.985c1.149,1.286,1.782,2.942,1.782,4.666v6.047l1.307-1.25c.399-.383,1.032-.371,1.414.028.383.398.37,1.031-.027,1.414l-2.301,2.212c-.38.378-.883.569-1.388.569-.51,0-1.021-.193-1.41-.582l-2.288-2.199c-.397-.383-.41-1.016-.027-1.414.383-.399,1.015-.411,1.414-.028l1.307,1.256v-6.053c0-1.231-.451-2.414-1.271-3.331L.256,1.668Zm22.744,10.332c-.553,0-1,.448-1,1v6c0,1.654-1.346,3-3,3H5c-1.654,0-3-1.346-3-3v-6c0-.552-.447-1-1-1s-1,.448-1,1v6c0,2.757,2.243,5,5,5h14c2.757,0,5-2.243,5-5v-6c0-.552-.447-1-1-1Zm-7.405,6.42c.389.388.9.582,1.41.582.505,0,1.008-.19,1.388-.569l2.301-2.212c.397-.383.41-1.016.027-1.414-.383-.399-1.015-.411-1.414-.028l-1.307,1.25v-6.047c0-1.231.451-2.414,1.271-3.33l4.474-4.985c.369-.411.335-1.043-.076-1.412-.41-.368-1.042-.336-1.412.076l-4.475,4.986c-1.148,1.284-1.781,2.94-1.781,4.664v6.053l-1.307-1.256c-.399-.383-1.031-.371-1.414.028-.383.398-.37,1.031.027,1.414l2.288,2.199Z"/>
</svg>
