<?xml version="1.0" encoding="UTF-8"?>
<svg xmlns="http://www.w3.org/2000/svg" id="Layer_1" data-name="Layer 1" viewBox="0 0 24 24">
  <path d="m16,19c0,1.654-1.346,3-3,3v1c0,.552-.447,1-1,1s-1-.448-1-1v-1h-.268c-1.067,0-2.063-.574-2.598-1.499-.277-.478-.113-1.089.364-1.366.479-.278,1.09-.113,1.366.365.179.308.511.5.867.5h2.268c.552,0,1-.448,1-1,0-.378-.271-.698-.644-.76l-3.041-.507c-1.342-.223-2.315-1.373-2.315-2.733,0-1.654,1.346-3,3-3v-1c0-.552.447-1,1-1s1,.448,1,1v1h.268c1.067,0,2.063.574,2.598,1.499.277.478.113,1.089-.364,1.366-.48.276-1.091.112-1.366-.365-.179-.308-.511-.5-.867-.5h-2.268c-.552,0-1,.448-1,1,0,.378.271.698.644.76l3.041.507c1.342.223,2.315,1.373,2.315,2.733Zm7.707-8.121l-2.293-2.293c-.779-.78-2.049-.78-2.828,0l-2.293,2.293c-.391.391-.391,1.023,0,1.414s1.023.391,1.414,0l1.293-1.293v12c0,.552.447,1,1,1s1-.448,1-1v-12l1.293,1.293c.195.195.451.293.707.293s.512-.098.707-.293c.391-.391.391-1.023,0-1.414Zm-14-6.586l1.293-1.293v4c0,.552.447,1,1,1s1-.448,1-1V3l1.293,1.293c.195.195.451.293.707.293s.512-.098.707-.293c.391-.391.391-1.023,0-1.414l-2.293-2.293c-.779-.78-2.049-.78-2.828,0l-2.293,2.293c-.391.391-.391,1.023,0,1.414s1.023.391,1.414,0Zm-2,3.586l-2.293-2.293c-.779-.78-2.049-.78-2.828,0L.293,7.879c-.391.391-.391,1.023,0,1.414s1.023.391,1.414,0l1.293-1.293v15c0,.552.447,1,1,1s1-.448,1-1v-15l1.293,1.293c.195.195.451.293.707.293s.512-.098.707-.293c.391-.391.391-1.023,0-1.414Z"/>
</svg>
