<?xml version="1.0" encoding="UTF-8"?>
<svg xmlns="http://www.w3.org/2000/svg" id="Layer_1" data-name="Layer 1" viewBox="0 0 24 24">
  <path d="m17.5,0H6.5C4.019,0,2,2.019,2,4.5v18.5c0,.553.448,1,1,1s1-.447,1-1v-3h16v3c0,.553.448,1,1,1s1-.447,1-1V4.5c0-2.481-2.019-4.5-4.5-4.5ZM4,12v-4h7v1c0,.552.448,1,1,1s1-.448,1-1v-1h7v4H4ZM6.5,2h4.5v1c0,.552.448,1,1,1s1-.448,1-1v-1h4.5c1.378,0,2.5,1.122,2.5,2.5v1.5H4v-1.5c0-1.378,1.122-2.5,2.5-2.5Zm-2.5,16v-4h7v1c0,.553.448,1,1,1s1-.447,1-1v-1h7v4H4Z"/>
</svg>
