<?xml version="1.0" encoding="UTF-8"?>
<svg xmlns="http://www.w3.org/2000/svg" id="Layer_1" data-name="Layer 1" viewBox="0 0 24 24">
  <path d="m18.574,2.126L12.315.051c-.205-.067-.425-.067-.63,0l-6.258,2.075c-2.05.679-3.427,2.586-3.427,4.746v5.171c0,6.563,7.005,10.577,9.153,11.651l.403.201c.14.07.293.105.447.105.126,0,.253-.024.373-.072l.417-.168c2.16-.869,9.207-4.282,9.207-11.717v-5.171c0-2.16-1.377-4.067-3.426-4.746Zm1.426,9.917c0,6.181-6.087,9.111-7.953,9.861-1.888-.944-8.047-4.445-8.047-9.861v-5.171c0-1.296.826-2.44,2.056-2.848l5.944-1.971,5.944,1.971c1.229.408,2.056,1.552,2.056,2.848v5.171Z"/>
  <path d="m17,9h-4v-4c0-.552-.448-1-1-1s-1,.448-1,1v4h-4c-.552,0-1,.448-1,1s.448,1,1,1h4v7.5c0,.552.448,1,1,1s1-.448,1-1v-7.5h4c.552,0,1-.448,1-1s-.448-1-1-1Z"/>
</svg>
