<?xml version="1.0" encoding="UTF-8"?>
<svg xmlns="http://www.w3.org/2000/svg" id="Layer_1" data-name="Layer 1" viewBox="0 0 24 24">
  <path d="m8.405,13.562l-.314,3.659c-.031.44-.337.779-.706.779-.244,0-.471-.151-.601-.4l-.831-1.6-.831,1.6c-.129.249-.356.4-.601.4-.368,0-.675-.339-.706-.779l-.314-3.659c-.026-.302.212-.562.515-.562.27,0,.494.207.516.477l.212,2.681.75-1.443c.193-.372.725-.372.918,0l.75,1.443.21-2.681c.021-.269.246-.477.516-.477h.002c.303,0,.541.26.515.562Zm5.485-.562h-.481l-.247,3.158-.75-1.443c-.193-.372-.725-.372-.918,0l-.75,1.443-.212-2.681c-.021-.269-.246-.477-.516-.477-.303,0-.541.26-.515.562l.314,3.659c.031.44.337.779.706.779.244,0,.471-.151.601-.4l.831-1.6.831,1.6c.129.249.356.4.601.4.368,0,.675-.339.706-.779l.314-3.659c.026-.302-.212-.562-.515-.562Zm6,0h-.002c-.27,0-.495.208-.516.477l-.21,2.681-.75-1.443c-.193-.372-.725-.372-.918,0l-.75,1.443-.212-2.681c-.021-.269-.246-.477-.516-.477-.303,0-.541.26-.515.562l.314,3.659c.031.44.337.779.706.779.244,0,.471-.151.601-.4l.831-1.6.831,1.6c.129.249.356.4.601.4.368,0,.675-.339.706-.779l.314-3.659c.026-.302-.212-.562-.515-.562ZM4.5,7c.828,0,1.5-.672,1.5-1.5s-.672-1.5-1.5-1.5-1.5.672-1.5,1.5.672,1.5,1.5,1.5Zm4,0c.828,0,1.5-.672,1.5-1.5s-.672-1.5-1.5-1.5-1.5.672-1.5,1.5.672,1.5,1.5,1.5Zm15.5-1v12c0,2.757-2.243,5-5,5H5c-2.757,0-5-2.243-5-5V6C0,3.243,2.243,1,5,1h14c2.757,0,5,2.243,5,5Zm-22,0v2h20v-2c0-1.654-1.346-3-3-3H5c-1.654,0-3,1.346-3,3Zm20,12v-8H2v8c0,1.654,1.346,3,3,3h14c1.654,0,3-1.346,3-3Z"/>
</svg>
