<?xml version="1.0" encoding="UTF-8"?>
<svg xmlns="http://www.w3.org/2000/svg" id="Layer_1" data-name="Layer 1" viewBox="0 0 24 24">
  <path d="m8.293,7.813c.391-.391,1.023-.391,1.414,0l1.293,1.293V3.732c-.598-.346-1-.992-1-1.732,0-1.105.895-2,2-2s2,.895,2,2c0,.74-.402,1.386-1,1.732v5.375l1.316-1.316c.391-.391,1.023-.391,1.414,0s.391,1.023,0,1.414l-2.135,2.135c-.422.423-1.115.661-1.596.661s-1.174-.238-1.596-.661l-2.111-2.111c-.391-.391-.391-1.023,0-1.414Zm14.707,5.187c0,6.065-4.935,11-11,11S1,19.065,1,13c0-4.178,2.318-7.942,6.05-9.825.493-.25,1.094-.052,1.343.442.249.493.051,1.094-.442,1.343-3.054,1.541-4.95,4.622-4.95,8.04,0,.687.078,1.357.224,2h3.932c-.099-.647-.156-1.315-.156-2,0-.553.447-1,1-1s1,.447,1,1c0,.685.068,1.354.186,2h5.629c.117-.646.186-1.315.186-2,0-.553.447-1,1-1s1,.447,1,1c0,.685-.057,1.353-.156,2h3.932c.147-.643.224-1.313.224-2,0-3.478-1.944-6.581-5.073-8.101-.497-.241-.704-.839-.463-1.336.24-.497.84-.705,1.336-.463,3.767,1.828,6.2,5.714,6.2,9.899Zm-13.283,4c.655,1.885,1.619,3.434,2.283,4.368.664-.934,1.628-2.483,2.283-4.368h-4.566Zm.108,4.734c-.754-1.171-1.639-2.808-2.214-4.734h-3.671c1.161,2.331,3.305,4.091,5.885,4.734Zm10.236-4.734h-3.671c-.576,1.925-1.46,3.563-2.214,4.734,2.58-.643,4.724-2.402,5.885-4.734Z"/>
</svg>
