<?xml version="1.0" encoding="UTF-8"?>
<svg xmlns="http://www.w3.org/2000/svg" id="Layer_1" data-name="Layer 1" viewBox="0 0 24 24">
  <path d="m8,12c3.309,0,6-2.691,6-6S11.309,0,8,0,2,2.691,2,6s2.691,6,6,6Zm0-10c2.206,0,4,1.794,4,4s-1.794,4-4,4-4-1.794-4-4,1.794-4,4-4Zm2,13c0,.552-.448,1-1,1-3.86,0-7,3.14-7,7,0,.552-.448,1-1,1s-1-.448-1-1c0-4.962,4.038-9,9-9,.552,0,1,.448,1,1Zm13.644,2.752l-2.366,1.927.979,2.98c.134.403-.002.847-.339,1.106-.337.259-.801.277-1.156.046l-2.754-1.793-2.708,1.812c-.168.113-.362.169-.556.169-.211,0-.422-.067-.6-.2-.34-.254-.481-.696-.354-1.101l.941-3.016-2.377-1.934c-.32-.271-.437-.713-.292-1.107.145-.394.519-.655.938-.655h3.001l1.062-2.98c.146-.391.52-.651.937-.651s.792.26.937.651l1.062,2.98h3.001c.42,0,.795.263.939.657s.026.837-.295,1.108Z"/>
</svg>
