<?xml version="1.0" encoding="UTF-8"?>
<svg xmlns="http://www.w3.org/2000/svg" id="Layer_1" data-name="Layer 1" viewBox="0 0 24 24">
  <path d="m8,3c0-.552.447-1,1-1h14c.553,0,1,.448,1,1s-.447,1-1,1h-14c-.553,0-1-.448-1-1Zm15.749,6.662l-2.981-2.981c-.942-.943-2.589-.944-3.535,0l-2.939,2.939c-.391.391-.391,1.023,0,1.414s1.023.391,1.414,0l2.293-2.293v14.207c0,.552.447,1,1,1s1-.448,1-1v-14.207l2.335,2.335c.195.195.451.293.707.293s.512-.098.707-.293c.391-.391.391-1.024,0-1.414Zm-14.749,3.338h3c.553,0,1-.448,1-1s-.447-1-1-1h-3c-.553,0-1,.448-1,1s.447,1,1,1ZM6,2.5v1.004c0,1.378-1.121,2.5-2.5,2.5h-1c-1.379,0-2.5-1.122-2.5-2.5v-1.004C0,1.121,1.121,0,2.5,0h1C4.879,0,6,1.121,6,2.5Zm-2,0c0-.276-.225-.5-.5-.5h-1c-.275,0-.5.224-.5.5v1.004c0,.276.225.5.5.5h1c.275,0,.5-.224.5-.5v-1.004Zm2,9v1.004c0,1.378-1.121,2.5-2.5,2.5h-1c-1.379,0-2.5-1.122-2.5-2.5v-1.004c0-1.378,1.121-2.5,2.5-2.5h1c1.379,0,2.5,1.122,2.5,2.5Zm-2,0c0-.276-.225-.5-.5-.5h-1c-.275,0-.5.224-.5.5v1.004c0,.276.225.5.5.5h1c.275,0,.5-.224.5-.5v-1.004Zm10,8.5h-5c-.553,0-1,.448-1,1s.447,1,1,1h5c.553,0,1-.448,1-1s-.447-1-1-1Zm-8,.5v1.004c0,1.378-1.121,2.5-2.5,2.5h-1c-1.379,0-2.5-1.122-2.5-2.5v-1.004c0-1.378,1.121-2.5,2.5-2.5h1c1.379,0,2.5,1.122,2.5,2.5Zm-2,0c0-.276-.225-.5-.5-.5h-1c-.275,0-.5.224-.5.5v1.004c0,.276.225.5.5.5h1c.275,0,.5-.224.5-.5v-1.004Z"/>
</svg>
