<?xml version="1.0" encoding="UTF-8"?>
<svg xmlns="http://www.w3.org/2000/svg" id="Layer_1" data-name="Layer 1" viewBox="0 0 24 24">
  <path d="m16.501,7.205c-.479-.277-1.09-.114-1.367.365-.276.479-.113,1.09.365,1.367,2.16,1.249,3.501,3.573,3.501,6.064,0,1.57-.52,3.021-1.396,4.19l-4.604-4.604V3l1.293,1.293c.195.195.451.293.707.293s.512-.098.707-.293c.391-.391.391-1.023,0-1.414l-2.293-2.293c-.779-.78-2.049-.78-2.828,0l-2.293,2.293c-.391.391-.391,1.023,0,1.414s1.023.391,1.414,0l1.293-1.293v3.056c-4.494.499-8,4.32-8,8.944,0,4.963,4.038,9,9,9s9-4.037,9-9c0-3.203-1.724-6.19-4.499-7.795Zm-11.501,7.795c0-3.52,2.612-6.442,6-6.928v6.514c0,.526.213,1.042.586,1.414l4.604,4.604c-1.169.876-2.62,1.396-4.19,1.396-3.86,0-7-3.141-7-7Z"/>
</svg>
