<?xml version="1.0" encoding="UTF-8"?>
<svg xmlns="http://www.w3.org/2000/svg" id="Layer_1" data-name="Layer 1" viewBox="0 0 24 24">
  <path d="m7.752,17.084c.364.415.323,1.047-.093,1.411-.414.364-1.046.323-1.411-.093l-2.043-2.33c-.083-.095-.23-.125-.308-.063-1.138.893-1.897,1.913-1.897,3.991v3c0,.552-.448,1-1,1s-1-.448-1-1v-3c0-3.082,1.423-4.593,2.664-5.565.92-.72,2.256-.579,3.045.319l2.043,2.331Zm-3.613-10.093h0c.014,0,.027,0,0,0Zm17.168,7.421c-.926-.719-2.264-.568-3.047.34l-1.266,1.468-1.285-1.466c-.789-.898-2.125-1.039-3.045-.319-1.24.972-2.664,2.483-2.664,5.565v3c0,.552.448,1,1,1s1-.448,1-1v-3c0-2.078.759-3.098,1.897-3.991.078-.061.224-.031.308.063l2.043,2.33c.19.217.464.341.752.341h.004c.29,0,.564-.127.753-.347l2.017-2.338c.082-.095.228-.128.308-.066.997.773,1.918,1.793,1.918,4.007v3c0,.552.448,1,1,1s1-.448,1-1v-3c0-3.102-1.439-4.615-2.693-5.587Zm-11.327-3.711c.11.541-.24,1.069-.782,1.178-.393.08-.796.12-1.198.12-2.17,0-4.069-1.162-5.123-2.892-.309,1.397-.64,2.907-.9,4.104-.102.468-.516.788-.976.788-.07,0-.142-.007-.213-.023-.54-.117-.882-.65-.765-1.189.282-1.299,1.701-7.807,1.876-8.351C2.758,1.783,5.209,0,8,0c1.75,0,3.391.718,4.587,1.949,1.097-1.194,2.667-1.949,4.413-1.949,3.309,0,6,2.691,6,6s-2.691,6-6,6-6-2.691-6-6c0-.818.166-1.597.463-2.308-.273-.347-.587-.652-.941-.899-.528,1.312-1.447,2.424-2.67,3.187-1.081.674-2.469,1.011-3.713,1.011-.028,0-.014,0,0,0,.444,1.724,1.999,3.008,3.86,3.008.269,0,.539-.027.802-.08.539-.111,1.069.24,1.178.782Zm3.02-4.702c0,2.206,1.794,4,4,4s4-1.794,4-4-1.794-4-4-4-4,1.794-4,4Zm-9.158-1.042c1.031.102,2.059-.118,2.952-.675.855-.533,1.491-1.313,1.862-2.228-.216-.032-.434-.054-.656-.054-1.886,0-3.54,1.187-4.158,2.958Z"/>
</svg>
