<?xml version="1.0" encoding="UTF-8"?>
<svg xmlns="http://www.w3.org/2000/svg" id="Layer_1" data-name="Layer 1" viewBox="0 0 24 24">
  <path d="m9.5,7.5c0-1.381,1.119-2.5,2.5-2.5s2.5,1.119,2.5,2.5-1.119,2.5-2.5,2.5-2.5-1.119-2.5-2.5Zm6.5,6.5v3c0,.883-.391,1.67-1,2.22v3.78c0,.553-.447,1-1,1s-1-.447-1-1v-3h-2v3c0,.553-.448,1-1,1s-1-.447-1-1v-3.78c-.609-.549-1-1.337-1-2.22v-3c0-1.654,1.346-3,3-3h2c1.654,0,3,1.346,3,3Zm-3,4c.552,0,1-.448,1-1v-3c0-.552-.448-1-1-1h-2c-.551,0-1,.448-1,1v3c0,.552.449,1,1,1h2Zm6-13c1.381,0,2.5-1.119,2.5-2.5s-1.119-2.5-2.5-2.5-2.5,1.119-2.5,2.5,1.119,2.5,2.5,2.5Zm4.977,11.628l-.876-7.008c-.257-2.063-2.02-3.62-4.101-3.62-.962,0-1.898.338-2.639.952-.425.353-.483.983-.131,1.408.351.423.982.484,1.408.131.382-.316.865-.491,1.361-.491,1.073,0,1.983.803,2.116,1.868l.876,7.008c.036.289-.05.567-.242.786-.192.218-.459.338-.75.338h-3c-.553,0-1,.447-1,1s.447,1,1,1h2v3c0,.553.447,1,1,1s1-.447,1-1v-3.189c.474-.169.909-.441,1.249-.826.569-.646.834-1.504.728-2.357ZM5,5c1.381,0,2.5-1.119,2.5-2.5S6.381,0,5,0s-2.5,1.119-2.5,2.5,1.119,2.5,2.5,2.5Zm0,1c-2.08,0-3.843,1.557-4.101,3.62L.023,16.628c-.107.854.158,1.712.728,2.357.34.385.775.657,1.249.826v3.189c0,.553.448,1,1,1s1-.447,1-1v-3h2c.552,0,1-.447,1-1s-.448-1-1-1h-3c-.291,0-.557-.12-.75-.338-.192-.219-.279-.497-.243-.786l.876-7.008c.133-1.065,1.043-1.868,2.116-1.868.496,0,.979.175,1.361.491.426.354,1.056.295,1.408-.131.353-.425.294-1.056-.131-1.408-.74-.614-1.677-.952-2.639-.952Z"/>
</svg>
