<?xml version="1.0" encoding="UTF-8"?>
<svg xmlns="http://www.w3.org/2000/svg" id="Layer_1" data-name="Layer 1" viewBox="0 0 24 24">
  <path d="m24,23c0,.553-.448,1-1,1H5c-2.757,0-5-2.243-5-5V1C0,.447.448,0,1,0s1,.447,1,1v16.451c2.581-7.138,9.904-12.451,18-12.451h1.001l-2.218-2.277c-.385-.396-.377-1.028.019-1.414.395-.383,1.029-.379,1.414.02l3.207,3.293c.373.372.561.862.572,1.357,0,.008.004.014.004.022,0,.003-.002.005-.002.008.004.517-.19,1.037-.584,1.431l-3.25,3.25c-.195.195-.451.293-.707.293s-.512-.098-.707-.293c-.391-.391-.391-1.023,0-1.414l2.275-2.275h-1.025c-8.433,0-15.937,6.396-16.887,14.313.517.423,1.168.687,1.887.687h18c.552,0,1,.447,1,1Z"/>
</svg>
