<?xml version="1.0" encoding="UTF-8"?>
<svg xmlns="http://www.w3.org/2000/svg" id="Layer_1" data-name="Layer 1" viewBox="0 0 24 24">
  <path d="m19,0H5C2.243,0,0,2.243,0,5v15c0,2.243,1.792,4,4.08,4h1.913c.6,0,1.165-.265,1.55-.727.374-.448.53-1.03.427-1.598-.51-2.803-2.565-5.034-4.225-6.431,2.6-1.006,6.453-3.28,8.257-8.196,1.803,4.917,5.656,7.19,8.257,8.196-1.661,1.396-3.715,3.627-4.225,6.431-.103.567.053,1.149.427,1.598.385.462.95.727,1.55.727h1.913c2.288,0,4.08-1.757,4.08-4V5c0-2.757-2.243-5-5-5ZM5.992,22h-1.913c-1.166,0-2.08-.879-2.08-2v-3.592c1.469,1.147,3.55,3.156,3.992,5.592Zm-3.992-8.246V5c0-1.654,1.346-3,3-3h1.961c-.185,2.485-1.07,4.487-2.643,5.958-.404.377-.425,1.01-.048,1.413.197.211.463.317.73.317.245,0,.49-.089.683-.27,1.988-1.857,3.082-4.354,3.277-7.419h2.014c-.44,8.447-6.416,11.032-8.973,11.754ZM13.027,2h2.014c.195,3.065,1.289,5.561,3.277,7.419.193.181.438.27.683.27.267,0,.534-.106.73-.317.377-.403.356-1.036-.048-1.413-1.574-1.471-2.459-3.473-2.643-5.958h1.961c1.654,0,3,1.346,3,3v8.759c-2.558-.71-8.536-3.274-8.973-11.759Zm8.973,18c0,1.121-.914,2-2.08,2l-1.921.033c.447-2.456,2.531-4.474,4.001-5.624v3.591Z"/>
</svg>
