<?xml version="1.0" encoding="UTF-8"?>
<svg xmlns="http://www.w3.org/2000/svg" id="Layer_1" data-name="Layer 1" viewBox="0 0 24 24">
  <path d="m22.465,12.589l-3.5-2.739c-1.451-1.135-3.479-1.136-4.93,0l-3.5,2.739c-.976.763-1.536,1.911-1.536,3.15v4.261c0,2.206,1.794,4,4,4h7c2.206,0,4-1.794,4-4v-4.261c0-1.239-.56-2.387-1.535-3.15Zm-.465,7.411c0,1.103-.897,2-2,2h-7c-1.103,0-2-.897-2-2v-4.261c0-.62.28-1.193.768-1.575l3.5-2.739c.363-.284.798-.426,1.232-.426s.869.142,1.232.426l3.5,2.739c.488.382.768.956.768,1.575v4.261Zm-4-3v1c0,.552-.448,1-1,1h-1c-.552,0-1-.448-1-1v-1c0-.552.448-1,1-1h1c.552,0,1,.448,1,1Zm-11.229-2.621c-.198.239-.483.363-.771.363-.097,0-.195-.015-.289-.044l-1.502,1.507c-.195.196-.452.294-.708.294s-.511-.097-.706-.292c-.391-.39-.392-1.023-.002-1.415l1.457-1.462c-.611-.836-1.013-1.806-1.172-2.835H1c-.552,0-1-.448-1-1s.448-1,1-1h2.078c.163-1.046.576-2.01,1.176-2.829l-1.461-1.461c-.391-.391-.391-1.023,0-1.414s1.023-.391,1.414,0l1.461,1.461c.819-.6,1.784-1.014,2.83-1.176l.002-2.078c0-.552.448-.999,1-.999h0c.552,0,1,.449.999,1.001l-.002,2.076c1.029.159,1.999.561,2.834,1.172l1.462-1.457c.392-.391,1.024-.388,1.414.002.391.392.389,1.024-.002,1.415l-1.506,1.501c.114.375,0,.797-.32,1.062-.427.353-1.056.292-1.408-.134-.859-1.04-2.125-1.637-3.472-1.637-2.481,0-4.5,2.019-4.5,4.5,0,1.347.597,2.613,1.637,3.472.426.352.486.982.134,1.408Z"/>
</svg>
