<?xml version="1.0" encoding="UTF-8"?>
<svg xmlns="http://www.w3.org/2000/svg" id="Layer_1" data-name="Layer 1" viewBox="0 0 24 24">
  <path d="m23.273,17.232l-3.177-3.062c-.01-.01-.024-.013-.034-.022-.015-.128-.033-.255-.062-.382-.064-.284.072-.591.341-.765.499-.322.903-.759,1.202-1.297.285-.516.435-1.106.432-1.7.003-.604-.146-1.194-.432-1.71-.299-.538-.703-.975-1.202-1.298-.269-.173-.405-.479-.34-.765.134-.591.114-1.197-.06-1.804-.329-1.147-1.247-2.065-2.396-2.396-.604-.171-1.211-.193-1.803-.058-.282.059-.591-.072-.765-.341-.321-.499-.758-.902-1.296-1.202-1.045-.578-2.343-.579-3.389,0-.538.299-.974.703-1.295,1.201-.173.268-.479.406-.765.34-.59-.132-1.197-.113-1.804.06-1.148.329-2.066,1.247-2.394,2.394-.174.606-.194,1.214-.06,1.806.064.284-.072.591-.34.764-.499.322-.903.758-1.203,1.298-.285.515-.434,1.106-.431,1.7-.003.604.146,1.195.432,1.711.299.539.704.975,1.202,1.296.268.174.405.48.34.765-.03.132-.05.265-.064.399-.002.002-.005.003-.007.005l-3.177,3.062c-.672.647-.9,1.598-.596,2.479.304.883,1.07,1.49,1.999,1.587l.744.076.081.578c.124.893.73,1.627,1.583,1.918.254.087.514.129.771.129.608,0,1.2-.234,1.649-.675l3.721-3.606c.421.17.861.282,1.31.282.455,0,.9-.114,1.326-.289l3.725,3.61c.452.442,1.045.678,1.653.678.258,0,.518-.042.771-.129.853-.291,1.459-1.025,1.583-1.919l.08-.577.744-.076c.929-.097,1.693-.704,1.998-1.586s.076-1.833-.595-2.48Zm-17.711,4.66c-.142.139-.3.112-.379.086-.081-.027-.221-.104-.248-.301l-.188-1.354c-.063-.456-.43-.81-.888-.857l-1.523-.157c-.206-.021-.285-.164-.313-.248s-.055-.245.093-.389l2.315-2.232c.453.727,1.162,1.286,2.001,1.527.606.172,1.213.191,1.803.058.284-.061.59.072.765.341.026.04.064.07.091.109l-3.528,3.419Zm5.703-4.074c-.248-.138-.445-.318-.586-.537-.518-.802-1.397-1.271-2.307-1.271-.193,0-.388.021-.581.064-.261.061-.533.048-.811-.03-.483-.139-.885-.541-1.024-1.024-.08-.278-.09-.55-.031-.81.25-1.101-.235-2.262-1.207-2.889-.219-.141-.399-.338-.537-.585-.12-.216-.183-.469-.181-.741-.001-.263.062-.516.181-.73.138-.248.318-.445.537-.587.972-.626,1.457-1.787,1.207-2.888-.059-.26-.048-.531.032-.811.138-.482.54-.885,1.022-1.022.279-.08.553-.089.811-.032,1.098.25,2.261-.233,2.888-1.206.142-.219.339-.399.586-.536.439-.244,1.009-.243,1.447,0,.248.138.445.318.586.537.628.972,1.79,1.456,2.888,1.207.262-.059.533-.047.811.03.483.139.886.541,1.023,1.022.08.279.091.553.032.812-.251,1.101.234,2.262,1.206,2.888.219.142.399.339.536.586.12.217.183.47.182.741,0,.262-.062.515-.182.731-.137.247-.317.444-.536.585-.972.627-1.457,1.788-1.207,2.888.06.26.049.533-.03.812-.139.482-.541.885-1.023,1.022-.279.08-.551.089-.811.032-1.098-.254-2.261.233-2.888,1.206-.142.219-.339.399-.586.536-.438.245-1.007.244-1.447,0Zm10.712,1.242c-.028.084-.107.228-.312.248l-1.524.157c-.458.048-.825.401-.888.858l-.188,1.354c-.027.197-.168.273-.248.301-.082.027-.238.053-.383-.089l-3.537-3.427c.024-.035.058-.061.081-.097.172-.269.476-.406.765-.34.59.132,1.195.113,1.803-.06.843-.242,1.556-.804,2.01-1.538l2.328,2.245c.148.143.122.305.093.389Zm-9.311-4.061h-2.667c-.552,0-1-.447-1-1s.448-1,1-1h2.667c.551,0,1-.448,1-1s-.449-1-1-1h-1.667c-.552,0-1-.447-1-1s.448-1,1-1h1c.551,0,1-.448,1-1s-.449-1-1-1h-2c-.552,0-1-.447-1-1s.448-1,1-1h2c1.654,0,3,1.346,3,3,0,.608-.184,1.172-.496,1.646.703.549,1.163,1.395,1.163,2.354,0,1.654-1.346,3-3,3Z"/>
</svg>
