<?xml version="1.0" encoding="UTF-8"?>
<svg xmlns="http://www.w3.org/2000/svg" id="Layer_1" data-name="Layer 1" viewBox="0 0 24 24">
  <path d="m16.5,2.5c0-1.381,1.119-2.5,2.5-2.5s2.5,1.119,2.5,2.5-1.119,2.5-2.5,2.5-2.5-1.119-2.5-2.5Zm3.5,3.5h-2c-.456,0-.904.077-1.333.228-.521.185-.794.756-.61,1.276.185.52.755.792,1.276.61.214-.076.438-.114.667-.114h2c1.103,0,2,.897,2,2v3c0,1.103-.897,2-2,2h-1c-.553,0-1,.447-1,1s.447,1,1,1h1v6c0,.553.447,1,1,1s1-.447,1-1v-6.556c1.19-.694,2-1.97,2-3.444v-3c0-2.206-1.794-4-4-4Zm-15-1c1.381,0,2.5-1.119,2.5-2.5S6.381,0,5,0s-2.5,1.119-2.5,2.5,1.119,2.5,2.5,2.5Zm2.333,1.228c-.429-.15-.877-.228-1.333-.228h-2C1.794,6,0,7.794,0,10v3c0,1.474.81,2.75,2,3.444v6.556c0,.553.447,1,1,1s1-.447,1-1v-6h1c.553,0,1-.447,1-1s-.447-1-1-1h-1c-1.103,0-2-.897-2-2v-3c0-1.103.897-2,2-2h2c.229,0,.453.038.667.114.522.181,1.092-.091,1.276-.61.184-.521-.09-1.092-.61-1.276Zm4.667,3.772c1.381,0,2.5-1.119,2.5-2.5s-1.119-2.5-2.5-2.5-2.5,1.119-2.5,2.5,1.119,2.5,2.5,2.5Zm4,4v3c0,.883-.391,1.67-1,2.22v3.78c0,.553-.447,1-1,1s-1-.447-1-1v-3h-2v3c0,.553-.447,1-1,1s-1-.447-1-1v-3.78c-.609-.549-1-1.337-1-2.22v-3c0-1.654,1.346-3,3-3h2c1.654,0,3,1.346,3,3Zm-3,4c.552,0,1-.448,1-1v-3c0-.552-.448-1-1-1h-2c-.552,0-1,.448-1,1v3c0,.552.448,1,1,1h2Z"/>
</svg>
