<?xml version="1.0" encoding="UTF-8"?>
<svg xmlns="http://www.w3.org/2000/svg" id="Layer_1" data-name="Layer 1" viewBox="0 0 24 24">
  <path d="m23.08.39c-.101-.265-.341-.396-.58-.389,0,0,0,0,0,0,0,0,0,0,0,0-.218.006-.435.125-.543.361-.306.665-.53,1.67-.957,2.574-.427-.904-.651-1.909-.957-2.574-.108-.235-.325-.355-.543-.361,0,0,0,0,0,0,0,0,0,0,0,0-.239-.006-.479.124-.58.389-.411,1.082-.894,3.601-.92,4.61,0,1.121.616,2.099,1.527,2.613-.534.833-1.467,1.387-2.527,1.387h-1v-3.2c0-2.765-2.094-5.8-4-5.8s-4,3.035-4,5.8v3.2h-1c-1.061,0-1.994-.554-2.527-1.387.911-.515,1.527-1.492,1.527-2.613,0-.954-.498-3.498-.92-4.61-.193-.508-.897-.522-1.123-.029-.306.665-.53,1.67-.957,2.574-.427-.904-.651-1.909-.957-2.574-.227-.493-.931-.479-1.123.029-.422,1.112-.92,3.656-.92,4.61,0,1.448,1.026,2.656,2.391,2.938.759,1.797,2.539,3.062,4.609,3.062h1v2h-.843c-1.336,0-2.592.521-3.536,1.465l-.828.828c-.391.391-.391,1.023,0,1.414s1.023.391,1.414,0l.828-.828c.566-.566,1.32-.879,2.122-.879h.843v3.5c0,.005,0,.01,0,.015l-1.398,1.398c-.498.497-.603,1.021-.603,1.372,0,.537.235,1.057.681,1.502,1.079,1.08,3.377,1.863,5.319.581.716.473,1.479.665,2.213.665,1.257,0,2.425-.563,3.106-1.246.445-.445.681-.965.681-1.502,0-.352-.104-.875-.602-1.371l-1.399-1.399c0-.005,0-.01,0-.015v-3.5h.843c.802,0,1.556.312,2.122.879l.828.828c.195.195.451.293.707.293s.512-.098.707-.293c.391-.391.391-1.023,0-1.414l-.828-.828c-.944-.944-2.2-1.465-3.536-1.465h-.843v-2h1c2.07,0,3.85-1.265,4.609-3.062,1.365-.281,2.391-1.49,2.391-2.938-.026-1.009-.509-3.528-.92-4.61Zm-13.08,5.41c0-1.957,1.517-3.741,1.992-3.8.491.059,2.008,1.843,2.008,3.8v3.2h-4v-3.2Zm0,5.2h4v2h-4v-2Zm0,4h4v2h-4v-2Zm2.707,6.373c-.195-.195-.451-.293-.707-.293s-.512.098-.707.293c-1.327,1.329-2.919.272-3.257-.065l2.308-2.308h3.312l2.307,2.311c-.338.337-1.926,1.391-3.255.062Z"/>
</svg>
