<?xml version="1.0" encoding="UTF-8"?>
<svg xmlns="http://www.w3.org/2000/svg" id="Layer_1" data-name="Layer 1" viewBox="0 0 24 24">
  <path d="m8,12c0,2.206,1.794,4,4,4s4-1.794,4-4-1.794-4-4-4-4,1.794-4,4Zm6,0c0,1.103-.897,2-2,2s-2-.897-2-2,.897-2,2-2,2,.897,2,2Zm-8.5-4c.828,0,1.5.672,1.5,1.5s-.672,1.5-1.5,1.5-1.5-.672-1.5-1.5.672-1.5,1.5-1.5Zm14.5,6.5c0,.828-.672,1.5-1.5,1.5s-1.5-.672-1.5-1.5.672-1.5,1.5-1.5,1.5.672,1.5,1.5ZM0,13v-4c0-2.757,2.243-5,5-5h16.011l-1.239-1.314c-.378-.402-.36-1.035.042-1.414.401-.378,1.034-.36,1.414.042l2.244,2.381c.71.709.71,1.899-.021,2.63l-2.223,2.36c-.197.209-.462.314-.728.314-.246,0-.493-.09-.686-.272-.402-.379-.421-1.012-.042-1.414l1.238-1.314H5c-1.654,0-3,1.346-3,3v4c0,.552-.448,1-1,1s-1-.448-1-1Zm24-1.5v3.5c0,2.757-2.243,5-5,5H2.989l1.239,1.314c.378.402.36,1.035-.042,1.414-.193.182-.439.272-.686.272-.266,0-.531-.105-.728-.314l-2.244-2.381c-.71-.709-.71-1.899.021-2.63l2.223-2.36c.379-.403,1.012-.42,1.414-.042.402.379.421,1.012.042,1.414l-1.238,1.314h16.01c1.654,0,3-1.346,3-3v-3.5c0-.552.448-1,1-1s1,.448,1,1Z"/>
</svg>
