<?xml version="1.0" encoding="UTF-8"?>
<svg xmlns="http://www.w3.org/2000/svg" id="Layer_1" data-name="Layer 1" viewBox="0 0 24 24">
  <path d="m6,2.5c0-1.381,1.119-2.5,2.5-2.5s2.5,1.119,2.5,2.5-1.119,2.5-2.5,2.5-2.5-1.119-2.5-2.5Zm-.284,6.698c1.508-1.545,4.061-1.545,5.568,0,.196.201.456.302.716.302.252,0,.504-.095.698-.284.396-.386.403-1.019.018-1.414-1.134-1.162-2.631-1.802-4.216-1.802s-3.082.64-4.216,1.802c-.386.396-.378,1.028.018,1.414.395.385,1.028.379,1.414-.018Zm17.52,3.817l-6.804,7.637c-1.896,2.128-4.618,3.348-7.467,3.348h-4.965c-2.206,0-4-1.794-4-4v-5c0-2.206,1.794-4,4-4h8.857c1.14,0,2.139.609,2.689,1.519l3.217-3.534c.541-.595,1.281-.943,2.085-.981.794-.03,1.573.239,2.169.782,1.214,1.106,1.312,3.004.218,4.23Zm-1.565-2.752c-.199-.182-.459-.282-.728-.263-.27.013-.519.13-.7.329l-4.426,4.865c-.385,1.07-1.339,1.89-2.514,2.058l-5.161.737c-.551.074-1.054-.302-1.132-.849s.302-1.054.849-1.132l5.161-.737c.56-.079.98-.565.98-1.13,0-.63-.513-1.143-1.143-1.143H4c-1.103,0-2,.897-2,2v5c0,1.103.897,2,2,2h4.965c2.279,0,4.456-.977,5.974-2.678l6.804-7.638c.368-.412.336-1.05-.072-1.421Z"/>
</svg>
