<?xml version="1.0" encoding="UTF-8"?>
<svg xmlns="http://www.w3.org/2000/svg" id="Layer_1" data-name="Layer 1" viewBox="0 0 24 24">
  <path d="m23.978,16.306c-.137.959-.906,1.694-1.836,1.694h-.619c-1.026,0-1.857-.895-1.857-2,0,1.105-.831,2-1.857,2h-.619c-1.026,0-1.857-.895-1.857-2,0,1.105-.831,2-1.857,2h-.619c-.929,0-1.699-.735-1.836-1.694-.028-.199.018-.403.095-.589l.355-.861c.463-1.123,1.558-1.856,2.773-1.856h6.509c1.215,0,2.31.733,2.773,1.856l.355.861c.077.186.124.39.095.589Zm-1.978,2.694c-.553,0-1,.448-1,1v1c0,.551-.448,1-1,1h-5c-.552,0-1-.449-1-1v-1c0-.552-.447-1-1-1s-1,.448-1,1v1c0,1.654,1.346,3,3,3h5c1.654,0,3-1.346,3-3v-1c0-.552-.447-1-1-1ZM2,6C2,2.691,4.691,0,8,0s6,2.691,6,6-2.691,6-6,6-6-2.691-6-6Zm2,0c0,2.206,1.794,4,4,4s4-1.794,4-4-1.794-4-4-4-4,1.794-4,4Zm4,8C3.589,14,0,17.589,0,22v1c0,.552.447,1,1,1s1-.448,1-1v-1c0-3.309,2.691-6,6-6,.553,0,1-.448,1-1s-.447-1-1-1Z"/>
</svg>
