<?xml version="1.0" encoding="UTF-8"?>
<svg xmlns="http://www.w3.org/2000/svg" id="Layer_1" data-name="Layer 1" viewBox="0 0 24 24">
  <path d="m16,2h-.171c-.413-1.164-1.525-2-2.829-2h-2c-1.304,0-2.416.836-2.829,2h-.171c-2.757,0-5,2.243-5,5v12c0,2.757,2.243,5,5,5h8c2.757,0,5-2.243,5-5V7c0-2.757-2.243-5-5-5Zm3,17c0,1.654-1.346,3-3,3h-8c-1.654,0-3-1.346-3-3V7c0-1.654,1.346-3,3-3h1c.552,0,1-.448,1-1s.449-1,1-1h2c.551,0,1,.449,1,1s.448,1,1,1h1c1.654,0,3,1.346,3,3v12Zm-7-12c-3.309,0-6,2.691-6,6s2.691,6,6,6,6-2.691,6-6-2.691-6-6-6Zm0,10c-2.206,0-4-1.794-4-4s1.794-4,4-4,4,1.794,4,4-1.794,4-4,4Zm1-6v1c0,.552-.448,1-1,1s-1-.448-1-1v-1c0-.552.448-1,1-1s1,.448,1,1Zm0,4c0,.552-.448,1-1,1s-1-.448-1-1,.448-1,1-1,1,.448,1,1Z"/>
</svg>
