<?xml version="1.0" encoding="UTF-8"?>
<svg xmlns="http://www.w3.org/2000/svg" id="Layer_1" data-name="Layer 1" viewBox="0 0 24 24">
  <path d="m23.268,5.854l-.607-.604-.741-.651c-.003-.016-.009-.037-.005-.004-.864-2.644-3.353-4.594-6.148-4.594-2.746,0-6.291,1.241-8.023,4.013-.307.491-.322,1.113-.04,1.624.227.41.616.698,1.061.803-.514.797-.81,1.715-.81,2.63,0,.554.109,2.483,1.517,4.062.438.49,1.119.652,1.739.419.221-.085.414-.213.57-.372,1.006,1.537,2.457,3.29,4.219,4.56v3.762c0,.275-.224.5-.5.5s-.5-.225-.5-.5v-2.5c0-.553-.448-1-1-1h-6c-.552,0-1,.447-1,1v2.5c0,.275-.224.5-.5.5s-.5-.225-.5-.5v-3c0-.096-.014-.19-.041-.281-.121-.413-.246-.782-.367-1.136-.335-.986-.6-1.765-.593-3.078.005-.916.574-1.801,1.325-2.06.522-.179.8-.748.621-1.271-.179-.521-.747-.8-1.271-.62-.544.187-1.027.511-1.433.922-.342.113-3.881,1.439-4.24,7.969-.03.551.383,1.055,1,1.055.527,0,.968-.412.998-.945.109-1.986.537-3.347,1.029-4.277.084,1.206.37,2.06.672,2.949.099.289.201.59.301.919v2.854c0,1.379,1.122,2.5,2.5,2.5s2.5-1.121,2.5-2.5v-1.5h4v1.5c0,1.379,1.122,2.5,2.5,2.5s2.5-1.121,2.5-2.5v-4.59c.765-1.035,2.151-3.036,2.972-4.957,1.705-.233,3.028-1.684,3.028-3.452v-.879c0-.658-.267-1.302-.732-1.768Zm-6.782,9.737c-2.516-2.123-4.103-5.222-4.3-5.903-.125-.432-.521-.722-.959-.722-.493.07-1.001.502-1.001,1v.575c-.192-.526-.271-1.051-.271-1.472,0-.887.538-2.066,1.739-2.703.406-.215.613-.68.502-1.125-.111-.446-.511-.759-.971-.759h-1.354c1.447-1.701,3.981-2.482,5.895-2.482,1.37,0,2.623.617,3.446,1.628-1.844.465-3.212,2.137-3.212,4.122,0,1.857,1.197,3.439,2.861,4.017-.713,1.461-1.735,2.948-2.375,3.824Zm5.514-7.091c0,.827-.673,1.5-1.5,1.5h-.25c-1.241,0-2.25-1.01-2.25-2.25,0-1.124.831-2.047,1.96-2.212l1.333,1.169.561.561c.093.093.146.222.146.354v.879Z"/>
</svg>
