<?xml version="1.0" encoding="UTF-8"?>
<svg xmlns="http://www.w3.org/2000/svg" id="Layer_1" data-name="Layer 1" viewBox="0 0 24 24">
  <path d="m12,0C5.047,0,0,2.523,0,6v13.548c0,1.574,1.055,3.057,2.971,4.175.315.184.668.275,1.021.275.348,0,.696-.09,1.006-.268.626-.36,1.001-1.007,1.001-1.729v-10.678c0-1.12-.628-2.143-1.639-2.667h0c-1.5-.777-2.36-1.745-2.36-2.656,0-1.932,4.018-4,10-4s10,2.068,10,4c0,.911-.86,1.879-2.36,2.656h0c-1.011.524-1.639,1.547-1.639,2.667v10.678c0,.723.375,1.369,1.001,1.729.311.178.658.268,1.006.268.353,0,.707-.092,1.021-.275,1.916-1.118,2.971-2.601,2.971-4.175V6c0-3.477-5.047-6-12-6ZM3.44,10.432c.345.18.56.521.56.892l-.021,10.671c-.739-.431-1.979-1.322-1.979-2.446v-10.027c.419.326.9.632,1.44.911Zm18.56,9.116c0,1.124-1.24,2.016-2,2.453v-10.678c0-.37.214-.712.56-.892.541-.279,1.021-.585,1.44-.911v10.027Zm-10-9.548c-1.381,0-2.5-1.119-2.5-2.5s1.119-2.5,2.5-2.5,2.5,1.119,2.5,2.5-1.119,2.5-2.5,2.5Zm0,1c-2.206,0-4,1.794-4,4v2c0,.883.391,1.67,1,2.22v3.78c0,.553.448,1,1,1s1-.447,1-1v-3h2v3c0,.553.448,1,1,1s1-.447,1-1v-3.78c.609-.549,1-1.337,1-2.22v-2c0-2.206-1.794-4-4-4Zm-1,7c-.551,0-1-.448-1-1v-2c0-1.103.897-2,2-2s2,.897,2,2v2c0,.552-.449,1-1,1h-2Z"/>
</svg>
