<?xml version="1.0" encoding="UTF-8"?>
<svg xmlns="http://www.w3.org/2000/svg" id="Layer_1" data-name="Layer 1" viewBox="0 0 24 24">
  <path d="m12,4c-1.654,0-3,1.346-3,3s1.346,3,3,3,3-1.346,3-3-1.346-3-3-3Zm0,4.25c-.689,0-1.25-.561-1.25-1.25s.561-1.25,1.25-1.25,1.25.561,1.25,1.25-.561,1.25-1.25,1.25ZM17.5,0H6.5C4.019,0,2,2.019,2,4.5v5c0,2.481,2.019,4.5,4.5,4.5h4.5v7.366l-2.293-2.293c-.391-.391-1.023-.391-1.414,0s-.391,1.024,0,1.414l2.636,2.636c.565.565,1.318.876,2.121.876s1.556-.312,2.121-.876l2.536-2.535c.391-.39.391-1.023,0-1.414s-1.023-.391-1.414,0l-2.293,2.293v-7.467h4.5c2.481,0,4.5-2.019,4.5-4.5v-5c0-2.481-2.019-4.5-4.5-4.5Zm2.5,9.5c0,1.378-1.122,2.5-2.5,2.5H6.5c-1.378,0-2.5-1.122-2.5-2.5v-5c0-1.378,1.122-2.5,2.5-2.5h11c1.378,0,2.5,1.122,2.5,2.5v5Zm-12,0c0,.828-.672,1.5-1.5,1.5s-1.5-.672-1.5-1.5.672-1.5,1.5-1.5,1.5.672,1.5,1.5Zm0-5c0,.828-.672,1.5-1.5,1.5s-1.5-.672-1.5-1.5.672-1.5,1.5-1.5,1.5.672,1.5,1.5Zm11,5c0,.828-.672,1.5-1.5,1.5s-1.5-.672-1.5-1.5.672-1.5,1.5-1.5,1.5.672,1.5,1.5Zm0-5c0,.828-.672,1.5-1.5,1.5s-1.5-.672-1.5-1.5.672-1.5,1.5-1.5,1.5.672,1.5,1.5Z"/>
</svg>
