<?xml version="1.0" encoding="UTF-8"?>
<svg xmlns="http://www.w3.org/2000/svg" id="Layer_1" data-name="Layer 1" viewBox="0 0 24 24">
  <path d="m14.501,10.914L23.707,1.707c.391-.391.391-1.023,0-1.414s-1.023-.391-1.414,0l-9.206,9.206-.89-.89c-.471-.471-1.146-.687-1.803-.582-.658.107-1.229.526-1.526,1.122l-.938,1.877c-1.633-.149-3.247.419-4.433,1.605-1.076,1.077-2.229,3.989-3.427,8.657-.192.752.02,1.528.567,2.076.414.415.96.637,1.526.637.182,0,.366-.023.549-.07,4.667-1.196,7.58-2.349,8.657-3.427,1.176-1.176,1.749-2.782,1.601-4.431l1.879-.94c.597-.297,1.017-.868,1.123-1.525.107-.658-.11-1.332-.582-1.803l-.89-.89Zm-4.545,8.176c-.774.775-3.668,1.86-7.739,2.904-.064.016-.12,0-.165-.044-.046-.045-.061-.101-.044-.165,1.045-4.073,2.13-6.966,2.903-7.739.825-.824,1.973-1.18,3.111-.989l2.96,2.959c.137,1.101-.243,2.291-1.026,3.074Zm4.001-5.746l-1.879.94-2.36-2.36.939-1.879.126-.021,3.194,3.195-.021.125Zm6.544,3.657c-1.93,0-3.5,1.57-3.5,3.5s1.57,3.5,3.5,3.5,3.5-1.57,3.5-3.5-1.57-3.5-3.5-3.5Zm0,5c-.827,0-1.5-.673-1.5-1.5s.673-1.5,1.5-1.5,1.5.673,1.5,1.5-.673,1.5-1.5,1.5Z"/>
</svg>
