<?xml version="1.0" encoding="UTF-8"?>
<svg xmlns="http://www.w3.org/2000/svg" id="Layer_1" data-name="Layer 1" viewBox="0 0 24 24">
  <path d="m22.988,3.263c.073-.836-.209-1.67-.776-2.29-.567-.618-1.373-.973-2.212-.973H4c-.836,0-1.64.353-2.206.967s-.852,1.445-.784,2.279l1.329,16.164c.212,2.574,2.401,4.59,4.983,4.59h9.263c2.611,0,4.752-1.961,4.98-4.562l1.422-16.176ZM3.265,2.322c.191-.208.453-.322.735-.322h16c.284,0,.545.115.737.324.192.209.284.481.259.764l-1.036,11.785c-.344.645-1.155,1.127-1.96,1.127-.89,0-1.793-.586-2.057-1.333-.141-.399-.519-.667-.943-.667s-.802.268-.943.667c-.264.747-1.167,1.333-2.057,1.333s-1.793-.586-2.057-1.333c-.141-.399-.519-.667-.943-.667s-.802.268-.943.667c-.264.747-1.167,1.333-2.057,1.333-.876,0-1.762-.569-2.041-1.299l-.955-11.619c-.023-.282.07-.552.261-.76Zm13.321,19.678H7.323c-1.55,0-2.863-1.21-2.99-2.754l-.136-1.657c.559.26,1.175.411,1.804.411,1.127,0,2.222-.472,3-1.225.778.753,1.873,1.225,3,1.225s2.222-.472,3-1.225c.778.753,1.873,1.225,3,1.225.597,0,1.182-.14,1.718-.377l-.144,1.64c-.137,1.56-1.421,2.736-2.988,2.736Zm-4.586-10c1.93,0,3.5-1.57,3.5-3.5,0-1.048-.632-2.307-1.878-3.743-.818-.942-2.426-.943-3.244,0-1.246,1.436-1.878,2.695-1.878,3.743,0,1.93,1.57,3.5,3.5,3.5Zm-.111-5.932c.03-.035.067-.053.111-.053s.081.018.111.052c1.289,1.484,1.389,2.237,1.389,2.432,0,.827-.673,1.5-1.5,1.5s-1.5-.673-1.5-1.5c0-.195.1-.948,1.389-2.432Z"/>
</svg>
