<?xml version="1.0" encoding="UTF-8"?>
<svg xmlns="http://www.w3.org/2000/svg" id="Layer_1" data-name="Layer 1" viewBox="0 0 24 24">
  <path d="m8.5,8h-3.5c-.552,0-1-.448-1-1v-2c0-.552.448-1,1-1h1.5c.265,0,.52.105.707.293l2,2c.286.286.372.716.217,1.09-.155.374-.52.617-.924.617Zm-2.5,2h-1c-.552,0-1,.448-1,1s.448,1,1,1h1c.552,0,1-.448,1-1s-.448-1-1-1Zm0,4h-1c-.552,0-1,.448-1,1s.448,1,1,1h1c.552,0,1-.448,1-1s-.448-1-1-1Zm7,2h1c.552,0,1-.448,1-1s-.448-1-1-1h-1c-.552,0-1,.448-1,1s.448,1,1,1Zm-3-6h-1c-.552,0-1,.448-1,1s.448,1,1,1h1c.552,0,1-.448,1-1s-.448-1-1-1Zm0,4h-1c-.552,0-1,.448-1,1s.448,1,1,1h1c.552,0,1-.448,1-1s-.448-1-1-1Zm-4,4h-1c-.552,0-1,.448-1,1s.448,1,1,1h1c.552,0,1-.448,1-1s-.448-1-1-1Zm7,2h1c.552,0,1-.448,1-1s-.448-1-1-1h-1c-.552,0-1,.448-1,1s.448,1,1,1Zm-3-2h-1c-.552,0-1,.448-1,1s.448,1,1,1h1c.552,0,1-.448,1-1s-.448-1-1-1Zm9-5h-1c-.552,0-1,.448-1,1v5c0,1.654-1.346,3-3,3H5c-1.654,0-3-1.346-3-3V5c0-1.654,1.346-3,3-3h4c.552,0,1-.448,1-1s-.448-1-1-1h-4C2.243,0,0,2.243,0,5v14c0,2.757,2.243,5,5,5h9c2.414,0,4.434-1.721,4.899-4h.101c.552,0,1-.448,1-1v-5c0-.552-.448-1-1-1Zm-5.602-7.8c-.441.332-.53.959-.198,1.4.333.441.959.531,1.4.198,1.412-1.063,3.386-1.063,4.799,0,.18.135.391.201.6.201.304,0,.604-.138.8-.399.332-.441.243-1.068-.198-1.4-2.12-1.594-5.083-1.595-7.204,0Zm9.888-2.978c-3.643-2.953-8.932-2.952-12.574,0-.429.348-.495.977-.147,1.406.346.429.978.496,1.406.147,2.914-2.36,7.142-2.361,10.056,0,.185.15.408.223.629.223.291,0,.58-.126.777-.371.348-.429.282-1.059-.147-1.406Zm-4.787,7.277c0-.828-.672-1.5-1.5-1.5s-1.5.672-1.5,1.5.672,1.5,1.5,1.5,1.5-.672,1.5-1.5Z"/>
</svg>
