<?xml version="1.0" encoding="UTF-8"?>
<svg xmlns="http://www.w3.org/2000/svg" id="Layer_1" data-name="Layer 1" viewBox="0 0 24 24">
  <path d="m13.684,22h9.316c.552,0,1,.447,1,1s-.448,1-1,1H1c-.552,0-1-.447-1-1s.448-1,1-1h9.316c-.307-.891-1.126-2-3.316-2H1c-.552,0-1-.447-1-1s.448-1,1-1h6c2.85,0,4.321,1.404,5,2.858.679-1.454,2.15-2.858,5-2.858h6c.552,0,1,.447,1,1s-.448,1-1,1h-6c-2.191,0-3.009,1.11-3.316,2Zm4.316-6c.552,0,1-.447,1-1,0-1.427.508-1.887,1.277-2.583.542-.491,1.157-1.048,1.618-1.969.746-1.492.454-2.746.219-3.754-.131-.562-.244-1.047-.143-1.45.192-.77.572-1.258.974-1.774.495-.636,1.056-1.357,1.056-2.469,0-.552-.448-1-1-1s-1,.448-1,1c0,.407-.206.69-.634,1.24-.464.596-1.041,1.337-1.336,2.517-.218.872-.03,1.678.136,2.389.203.872.363,1.56-.06,2.406-.292.585-.7.954-1.171,1.381-.862.781-1.934,1.752-1.934,4.066,0,.553.448,1,1,1ZM2.03,5.243c.101.403-.012.888-.143,1.45-.235,1.008-.527,2.263.219,3.754.46.921,1.075,1.478,1.618,1.969.769.697,1.277,1.157,1.277,2.583,0,.553.448,1,1,1s1-.447,1-1c0-2.314-1.072-3.285-1.934-4.066-.472-.427-.879-.796-1.171-1.381-.423-.846-.263-1.535-.06-2.406.166-.711.354-1.518.136-2.389-.295-1.18-.872-1.921-1.336-2.517-.428-.55-.634-.833-.634-1.24,0-.552-.448-1-1-1S0,.448,0,1c0,1.112.561,1.833,1.056,2.469.402.516.781,1.004.974,1.774Zm8.51,6.973l.968.277.277.968c.206.72,1.225.72,1.431,0l.277-.968.968-.277c.72-.206.72-1.225,0-1.431l-.968-.277-.277-.968c-.206-.719-1.225-.719-1.431,0l-.277.968-.968.277c-.72.206-.72,1.225,0,1.431Zm-4-6l.968.277.277.968c.206.72,1.225.72,1.431,0l.277-.968.968-.277c.72-.206.72-1.225,0-1.431l-.968-.277-.277-.968c-.206-.719-1.225-.719-1.431,0l-.277.968-.968.277c-.72.206-.72,1.225,0,1.431Zm7-3l.968.277.277.968c.206.72,1.225.72,1.431,0l.277-.968.968-.277c.72-.206.72-1.225,0-1.431l-.968-.277-.277-.968c-.206-.719-1.225-.719-1.431,0l-.277.968-.968.277c-.72.206-.72,1.225,0,1.431Z"/>
</svg>
