<?xml version="1.0" encoding="UTF-8"?>
<svg xmlns="http://www.w3.org/2000/svg" id="Layer_1" data-name="Layer 1" viewBox="0 0 24 24">
  <path d="m13.5,12c0,.828-.672,1.5-1.5,1.5s-1.5-.672-1.5-1.5.672-1.5,1.5-1.5,1.5.672,1.5,1.5Zm6.383,4.591c.365,2.817-.251,4.947-1.755,5.894-.541.341-1.169.514-1.854.514-.357,0-.729-.047-1.112-.142-1.014-.249-2.09-.82-3.165-1.65-1.53,1.183-3.003,1.794-4.282,1.794-.675,0-1.297-.17-1.844-.516-1.558-.982-2.126-3.172-1.767-5.922C1.497,15.45,0,13.812,0,12,0,10.117,1.57,8.492,4.117,7.408c-.366-2.817.251-4.947,1.754-5.894.822-.52,1.848-.647,2.965-.372,1.017.25,2.097.824,3.176,1.659,2.331-1.798,4.536-2.283,6.116-1.287,1.559.982,2.126,3.172,1.767,5.924,2.608,1.112,4.104,2.75,4.104,4.562,0,1.883-1.57,3.508-4.117,4.591Zm-5.66-.703c.391-.555.767-1.138,1.117-1.74.42-.723.781-1.441,1.098-2.147-.326-.722-.689-1.444-1.098-2.149-.365-.629-.743-1.199-1.126-1.742-.724-.071-1.467-.11-2.215-.11-.771,0-1.512.041-2.224.112-.39.555-.767,1.138-1.117,1.74-.419.722-.781,1.44-1.098,2.145.328.726.69,1.449,1.098,2.151.365.629.744,1.199,1.126,1.742.724.07,1.467.11,2.214.11.771,0,1.512-.041,2.224-.112Zm-.704-11.727c1.266,1.272,2.488,2.856,3.551,4.687.115.197.216.4.325.599.915-3.088.751-5.558-.333-6.241-.756-.477-2.072-.107-3.543.954Zm-7.47,2.582c1.735-.474,3.754-.743,5.951-.743.18,0,.358.01.538.014-1.558-1.679-3.076-2.658-4.178-2.929-.586-.144-1.064-.104-1.421.122-.739.465-1.052,1.783-.889,3.537Zm-1.544,7.817c.25-.941.593-1.922,1.025-2.926.001-.004.003-.007.005-.011.393-.913.853-1.842,1.395-2.775.059-.102.128-.193.189-.294-3.108.752-5.119,2.151-5.119,3.446,0,.877.943,1.82,2.506,2.56Zm5.974,5.277c-1.265-1.272-2.487-2.855-3.549-4.685-.115-.197-.216-.4-.325-.6-.915,3.088-.751,5.558.333,6.242.758.478,2.07.106,3.541-.957Zm7.471-2.58c-1.735.474-3.754.743-5.951.743-.18,0-.358-.01-.537-.014,1.558,1.679,3.076,2.659,4.178,2.93.587.143,1.064.102,1.421-.122.738-.465,1.052-1.783.888-3.537Zm4.049-5.257c0-.876-.943-1.819-2.505-2.56-.478,1.8-1.285,3.748-2.424,5.712-.059.101-.128.193-.188.293,3.108-.752,5.118-2.151,5.118-3.446Z"/>
</svg>
