<?xml version="1.0" encoding="UTF-8"?>
<svg xmlns="http://www.w3.org/2000/svg" id="Layer_1" data-name="Layer 1" viewBox="0 0 24 24">
  <path d="m19,0H5C2.243,0,0,2.243,0,5v14c0,2.757,2.243,5,5,5h8.515c1.871,0,3.628-.729,4.95-2.051l3.486-3.484c1.322-1.323,2.05-3.081,2.05-4.95V5c0-2.757-2.243-5-5-5ZM5,22c-1.654,0-3-1.346-3-3V5c0-1.654,1.346-3,3-3h14c1.654,0,3,1.346,3,3v8.515c0,.165-.032.323-.047.485h-4.953c-1.654,0-3,1.346-3,3v4.953c-.162.016-.32.047-.485.047H5Zm12.05-1.465c-.315.315-.674.564-1.05.781v-4.316c0-.552.449-1,1-1h4.316c-.217.376-.466.735-.781,1.051l-3.486,3.484Zm-.915-9.996l1.229-4.882c.092-.366.421-.623.799-.623.39,0,.727.274.807.656l1.017,4.875c.083.396-.219.767-.623.767h-.012c-.302,0-.562-.212-.623-.507l-.612-2.937-.745,2.963c-.071.283-.326.482-.618.482-.415,0-.719-.39-.618-.792ZM7,5.65v3.356c0,1.137-.926,2.063-2.079,2.063h0c-.805-.006-1.504-.491-1.849-1.171-.221-.436.09-.952.578-.952.249,0,.469.145.583.366.133.257.394.454.687.459.406,0,.778-.314.778-.781v-3.34c.001-.359.292-.649.651-.649s.65.291.65.65Zm6.978,5.647c-.378,0-.707-.257-.799-.623l-1.229-4.882c-.101-.402.203-.792.618-.792.292,0,.546.198.618.482l.745,2.963.612-2.937c.062-.295.322-.507.623-.507h.012c.404,0,.706.371.623.767l-1.017,4.875c-.08.382-.416.656-.807.656Zm-3.392-5.641l1.017,4.875c.083.396-.219.767-.623.767h-.012c-.302,0-.562-.212-.623-.507l-.612-2.937-.745,2.963c-.071.283-.326.481-.618.481-.415,0-.719-.39-.618-.792l1.229-4.882c.092-.366.421-.623.799-.623.39,0,.727.274.807.656Z"/>
</svg>
