<?xml version="1.0" encoding="UTF-8"?>
<svg xmlns="http://www.w3.org/2000/svg" id="Layer_1" data-name="Layer 1" viewBox="0 0 24 24">
  <path d="m22.668,6.531l.774-1.123c.893-1.389.697-3.212-.471-4.379s-2.99-1.363-4.379-.47l-1.123.774c-1.642-.845-3.499-1.332-5.469-1.332C5.383,0,0,5.383,0,12c0,1.971.486,3.827,1.332,5.469l-.774,1.123c-.893,1.389-.697,3.212.471,4.379s2.99,1.363,4.379.471l1.123-.774c1.642.845,3.499,1.332,5.469,1.332,6.617,0,12-5.383,12-12,0-1.971-.486-3.827-1.332-5.469Zm-10.668,15.469c-5.514,0-10-4.486-10-10S6.486,2,12,2s10,4.486,10,10-4.486,10-10,10Zm3-4.5c0,.828-.672,1.5-1.5,1.5s-1.5-.672-1.5-1.5.672-1.5,1.5-1.5,1.5.672,1.5,1.5Zm-8.5-5.5c-.828,0-1.5-.672-1.5-1.5s.672-1.5,1.5-1.5,1.5.672,1.5,1.5-.672,1.5-1.5,1.5Zm5,1c-.828,0-1.5-.672-1.5-1.5s.672-1.5,1.5-1.5,1.5.672,1.5,1.5-.672,1.5-1.5,1.5Zm3.5-4.5c0-.828.672-1.5,1.5-1.5s1.5.672,1.5,1.5-.672,1.5-1.5,1.5-1.5-.672-1.5-1.5Zm-5,6.518v2.255c0,.446-.407.804-.843.712-1.573-.331-2.811-1.57-3.142-3.142-.092-.437.266-.843.712-.843h2.255c.562,0,1.018.456,1.018,1.018Zm8.365-3.51c.846,1.313.846,3.014,0,4.327-.242.375-.78.422-1.095.106l-1.563-1.563c-.391-.391-.391-1.024,0-1.414l1.563-1.563c.316-.316.854-.269,1.095.106Zm-9.365-3.234v-2.255c0-.562.456-1.018,1.018-1.018h2.255c.446,0,.804.407.712.843-.331,1.573-1.569,2.811-3.142,3.142-.437.092-.843-.266-.843-.712Z"/>
</svg>
