<?xml version="1.0" encoding="UTF-8"?>
<svg xmlns="http://www.w3.org/2000/svg" id="Layer_1" data-name="Layer 1" viewBox="0 0 24 24">
  <path d="m24,8v6c0,2.757-2.243,5-5,5h-6v1h3c.553,0,1,.448,1,1s-.447,1-1,1h-8c-.553,0-1-.448-1-1s.447-1,1-1h3v-1h-6c-2.757,0-5-2.243-5-5v-6.017c0-1.34.523-2.599,1.474-3.544.944-.939,2.196-1.456,3.527-1.456h.026l2.979.017c.552.003.997.453.994,1.005-.003.551-.45.995-1,.995h-.006l-2.978-.017c-.799-.03-1.562.306-2.133.874-.569.567-.884,1.322-.884,2.126v6.017c0,1.654,1.346,3,3,3h14c1.654,0,3-1.346,3-3v-6c0-1.654-1.346-3-3-3h-3c-.553,0-1-.448-1-1s.447-1,1-1h3c2.757,0,5,2.243,5,5Zm-15.319-.733c-.404-.375-1.039-.354-1.413.053-.376.405-.353,1.037.052,1.413l2.587,2.4c.58.581,1.344.869,2.104.869.75,0,1.497-.282,2.058-.843l2.613-2.426c.404-.376.428-1.008.052-1.413-.375-.406-1.01-.428-1.413-.053l-2.319,2.154V1c0-.552-.447-1-1-1s-1,.448-1,1v8.42l-2.319-2.153Z"/>
</svg>
