<?xml version="1.0" encoding="UTF-8"?>
<svg xmlns="http://www.w3.org/2000/svg" id="Layer_1" data-name="Layer 1" viewBox="0 0 24 24">
  <path d="m23,22h-.873L14.773,1.979C14.341.805,13.252.045,12,.045s-2.341.76-2.773,1.936L1.873,22h-.873c-.553,0-1,.447-1,1s.447,1,1,1h1.536c.024,0,.048,0,.072,0h20.392c.553,0,1-.447,1-1s-.447-1-1-1ZM7.676,12h8.647l1.469,4H6.207l1.469-4Zm3.427-9.329c.214-.581.74-.626.896-.626s.683.045.896.625l2.693,7.33h-7.178l2.692-7.329Zm-5.631,15.329h13.056l1.469,4H4.003l1.469-4Z"/>
</svg>
