<?xml version="1.0" encoding="UTF-8"?>
<svg xmlns="http://www.w3.org/2000/svg" id="Layer_1" data-name="Layer 1" viewBox="0 0 24 24">
  <path d="m23.694,19.261l-2.396-2.396c-.479-.479-1.298-.14-1.298.537v1.424c-.796-.482-1.593-1.964-2.256-3.209-.99-1.86-1.925-3.617-3.494-3.617s-2.504,1.757-3.494,3.617c-.802,1.507-1.8,3.383-2.756,3.383h-.76c.667-1.393,1.245-3.435,1.89-5.717.692-2.449,1.98-7.008,2.849-7.286.066.02.679.285,1.704,3.322.176.522.743.804,1.267.628.523-.177.805-.744.628-1.268-.82-2.431-1.821-4.68-3.577-4.68-2.213,0-3.264,3.321-4.795,8.739-.566,2.003-1.193,4.209-1.801,5.454-.25-.334-.404-.744-.404-1.193V4h1.559c.677,0,1.016-.819.537-1.298L4.7.306c-.408-.408-1.07-.408-1.478,0L.826,2.702c-.479.479-.14,1.298.537,1.298h1.636v13c0,2.206,1.794,4,4,4h13v1.598c0,.677.819,1.016,1.298.537l2.396-2.396c.408-.408.408-1.07,0-1.478Zm-11.172-2.705c.46-.864,1.315-2.471,1.721-2.557.421.086,1.276,1.693,1.736,2.557.44.828.908,1.693,1.442,2.443h-6.341c.534-.75,1.001-1.616,1.442-2.443Z"/>
</svg>
