<?xml version="1.0" encoding="UTF-8"?>
<svg xmlns="http://www.w3.org/2000/svg" id="Layer_1" data-name="Layer 1" viewBox="0 0 24 24">
  <path d="m6,18c.552,0,1-.448,1-1v-2h10v2c0,.552.448,1,1,1s1-.448,1-1V4.996c0-1.639,1.327-2.978,2.99-2.998.003,0,.006.002.01.002.552,0,1-.448,1-1s-.448-1-1-1c-.008,0-.014.004-.021.004V-.004c-2.745.012-4.979,2.254-4.979,5v2.004H7v-2.004c0-1.639,1.327-2.978,2.99-2.998.003,0,.006.002.01.002.552,0,1-.448,1-1s-.448-1-1-1c-.008,0-.014.004-.021.004V-.004c-2.745.012-4.979,2.254-4.979,5v12.004c0,.552.448,1,1,1Zm1-9h10v4H7v-4Zm16.668,13.978c-.734.659-1.682,1.022-2.668,1.022-1.127,0-2.221-.472-3-1.225-.778.753-1.872,1.225-3,1.225s-2.221-.472-3-1.225c-.778.753-1.872,1.225-3,1.225s-2.221-.472-3-1.225c-.778.753-1.872,1.225-3,1.225-.987,0-1.935-.363-2.668-1.023-.411-.369-.444-1.001-.075-1.412.369-.41,1.001-.444,1.412-.075.366.329.839.51,1.332.51.89,0,1.793-.585,2.057-1.333.141-.399.519-.667.943-.667s.801.267.943.667c.264.748,1.168,1.333,2.057,1.333s1.793-.585,2.057-1.333c.141-.399.519-.667.943-.667s.801.267.943.667c.264.748,1.168,1.333,2.057,1.333s1.793-.585,2.057-1.333c.141-.399.519-.667.943-.667s.801.267.943.667c.264.748,1.168,1.333,2.057,1.333.493,0,.966-.181,1.333-.511.411-.369,1.042-.335,1.412.076.369.411.335,1.043-.076,1.412Z"/>
</svg>
