<?xml version="1.0" encoding="UTF-8"?>
<svg xmlns="http://www.w3.org/2000/svg" id="Layer_1" data-name="Layer 1" viewBox="0 0 24 24">
  <path d="m15.98,7.136c.003.051.02.099.02.151v.714c0,.552.447,1,1,1s1-.448,1-1v-.714c0-1.79-.966-3.453-2.52-4.341l-4-2.286c-1.53-.875-3.432-.875-4.962,0L2.519,2.945C.965,3.833,0,5.497,0,7.287v6.344c0,1.758.939,3.406,2.452,4.302l4,2.369c.771.457,1.652.698,2.548.698.552,0,1-.448,1-1v-9.43l5.98-3.434ZM3.511,4.682l4-2.286c.919-.525,2.059-.524,2.978,0l4,2.286c.276.158.508.365.716.593l-6.221,3.573-6.216-3.536c.214-.243.455-.465.744-.63Zm3.96,13.899l-4-2.369c-.908-.538-1.471-1.526-1.471-2.581v-6.344c0-.035.013-.068.014-.102l5.986,3.406v8.239c-.183-.065-.36-.148-.529-.248Zm15.793.798l-.983-.566c.129-.418.218-.853.218-1.313s-.09-.895-.218-1.313l.983-.566c.479-.275.644-.887.367-1.366-.274-.477-.887-.644-1.365-.367l-.977.563c-.605-.652-1.393-1.126-2.289-1.33v-1.121c0-.552-.447-1-1-1s-1,.448-1,1v1.121c-.896.205-1.685.678-2.289,1.33l-.977-.563c-.479-.277-1.089-.11-1.365.367-.276.479-.112,1.09.367,1.366l.983.566c-.129.418-.218.853-.218,1.313s.09.895.218,1.313l-.983.566c-.479.275-.643.887-.367,1.366.185.321.521.5.867.5.169,0,.341-.043.498-.134l.977-.563c.605.652,1.393,1.126,2.289,1.33v1.121c0,.552.447,1,1,1s1-.448,1-1v-1.121c.896-.205,1.685-.678,2.289-1.33l.977.563c.157.091.329.134.498.134.346,0,.683-.18.867-.5.276-.479.111-1.09-.367-1.366Zm-5.265.621c-1.379,0-2.5-1.122-2.5-2.5s1.121-2.5,2.5-2.5,2.5,1.122,2.5,2.5-1.121,2.5-2.5,2.5Z"/>
</svg>
