<?xml version="1.0" encoding="UTF-8"?>
<svg xmlns="http://www.w3.org/2000/svg" id="Layer_1" data-name="Layer 1" viewBox="0 0 24 24">
  <path d="m2,2.5c0-1.381,1.119-2.5,2.5-2.5s2.5,1.119,2.5,2.5-1.119,2.5-2.5,2.5-2.5-1.119-2.5-2.5Zm5,7.5c-.553,0-1,.448-1,1v4h-2c-1.103,0-2-.897-2-2v-3c0-1.103.897-2,2-2h10c.553,0,1-.448,1-1s-.447-1-1-1H4C1.794,6,0,7.794,0,10v3c0,1.474.81,2.75,2,3.444v6.556c0,.553.447,1,1,1s1-.447,1-1v-6h2v6c0,.553.447,1,1,1s1-.447,1-1v-12c0-.552-.447-1-1-1ZM19.5,0h-9.5c-.553,0-1,.448-1,1s.447,1,1,1h9.5c1.379,0,2.5,1.122,2.5,2.5v6c0,1.378-1.121,2.5-2.5,2.5h-.5v-1c0-.552-.447-1-1-1h-2c-.553,0-1,.448-1,1v1h-4c-.553,0-1,.447-1,1s.447,1,1,1h8.5c2.481,0,4.5-2.019,4.5-4.5v-6c0-2.481-2.019-4.5-4.5-4.5Z"/>
</svg>
