<?xml version="1.0" encoding="UTF-8"?>
<svg xmlns="http://www.w3.org/2000/svg" id="Layer_1" data-name="Layer 1" viewBox="0 0 24 24">
  <path d="m17.994,2.286C16.085.58,13.517-.23,10.956.059,6.905.517,3.591,3.782,3.075,7.822c-.374,2.932.644,5.76,2.792,7.76,1.376,1.279,2.133,2.902,2.133,4.568v.29c0,1.996,1.537,3.56,3.5,3.56h1c1.93,0,3.5-1.57,3.5-3.5v-.739c0-1.486.687-2.906,1.933-3.998,1.949-1.709,3.067-4.174,3.067-6.763,0-2.56-1.096-5.007-3.006-6.714Zm-5.494,19.714h-1c-.841,0-1.5-.685-1.5-1.56v-.29c0-.05-.007-.1-.008-.15h4.008v.5c0,.827-.673,1.5-1.5,1.5Zm4.114-7.741c-1.177,1.031-1.989,2.34-2.368,3.741h-4.568c-.421-1.43-1.248-2.765-2.448-3.881-1.671-1.556-2.463-3.758-2.171-6.043.4-3.137,2.975-5.673,6.121-6.029.278-.031.554-.047.828-.047,1.725,0,3.353.617,4.652,1.778,1.486,1.328,2.339,3.231,2.339,5.222,0,2.013-.869,3.93-2.386,5.259Zm-.614-6.759v.871c-.598-.137-1.368-.271-1.6-.271-.773,0-1.4.627-1.4,1.4,0,.773.627,1.4,1.4,1.4.232,0,1.002-.134,1.6-.271v.871c0,.828-.672,1.5-1.5,1.5h-4c-.828,0-1.5-.672-1.5-1.5v-.651c-.401.095-.767.151-1,.151-.828,0-1.5-.672-1.5-1.5,0-.828.672-1.5,1.5-1.5.233,0,.599.056,1,.151v-.651c0-.828.672-1.5,1.5-1.5h.671c-.091-.391-.145-.746-.145-.974,0-.828.672-1.5,1.5-1.5.828,0,1.5.672,1.5,1.5,0,.228-.054.583-.146.974h.62c.828,0,1.5.672,1.5,1.5Z"/>
</svg>
