<?xml version="1.0" encoding="UTF-8"?>
<svg xmlns="http://www.w3.org/2000/svg" id="Layer_1" data-name="Layer 1" viewBox="0 0 24 24">
  <path d="m17.422,14.82l1.477-1.73c.518-.678.339-1.661-.399-2.09-.235-.137-.594-.408-.973-.665.304-.718.473-1.507.473-2.335h1c.553,0,1-.447,1-1s-.447-1-1-1h-1c0-1.406-1.491-6-3.5-6-.795,0-1.614.369-2.5,1.128-.887-.759-1.705-1.128-2.5-1.128-2.009,0-3.5,4.594-3.5,6h-1c-.553,0-1,.447-1,1s.447,1,1,1h1c0,.828.169,1.617.473,2.335-.379.257-.738.528-.973.665-.737.429-.917,1.412-.399,2.09l1.485,1.74c-2.238,1.68-3.587,4.29-3.587,7.17v1c0,.553.447,1,1,1s1-.447,1-1v-1c0-2.281,1.085-4.348,2.884-5.65l3.116,3.65v3c0,.553.447,1,1,1s1-.447,1-1v-3h0l3.119-3.654c1.794,1.308,2.881,3.403,2.881,5.654v1c0,.553.447,1,1,1s1-.447,1-1v-1c0-2.842-1.347-5.492-3.578-7.18Zm-6.922,1.18l-.823-2.468c.715.301,1.499.468,2.323.468s1.608-.167,2.323-.468l-.823,2.468h-3Zm-.88-13.988c.212.04.582.195,1.156.702.697.615,1.749.616,2.448,0,.573-.506.943-.661,1.155-.701.562.483,1.62,2.906,1.62,3.988h-8c0-1.082,1.058-3.505,1.62-3.988Zm6.38,5.988c0,2.206-1.794,4-4,4s-4-1.794-4-4h8Z"/>
</svg>
