<?xml version="1.0" encoding="UTF-8"?>
<svg xmlns="http://www.w3.org/2000/svg" id="Layer_1" data-name="Layer 1" viewBox="0 0 24 24">
  <path d="m19.333,4c-1.404,0-2.765.738-3.666,1.983-.644-.888-1.522-1.512-2.482-1.8.275-1.079.667-1.776.998-2.356l.195-.349c.265-.485.086-1.092-.399-1.356s-1.092-.085-1.356.399l-.177.315c-.389.684-.951,1.672-1.293,3.249-1.136.21-2.131.825-2.819,1.698-.855-1.085-2.181-1.783-3.667-1.783C2.093,4,0,6.093,0,8.667c0,2.928,2.833,15.333,8.5,15.333,1.364,0,2.653-.627,3.5-1.672.847,1.045,2.136,1.672,3.5,1.672,5.767,0,8.5-12.299,8.5-15.333,0-2.573-2.094-4.667-4.667-4.667Zm-3.833,18c-.885,0-1.712-.475-2.159-1.239-.274-.468-.788-.759-1.341-.759s-1.066.291-1.341.759c-.448.765-1.275,1.239-2.159,1.239-3.576,0-6.5-10.067-6.5-13.333,0-1.47,1.196-2.667,2.667-2.667s2.667,1.196,2.667,2.667c0,1.502.547,4.173,1.361,6.646.138.421.529.688.95.688.104,0,.209-.016.312-.05.525-.173.81-.738.637-1.263-.828-2.515-1.261-4.932-1.261-6.021,0-1.47,1.196-2.667,2.667-2.667.789,0,1.575.462,2.103,1.234.355.521.939.833,1.562.833h.002c.623,0,1.208-.311,1.564-.833.526-.773,1.312-1.234,2.102-1.234,1.471,0,2.667,1.196,2.667,2.667,0,3.124-2.771,13.333-6.5,13.333Z"/>
</svg>
