<?xml version="1.0" encoding="UTF-8"?>
<svg xmlns="http://www.w3.org/2000/svg" id="Layer_1" data-name="Layer 1" viewBox="0 0 24 24">
  <path d="m18,12c-3.309,0-6,2.691-6,6s2.691,6,6,6,6-2.691,6-6-2.691-6-6-6Zm3,8.643v-.143c0-.828-.672-1.5-1.5-1.5h-3c-.828,0-1.5.672-1.5,1.5v.143c-.622-.705-1-1.631-1-2.643,0-2.206,1.794-4,4-4s4,1.794,4,4c0,1.012-.378,1.937-1,2.643Zm-1.5-4.143c0,.828-.672,1.5-1.5,1.5s-1.5-.672-1.5-1.5.672-1.5,1.5-1.5,1.5.672,1.5,1.5Zm-.5-14.5h-1v-1c0-.552-.448-1-1-1s-1,.448-1,1v1h-8v-1c0-.552-.448-1-1-1s-1,.448-1,1v1h-1C2.243,2,0,4.243,0,7v12c0,2.757,2.243,5,5,5h5c.552,0,1-.448,1-1s-.448-1-1-1h-5c-1.654,0-3-1.346-3-3v-9h20c0,.552.448,1,1,1s1-.448,1-1v-3c0-2.757-2.243-5-5-5ZM2,8v-1c0-1.654,1.346-3,3-3h14c1.654,0,3,1.346,3,3v1H2Z"/>
</svg>
