<?xml version="1.0" encoding="UTF-8"?>
<svg xmlns="http://www.w3.org/2000/svg" id="Layer_1" data-name="Layer 1" viewBox="0 0 24 24">
  <path d="m6.5,19c0,.828-.672,1.5-1.5,1.5s-1.5-.672-1.5-1.5.672-1.5,1.5-1.5,1.5.672,1.5,1.5ZM24,7c0,1.178-.78,2-1.898,2h-4.688l1.293,1.293c.391.391.391,1.023,0,1.414-.195.195-.451.293-.707.293s-.512-.098-.707-.293l-1.793-1.793-1.366,1.366,2.564,2.504c.396.387.403,1.02.018,1.414-.196.201-.456.302-.716.302-.252,0-.504-.095-.698-.284l-2.582-2.521-1.306,1.306,3.293,3.293c.391.391.391,1.023,0,1.414-.195.195-.451.293-.707.293s-.512-.098-.707-.293l-3.293-3.293-.751.751c.856,1.006,1.555,2.149,2.054,3.39.288.718.259,1.522-.08,2.209s-.958,1.199-1.701,1.406c-1.528.428-3.32.697-5.478.823-.074.005-.147.007-.22.007-1.008,0-1.982-.402-2.702-1.122C.35,22.105-.057,21.041.006,19.956c.126-2.153.395-3.945.824-5.479.208-.743.721-1.363,1.408-1.701.687-.339,1.491-.368,2.207-.079,1.241.499,2.384,1.197,3.39,2.054l.751-.751-3.293-3.293c-.391-.391-.391-1.023,0-1.414s1.023-.391,1.414,0l3.293,3.293,1.289-1.289-2.565-2.504c-.395-.387-.402-1.02-.017-1.414.386-.396,1.02-.401,1.414-.018l2.582,2.521,1.383-1.383-1.793-1.793c-.391-.391-.391-1.023,0-1.414s1.023-.391,1.414,0l1.293,1.293V1.898c0-1.118.822-1.898,2-1.898,1.423,0,3.447.989,3.905,3.095,2.105.458,3.095,2.482,3.095,3.905Zm-14.553,13.3c-1.047-2.604-3.142-4.699-5.748-5.747-.191-.077-.397-.069-.577.018-.18.089-.31.247-.366.446-.389,1.394-.636,3.047-.752,5.057-.03.515.164,1.021.532,1.391s.879.562,1.391.533c2.014-.118,3.667-.364,5.056-.753.199-.056.357-.186.446-.365.089-.181.096-.386.018-.579Zm12.553-13.3c0-.02-.117-2-2-2-.553,0-1-.447-1-1,0-1.858-1.931-1.997-1.998-2l-.002,5h5Z"/>
</svg>
