<?xml version="1.0" encoding="UTF-8"?>
<svg xmlns="http://www.w3.org/2000/svg" id="Layer_1" data-name="Layer 1" viewBox="0 0 24 24">
  <path d="m22.536,1.465c-.945-.944-2.2-1.465-3.536-1.465s-2.591.521-3.536,1.465L4.233,12.695c-1.597,1.597-1.281,5.22-1.067,6.725l-2.873,2.873c-.391.391-.391,1.023,0,1.414.195.195.451.293.707.293s.512-.098.707-.293l2.873-2.873c.572.081,1.45.177,2.407.177,1.56,0,3.328-.255,4.318-1.244l11.231-11.231c.944-.944,1.464-2.199,1.464-3.535s-.52-2.591-1.464-3.535Zm-1.414,5.656l-11.231,11.231c-.719.717-3.021.749-4.777.534-.215-1.758-.184-4.059.534-4.777l1.524-1.524,1.622,1.622c.195.195.451.293.707.293s.512-.098.707-.293c.391-.391.391-1.023,0-1.414l-1.622-1.622,2.086-2.086,1.621,1.621c.195.195.451.293.707.293s.512-.098.707-.293c.391-.391.391-1.023,0-1.414l-1.621-1.621,2.086-2.086,1.621,1.621c.195.195.451.293.707.293s.512-.098.707-.293c.391-.391.391-1.023,0-1.414l-1.621-1.621,1.293-1.293c1.17-1.17,3.073-1.17,4.243,0,.566.566.878,1.319.878,2.121s-.312,1.555-.878,2.121Z"/>
</svg>
