<?xml version="1.0" encoding="UTF-8"?>
<svg xmlns="http://www.w3.org/2000/svg" id="Layer_1" data-name="Layer 1" viewBox="0 0 24 24">
  <path d="m22.746,3.344l-.245-.245c-2.723-2.729-7.112-2.811-9.785-.18-.157.155-.303.318-.444.485l-2.707-1.693c-1.986-1.243-4.605-.812-6.089,1.012l-2.452,3.014c-1.346,1.654-1.403,4.009-.14,5.728l1.452,1.972c-1.986,2.693-1.715,6.586.777,9.085l.246.247c.793.794,1.848,1.232,2.969,1.232h0c1.121,0,2.175-.438,2.967-1.232l13.45-13.48c1.635-1.639,1.635-4.305,0-5.944ZM2.575,6.998l2.452-3.014c.847-1.04,2.34-1.29,3.478-.579l6.569,4.109-2.88,2.887c-2.563-.553-5.606-.756-8.444,1.579l-1.253-1.702c-.724-.984-.691-2.333.079-3.281Zm5.306,14.358c-.415.416-.966.645-1.552.645s-1.138-.229-1.552-.644l-.246-.247c-1.953-1.958-2.028-5.093-.167-6.989,1.563-1.594,3.19-2.094,4.83-2.094,1.401,0,2.812.365,4.2.724.844.218,1.698.439,2.524.549l-8.038,8.056Zm10.449-10.484c-.749.751-1.983.559-3.868.087l2.35-2.356,2.335,1.461s-.787.776-.818.808Zm3.001-2.996l-.734.736-6.603-4.13c.042-.045.08-.092.124-.136,1.893-1.861,5.018-1.788,6.968.167l.245.245c.857.86.857,2.259,0,3.118Z"/>
</svg>
