<?xml version="1.0" encoding="UTF-8"?>
<svg xmlns="http://www.w3.org/2000/svg" id="Layer_1" data-name="Layer 1" viewBox="0 0 24 24">
  <path d="m9.5,2.5c0-1.381,1.119-2.5,2.5-2.5s2.5,1.119,2.5,2.5c0,1.025-.618,1.903-1.5,2.289v1.211c0,.553-.447,1-1,1s-1-.447-1-1v-1.211c-.882-.386-1.5-1.264-1.5-2.289Zm9.23,16.041l-3.73-1.259v-5.175c0-1.516-1.076-2.835-2.503-3.067-.88-.142-1.768.102-2.439.674-.672.571-1.058,1.404-1.058,2.286v7.563s-1.031-.814-1.039-.82c-1.211-1.052-3.049-.974-4.152.208-1.13,1.208-1.066,3.11.13,4.23l.558.538c.186.18.435.28.694.28.9,0,1.342-1.095.694-1.72l-.568-.548c-.403-.378-.424-1.013-.046-1.416.375-.402,1.008-.421,1.41-.048.01.009,1.771,1.414,1.771,1.414.476.38,1.111.45,1.66.187.548-.265.889-.807.889-1.415v-8.454c0-.294.129-.572.353-.763.228-.193.519-.274.822-.223.463.075.825.555.825,1.093v5.893c0,.429.273.811.681.947l4.38,1.478c1.11.416,1.872,1.449,1.941,2.634.031.531.472.941.997.941.02,0,.039,0,.06-.002.551-.032.972-.505.939-1.057-.115-1.973-1.386-3.696-3.268-4.4Zm-1.922-9.079c.204,0,.41-.062.588-.191l.85-.619c.37.216.794.349,1.254.349,1.381,0,2.5-1.119,2.5-2.5s-1.119-2.5-2.5-2.5-2.5,1.119-2.5,2.5c0,.186.023.365.062.539l-.843.614c-.446.325-.545.951-.22,1.397.196.269.501.411.81.411Zm-11.055-.811l.85.619c.178.129.384.191.588.191.309,0,.613-.143.81-.411.325-.446.227-1.072-.22-1.397l-.843-.614c.038-.174.062-.354.062-.539,0-1.381-1.119-2.5-2.5-2.5s-2.5,1.119-2.5,2.5,1.119,2.5,2.5,2.5c.459,0,.884-.133,1.254-.349Z"/>
</svg>
