<?xml version="1.0" encoding="UTF-8"?>
<svg xmlns="http://www.w3.org/2000/svg" id="Layer_1" data-name="Layer 1" viewBox="0 0 24 24">
  <path d="m21,0H6.499c-1.929,0-3.499,1.571-3.499,3.5v3.5c0,.552.448,1,1,1s1-.448,1-1v-3.5c0-.827.673-1.5,1.5-1.5s1.5.673,1.5,1.5c0,1.378,1.122,2.5,2.5,2.5h8.5v13c0,1.654-1.346,3-3,3h-2c-.552,0-1,.448-1,1s.448,1,1,1h2c2.757,0,5-2.243,5-5V6h.5c1.378,0,2.5-1.122,2.5-2.5v-.5c0-1.654-1.346-3-3-3Zm1,3.5c0,.276-.224.5-.5.5h-11c-.276,0-.5-.224-.5-.5,0-.537-.122-1.045-.338-1.5h11.338c.551,0,1,.449,1,1v.5Zm-13.5,6.5H3.5c-1.93,0-3.5,1.57-3.5,3.5v7c0,1.93,1.57,3.5,3.5,3.5h5c1.93,0,3.5-1.57,3.5-3.5v-7c0-1.93-1.57-3.5-3.5-3.5Zm1.5,10.5c0,.827-.673,1.5-1.5,1.5H3.5c-.827,0-1.5-.673-1.5-1.5v-7c0-.827.673-1.5,1.5-1.5h5c.827,0,1.5.673,1.5,1.5v7Zm-1-6.5c0,.552-.448,1-1,1h-4c-.552,0-1-.448-1-1s.448-1,1-1h4c.552,0,1,.448,1,1Zm0,3c0,.552-.448,1-1,1h-.5c-.552,0-1-.448-1-1s.448-1,1-1h.5c.552,0,1,.448,1,1Zm-3.5,0c0,.552-.448,1-1,1h-.5c-.552,0-1-.448-1-1s.448-1,1-1h.5c.552,0,1,.448,1,1Zm3.5,3c0,.552-.448,1-1,1h-.5c-.552,0-1-.448-1-1s.448-1,1-1h.5c.552,0,1,.448,1,1Zm-3.5,0c0,.552-.448,1-1,1h-.5c-.552,0-1-.448-1-1s.448-1,1-1h.5c.552,0,1,.448,1,1Z"/>
</svg>
