<?xml version="1.0" encoding="UTF-8"?>
<svg xmlns="http://www.w3.org/2000/svg" id="Layer_1" data-name="Layer 1" viewBox="0 0 24 24">
  <path d="m17.247,10.279c.483.473,1.118.709,1.753.709s1.27-.236,1.752-.709l1.783-1.744c1.95-1.95,1.95-5.122,0-7.071-.944-.944-2.2-1.464-3.535-1.464s-2.591.52-3.536,1.464c-1.949,1.95-1.949,5.122.008,7.079l1.775,1.736Zm-.369-7.4c.567-.567,1.32-.879,2.122-.879s1.555.312,2.121.878c1.17,1.17,1.17,3.073.008,4.235l-1.775,1.736c-.195.192-.513.192-.708,0l-1.767-1.728c-1.169-1.17-1.169-3.073,0-4.243ZM4,22c0,1.105-.895,2-2,2s-2-.895-2-2,.895-2,2-2,2,.895,2,2Zm10.5-6c0,1.105-.895,2-2,2s-2-.895-2-2,.895-2,2-2,2,.895,2,2Zm-12.5-3c0-2.206,1.794-4,4-4h7c.552,0,1,.448,1,1s-.448,1-1,1h-7c-1.103,0-2,.897-2,2s.897,2,2,2h2c.552,0,1,.448,1,1s-.448,1-1,1h-2c-2.206,0-4-1.794-4-4Zm22,6c0,2.206-1.794,4-4,4H7c-.552,0-1-.448-1-1s.448-1,1-1h13c1.103,0,2-.897,2-2s-.897-2-2-2h-3c-.552,0-1-.448-1-1s.448-1,1-1h3c2.206,0,4,1.794,4,4Zm-3.999-14.213c0,.552-.448,1-1,1s-1-.448-1-1,.448-1,1-1,1,.448,1,1Z"/>
</svg>
