<?xml version="1.0" encoding="UTF-8"?>
<svg xmlns="http://www.w3.org/2000/svg" id="Layer_1" data-name="Layer 1" viewBox="0 0 24 24">
  <path d="m23.744,21.565c.369.41.335,1.043-.075,1.412-.734.659-1.682,1.022-2.668,1.022-1.127,0-2.222-.472-3-1.225-.778.753-1.873,1.225-3,1.225s-2.222-.472-3-1.225c-.778.753-1.873,1.225-3,1.225s-2.222-.472-3-1.225c-.778.753-1.873,1.225-3,1.225-.987,0-1.935-.363-2.668-1.022-.411-.369-.444-1.002-.075-1.412.369-.41,1.001-.444,1.412-.076.366.329.839.511,1.332.511.89,0,1.793-.586,2.057-1.333.141-.399.519-.667.943-.667s.802.268.943.667c.264.747,1.167,1.333,2.057,1.333s1.793-.586,2.057-1.333c.141-.399.519-.667.943-.667s.802.268.943.667c.264.747,1.167,1.333,2.057,1.333s1.793-.586,2.057-1.333c.141-.399.519-.667.943-.667s.802.268.943.667c.264.747,1.167,1.333,2.057,1.333.493,0,.965-.182,1.332-.511.411-.368,1.043-.336,1.412.076Zm-1.333-17.84l-2.357-1.845c-1.503-1.178-3.604-1.178-5.106,0l-2.357,1.845c-1.01.79-1.59,1.979-1.59,3.262v5.013c0,.553.448,1,1,1s1-.447,1-1v-5.013c0-.663.3-1.278.822-1.688l2.357-1.845c.778-.607,1.863-.607,2.642,0l2.357,1.845c.522.409.822,1.024.822,1.688v5.013c0,.553.448,1,1,1s1-.447,1-1v-5.013c0-1.282-.58-2.472-1.59-3.262Zm-4.41,6.274c.552,0,1-.448,1-1v-1c0-.552-.448-1-1-1h-1c-.552,0-1,.448-1,1v1c0,.552.448,1,1,1h1Zm4.332,5.489c-.366.329-.839.511-1.332.511-.89,0-1.793-.586-2.057-1.333-.141-.399-.519-.667-.943-.667s-.802.268-.943.667c-.229.647-1.543,1.333-2.557,1.333h-.5c-4.187,0-7-2.813-7-7,0-2.812,1.618-5.75,3.934-7.144.385-.231.568-.691.448-1.124s-.514-.732-.963-.732h-.918C4.084,0,0,3.869,0,9v4c0,.553.448,1,1,1s1-.447,1-1v-4c0-3.338,2.255-5.989,5.495-6.768-1.552,1.867-2.495,4.323-2.495,6.768,0,5.299,3.701,9,9,9h.5c1.136,0,2.497-.484,3.439-1.285.782.788,1.903,1.285,3.061,1.285.987,0,1.935-.363,2.668-1.022.411-.369.444-1.002.075-1.412-.369-.412-1.001-.444-1.412-.076Z"/>
</svg>
