<?xml version="1.0" encoding="UTF-8"?>
<svg xmlns="http://www.w3.org/2000/svg" id="Layer_1" data-name="Layer 1" viewBox="0 0 24 24">
  <path d="m10,22v-1c0-1.654-1.346-3-3-3h-.373c.663-1.253,1.373-2.764,1.373-3.5,0-1.381-1.119-2.45-2.5-2.45s-2.5,1.069-2.5,2.45c0,.736.71,2.247,1.373,3.5h-.373c-1.654,0-3,1.346-3,3v1c-.553,0-1,.447-1,1s.447,1,1,1h9c.553,0,1-.447,1-1s-.447-1-1-1Zm-2,0H3v-1c0-.552.448-1,1-1h3c.552,0,1,.448,1,1v1Zm8-11h-4c-.553,0-1-.447-1-1s.447-1,1-1h4c.553,0,1,.447,1,1s-.447,1-1,1Zm8-6v14c0,2.757-2.243,5-5,5h-5c-.553,0-1-.447-1-1s.447-1,1-1h5c1.654,0,3-1.346,3-3V5c0-1.654-1.346-3-3-3h-8c-1.654,0-3,1.346-3,3v4.051c0,.553-.447,1-1,1s-1-.447-1-1v-4.051c0-2.757,2.243-5,5-5h8c2.757,0,5,2.243,5,5Zm-11,11.5c0,1.93,1.57,3.5,3.5,3.5s3.5-1.57,3.5-3.5-1.57-3.5-3.5-3.5-3.5,1.57-3.5,3.5Zm5,0c0,.827-.673,1.5-1.5,1.5s-1.5-.673-1.5-1.5.673-1.5,1.5-1.5,1.5.673,1.5,1.5Zm1-10.5c0,.553-.447,1-1,1h-6c-.553,0-1-.447-1-1s.447-1,1-1h6c.553,0,1,.447,1,1Z"/>
</svg>
